G04 (created by PCBNEW (2013-03-19 BZR 4004)-stable) date 11/24/2013 3:24:33 PM*
%MOIN*%
G04 Gerber Fmt 3.4, Leading zero omitted, Abs format*
%FSLAX34Y34*%
G01*
G70*
G90*
G04 APERTURE LIST*
%ADD10C,0.006*%
%ADD11R,0.06X0.06*%
%ADD12C,0.06*%
%ADD13R,0.0787402X0.0787402*%
%ADD14C,0.0787402*%
%ADD15C,0.11811*%
%ADD16C,0.0551181*%
%ADD17O,0.0866142X0.110236*%
%ADD18C,0.0629921*%
%ADD19C,0.075*%
%ADD20C,0.07*%
%ADD21R,0.07X0.07*%
%ADD22C,0.0984252*%
%ADD23C,0.16*%
%ADD24O,0.06X0.1*%
%ADD25O,0.125X0.125*%
%ADD26C,0.046*%
%ADD27C,0.02*%
%ADD28C,0.01*%
%ADD29C,0.048*%
G04 APERTURE END LIST*
G54D10*
G54D11*
X78650Y-37650D03*
G54D12*
X79650Y-37650D03*
X78650Y-38650D03*
X79650Y-38650D03*
X78650Y-39650D03*
X79650Y-39650D03*
G54D13*
X84700Y-53350D03*
G54D14*
X84700Y-51381D03*
X84700Y-49412D03*
G54D13*
X84800Y-46450D03*
G54D14*
X84800Y-45072D03*
X84800Y-43694D03*
X84800Y-42316D03*
X84800Y-40938D03*
X84800Y-39560D03*
X84800Y-38182D03*
X84800Y-36804D03*
X84800Y-35426D03*
X84800Y-34048D03*
X84800Y-32670D03*
X84800Y-31292D03*
G54D15*
X25974Y-51888D03*
X25974Y-50235D03*
X25974Y-48581D03*
X25974Y-46928D03*
X25974Y-45274D03*
X25974Y-43621D03*
X25974Y-41967D03*
X25974Y-40314D03*
X25974Y-38660D03*
X25974Y-37007D03*
X25974Y-35353D03*
X25974Y-33700D03*
X28139Y-51888D03*
X28139Y-50235D03*
X28139Y-48581D03*
X28139Y-46928D03*
X28139Y-45274D03*
X28139Y-43621D03*
X28139Y-41967D03*
X28139Y-40314D03*
X28139Y-38660D03*
X28139Y-37007D03*
X28139Y-35353D03*
X28139Y-33700D03*
G54D16*
X38413Y-31190D03*
X37625Y-31190D03*
X36838Y-31190D03*
G54D17*
X53529Y-32616D03*
X49670Y-32616D03*
G54D18*
X51600Y-31750D03*
X52584Y-31750D03*
X50615Y-31750D03*
G54D17*
X46879Y-32566D03*
X43020Y-32566D03*
G54D18*
X44950Y-31700D03*
X45934Y-31700D03*
X43965Y-31700D03*
G54D19*
X75360Y-51660D03*
X76160Y-49300D03*
X80960Y-49300D03*
X80960Y-54020D03*
X76160Y-54020D03*
G54D20*
X68265Y-33863D03*
X69265Y-33863D03*
G54D21*
X70265Y-33863D03*
G54D20*
X76000Y-34842D03*
X75000Y-34842D03*
G54D21*
X74000Y-34842D03*
G54D20*
X80921Y-34842D03*
X79921Y-34842D03*
G54D21*
X78921Y-34842D03*
G54D20*
X61155Y-34003D03*
X62155Y-34003D03*
G54D21*
X63155Y-34003D03*
G54D22*
X62195Y-31343D03*
X69155Y-31233D03*
G54D23*
X35300Y-44750D03*
G54D11*
X35300Y-47500D03*
G54D12*
X35300Y-48500D03*
G54D10*
G36*
X36822Y-45846D02*
X37246Y-45422D01*
X37670Y-45846D01*
X37246Y-46270D01*
X36822Y-45846D01*
X36822Y-45846D01*
G37*
G54D12*
X37953Y-46553D03*
G54D11*
X35200Y-42700D03*
G54D12*
X35200Y-41700D03*
G54D10*
G36*
X36846Y-44177D02*
X36422Y-43753D01*
X36846Y-43329D01*
X37270Y-43753D01*
X36846Y-44177D01*
X36846Y-44177D01*
G37*
G54D12*
X37553Y-43046D03*
G54D24*
X48790Y-35280D03*
X47790Y-35280D03*
X46790Y-35280D03*
X45790Y-35280D03*
X44790Y-35280D03*
X43790Y-35280D03*
X42790Y-35280D03*
X41790Y-35280D03*
X46390Y-54280D03*
X45390Y-54280D03*
X44390Y-54280D03*
X43390Y-54280D03*
X47390Y-54280D03*
X48390Y-54280D03*
X49390Y-54280D03*
X50390Y-54280D03*
X52390Y-54280D03*
X53390Y-54280D03*
X54390Y-54280D03*
X55390Y-54280D03*
X56390Y-54280D03*
X57390Y-54280D03*
X57390Y-35280D03*
X56390Y-35280D03*
X55390Y-35280D03*
X54390Y-35280D03*
X53390Y-35280D03*
X52390Y-35280D03*
X51390Y-35280D03*
X50390Y-35280D03*
G54D25*
X58390Y-52280D03*
X58390Y-41280D03*
X38390Y-35280D03*
X37890Y-54280D03*
G54D26*
X73950Y-44650D03*
X28100Y-53200D03*
X50400Y-50500D03*
X71600Y-50800D03*
X31525Y-51050D03*
X33900Y-34725D03*
G54D27*
X28950Y-31400D03*
G54D26*
X58100Y-32700D03*
X35950Y-36000D03*
X33225Y-47050D03*
X60600Y-46500D03*
X36800Y-47100D03*
G54D27*
X61900Y-42600D03*
X64800Y-38550D03*
X81500Y-38000D03*
G54D26*
X33175Y-42625D03*
X29400Y-32850D03*
X37750Y-37100D03*
X33850Y-32850D03*
G54D27*
X66750Y-41750D03*
X58000Y-37950D03*
X72050Y-36325D03*
X56875Y-45150D03*
X46200Y-39975D03*
X44850Y-39850D03*
X64450Y-53200D03*
X60525Y-43450D03*
X60800Y-41150D03*
X39975Y-31750D03*
X40000Y-32650D03*
X48775Y-39025D03*
X65125Y-42600D03*
X54500Y-38150D03*
X64840Y-41900D03*
X55450Y-38650D03*
X64825Y-43200D03*
X52550Y-38225D03*
X60525Y-42725D03*
G54D26*
X61500Y-46700D03*
X63300Y-48400D03*
G54D27*
X63700Y-46300D03*
X58950Y-30675D03*
X65900Y-38100D03*
X64300Y-38600D03*
X63700Y-38500D03*
X74940Y-38200D03*
X62000Y-38100D03*
X61600Y-39500D03*
X67925Y-40025D03*
G54D26*
X73300Y-36000D03*
G54D27*
X64425Y-42900D03*
G54D26*
X73850Y-43900D03*
G54D27*
X62550Y-39900D03*
G54D26*
X67700Y-41050D03*
G54D27*
X83300Y-38000D03*
G54D26*
X76350Y-40200D03*
X78300Y-36450D03*
X81200Y-33700D03*
X77450Y-34750D03*
X73900Y-38350D03*
X75000Y-34842D03*
X76350Y-38000D03*
X31875Y-36225D03*
G54D27*
X32000Y-31900D03*
G54D26*
X47275Y-48925D03*
G54D27*
X48650Y-48300D03*
G54D26*
X31950Y-39600D03*
X83800Y-46700D03*
X64100Y-46700D03*
X60700Y-48500D03*
G54D27*
X38025Y-32550D03*
G54D26*
X65700Y-35800D03*
X69900Y-49625D03*
G54D27*
X71450Y-38450D03*
X72200Y-38750D03*
X63810Y-40620D03*
X64190Y-40550D03*
X65250Y-38650D03*
X70050Y-38350D03*
X74450Y-38750D03*
X76900Y-37300D03*
X75000Y-39500D03*
X76400Y-37500D03*
X70800Y-41100D03*
X71600Y-39400D03*
G54D26*
X69900Y-54700D03*
X64100Y-54300D03*
G54D28*
X47275Y-48925D02*
X48350Y-48925D01*
X48350Y-48925D02*
X48675Y-48600D01*
G54D29*
X36575Y-48000D02*
X36575Y-48475D01*
X35300Y-44750D02*
X35300Y-45400D01*
X36175Y-47600D02*
X36575Y-48000D01*
X36175Y-46275D02*
X36175Y-47600D01*
X35300Y-45400D02*
X36175Y-46275D01*
X37025Y-48925D02*
X47275Y-48925D01*
X36575Y-48475D02*
X37025Y-48925D01*
G54D28*
X48650Y-48300D02*
X48675Y-48325D01*
X48675Y-48325D02*
X48675Y-48600D01*
G54D29*
X35200Y-42700D02*
X35200Y-44650D01*
X35200Y-44650D02*
X35300Y-44750D01*
X35400Y-47300D02*
X35400Y-44850D01*
X35400Y-44850D02*
X35300Y-44750D01*
X37246Y-45646D02*
X36600Y-45000D01*
X35550Y-45000D02*
X35300Y-44750D01*
X36600Y-45000D02*
X35550Y-45000D01*
X36846Y-43753D02*
X36646Y-43753D01*
X35650Y-44750D02*
X35300Y-44750D01*
X36646Y-43753D02*
X35650Y-44750D01*
X35300Y-44750D02*
X32100Y-44750D01*
X32100Y-44750D02*
X32050Y-44800D01*
G54D10*
G36*
X85849Y-30579D02*
X85825Y-37175D01*
X85447Y-37178D01*
X85447Y-35530D01*
X85443Y-35417D01*
X85443Y-33920D01*
X85443Y-32542D01*
X85443Y-31165D01*
X85346Y-30928D01*
X85165Y-30747D01*
X84928Y-30648D01*
X84672Y-30648D01*
X84435Y-30746D01*
X84254Y-30927D01*
X84156Y-31163D01*
X84156Y-31419D01*
X84253Y-31656D01*
X84434Y-31837D01*
X84671Y-31936D01*
X84927Y-31936D01*
X85164Y-31838D01*
X85345Y-31657D01*
X85443Y-31421D01*
X85443Y-31165D01*
X85443Y-32542D01*
X85346Y-32306D01*
X85165Y-32125D01*
X84928Y-32026D01*
X84672Y-32026D01*
X84435Y-32124D01*
X84254Y-32305D01*
X84156Y-32541D01*
X84156Y-32797D01*
X84253Y-33034D01*
X84434Y-33215D01*
X84671Y-33314D01*
X84927Y-33314D01*
X85164Y-33216D01*
X85345Y-33035D01*
X85443Y-32799D01*
X85443Y-32542D01*
X85443Y-33920D01*
X85346Y-33684D01*
X85165Y-33503D01*
X84928Y-33404D01*
X84672Y-33404D01*
X84435Y-33502D01*
X84254Y-33683D01*
X84156Y-33919D01*
X84156Y-34175D01*
X84253Y-34412D01*
X84434Y-34593D01*
X84671Y-34692D01*
X84927Y-34692D01*
X85164Y-34594D01*
X85345Y-34413D01*
X85443Y-34177D01*
X85443Y-33920D01*
X85443Y-35417D01*
X85438Y-35274D01*
X85358Y-35082D01*
X85253Y-35043D01*
X85183Y-35114D01*
X85183Y-34972D01*
X85144Y-34867D01*
X84904Y-34778D01*
X84648Y-34787D01*
X84455Y-34867D01*
X84416Y-34972D01*
X84800Y-35355D01*
X85183Y-34972D01*
X85183Y-35114D01*
X84870Y-35426D01*
X85253Y-35809D01*
X85358Y-35770D01*
X85447Y-35530D01*
X85447Y-37178D01*
X85335Y-37179D01*
X85345Y-37169D01*
X85443Y-36932D01*
X85443Y-36676D01*
X85346Y-36440D01*
X85183Y-36276D01*
X85183Y-35880D01*
X84800Y-35497D01*
X84729Y-35567D01*
X84729Y-35426D01*
X84346Y-35043D01*
X84241Y-35082D01*
X84152Y-35322D01*
X84161Y-35578D01*
X84241Y-35770D01*
X84346Y-35809D01*
X84729Y-35426D01*
X84729Y-35567D01*
X84416Y-35880D01*
X84455Y-35985D01*
X84695Y-36074D01*
X84951Y-36064D01*
X85144Y-35985D01*
X85183Y-35880D01*
X85183Y-36276D01*
X85165Y-36258D01*
X84928Y-36160D01*
X84672Y-36160D01*
X84435Y-36258D01*
X84254Y-36439D01*
X84156Y-36675D01*
X84156Y-36931D01*
X84253Y-37168D01*
X84274Y-37188D01*
X83000Y-37199D01*
X83025Y-32974D01*
X82740Y-32977D01*
X82740Y-31383D01*
X82613Y-31074D01*
X82376Y-30837D01*
X82067Y-30709D01*
X81733Y-30709D01*
X81424Y-30837D01*
X81187Y-31073D01*
X81059Y-31382D01*
X81059Y-31716D01*
X81187Y-32025D01*
X81423Y-32262D01*
X81732Y-32390D01*
X82066Y-32390D01*
X82375Y-32263D01*
X82612Y-32026D01*
X82740Y-31717D01*
X82740Y-31383D01*
X82740Y-32977D01*
X72125Y-33075D01*
X72101Y-35975D01*
X71980Y-35974D01*
X71852Y-36028D01*
X71753Y-36126D01*
X71743Y-36150D01*
X70865Y-36151D01*
X70865Y-34163D01*
X70865Y-33463D01*
X70827Y-33371D01*
X70757Y-33301D01*
X70665Y-33263D01*
X70566Y-33263D01*
X69866Y-33263D01*
X69774Y-33301D01*
X69703Y-33371D01*
X69680Y-33428D01*
X69606Y-33354D01*
X69385Y-33263D01*
X69146Y-33263D01*
X68926Y-33354D01*
X68765Y-33514D01*
X68606Y-33354D01*
X68385Y-33263D01*
X68146Y-33263D01*
X67926Y-33354D01*
X67757Y-33522D01*
X67665Y-33743D01*
X67665Y-33981D01*
X67756Y-34202D01*
X67925Y-34371D01*
X68145Y-34463D01*
X68384Y-34463D01*
X68605Y-34372D01*
X68765Y-34211D01*
X68925Y-34371D01*
X69145Y-34463D01*
X69384Y-34463D01*
X69605Y-34372D01*
X69680Y-34297D01*
X69703Y-34354D01*
X69773Y-34424D01*
X69865Y-34463D01*
X69965Y-34463D01*
X70665Y-34463D01*
X70757Y-34425D01*
X70827Y-34354D01*
X70865Y-34263D01*
X70865Y-34163D01*
X70865Y-36151D01*
X63755Y-36161D01*
X63755Y-34303D01*
X63755Y-33603D01*
X63717Y-33511D01*
X63647Y-33441D01*
X63555Y-33403D01*
X63456Y-33403D01*
X62938Y-33403D01*
X62938Y-31196D01*
X62825Y-30923D01*
X62616Y-30714D01*
X62344Y-30601D01*
X62048Y-30600D01*
X61775Y-30713D01*
X61566Y-30922D01*
X61453Y-31194D01*
X61453Y-31490D01*
X61566Y-31762D01*
X61774Y-31971D01*
X62047Y-32085D01*
X62342Y-32085D01*
X62615Y-31972D01*
X62824Y-31764D01*
X62937Y-31491D01*
X62938Y-31196D01*
X62938Y-33403D01*
X62756Y-33403D01*
X62664Y-33441D01*
X62593Y-33511D01*
X62570Y-33568D01*
X62496Y-33494D01*
X62275Y-33403D01*
X62036Y-33403D01*
X61816Y-33494D01*
X61655Y-33654D01*
X61496Y-33494D01*
X61275Y-33403D01*
X61036Y-33403D01*
X60816Y-33494D01*
X60647Y-33662D01*
X60555Y-33883D01*
X60555Y-34121D01*
X60646Y-34342D01*
X60815Y-34511D01*
X61035Y-34603D01*
X61274Y-34603D01*
X61495Y-34512D01*
X61655Y-34351D01*
X61815Y-34511D01*
X62035Y-34603D01*
X62274Y-34603D01*
X62495Y-34512D01*
X62570Y-34437D01*
X62593Y-34494D01*
X62663Y-34564D01*
X62755Y-34603D01*
X62855Y-34603D01*
X63555Y-34603D01*
X63647Y-34565D01*
X63717Y-34494D01*
X63755Y-34403D01*
X63755Y-34303D01*
X63755Y-36161D01*
X58580Y-36168D01*
X58580Y-32604D01*
X58507Y-32428D01*
X58372Y-32293D01*
X58195Y-32220D01*
X58004Y-32219D01*
X57828Y-32292D01*
X57693Y-32427D01*
X57620Y-32604D01*
X57619Y-32795D01*
X57692Y-32971D01*
X57827Y-33106D01*
X58004Y-33179D01*
X58195Y-33180D01*
X58371Y-33107D01*
X58506Y-32972D01*
X58579Y-32795D01*
X58580Y-32604D01*
X58580Y-36168D01*
X57940Y-36169D01*
X57940Y-35494D01*
X57940Y-35065D01*
X57898Y-34854D01*
X57778Y-34676D01*
X57600Y-34557D01*
X57390Y-34515D01*
X57179Y-34557D01*
X57001Y-34676D01*
X56890Y-34842D01*
X56778Y-34676D01*
X56600Y-34557D01*
X56390Y-34515D01*
X56179Y-34557D01*
X56001Y-34676D01*
X55890Y-34842D01*
X55778Y-34676D01*
X55600Y-34557D01*
X55390Y-34515D01*
X55179Y-34557D01*
X55001Y-34676D01*
X54890Y-34842D01*
X54778Y-34676D01*
X54600Y-34557D01*
X54390Y-34515D01*
X54212Y-34550D01*
X54212Y-32749D01*
X54212Y-32482D01*
X54160Y-32220D01*
X54012Y-31999D01*
X53790Y-31851D01*
X53529Y-31799D01*
X53267Y-31851D01*
X53110Y-31956D01*
X53149Y-31862D01*
X53149Y-31638D01*
X53063Y-31430D01*
X52904Y-31271D01*
X52697Y-31185D01*
X52472Y-31184D01*
X52264Y-31270D01*
X52105Y-31429D01*
X52094Y-31455D01*
X52093Y-31453D01*
X51996Y-31423D01*
X51926Y-31494D01*
X51926Y-31353D01*
X51896Y-31256D01*
X51685Y-31180D01*
X51460Y-31191D01*
X51303Y-31256D01*
X51273Y-31353D01*
X51600Y-31679D01*
X51926Y-31353D01*
X51926Y-31494D01*
X51670Y-31750D01*
X51996Y-32076D01*
X52093Y-32046D01*
X52094Y-32044D01*
X52105Y-32069D01*
X52263Y-32228D01*
X52471Y-32314D01*
X52696Y-32315D01*
X52895Y-32232D01*
X52846Y-32482D01*
X52846Y-32749D01*
X52898Y-33011D01*
X53046Y-33232D01*
X53267Y-33381D01*
X53529Y-33433D01*
X53790Y-33381D01*
X54012Y-33232D01*
X54160Y-33011D01*
X54212Y-32749D01*
X54212Y-34550D01*
X54179Y-34557D01*
X54001Y-34676D01*
X53890Y-34842D01*
X53778Y-34676D01*
X53600Y-34557D01*
X53390Y-34515D01*
X53179Y-34557D01*
X53001Y-34676D01*
X52890Y-34842D01*
X52778Y-34676D01*
X52600Y-34557D01*
X52390Y-34515D01*
X52179Y-34557D01*
X52001Y-34676D01*
X51926Y-34788D01*
X51926Y-32146D01*
X51600Y-31820D01*
X51529Y-31891D01*
X51529Y-31750D01*
X51203Y-31423D01*
X51106Y-31453D01*
X51105Y-31455D01*
X51094Y-31430D01*
X50936Y-31271D01*
X50728Y-31185D01*
X50503Y-31184D01*
X50296Y-31270D01*
X50137Y-31429D01*
X50050Y-31637D01*
X50050Y-31861D01*
X50089Y-31956D01*
X49932Y-31851D01*
X49670Y-31799D01*
X49409Y-31851D01*
X49187Y-31999D01*
X49039Y-32220D01*
X48987Y-32482D01*
X48987Y-32749D01*
X49039Y-33011D01*
X49187Y-33232D01*
X49409Y-33381D01*
X49670Y-33433D01*
X49932Y-33381D01*
X50153Y-33232D01*
X50301Y-33011D01*
X50353Y-32749D01*
X50353Y-32482D01*
X50304Y-32232D01*
X50502Y-32314D01*
X50727Y-32315D01*
X50935Y-32229D01*
X51094Y-32070D01*
X51105Y-32044D01*
X51106Y-32046D01*
X51203Y-32076D01*
X51529Y-31750D01*
X51529Y-31891D01*
X51273Y-32146D01*
X51303Y-32243D01*
X51514Y-32319D01*
X51739Y-32308D01*
X51896Y-32243D01*
X51926Y-32146D01*
X51926Y-34788D01*
X51890Y-34842D01*
X51778Y-34676D01*
X51600Y-34557D01*
X51390Y-34515D01*
X51179Y-34557D01*
X51001Y-34676D01*
X50890Y-34842D01*
X50778Y-34676D01*
X50600Y-34557D01*
X50390Y-34515D01*
X50179Y-34557D01*
X50001Y-34676D01*
X49881Y-34854D01*
X49840Y-35065D01*
X49840Y-35494D01*
X49881Y-35705D01*
X50001Y-35883D01*
X50179Y-36002D01*
X50390Y-36044D01*
X50600Y-36002D01*
X50778Y-35883D01*
X50890Y-35717D01*
X51001Y-35883D01*
X51179Y-36002D01*
X51390Y-36044D01*
X51600Y-36002D01*
X51778Y-35883D01*
X51890Y-35717D01*
X52001Y-35883D01*
X52179Y-36002D01*
X52390Y-36044D01*
X52600Y-36002D01*
X52778Y-35883D01*
X52890Y-35717D01*
X53001Y-35883D01*
X53179Y-36002D01*
X53390Y-36044D01*
X53600Y-36002D01*
X53778Y-35883D01*
X53890Y-35717D01*
X54001Y-35883D01*
X54179Y-36002D01*
X54390Y-36044D01*
X54600Y-36002D01*
X54778Y-35883D01*
X54890Y-35717D01*
X55001Y-35883D01*
X55179Y-36002D01*
X55390Y-36044D01*
X55600Y-36002D01*
X55778Y-35883D01*
X55890Y-35717D01*
X56001Y-35883D01*
X56179Y-36002D01*
X56390Y-36044D01*
X56600Y-36002D01*
X56778Y-35883D01*
X56890Y-35717D01*
X57001Y-35883D01*
X57179Y-36002D01*
X57390Y-36044D01*
X57600Y-36002D01*
X57778Y-35883D01*
X57898Y-35705D01*
X57940Y-35494D01*
X57940Y-36169D01*
X49340Y-36180D01*
X49340Y-35494D01*
X49340Y-35065D01*
X49298Y-34854D01*
X49178Y-34676D01*
X49000Y-34557D01*
X48790Y-34515D01*
X48579Y-34557D01*
X48401Y-34676D01*
X48290Y-34842D01*
X48178Y-34676D01*
X48000Y-34557D01*
X47790Y-34515D01*
X47579Y-34557D01*
X47562Y-34568D01*
X47562Y-32699D01*
X47562Y-32432D01*
X47510Y-32170D01*
X47362Y-31949D01*
X47140Y-31801D01*
X46879Y-31749D01*
X46617Y-31801D01*
X46460Y-31906D01*
X46499Y-31812D01*
X46499Y-31588D01*
X46413Y-31380D01*
X46254Y-31221D01*
X46047Y-31135D01*
X45822Y-31134D01*
X45614Y-31220D01*
X45455Y-31379D01*
X45444Y-31405D01*
X45443Y-31403D01*
X45346Y-31373D01*
X45276Y-31444D01*
X45276Y-31303D01*
X45246Y-31206D01*
X45035Y-31130D01*
X44810Y-31141D01*
X44653Y-31206D01*
X44623Y-31303D01*
X44950Y-31629D01*
X45276Y-31303D01*
X45276Y-31444D01*
X45020Y-31700D01*
X45346Y-32026D01*
X45443Y-31996D01*
X45444Y-31994D01*
X45455Y-32019D01*
X45613Y-32178D01*
X45821Y-32264D01*
X46046Y-32265D01*
X46245Y-32182D01*
X46196Y-32432D01*
X46196Y-32699D01*
X46248Y-32961D01*
X46396Y-33182D01*
X46617Y-33331D01*
X46879Y-33383D01*
X47140Y-33331D01*
X47362Y-33182D01*
X47510Y-32961D01*
X47562Y-32699D01*
X47562Y-34568D01*
X47401Y-34676D01*
X47290Y-34842D01*
X47178Y-34676D01*
X47000Y-34557D01*
X46790Y-34515D01*
X46579Y-34557D01*
X46401Y-34676D01*
X46290Y-34842D01*
X46178Y-34676D01*
X46000Y-34557D01*
X45790Y-34515D01*
X45579Y-34557D01*
X45401Y-34676D01*
X45290Y-34842D01*
X45276Y-34821D01*
X45276Y-32096D01*
X44950Y-31770D01*
X44879Y-31841D01*
X44879Y-31700D01*
X44553Y-31373D01*
X44456Y-31403D01*
X44455Y-31405D01*
X44444Y-31380D01*
X44286Y-31221D01*
X44078Y-31135D01*
X43853Y-31134D01*
X43646Y-31220D01*
X43487Y-31379D01*
X43400Y-31587D01*
X43400Y-31811D01*
X43439Y-31906D01*
X43282Y-31801D01*
X43020Y-31749D01*
X42759Y-31801D01*
X42537Y-31949D01*
X42389Y-32170D01*
X42337Y-32432D01*
X42337Y-32699D01*
X42389Y-32961D01*
X42537Y-33182D01*
X42759Y-33331D01*
X43020Y-33383D01*
X43282Y-33331D01*
X43503Y-33182D01*
X43651Y-32961D01*
X43703Y-32699D01*
X43703Y-32432D01*
X43654Y-32182D01*
X43852Y-32264D01*
X44077Y-32265D01*
X44285Y-32179D01*
X44444Y-32020D01*
X44455Y-31994D01*
X44456Y-31996D01*
X44553Y-32026D01*
X44879Y-31700D01*
X44879Y-31841D01*
X44623Y-32096D01*
X44653Y-32193D01*
X44864Y-32269D01*
X45089Y-32258D01*
X45246Y-32193D01*
X45276Y-32096D01*
X45276Y-34821D01*
X45178Y-34676D01*
X45000Y-34557D01*
X44790Y-34515D01*
X44579Y-34557D01*
X44401Y-34676D01*
X44290Y-34842D01*
X44178Y-34676D01*
X44000Y-34557D01*
X43790Y-34515D01*
X43579Y-34557D01*
X43401Y-34676D01*
X43290Y-34842D01*
X43178Y-34676D01*
X43000Y-34557D01*
X42790Y-34515D01*
X42579Y-34557D01*
X42401Y-34676D01*
X42290Y-34842D01*
X42178Y-34676D01*
X42000Y-34557D01*
X41790Y-34515D01*
X41579Y-34557D01*
X41401Y-34676D01*
X41281Y-34854D01*
X41240Y-35065D01*
X41240Y-35494D01*
X41281Y-35705D01*
X41401Y-35883D01*
X41579Y-36002D01*
X41790Y-36044D01*
X42000Y-36002D01*
X42178Y-35883D01*
X42290Y-35717D01*
X42401Y-35883D01*
X42579Y-36002D01*
X42790Y-36044D01*
X43000Y-36002D01*
X43178Y-35883D01*
X43290Y-35717D01*
X43401Y-35883D01*
X43579Y-36002D01*
X43790Y-36044D01*
X44000Y-36002D01*
X44178Y-35883D01*
X44290Y-35717D01*
X44401Y-35883D01*
X44579Y-36002D01*
X44790Y-36044D01*
X45000Y-36002D01*
X45178Y-35883D01*
X45290Y-35717D01*
X45401Y-35883D01*
X45579Y-36002D01*
X45790Y-36044D01*
X46000Y-36002D01*
X46178Y-35883D01*
X46290Y-35717D01*
X46401Y-35883D01*
X46579Y-36002D01*
X46790Y-36044D01*
X47000Y-36002D01*
X47178Y-35883D01*
X47290Y-35717D01*
X47401Y-35883D01*
X47579Y-36002D01*
X47790Y-36044D01*
X48000Y-36002D01*
X48178Y-35883D01*
X48290Y-35717D01*
X48401Y-35883D01*
X48579Y-36002D01*
X48790Y-36044D01*
X49000Y-36002D01*
X49178Y-35883D01*
X49298Y-35705D01*
X49340Y-35494D01*
X49340Y-36180D01*
X40350Y-36192D01*
X40350Y-32580D01*
X40325Y-32520D01*
X40325Y-31680D01*
X40271Y-31552D01*
X40173Y-31453D01*
X40044Y-31400D01*
X39905Y-31399D01*
X39785Y-31449D01*
X39785Y-31082D01*
X39702Y-30881D01*
X39549Y-30728D01*
X39348Y-30644D01*
X39132Y-30644D01*
X38931Y-30727D01*
X38812Y-30846D01*
X38711Y-30744D01*
X38518Y-30664D01*
X38309Y-30664D01*
X38115Y-30744D01*
X38019Y-30840D01*
X37923Y-30744D01*
X37730Y-30664D01*
X37521Y-30664D01*
X37328Y-30744D01*
X37232Y-30840D01*
X37136Y-30744D01*
X36943Y-30664D01*
X36734Y-30664D01*
X36541Y-30744D01*
X36438Y-30846D01*
X36320Y-30728D01*
X36120Y-30644D01*
X35903Y-30644D01*
X35703Y-30727D01*
X35549Y-30880D01*
X35466Y-31081D01*
X35466Y-31297D01*
X35549Y-31498D01*
X35702Y-31651D01*
X35902Y-31735D01*
X36119Y-31735D01*
X36320Y-31652D01*
X36439Y-31533D01*
X36540Y-31635D01*
X36733Y-31715D01*
X36942Y-31715D01*
X37135Y-31635D01*
X37232Y-31539D01*
X37327Y-31635D01*
X37520Y-31715D01*
X37729Y-31715D01*
X37923Y-31635D01*
X38019Y-31539D01*
X38115Y-31635D01*
X38308Y-31715D01*
X38517Y-31715D01*
X38710Y-31635D01*
X38812Y-31533D01*
X38930Y-31651D01*
X39131Y-31735D01*
X39347Y-31735D01*
X39548Y-31652D01*
X39701Y-31499D01*
X39785Y-31298D01*
X39785Y-31082D01*
X39785Y-31449D01*
X39777Y-31453D01*
X39678Y-31551D01*
X39625Y-31680D01*
X39624Y-31819D01*
X39678Y-31948D01*
X39776Y-32046D01*
X39905Y-32099D01*
X40044Y-32100D01*
X40173Y-32046D01*
X40271Y-31948D01*
X40324Y-31819D01*
X40325Y-31680D01*
X40325Y-32520D01*
X40296Y-32452D01*
X40198Y-32353D01*
X40069Y-32300D01*
X39930Y-32299D01*
X39802Y-32353D01*
X39703Y-32451D01*
X39650Y-32580D01*
X39649Y-32719D01*
X39703Y-32848D01*
X39801Y-32946D01*
X39930Y-32999D01*
X40069Y-33000D01*
X40198Y-32946D01*
X40296Y-32848D01*
X40349Y-32719D01*
X40350Y-32580D01*
X40350Y-36192D01*
X39282Y-36194D01*
X39282Y-35280D01*
X39215Y-34945D01*
X39025Y-34661D01*
X38741Y-34471D01*
X38407Y-34405D01*
X38372Y-34405D01*
X38038Y-34471D01*
X37754Y-34661D01*
X37564Y-34945D01*
X37497Y-35280D01*
X37564Y-35614D01*
X37754Y-35898D01*
X38038Y-36088D01*
X38372Y-36155D01*
X38407Y-36155D01*
X38741Y-36088D01*
X39025Y-35898D01*
X39215Y-35614D01*
X39282Y-35280D01*
X39282Y-36194D01*
X36387Y-36198D01*
X36429Y-36095D01*
X36430Y-35904D01*
X36357Y-35728D01*
X36222Y-35593D01*
X36045Y-35520D01*
X35854Y-35519D01*
X35678Y-35592D01*
X35543Y-35727D01*
X35470Y-35904D01*
X35469Y-36095D01*
X35542Y-36271D01*
X35677Y-36406D01*
X35854Y-36479D01*
X36045Y-36480D01*
X36221Y-36407D01*
X36350Y-36278D01*
X36350Y-42350D01*
X35754Y-42350D01*
X35754Y-41781D01*
X35743Y-41563D01*
X35681Y-41412D01*
X35585Y-41384D01*
X35515Y-41455D01*
X35515Y-41314D01*
X35487Y-41218D01*
X35281Y-41145D01*
X35063Y-41156D01*
X34912Y-41218D01*
X34884Y-41314D01*
X35200Y-41629D01*
X35515Y-41314D01*
X35515Y-41455D01*
X35270Y-41700D01*
X35585Y-42015D01*
X35681Y-41987D01*
X35754Y-41781D01*
X35754Y-42350D01*
X35749Y-42350D01*
X35712Y-42258D01*
X35641Y-42188D01*
X35549Y-42150D01*
X35496Y-42149D01*
X35515Y-42085D01*
X35200Y-41770D01*
X35129Y-41841D01*
X35129Y-41700D01*
X34814Y-41384D01*
X34718Y-41412D01*
X34645Y-41618D01*
X34656Y-41836D01*
X34718Y-41987D01*
X34814Y-42015D01*
X35129Y-41700D01*
X35129Y-41841D01*
X34884Y-42085D01*
X34903Y-42149D01*
X34850Y-42149D01*
X34758Y-42187D01*
X34688Y-42258D01*
X34650Y-42350D01*
X34649Y-42449D01*
X34649Y-43049D01*
X34687Y-43141D01*
X34710Y-43163D01*
X34710Y-43857D01*
X34706Y-43859D01*
X34410Y-44154D01*
X34366Y-44260D01*
X34124Y-44260D01*
X34121Y-42350D01*
X34050Y-42350D01*
X34050Y-35182D01*
X34171Y-35132D01*
X34306Y-34997D01*
X34379Y-34820D01*
X34380Y-34629D01*
X34307Y-34453D01*
X34172Y-34318D01*
X34050Y-34267D01*
X34050Y-33286D01*
X34121Y-33257D01*
X34256Y-33122D01*
X34329Y-32945D01*
X34330Y-32754D01*
X34257Y-32578D01*
X34122Y-32443D01*
X34050Y-32413D01*
X34050Y-30650D01*
X34100Y-30650D01*
X34100Y-30579D01*
X58610Y-30579D01*
X58600Y-30605D01*
X58599Y-30744D01*
X58653Y-30873D01*
X58751Y-30971D01*
X58880Y-31024D01*
X59019Y-31025D01*
X59148Y-30971D01*
X59246Y-30873D01*
X59299Y-30744D01*
X59300Y-30605D01*
X59289Y-30579D01*
X68794Y-30579D01*
X68735Y-30603D01*
X68526Y-30812D01*
X68413Y-31084D01*
X68413Y-31380D01*
X68526Y-31652D01*
X68734Y-31861D01*
X69007Y-31975D01*
X69302Y-31975D01*
X69575Y-31862D01*
X69784Y-31654D01*
X69897Y-31381D01*
X69898Y-31086D01*
X69785Y-30813D01*
X69576Y-30604D01*
X69516Y-30579D01*
X85849Y-30579D01*
X85849Y-30579D01*
G37*
G54D28*
X85849Y-30579D02*
X85825Y-37175D01*
X85447Y-37178D01*
X85447Y-35530D01*
X85443Y-35417D01*
X85443Y-33920D01*
X85443Y-32542D01*
X85443Y-31165D01*
X85346Y-30928D01*
X85165Y-30747D01*
X84928Y-30648D01*
X84672Y-30648D01*
X84435Y-30746D01*
X84254Y-30927D01*
X84156Y-31163D01*
X84156Y-31419D01*
X84253Y-31656D01*
X84434Y-31837D01*
X84671Y-31936D01*
X84927Y-31936D01*
X85164Y-31838D01*
X85345Y-31657D01*
X85443Y-31421D01*
X85443Y-31165D01*
X85443Y-32542D01*
X85346Y-32306D01*
X85165Y-32125D01*
X84928Y-32026D01*
X84672Y-32026D01*
X84435Y-32124D01*
X84254Y-32305D01*
X84156Y-32541D01*
X84156Y-32797D01*
X84253Y-33034D01*
X84434Y-33215D01*
X84671Y-33314D01*
X84927Y-33314D01*
X85164Y-33216D01*
X85345Y-33035D01*
X85443Y-32799D01*
X85443Y-32542D01*
X85443Y-33920D01*
X85346Y-33684D01*
X85165Y-33503D01*
X84928Y-33404D01*
X84672Y-33404D01*
X84435Y-33502D01*
X84254Y-33683D01*
X84156Y-33919D01*
X84156Y-34175D01*
X84253Y-34412D01*
X84434Y-34593D01*
X84671Y-34692D01*
X84927Y-34692D01*
X85164Y-34594D01*
X85345Y-34413D01*
X85443Y-34177D01*
X85443Y-33920D01*
X85443Y-35417D01*
X85438Y-35274D01*
X85358Y-35082D01*
X85253Y-35043D01*
X85183Y-35114D01*
X85183Y-34972D01*
X85144Y-34867D01*
X84904Y-34778D01*
X84648Y-34787D01*
X84455Y-34867D01*
X84416Y-34972D01*
X84800Y-35355D01*
X85183Y-34972D01*
X85183Y-35114D01*
X84870Y-35426D01*
X85253Y-35809D01*
X85358Y-35770D01*
X85447Y-35530D01*
X85447Y-37178D01*
X85335Y-37179D01*
X85345Y-37169D01*
X85443Y-36932D01*
X85443Y-36676D01*
X85346Y-36440D01*
X85183Y-36276D01*
X85183Y-35880D01*
X84800Y-35497D01*
X84729Y-35567D01*
X84729Y-35426D01*
X84346Y-35043D01*
X84241Y-35082D01*
X84152Y-35322D01*
X84161Y-35578D01*
X84241Y-35770D01*
X84346Y-35809D01*
X84729Y-35426D01*
X84729Y-35567D01*
X84416Y-35880D01*
X84455Y-35985D01*
X84695Y-36074D01*
X84951Y-36064D01*
X85144Y-35985D01*
X85183Y-35880D01*
X85183Y-36276D01*
X85165Y-36258D01*
X84928Y-36160D01*
X84672Y-36160D01*
X84435Y-36258D01*
X84254Y-36439D01*
X84156Y-36675D01*
X84156Y-36931D01*
X84253Y-37168D01*
X84274Y-37188D01*
X83000Y-37199D01*
X83025Y-32974D01*
X82740Y-32977D01*
X82740Y-31383D01*
X82613Y-31074D01*
X82376Y-30837D01*
X82067Y-30709D01*
X81733Y-30709D01*
X81424Y-30837D01*
X81187Y-31073D01*
X81059Y-31382D01*
X81059Y-31716D01*
X81187Y-32025D01*
X81423Y-32262D01*
X81732Y-32390D01*
X82066Y-32390D01*
X82375Y-32263D01*
X82612Y-32026D01*
X82740Y-31717D01*
X82740Y-31383D01*
X82740Y-32977D01*
X72125Y-33075D01*
X72101Y-35975D01*
X71980Y-35974D01*
X71852Y-36028D01*
X71753Y-36126D01*
X71743Y-36150D01*
X70865Y-36151D01*
X70865Y-34163D01*
X70865Y-33463D01*
X70827Y-33371D01*
X70757Y-33301D01*
X70665Y-33263D01*
X70566Y-33263D01*
X69866Y-33263D01*
X69774Y-33301D01*
X69703Y-33371D01*
X69680Y-33428D01*
X69606Y-33354D01*
X69385Y-33263D01*
X69146Y-33263D01*
X68926Y-33354D01*
X68765Y-33514D01*
X68606Y-33354D01*
X68385Y-33263D01*
X68146Y-33263D01*
X67926Y-33354D01*
X67757Y-33522D01*
X67665Y-33743D01*
X67665Y-33981D01*
X67756Y-34202D01*
X67925Y-34371D01*
X68145Y-34463D01*
X68384Y-34463D01*
X68605Y-34372D01*
X68765Y-34211D01*
X68925Y-34371D01*
X69145Y-34463D01*
X69384Y-34463D01*
X69605Y-34372D01*
X69680Y-34297D01*
X69703Y-34354D01*
X69773Y-34424D01*
X69865Y-34463D01*
X69965Y-34463D01*
X70665Y-34463D01*
X70757Y-34425D01*
X70827Y-34354D01*
X70865Y-34263D01*
X70865Y-34163D01*
X70865Y-36151D01*
X63755Y-36161D01*
X63755Y-34303D01*
X63755Y-33603D01*
X63717Y-33511D01*
X63647Y-33441D01*
X63555Y-33403D01*
X63456Y-33403D01*
X62938Y-33403D01*
X62938Y-31196D01*
X62825Y-30923D01*
X62616Y-30714D01*
X62344Y-30601D01*
X62048Y-30600D01*
X61775Y-30713D01*
X61566Y-30922D01*
X61453Y-31194D01*
X61453Y-31490D01*
X61566Y-31762D01*
X61774Y-31971D01*
X62047Y-32085D01*
X62342Y-32085D01*
X62615Y-31972D01*
X62824Y-31764D01*
X62937Y-31491D01*
X62938Y-31196D01*
X62938Y-33403D01*
X62756Y-33403D01*
X62664Y-33441D01*
X62593Y-33511D01*
X62570Y-33568D01*
X62496Y-33494D01*
X62275Y-33403D01*
X62036Y-33403D01*
X61816Y-33494D01*
X61655Y-33654D01*
X61496Y-33494D01*
X61275Y-33403D01*
X61036Y-33403D01*
X60816Y-33494D01*
X60647Y-33662D01*
X60555Y-33883D01*
X60555Y-34121D01*
X60646Y-34342D01*
X60815Y-34511D01*
X61035Y-34603D01*
X61274Y-34603D01*
X61495Y-34512D01*
X61655Y-34351D01*
X61815Y-34511D01*
X62035Y-34603D01*
X62274Y-34603D01*
X62495Y-34512D01*
X62570Y-34437D01*
X62593Y-34494D01*
X62663Y-34564D01*
X62755Y-34603D01*
X62855Y-34603D01*
X63555Y-34603D01*
X63647Y-34565D01*
X63717Y-34494D01*
X63755Y-34403D01*
X63755Y-34303D01*
X63755Y-36161D01*
X58580Y-36168D01*
X58580Y-32604D01*
X58507Y-32428D01*
X58372Y-32293D01*
X58195Y-32220D01*
X58004Y-32219D01*
X57828Y-32292D01*
X57693Y-32427D01*
X57620Y-32604D01*
X57619Y-32795D01*
X57692Y-32971D01*
X57827Y-33106D01*
X58004Y-33179D01*
X58195Y-33180D01*
X58371Y-33107D01*
X58506Y-32972D01*
X58579Y-32795D01*
X58580Y-32604D01*
X58580Y-36168D01*
X57940Y-36169D01*
X57940Y-35494D01*
X57940Y-35065D01*
X57898Y-34854D01*
X57778Y-34676D01*
X57600Y-34557D01*
X57390Y-34515D01*
X57179Y-34557D01*
X57001Y-34676D01*
X56890Y-34842D01*
X56778Y-34676D01*
X56600Y-34557D01*
X56390Y-34515D01*
X56179Y-34557D01*
X56001Y-34676D01*
X55890Y-34842D01*
X55778Y-34676D01*
X55600Y-34557D01*
X55390Y-34515D01*
X55179Y-34557D01*
X55001Y-34676D01*
X54890Y-34842D01*
X54778Y-34676D01*
X54600Y-34557D01*
X54390Y-34515D01*
X54212Y-34550D01*
X54212Y-32749D01*
X54212Y-32482D01*
X54160Y-32220D01*
X54012Y-31999D01*
X53790Y-31851D01*
X53529Y-31799D01*
X53267Y-31851D01*
X53110Y-31956D01*
X53149Y-31862D01*
X53149Y-31638D01*
X53063Y-31430D01*
X52904Y-31271D01*
X52697Y-31185D01*
X52472Y-31184D01*
X52264Y-31270D01*
X52105Y-31429D01*
X52094Y-31455D01*
X52093Y-31453D01*
X51996Y-31423D01*
X51926Y-31494D01*
X51926Y-31353D01*
X51896Y-31256D01*
X51685Y-31180D01*
X51460Y-31191D01*
X51303Y-31256D01*
X51273Y-31353D01*
X51600Y-31679D01*
X51926Y-31353D01*
X51926Y-31494D01*
X51670Y-31750D01*
X51996Y-32076D01*
X52093Y-32046D01*
X52094Y-32044D01*
X52105Y-32069D01*
X52263Y-32228D01*
X52471Y-32314D01*
X52696Y-32315D01*
X52895Y-32232D01*
X52846Y-32482D01*
X52846Y-32749D01*
X52898Y-33011D01*
X53046Y-33232D01*
X53267Y-33381D01*
X53529Y-33433D01*
X53790Y-33381D01*
X54012Y-33232D01*
X54160Y-33011D01*
X54212Y-32749D01*
X54212Y-34550D01*
X54179Y-34557D01*
X54001Y-34676D01*
X53890Y-34842D01*
X53778Y-34676D01*
X53600Y-34557D01*
X53390Y-34515D01*
X53179Y-34557D01*
X53001Y-34676D01*
X52890Y-34842D01*
X52778Y-34676D01*
X52600Y-34557D01*
X52390Y-34515D01*
X52179Y-34557D01*
X52001Y-34676D01*
X51926Y-34788D01*
X51926Y-32146D01*
X51600Y-31820D01*
X51529Y-31891D01*
X51529Y-31750D01*
X51203Y-31423D01*
X51106Y-31453D01*
X51105Y-31455D01*
X51094Y-31430D01*
X50936Y-31271D01*
X50728Y-31185D01*
X50503Y-31184D01*
X50296Y-31270D01*
X50137Y-31429D01*
X50050Y-31637D01*
X50050Y-31861D01*
X50089Y-31956D01*
X49932Y-31851D01*
X49670Y-31799D01*
X49409Y-31851D01*
X49187Y-31999D01*
X49039Y-32220D01*
X48987Y-32482D01*
X48987Y-32749D01*
X49039Y-33011D01*
X49187Y-33232D01*
X49409Y-33381D01*
X49670Y-33433D01*
X49932Y-33381D01*
X50153Y-33232D01*
X50301Y-33011D01*
X50353Y-32749D01*
X50353Y-32482D01*
X50304Y-32232D01*
X50502Y-32314D01*
X50727Y-32315D01*
X50935Y-32229D01*
X51094Y-32070D01*
X51105Y-32044D01*
X51106Y-32046D01*
X51203Y-32076D01*
X51529Y-31750D01*
X51529Y-31891D01*
X51273Y-32146D01*
X51303Y-32243D01*
X51514Y-32319D01*
X51739Y-32308D01*
X51896Y-32243D01*
X51926Y-32146D01*
X51926Y-34788D01*
X51890Y-34842D01*
X51778Y-34676D01*
X51600Y-34557D01*
X51390Y-34515D01*
X51179Y-34557D01*
X51001Y-34676D01*
X50890Y-34842D01*
X50778Y-34676D01*
X50600Y-34557D01*
X50390Y-34515D01*
X50179Y-34557D01*
X50001Y-34676D01*
X49881Y-34854D01*
X49840Y-35065D01*
X49840Y-35494D01*
X49881Y-35705D01*
X50001Y-35883D01*
X50179Y-36002D01*
X50390Y-36044D01*
X50600Y-36002D01*
X50778Y-35883D01*
X50890Y-35717D01*
X51001Y-35883D01*
X51179Y-36002D01*
X51390Y-36044D01*
X51600Y-36002D01*
X51778Y-35883D01*
X51890Y-35717D01*
X52001Y-35883D01*
X52179Y-36002D01*
X52390Y-36044D01*
X52600Y-36002D01*
X52778Y-35883D01*
X52890Y-35717D01*
X53001Y-35883D01*
X53179Y-36002D01*
X53390Y-36044D01*
X53600Y-36002D01*
X53778Y-35883D01*
X53890Y-35717D01*
X54001Y-35883D01*
X54179Y-36002D01*
X54390Y-36044D01*
X54600Y-36002D01*
X54778Y-35883D01*
X54890Y-35717D01*
X55001Y-35883D01*
X55179Y-36002D01*
X55390Y-36044D01*
X55600Y-36002D01*
X55778Y-35883D01*
X55890Y-35717D01*
X56001Y-35883D01*
X56179Y-36002D01*
X56390Y-36044D01*
X56600Y-36002D01*
X56778Y-35883D01*
X56890Y-35717D01*
X57001Y-35883D01*
X57179Y-36002D01*
X57390Y-36044D01*
X57600Y-36002D01*
X57778Y-35883D01*
X57898Y-35705D01*
X57940Y-35494D01*
X57940Y-36169D01*
X49340Y-36180D01*
X49340Y-35494D01*
X49340Y-35065D01*
X49298Y-34854D01*
X49178Y-34676D01*
X49000Y-34557D01*
X48790Y-34515D01*
X48579Y-34557D01*
X48401Y-34676D01*
X48290Y-34842D01*
X48178Y-34676D01*
X48000Y-34557D01*
X47790Y-34515D01*
X47579Y-34557D01*
X47562Y-34568D01*
X47562Y-32699D01*
X47562Y-32432D01*
X47510Y-32170D01*
X47362Y-31949D01*
X47140Y-31801D01*
X46879Y-31749D01*
X46617Y-31801D01*
X46460Y-31906D01*
X46499Y-31812D01*
X46499Y-31588D01*
X46413Y-31380D01*
X46254Y-31221D01*
X46047Y-31135D01*
X45822Y-31134D01*
X45614Y-31220D01*
X45455Y-31379D01*
X45444Y-31405D01*
X45443Y-31403D01*
X45346Y-31373D01*
X45276Y-31444D01*
X45276Y-31303D01*
X45246Y-31206D01*
X45035Y-31130D01*
X44810Y-31141D01*
X44653Y-31206D01*
X44623Y-31303D01*
X44950Y-31629D01*
X45276Y-31303D01*
X45276Y-31444D01*
X45020Y-31700D01*
X45346Y-32026D01*
X45443Y-31996D01*
X45444Y-31994D01*
X45455Y-32019D01*
X45613Y-32178D01*
X45821Y-32264D01*
X46046Y-32265D01*
X46245Y-32182D01*
X46196Y-32432D01*
X46196Y-32699D01*
X46248Y-32961D01*
X46396Y-33182D01*
X46617Y-33331D01*
X46879Y-33383D01*
X47140Y-33331D01*
X47362Y-33182D01*
X47510Y-32961D01*
X47562Y-32699D01*
X47562Y-34568D01*
X47401Y-34676D01*
X47290Y-34842D01*
X47178Y-34676D01*
X47000Y-34557D01*
X46790Y-34515D01*
X46579Y-34557D01*
X46401Y-34676D01*
X46290Y-34842D01*
X46178Y-34676D01*
X46000Y-34557D01*
X45790Y-34515D01*
X45579Y-34557D01*
X45401Y-34676D01*
X45290Y-34842D01*
X45276Y-34821D01*
X45276Y-32096D01*
X44950Y-31770D01*
X44879Y-31841D01*
X44879Y-31700D01*
X44553Y-31373D01*
X44456Y-31403D01*
X44455Y-31405D01*
X44444Y-31380D01*
X44286Y-31221D01*
X44078Y-31135D01*
X43853Y-31134D01*
X43646Y-31220D01*
X43487Y-31379D01*
X43400Y-31587D01*
X43400Y-31811D01*
X43439Y-31906D01*
X43282Y-31801D01*
X43020Y-31749D01*
X42759Y-31801D01*
X42537Y-31949D01*
X42389Y-32170D01*
X42337Y-32432D01*
X42337Y-32699D01*
X42389Y-32961D01*
X42537Y-33182D01*
X42759Y-33331D01*
X43020Y-33383D01*
X43282Y-33331D01*
X43503Y-33182D01*
X43651Y-32961D01*
X43703Y-32699D01*
X43703Y-32432D01*
X43654Y-32182D01*
X43852Y-32264D01*
X44077Y-32265D01*
X44285Y-32179D01*
X44444Y-32020D01*
X44455Y-31994D01*
X44456Y-31996D01*
X44553Y-32026D01*
X44879Y-31700D01*
X44879Y-31841D01*
X44623Y-32096D01*
X44653Y-32193D01*
X44864Y-32269D01*
X45089Y-32258D01*
X45246Y-32193D01*
X45276Y-32096D01*
X45276Y-34821D01*
X45178Y-34676D01*
X45000Y-34557D01*
X44790Y-34515D01*
X44579Y-34557D01*
X44401Y-34676D01*
X44290Y-34842D01*
X44178Y-34676D01*
X44000Y-34557D01*
X43790Y-34515D01*
X43579Y-34557D01*
X43401Y-34676D01*
X43290Y-34842D01*
X43178Y-34676D01*
X43000Y-34557D01*
X42790Y-34515D01*
X42579Y-34557D01*
X42401Y-34676D01*
X42290Y-34842D01*
X42178Y-34676D01*
X42000Y-34557D01*
X41790Y-34515D01*
X41579Y-34557D01*
X41401Y-34676D01*
X41281Y-34854D01*
X41240Y-35065D01*
X41240Y-35494D01*
X41281Y-35705D01*
X41401Y-35883D01*
X41579Y-36002D01*
X41790Y-36044D01*
X42000Y-36002D01*
X42178Y-35883D01*
X42290Y-35717D01*
X42401Y-35883D01*
X42579Y-36002D01*
X42790Y-36044D01*
X43000Y-36002D01*
X43178Y-35883D01*
X43290Y-35717D01*
X43401Y-35883D01*
X43579Y-36002D01*
X43790Y-36044D01*
X44000Y-36002D01*
X44178Y-35883D01*
X44290Y-35717D01*
X44401Y-35883D01*
X44579Y-36002D01*
X44790Y-36044D01*
X45000Y-36002D01*
X45178Y-35883D01*
X45290Y-35717D01*
X45401Y-35883D01*
X45579Y-36002D01*
X45790Y-36044D01*
X46000Y-36002D01*
X46178Y-35883D01*
X46290Y-35717D01*
X46401Y-35883D01*
X46579Y-36002D01*
X46790Y-36044D01*
X47000Y-36002D01*
X47178Y-35883D01*
X47290Y-35717D01*
X47401Y-35883D01*
X47579Y-36002D01*
X47790Y-36044D01*
X48000Y-36002D01*
X48178Y-35883D01*
X48290Y-35717D01*
X48401Y-35883D01*
X48579Y-36002D01*
X48790Y-36044D01*
X49000Y-36002D01*
X49178Y-35883D01*
X49298Y-35705D01*
X49340Y-35494D01*
X49340Y-36180D01*
X40350Y-36192D01*
X40350Y-32580D01*
X40325Y-32520D01*
X40325Y-31680D01*
X40271Y-31552D01*
X40173Y-31453D01*
X40044Y-31400D01*
X39905Y-31399D01*
X39785Y-31449D01*
X39785Y-31082D01*
X39702Y-30881D01*
X39549Y-30728D01*
X39348Y-30644D01*
X39132Y-30644D01*
X38931Y-30727D01*
X38812Y-30846D01*
X38711Y-30744D01*
X38518Y-30664D01*
X38309Y-30664D01*
X38115Y-30744D01*
X38019Y-30840D01*
X37923Y-30744D01*
X37730Y-30664D01*
X37521Y-30664D01*
X37328Y-30744D01*
X37232Y-30840D01*
X37136Y-30744D01*
X36943Y-30664D01*
X36734Y-30664D01*
X36541Y-30744D01*
X36438Y-30846D01*
X36320Y-30728D01*
X36120Y-30644D01*
X35903Y-30644D01*
X35703Y-30727D01*
X35549Y-30880D01*
X35466Y-31081D01*
X35466Y-31297D01*
X35549Y-31498D01*
X35702Y-31651D01*
X35902Y-31735D01*
X36119Y-31735D01*
X36320Y-31652D01*
X36439Y-31533D01*
X36540Y-31635D01*
X36733Y-31715D01*
X36942Y-31715D01*
X37135Y-31635D01*
X37232Y-31539D01*
X37327Y-31635D01*
X37520Y-31715D01*
X37729Y-31715D01*
X37923Y-31635D01*
X38019Y-31539D01*
X38115Y-31635D01*
X38308Y-31715D01*
X38517Y-31715D01*
X38710Y-31635D01*
X38812Y-31533D01*
X38930Y-31651D01*
X39131Y-31735D01*
X39347Y-31735D01*
X39548Y-31652D01*
X39701Y-31499D01*
X39785Y-31298D01*
X39785Y-31082D01*
X39785Y-31449D01*
X39777Y-31453D01*
X39678Y-31551D01*
X39625Y-31680D01*
X39624Y-31819D01*
X39678Y-31948D01*
X39776Y-32046D01*
X39905Y-32099D01*
X40044Y-32100D01*
X40173Y-32046D01*
X40271Y-31948D01*
X40324Y-31819D01*
X40325Y-31680D01*
X40325Y-32520D01*
X40296Y-32452D01*
X40198Y-32353D01*
X40069Y-32300D01*
X39930Y-32299D01*
X39802Y-32353D01*
X39703Y-32451D01*
X39650Y-32580D01*
X39649Y-32719D01*
X39703Y-32848D01*
X39801Y-32946D01*
X39930Y-32999D01*
X40069Y-33000D01*
X40198Y-32946D01*
X40296Y-32848D01*
X40349Y-32719D01*
X40350Y-32580D01*
X40350Y-36192D01*
X39282Y-36194D01*
X39282Y-35280D01*
X39215Y-34945D01*
X39025Y-34661D01*
X38741Y-34471D01*
X38407Y-34405D01*
X38372Y-34405D01*
X38038Y-34471D01*
X37754Y-34661D01*
X37564Y-34945D01*
X37497Y-35280D01*
X37564Y-35614D01*
X37754Y-35898D01*
X38038Y-36088D01*
X38372Y-36155D01*
X38407Y-36155D01*
X38741Y-36088D01*
X39025Y-35898D01*
X39215Y-35614D01*
X39282Y-35280D01*
X39282Y-36194D01*
X36387Y-36198D01*
X36429Y-36095D01*
X36430Y-35904D01*
X36357Y-35728D01*
X36222Y-35593D01*
X36045Y-35520D01*
X35854Y-35519D01*
X35678Y-35592D01*
X35543Y-35727D01*
X35470Y-35904D01*
X35469Y-36095D01*
X35542Y-36271D01*
X35677Y-36406D01*
X35854Y-36479D01*
X36045Y-36480D01*
X36221Y-36407D01*
X36350Y-36278D01*
X36350Y-42350D01*
X35754Y-42350D01*
X35754Y-41781D01*
X35743Y-41563D01*
X35681Y-41412D01*
X35585Y-41384D01*
X35515Y-41455D01*
X35515Y-41314D01*
X35487Y-41218D01*
X35281Y-41145D01*
X35063Y-41156D01*
X34912Y-41218D01*
X34884Y-41314D01*
X35200Y-41629D01*
X35515Y-41314D01*
X35515Y-41455D01*
X35270Y-41700D01*
X35585Y-42015D01*
X35681Y-41987D01*
X35754Y-41781D01*
X35754Y-42350D01*
X35749Y-42350D01*
X35712Y-42258D01*
X35641Y-42188D01*
X35549Y-42150D01*
X35496Y-42149D01*
X35515Y-42085D01*
X35200Y-41770D01*
X35129Y-41841D01*
X35129Y-41700D01*
X34814Y-41384D01*
X34718Y-41412D01*
X34645Y-41618D01*
X34656Y-41836D01*
X34718Y-41987D01*
X34814Y-42015D01*
X35129Y-41700D01*
X35129Y-41841D01*
X34884Y-42085D01*
X34903Y-42149D01*
X34850Y-42149D01*
X34758Y-42187D01*
X34688Y-42258D01*
X34650Y-42350D01*
X34649Y-42449D01*
X34649Y-43049D01*
X34687Y-43141D01*
X34710Y-43163D01*
X34710Y-43857D01*
X34706Y-43859D01*
X34410Y-44154D01*
X34366Y-44260D01*
X34124Y-44260D01*
X34121Y-42350D01*
X34050Y-42350D01*
X34050Y-35182D01*
X34171Y-35132D01*
X34306Y-34997D01*
X34379Y-34820D01*
X34380Y-34629D01*
X34307Y-34453D01*
X34172Y-34318D01*
X34050Y-34267D01*
X34050Y-33286D01*
X34121Y-33257D01*
X34256Y-33122D01*
X34329Y-32945D01*
X34330Y-32754D01*
X34257Y-32578D01*
X34122Y-32443D01*
X34050Y-32413D01*
X34050Y-30650D01*
X34100Y-30650D01*
X34100Y-30579D01*
X58610Y-30579D01*
X58600Y-30605D01*
X58599Y-30744D01*
X58653Y-30873D01*
X58751Y-30971D01*
X58880Y-31024D01*
X59019Y-31025D01*
X59148Y-30971D01*
X59246Y-30873D01*
X59299Y-30744D01*
X59300Y-30605D01*
X59289Y-30579D01*
X68794Y-30579D01*
X68735Y-30603D01*
X68526Y-30812D01*
X68413Y-31084D01*
X68413Y-31380D01*
X68526Y-31652D01*
X68734Y-31861D01*
X69007Y-31975D01*
X69302Y-31975D01*
X69575Y-31862D01*
X69784Y-31654D01*
X69897Y-31381D01*
X69898Y-31086D01*
X69785Y-30813D01*
X69576Y-30604D01*
X69516Y-30579D01*
X85849Y-30579D01*
G54D10*
G36*
X33649Y-55020D02*
X32005Y-55020D01*
X32005Y-50954D01*
X31932Y-50778D01*
X31797Y-50643D01*
X31620Y-50570D01*
X31429Y-50569D01*
X31253Y-50642D01*
X31118Y-50777D01*
X31045Y-50954D01*
X31044Y-51145D01*
X31117Y-51321D01*
X31252Y-51456D01*
X31429Y-51529D01*
X31620Y-51530D01*
X31796Y-51457D01*
X31931Y-51322D01*
X32004Y-51145D01*
X32005Y-50954D01*
X32005Y-55020D01*
X29880Y-55020D01*
X29880Y-32754D01*
X29807Y-32578D01*
X29672Y-32443D01*
X29495Y-32370D01*
X29304Y-32369D01*
X29300Y-32371D01*
X29300Y-31330D01*
X29246Y-31202D01*
X29148Y-31103D01*
X29019Y-31050D01*
X28880Y-31049D01*
X28752Y-31103D01*
X28653Y-31201D01*
X28600Y-31330D01*
X28599Y-31469D01*
X28653Y-31598D01*
X28751Y-31696D01*
X28880Y-31749D01*
X29019Y-31750D01*
X29148Y-31696D01*
X29246Y-31598D01*
X29299Y-31469D01*
X29300Y-31330D01*
X29300Y-32371D01*
X29128Y-32442D01*
X28993Y-32577D01*
X28920Y-32754D01*
X28919Y-32945D01*
X28992Y-33121D01*
X29127Y-33256D01*
X29304Y-33329D01*
X29495Y-33330D01*
X29671Y-33257D01*
X29806Y-33122D01*
X29879Y-32945D01*
X29880Y-32754D01*
X29880Y-55020D01*
X28980Y-55020D01*
X28980Y-51722D01*
X28852Y-51413D01*
X28616Y-51176D01*
X28339Y-51062D01*
X28614Y-50948D01*
X28851Y-50712D01*
X28979Y-50403D01*
X28980Y-50068D01*
X28852Y-49759D01*
X28616Y-49523D01*
X28339Y-49408D01*
X28614Y-49294D01*
X28851Y-49058D01*
X28979Y-48749D01*
X28980Y-48415D01*
X28852Y-48106D01*
X28616Y-47869D01*
X28339Y-47754D01*
X28614Y-47641D01*
X28851Y-47405D01*
X28979Y-47096D01*
X28980Y-46761D01*
X28852Y-46452D01*
X28616Y-46216D01*
X28339Y-46101D01*
X28614Y-45987D01*
X28851Y-45751D01*
X28979Y-45442D01*
X28980Y-45108D01*
X28852Y-44799D01*
X28616Y-44562D01*
X28339Y-44447D01*
X28614Y-44334D01*
X28851Y-44098D01*
X28979Y-43789D01*
X28980Y-43454D01*
X28852Y-43145D01*
X28616Y-42909D01*
X28339Y-42794D01*
X28614Y-42680D01*
X28851Y-42444D01*
X28979Y-42135D01*
X28980Y-41801D01*
X28852Y-41492D01*
X28616Y-41255D01*
X28339Y-41140D01*
X28614Y-41027D01*
X28851Y-40790D01*
X28979Y-40482D01*
X28980Y-40147D01*
X28852Y-39838D01*
X28616Y-39602D01*
X28339Y-39487D01*
X28614Y-39373D01*
X28851Y-39137D01*
X28979Y-38828D01*
X28980Y-38494D01*
X28852Y-38185D01*
X28616Y-37948D01*
X28339Y-37833D01*
X28614Y-37720D01*
X28851Y-37483D01*
X28979Y-37175D01*
X28980Y-36840D01*
X28852Y-36531D01*
X28616Y-36294D01*
X28339Y-36180D01*
X28614Y-36066D01*
X28851Y-35830D01*
X28979Y-35521D01*
X28980Y-35187D01*
X28852Y-34878D01*
X28616Y-34641D01*
X28339Y-34526D01*
X28614Y-34413D01*
X28851Y-34176D01*
X28979Y-33867D01*
X28980Y-33533D01*
X28852Y-33224D01*
X28616Y-32987D01*
X28307Y-32859D01*
X27972Y-32859D01*
X27663Y-32987D01*
X27427Y-33223D01*
X27298Y-33532D01*
X27298Y-33866D01*
X27426Y-34175D01*
X27662Y-34412D01*
X27938Y-34526D01*
X27663Y-34640D01*
X27427Y-34876D01*
X27298Y-35185D01*
X27298Y-35520D01*
X27426Y-35829D01*
X27662Y-36065D01*
X27938Y-36180D01*
X27663Y-36294D01*
X27427Y-36530D01*
X27298Y-36839D01*
X27298Y-37173D01*
X27426Y-37482D01*
X27662Y-37719D01*
X27938Y-37833D01*
X27663Y-37947D01*
X27427Y-38183D01*
X27298Y-38492D01*
X27298Y-38827D01*
X27426Y-39136D01*
X27662Y-39372D01*
X27938Y-39487D01*
X27663Y-39601D01*
X27427Y-39837D01*
X27298Y-40146D01*
X27298Y-40480D01*
X27426Y-40789D01*
X27662Y-41026D01*
X27938Y-41141D01*
X27663Y-41254D01*
X27427Y-41490D01*
X27298Y-41799D01*
X27298Y-42134D01*
X27426Y-42443D01*
X27662Y-42679D01*
X27938Y-42794D01*
X27663Y-42908D01*
X27427Y-43144D01*
X27298Y-43453D01*
X27298Y-43787D01*
X27426Y-44096D01*
X27662Y-44333D01*
X27938Y-44448D01*
X27663Y-44561D01*
X27427Y-44798D01*
X27298Y-45106D01*
X27298Y-45441D01*
X27426Y-45750D01*
X27662Y-45986D01*
X27938Y-46101D01*
X27663Y-46215D01*
X27427Y-46451D01*
X27298Y-46760D01*
X27298Y-47094D01*
X27426Y-47403D01*
X27662Y-47640D01*
X27938Y-47755D01*
X27663Y-47868D01*
X27427Y-48105D01*
X27298Y-48413D01*
X27298Y-48748D01*
X27426Y-49057D01*
X27662Y-49294D01*
X27938Y-49408D01*
X27663Y-49522D01*
X27427Y-49758D01*
X27298Y-50067D01*
X27298Y-50401D01*
X27426Y-50710D01*
X27662Y-50947D01*
X27938Y-51062D01*
X27663Y-51175D01*
X27427Y-51412D01*
X27298Y-51721D01*
X27298Y-52055D01*
X27426Y-52364D01*
X27662Y-52601D01*
X27971Y-52729D01*
X27982Y-52729D01*
X27828Y-52792D01*
X27693Y-52927D01*
X27620Y-53104D01*
X27619Y-53295D01*
X27692Y-53471D01*
X27827Y-53606D01*
X28004Y-53679D01*
X28195Y-53680D01*
X28371Y-53607D01*
X28506Y-53472D01*
X28579Y-53295D01*
X28580Y-53104D01*
X28507Y-52928D01*
X28372Y-52793D01*
X28218Y-52729D01*
X28305Y-52729D01*
X28614Y-52601D01*
X28851Y-52365D01*
X28979Y-52056D01*
X28980Y-51722D01*
X28980Y-55020D01*
X26817Y-55020D01*
X26817Y-48732D01*
X26817Y-45425D01*
X26814Y-45274D01*
X26814Y-43454D01*
X26687Y-43145D01*
X26450Y-42909D01*
X26174Y-42794D01*
X26449Y-42680D01*
X26686Y-42444D01*
X26814Y-42135D01*
X26814Y-41801D01*
X26687Y-41492D01*
X26450Y-41255D01*
X26174Y-41140D01*
X26449Y-41027D01*
X26686Y-40790D01*
X26814Y-40482D01*
X26814Y-40147D01*
X26687Y-39838D01*
X26450Y-39602D01*
X26174Y-39487D01*
X26449Y-39373D01*
X26686Y-39137D01*
X26814Y-38828D01*
X26814Y-38494D01*
X26687Y-38185D01*
X26450Y-37948D01*
X26174Y-37833D01*
X26449Y-37720D01*
X26686Y-37483D01*
X26814Y-37175D01*
X26814Y-36840D01*
X26687Y-36531D01*
X26450Y-36294D01*
X26174Y-36180D01*
X26449Y-36066D01*
X26686Y-35830D01*
X26814Y-35521D01*
X26814Y-35187D01*
X26687Y-34878D01*
X26450Y-34641D01*
X26174Y-34526D01*
X26449Y-34413D01*
X26686Y-34176D01*
X26814Y-33867D01*
X26814Y-33533D01*
X26687Y-33224D01*
X26450Y-32987D01*
X26141Y-32859D01*
X25807Y-32859D01*
X25498Y-32987D01*
X25261Y-33223D01*
X25133Y-33532D01*
X25133Y-33866D01*
X25261Y-34175D01*
X25497Y-34412D01*
X25773Y-34526D01*
X25498Y-34640D01*
X25261Y-34876D01*
X25133Y-35185D01*
X25133Y-35520D01*
X25261Y-35829D01*
X25497Y-36065D01*
X25773Y-36180D01*
X25498Y-36294D01*
X25261Y-36530D01*
X25133Y-36839D01*
X25133Y-37173D01*
X25261Y-37482D01*
X25497Y-37719D01*
X25773Y-37833D01*
X25498Y-37947D01*
X25261Y-38183D01*
X25133Y-38492D01*
X25133Y-38827D01*
X25261Y-39136D01*
X25497Y-39372D01*
X25773Y-39487D01*
X25498Y-39601D01*
X25261Y-39837D01*
X25133Y-40146D01*
X25133Y-40480D01*
X25261Y-40789D01*
X25497Y-41026D01*
X25773Y-41141D01*
X25498Y-41254D01*
X25261Y-41490D01*
X25133Y-41799D01*
X25133Y-42134D01*
X25261Y-42443D01*
X25497Y-42679D01*
X25773Y-42794D01*
X25498Y-42908D01*
X25261Y-43144D01*
X25133Y-43453D01*
X25133Y-43787D01*
X25261Y-44096D01*
X25497Y-44333D01*
X25769Y-44446D01*
X25511Y-44553D01*
X25448Y-44678D01*
X25974Y-45204D01*
X26499Y-44678D01*
X26436Y-44553D01*
X26171Y-44449D01*
X26449Y-44334D01*
X26686Y-44098D01*
X26814Y-43789D01*
X26814Y-43454D01*
X26814Y-45274D01*
X26811Y-45091D01*
X26695Y-44812D01*
X26570Y-44749D01*
X26044Y-45274D01*
X26570Y-45800D01*
X26695Y-45737D01*
X26817Y-45425D01*
X26817Y-48732D01*
X26814Y-48581D01*
X26814Y-46761D01*
X26687Y-46452D01*
X26450Y-46216D01*
X26178Y-46103D01*
X26436Y-45996D01*
X26499Y-45870D01*
X25974Y-45345D01*
X25903Y-45416D01*
X25903Y-45274D01*
X25377Y-44749D01*
X25252Y-44812D01*
X25130Y-45123D01*
X25136Y-45458D01*
X25252Y-45737D01*
X25377Y-45800D01*
X25903Y-45274D01*
X25903Y-45416D01*
X25448Y-45870D01*
X25511Y-45996D01*
X25776Y-46100D01*
X25498Y-46215D01*
X25261Y-46451D01*
X25133Y-46760D01*
X25133Y-47094D01*
X25261Y-47403D01*
X25497Y-47640D01*
X25769Y-47753D01*
X25511Y-47860D01*
X25448Y-47985D01*
X25974Y-48511D01*
X26499Y-47985D01*
X26436Y-47860D01*
X26171Y-47756D01*
X26449Y-47641D01*
X26686Y-47405D01*
X26814Y-47096D01*
X26814Y-46761D01*
X26814Y-48581D01*
X26811Y-48398D01*
X26695Y-48119D01*
X26570Y-48056D01*
X26044Y-48581D01*
X26570Y-49107D01*
X26695Y-49044D01*
X26817Y-48732D01*
X26817Y-55020D01*
X26814Y-55020D01*
X26814Y-51722D01*
X26687Y-51413D01*
X26450Y-51176D01*
X26174Y-51062D01*
X26449Y-50948D01*
X26686Y-50712D01*
X26814Y-50403D01*
X26814Y-50068D01*
X26687Y-49759D01*
X26450Y-49523D01*
X26178Y-49410D01*
X26436Y-49303D01*
X26499Y-49177D01*
X25974Y-48652D01*
X25903Y-48723D01*
X25903Y-48581D01*
X25377Y-48056D01*
X25252Y-48119D01*
X25130Y-48430D01*
X25136Y-48765D01*
X25252Y-49044D01*
X25377Y-49107D01*
X25903Y-48581D01*
X25903Y-48723D01*
X25448Y-49177D01*
X25511Y-49303D01*
X25776Y-49407D01*
X25498Y-49522D01*
X25261Y-49758D01*
X25133Y-50067D01*
X25133Y-50401D01*
X25261Y-50710D01*
X25497Y-50947D01*
X25773Y-51062D01*
X25498Y-51175D01*
X25261Y-51412D01*
X25133Y-51721D01*
X25133Y-52055D01*
X25261Y-52364D01*
X25497Y-52601D01*
X25806Y-52729D01*
X26140Y-52729D01*
X26449Y-52601D01*
X26686Y-52365D01*
X26814Y-52056D01*
X26814Y-51722D01*
X26814Y-55020D01*
X23940Y-55020D01*
X23940Y-53933D01*
X23940Y-51722D01*
X23940Y-33533D01*
X23813Y-33224D01*
X23576Y-32987D01*
X23267Y-32859D01*
X22933Y-32859D01*
X22624Y-32987D01*
X22387Y-33223D01*
X22259Y-33532D01*
X22259Y-33866D01*
X22387Y-34175D01*
X22623Y-34412D01*
X22932Y-34540D01*
X23266Y-34540D01*
X23575Y-34413D01*
X23812Y-34176D01*
X23940Y-33867D01*
X23940Y-33533D01*
X23940Y-51722D01*
X23813Y-51413D01*
X23576Y-51176D01*
X23267Y-51048D01*
X22933Y-51048D01*
X22624Y-51175D01*
X22387Y-51412D01*
X22259Y-51721D01*
X22259Y-52055D01*
X22387Y-52364D01*
X22623Y-52601D01*
X22932Y-52729D01*
X23266Y-52729D01*
X23575Y-52601D01*
X23812Y-52365D01*
X23940Y-52056D01*
X23940Y-51722D01*
X23940Y-53933D01*
X23813Y-53624D01*
X23576Y-53387D01*
X23267Y-53259D01*
X22933Y-53259D01*
X22624Y-53387D01*
X22387Y-53623D01*
X22259Y-53932D01*
X22259Y-54266D01*
X22387Y-54575D01*
X22623Y-54812D01*
X22932Y-54940D01*
X23266Y-54940D01*
X23575Y-54813D01*
X23812Y-54576D01*
X23940Y-54267D01*
X23940Y-53933D01*
X23940Y-55020D01*
X21529Y-55020D01*
X21529Y-30625D01*
X22874Y-30625D01*
X22724Y-30687D01*
X22487Y-30923D01*
X22359Y-31232D01*
X22359Y-31566D01*
X22487Y-31875D01*
X22723Y-32112D01*
X23032Y-32240D01*
X23366Y-32240D01*
X23675Y-32113D01*
X23912Y-31876D01*
X24040Y-31567D01*
X24040Y-31233D01*
X23913Y-30924D01*
X23676Y-30687D01*
X23525Y-30625D01*
X33575Y-30625D01*
X33580Y-32441D01*
X33578Y-32442D01*
X33443Y-32577D01*
X33370Y-32754D01*
X33369Y-32945D01*
X33442Y-33121D01*
X33577Y-33256D01*
X33583Y-33258D01*
X33586Y-34359D01*
X33493Y-34452D01*
X33420Y-34629D01*
X33419Y-34820D01*
X33492Y-34996D01*
X33588Y-35092D01*
X33611Y-42423D01*
X33582Y-42353D01*
X33447Y-42218D01*
X33270Y-42145D01*
X33079Y-42144D01*
X32903Y-42217D01*
X32768Y-42352D01*
X32695Y-42529D01*
X32694Y-42720D01*
X32767Y-42896D01*
X32902Y-43031D01*
X33079Y-43104D01*
X33270Y-43105D01*
X33446Y-43032D01*
X33581Y-42897D01*
X33612Y-42823D01*
X33624Y-46770D01*
X33497Y-46643D01*
X33320Y-46570D01*
X33129Y-46569D01*
X32953Y-46642D01*
X32818Y-46777D01*
X32745Y-46954D01*
X32744Y-47145D01*
X32817Y-47321D01*
X32952Y-47456D01*
X33129Y-47529D01*
X33320Y-47530D01*
X33496Y-47457D01*
X33626Y-47327D01*
X33649Y-55020D01*
X33649Y-55020D01*
G37*
G54D28*
X33649Y-55020D02*
X32005Y-55020D01*
X32005Y-50954D01*
X31932Y-50778D01*
X31797Y-50643D01*
X31620Y-50570D01*
X31429Y-50569D01*
X31253Y-50642D01*
X31118Y-50777D01*
X31045Y-50954D01*
X31044Y-51145D01*
X31117Y-51321D01*
X31252Y-51456D01*
X31429Y-51529D01*
X31620Y-51530D01*
X31796Y-51457D01*
X31931Y-51322D01*
X32004Y-51145D01*
X32005Y-50954D01*
X32005Y-55020D01*
X29880Y-55020D01*
X29880Y-32754D01*
X29807Y-32578D01*
X29672Y-32443D01*
X29495Y-32370D01*
X29304Y-32369D01*
X29300Y-32371D01*
X29300Y-31330D01*
X29246Y-31202D01*
X29148Y-31103D01*
X29019Y-31050D01*
X28880Y-31049D01*
X28752Y-31103D01*
X28653Y-31201D01*
X28600Y-31330D01*
X28599Y-31469D01*
X28653Y-31598D01*
X28751Y-31696D01*
X28880Y-31749D01*
X29019Y-31750D01*
X29148Y-31696D01*
X29246Y-31598D01*
X29299Y-31469D01*
X29300Y-31330D01*
X29300Y-32371D01*
X29128Y-32442D01*
X28993Y-32577D01*
X28920Y-32754D01*
X28919Y-32945D01*
X28992Y-33121D01*
X29127Y-33256D01*
X29304Y-33329D01*
X29495Y-33330D01*
X29671Y-33257D01*
X29806Y-33122D01*
X29879Y-32945D01*
X29880Y-32754D01*
X29880Y-55020D01*
X28980Y-55020D01*
X28980Y-51722D01*
X28852Y-51413D01*
X28616Y-51176D01*
X28339Y-51062D01*
X28614Y-50948D01*
X28851Y-50712D01*
X28979Y-50403D01*
X28980Y-50068D01*
X28852Y-49759D01*
X28616Y-49523D01*
X28339Y-49408D01*
X28614Y-49294D01*
X28851Y-49058D01*
X28979Y-48749D01*
X28980Y-48415D01*
X28852Y-48106D01*
X28616Y-47869D01*
X28339Y-47754D01*
X28614Y-47641D01*
X28851Y-47405D01*
X28979Y-47096D01*
X28980Y-46761D01*
X28852Y-46452D01*
X28616Y-46216D01*
X28339Y-46101D01*
X28614Y-45987D01*
X28851Y-45751D01*
X28979Y-45442D01*
X28980Y-45108D01*
X28852Y-44799D01*
X28616Y-44562D01*
X28339Y-44447D01*
X28614Y-44334D01*
X28851Y-44098D01*
X28979Y-43789D01*
X28980Y-43454D01*
X28852Y-43145D01*
X28616Y-42909D01*
X28339Y-42794D01*
X28614Y-42680D01*
X28851Y-42444D01*
X28979Y-42135D01*
X28980Y-41801D01*
X28852Y-41492D01*
X28616Y-41255D01*
X28339Y-41140D01*
X28614Y-41027D01*
X28851Y-40790D01*
X28979Y-40482D01*
X28980Y-40147D01*
X28852Y-39838D01*
X28616Y-39602D01*
X28339Y-39487D01*
X28614Y-39373D01*
X28851Y-39137D01*
X28979Y-38828D01*
X28980Y-38494D01*
X28852Y-38185D01*
X28616Y-37948D01*
X28339Y-37833D01*
X28614Y-37720D01*
X28851Y-37483D01*
X28979Y-37175D01*
X28980Y-36840D01*
X28852Y-36531D01*
X28616Y-36294D01*
X28339Y-36180D01*
X28614Y-36066D01*
X28851Y-35830D01*
X28979Y-35521D01*
X28980Y-35187D01*
X28852Y-34878D01*
X28616Y-34641D01*
X28339Y-34526D01*
X28614Y-34413D01*
X28851Y-34176D01*
X28979Y-33867D01*
X28980Y-33533D01*
X28852Y-33224D01*
X28616Y-32987D01*
X28307Y-32859D01*
X27972Y-32859D01*
X27663Y-32987D01*
X27427Y-33223D01*
X27298Y-33532D01*
X27298Y-33866D01*
X27426Y-34175D01*
X27662Y-34412D01*
X27938Y-34526D01*
X27663Y-34640D01*
X27427Y-34876D01*
X27298Y-35185D01*
X27298Y-35520D01*
X27426Y-35829D01*
X27662Y-36065D01*
X27938Y-36180D01*
X27663Y-36294D01*
X27427Y-36530D01*
X27298Y-36839D01*
X27298Y-37173D01*
X27426Y-37482D01*
X27662Y-37719D01*
X27938Y-37833D01*
X27663Y-37947D01*
X27427Y-38183D01*
X27298Y-38492D01*
X27298Y-38827D01*
X27426Y-39136D01*
X27662Y-39372D01*
X27938Y-39487D01*
X27663Y-39601D01*
X27427Y-39837D01*
X27298Y-40146D01*
X27298Y-40480D01*
X27426Y-40789D01*
X27662Y-41026D01*
X27938Y-41141D01*
X27663Y-41254D01*
X27427Y-41490D01*
X27298Y-41799D01*
X27298Y-42134D01*
X27426Y-42443D01*
X27662Y-42679D01*
X27938Y-42794D01*
X27663Y-42908D01*
X27427Y-43144D01*
X27298Y-43453D01*
X27298Y-43787D01*
X27426Y-44096D01*
X27662Y-44333D01*
X27938Y-44448D01*
X27663Y-44561D01*
X27427Y-44798D01*
X27298Y-45106D01*
X27298Y-45441D01*
X27426Y-45750D01*
X27662Y-45986D01*
X27938Y-46101D01*
X27663Y-46215D01*
X27427Y-46451D01*
X27298Y-46760D01*
X27298Y-47094D01*
X27426Y-47403D01*
X27662Y-47640D01*
X27938Y-47755D01*
X27663Y-47868D01*
X27427Y-48105D01*
X27298Y-48413D01*
X27298Y-48748D01*
X27426Y-49057D01*
X27662Y-49294D01*
X27938Y-49408D01*
X27663Y-49522D01*
X27427Y-49758D01*
X27298Y-50067D01*
X27298Y-50401D01*
X27426Y-50710D01*
X27662Y-50947D01*
X27938Y-51062D01*
X27663Y-51175D01*
X27427Y-51412D01*
X27298Y-51721D01*
X27298Y-52055D01*
X27426Y-52364D01*
X27662Y-52601D01*
X27971Y-52729D01*
X27982Y-52729D01*
X27828Y-52792D01*
X27693Y-52927D01*
X27620Y-53104D01*
X27619Y-53295D01*
X27692Y-53471D01*
X27827Y-53606D01*
X28004Y-53679D01*
X28195Y-53680D01*
X28371Y-53607D01*
X28506Y-53472D01*
X28579Y-53295D01*
X28580Y-53104D01*
X28507Y-52928D01*
X28372Y-52793D01*
X28218Y-52729D01*
X28305Y-52729D01*
X28614Y-52601D01*
X28851Y-52365D01*
X28979Y-52056D01*
X28980Y-51722D01*
X28980Y-55020D01*
X26817Y-55020D01*
X26817Y-48732D01*
X26817Y-45425D01*
X26814Y-45274D01*
X26814Y-43454D01*
X26687Y-43145D01*
X26450Y-42909D01*
X26174Y-42794D01*
X26449Y-42680D01*
X26686Y-42444D01*
X26814Y-42135D01*
X26814Y-41801D01*
X26687Y-41492D01*
X26450Y-41255D01*
X26174Y-41140D01*
X26449Y-41027D01*
X26686Y-40790D01*
X26814Y-40482D01*
X26814Y-40147D01*
X26687Y-39838D01*
X26450Y-39602D01*
X26174Y-39487D01*
X26449Y-39373D01*
X26686Y-39137D01*
X26814Y-38828D01*
X26814Y-38494D01*
X26687Y-38185D01*
X26450Y-37948D01*
X26174Y-37833D01*
X26449Y-37720D01*
X26686Y-37483D01*
X26814Y-37175D01*
X26814Y-36840D01*
X26687Y-36531D01*
X26450Y-36294D01*
X26174Y-36180D01*
X26449Y-36066D01*
X26686Y-35830D01*
X26814Y-35521D01*
X26814Y-35187D01*
X26687Y-34878D01*
X26450Y-34641D01*
X26174Y-34526D01*
X26449Y-34413D01*
X26686Y-34176D01*
X26814Y-33867D01*
X26814Y-33533D01*
X26687Y-33224D01*
X26450Y-32987D01*
X26141Y-32859D01*
X25807Y-32859D01*
X25498Y-32987D01*
X25261Y-33223D01*
X25133Y-33532D01*
X25133Y-33866D01*
X25261Y-34175D01*
X25497Y-34412D01*
X25773Y-34526D01*
X25498Y-34640D01*
X25261Y-34876D01*
X25133Y-35185D01*
X25133Y-35520D01*
X25261Y-35829D01*
X25497Y-36065D01*
X25773Y-36180D01*
X25498Y-36294D01*
X25261Y-36530D01*
X25133Y-36839D01*
X25133Y-37173D01*
X25261Y-37482D01*
X25497Y-37719D01*
X25773Y-37833D01*
X25498Y-37947D01*
X25261Y-38183D01*
X25133Y-38492D01*
X25133Y-38827D01*
X25261Y-39136D01*
X25497Y-39372D01*
X25773Y-39487D01*
X25498Y-39601D01*
X25261Y-39837D01*
X25133Y-40146D01*
X25133Y-40480D01*
X25261Y-40789D01*
X25497Y-41026D01*
X25773Y-41141D01*
X25498Y-41254D01*
X25261Y-41490D01*
X25133Y-41799D01*
X25133Y-42134D01*
X25261Y-42443D01*
X25497Y-42679D01*
X25773Y-42794D01*
X25498Y-42908D01*
X25261Y-43144D01*
X25133Y-43453D01*
X25133Y-43787D01*
X25261Y-44096D01*
X25497Y-44333D01*
X25769Y-44446D01*
X25511Y-44553D01*
X25448Y-44678D01*
X25974Y-45204D01*
X26499Y-44678D01*
X26436Y-44553D01*
X26171Y-44449D01*
X26449Y-44334D01*
X26686Y-44098D01*
X26814Y-43789D01*
X26814Y-43454D01*
X26814Y-45274D01*
X26811Y-45091D01*
X26695Y-44812D01*
X26570Y-44749D01*
X26044Y-45274D01*
X26570Y-45800D01*
X26695Y-45737D01*
X26817Y-45425D01*
X26817Y-48732D01*
X26814Y-48581D01*
X26814Y-46761D01*
X26687Y-46452D01*
X26450Y-46216D01*
X26178Y-46103D01*
X26436Y-45996D01*
X26499Y-45870D01*
X25974Y-45345D01*
X25903Y-45416D01*
X25903Y-45274D01*
X25377Y-44749D01*
X25252Y-44812D01*
X25130Y-45123D01*
X25136Y-45458D01*
X25252Y-45737D01*
X25377Y-45800D01*
X25903Y-45274D01*
X25903Y-45416D01*
X25448Y-45870D01*
X25511Y-45996D01*
X25776Y-46100D01*
X25498Y-46215D01*
X25261Y-46451D01*
X25133Y-46760D01*
X25133Y-47094D01*
X25261Y-47403D01*
X25497Y-47640D01*
X25769Y-47753D01*
X25511Y-47860D01*
X25448Y-47985D01*
X25974Y-48511D01*
X26499Y-47985D01*
X26436Y-47860D01*
X26171Y-47756D01*
X26449Y-47641D01*
X26686Y-47405D01*
X26814Y-47096D01*
X26814Y-46761D01*
X26814Y-48581D01*
X26811Y-48398D01*
X26695Y-48119D01*
X26570Y-48056D01*
X26044Y-48581D01*
X26570Y-49107D01*
X26695Y-49044D01*
X26817Y-48732D01*
X26817Y-55020D01*
X26814Y-55020D01*
X26814Y-51722D01*
X26687Y-51413D01*
X26450Y-51176D01*
X26174Y-51062D01*
X26449Y-50948D01*
X26686Y-50712D01*
X26814Y-50403D01*
X26814Y-50068D01*
X26687Y-49759D01*
X26450Y-49523D01*
X26178Y-49410D01*
X26436Y-49303D01*
X26499Y-49177D01*
X25974Y-48652D01*
X25903Y-48723D01*
X25903Y-48581D01*
X25377Y-48056D01*
X25252Y-48119D01*
X25130Y-48430D01*
X25136Y-48765D01*
X25252Y-49044D01*
X25377Y-49107D01*
X25903Y-48581D01*
X25903Y-48723D01*
X25448Y-49177D01*
X25511Y-49303D01*
X25776Y-49407D01*
X25498Y-49522D01*
X25261Y-49758D01*
X25133Y-50067D01*
X25133Y-50401D01*
X25261Y-50710D01*
X25497Y-50947D01*
X25773Y-51062D01*
X25498Y-51175D01*
X25261Y-51412D01*
X25133Y-51721D01*
X25133Y-52055D01*
X25261Y-52364D01*
X25497Y-52601D01*
X25806Y-52729D01*
X26140Y-52729D01*
X26449Y-52601D01*
X26686Y-52365D01*
X26814Y-52056D01*
X26814Y-51722D01*
X26814Y-55020D01*
X23940Y-55020D01*
X23940Y-53933D01*
X23940Y-51722D01*
X23940Y-33533D01*
X23813Y-33224D01*
X23576Y-32987D01*
X23267Y-32859D01*
X22933Y-32859D01*
X22624Y-32987D01*
X22387Y-33223D01*
X22259Y-33532D01*
X22259Y-33866D01*
X22387Y-34175D01*
X22623Y-34412D01*
X22932Y-34540D01*
X23266Y-34540D01*
X23575Y-34413D01*
X23812Y-34176D01*
X23940Y-33867D01*
X23940Y-33533D01*
X23940Y-51722D01*
X23813Y-51413D01*
X23576Y-51176D01*
X23267Y-51048D01*
X22933Y-51048D01*
X22624Y-51175D01*
X22387Y-51412D01*
X22259Y-51721D01*
X22259Y-52055D01*
X22387Y-52364D01*
X22623Y-52601D01*
X22932Y-52729D01*
X23266Y-52729D01*
X23575Y-52601D01*
X23812Y-52365D01*
X23940Y-52056D01*
X23940Y-51722D01*
X23940Y-53933D01*
X23813Y-53624D01*
X23576Y-53387D01*
X23267Y-53259D01*
X22933Y-53259D01*
X22624Y-53387D01*
X22387Y-53623D01*
X22259Y-53932D01*
X22259Y-54266D01*
X22387Y-54575D01*
X22623Y-54812D01*
X22932Y-54940D01*
X23266Y-54940D01*
X23575Y-54813D01*
X23812Y-54576D01*
X23940Y-54267D01*
X23940Y-53933D01*
X23940Y-55020D01*
X21529Y-55020D01*
X21529Y-30625D01*
X22874Y-30625D01*
X22724Y-30687D01*
X22487Y-30923D01*
X22359Y-31232D01*
X22359Y-31566D01*
X22487Y-31875D01*
X22723Y-32112D01*
X23032Y-32240D01*
X23366Y-32240D01*
X23675Y-32113D01*
X23912Y-31876D01*
X24040Y-31567D01*
X24040Y-31233D01*
X23913Y-30924D01*
X23676Y-30687D01*
X23525Y-30625D01*
X33575Y-30625D01*
X33580Y-32441D01*
X33578Y-32442D01*
X33443Y-32577D01*
X33370Y-32754D01*
X33369Y-32945D01*
X33442Y-33121D01*
X33577Y-33256D01*
X33583Y-33258D01*
X33586Y-34359D01*
X33493Y-34452D01*
X33420Y-34629D01*
X33419Y-34820D01*
X33492Y-34996D01*
X33588Y-35092D01*
X33611Y-42423D01*
X33582Y-42353D01*
X33447Y-42218D01*
X33270Y-42145D01*
X33079Y-42144D01*
X32903Y-42217D01*
X32768Y-42352D01*
X32695Y-42529D01*
X32694Y-42720D01*
X32767Y-42896D01*
X32902Y-43031D01*
X33079Y-43104D01*
X33270Y-43105D01*
X33446Y-43032D01*
X33581Y-42897D01*
X33612Y-42823D01*
X33624Y-46770D01*
X33497Y-46643D01*
X33320Y-46570D01*
X33129Y-46569D01*
X32953Y-46642D01*
X32818Y-46777D01*
X32745Y-46954D01*
X32744Y-47145D01*
X32817Y-47321D01*
X32952Y-47456D01*
X33129Y-47529D01*
X33320Y-47530D01*
X33496Y-47457D01*
X33626Y-47327D01*
X33649Y-55020D01*
G54D10*
G36*
X77650Y-55020D02*
X76785Y-55020D01*
X76785Y-53896D01*
X76690Y-53666D01*
X76514Y-53490D01*
X76284Y-53395D01*
X76036Y-53394D01*
X75806Y-53489D01*
X75630Y-53665D01*
X75535Y-53895D01*
X75534Y-54143D01*
X75629Y-54373D01*
X75805Y-54549D01*
X76035Y-54644D01*
X76283Y-54645D01*
X76513Y-54550D01*
X76689Y-54374D01*
X76784Y-54144D01*
X76785Y-53896D01*
X76785Y-55020D01*
X72080Y-55020D01*
X72080Y-50704D01*
X72007Y-50528D01*
X71872Y-50393D01*
X71695Y-50320D01*
X71504Y-50319D01*
X71328Y-50392D01*
X71193Y-50527D01*
X71120Y-50704D01*
X71119Y-50895D01*
X71192Y-51071D01*
X71327Y-51206D01*
X71504Y-51279D01*
X71695Y-51280D01*
X71871Y-51207D01*
X72006Y-51072D01*
X72079Y-50895D01*
X72080Y-50704D01*
X72080Y-55020D01*
X70258Y-55020D01*
X70306Y-54972D01*
X70379Y-54795D01*
X70380Y-54604D01*
X70307Y-54428D01*
X70172Y-54293D01*
X69995Y-54220D01*
X69804Y-54219D01*
X69628Y-54292D01*
X69493Y-54427D01*
X69420Y-54604D01*
X69419Y-54795D01*
X69492Y-54971D01*
X69541Y-55020D01*
X64800Y-55020D01*
X64800Y-53130D01*
X64746Y-53002D01*
X64648Y-52903D01*
X64519Y-52850D01*
X64380Y-52849D01*
X64252Y-52903D01*
X64153Y-53001D01*
X64100Y-53130D01*
X64099Y-53269D01*
X64153Y-53398D01*
X64251Y-53496D01*
X64380Y-53549D01*
X64519Y-53550D01*
X64648Y-53496D01*
X64746Y-53398D01*
X64799Y-53269D01*
X64800Y-53130D01*
X64800Y-55020D01*
X64580Y-55020D01*
X64580Y-54204D01*
X64507Y-54028D01*
X64372Y-53893D01*
X64195Y-53820D01*
X64004Y-53819D01*
X63828Y-53892D01*
X63693Y-54027D01*
X63620Y-54204D01*
X63619Y-54395D01*
X63692Y-54571D01*
X63827Y-54706D01*
X64004Y-54779D01*
X64195Y-54780D01*
X64371Y-54707D01*
X64506Y-54572D01*
X64579Y-54395D01*
X64580Y-54204D01*
X64580Y-55020D01*
X59282Y-55020D01*
X59282Y-52280D01*
X59215Y-51945D01*
X59025Y-51661D01*
X58741Y-51471D01*
X58407Y-51405D01*
X58372Y-51405D01*
X58038Y-51471D01*
X57754Y-51661D01*
X57564Y-51945D01*
X57497Y-52280D01*
X57564Y-52614D01*
X57754Y-52898D01*
X58038Y-53088D01*
X58372Y-53155D01*
X58407Y-53155D01*
X58741Y-53088D01*
X59025Y-52898D01*
X59215Y-52614D01*
X59282Y-52280D01*
X59282Y-55020D01*
X57511Y-55020D01*
X57600Y-55002D01*
X57778Y-54883D01*
X57898Y-54705D01*
X57940Y-54494D01*
X57940Y-54065D01*
X57898Y-53854D01*
X57778Y-53676D01*
X57600Y-53557D01*
X57390Y-53515D01*
X57179Y-53557D01*
X57001Y-53676D01*
X56890Y-53842D01*
X56778Y-53676D01*
X56600Y-53557D01*
X56390Y-53515D01*
X56179Y-53557D01*
X56001Y-53676D01*
X55890Y-53842D01*
X55778Y-53676D01*
X55600Y-53557D01*
X55390Y-53515D01*
X55179Y-53557D01*
X55001Y-53676D01*
X54890Y-53842D01*
X54778Y-53676D01*
X54600Y-53557D01*
X54390Y-53515D01*
X54179Y-53557D01*
X54001Y-53676D01*
X53890Y-53842D01*
X53778Y-53676D01*
X53600Y-53557D01*
X53390Y-53515D01*
X53179Y-53557D01*
X53001Y-53676D01*
X52890Y-53842D01*
X52778Y-53676D01*
X52600Y-53557D01*
X52390Y-53515D01*
X52179Y-53557D01*
X52001Y-53676D01*
X51881Y-53854D01*
X51840Y-54065D01*
X51840Y-54494D01*
X51881Y-54705D01*
X52001Y-54883D01*
X52179Y-55002D01*
X52268Y-55020D01*
X50511Y-55020D01*
X50600Y-55002D01*
X50778Y-54883D01*
X50898Y-54705D01*
X50940Y-54494D01*
X50940Y-54065D01*
X50898Y-53854D01*
X50880Y-53827D01*
X50880Y-50404D01*
X50807Y-50228D01*
X50672Y-50093D01*
X50495Y-50020D01*
X50304Y-50019D01*
X50128Y-50092D01*
X49993Y-50227D01*
X49920Y-50404D01*
X49919Y-50595D01*
X49992Y-50771D01*
X50127Y-50906D01*
X50304Y-50979D01*
X50495Y-50980D01*
X50671Y-50907D01*
X50806Y-50772D01*
X50879Y-50595D01*
X50880Y-50404D01*
X50880Y-53827D01*
X50778Y-53676D01*
X50600Y-53557D01*
X50390Y-53515D01*
X50179Y-53557D01*
X50001Y-53676D01*
X49890Y-53842D01*
X49778Y-53676D01*
X49600Y-53557D01*
X49390Y-53515D01*
X49179Y-53557D01*
X49001Y-53676D01*
X48890Y-53842D01*
X48778Y-53676D01*
X48600Y-53557D01*
X48390Y-53515D01*
X48179Y-53557D01*
X48001Y-53676D01*
X47890Y-53842D01*
X47778Y-53676D01*
X47600Y-53557D01*
X47390Y-53515D01*
X47179Y-53557D01*
X47001Y-53676D01*
X46890Y-53842D01*
X46778Y-53676D01*
X46600Y-53557D01*
X46390Y-53515D01*
X46179Y-53557D01*
X46001Y-53676D01*
X45890Y-53842D01*
X45778Y-53676D01*
X45600Y-53557D01*
X45390Y-53515D01*
X45179Y-53557D01*
X45001Y-53676D01*
X44890Y-53842D01*
X44778Y-53676D01*
X44600Y-53557D01*
X44390Y-53515D01*
X44179Y-53557D01*
X44001Y-53676D01*
X43890Y-53842D01*
X43778Y-53676D01*
X43600Y-53557D01*
X43390Y-53515D01*
X43179Y-53557D01*
X43001Y-53676D01*
X42881Y-53854D01*
X42840Y-54065D01*
X42840Y-54494D01*
X42881Y-54705D01*
X43001Y-54883D01*
X43179Y-55002D01*
X43268Y-55020D01*
X38343Y-55020D01*
X38525Y-54898D01*
X38715Y-54614D01*
X38782Y-54280D01*
X38715Y-53945D01*
X38525Y-53661D01*
X38241Y-53471D01*
X37907Y-53405D01*
X37872Y-53405D01*
X37538Y-53471D01*
X37254Y-53661D01*
X37064Y-53945D01*
X36997Y-54280D01*
X37064Y-54614D01*
X37254Y-54898D01*
X37436Y-55020D01*
X35854Y-55020D01*
X35854Y-48581D01*
X35843Y-48363D01*
X35781Y-48212D01*
X35685Y-48184D01*
X35370Y-48500D01*
X35685Y-48815D01*
X35781Y-48787D01*
X35854Y-48581D01*
X35854Y-55020D01*
X35615Y-55020D01*
X35615Y-48885D01*
X35300Y-48570D01*
X35229Y-48641D01*
X35229Y-48500D01*
X34914Y-48184D01*
X34818Y-48212D01*
X34745Y-48418D01*
X34756Y-48636D01*
X34818Y-48787D01*
X34914Y-48815D01*
X35229Y-48500D01*
X35229Y-48641D01*
X34984Y-48885D01*
X35012Y-48981D01*
X35218Y-49054D01*
X35436Y-49043D01*
X35587Y-48981D01*
X35615Y-48885D01*
X35615Y-55020D01*
X34125Y-55020D01*
X34142Y-47805D01*
X34053Y-46650D01*
X34145Y-46650D01*
X34149Y-45240D01*
X34366Y-45240D01*
X34409Y-45344D01*
X34704Y-45639D01*
X34869Y-45708D01*
X34864Y-46650D01*
X34910Y-46650D01*
X34910Y-46966D01*
X34858Y-46987D01*
X34788Y-47058D01*
X34750Y-47150D01*
X34749Y-47249D01*
X34749Y-47849D01*
X34787Y-47941D01*
X34858Y-48011D01*
X34950Y-48049D01*
X35003Y-48050D01*
X34984Y-48114D01*
X35300Y-48429D01*
X35615Y-48114D01*
X35596Y-48050D01*
X35649Y-48050D01*
X35741Y-48012D01*
X35811Y-47941D01*
X35817Y-47929D01*
X35828Y-47946D01*
X36085Y-48202D01*
X36085Y-48475D01*
X36122Y-48662D01*
X36228Y-48821D01*
X36350Y-48942D01*
X36350Y-49074D01*
X36481Y-49074D01*
X36678Y-49271D01*
X36837Y-49377D01*
X36837Y-49377D01*
X37025Y-49415D01*
X47275Y-49415D01*
X47325Y-49405D01*
X47370Y-49405D01*
X47412Y-49387D01*
X47462Y-49377D01*
X47504Y-49349D01*
X47546Y-49332D01*
X47578Y-49300D01*
X47621Y-49271D01*
X47649Y-49229D01*
X47653Y-49225D01*
X48350Y-49225D01*
X48350Y-49224D01*
X48464Y-49202D01*
X48464Y-49202D01*
X48562Y-49137D01*
X48632Y-49066D01*
X75586Y-49051D01*
X75535Y-49175D01*
X75534Y-49423D01*
X75629Y-49653D01*
X75805Y-49829D01*
X76035Y-49924D01*
X76283Y-49925D01*
X76513Y-49830D01*
X76689Y-49654D01*
X76784Y-49424D01*
X76785Y-49176D01*
X76733Y-49050D01*
X77500Y-49050D01*
X77500Y-50550D01*
X73949Y-50550D01*
X73975Y-53200D01*
X77650Y-53200D01*
X77650Y-55020D01*
X77650Y-55020D01*
G37*
G54D28*
X77650Y-55020D02*
X76785Y-55020D01*
X76785Y-53896D01*
X76690Y-53666D01*
X76514Y-53490D01*
X76284Y-53395D01*
X76036Y-53394D01*
X75806Y-53489D01*
X75630Y-53665D01*
X75535Y-53895D01*
X75534Y-54143D01*
X75629Y-54373D01*
X75805Y-54549D01*
X76035Y-54644D01*
X76283Y-54645D01*
X76513Y-54550D01*
X76689Y-54374D01*
X76784Y-54144D01*
X76785Y-53896D01*
X76785Y-55020D01*
X72080Y-55020D01*
X72080Y-50704D01*
X72007Y-50528D01*
X71872Y-50393D01*
X71695Y-50320D01*
X71504Y-50319D01*
X71328Y-50392D01*
X71193Y-50527D01*
X71120Y-50704D01*
X71119Y-50895D01*
X71192Y-51071D01*
X71327Y-51206D01*
X71504Y-51279D01*
X71695Y-51280D01*
X71871Y-51207D01*
X72006Y-51072D01*
X72079Y-50895D01*
X72080Y-50704D01*
X72080Y-55020D01*
X70258Y-55020D01*
X70306Y-54972D01*
X70379Y-54795D01*
X70380Y-54604D01*
X70307Y-54428D01*
X70172Y-54293D01*
X69995Y-54220D01*
X69804Y-54219D01*
X69628Y-54292D01*
X69493Y-54427D01*
X69420Y-54604D01*
X69419Y-54795D01*
X69492Y-54971D01*
X69541Y-55020D01*
X64800Y-55020D01*
X64800Y-53130D01*
X64746Y-53002D01*
X64648Y-52903D01*
X64519Y-52850D01*
X64380Y-52849D01*
X64252Y-52903D01*
X64153Y-53001D01*
X64100Y-53130D01*
X64099Y-53269D01*
X64153Y-53398D01*
X64251Y-53496D01*
X64380Y-53549D01*
X64519Y-53550D01*
X64648Y-53496D01*
X64746Y-53398D01*
X64799Y-53269D01*
X64800Y-53130D01*
X64800Y-55020D01*
X64580Y-55020D01*
X64580Y-54204D01*
X64507Y-54028D01*
X64372Y-53893D01*
X64195Y-53820D01*
X64004Y-53819D01*
X63828Y-53892D01*
X63693Y-54027D01*
X63620Y-54204D01*
X63619Y-54395D01*
X63692Y-54571D01*
X63827Y-54706D01*
X64004Y-54779D01*
X64195Y-54780D01*
X64371Y-54707D01*
X64506Y-54572D01*
X64579Y-54395D01*
X64580Y-54204D01*
X64580Y-55020D01*
X59282Y-55020D01*
X59282Y-52280D01*
X59215Y-51945D01*
X59025Y-51661D01*
X58741Y-51471D01*
X58407Y-51405D01*
X58372Y-51405D01*
X58038Y-51471D01*
X57754Y-51661D01*
X57564Y-51945D01*
X57497Y-52280D01*
X57564Y-52614D01*
X57754Y-52898D01*
X58038Y-53088D01*
X58372Y-53155D01*
X58407Y-53155D01*
X58741Y-53088D01*
X59025Y-52898D01*
X59215Y-52614D01*
X59282Y-52280D01*
X59282Y-55020D01*
X57511Y-55020D01*
X57600Y-55002D01*
X57778Y-54883D01*
X57898Y-54705D01*
X57940Y-54494D01*
X57940Y-54065D01*
X57898Y-53854D01*
X57778Y-53676D01*
X57600Y-53557D01*
X57390Y-53515D01*
X57179Y-53557D01*
X57001Y-53676D01*
X56890Y-53842D01*
X56778Y-53676D01*
X56600Y-53557D01*
X56390Y-53515D01*
X56179Y-53557D01*
X56001Y-53676D01*
X55890Y-53842D01*
X55778Y-53676D01*
X55600Y-53557D01*
X55390Y-53515D01*
X55179Y-53557D01*
X55001Y-53676D01*
X54890Y-53842D01*
X54778Y-53676D01*
X54600Y-53557D01*
X54390Y-53515D01*
X54179Y-53557D01*
X54001Y-53676D01*
X53890Y-53842D01*
X53778Y-53676D01*
X53600Y-53557D01*
X53390Y-53515D01*
X53179Y-53557D01*
X53001Y-53676D01*
X52890Y-53842D01*
X52778Y-53676D01*
X52600Y-53557D01*
X52390Y-53515D01*
X52179Y-53557D01*
X52001Y-53676D01*
X51881Y-53854D01*
X51840Y-54065D01*
X51840Y-54494D01*
X51881Y-54705D01*
X52001Y-54883D01*
X52179Y-55002D01*
X52268Y-55020D01*
X50511Y-55020D01*
X50600Y-55002D01*
X50778Y-54883D01*
X50898Y-54705D01*
X50940Y-54494D01*
X50940Y-54065D01*
X50898Y-53854D01*
X50880Y-53827D01*
X50880Y-50404D01*
X50807Y-50228D01*
X50672Y-50093D01*
X50495Y-50020D01*
X50304Y-50019D01*
X50128Y-50092D01*
X49993Y-50227D01*
X49920Y-50404D01*
X49919Y-50595D01*
X49992Y-50771D01*
X50127Y-50906D01*
X50304Y-50979D01*
X50495Y-50980D01*
X50671Y-50907D01*
X50806Y-50772D01*
X50879Y-50595D01*
X50880Y-50404D01*
X50880Y-53827D01*
X50778Y-53676D01*
X50600Y-53557D01*
X50390Y-53515D01*
X50179Y-53557D01*
X50001Y-53676D01*
X49890Y-53842D01*
X49778Y-53676D01*
X49600Y-53557D01*
X49390Y-53515D01*
X49179Y-53557D01*
X49001Y-53676D01*
X48890Y-53842D01*
X48778Y-53676D01*
X48600Y-53557D01*
X48390Y-53515D01*
X48179Y-53557D01*
X48001Y-53676D01*
X47890Y-53842D01*
X47778Y-53676D01*
X47600Y-53557D01*
X47390Y-53515D01*
X47179Y-53557D01*
X47001Y-53676D01*
X46890Y-53842D01*
X46778Y-53676D01*
X46600Y-53557D01*
X46390Y-53515D01*
X46179Y-53557D01*
X46001Y-53676D01*
X45890Y-53842D01*
X45778Y-53676D01*
X45600Y-53557D01*
X45390Y-53515D01*
X45179Y-53557D01*
X45001Y-53676D01*
X44890Y-53842D01*
X44778Y-53676D01*
X44600Y-53557D01*
X44390Y-53515D01*
X44179Y-53557D01*
X44001Y-53676D01*
X43890Y-53842D01*
X43778Y-53676D01*
X43600Y-53557D01*
X43390Y-53515D01*
X43179Y-53557D01*
X43001Y-53676D01*
X42881Y-53854D01*
X42840Y-54065D01*
X42840Y-54494D01*
X42881Y-54705D01*
X43001Y-54883D01*
X43179Y-55002D01*
X43268Y-55020D01*
X38343Y-55020D01*
X38525Y-54898D01*
X38715Y-54614D01*
X38782Y-54280D01*
X38715Y-53945D01*
X38525Y-53661D01*
X38241Y-53471D01*
X37907Y-53405D01*
X37872Y-53405D01*
X37538Y-53471D01*
X37254Y-53661D01*
X37064Y-53945D01*
X36997Y-54280D01*
X37064Y-54614D01*
X37254Y-54898D01*
X37436Y-55020D01*
X35854Y-55020D01*
X35854Y-48581D01*
X35843Y-48363D01*
X35781Y-48212D01*
X35685Y-48184D01*
X35370Y-48500D01*
X35685Y-48815D01*
X35781Y-48787D01*
X35854Y-48581D01*
X35854Y-55020D01*
X35615Y-55020D01*
X35615Y-48885D01*
X35300Y-48570D01*
X35229Y-48641D01*
X35229Y-48500D01*
X34914Y-48184D01*
X34818Y-48212D01*
X34745Y-48418D01*
X34756Y-48636D01*
X34818Y-48787D01*
X34914Y-48815D01*
X35229Y-48500D01*
X35229Y-48641D01*
X34984Y-48885D01*
X35012Y-48981D01*
X35218Y-49054D01*
X35436Y-49043D01*
X35587Y-48981D01*
X35615Y-48885D01*
X35615Y-55020D01*
X34125Y-55020D01*
X34142Y-47805D01*
X34053Y-46650D01*
X34145Y-46650D01*
X34149Y-45240D01*
X34366Y-45240D01*
X34409Y-45344D01*
X34704Y-45639D01*
X34869Y-45708D01*
X34864Y-46650D01*
X34910Y-46650D01*
X34910Y-46966D01*
X34858Y-46987D01*
X34788Y-47058D01*
X34750Y-47150D01*
X34749Y-47249D01*
X34749Y-47849D01*
X34787Y-47941D01*
X34858Y-48011D01*
X34950Y-48049D01*
X35003Y-48050D01*
X34984Y-48114D01*
X35300Y-48429D01*
X35615Y-48114D01*
X35596Y-48050D01*
X35649Y-48050D01*
X35741Y-48012D01*
X35811Y-47941D01*
X35817Y-47929D01*
X35828Y-47946D01*
X36085Y-48202D01*
X36085Y-48475D01*
X36122Y-48662D01*
X36228Y-48821D01*
X36350Y-48942D01*
X36350Y-49074D01*
X36481Y-49074D01*
X36678Y-49271D01*
X36837Y-49377D01*
X36837Y-49377D01*
X37025Y-49415D01*
X47275Y-49415D01*
X47325Y-49405D01*
X47370Y-49405D01*
X47412Y-49387D01*
X47462Y-49377D01*
X47504Y-49349D01*
X47546Y-49332D01*
X47578Y-49300D01*
X47621Y-49271D01*
X47649Y-49229D01*
X47653Y-49225D01*
X48350Y-49225D01*
X48350Y-49224D01*
X48464Y-49202D01*
X48464Y-49202D01*
X48562Y-49137D01*
X48632Y-49066D01*
X75586Y-49051D01*
X75535Y-49175D01*
X75534Y-49423D01*
X75629Y-49653D01*
X75805Y-49829D01*
X76035Y-49924D01*
X76283Y-49925D01*
X76513Y-49830D01*
X76689Y-49654D01*
X76784Y-49424D01*
X76785Y-49176D01*
X76733Y-49050D01*
X77500Y-49050D01*
X77500Y-50550D01*
X73949Y-50550D01*
X73975Y-53200D01*
X77650Y-53200D01*
X77650Y-55020D01*
G54D10*
G36*
X85750Y-44550D02*
X85443Y-44550D01*
X85443Y-43566D01*
X85443Y-42188D01*
X85443Y-40810D01*
X85443Y-39432D01*
X85346Y-39196D01*
X85165Y-39014D01*
X84928Y-38916D01*
X84672Y-38916D01*
X84435Y-39014D01*
X84254Y-39195D01*
X84156Y-39431D01*
X84156Y-39687D01*
X84253Y-39924D01*
X84434Y-40105D01*
X84671Y-40203D01*
X84927Y-40204D01*
X85164Y-40106D01*
X85345Y-39925D01*
X85443Y-39688D01*
X85443Y-39432D01*
X85443Y-40810D01*
X85346Y-40574D01*
X85165Y-40392D01*
X84928Y-40294D01*
X84672Y-40294D01*
X84435Y-40392D01*
X84254Y-40573D01*
X84156Y-40809D01*
X84156Y-41065D01*
X84253Y-41302D01*
X84434Y-41483D01*
X84671Y-41581D01*
X84927Y-41582D01*
X85164Y-41484D01*
X85345Y-41303D01*
X85443Y-41066D01*
X85443Y-40810D01*
X85443Y-42188D01*
X85346Y-41951D01*
X85165Y-41770D01*
X84928Y-41672D01*
X84672Y-41672D01*
X84435Y-41770D01*
X84254Y-41951D01*
X84156Y-42187D01*
X84156Y-42443D01*
X84253Y-42680D01*
X84434Y-42861D01*
X84671Y-42959D01*
X84927Y-42959D01*
X85164Y-42862D01*
X85345Y-42681D01*
X85443Y-42444D01*
X85443Y-42188D01*
X85443Y-43566D01*
X85346Y-43329D01*
X85165Y-43148D01*
X84928Y-43050D01*
X84672Y-43050D01*
X84435Y-43148D01*
X84254Y-43328D01*
X84156Y-43565D01*
X84156Y-43821D01*
X84253Y-44058D01*
X84434Y-44239D01*
X84671Y-44337D01*
X84927Y-44337D01*
X85164Y-44240D01*
X85345Y-44059D01*
X85443Y-43822D01*
X85443Y-43566D01*
X85443Y-44550D01*
X85188Y-44550D01*
X85165Y-44526D01*
X84928Y-44428D01*
X84672Y-44428D01*
X84435Y-44526D01*
X84411Y-44550D01*
X81850Y-44550D01*
X81850Y-37930D01*
X81796Y-37802D01*
X81698Y-37703D01*
X81569Y-37650D01*
X81521Y-37650D01*
X81521Y-34723D01*
X81430Y-34503D01*
X81261Y-34334D01*
X81041Y-34242D01*
X80802Y-34242D01*
X80581Y-34333D01*
X80421Y-34493D01*
X80261Y-34334D01*
X80041Y-34242D01*
X79802Y-34242D01*
X79581Y-34333D01*
X79506Y-34408D01*
X79483Y-34351D01*
X79413Y-34280D01*
X79321Y-34242D01*
X79221Y-34242D01*
X78521Y-34242D01*
X78429Y-34280D01*
X78359Y-34350D01*
X78321Y-34442D01*
X78321Y-34542D01*
X78321Y-35242D01*
X78359Y-35333D01*
X78429Y-35404D01*
X78521Y-35442D01*
X78620Y-35442D01*
X79320Y-35442D01*
X79412Y-35404D01*
X79483Y-35334D01*
X79506Y-35276D01*
X79580Y-35350D01*
X79801Y-35442D01*
X80040Y-35442D01*
X80260Y-35351D01*
X80421Y-35191D01*
X80580Y-35350D01*
X80801Y-35442D01*
X81040Y-35442D01*
X81260Y-35351D01*
X81429Y-35182D01*
X81521Y-34962D01*
X81521Y-34723D01*
X81521Y-37650D01*
X81430Y-37649D01*
X81302Y-37703D01*
X81203Y-37801D01*
X81150Y-37930D01*
X81149Y-38069D01*
X81203Y-38198D01*
X81301Y-38296D01*
X81430Y-38349D01*
X81569Y-38350D01*
X81698Y-38296D01*
X81796Y-38198D01*
X81849Y-38069D01*
X81850Y-37930D01*
X81850Y-44550D01*
X80200Y-44550D01*
X80200Y-39541D01*
X80116Y-39338D01*
X79961Y-39184D01*
X79880Y-39150D01*
X79961Y-39116D01*
X80115Y-38961D01*
X80199Y-38759D01*
X80200Y-38541D01*
X80116Y-38338D01*
X79961Y-38184D01*
X79880Y-38150D01*
X79961Y-38116D01*
X80115Y-37961D01*
X80199Y-37759D01*
X80200Y-37541D01*
X80116Y-37338D01*
X79961Y-37184D01*
X79759Y-37100D01*
X79541Y-37099D01*
X79338Y-37183D01*
X79200Y-37322D01*
X79200Y-37300D01*
X79162Y-37208D01*
X79091Y-37138D01*
X78999Y-37100D01*
X78900Y-37099D01*
X78300Y-37099D01*
X78208Y-37137D01*
X78138Y-37208D01*
X78100Y-37300D01*
X78099Y-37399D01*
X78099Y-37999D01*
X78137Y-38091D01*
X78208Y-38161D01*
X78300Y-38199D01*
X78322Y-38199D01*
X78184Y-38338D01*
X78100Y-38540D01*
X78099Y-38758D01*
X78183Y-38961D01*
X78338Y-39115D01*
X78419Y-39149D01*
X78338Y-39183D01*
X78184Y-39338D01*
X78100Y-39540D01*
X78099Y-39758D01*
X78183Y-39961D01*
X78338Y-40115D01*
X78540Y-40199D01*
X78758Y-40200D01*
X78961Y-40116D01*
X79115Y-39961D01*
X79149Y-39880D01*
X79183Y-39961D01*
X79338Y-40115D01*
X79540Y-40199D01*
X79758Y-40200D01*
X79961Y-40116D01*
X80115Y-39961D01*
X80199Y-39759D01*
X80200Y-39541D01*
X80200Y-44550D01*
X77250Y-44550D01*
X77250Y-37230D01*
X77196Y-37102D01*
X77098Y-37003D01*
X76969Y-36950D01*
X76830Y-36949D01*
X76702Y-37003D01*
X76603Y-37101D01*
X76600Y-37109D01*
X76600Y-34723D01*
X76508Y-34503D01*
X76340Y-34334D01*
X76119Y-34242D01*
X75881Y-34242D01*
X75660Y-34333D01*
X75499Y-34493D01*
X75340Y-34334D01*
X75119Y-34242D01*
X74881Y-34242D01*
X74660Y-34333D01*
X74585Y-34408D01*
X74562Y-34351D01*
X74491Y-34280D01*
X74399Y-34242D01*
X74300Y-34242D01*
X73600Y-34242D01*
X73508Y-34280D01*
X73438Y-34350D01*
X73400Y-34442D01*
X73399Y-34542D01*
X73399Y-35242D01*
X73437Y-35333D01*
X73508Y-35404D01*
X73600Y-35442D01*
X73699Y-35442D01*
X74399Y-35442D01*
X74491Y-35404D01*
X74561Y-35334D01*
X74585Y-35276D01*
X74659Y-35350D01*
X74880Y-35442D01*
X75118Y-35442D01*
X75339Y-35351D01*
X75500Y-35191D01*
X75659Y-35350D01*
X75880Y-35442D01*
X76118Y-35442D01*
X76339Y-35351D01*
X76508Y-35182D01*
X76599Y-34962D01*
X76600Y-34723D01*
X76600Y-37109D01*
X76566Y-37190D01*
X76469Y-37150D01*
X76330Y-37149D01*
X76202Y-37203D01*
X76103Y-37301D01*
X76050Y-37430D01*
X76049Y-37569D01*
X76065Y-37606D01*
X75943Y-37727D01*
X75870Y-37904D01*
X75869Y-38095D01*
X75942Y-38271D01*
X76077Y-38406D01*
X76254Y-38479D01*
X76445Y-38480D01*
X76621Y-38407D01*
X76756Y-38272D01*
X76829Y-38095D01*
X76830Y-37904D01*
X76757Y-37728D01*
X76705Y-37676D01*
X76733Y-37609D01*
X76830Y-37649D01*
X76969Y-37650D01*
X77098Y-37596D01*
X77196Y-37498D01*
X77249Y-37369D01*
X77250Y-37230D01*
X77250Y-44550D01*
X75350Y-44550D01*
X75350Y-39430D01*
X75296Y-39302D01*
X75290Y-39295D01*
X75290Y-38130D01*
X75236Y-38002D01*
X75138Y-37903D01*
X75009Y-37850D01*
X74870Y-37849D01*
X74742Y-37903D01*
X74643Y-38001D01*
X74590Y-38130D01*
X74589Y-38269D01*
X74643Y-38398D01*
X74741Y-38496D01*
X74870Y-38549D01*
X75009Y-38550D01*
X75138Y-38496D01*
X75236Y-38398D01*
X75289Y-38269D01*
X75290Y-38130D01*
X75290Y-39295D01*
X75198Y-39203D01*
X75069Y-39150D01*
X74930Y-39149D01*
X74802Y-39203D01*
X74800Y-39205D01*
X74800Y-38680D01*
X74746Y-38552D01*
X74648Y-38453D01*
X74519Y-38400D01*
X74380Y-38399D01*
X74379Y-38400D01*
X74380Y-38254D01*
X74307Y-38078D01*
X74172Y-37943D01*
X73995Y-37870D01*
X73804Y-37869D01*
X73628Y-37942D01*
X73493Y-38077D01*
X73420Y-38254D01*
X73419Y-38445D01*
X73492Y-38621D01*
X73627Y-38756D01*
X73804Y-38829D01*
X73995Y-38830D01*
X74099Y-38786D01*
X74099Y-38819D01*
X74153Y-38948D01*
X74251Y-39046D01*
X74380Y-39099D01*
X74519Y-39100D01*
X74648Y-39046D01*
X74746Y-38948D01*
X74799Y-38819D01*
X74800Y-38680D01*
X74800Y-39205D01*
X74703Y-39301D01*
X74650Y-39430D01*
X74649Y-39569D01*
X74703Y-39698D01*
X74801Y-39796D01*
X74930Y-39849D01*
X75069Y-39850D01*
X75198Y-39796D01*
X75296Y-39698D01*
X75349Y-39569D01*
X75350Y-39430D01*
X75350Y-44550D01*
X74428Y-44550D01*
X74357Y-44378D01*
X74222Y-44243D01*
X74045Y-44170D01*
X73854Y-44169D01*
X73678Y-44242D01*
X73543Y-44377D01*
X73471Y-44550D01*
X72550Y-44550D01*
X72550Y-38680D01*
X72496Y-38552D01*
X72398Y-38453D01*
X72269Y-38400D01*
X72130Y-38399D01*
X72002Y-38453D01*
X71903Y-38551D01*
X71850Y-38680D01*
X71849Y-38819D01*
X71903Y-38948D01*
X72001Y-39046D01*
X72130Y-39099D01*
X72269Y-39100D01*
X72398Y-39046D01*
X72496Y-38948D01*
X72549Y-38819D01*
X72550Y-38680D01*
X72550Y-44550D01*
X71950Y-44550D01*
X71950Y-39330D01*
X71896Y-39202D01*
X71800Y-39105D01*
X71800Y-38380D01*
X71746Y-38252D01*
X71648Y-38153D01*
X71519Y-38100D01*
X71380Y-38099D01*
X71252Y-38153D01*
X71153Y-38251D01*
X71100Y-38380D01*
X71099Y-38519D01*
X71153Y-38648D01*
X71251Y-38746D01*
X71380Y-38799D01*
X71519Y-38800D01*
X71648Y-38746D01*
X71746Y-38648D01*
X71799Y-38519D01*
X71800Y-38380D01*
X71800Y-39105D01*
X71798Y-39103D01*
X71669Y-39050D01*
X71530Y-39049D01*
X71402Y-39103D01*
X71303Y-39201D01*
X71250Y-39330D01*
X71249Y-39469D01*
X71303Y-39598D01*
X71401Y-39696D01*
X71530Y-39749D01*
X71669Y-39750D01*
X71798Y-39696D01*
X71896Y-39598D01*
X71949Y-39469D01*
X71950Y-39330D01*
X71950Y-44550D01*
X71150Y-44550D01*
X71150Y-41030D01*
X71096Y-40902D01*
X70998Y-40803D01*
X70869Y-40750D01*
X70730Y-40749D01*
X70602Y-40803D01*
X70503Y-40901D01*
X70450Y-41030D01*
X70449Y-41169D01*
X70503Y-41298D01*
X70601Y-41396D01*
X70730Y-41449D01*
X70869Y-41450D01*
X70998Y-41396D01*
X71096Y-41298D01*
X71149Y-41169D01*
X71150Y-41030D01*
X71150Y-44550D01*
X70400Y-44550D01*
X70400Y-38280D01*
X70346Y-38152D01*
X70248Y-38053D01*
X70119Y-38000D01*
X69980Y-37999D01*
X69852Y-38053D01*
X69753Y-38151D01*
X69700Y-38280D01*
X69699Y-38419D01*
X69753Y-38548D01*
X69851Y-38646D01*
X69980Y-38699D01*
X70119Y-38700D01*
X70248Y-38646D01*
X70346Y-38548D01*
X70399Y-38419D01*
X70400Y-38280D01*
X70400Y-44550D01*
X67100Y-44550D01*
X67100Y-41680D01*
X67046Y-41552D01*
X66948Y-41453D01*
X66819Y-41400D01*
X66680Y-41399D01*
X66552Y-41453D01*
X66453Y-41551D01*
X66400Y-41680D01*
X66399Y-41819D01*
X66453Y-41948D01*
X66551Y-42046D01*
X66680Y-42099D01*
X66819Y-42100D01*
X66948Y-42046D01*
X67046Y-41948D01*
X67099Y-41819D01*
X67100Y-41680D01*
X67100Y-44550D01*
X66250Y-44550D01*
X66250Y-38030D01*
X66196Y-37902D01*
X66098Y-37803D01*
X65969Y-37750D01*
X65830Y-37749D01*
X65702Y-37803D01*
X65603Y-37901D01*
X65550Y-38030D01*
X65549Y-38169D01*
X65603Y-38298D01*
X65701Y-38396D01*
X65830Y-38449D01*
X65969Y-38450D01*
X66098Y-38396D01*
X66196Y-38298D01*
X66249Y-38169D01*
X66250Y-38030D01*
X66250Y-44550D01*
X65600Y-44550D01*
X65600Y-38580D01*
X65546Y-38452D01*
X65448Y-38353D01*
X65319Y-38300D01*
X65180Y-38299D01*
X65084Y-38339D01*
X64998Y-38253D01*
X64869Y-38200D01*
X64730Y-38199D01*
X64602Y-38253D01*
X64524Y-38329D01*
X64498Y-38303D01*
X64369Y-38250D01*
X64230Y-38249D01*
X64102Y-38303D01*
X64027Y-38377D01*
X63996Y-38302D01*
X63898Y-38203D01*
X63769Y-38150D01*
X63630Y-38149D01*
X63502Y-38203D01*
X63403Y-38301D01*
X63350Y-38430D01*
X63349Y-38569D01*
X63403Y-38698D01*
X63501Y-38796D01*
X63630Y-38849D01*
X63769Y-38850D01*
X63898Y-38796D01*
X63972Y-38722D01*
X64003Y-38798D01*
X64101Y-38896D01*
X64230Y-38949D01*
X64369Y-38950D01*
X64498Y-38896D01*
X64575Y-38820D01*
X64601Y-38846D01*
X64730Y-38899D01*
X64869Y-38900D01*
X64965Y-38860D01*
X65051Y-38946D01*
X65180Y-38999D01*
X65319Y-39000D01*
X65448Y-38946D01*
X65546Y-38848D01*
X65599Y-38719D01*
X65600Y-38580D01*
X65600Y-44550D01*
X65475Y-44550D01*
X65475Y-42530D01*
X65421Y-42402D01*
X65323Y-42303D01*
X65194Y-42250D01*
X65190Y-42250D01*
X65190Y-41830D01*
X65136Y-41702D01*
X65038Y-41603D01*
X64909Y-41550D01*
X64770Y-41549D01*
X64642Y-41603D01*
X64543Y-41701D01*
X64540Y-41709D01*
X64540Y-40480D01*
X64486Y-40352D01*
X64388Y-40253D01*
X64259Y-40200D01*
X64120Y-40199D01*
X63992Y-40253D01*
X63947Y-40297D01*
X63879Y-40270D01*
X63740Y-40269D01*
X63612Y-40323D01*
X63513Y-40421D01*
X63460Y-40550D01*
X63459Y-40689D01*
X63513Y-40818D01*
X63611Y-40916D01*
X63740Y-40969D01*
X63879Y-40970D01*
X64008Y-40916D01*
X64052Y-40872D01*
X64120Y-40899D01*
X64259Y-40900D01*
X64388Y-40846D01*
X64486Y-40748D01*
X64539Y-40619D01*
X64540Y-40480D01*
X64540Y-41709D01*
X64490Y-41830D01*
X64489Y-41969D01*
X64543Y-42098D01*
X64641Y-42196D01*
X64770Y-42249D01*
X64909Y-42250D01*
X65038Y-42196D01*
X65136Y-42098D01*
X65189Y-41969D01*
X65190Y-41830D01*
X65190Y-42250D01*
X65055Y-42249D01*
X64927Y-42303D01*
X64828Y-42401D01*
X64775Y-42530D01*
X64774Y-42669D01*
X64828Y-42798D01*
X64880Y-42850D01*
X64755Y-42849D01*
X64627Y-42903D01*
X64528Y-43001D01*
X64475Y-43130D01*
X64474Y-43269D01*
X64528Y-43398D01*
X64626Y-43496D01*
X64755Y-43549D01*
X64894Y-43550D01*
X65023Y-43496D01*
X65121Y-43398D01*
X65174Y-43269D01*
X65175Y-43130D01*
X65121Y-43002D01*
X65069Y-42949D01*
X65194Y-42950D01*
X65323Y-42896D01*
X65421Y-42798D01*
X65474Y-42669D01*
X65475Y-42530D01*
X65475Y-44550D01*
X62250Y-44550D01*
X62250Y-42530D01*
X62196Y-42402D01*
X62098Y-42303D01*
X61969Y-42250D01*
X61830Y-42249D01*
X61702Y-42303D01*
X61603Y-42401D01*
X61550Y-42530D01*
X61549Y-42669D01*
X61603Y-42798D01*
X61701Y-42896D01*
X61830Y-42949D01*
X61969Y-42950D01*
X62098Y-42896D01*
X62196Y-42798D01*
X62249Y-42669D01*
X62250Y-42530D01*
X62250Y-44550D01*
X61150Y-44550D01*
X61150Y-41080D01*
X61096Y-40952D01*
X60998Y-40853D01*
X60869Y-40800D01*
X60730Y-40799D01*
X60602Y-40853D01*
X60503Y-40951D01*
X60450Y-41080D01*
X60449Y-41219D01*
X60503Y-41348D01*
X60601Y-41446D01*
X60730Y-41499D01*
X60869Y-41500D01*
X60998Y-41446D01*
X61096Y-41348D01*
X61149Y-41219D01*
X61150Y-41080D01*
X61150Y-44550D01*
X60875Y-44550D01*
X60875Y-43380D01*
X60875Y-42655D01*
X60821Y-42527D01*
X60723Y-42428D01*
X60594Y-42375D01*
X60455Y-42374D01*
X60327Y-42428D01*
X60228Y-42526D01*
X60175Y-42655D01*
X60174Y-42794D01*
X60228Y-42923D01*
X60326Y-43021D01*
X60455Y-43074D01*
X60594Y-43075D01*
X60723Y-43021D01*
X60821Y-42923D01*
X60874Y-42794D01*
X60875Y-42655D01*
X60875Y-43380D01*
X60821Y-43252D01*
X60723Y-43153D01*
X60594Y-43100D01*
X60455Y-43099D01*
X60327Y-43153D01*
X60228Y-43251D01*
X60175Y-43380D01*
X60174Y-43519D01*
X60228Y-43648D01*
X60326Y-43746D01*
X60455Y-43799D01*
X60594Y-43800D01*
X60723Y-43746D01*
X60821Y-43648D01*
X60874Y-43519D01*
X60875Y-43380D01*
X60875Y-44550D01*
X59282Y-44550D01*
X59282Y-41280D01*
X59215Y-40945D01*
X59025Y-40661D01*
X58741Y-40471D01*
X58407Y-40405D01*
X58372Y-40405D01*
X58350Y-40409D01*
X58350Y-37880D01*
X58296Y-37752D01*
X58198Y-37653D01*
X58069Y-37600D01*
X57930Y-37599D01*
X57802Y-37653D01*
X57703Y-37751D01*
X57650Y-37880D01*
X57649Y-38019D01*
X57703Y-38148D01*
X57801Y-38246D01*
X57930Y-38299D01*
X58069Y-38300D01*
X58198Y-38246D01*
X58296Y-38148D01*
X58349Y-38019D01*
X58350Y-37880D01*
X58350Y-40409D01*
X58038Y-40471D01*
X57754Y-40661D01*
X57564Y-40945D01*
X57497Y-41280D01*
X57564Y-41614D01*
X57754Y-41898D01*
X58038Y-42088D01*
X58372Y-42155D01*
X58407Y-42155D01*
X58741Y-42088D01*
X59025Y-41898D01*
X59215Y-41614D01*
X59282Y-41280D01*
X59282Y-44550D01*
X55800Y-44550D01*
X55800Y-38580D01*
X55746Y-38452D01*
X55648Y-38353D01*
X55519Y-38300D01*
X55380Y-38299D01*
X55252Y-38353D01*
X55153Y-38451D01*
X55100Y-38580D01*
X55099Y-38719D01*
X55153Y-38848D01*
X55251Y-38946D01*
X55380Y-38999D01*
X55519Y-39000D01*
X55648Y-38946D01*
X55746Y-38848D01*
X55799Y-38719D01*
X55800Y-38580D01*
X55800Y-44550D01*
X54850Y-44550D01*
X54850Y-38080D01*
X54796Y-37952D01*
X54698Y-37853D01*
X54569Y-37800D01*
X54430Y-37799D01*
X54302Y-37853D01*
X54203Y-37951D01*
X54150Y-38080D01*
X54149Y-38219D01*
X54203Y-38348D01*
X54301Y-38446D01*
X54430Y-38499D01*
X54569Y-38500D01*
X54698Y-38446D01*
X54796Y-38348D01*
X54849Y-38219D01*
X54850Y-38080D01*
X54850Y-44550D01*
X52900Y-44550D01*
X52900Y-38155D01*
X52846Y-38027D01*
X52748Y-37928D01*
X52619Y-37875D01*
X52480Y-37874D01*
X52352Y-37928D01*
X52253Y-38026D01*
X52200Y-38155D01*
X52199Y-38294D01*
X52253Y-38423D01*
X52351Y-38521D01*
X52480Y-38574D01*
X52619Y-38575D01*
X52748Y-38521D01*
X52846Y-38423D01*
X52899Y-38294D01*
X52900Y-38155D01*
X52900Y-44550D01*
X49125Y-44550D01*
X49125Y-38955D01*
X49071Y-38827D01*
X48973Y-38728D01*
X48844Y-38675D01*
X48705Y-38674D01*
X48577Y-38728D01*
X48478Y-38826D01*
X48425Y-38955D01*
X48424Y-39094D01*
X48478Y-39223D01*
X48576Y-39321D01*
X48705Y-39374D01*
X48844Y-39375D01*
X48973Y-39321D01*
X49071Y-39223D01*
X49124Y-39094D01*
X49125Y-38955D01*
X49125Y-44550D01*
X46550Y-44550D01*
X46550Y-39905D01*
X46496Y-39777D01*
X46398Y-39678D01*
X46269Y-39625D01*
X46130Y-39624D01*
X46002Y-39678D01*
X45903Y-39776D01*
X45850Y-39905D01*
X45849Y-40044D01*
X45903Y-40173D01*
X46001Y-40271D01*
X46130Y-40324D01*
X46269Y-40325D01*
X46398Y-40271D01*
X46496Y-40173D01*
X46549Y-40044D01*
X46550Y-39905D01*
X46550Y-44550D01*
X45200Y-44550D01*
X45200Y-39780D01*
X45146Y-39652D01*
X45048Y-39553D01*
X44919Y-39500D01*
X44780Y-39499D01*
X44652Y-39553D01*
X44553Y-39651D01*
X44500Y-39780D01*
X44499Y-39919D01*
X44553Y-40048D01*
X44651Y-40146D01*
X44780Y-40199D01*
X44919Y-40200D01*
X45048Y-40146D01*
X45146Y-40048D01*
X45199Y-39919D01*
X45200Y-39780D01*
X45200Y-44550D01*
X38097Y-44550D01*
X38097Y-43183D01*
X38097Y-42909D01*
X38003Y-42711D01*
X37841Y-42565D01*
X37690Y-42502D01*
X37603Y-42550D01*
X37603Y-42996D01*
X38049Y-42996D01*
X38097Y-42909D01*
X38097Y-43183D01*
X38049Y-43096D01*
X37603Y-43096D01*
X37603Y-43542D01*
X37690Y-43590D01*
X37888Y-43496D01*
X38034Y-43334D01*
X38097Y-43183D01*
X38097Y-44550D01*
X36791Y-44550D01*
X36787Y-44547D01*
X36650Y-44519D01*
X36650Y-44519D01*
X36650Y-44442D01*
X36703Y-44388D01*
X36704Y-44389D01*
X36796Y-44427D01*
X36895Y-44427D01*
X36987Y-44389D01*
X37058Y-44319D01*
X37482Y-43895D01*
X37520Y-43803D01*
X37520Y-43704D01*
X37482Y-43612D01*
X37445Y-43574D01*
X37503Y-43542D01*
X37503Y-43167D01*
X37547Y-43122D01*
X37503Y-43078D01*
X37503Y-42996D01*
X37503Y-42550D01*
X37416Y-42502D01*
X37219Y-42596D01*
X37072Y-42758D01*
X37009Y-42909D01*
X37057Y-42996D01*
X37503Y-42996D01*
X37503Y-43078D01*
X37477Y-43052D01*
X37432Y-43096D01*
X37057Y-43096D01*
X37025Y-43154D01*
X36988Y-43117D01*
X36896Y-43079D01*
X36796Y-43079D01*
X36705Y-43117D01*
X36650Y-43172D01*
X36650Y-36650D01*
X37582Y-36650D01*
X37478Y-36692D01*
X37343Y-36827D01*
X37270Y-37004D01*
X37269Y-37195D01*
X37342Y-37371D01*
X37477Y-37506D01*
X37654Y-37579D01*
X37845Y-37580D01*
X38021Y-37507D01*
X38156Y-37372D01*
X38229Y-37195D01*
X38230Y-37004D01*
X38157Y-36828D01*
X38022Y-36693D01*
X37917Y-36650D01*
X38200Y-36650D01*
X71725Y-36455D01*
X71753Y-36523D01*
X71851Y-36621D01*
X71980Y-36674D01*
X72119Y-36675D01*
X72248Y-36621D01*
X72346Y-36523D01*
X72376Y-36451D01*
X72650Y-36449D01*
X72650Y-33450D01*
X82550Y-33450D01*
X82550Y-37650D01*
X84422Y-37650D01*
X84254Y-37817D01*
X84156Y-38053D01*
X84156Y-38309D01*
X84253Y-38546D01*
X84434Y-38727D01*
X84671Y-38825D01*
X84927Y-38826D01*
X85164Y-38728D01*
X85345Y-38547D01*
X85443Y-38310D01*
X85443Y-38054D01*
X85346Y-37818D01*
X85178Y-37650D01*
X85750Y-37650D01*
X85750Y-44550D01*
X85750Y-44550D01*
G37*
G54D28*
X85750Y-44550D02*
X85443Y-44550D01*
X85443Y-43566D01*
X85443Y-42188D01*
X85443Y-40810D01*
X85443Y-39432D01*
X85346Y-39196D01*
X85165Y-39014D01*
X84928Y-38916D01*
X84672Y-38916D01*
X84435Y-39014D01*
X84254Y-39195D01*
X84156Y-39431D01*
X84156Y-39687D01*
X84253Y-39924D01*
X84434Y-40105D01*
X84671Y-40203D01*
X84927Y-40204D01*
X85164Y-40106D01*
X85345Y-39925D01*
X85443Y-39688D01*
X85443Y-39432D01*
X85443Y-40810D01*
X85346Y-40574D01*
X85165Y-40392D01*
X84928Y-40294D01*
X84672Y-40294D01*
X84435Y-40392D01*
X84254Y-40573D01*
X84156Y-40809D01*
X84156Y-41065D01*
X84253Y-41302D01*
X84434Y-41483D01*
X84671Y-41581D01*
X84927Y-41582D01*
X85164Y-41484D01*
X85345Y-41303D01*
X85443Y-41066D01*
X85443Y-40810D01*
X85443Y-42188D01*
X85346Y-41951D01*
X85165Y-41770D01*
X84928Y-41672D01*
X84672Y-41672D01*
X84435Y-41770D01*
X84254Y-41951D01*
X84156Y-42187D01*
X84156Y-42443D01*
X84253Y-42680D01*
X84434Y-42861D01*
X84671Y-42959D01*
X84927Y-42959D01*
X85164Y-42862D01*
X85345Y-42681D01*
X85443Y-42444D01*
X85443Y-42188D01*
X85443Y-43566D01*
X85346Y-43329D01*
X85165Y-43148D01*
X84928Y-43050D01*
X84672Y-43050D01*
X84435Y-43148D01*
X84254Y-43328D01*
X84156Y-43565D01*
X84156Y-43821D01*
X84253Y-44058D01*
X84434Y-44239D01*
X84671Y-44337D01*
X84927Y-44337D01*
X85164Y-44240D01*
X85345Y-44059D01*
X85443Y-43822D01*
X85443Y-43566D01*
X85443Y-44550D01*
X85188Y-44550D01*
X85165Y-44526D01*
X84928Y-44428D01*
X84672Y-44428D01*
X84435Y-44526D01*
X84411Y-44550D01*
X81850Y-44550D01*
X81850Y-37930D01*
X81796Y-37802D01*
X81698Y-37703D01*
X81569Y-37650D01*
X81521Y-37650D01*
X81521Y-34723D01*
X81430Y-34503D01*
X81261Y-34334D01*
X81041Y-34242D01*
X80802Y-34242D01*
X80581Y-34333D01*
X80421Y-34493D01*
X80261Y-34334D01*
X80041Y-34242D01*
X79802Y-34242D01*
X79581Y-34333D01*
X79506Y-34408D01*
X79483Y-34351D01*
X79413Y-34280D01*
X79321Y-34242D01*
X79221Y-34242D01*
X78521Y-34242D01*
X78429Y-34280D01*
X78359Y-34350D01*
X78321Y-34442D01*
X78321Y-34542D01*
X78321Y-35242D01*
X78359Y-35333D01*
X78429Y-35404D01*
X78521Y-35442D01*
X78620Y-35442D01*
X79320Y-35442D01*
X79412Y-35404D01*
X79483Y-35334D01*
X79506Y-35276D01*
X79580Y-35350D01*
X79801Y-35442D01*
X80040Y-35442D01*
X80260Y-35351D01*
X80421Y-35191D01*
X80580Y-35350D01*
X80801Y-35442D01*
X81040Y-35442D01*
X81260Y-35351D01*
X81429Y-35182D01*
X81521Y-34962D01*
X81521Y-34723D01*
X81521Y-37650D01*
X81430Y-37649D01*
X81302Y-37703D01*
X81203Y-37801D01*
X81150Y-37930D01*
X81149Y-38069D01*
X81203Y-38198D01*
X81301Y-38296D01*
X81430Y-38349D01*
X81569Y-38350D01*
X81698Y-38296D01*
X81796Y-38198D01*
X81849Y-38069D01*
X81850Y-37930D01*
X81850Y-44550D01*
X80200Y-44550D01*
X80200Y-39541D01*
X80116Y-39338D01*
X79961Y-39184D01*
X79880Y-39150D01*
X79961Y-39116D01*
X80115Y-38961D01*
X80199Y-38759D01*
X80200Y-38541D01*
X80116Y-38338D01*
X79961Y-38184D01*
X79880Y-38150D01*
X79961Y-38116D01*
X80115Y-37961D01*
X80199Y-37759D01*
X80200Y-37541D01*
X80116Y-37338D01*
X79961Y-37184D01*
X79759Y-37100D01*
X79541Y-37099D01*
X79338Y-37183D01*
X79200Y-37322D01*
X79200Y-37300D01*
X79162Y-37208D01*
X79091Y-37138D01*
X78999Y-37100D01*
X78900Y-37099D01*
X78300Y-37099D01*
X78208Y-37137D01*
X78138Y-37208D01*
X78100Y-37300D01*
X78099Y-37399D01*
X78099Y-37999D01*
X78137Y-38091D01*
X78208Y-38161D01*
X78300Y-38199D01*
X78322Y-38199D01*
X78184Y-38338D01*
X78100Y-38540D01*
X78099Y-38758D01*
X78183Y-38961D01*
X78338Y-39115D01*
X78419Y-39149D01*
X78338Y-39183D01*
X78184Y-39338D01*
X78100Y-39540D01*
X78099Y-39758D01*
X78183Y-39961D01*
X78338Y-40115D01*
X78540Y-40199D01*
X78758Y-40200D01*
X78961Y-40116D01*
X79115Y-39961D01*
X79149Y-39880D01*
X79183Y-39961D01*
X79338Y-40115D01*
X79540Y-40199D01*
X79758Y-40200D01*
X79961Y-40116D01*
X80115Y-39961D01*
X80199Y-39759D01*
X80200Y-39541D01*
X80200Y-44550D01*
X77250Y-44550D01*
X77250Y-37230D01*
X77196Y-37102D01*
X77098Y-37003D01*
X76969Y-36950D01*
X76830Y-36949D01*
X76702Y-37003D01*
X76603Y-37101D01*
X76600Y-37109D01*
X76600Y-34723D01*
X76508Y-34503D01*
X76340Y-34334D01*
X76119Y-34242D01*
X75881Y-34242D01*
X75660Y-34333D01*
X75499Y-34493D01*
X75340Y-34334D01*
X75119Y-34242D01*
X74881Y-34242D01*
X74660Y-34333D01*
X74585Y-34408D01*
X74562Y-34351D01*
X74491Y-34280D01*
X74399Y-34242D01*
X74300Y-34242D01*
X73600Y-34242D01*
X73508Y-34280D01*
X73438Y-34350D01*
X73400Y-34442D01*
X73399Y-34542D01*
X73399Y-35242D01*
X73437Y-35333D01*
X73508Y-35404D01*
X73600Y-35442D01*
X73699Y-35442D01*
X74399Y-35442D01*
X74491Y-35404D01*
X74561Y-35334D01*
X74585Y-35276D01*
X74659Y-35350D01*
X74880Y-35442D01*
X75118Y-35442D01*
X75339Y-35351D01*
X75500Y-35191D01*
X75659Y-35350D01*
X75880Y-35442D01*
X76118Y-35442D01*
X76339Y-35351D01*
X76508Y-35182D01*
X76599Y-34962D01*
X76600Y-34723D01*
X76600Y-37109D01*
X76566Y-37190D01*
X76469Y-37150D01*
X76330Y-37149D01*
X76202Y-37203D01*
X76103Y-37301D01*
X76050Y-37430D01*
X76049Y-37569D01*
X76065Y-37606D01*
X75943Y-37727D01*
X75870Y-37904D01*
X75869Y-38095D01*
X75942Y-38271D01*
X76077Y-38406D01*
X76254Y-38479D01*
X76445Y-38480D01*
X76621Y-38407D01*
X76756Y-38272D01*
X76829Y-38095D01*
X76830Y-37904D01*
X76757Y-37728D01*
X76705Y-37676D01*
X76733Y-37609D01*
X76830Y-37649D01*
X76969Y-37650D01*
X77098Y-37596D01*
X77196Y-37498D01*
X77249Y-37369D01*
X77250Y-37230D01*
X77250Y-44550D01*
X75350Y-44550D01*
X75350Y-39430D01*
X75296Y-39302D01*
X75290Y-39295D01*
X75290Y-38130D01*
X75236Y-38002D01*
X75138Y-37903D01*
X75009Y-37850D01*
X74870Y-37849D01*
X74742Y-37903D01*
X74643Y-38001D01*
X74590Y-38130D01*
X74589Y-38269D01*
X74643Y-38398D01*
X74741Y-38496D01*
X74870Y-38549D01*
X75009Y-38550D01*
X75138Y-38496D01*
X75236Y-38398D01*
X75289Y-38269D01*
X75290Y-38130D01*
X75290Y-39295D01*
X75198Y-39203D01*
X75069Y-39150D01*
X74930Y-39149D01*
X74802Y-39203D01*
X74800Y-39205D01*
X74800Y-38680D01*
X74746Y-38552D01*
X74648Y-38453D01*
X74519Y-38400D01*
X74380Y-38399D01*
X74379Y-38400D01*
X74380Y-38254D01*
X74307Y-38078D01*
X74172Y-37943D01*
X73995Y-37870D01*
X73804Y-37869D01*
X73628Y-37942D01*
X73493Y-38077D01*
X73420Y-38254D01*
X73419Y-38445D01*
X73492Y-38621D01*
X73627Y-38756D01*
X73804Y-38829D01*
X73995Y-38830D01*
X74099Y-38786D01*
X74099Y-38819D01*
X74153Y-38948D01*
X74251Y-39046D01*
X74380Y-39099D01*
X74519Y-39100D01*
X74648Y-39046D01*
X74746Y-38948D01*
X74799Y-38819D01*
X74800Y-38680D01*
X74800Y-39205D01*
X74703Y-39301D01*
X74650Y-39430D01*
X74649Y-39569D01*
X74703Y-39698D01*
X74801Y-39796D01*
X74930Y-39849D01*
X75069Y-39850D01*
X75198Y-39796D01*
X75296Y-39698D01*
X75349Y-39569D01*
X75350Y-39430D01*
X75350Y-44550D01*
X74428Y-44550D01*
X74357Y-44378D01*
X74222Y-44243D01*
X74045Y-44170D01*
X73854Y-44169D01*
X73678Y-44242D01*
X73543Y-44377D01*
X73471Y-44550D01*
X72550Y-44550D01*
X72550Y-38680D01*
X72496Y-38552D01*
X72398Y-38453D01*
X72269Y-38400D01*
X72130Y-38399D01*
X72002Y-38453D01*
X71903Y-38551D01*
X71850Y-38680D01*
X71849Y-38819D01*
X71903Y-38948D01*
X72001Y-39046D01*
X72130Y-39099D01*
X72269Y-39100D01*
X72398Y-39046D01*
X72496Y-38948D01*
X72549Y-38819D01*
X72550Y-38680D01*
X72550Y-44550D01*
X71950Y-44550D01*
X71950Y-39330D01*
X71896Y-39202D01*
X71800Y-39105D01*
X71800Y-38380D01*
X71746Y-38252D01*
X71648Y-38153D01*
X71519Y-38100D01*
X71380Y-38099D01*
X71252Y-38153D01*
X71153Y-38251D01*
X71100Y-38380D01*
X71099Y-38519D01*
X71153Y-38648D01*
X71251Y-38746D01*
X71380Y-38799D01*
X71519Y-38800D01*
X71648Y-38746D01*
X71746Y-38648D01*
X71799Y-38519D01*
X71800Y-38380D01*
X71800Y-39105D01*
X71798Y-39103D01*
X71669Y-39050D01*
X71530Y-39049D01*
X71402Y-39103D01*
X71303Y-39201D01*
X71250Y-39330D01*
X71249Y-39469D01*
X71303Y-39598D01*
X71401Y-39696D01*
X71530Y-39749D01*
X71669Y-39750D01*
X71798Y-39696D01*
X71896Y-39598D01*
X71949Y-39469D01*
X71950Y-39330D01*
X71950Y-44550D01*
X71150Y-44550D01*
X71150Y-41030D01*
X71096Y-40902D01*
X70998Y-40803D01*
X70869Y-40750D01*
X70730Y-40749D01*
X70602Y-40803D01*
X70503Y-40901D01*
X70450Y-41030D01*
X70449Y-41169D01*
X70503Y-41298D01*
X70601Y-41396D01*
X70730Y-41449D01*
X70869Y-41450D01*
X70998Y-41396D01*
X71096Y-41298D01*
X71149Y-41169D01*
X71150Y-41030D01*
X71150Y-44550D01*
X70400Y-44550D01*
X70400Y-38280D01*
X70346Y-38152D01*
X70248Y-38053D01*
X70119Y-38000D01*
X69980Y-37999D01*
X69852Y-38053D01*
X69753Y-38151D01*
X69700Y-38280D01*
X69699Y-38419D01*
X69753Y-38548D01*
X69851Y-38646D01*
X69980Y-38699D01*
X70119Y-38700D01*
X70248Y-38646D01*
X70346Y-38548D01*
X70399Y-38419D01*
X70400Y-38280D01*
X70400Y-44550D01*
X67100Y-44550D01*
X67100Y-41680D01*
X67046Y-41552D01*
X66948Y-41453D01*
X66819Y-41400D01*
X66680Y-41399D01*
X66552Y-41453D01*
X66453Y-41551D01*
X66400Y-41680D01*
X66399Y-41819D01*
X66453Y-41948D01*
X66551Y-42046D01*
X66680Y-42099D01*
X66819Y-42100D01*
X66948Y-42046D01*
X67046Y-41948D01*
X67099Y-41819D01*
X67100Y-41680D01*
X67100Y-44550D01*
X66250Y-44550D01*
X66250Y-38030D01*
X66196Y-37902D01*
X66098Y-37803D01*
X65969Y-37750D01*
X65830Y-37749D01*
X65702Y-37803D01*
X65603Y-37901D01*
X65550Y-38030D01*
X65549Y-38169D01*
X65603Y-38298D01*
X65701Y-38396D01*
X65830Y-38449D01*
X65969Y-38450D01*
X66098Y-38396D01*
X66196Y-38298D01*
X66249Y-38169D01*
X66250Y-38030D01*
X66250Y-44550D01*
X65600Y-44550D01*
X65600Y-38580D01*
X65546Y-38452D01*
X65448Y-38353D01*
X65319Y-38300D01*
X65180Y-38299D01*
X65084Y-38339D01*
X64998Y-38253D01*
X64869Y-38200D01*
X64730Y-38199D01*
X64602Y-38253D01*
X64524Y-38329D01*
X64498Y-38303D01*
X64369Y-38250D01*
X64230Y-38249D01*
X64102Y-38303D01*
X64027Y-38377D01*
X63996Y-38302D01*
X63898Y-38203D01*
X63769Y-38150D01*
X63630Y-38149D01*
X63502Y-38203D01*
X63403Y-38301D01*
X63350Y-38430D01*
X63349Y-38569D01*
X63403Y-38698D01*
X63501Y-38796D01*
X63630Y-38849D01*
X63769Y-38850D01*
X63898Y-38796D01*
X63972Y-38722D01*
X64003Y-38798D01*
X64101Y-38896D01*
X64230Y-38949D01*
X64369Y-38950D01*
X64498Y-38896D01*
X64575Y-38820D01*
X64601Y-38846D01*
X64730Y-38899D01*
X64869Y-38900D01*
X64965Y-38860D01*
X65051Y-38946D01*
X65180Y-38999D01*
X65319Y-39000D01*
X65448Y-38946D01*
X65546Y-38848D01*
X65599Y-38719D01*
X65600Y-38580D01*
X65600Y-44550D01*
X65475Y-44550D01*
X65475Y-42530D01*
X65421Y-42402D01*
X65323Y-42303D01*
X65194Y-42250D01*
X65190Y-42250D01*
X65190Y-41830D01*
X65136Y-41702D01*
X65038Y-41603D01*
X64909Y-41550D01*
X64770Y-41549D01*
X64642Y-41603D01*
X64543Y-41701D01*
X64540Y-41709D01*
X64540Y-40480D01*
X64486Y-40352D01*
X64388Y-40253D01*
X64259Y-40200D01*
X64120Y-40199D01*
X63992Y-40253D01*
X63947Y-40297D01*
X63879Y-40270D01*
X63740Y-40269D01*
X63612Y-40323D01*
X63513Y-40421D01*
X63460Y-40550D01*
X63459Y-40689D01*
X63513Y-40818D01*
X63611Y-40916D01*
X63740Y-40969D01*
X63879Y-40970D01*
X64008Y-40916D01*
X64052Y-40872D01*
X64120Y-40899D01*
X64259Y-40900D01*
X64388Y-40846D01*
X64486Y-40748D01*
X64539Y-40619D01*
X64540Y-40480D01*
X64540Y-41709D01*
X64490Y-41830D01*
X64489Y-41969D01*
X64543Y-42098D01*
X64641Y-42196D01*
X64770Y-42249D01*
X64909Y-42250D01*
X65038Y-42196D01*
X65136Y-42098D01*
X65189Y-41969D01*
X65190Y-41830D01*
X65190Y-42250D01*
X65055Y-42249D01*
X64927Y-42303D01*
X64828Y-42401D01*
X64775Y-42530D01*
X64774Y-42669D01*
X64828Y-42798D01*
X64880Y-42850D01*
X64755Y-42849D01*
X64627Y-42903D01*
X64528Y-43001D01*
X64475Y-43130D01*
X64474Y-43269D01*
X64528Y-43398D01*
X64626Y-43496D01*
X64755Y-43549D01*
X64894Y-43550D01*
X65023Y-43496D01*
X65121Y-43398D01*
X65174Y-43269D01*
X65175Y-43130D01*
X65121Y-43002D01*
X65069Y-42949D01*
X65194Y-42950D01*
X65323Y-42896D01*
X65421Y-42798D01*
X65474Y-42669D01*
X65475Y-42530D01*
X65475Y-44550D01*
X62250Y-44550D01*
X62250Y-42530D01*
X62196Y-42402D01*
X62098Y-42303D01*
X61969Y-42250D01*
X61830Y-42249D01*
X61702Y-42303D01*
X61603Y-42401D01*
X61550Y-42530D01*
X61549Y-42669D01*
X61603Y-42798D01*
X61701Y-42896D01*
X61830Y-42949D01*
X61969Y-42950D01*
X62098Y-42896D01*
X62196Y-42798D01*
X62249Y-42669D01*
X62250Y-42530D01*
X62250Y-44550D01*
X61150Y-44550D01*
X61150Y-41080D01*
X61096Y-40952D01*
X60998Y-40853D01*
X60869Y-40800D01*
X60730Y-40799D01*
X60602Y-40853D01*
X60503Y-40951D01*
X60450Y-41080D01*
X60449Y-41219D01*
X60503Y-41348D01*
X60601Y-41446D01*
X60730Y-41499D01*
X60869Y-41500D01*
X60998Y-41446D01*
X61096Y-41348D01*
X61149Y-41219D01*
X61150Y-41080D01*
X61150Y-44550D01*
X60875Y-44550D01*
X60875Y-43380D01*
X60875Y-42655D01*
X60821Y-42527D01*
X60723Y-42428D01*
X60594Y-42375D01*
X60455Y-42374D01*
X60327Y-42428D01*
X60228Y-42526D01*
X60175Y-42655D01*
X60174Y-42794D01*
X60228Y-42923D01*
X60326Y-43021D01*
X60455Y-43074D01*
X60594Y-43075D01*
X60723Y-43021D01*
X60821Y-42923D01*
X60874Y-42794D01*
X60875Y-42655D01*
X60875Y-43380D01*
X60821Y-43252D01*
X60723Y-43153D01*
X60594Y-43100D01*
X60455Y-43099D01*
X60327Y-43153D01*
X60228Y-43251D01*
X60175Y-43380D01*
X60174Y-43519D01*
X60228Y-43648D01*
X60326Y-43746D01*
X60455Y-43799D01*
X60594Y-43800D01*
X60723Y-43746D01*
X60821Y-43648D01*
X60874Y-43519D01*
X60875Y-43380D01*
X60875Y-44550D01*
X59282Y-44550D01*
X59282Y-41280D01*
X59215Y-40945D01*
X59025Y-40661D01*
X58741Y-40471D01*
X58407Y-40405D01*
X58372Y-40405D01*
X58350Y-40409D01*
X58350Y-37880D01*
X58296Y-37752D01*
X58198Y-37653D01*
X58069Y-37600D01*
X57930Y-37599D01*
X57802Y-37653D01*
X57703Y-37751D01*
X57650Y-37880D01*
X57649Y-38019D01*
X57703Y-38148D01*
X57801Y-38246D01*
X57930Y-38299D01*
X58069Y-38300D01*
X58198Y-38246D01*
X58296Y-38148D01*
X58349Y-38019D01*
X58350Y-37880D01*
X58350Y-40409D01*
X58038Y-40471D01*
X57754Y-40661D01*
X57564Y-40945D01*
X57497Y-41280D01*
X57564Y-41614D01*
X57754Y-41898D01*
X58038Y-42088D01*
X58372Y-42155D01*
X58407Y-42155D01*
X58741Y-42088D01*
X59025Y-41898D01*
X59215Y-41614D01*
X59282Y-41280D01*
X59282Y-44550D01*
X55800Y-44550D01*
X55800Y-38580D01*
X55746Y-38452D01*
X55648Y-38353D01*
X55519Y-38300D01*
X55380Y-38299D01*
X55252Y-38353D01*
X55153Y-38451D01*
X55100Y-38580D01*
X55099Y-38719D01*
X55153Y-38848D01*
X55251Y-38946D01*
X55380Y-38999D01*
X55519Y-39000D01*
X55648Y-38946D01*
X55746Y-38848D01*
X55799Y-38719D01*
X55800Y-38580D01*
X55800Y-44550D01*
X54850Y-44550D01*
X54850Y-38080D01*
X54796Y-37952D01*
X54698Y-37853D01*
X54569Y-37800D01*
X54430Y-37799D01*
X54302Y-37853D01*
X54203Y-37951D01*
X54150Y-38080D01*
X54149Y-38219D01*
X54203Y-38348D01*
X54301Y-38446D01*
X54430Y-38499D01*
X54569Y-38500D01*
X54698Y-38446D01*
X54796Y-38348D01*
X54849Y-38219D01*
X54850Y-38080D01*
X54850Y-44550D01*
X52900Y-44550D01*
X52900Y-38155D01*
X52846Y-38027D01*
X52748Y-37928D01*
X52619Y-37875D01*
X52480Y-37874D01*
X52352Y-37928D01*
X52253Y-38026D01*
X52200Y-38155D01*
X52199Y-38294D01*
X52253Y-38423D01*
X52351Y-38521D01*
X52480Y-38574D01*
X52619Y-38575D01*
X52748Y-38521D01*
X52846Y-38423D01*
X52899Y-38294D01*
X52900Y-38155D01*
X52900Y-44550D01*
X49125Y-44550D01*
X49125Y-38955D01*
X49071Y-38827D01*
X48973Y-38728D01*
X48844Y-38675D01*
X48705Y-38674D01*
X48577Y-38728D01*
X48478Y-38826D01*
X48425Y-38955D01*
X48424Y-39094D01*
X48478Y-39223D01*
X48576Y-39321D01*
X48705Y-39374D01*
X48844Y-39375D01*
X48973Y-39321D01*
X49071Y-39223D01*
X49124Y-39094D01*
X49125Y-38955D01*
X49125Y-44550D01*
X46550Y-44550D01*
X46550Y-39905D01*
X46496Y-39777D01*
X46398Y-39678D01*
X46269Y-39625D01*
X46130Y-39624D01*
X46002Y-39678D01*
X45903Y-39776D01*
X45850Y-39905D01*
X45849Y-40044D01*
X45903Y-40173D01*
X46001Y-40271D01*
X46130Y-40324D01*
X46269Y-40325D01*
X46398Y-40271D01*
X46496Y-40173D01*
X46549Y-40044D01*
X46550Y-39905D01*
X46550Y-44550D01*
X45200Y-44550D01*
X45200Y-39780D01*
X45146Y-39652D01*
X45048Y-39553D01*
X44919Y-39500D01*
X44780Y-39499D01*
X44652Y-39553D01*
X44553Y-39651D01*
X44500Y-39780D01*
X44499Y-39919D01*
X44553Y-40048D01*
X44651Y-40146D01*
X44780Y-40199D01*
X44919Y-40200D01*
X45048Y-40146D01*
X45146Y-40048D01*
X45199Y-39919D01*
X45200Y-39780D01*
X45200Y-44550D01*
X38097Y-44550D01*
X38097Y-43183D01*
X38097Y-42909D01*
X38003Y-42711D01*
X37841Y-42565D01*
X37690Y-42502D01*
X37603Y-42550D01*
X37603Y-42996D01*
X38049Y-42996D01*
X38097Y-42909D01*
X38097Y-43183D01*
X38049Y-43096D01*
X37603Y-43096D01*
X37603Y-43542D01*
X37690Y-43590D01*
X37888Y-43496D01*
X38034Y-43334D01*
X38097Y-43183D01*
X38097Y-44550D01*
X36791Y-44550D01*
X36787Y-44547D01*
X36650Y-44519D01*
X36650Y-44519D01*
X36650Y-44442D01*
X36703Y-44388D01*
X36704Y-44389D01*
X36796Y-44427D01*
X36895Y-44427D01*
X36987Y-44389D01*
X37058Y-44319D01*
X37482Y-43895D01*
X37520Y-43803D01*
X37520Y-43704D01*
X37482Y-43612D01*
X37445Y-43574D01*
X37503Y-43542D01*
X37503Y-43167D01*
X37547Y-43122D01*
X37503Y-43078D01*
X37503Y-42996D01*
X37503Y-42550D01*
X37416Y-42502D01*
X37219Y-42596D01*
X37072Y-42758D01*
X37009Y-42909D01*
X37057Y-42996D01*
X37503Y-42996D01*
X37503Y-43078D01*
X37477Y-43052D01*
X37432Y-43096D01*
X37057Y-43096D01*
X37025Y-43154D01*
X36988Y-43117D01*
X36896Y-43079D01*
X36796Y-43079D01*
X36705Y-43117D01*
X36650Y-43172D01*
X36650Y-36650D01*
X37582Y-36650D01*
X37478Y-36692D01*
X37343Y-36827D01*
X37270Y-37004D01*
X37269Y-37195D01*
X37342Y-37371D01*
X37477Y-37506D01*
X37654Y-37579D01*
X37845Y-37580D01*
X38021Y-37507D01*
X38156Y-37372D01*
X38229Y-37195D01*
X38230Y-37004D01*
X38157Y-36828D01*
X38022Y-36693D01*
X37917Y-36650D01*
X38200Y-36650D01*
X71725Y-36455D01*
X71753Y-36523D01*
X71851Y-36621D01*
X71980Y-36674D01*
X72119Y-36675D01*
X72248Y-36621D01*
X72346Y-36523D01*
X72376Y-36451D01*
X72650Y-36449D01*
X72650Y-33450D01*
X82550Y-33450D01*
X82550Y-37650D01*
X84422Y-37650D01*
X84254Y-37817D01*
X84156Y-38053D01*
X84156Y-38309D01*
X84253Y-38546D01*
X84434Y-38727D01*
X84671Y-38825D01*
X84927Y-38826D01*
X85164Y-38728D01*
X85345Y-38547D01*
X85443Y-38310D01*
X85443Y-38054D01*
X85346Y-37818D01*
X85178Y-37650D01*
X85750Y-37650D01*
X85750Y-44550D01*
G54D10*
G36*
X85950Y-47549D02*
X85443Y-47540D01*
X85443Y-46794D01*
X85443Y-46006D01*
X85405Y-45914D01*
X85335Y-45844D01*
X85243Y-45806D01*
X85144Y-45806D01*
X84356Y-45806D01*
X84264Y-45844D01*
X84194Y-45914D01*
X84156Y-46006D01*
X84156Y-46105D01*
X84156Y-46893D01*
X84194Y-46985D01*
X84264Y-47055D01*
X84356Y-47093D01*
X84455Y-47093D01*
X85243Y-47093D01*
X85335Y-47055D01*
X85405Y-46985D01*
X85443Y-46893D01*
X85443Y-46794D01*
X85443Y-47540D01*
X74750Y-47349D01*
X74750Y-48750D01*
X64050Y-48750D01*
X64050Y-46230D01*
X63996Y-46102D01*
X63898Y-46003D01*
X63769Y-45950D01*
X63630Y-45949D01*
X63502Y-46003D01*
X63403Y-46101D01*
X63350Y-46230D01*
X63349Y-46369D01*
X63403Y-46498D01*
X63501Y-46596D01*
X63630Y-46649D01*
X63769Y-46650D01*
X63898Y-46596D01*
X63996Y-46498D01*
X64049Y-46369D01*
X64050Y-46230D01*
X64050Y-48750D01*
X63628Y-48750D01*
X63706Y-48672D01*
X63779Y-48495D01*
X63780Y-48304D01*
X63707Y-48128D01*
X63572Y-47993D01*
X63395Y-47920D01*
X63204Y-47919D01*
X63028Y-47992D01*
X62893Y-48127D01*
X62820Y-48304D01*
X62819Y-48495D01*
X62892Y-48671D01*
X62971Y-48750D01*
X61980Y-48750D01*
X61980Y-46604D01*
X61907Y-46428D01*
X61772Y-46293D01*
X61595Y-46220D01*
X61404Y-46219D01*
X61228Y-46292D01*
X61093Y-46427D01*
X61080Y-46459D01*
X61080Y-46404D01*
X61007Y-46228D01*
X60872Y-46093D01*
X60695Y-46020D01*
X60504Y-46019D01*
X60328Y-46092D01*
X60193Y-46227D01*
X60120Y-46404D01*
X60119Y-46595D01*
X60192Y-46771D01*
X60327Y-46906D01*
X60504Y-46979D01*
X60695Y-46980D01*
X60871Y-46907D01*
X61006Y-46772D01*
X61019Y-46740D01*
X61019Y-46795D01*
X61092Y-46971D01*
X61227Y-47106D01*
X61404Y-47179D01*
X61595Y-47180D01*
X61771Y-47107D01*
X61906Y-46972D01*
X61979Y-46795D01*
X61980Y-46604D01*
X61980Y-48750D01*
X48928Y-48750D01*
X48952Y-48714D01*
X48974Y-48600D01*
X48975Y-48600D01*
X48975Y-48429D01*
X48999Y-48369D01*
X49000Y-48230D01*
X48946Y-48102D01*
X48848Y-48003D01*
X48719Y-47950D01*
X48580Y-47949D01*
X48452Y-48003D01*
X48353Y-48101D01*
X48300Y-48230D01*
X48299Y-48369D01*
X48353Y-48497D01*
X48225Y-48625D01*
X47653Y-48625D01*
X47650Y-48621D01*
X47621Y-48578D01*
X47579Y-48550D01*
X47547Y-48518D01*
X47505Y-48500D01*
X47462Y-48472D01*
X47412Y-48462D01*
X47370Y-48445D01*
X47325Y-48445D01*
X47275Y-48435D01*
X38497Y-48435D01*
X38497Y-46690D01*
X38497Y-46416D01*
X38403Y-46219D01*
X38241Y-46072D01*
X38090Y-46009D01*
X38003Y-46057D01*
X38003Y-46503D01*
X38449Y-46503D01*
X38497Y-46416D01*
X38497Y-46690D01*
X38449Y-46603D01*
X38003Y-46603D01*
X38003Y-47049D01*
X38090Y-47097D01*
X38288Y-47003D01*
X38434Y-46841D01*
X38497Y-46690D01*
X38497Y-48435D01*
X37903Y-48435D01*
X37903Y-47049D01*
X37903Y-46603D01*
X37457Y-46603D01*
X37409Y-46690D01*
X37503Y-46888D01*
X37665Y-47034D01*
X37816Y-47097D01*
X37903Y-47049D01*
X37903Y-48435D01*
X37227Y-48435D01*
X37065Y-48272D01*
X37065Y-48000D01*
X37064Y-47999D01*
X37027Y-47812D01*
X36921Y-47653D01*
X36921Y-47653D01*
X36848Y-47580D01*
X36895Y-47580D01*
X37071Y-47507D01*
X37206Y-47372D01*
X37279Y-47195D01*
X37280Y-47004D01*
X37207Y-46828D01*
X37072Y-46693D01*
X36895Y-46620D01*
X36704Y-46619D01*
X36665Y-46636D01*
X36665Y-46275D01*
X36650Y-46199D01*
X36650Y-46199D01*
X36650Y-46027D01*
X36680Y-46058D01*
X37104Y-46482D01*
X37196Y-46520D01*
X37295Y-46520D01*
X37387Y-46482D01*
X37425Y-46445D01*
X37457Y-46503D01*
X37832Y-46503D01*
X37877Y-46547D01*
X37947Y-46477D01*
X37903Y-46432D01*
X37903Y-46057D01*
X37845Y-46025D01*
X37882Y-45988D01*
X37920Y-45896D01*
X37920Y-45796D01*
X37882Y-45705D01*
X37812Y-45634D01*
X37714Y-45536D01*
X37699Y-45458D01*
X37592Y-45299D01*
X37339Y-45047D01*
X56571Y-44969D01*
X56525Y-45080D01*
X56524Y-45219D01*
X56578Y-45348D01*
X56676Y-45446D01*
X56805Y-45499D01*
X56944Y-45500D01*
X57073Y-45446D01*
X57171Y-45348D01*
X57224Y-45219D01*
X57225Y-45080D01*
X57177Y-44966D01*
X73534Y-44900D01*
X73542Y-44921D01*
X73677Y-45056D01*
X73854Y-45129D01*
X74045Y-45130D01*
X74221Y-45057D01*
X74356Y-44922D01*
X74367Y-44897D01*
X84192Y-44857D01*
X84156Y-44943D01*
X84156Y-45199D01*
X84253Y-45436D01*
X84434Y-45617D01*
X84671Y-45715D01*
X84927Y-45715D01*
X85164Y-45618D01*
X85345Y-45437D01*
X85443Y-45200D01*
X85443Y-44944D01*
X85405Y-44852D01*
X85950Y-44850D01*
X85950Y-47549D01*
X85950Y-47549D01*
G37*
G54D28*
X85950Y-47549D02*
X85443Y-47540D01*
X85443Y-46794D01*
X85443Y-46006D01*
X85405Y-45914D01*
X85335Y-45844D01*
X85243Y-45806D01*
X85144Y-45806D01*
X84356Y-45806D01*
X84264Y-45844D01*
X84194Y-45914D01*
X84156Y-46006D01*
X84156Y-46105D01*
X84156Y-46893D01*
X84194Y-46985D01*
X84264Y-47055D01*
X84356Y-47093D01*
X84455Y-47093D01*
X85243Y-47093D01*
X85335Y-47055D01*
X85405Y-46985D01*
X85443Y-46893D01*
X85443Y-46794D01*
X85443Y-47540D01*
X74750Y-47349D01*
X74750Y-48750D01*
X64050Y-48750D01*
X64050Y-46230D01*
X63996Y-46102D01*
X63898Y-46003D01*
X63769Y-45950D01*
X63630Y-45949D01*
X63502Y-46003D01*
X63403Y-46101D01*
X63350Y-46230D01*
X63349Y-46369D01*
X63403Y-46498D01*
X63501Y-46596D01*
X63630Y-46649D01*
X63769Y-46650D01*
X63898Y-46596D01*
X63996Y-46498D01*
X64049Y-46369D01*
X64050Y-46230D01*
X64050Y-48750D01*
X63628Y-48750D01*
X63706Y-48672D01*
X63779Y-48495D01*
X63780Y-48304D01*
X63707Y-48128D01*
X63572Y-47993D01*
X63395Y-47920D01*
X63204Y-47919D01*
X63028Y-47992D01*
X62893Y-48127D01*
X62820Y-48304D01*
X62819Y-48495D01*
X62892Y-48671D01*
X62971Y-48750D01*
X61980Y-48750D01*
X61980Y-46604D01*
X61907Y-46428D01*
X61772Y-46293D01*
X61595Y-46220D01*
X61404Y-46219D01*
X61228Y-46292D01*
X61093Y-46427D01*
X61080Y-46459D01*
X61080Y-46404D01*
X61007Y-46228D01*
X60872Y-46093D01*
X60695Y-46020D01*
X60504Y-46019D01*
X60328Y-46092D01*
X60193Y-46227D01*
X60120Y-46404D01*
X60119Y-46595D01*
X60192Y-46771D01*
X60327Y-46906D01*
X60504Y-46979D01*
X60695Y-46980D01*
X60871Y-46907D01*
X61006Y-46772D01*
X61019Y-46740D01*
X61019Y-46795D01*
X61092Y-46971D01*
X61227Y-47106D01*
X61404Y-47179D01*
X61595Y-47180D01*
X61771Y-47107D01*
X61906Y-46972D01*
X61979Y-46795D01*
X61980Y-46604D01*
X61980Y-48750D01*
X48928Y-48750D01*
X48952Y-48714D01*
X48974Y-48600D01*
X48975Y-48600D01*
X48975Y-48429D01*
X48999Y-48369D01*
X49000Y-48230D01*
X48946Y-48102D01*
X48848Y-48003D01*
X48719Y-47950D01*
X48580Y-47949D01*
X48452Y-48003D01*
X48353Y-48101D01*
X48300Y-48230D01*
X48299Y-48369D01*
X48353Y-48497D01*
X48225Y-48625D01*
X47653Y-48625D01*
X47650Y-48621D01*
X47621Y-48578D01*
X47579Y-48550D01*
X47547Y-48518D01*
X47505Y-48500D01*
X47462Y-48472D01*
X47412Y-48462D01*
X47370Y-48445D01*
X47325Y-48445D01*
X47275Y-48435D01*
X38497Y-48435D01*
X38497Y-46690D01*
X38497Y-46416D01*
X38403Y-46219D01*
X38241Y-46072D01*
X38090Y-46009D01*
X38003Y-46057D01*
X38003Y-46503D01*
X38449Y-46503D01*
X38497Y-46416D01*
X38497Y-46690D01*
X38449Y-46603D01*
X38003Y-46603D01*
X38003Y-47049D01*
X38090Y-47097D01*
X38288Y-47003D01*
X38434Y-46841D01*
X38497Y-46690D01*
X38497Y-48435D01*
X37903Y-48435D01*
X37903Y-47049D01*
X37903Y-46603D01*
X37457Y-46603D01*
X37409Y-46690D01*
X37503Y-46888D01*
X37665Y-47034D01*
X37816Y-47097D01*
X37903Y-47049D01*
X37903Y-48435D01*
X37227Y-48435D01*
X37065Y-48272D01*
X37065Y-48000D01*
X37064Y-47999D01*
X37027Y-47812D01*
X36921Y-47653D01*
X36921Y-47653D01*
X36848Y-47580D01*
X36895Y-47580D01*
X37071Y-47507D01*
X37206Y-47372D01*
X37279Y-47195D01*
X37280Y-47004D01*
X37207Y-46828D01*
X37072Y-46693D01*
X36895Y-46620D01*
X36704Y-46619D01*
X36665Y-46636D01*
X36665Y-46275D01*
X36650Y-46199D01*
X36650Y-46199D01*
X36650Y-46027D01*
X36680Y-46058D01*
X37104Y-46482D01*
X37196Y-46520D01*
X37295Y-46520D01*
X37387Y-46482D01*
X37425Y-46445D01*
X37457Y-46503D01*
X37832Y-46503D01*
X37877Y-46547D01*
X37947Y-46477D01*
X37903Y-46432D01*
X37903Y-46057D01*
X37845Y-46025D01*
X37882Y-45988D01*
X37920Y-45896D01*
X37920Y-45796D01*
X37882Y-45705D01*
X37812Y-45634D01*
X37714Y-45536D01*
X37699Y-45458D01*
X37592Y-45299D01*
X37339Y-45047D01*
X56571Y-44969D01*
X56525Y-45080D01*
X56524Y-45219D01*
X56578Y-45348D01*
X56676Y-45446D01*
X56805Y-45499D01*
X56944Y-45500D01*
X57073Y-45446D01*
X57171Y-45348D01*
X57224Y-45219D01*
X57225Y-45080D01*
X57177Y-44966D01*
X73534Y-44900D01*
X73542Y-44921D01*
X73677Y-45056D01*
X73854Y-45129D01*
X74045Y-45130D01*
X74221Y-45057D01*
X74356Y-44922D01*
X74367Y-44897D01*
X84192Y-44857D01*
X84156Y-44943D01*
X84156Y-45199D01*
X84253Y-45436D01*
X84434Y-45617D01*
X84671Y-45715D01*
X84927Y-45715D01*
X85164Y-45618D01*
X85345Y-45437D01*
X85443Y-45200D01*
X85443Y-44944D01*
X85405Y-44852D01*
X85950Y-44850D01*
X85950Y-47549D01*
M02*
