G04 (created by PCBNEW (2013-03-19 BZR 4004)-stable) date 12/1/2013 9:17:45 PM*
%MOIN*%
G04 Gerber Fmt 3.4, Leading zero omitted, Abs format*
%FSLAX34Y34*%
G01*
G70*
G90*
G04 APERTURE LIST*
%ADD10C,0.006*%
%ADD11C,0.012*%
%ADD12C,0.005*%
%ADD13C,0.0075*%
%ADD14C,0.008*%
G04 APERTURE END LIST*
G54D10*
G54D11*
X58407Y-43328D02*
X58607Y-43328D01*
X58607Y-43642D02*
X58607Y-43042D01*
X58321Y-43042D01*
X58007Y-43642D02*
X58064Y-43614D01*
X58092Y-43585D01*
X58121Y-43528D01*
X58121Y-43357D01*
X58092Y-43300D01*
X58064Y-43271D01*
X58007Y-43242D01*
X57921Y-43242D01*
X57864Y-43271D01*
X57835Y-43300D01*
X57807Y-43357D01*
X57807Y-43528D01*
X57835Y-43585D01*
X57864Y-43614D01*
X57921Y-43642D01*
X58007Y-43642D01*
X57549Y-43642D02*
X57549Y-43242D01*
X57549Y-43357D02*
X57521Y-43300D01*
X57492Y-43271D01*
X57435Y-43242D01*
X57378Y-43242D01*
X56721Y-43642D02*
X56721Y-43242D01*
X56721Y-43300D02*
X56692Y-43271D01*
X56635Y-43242D01*
X56549Y-43242D01*
X56492Y-43271D01*
X56464Y-43328D01*
X56464Y-43642D01*
X56464Y-43328D02*
X56435Y-43271D01*
X56378Y-43242D01*
X56292Y-43242D01*
X56235Y-43271D01*
X56207Y-43328D01*
X56207Y-43642D01*
X55835Y-43642D02*
X55892Y-43614D01*
X55921Y-43585D01*
X55949Y-43528D01*
X55949Y-43357D01*
X55921Y-43300D01*
X55892Y-43271D01*
X55835Y-43242D01*
X55749Y-43242D01*
X55692Y-43271D01*
X55664Y-43300D01*
X55635Y-43357D01*
X55635Y-43528D01*
X55664Y-43585D01*
X55692Y-43614D01*
X55749Y-43642D01*
X55835Y-43642D01*
X55378Y-43642D02*
X55378Y-43242D01*
X55378Y-43357D02*
X55349Y-43300D01*
X55321Y-43271D01*
X55264Y-43242D01*
X55207Y-43242D01*
X54778Y-43614D02*
X54835Y-43642D01*
X54949Y-43642D01*
X55007Y-43614D01*
X55035Y-43557D01*
X55035Y-43328D01*
X55007Y-43271D01*
X54949Y-43242D01*
X54835Y-43242D01*
X54778Y-43271D01*
X54749Y-43328D01*
X54749Y-43385D01*
X55035Y-43442D01*
X54035Y-43642D02*
X54035Y-43242D01*
X54035Y-43042D02*
X54064Y-43071D01*
X54035Y-43100D01*
X54007Y-43071D01*
X54035Y-43042D01*
X54035Y-43100D01*
X53749Y-43242D02*
X53749Y-43642D01*
X53749Y-43300D02*
X53721Y-43271D01*
X53664Y-43242D01*
X53578Y-43242D01*
X53521Y-43271D01*
X53492Y-43328D01*
X53492Y-43642D01*
X53292Y-43242D02*
X53064Y-43242D01*
X53207Y-43642D02*
X53207Y-43128D01*
X53178Y-43071D01*
X53121Y-43042D01*
X53064Y-43042D01*
X52778Y-43642D02*
X52835Y-43614D01*
X52864Y-43585D01*
X52892Y-43528D01*
X52892Y-43357D01*
X52864Y-43300D01*
X52835Y-43271D01*
X52778Y-43242D01*
X52692Y-43242D01*
X52635Y-43271D01*
X52607Y-43300D01*
X52578Y-43357D01*
X52578Y-43528D01*
X52607Y-43585D01*
X52635Y-43614D01*
X52692Y-43642D01*
X52778Y-43642D01*
X52321Y-43642D02*
X52321Y-43242D01*
X52321Y-43357D02*
X52292Y-43300D01*
X52264Y-43271D01*
X52207Y-43242D01*
X52149Y-43242D01*
X51949Y-43642D02*
X51949Y-43242D01*
X51949Y-43300D02*
X51921Y-43271D01*
X51864Y-43242D01*
X51778Y-43242D01*
X51721Y-43271D01*
X51692Y-43328D01*
X51692Y-43642D01*
X51692Y-43328D02*
X51664Y-43271D01*
X51607Y-43242D01*
X51521Y-43242D01*
X51464Y-43271D01*
X51435Y-43328D01*
X51435Y-43642D01*
X50892Y-43642D02*
X50892Y-43328D01*
X50921Y-43271D01*
X50978Y-43242D01*
X51092Y-43242D01*
X51149Y-43271D01*
X50892Y-43614D02*
X50949Y-43642D01*
X51092Y-43642D01*
X51149Y-43614D01*
X51178Y-43557D01*
X51178Y-43500D01*
X51149Y-43442D01*
X51092Y-43414D01*
X50949Y-43414D01*
X50892Y-43385D01*
X50692Y-43242D02*
X50464Y-43242D01*
X50607Y-43042D02*
X50607Y-43557D01*
X50578Y-43614D01*
X50521Y-43642D01*
X50464Y-43642D01*
X50264Y-43642D02*
X50264Y-43242D01*
X50264Y-43042D02*
X50292Y-43071D01*
X50264Y-43100D01*
X50235Y-43071D01*
X50264Y-43042D01*
X50264Y-43100D01*
X49892Y-43642D02*
X49949Y-43614D01*
X49978Y-43585D01*
X50007Y-43528D01*
X50007Y-43357D01*
X49978Y-43300D01*
X49949Y-43271D01*
X49892Y-43242D01*
X49807Y-43242D01*
X49749Y-43271D01*
X49721Y-43300D01*
X49692Y-43357D01*
X49692Y-43528D01*
X49721Y-43585D01*
X49749Y-43614D01*
X49807Y-43642D01*
X49892Y-43642D01*
X49435Y-43242D02*
X49435Y-43642D01*
X49435Y-43300D02*
X49407Y-43271D01*
X49349Y-43242D01*
X49264Y-43242D01*
X49207Y-43271D01*
X49178Y-43328D01*
X49178Y-43642D01*
X48864Y-43614D02*
X48864Y-43642D01*
X48892Y-43700D01*
X48921Y-43728D01*
X48207Y-43242D02*
X48064Y-43642D01*
X47921Y-43242D01*
X47692Y-43642D02*
X47692Y-43242D01*
X47692Y-43042D02*
X47721Y-43071D01*
X47692Y-43100D01*
X47664Y-43071D01*
X47692Y-43042D01*
X47692Y-43100D01*
X47435Y-43614D02*
X47378Y-43642D01*
X47264Y-43642D01*
X47207Y-43614D01*
X47178Y-43557D01*
X47178Y-43528D01*
X47207Y-43471D01*
X47264Y-43442D01*
X47349Y-43442D01*
X47407Y-43414D01*
X47435Y-43357D01*
X47435Y-43328D01*
X47407Y-43271D01*
X47349Y-43242D01*
X47264Y-43242D01*
X47207Y-43271D01*
X46921Y-43642D02*
X46921Y-43242D01*
X46921Y-43042D02*
X46949Y-43071D01*
X46921Y-43100D01*
X46892Y-43071D01*
X46921Y-43042D01*
X46921Y-43100D01*
X46721Y-43242D02*
X46492Y-43242D01*
X46635Y-43042D02*
X46635Y-43557D01*
X46607Y-43614D01*
X46550Y-43642D01*
X46492Y-43642D01*
X46292Y-43585D02*
X46264Y-43614D01*
X46292Y-43642D01*
X46321Y-43614D01*
X46292Y-43585D01*
X46292Y-43642D01*
X46292Y-43271D02*
X46264Y-43300D01*
X46292Y-43328D01*
X46321Y-43300D01*
X46292Y-43271D01*
X46292Y-43328D01*
X64992Y-44602D02*
X64992Y-44002D01*
X64735Y-44602D02*
X64735Y-44288D01*
X64764Y-44231D01*
X64821Y-44202D01*
X64907Y-44202D01*
X64964Y-44231D01*
X64992Y-44260D01*
X64535Y-44202D02*
X64307Y-44202D01*
X64449Y-44002D02*
X64449Y-44517D01*
X64421Y-44574D01*
X64364Y-44602D01*
X64307Y-44602D01*
X64192Y-44202D02*
X63964Y-44202D01*
X64107Y-44002D02*
X64107Y-44517D01*
X64078Y-44574D01*
X64021Y-44602D01*
X63964Y-44602D01*
X63764Y-44202D02*
X63764Y-44802D01*
X63764Y-44231D02*
X63707Y-44202D01*
X63592Y-44202D01*
X63535Y-44231D01*
X63507Y-44260D01*
X63478Y-44317D01*
X63478Y-44488D01*
X63507Y-44545D01*
X63535Y-44574D01*
X63592Y-44602D01*
X63707Y-44602D01*
X63764Y-44574D01*
X63249Y-44574D02*
X63192Y-44602D01*
X63078Y-44602D01*
X63021Y-44574D01*
X62992Y-44517D01*
X62992Y-44488D01*
X63021Y-44431D01*
X63078Y-44402D01*
X63164Y-44402D01*
X63221Y-44374D01*
X63249Y-44317D01*
X63249Y-44288D01*
X63221Y-44231D01*
X63164Y-44202D01*
X63078Y-44202D01*
X63021Y-44231D01*
X62735Y-44545D02*
X62707Y-44574D01*
X62735Y-44602D01*
X62764Y-44574D01*
X62735Y-44545D01*
X62735Y-44602D01*
X62735Y-44231D02*
X62707Y-44260D01*
X62735Y-44288D01*
X62764Y-44260D01*
X62735Y-44231D01*
X62735Y-44288D01*
X62021Y-43974D02*
X62535Y-44745D01*
X61392Y-43974D02*
X61907Y-44745D01*
X60878Y-44031D02*
X60935Y-44002D01*
X61021Y-44002D01*
X61107Y-44031D01*
X61164Y-44088D01*
X61192Y-44145D01*
X61221Y-44260D01*
X61221Y-44345D01*
X61192Y-44460D01*
X61164Y-44517D01*
X61107Y-44574D01*
X61021Y-44602D01*
X60964Y-44602D01*
X60878Y-44574D01*
X60850Y-44545D01*
X60850Y-44345D01*
X60964Y-44345D01*
X60592Y-44602D02*
X60592Y-44202D01*
X60592Y-44002D02*
X60621Y-44031D01*
X60592Y-44060D01*
X60564Y-44031D01*
X60592Y-44002D01*
X60592Y-44060D01*
X60392Y-44202D02*
X60164Y-44202D01*
X60307Y-44002D02*
X60307Y-44517D01*
X60278Y-44574D01*
X60221Y-44602D01*
X60164Y-44602D01*
X59964Y-44602D02*
X59964Y-44002D01*
X59964Y-44288D02*
X59621Y-44288D01*
X59621Y-44602D02*
X59621Y-44002D01*
X59078Y-44202D02*
X59078Y-44602D01*
X59335Y-44202D02*
X59335Y-44517D01*
X59307Y-44574D01*
X59250Y-44602D01*
X59164Y-44602D01*
X59107Y-44574D01*
X59078Y-44545D01*
X58792Y-44602D02*
X58792Y-44002D01*
X58792Y-44231D02*
X58735Y-44202D01*
X58621Y-44202D01*
X58564Y-44231D01*
X58535Y-44260D01*
X58507Y-44317D01*
X58507Y-44488D01*
X58535Y-44545D01*
X58564Y-44574D01*
X58621Y-44602D01*
X58735Y-44602D01*
X58792Y-44574D01*
X58250Y-44545D02*
X58221Y-44574D01*
X58250Y-44602D01*
X58278Y-44574D01*
X58250Y-44545D01*
X58250Y-44602D01*
X57707Y-44574D02*
X57764Y-44602D01*
X57878Y-44602D01*
X57935Y-44574D01*
X57964Y-44545D01*
X57992Y-44488D01*
X57992Y-44317D01*
X57964Y-44260D01*
X57935Y-44231D01*
X57878Y-44202D01*
X57764Y-44202D01*
X57707Y-44231D01*
X57364Y-44602D02*
X57421Y-44574D01*
X57450Y-44545D01*
X57478Y-44488D01*
X57478Y-44317D01*
X57450Y-44260D01*
X57421Y-44231D01*
X57364Y-44202D01*
X57278Y-44202D01*
X57221Y-44231D01*
X57192Y-44260D01*
X57164Y-44317D01*
X57164Y-44488D01*
X57192Y-44545D01*
X57221Y-44574D01*
X57278Y-44602D01*
X57364Y-44602D01*
X56907Y-44602D02*
X56907Y-44202D01*
X56907Y-44260D02*
X56878Y-44231D01*
X56821Y-44202D01*
X56735Y-44202D01*
X56678Y-44231D01*
X56650Y-44288D01*
X56650Y-44602D01*
X56650Y-44288D02*
X56621Y-44231D01*
X56564Y-44202D01*
X56478Y-44202D01*
X56421Y-44231D01*
X56392Y-44288D01*
X56392Y-44602D01*
X55678Y-43974D02*
X56192Y-44745D01*
X55135Y-44545D02*
X55164Y-44574D01*
X55250Y-44602D01*
X55307Y-44602D01*
X55392Y-44574D01*
X55450Y-44517D01*
X55478Y-44460D01*
X55507Y-44345D01*
X55507Y-44260D01*
X55478Y-44145D01*
X55450Y-44088D01*
X55392Y-44031D01*
X55307Y-44002D01*
X55250Y-44002D01*
X55164Y-44031D01*
X55135Y-44060D01*
X54792Y-44602D02*
X54850Y-44574D01*
X54878Y-44545D01*
X54907Y-44488D01*
X54907Y-44317D01*
X54878Y-44260D01*
X54850Y-44231D01*
X54792Y-44202D01*
X54707Y-44202D01*
X54650Y-44231D01*
X54621Y-44260D01*
X54592Y-44317D01*
X54592Y-44488D01*
X54621Y-44545D01*
X54650Y-44574D01*
X54707Y-44602D01*
X54792Y-44602D01*
X54335Y-44202D02*
X54335Y-44602D01*
X54335Y-44260D02*
X54307Y-44231D01*
X54250Y-44202D01*
X54164Y-44202D01*
X54107Y-44231D01*
X54078Y-44288D01*
X54078Y-44602D01*
X53878Y-44202D02*
X53650Y-44202D01*
X53792Y-44002D02*
X53792Y-44517D01*
X53764Y-44574D01*
X53707Y-44602D01*
X53650Y-44602D01*
X53221Y-44574D02*
X53278Y-44602D01*
X53392Y-44602D01*
X53450Y-44574D01*
X53478Y-44517D01*
X53478Y-44288D01*
X53450Y-44231D01*
X53392Y-44202D01*
X53278Y-44202D01*
X53221Y-44231D01*
X53192Y-44288D01*
X53192Y-44345D01*
X53478Y-44402D01*
X52992Y-44602D02*
X52678Y-44202D01*
X52992Y-44202D02*
X52678Y-44602D01*
X52535Y-44202D02*
X52307Y-44202D01*
X52450Y-44002D02*
X52450Y-44517D01*
X52421Y-44574D01*
X52364Y-44602D01*
X52307Y-44602D01*
X51850Y-44202D02*
X51850Y-44602D01*
X52107Y-44202D02*
X52107Y-44517D01*
X52078Y-44574D01*
X52021Y-44602D01*
X51935Y-44602D01*
X51878Y-44574D01*
X51850Y-44545D01*
X51307Y-44602D02*
X51307Y-44288D01*
X51335Y-44231D01*
X51392Y-44202D01*
X51507Y-44202D01*
X51564Y-44231D01*
X51307Y-44574D02*
X51364Y-44602D01*
X51507Y-44602D01*
X51564Y-44574D01*
X51592Y-44517D01*
X51592Y-44460D01*
X51564Y-44402D01*
X51507Y-44374D01*
X51364Y-44374D01*
X51307Y-44345D01*
X50935Y-44602D02*
X50992Y-44574D01*
X51021Y-44517D01*
X51021Y-44002D01*
X50707Y-44288D02*
X50507Y-44288D01*
X50421Y-44602D02*
X50707Y-44602D01*
X50707Y-44002D01*
X50421Y-44002D01*
X50078Y-44602D02*
X50135Y-44574D01*
X50164Y-44517D01*
X50164Y-44002D01*
X49621Y-44574D02*
X49678Y-44602D01*
X49792Y-44602D01*
X49850Y-44574D01*
X49878Y-44517D01*
X49878Y-44288D01*
X49850Y-44231D01*
X49792Y-44202D01*
X49678Y-44202D01*
X49621Y-44231D01*
X49592Y-44288D01*
X49592Y-44345D01*
X49878Y-44402D01*
X49078Y-44574D02*
X49135Y-44602D01*
X49250Y-44602D01*
X49307Y-44574D01*
X49335Y-44545D01*
X49364Y-44488D01*
X49364Y-44317D01*
X49335Y-44260D01*
X49307Y-44231D01*
X49250Y-44202D01*
X49135Y-44202D01*
X49078Y-44231D01*
X48907Y-44202D02*
X48678Y-44202D01*
X48821Y-44002D02*
X48821Y-44517D01*
X48792Y-44574D01*
X48735Y-44602D01*
X48678Y-44602D01*
X48478Y-44602D02*
X48478Y-44202D01*
X48478Y-44317D02*
X48450Y-44260D01*
X48421Y-44231D01*
X48364Y-44202D01*
X48307Y-44202D01*
X48021Y-44602D02*
X48078Y-44574D01*
X48107Y-44545D01*
X48135Y-44488D01*
X48135Y-44317D01*
X48107Y-44260D01*
X48078Y-44231D01*
X48021Y-44202D01*
X47935Y-44202D01*
X47878Y-44231D01*
X47850Y-44260D01*
X47821Y-44317D01*
X47821Y-44488D01*
X47850Y-44545D01*
X47878Y-44574D01*
X47935Y-44602D01*
X48021Y-44602D01*
X47564Y-44202D02*
X47564Y-44602D01*
X47564Y-44260D02*
X47535Y-44231D01*
X47478Y-44202D01*
X47392Y-44202D01*
X47335Y-44231D01*
X47307Y-44288D01*
X47307Y-44602D01*
X47021Y-44602D02*
X47021Y-44202D01*
X47021Y-44002D02*
X47050Y-44031D01*
X47021Y-44060D01*
X46992Y-44031D01*
X47021Y-44002D01*
X47021Y-44060D01*
X46478Y-44574D02*
X46535Y-44602D01*
X46650Y-44602D01*
X46707Y-44574D01*
X46735Y-44545D01*
X46764Y-44488D01*
X46764Y-44317D01*
X46735Y-44260D01*
X46707Y-44231D01*
X46650Y-44202D01*
X46535Y-44202D01*
X46478Y-44231D01*
X46250Y-44574D02*
X46192Y-44602D01*
X46078Y-44602D01*
X46021Y-44574D01*
X45992Y-44517D01*
X45992Y-44488D01*
X46021Y-44431D01*
X46078Y-44402D01*
X46164Y-44402D01*
X46221Y-44374D01*
X46250Y-44317D01*
X46250Y-44288D01*
X46221Y-44231D01*
X46164Y-44202D01*
X46078Y-44202D01*
X46021Y-44231D01*
X45307Y-43974D02*
X45821Y-44745D01*
X44907Y-44288D02*
X44821Y-44317D01*
X44792Y-44345D01*
X44764Y-44402D01*
X44764Y-44488D01*
X44792Y-44545D01*
X44821Y-44574D01*
X44878Y-44602D01*
X45107Y-44602D01*
X45107Y-44002D01*
X44907Y-44002D01*
X44850Y-44031D01*
X44821Y-44060D01*
X44792Y-44117D01*
X44792Y-44174D01*
X44821Y-44231D01*
X44850Y-44260D01*
X44907Y-44288D01*
X45107Y-44288D01*
X44278Y-44574D02*
X44335Y-44602D01*
X44450Y-44602D01*
X44507Y-44574D01*
X44535Y-44517D01*
X44535Y-44288D01*
X44507Y-44231D01*
X44450Y-44202D01*
X44335Y-44202D01*
X44278Y-44231D01*
X44250Y-44288D01*
X44250Y-44345D01*
X44535Y-44402D01*
X43992Y-44202D02*
X43992Y-44602D01*
X43992Y-44260D02*
X43964Y-44231D01*
X43907Y-44202D01*
X43821Y-44202D01*
X43764Y-44231D01*
X43735Y-44288D01*
X43735Y-44602D01*
X43192Y-44574D02*
X43250Y-44602D01*
X43364Y-44602D01*
X43421Y-44574D01*
X43450Y-44545D01*
X43478Y-44488D01*
X43478Y-44317D01*
X43450Y-44260D01*
X43421Y-44231D01*
X43364Y-44202D01*
X43250Y-44202D01*
X43192Y-44231D01*
X42935Y-44602D02*
X42935Y-44002D01*
X42678Y-44602D02*
X42678Y-44288D01*
X42707Y-44231D01*
X42764Y-44202D01*
X42850Y-44202D01*
X42907Y-44231D01*
X42935Y-44260D01*
X42192Y-44288D02*
X42107Y-44317D01*
X42078Y-44345D01*
X42050Y-44402D01*
X42050Y-44488D01*
X42078Y-44545D01*
X42107Y-44574D01*
X42164Y-44602D01*
X42392Y-44602D01*
X42392Y-44002D01*
X42192Y-44002D01*
X42135Y-44031D01*
X42107Y-44060D01*
X42078Y-44117D01*
X42078Y-44174D01*
X42107Y-44231D01*
X42135Y-44260D01*
X42192Y-44288D01*
X42392Y-44288D01*
X41535Y-44202D02*
X41535Y-44602D01*
X41792Y-44202D02*
X41792Y-44517D01*
X41764Y-44574D01*
X41707Y-44602D01*
X41621Y-44602D01*
X41564Y-44574D01*
X41535Y-44545D01*
X40992Y-44602D02*
X40992Y-44002D01*
X40992Y-44574D02*
X41050Y-44602D01*
X41164Y-44602D01*
X41221Y-44574D01*
X41250Y-44545D01*
X41278Y-44488D01*
X41278Y-44317D01*
X41250Y-44260D01*
X41221Y-44231D01*
X41164Y-44202D01*
X41050Y-44202D01*
X40992Y-44231D01*
X40707Y-44288D02*
X40507Y-44288D01*
X40421Y-44602D02*
X40707Y-44602D01*
X40707Y-44002D01*
X40421Y-44002D01*
X40164Y-44288D02*
X39964Y-44288D01*
X39878Y-44602D02*
X40164Y-44602D01*
X40164Y-44002D01*
X39878Y-44002D01*
X60507Y-45562D02*
X60564Y-45534D01*
X60592Y-45505D01*
X60621Y-45448D01*
X60621Y-45277D01*
X60592Y-45220D01*
X60564Y-45191D01*
X60507Y-45162D01*
X60421Y-45162D01*
X60364Y-45191D01*
X60335Y-45220D01*
X60307Y-45277D01*
X60307Y-45448D01*
X60335Y-45505D01*
X60364Y-45534D01*
X60421Y-45562D01*
X60507Y-45562D01*
X60049Y-45562D02*
X60049Y-45162D01*
X60049Y-45277D02*
X60021Y-45220D01*
X59992Y-45191D01*
X59935Y-45162D01*
X59878Y-45162D01*
X59221Y-45562D02*
X59221Y-44962D01*
X58964Y-45562D02*
X58964Y-45248D01*
X58992Y-45191D01*
X59049Y-45162D01*
X59135Y-45162D01*
X59192Y-45191D01*
X59221Y-45220D01*
X58764Y-45162D02*
X58535Y-45162D01*
X58678Y-44962D02*
X58678Y-45477D01*
X58649Y-45534D01*
X58592Y-45562D01*
X58535Y-45562D01*
X58421Y-45162D02*
X58192Y-45162D01*
X58335Y-44962D02*
X58335Y-45477D01*
X58307Y-45534D01*
X58249Y-45562D01*
X58192Y-45562D01*
X57992Y-45162D02*
X57992Y-45762D01*
X57992Y-45191D02*
X57935Y-45162D01*
X57821Y-45162D01*
X57764Y-45191D01*
X57735Y-45220D01*
X57707Y-45277D01*
X57707Y-45448D01*
X57735Y-45505D01*
X57764Y-45534D01*
X57821Y-45562D01*
X57935Y-45562D01*
X57992Y-45534D01*
X57449Y-45505D02*
X57421Y-45534D01*
X57449Y-45562D01*
X57478Y-45534D01*
X57449Y-45505D01*
X57449Y-45562D01*
X57449Y-45191D02*
X57421Y-45220D01*
X57449Y-45248D01*
X57478Y-45220D01*
X57449Y-45191D01*
X57449Y-45248D01*
X56735Y-44934D02*
X57249Y-45705D01*
X56107Y-44934D02*
X56621Y-45705D01*
X55564Y-45505D02*
X55592Y-45534D01*
X55678Y-45562D01*
X55735Y-45562D01*
X55821Y-45534D01*
X55878Y-45477D01*
X55907Y-45420D01*
X55935Y-45305D01*
X55935Y-45220D01*
X55907Y-45105D01*
X55878Y-45048D01*
X55821Y-44991D01*
X55735Y-44962D01*
X55678Y-44962D01*
X55592Y-44991D01*
X55564Y-45020D01*
X55221Y-45562D02*
X55278Y-45534D01*
X55307Y-45505D01*
X55335Y-45448D01*
X55335Y-45277D01*
X55307Y-45220D01*
X55278Y-45191D01*
X55221Y-45162D01*
X55135Y-45162D01*
X55078Y-45191D01*
X55050Y-45220D01*
X55021Y-45277D01*
X55021Y-45448D01*
X55050Y-45505D01*
X55078Y-45534D01*
X55135Y-45562D01*
X55221Y-45562D01*
X54764Y-45162D02*
X54764Y-45562D01*
X54764Y-45220D02*
X54735Y-45191D01*
X54678Y-45162D01*
X54592Y-45162D01*
X54535Y-45191D01*
X54507Y-45248D01*
X54507Y-45562D01*
X54307Y-45162D02*
X54078Y-45162D01*
X54221Y-44962D02*
X54221Y-45477D01*
X54192Y-45534D01*
X54135Y-45562D01*
X54078Y-45562D01*
X53650Y-45534D02*
X53707Y-45562D01*
X53821Y-45562D01*
X53878Y-45534D01*
X53907Y-45477D01*
X53907Y-45248D01*
X53878Y-45191D01*
X53821Y-45162D01*
X53707Y-45162D01*
X53650Y-45191D01*
X53621Y-45248D01*
X53621Y-45305D01*
X53907Y-45362D01*
X53421Y-45562D02*
X53107Y-45162D01*
X53421Y-45162D02*
X53107Y-45562D01*
X52964Y-45162D02*
X52735Y-45162D01*
X52878Y-44962D02*
X52878Y-45477D01*
X52850Y-45534D01*
X52792Y-45562D01*
X52735Y-45562D01*
X52278Y-45162D02*
X52278Y-45562D01*
X52535Y-45162D02*
X52535Y-45477D01*
X52507Y-45534D01*
X52450Y-45562D01*
X52364Y-45562D01*
X52307Y-45534D01*
X52278Y-45505D01*
X51735Y-45562D02*
X51735Y-45248D01*
X51764Y-45191D01*
X51821Y-45162D01*
X51935Y-45162D01*
X51992Y-45191D01*
X51735Y-45534D02*
X51792Y-45562D01*
X51935Y-45562D01*
X51992Y-45534D01*
X52021Y-45477D01*
X52021Y-45420D01*
X51992Y-45362D01*
X51935Y-45334D01*
X51792Y-45334D01*
X51735Y-45305D01*
X51364Y-45562D02*
X51421Y-45534D01*
X51450Y-45477D01*
X51450Y-44962D01*
X51135Y-45248D02*
X50935Y-45248D01*
X50850Y-45562D02*
X51135Y-45562D01*
X51135Y-44962D01*
X50850Y-44962D01*
X50507Y-45562D02*
X50564Y-45534D01*
X50592Y-45477D01*
X50592Y-44962D01*
X50050Y-45534D02*
X50107Y-45562D01*
X50221Y-45562D01*
X50278Y-45534D01*
X50307Y-45477D01*
X50307Y-45248D01*
X50278Y-45191D01*
X50221Y-45162D01*
X50107Y-45162D01*
X50050Y-45191D01*
X50021Y-45248D01*
X50021Y-45305D01*
X50307Y-45362D01*
X49507Y-45534D02*
X49564Y-45562D01*
X49678Y-45562D01*
X49735Y-45534D01*
X49764Y-45505D01*
X49792Y-45448D01*
X49792Y-45277D01*
X49764Y-45220D01*
X49735Y-45191D01*
X49678Y-45162D01*
X49564Y-45162D01*
X49507Y-45191D01*
X49335Y-45162D02*
X49107Y-45162D01*
X49250Y-44962D02*
X49250Y-45477D01*
X49221Y-45534D01*
X49164Y-45562D01*
X49107Y-45562D01*
X48907Y-45562D02*
X48907Y-45162D01*
X48907Y-45277D02*
X48878Y-45220D01*
X48850Y-45191D01*
X48792Y-45162D01*
X48735Y-45162D01*
X48450Y-45562D02*
X48507Y-45534D01*
X48535Y-45505D01*
X48564Y-45448D01*
X48564Y-45277D01*
X48535Y-45220D01*
X48507Y-45191D01*
X48450Y-45162D01*
X48364Y-45162D01*
X48307Y-45191D01*
X48278Y-45220D01*
X48250Y-45277D01*
X48250Y-45448D01*
X48278Y-45505D01*
X48307Y-45534D01*
X48364Y-45562D01*
X48450Y-45562D01*
X47992Y-45162D02*
X47992Y-45562D01*
X47992Y-45220D02*
X47964Y-45191D01*
X47907Y-45162D01*
X47821Y-45162D01*
X47764Y-45191D01*
X47735Y-45248D01*
X47735Y-45562D01*
X47450Y-45562D02*
X47450Y-45162D01*
X47450Y-44962D02*
X47478Y-44991D01*
X47450Y-45020D01*
X47421Y-44991D01*
X47450Y-44962D01*
X47450Y-45020D01*
X46907Y-45534D02*
X46964Y-45562D01*
X47078Y-45562D01*
X47135Y-45534D01*
X47164Y-45505D01*
X47192Y-45448D01*
X47192Y-45277D01*
X47164Y-45220D01*
X47135Y-45191D01*
X47078Y-45162D01*
X46964Y-45162D01*
X46907Y-45191D01*
X46678Y-45534D02*
X46621Y-45562D01*
X46507Y-45562D01*
X46450Y-45534D01*
X46421Y-45477D01*
X46421Y-45448D01*
X46450Y-45391D01*
X46507Y-45362D01*
X46592Y-45362D01*
X46650Y-45334D01*
X46678Y-45277D01*
X46678Y-45248D01*
X46650Y-45191D01*
X46592Y-45162D01*
X46507Y-45162D01*
X46450Y-45191D01*
X46164Y-45505D02*
X46135Y-45534D01*
X46164Y-45562D01*
X46192Y-45534D01*
X46164Y-45505D01*
X46164Y-45562D01*
X45621Y-45534D02*
X45678Y-45562D01*
X45792Y-45562D01*
X45850Y-45534D01*
X45878Y-45505D01*
X45907Y-45448D01*
X45907Y-45277D01*
X45878Y-45220D01*
X45850Y-45191D01*
X45792Y-45162D01*
X45678Y-45162D01*
X45621Y-45191D01*
X45278Y-45562D02*
X45335Y-45534D01*
X45364Y-45505D01*
X45392Y-45448D01*
X45392Y-45277D01*
X45364Y-45220D01*
X45335Y-45191D01*
X45278Y-45162D01*
X45192Y-45162D01*
X45135Y-45191D01*
X45107Y-45220D01*
X45078Y-45277D01*
X45078Y-45448D01*
X45107Y-45505D01*
X45135Y-45534D01*
X45192Y-45562D01*
X45278Y-45562D01*
X44821Y-45562D02*
X44821Y-45162D01*
X44821Y-45220D02*
X44792Y-45191D01*
X44735Y-45162D01*
X44650Y-45162D01*
X44592Y-45191D01*
X44564Y-45248D01*
X44564Y-45562D01*
X44564Y-45248D02*
X44535Y-45191D01*
X44478Y-45162D01*
X44392Y-45162D01*
X44335Y-45191D01*
X44307Y-45248D01*
X44307Y-45562D01*
G54D12*
X73650Y-53400D02*
X73650Y-54600D01*
X73650Y-54600D02*
X73950Y-54600D01*
X73950Y-54600D02*
X73950Y-53400D01*
X73950Y-53400D02*
X73650Y-53400D01*
X62100Y-53900D02*
G75*
G03X62100Y-53900I-50J0D01*
G74*
G01*
X62500Y-53900D02*
X62100Y-53900D01*
X62100Y-53900D02*
X62100Y-54500D01*
X62100Y-54500D02*
X62500Y-54500D01*
X62900Y-54500D02*
X63300Y-54500D01*
X63300Y-54500D02*
X63300Y-53900D01*
X63300Y-53900D02*
X62900Y-53900D01*
X71625Y-49925D02*
G75*
G03X71625Y-49925I-50J0D01*
G74*
G01*
X71125Y-49925D02*
X71525Y-49925D01*
X71525Y-49925D02*
X71525Y-49325D01*
X71525Y-49325D02*
X71125Y-49325D01*
X70725Y-49325D02*
X70325Y-49325D01*
X70325Y-49325D02*
X70325Y-49925D01*
X70325Y-49925D02*
X70725Y-49925D01*
X70400Y-54000D02*
G75*
G03X70400Y-54000I-50J0D01*
G74*
G01*
X70800Y-54000D02*
X70400Y-54000D01*
X70400Y-54000D02*
X70400Y-54600D01*
X70400Y-54600D02*
X70800Y-54600D01*
X71200Y-54600D02*
X71600Y-54600D01*
X71600Y-54600D02*
X71600Y-54000D01*
X71600Y-54000D02*
X71200Y-54000D01*
G54D10*
X82050Y-39000D02*
X82850Y-39000D01*
X82850Y-39000D02*
X82850Y-39500D01*
X82850Y-39500D02*
X82050Y-39500D01*
X82050Y-39500D02*
X82050Y-39000D01*
G54D12*
X71100Y-37850D02*
X71100Y-38750D01*
X71100Y-38750D02*
X70450Y-38750D01*
X69750Y-37850D02*
X69100Y-37850D01*
X69100Y-37850D02*
X69100Y-38750D01*
X69100Y-38750D02*
X69750Y-38750D01*
X70450Y-37850D02*
X71100Y-37850D01*
X66250Y-38800D02*
X66250Y-37900D01*
X66250Y-37900D02*
X66900Y-37900D01*
X67600Y-38800D02*
X68250Y-38800D01*
X68250Y-38800D02*
X68250Y-37900D01*
X68250Y-37900D02*
X67600Y-37900D01*
X66900Y-38800D02*
X66250Y-38800D01*
X69050Y-39900D02*
X69050Y-39000D01*
X69050Y-39000D02*
X69700Y-39000D01*
X70400Y-39900D02*
X71050Y-39900D01*
X71050Y-39900D02*
X71050Y-39000D01*
X71050Y-39000D02*
X70400Y-39000D01*
X69700Y-39900D02*
X69050Y-39900D01*
X73000Y-41400D02*
X73000Y-40500D01*
X73000Y-40500D02*
X73650Y-40500D01*
X74350Y-41400D02*
X75000Y-41400D01*
X75000Y-41400D02*
X75000Y-40500D01*
X75000Y-40500D02*
X74350Y-40500D01*
X73650Y-41400D02*
X73000Y-41400D01*
X78100Y-40550D02*
G75*
G03X78100Y-40550I-50J0D01*
G74*
G01*
X77600Y-40550D02*
X78000Y-40550D01*
X78000Y-40550D02*
X78000Y-39950D01*
X78000Y-39950D02*
X77600Y-39950D01*
X77200Y-39950D02*
X76800Y-39950D01*
X76800Y-39950D02*
X76800Y-40550D01*
X76800Y-40550D02*
X77200Y-40550D01*
X67200Y-39650D02*
G75*
G03X67200Y-39650I-50J0D01*
G74*
G01*
X66700Y-39650D02*
X67100Y-39650D01*
X67100Y-39650D02*
X67100Y-39050D01*
X67100Y-39050D02*
X66700Y-39050D01*
X66300Y-39050D02*
X65900Y-39050D01*
X65900Y-39050D02*
X65900Y-39650D01*
X65900Y-39650D02*
X66300Y-39650D01*
X64300Y-39650D02*
G75*
G03X64300Y-39650I-50J0D01*
G74*
G01*
X63800Y-39650D02*
X64200Y-39650D01*
X64200Y-39650D02*
X64200Y-39050D01*
X64200Y-39050D02*
X63800Y-39050D01*
X63400Y-39050D02*
X63000Y-39050D01*
X63000Y-39050D02*
X63000Y-39650D01*
X63000Y-39650D02*
X63400Y-39650D01*
X76100Y-39600D02*
G75*
G03X76100Y-39600I-50J0D01*
G74*
G01*
X76050Y-39150D02*
X76050Y-39550D01*
X76050Y-39550D02*
X76650Y-39550D01*
X76650Y-39550D02*
X76650Y-39150D01*
X76650Y-38750D02*
X76650Y-38350D01*
X76650Y-38350D02*
X76050Y-38350D01*
X76050Y-38350D02*
X76050Y-38750D01*
X74300Y-36800D02*
G75*
G03X74300Y-36800I-50J0D01*
G74*
G01*
X74250Y-37250D02*
X74250Y-36850D01*
X74250Y-36850D02*
X73650Y-36850D01*
X73650Y-36850D02*
X73650Y-37250D01*
X73650Y-37650D02*
X73650Y-38050D01*
X73650Y-38050D02*
X74250Y-38050D01*
X74250Y-38050D02*
X74250Y-37650D01*
X81850Y-37700D02*
G75*
G03X81850Y-37700I-50J0D01*
G74*
G01*
X82250Y-37700D02*
X81850Y-37700D01*
X81850Y-37700D02*
X81850Y-38300D01*
X81850Y-38300D02*
X82250Y-38300D01*
X82650Y-38300D02*
X83050Y-38300D01*
X83050Y-38300D02*
X83050Y-37700D01*
X83050Y-37700D02*
X82650Y-37700D01*
X78200Y-39450D02*
G75*
G03X78200Y-39450I-50J0D01*
G74*
G01*
X77700Y-39450D02*
X78100Y-39450D01*
X78100Y-39450D02*
X78100Y-38850D01*
X78100Y-38850D02*
X77700Y-38850D01*
X77300Y-38850D02*
X76900Y-38850D01*
X76900Y-38850D02*
X76900Y-39450D01*
X76900Y-39450D02*
X77300Y-39450D01*
X76550Y-41400D02*
G75*
G03X76550Y-41400I-50J0D01*
G74*
G01*
X76050Y-41400D02*
X76450Y-41400D01*
X76450Y-41400D02*
X76450Y-40800D01*
X76450Y-40800D02*
X76050Y-40800D01*
X75650Y-40800D02*
X75250Y-40800D01*
X75250Y-40800D02*
X75250Y-41400D01*
X75250Y-41400D02*
X75650Y-41400D01*
X78150Y-38450D02*
G75*
G03X78150Y-38450I-50J0D01*
G74*
G01*
X77650Y-38450D02*
X78050Y-38450D01*
X78050Y-38450D02*
X78050Y-37850D01*
X78050Y-37850D02*
X77650Y-37850D01*
X77250Y-37850D02*
X76850Y-37850D01*
X76850Y-37850D02*
X76850Y-38450D01*
X76850Y-38450D02*
X77250Y-38450D01*
X69250Y-41000D02*
G75*
G03X69250Y-41000I-50J0D01*
G74*
G01*
X69650Y-41000D02*
X69250Y-41000D01*
X69250Y-41000D02*
X69250Y-41600D01*
X69250Y-41600D02*
X69650Y-41600D01*
X70050Y-41600D02*
X70450Y-41600D01*
X70450Y-41600D02*
X70450Y-41000D01*
X70450Y-41000D02*
X70050Y-41000D01*
X66650Y-37650D02*
G75*
G03X66650Y-37650I-50J0D01*
G74*
G01*
X66150Y-37650D02*
X66550Y-37650D01*
X66550Y-37650D02*
X66550Y-37050D01*
X66550Y-37050D02*
X66150Y-37050D01*
X65750Y-37050D02*
X65350Y-37050D01*
X65350Y-37050D02*
X65350Y-37650D01*
X65350Y-37650D02*
X65750Y-37650D01*
X50475Y-48150D02*
G75*
G03X50475Y-48150I-50J0D01*
G74*
G01*
X49975Y-48150D02*
X50375Y-48150D01*
X50375Y-48150D02*
X50375Y-47550D01*
X50375Y-47550D02*
X49975Y-47550D01*
X49575Y-47550D02*
X49175Y-47550D01*
X49175Y-47550D02*
X49175Y-48150D01*
X49175Y-48150D02*
X49575Y-48150D01*
X72150Y-37100D02*
X70950Y-37100D01*
X70950Y-37100D02*
X70950Y-37400D01*
X70950Y-37400D02*
X72150Y-37400D01*
X72150Y-37400D02*
X72150Y-37100D01*
X82320Y-45550D02*
G75*
G03X82320Y-45550I-70J0D01*
G74*
G01*
X82300Y-43650D02*
X82300Y-43000D01*
X82300Y-43000D02*
X83900Y-43000D01*
X83900Y-43000D02*
X83900Y-43650D01*
X83900Y-44850D02*
X83900Y-45500D01*
X83900Y-45500D02*
X82300Y-45500D01*
X82300Y-45500D02*
X82300Y-44850D01*
X74600Y-44900D02*
G75*
G03X74600Y-44900I-50J0D01*
G74*
G01*
X74550Y-44450D02*
X74550Y-44850D01*
X74550Y-44850D02*
X75150Y-44850D01*
X75150Y-44850D02*
X75150Y-44450D01*
X75150Y-44050D02*
X75150Y-43650D01*
X75150Y-43650D02*
X74550Y-43650D01*
X74550Y-43650D02*
X74550Y-44050D01*
X62425Y-43675D02*
G75*
G03X62425Y-43675I-50J0D01*
G74*
G01*
X62375Y-43225D02*
X62375Y-43625D01*
X62375Y-43625D02*
X62975Y-43625D01*
X62975Y-43625D02*
X62975Y-43225D01*
X62975Y-42825D02*
X62975Y-42425D01*
X62975Y-42425D02*
X62375Y-42425D01*
X62375Y-42425D02*
X62375Y-42825D01*
X25720Y-31000D02*
G75*
G03X25720Y-31000I-70J0D01*
G74*
G01*
X27550Y-31050D02*
X28200Y-31050D01*
X28200Y-31050D02*
X28200Y-32650D01*
X28200Y-32650D02*
X27550Y-32650D01*
X26350Y-32650D02*
X25700Y-32650D01*
X25700Y-32650D02*
X25700Y-31050D01*
X25700Y-31050D02*
X26350Y-31050D01*
X32870Y-50150D02*
G75*
G03X32870Y-50150I-70J0D01*
G74*
G01*
X32850Y-48250D02*
X32850Y-47600D01*
X32850Y-47600D02*
X34450Y-47600D01*
X34450Y-47600D02*
X34450Y-48250D01*
X34450Y-49450D02*
X34450Y-50100D01*
X34450Y-50100D02*
X32850Y-50100D01*
X32850Y-50100D02*
X32850Y-49450D01*
X29570Y-51750D02*
G75*
G03X29570Y-51750I-70J0D01*
G74*
G01*
X31400Y-51800D02*
X32050Y-51800D01*
X32050Y-51800D02*
X32050Y-53400D01*
X32050Y-53400D02*
X31400Y-53400D01*
X30200Y-53400D02*
X29550Y-53400D01*
X29550Y-53400D02*
X29550Y-51800D01*
X29550Y-51800D02*
X30200Y-51800D01*
X29770Y-44625D02*
G75*
G03X29770Y-44625I-70J0D01*
G74*
G01*
X29750Y-42725D02*
X29750Y-42075D01*
X29750Y-42075D02*
X31350Y-42075D01*
X31350Y-42075D02*
X31350Y-42725D01*
X31350Y-43925D02*
X31350Y-44575D01*
X31350Y-44575D02*
X29750Y-44575D01*
X29750Y-44575D02*
X29750Y-43925D01*
X32520Y-45550D02*
G75*
G03X32520Y-45550I-70J0D01*
G74*
G01*
X32500Y-44050D02*
X32500Y-43300D01*
X32500Y-43300D02*
X33700Y-43300D01*
X33700Y-43300D02*
X33700Y-44050D01*
X33700Y-44700D02*
X33700Y-45500D01*
X33700Y-45500D02*
X32500Y-45500D01*
X32500Y-45500D02*
X32500Y-44700D01*
X70450Y-34950D02*
G75*
G03X70450Y-34950I-50J0D01*
G74*
G01*
X70400Y-35400D02*
X70400Y-35000D01*
X70400Y-35000D02*
X69800Y-35000D01*
X69800Y-35000D02*
X69800Y-35400D01*
X69800Y-35800D02*
X69800Y-36200D01*
X69800Y-36200D02*
X70400Y-36200D01*
X70400Y-36200D02*
X70400Y-35800D01*
X69650Y-34950D02*
G75*
G03X69650Y-34950I-50J0D01*
G74*
G01*
X69600Y-35400D02*
X69600Y-35000D01*
X69600Y-35000D02*
X69000Y-35000D01*
X69000Y-35000D02*
X69000Y-35400D01*
X69000Y-35800D02*
X69000Y-36200D01*
X69000Y-36200D02*
X69600Y-36200D01*
X69600Y-36200D02*
X69600Y-35800D01*
X62450Y-34750D02*
G75*
G03X62450Y-34750I-50J0D01*
G74*
G01*
X62400Y-35200D02*
X62400Y-34800D01*
X62400Y-34800D02*
X61800Y-34800D01*
X61800Y-34800D02*
X61800Y-35200D01*
X61800Y-35600D02*
X61800Y-36000D01*
X61800Y-36000D02*
X62400Y-36000D01*
X62400Y-36000D02*
X62400Y-35600D01*
X61650Y-34750D02*
G75*
G03X61650Y-34750I-50J0D01*
G74*
G01*
X61600Y-35200D02*
X61600Y-34800D01*
X61600Y-34800D02*
X61000Y-34800D01*
X61000Y-34800D02*
X61000Y-35200D01*
X61000Y-35600D02*
X61000Y-36000D01*
X61000Y-36000D02*
X61600Y-36000D01*
X61600Y-36000D02*
X61600Y-35600D01*
X82250Y-33750D02*
G75*
G03X82250Y-33750I-50J0D01*
G74*
G01*
X82200Y-34200D02*
X82200Y-33800D01*
X82200Y-33800D02*
X81600Y-33800D01*
X81600Y-33800D02*
X81600Y-34200D01*
X81600Y-34600D02*
X81600Y-35000D01*
X81600Y-35000D02*
X82200Y-35000D01*
X82200Y-35000D02*
X82200Y-34600D01*
X73250Y-34350D02*
G75*
G03X73250Y-34350I-50J0D01*
G74*
G01*
X73200Y-34800D02*
X73200Y-34400D01*
X73200Y-34400D02*
X72600Y-34400D01*
X72600Y-34400D02*
X72600Y-34800D01*
X72600Y-35200D02*
X72600Y-35600D01*
X72600Y-35600D02*
X73200Y-35600D01*
X73200Y-35600D02*
X73200Y-35200D01*
X78100Y-33400D02*
G75*
G03X78100Y-33400I-50J0D01*
G74*
G01*
X78500Y-33400D02*
X78100Y-33400D01*
X78100Y-33400D02*
X78100Y-34000D01*
X78100Y-34000D02*
X78500Y-34000D01*
X78900Y-34000D02*
X79300Y-34000D01*
X79300Y-34000D02*
X79300Y-33400D01*
X79300Y-33400D02*
X78900Y-33400D01*
X76250Y-33400D02*
G75*
G03X76250Y-33400I-50J0D01*
G74*
G01*
X76650Y-33400D02*
X76250Y-33400D01*
X76250Y-33400D02*
X76250Y-34000D01*
X76250Y-34000D02*
X76650Y-34000D01*
X77050Y-34000D02*
X77450Y-34000D01*
X77450Y-34000D02*
X77450Y-33400D01*
X77450Y-33400D02*
X77050Y-33400D01*
X68850Y-34950D02*
G75*
G03X68850Y-34950I-50J0D01*
G74*
G01*
X68800Y-35400D02*
X68800Y-35000D01*
X68800Y-35000D02*
X68200Y-35000D01*
X68200Y-35000D02*
X68200Y-35400D01*
X68200Y-35800D02*
X68200Y-36200D01*
X68200Y-36200D02*
X68800Y-36200D01*
X68800Y-36200D02*
X68800Y-35800D01*
X63250Y-34750D02*
G75*
G03X63250Y-34750I-50J0D01*
G74*
G01*
X63200Y-35200D02*
X63200Y-34800D01*
X63200Y-34800D02*
X62600Y-34800D01*
X62600Y-34800D02*
X62600Y-35200D01*
X62600Y-35600D02*
X62600Y-36000D01*
X62600Y-36000D02*
X63200Y-36000D01*
X63200Y-36000D02*
X63200Y-35600D01*
X75200Y-36200D02*
G75*
G03X75200Y-36200I-50J0D01*
G74*
G01*
X74700Y-36200D02*
X75100Y-36200D01*
X75100Y-36200D02*
X75100Y-35600D01*
X75100Y-35600D02*
X74700Y-35600D01*
X74300Y-35600D02*
X73900Y-35600D01*
X73900Y-35600D02*
X73900Y-36200D01*
X73900Y-36200D02*
X74300Y-36200D01*
X79600Y-33400D02*
G75*
G03X79600Y-33400I-50J0D01*
G74*
G01*
X80000Y-33400D02*
X79600Y-33400D01*
X79600Y-33400D02*
X79600Y-34000D01*
X79600Y-34000D02*
X80000Y-34000D01*
X80400Y-34000D02*
X80800Y-34000D01*
X80800Y-34000D02*
X80800Y-33400D01*
X80800Y-33400D02*
X80400Y-33400D01*
X77800Y-35250D02*
G75*
G03X77800Y-35250I-50J0D01*
G74*
G01*
X77750Y-35700D02*
X77750Y-35300D01*
X77750Y-35300D02*
X77150Y-35300D01*
X77150Y-35300D02*
X77150Y-35700D01*
X77150Y-36100D02*
X77150Y-36500D01*
X77150Y-36500D02*
X77750Y-36500D01*
X77750Y-36500D02*
X77750Y-36100D01*
X41650Y-33275D02*
G75*
G03X41650Y-33275I-50J0D01*
G74*
G01*
X41150Y-33275D02*
X41550Y-33275D01*
X41550Y-33275D02*
X41550Y-32675D01*
X41550Y-32675D02*
X41150Y-32675D01*
X40750Y-32675D02*
X40350Y-32675D01*
X40350Y-32675D02*
X40350Y-33275D01*
X40350Y-33275D02*
X40750Y-33275D01*
X39750Y-33275D02*
G75*
G03X39750Y-33275I-50J0D01*
G74*
G01*
X39250Y-33275D02*
X39650Y-33275D01*
X39650Y-33275D02*
X39650Y-32675D01*
X39650Y-32675D02*
X39250Y-32675D01*
X38850Y-32675D02*
X38450Y-32675D01*
X38450Y-32675D02*
X38450Y-33275D01*
X38450Y-33275D02*
X38850Y-33275D01*
X38450Y-31900D02*
G75*
G03X38450Y-31900I-50J0D01*
G74*
G01*
X38850Y-31900D02*
X38450Y-31900D01*
X38450Y-31900D02*
X38450Y-32500D01*
X38450Y-32500D02*
X38850Y-32500D01*
X39250Y-32500D02*
X39650Y-32500D01*
X39650Y-32500D02*
X39650Y-31900D01*
X39650Y-31900D02*
X39250Y-31900D01*
X40325Y-31875D02*
G75*
G03X40325Y-31875I-50J0D01*
G74*
G01*
X40725Y-31875D02*
X40325Y-31875D01*
X40325Y-31875D02*
X40325Y-32475D01*
X40325Y-32475D02*
X40725Y-32475D01*
X41125Y-32475D02*
X41525Y-32475D01*
X41525Y-32475D02*
X41525Y-31875D01*
X41525Y-31875D02*
X41125Y-31875D01*
X76250Y-36800D02*
X76250Y-35600D01*
X76250Y-35600D02*
X75950Y-35600D01*
X75950Y-35600D02*
X75950Y-36800D01*
X75950Y-36800D02*
X76250Y-36800D01*
X68550Y-32100D02*
X68550Y-33300D01*
X68550Y-33300D02*
X68850Y-33300D01*
X68850Y-33300D02*
X68850Y-32100D01*
X68850Y-32100D02*
X68550Y-32100D01*
X71100Y-32450D02*
X69900Y-32450D01*
X69900Y-32450D02*
X69900Y-32750D01*
X69900Y-32750D02*
X71100Y-32750D01*
X71100Y-32750D02*
X71100Y-32450D01*
X73350Y-34200D02*
X73350Y-33000D01*
X73350Y-33000D02*
X73050Y-33000D01*
X73050Y-33000D02*
X73050Y-34200D01*
X73050Y-34200D02*
X73350Y-34200D01*
X79700Y-36000D02*
X78500Y-36000D01*
X78500Y-36000D02*
X78500Y-36300D01*
X78500Y-36300D02*
X79700Y-36300D01*
X79700Y-36300D02*
X79700Y-36000D01*
X81350Y-36000D02*
X80150Y-36000D01*
X80150Y-36000D02*
X80150Y-36300D01*
X80150Y-36300D02*
X81350Y-36300D01*
X81350Y-36300D02*
X81350Y-36000D01*
X60850Y-33300D02*
X60850Y-32100D01*
X60850Y-32100D02*
X60550Y-32100D01*
X60550Y-32100D02*
X60550Y-33300D01*
X60550Y-33300D02*
X60850Y-33300D01*
X62850Y-32100D02*
X62850Y-33300D01*
X62850Y-33300D02*
X63150Y-33300D01*
X63150Y-33300D02*
X63150Y-32100D01*
X63150Y-32100D02*
X62850Y-32100D01*
X61050Y-46850D02*
G75*
G03X61050Y-46850I-50J0D01*
G74*
G01*
X61000Y-47300D02*
X61000Y-46900D01*
X61000Y-46900D02*
X60400Y-46900D01*
X60400Y-46900D02*
X60400Y-47300D01*
X60400Y-47700D02*
X60400Y-48100D01*
X60400Y-48100D02*
X61000Y-48100D01*
X61000Y-48100D02*
X61000Y-47700D01*
X85150Y-47750D02*
G75*
G03X85150Y-47750I-50J0D01*
G74*
G01*
X84650Y-47750D02*
X85050Y-47750D01*
X85050Y-47750D02*
X85050Y-47150D01*
X85050Y-47150D02*
X84650Y-47150D01*
X84250Y-47150D02*
X83850Y-47150D01*
X83850Y-47150D02*
X83850Y-47750D01*
X83850Y-47750D02*
X84250Y-47750D01*
X65250Y-46050D02*
G75*
G03X65250Y-46050I-50J0D01*
G74*
G01*
X65200Y-46500D02*
X65200Y-46100D01*
X65200Y-46100D02*
X64600Y-46100D01*
X64600Y-46100D02*
X64600Y-46500D01*
X64600Y-46900D02*
X64600Y-47300D01*
X64600Y-47300D02*
X65200Y-47300D01*
X65200Y-47300D02*
X65200Y-46900D01*
X65750Y-39650D02*
G75*
G03X65750Y-39650I-50J0D01*
G74*
G01*
X65250Y-39650D02*
X65650Y-39650D01*
X65650Y-39650D02*
X65650Y-39050D01*
X65650Y-39050D02*
X65250Y-39050D01*
X64850Y-39050D02*
X64450Y-39050D01*
X64450Y-39050D02*
X64450Y-39650D01*
X64450Y-39650D02*
X64850Y-39650D01*
X52175Y-37400D02*
G75*
G03X52175Y-37400I-50J0D01*
G74*
G01*
X52125Y-36950D02*
X52125Y-37350D01*
X52125Y-37350D02*
X52725Y-37350D01*
X52725Y-37350D02*
X52725Y-36950D01*
X52725Y-36550D02*
X52725Y-36150D01*
X52725Y-36150D02*
X52125Y-36150D01*
X52125Y-36150D02*
X52125Y-36550D01*
X51200Y-37750D02*
G75*
G03X51200Y-37750I-50J0D01*
G74*
G01*
X51150Y-37300D02*
X51150Y-37700D01*
X51150Y-37700D02*
X51750Y-37700D01*
X51750Y-37700D02*
X51750Y-37300D01*
X51750Y-36900D02*
X51750Y-36500D01*
X51750Y-36500D02*
X51150Y-36500D01*
X51150Y-36500D02*
X51150Y-36900D01*
X48500Y-38650D02*
G75*
G03X48500Y-38650I-50J0D01*
G74*
G01*
X48450Y-38200D02*
X48450Y-38600D01*
X48450Y-38600D02*
X49050Y-38600D01*
X49050Y-38600D02*
X49050Y-38200D01*
X49050Y-37800D02*
X49050Y-37400D01*
X49050Y-37400D02*
X48450Y-37400D01*
X48450Y-37400D02*
X48450Y-37800D01*
X47550Y-38100D02*
G75*
G03X47550Y-38100I-50J0D01*
G74*
G01*
X47500Y-37650D02*
X47500Y-38050D01*
X47500Y-38050D02*
X48100Y-38050D01*
X48100Y-38050D02*
X48100Y-37650D01*
X48100Y-37250D02*
X48100Y-36850D01*
X48100Y-36850D02*
X47500Y-36850D01*
X47500Y-36850D02*
X47500Y-37250D01*
X45500Y-37900D02*
G75*
G03X45500Y-37900I-50J0D01*
G74*
G01*
X45450Y-37450D02*
X45450Y-37850D01*
X45450Y-37850D02*
X46050Y-37850D01*
X46050Y-37850D02*
X46050Y-37450D01*
X46050Y-37050D02*
X46050Y-36650D01*
X46050Y-36650D02*
X45450Y-36650D01*
X45450Y-36650D02*
X45450Y-37050D01*
X44575Y-38525D02*
G75*
G03X44575Y-38525I-50J0D01*
G74*
G01*
X44525Y-38075D02*
X44525Y-38475D01*
X44525Y-38475D02*
X45125Y-38475D01*
X45125Y-38475D02*
X45125Y-38075D01*
X45125Y-37675D02*
X45125Y-37275D01*
X45125Y-37275D02*
X44525Y-37275D01*
X44525Y-37275D02*
X44525Y-37675D01*
X84030Y-30470D02*
G75*
G03X84030Y-30470I-70J0D01*
G74*
G01*
X82810Y-31120D02*
X82810Y-30520D01*
X82810Y-30520D02*
X83910Y-30520D01*
X83910Y-30520D02*
X83910Y-31120D01*
X83910Y-31720D02*
X83910Y-32320D01*
X83910Y-32320D02*
X82810Y-32320D01*
X82810Y-32320D02*
X82810Y-31720D01*
X84320Y-33580D02*
G75*
G03X84320Y-33580I-70J0D01*
G74*
G01*
X83600Y-32430D02*
X84200Y-32430D01*
X84200Y-32430D02*
X84200Y-33530D01*
X84200Y-33530D02*
X83600Y-33530D01*
X83000Y-33530D02*
X82400Y-33530D01*
X82400Y-33530D02*
X82400Y-32430D01*
X82400Y-32430D02*
X83000Y-32430D01*
X84280Y-34980D02*
G75*
G03X84280Y-34980I-70J0D01*
G74*
G01*
X83560Y-33830D02*
X84160Y-33830D01*
X84160Y-33830D02*
X84160Y-34930D01*
X84160Y-34930D02*
X83560Y-34930D01*
X82960Y-34930D02*
X82360Y-34930D01*
X82360Y-34930D02*
X82360Y-33830D01*
X82360Y-33830D02*
X82960Y-33830D01*
X83090Y-37230D02*
G75*
G03X83090Y-37230I-70J0D01*
G74*
G01*
X84170Y-36580D02*
X84170Y-37180D01*
X84170Y-37180D02*
X83070Y-37180D01*
X83070Y-37180D02*
X83070Y-36580D01*
X83070Y-35980D02*
X83070Y-35380D01*
X83070Y-35380D02*
X84170Y-35380D01*
X84170Y-35380D02*
X84170Y-35980D01*
X64830Y-41420D02*
G75*
G03X64830Y-41420I-50J0D01*
G74*
G01*
X64330Y-41420D02*
X64730Y-41420D01*
X64730Y-41420D02*
X64730Y-40820D01*
X64730Y-40820D02*
X64330Y-40820D01*
X63930Y-40820D02*
X63530Y-40820D01*
X63530Y-40820D02*
X63530Y-41420D01*
X63530Y-41420D02*
X63930Y-41420D01*
X63405Y-30960D02*
G75*
G03X63405Y-30960I-50J0D01*
G74*
G01*
X63805Y-30960D02*
X63405Y-30960D01*
X63405Y-30960D02*
X63405Y-31560D01*
X63405Y-31560D02*
X63805Y-31560D01*
X64205Y-31560D02*
X64605Y-31560D01*
X64605Y-31560D02*
X64605Y-30960D01*
X64605Y-30960D02*
X64205Y-30960D01*
X68065Y-31560D02*
G75*
G03X68065Y-31560I-50J0D01*
G74*
G01*
X67565Y-31560D02*
X67965Y-31560D01*
X67965Y-31560D02*
X67965Y-30960D01*
X67965Y-30960D02*
X67565Y-30960D01*
X67165Y-30960D02*
X66765Y-30960D01*
X66765Y-30960D02*
X66765Y-31560D01*
X66765Y-31560D02*
X67165Y-31560D01*
G54D13*
X73000Y-53971D02*
X72985Y-53942D01*
X72957Y-53914D01*
X72914Y-53871D01*
X72900Y-53842D01*
X72900Y-53814D01*
X72971Y-53828D02*
X72957Y-53800D01*
X72928Y-53771D01*
X72871Y-53757D01*
X72771Y-53757D01*
X72714Y-53771D01*
X72685Y-53800D01*
X72671Y-53828D01*
X72671Y-53885D01*
X72685Y-53914D01*
X72714Y-53942D01*
X72771Y-53957D01*
X72871Y-53957D01*
X72928Y-53942D01*
X72957Y-53914D01*
X72971Y-53885D01*
X72971Y-53828D01*
X72971Y-54242D02*
X72971Y-54071D01*
X72971Y-54157D02*
X72671Y-54157D01*
X72714Y-54128D01*
X72742Y-54100D01*
X72757Y-54071D01*
G54D14*
G54D12*
X62841Y-53681D02*
X62925Y-53562D01*
X62984Y-53681D02*
X62984Y-53431D01*
X62889Y-53431D01*
X62865Y-53443D01*
X62853Y-53455D01*
X62841Y-53478D01*
X62841Y-53514D01*
X62853Y-53538D01*
X62865Y-53550D01*
X62889Y-53562D01*
X62984Y-53562D01*
X62603Y-53681D02*
X62746Y-53681D01*
X62675Y-53681D02*
X62675Y-53431D01*
X62698Y-53466D01*
X62722Y-53490D01*
X62746Y-53502D01*
X70591Y-49091D02*
X70675Y-48972D01*
X70734Y-49091D02*
X70734Y-48841D01*
X70639Y-48841D01*
X70615Y-48853D01*
X70603Y-48865D01*
X70591Y-48888D01*
X70591Y-48924D01*
X70603Y-48948D01*
X70615Y-48960D01*
X70639Y-48972D01*
X70734Y-48972D01*
X70377Y-48841D02*
X70425Y-48841D01*
X70448Y-48853D01*
X70460Y-48865D01*
X70484Y-48900D01*
X70496Y-48948D01*
X70496Y-49043D01*
X70484Y-49067D01*
X70472Y-49079D01*
X70448Y-49091D01*
X70401Y-49091D01*
X70377Y-49079D01*
X70365Y-49067D01*
X70353Y-49043D01*
X70353Y-48984D01*
X70365Y-48960D01*
X70377Y-48948D01*
X70401Y-48936D01*
X70448Y-48936D01*
X70472Y-48948D01*
X70484Y-48960D01*
X70496Y-48984D01*
X70681Y-53851D02*
X70765Y-53732D01*
X70824Y-53851D02*
X70824Y-53601D01*
X70729Y-53601D01*
X70705Y-53613D01*
X70693Y-53625D01*
X70681Y-53648D01*
X70681Y-53684D01*
X70693Y-53708D01*
X70705Y-53720D01*
X70729Y-53732D01*
X70824Y-53732D01*
X70467Y-53684D02*
X70467Y-53851D01*
X70526Y-53589D02*
X70586Y-53767D01*
X70431Y-53767D01*
X81780Y-39041D02*
X81780Y-39284D01*
X81768Y-39312D01*
X81756Y-39327D01*
X81732Y-39341D01*
X81685Y-39341D01*
X81661Y-39327D01*
X81649Y-39312D01*
X81637Y-39284D01*
X81637Y-39041D01*
X81542Y-39041D02*
X81387Y-39041D01*
X81470Y-39155D01*
X81435Y-39155D01*
X81411Y-39170D01*
X81399Y-39184D01*
X81387Y-39212D01*
X81387Y-39284D01*
X81399Y-39312D01*
X81411Y-39327D01*
X81435Y-39341D01*
X81506Y-39341D01*
X81530Y-39327D01*
X81542Y-39312D01*
X69320Y-37751D02*
X69420Y-37608D01*
X69491Y-37751D02*
X69491Y-37451D01*
X69377Y-37451D01*
X69348Y-37465D01*
X69334Y-37480D01*
X69320Y-37508D01*
X69320Y-37551D01*
X69334Y-37580D01*
X69348Y-37594D01*
X69377Y-37608D01*
X69491Y-37608D01*
X69177Y-37751D02*
X69120Y-37751D01*
X69091Y-37737D01*
X69077Y-37722D01*
X69048Y-37680D01*
X69034Y-37622D01*
X69034Y-37508D01*
X69048Y-37480D01*
X69062Y-37465D01*
X69091Y-37451D01*
X69148Y-37451D01*
X69177Y-37465D01*
X69191Y-37480D01*
X69205Y-37508D01*
X69205Y-37580D01*
X69191Y-37608D01*
X69177Y-37622D01*
X69148Y-37637D01*
X69091Y-37637D01*
X69062Y-37622D01*
X69048Y-37608D01*
X69034Y-37580D01*
X67310Y-37761D02*
X67410Y-37618D01*
X67481Y-37761D02*
X67481Y-37461D01*
X67367Y-37461D01*
X67338Y-37475D01*
X67324Y-37490D01*
X67310Y-37518D01*
X67310Y-37561D01*
X67324Y-37590D01*
X67338Y-37604D01*
X67367Y-37618D01*
X67481Y-37618D01*
X67138Y-37590D02*
X67167Y-37575D01*
X67181Y-37561D01*
X67195Y-37532D01*
X67195Y-37518D01*
X67181Y-37490D01*
X67167Y-37475D01*
X67138Y-37461D01*
X67081Y-37461D01*
X67052Y-37475D01*
X67038Y-37490D01*
X67024Y-37518D01*
X67024Y-37532D01*
X67038Y-37561D01*
X67052Y-37575D01*
X67081Y-37590D01*
X67138Y-37590D01*
X67167Y-37604D01*
X67181Y-37618D01*
X67195Y-37647D01*
X67195Y-37704D01*
X67181Y-37732D01*
X67167Y-37747D01*
X67138Y-37761D01*
X67081Y-37761D01*
X67052Y-37747D01*
X67038Y-37732D01*
X67024Y-37704D01*
X67024Y-37647D01*
X67038Y-37618D01*
X67052Y-37604D01*
X67081Y-37590D01*
X68730Y-39671D02*
X68830Y-39528D01*
X68901Y-39671D02*
X68901Y-39371D01*
X68787Y-39371D01*
X68758Y-39385D01*
X68744Y-39400D01*
X68730Y-39428D01*
X68730Y-39471D01*
X68744Y-39500D01*
X68758Y-39514D01*
X68787Y-39528D01*
X68901Y-39528D01*
X68630Y-39371D02*
X68430Y-39371D01*
X68558Y-39671D01*
X74272Y-41851D02*
X74372Y-41708D01*
X74444Y-41851D02*
X74444Y-41551D01*
X74330Y-41551D01*
X74301Y-41565D01*
X74287Y-41580D01*
X74272Y-41608D01*
X74272Y-41651D01*
X74287Y-41680D01*
X74301Y-41694D01*
X74330Y-41708D01*
X74444Y-41708D01*
X73987Y-41851D02*
X74158Y-41851D01*
X74072Y-41851D02*
X74072Y-41551D01*
X74101Y-41594D01*
X74130Y-41622D01*
X74158Y-41637D01*
X73801Y-41551D02*
X73772Y-41551D01*
X73744Y-41565D01*
X73730Y-41580D01*
X73715Y-41608D01*
X73701Y-41665D01*
X73701Y-41737D01*
X73715Y-41794D01*
X73730Y-41822D01*
X73744Y-41837D01*
X73772Y-41851D01*
X73801Y-41851D01*
X73830Y-41837D01*
X73844Y-41822D01*
X73858Y-41794D01*
X73872Y-41737D01*
X73872Y-41665D01*
X73858Y-41608D01*
X73844Y-41580D01*
X73830Y-41565D01*
X73801Y-41551D01*
X77590Y-40941D02*
X77674Y-40822D01*
X77733Y-40941D02*
X77733Y-40691D01*
X77638Y-40691D01*
X77614Y-40703D01*
X77602Y-40715D01*
X77590Y-40738D01*
X77590Y-40774D01*
X77602Y-40798D01*
X77614Y-40810D01*
X77638Y-40822D01*
X77733Y-40822D01*
X77376Y-40774D02*
X77376Y-40941D01*
X77435Y-40679D02*
X77495Y-40857D01*
X77340Y-40857D01*
X77138Y-40774D02*
X77138Y-40941D01*
X77197Y-40679D02*
X77257Y-40857D01*
X77102Y-40857D01*
X66541Y-40087D02*
X66553Y-40099D01*
X66589Y-40111D01*
X66613Y-40111D01*
X66648Y-40099D01*
X66672Y-40075D01*
X66684Y-40051D01*
X66696Y-40004D01*
X66696Y-39968D01*
X66684Y-39920D01*
X66672Y-39896D01*
X66648Y-39873D01*
X66613Y-39861D01*
X66589Y-39861D01*
X66553Y-39873D01*
X66541Y-39885D01*
X66458Y-39861D02*
X66291Y-39861D01*
X66398Y-40111D01*
X63651Y-39957D02*
X63663Y-39969D01*
X63699Y-39981D01*
X63723Y-39981D01*
X63758Y-39969D01*
X63782Y-39945D01*
X63794Y-39921D01*
X63806Y-39874D01*
X63806Y-39838D01*
X63794Y-39790D01*
X63782Y-39766D01*
X63758Y-39743D01*
X63723Y-39731D01*
X63699Y-39731D01*
X63663Y-39743D01*
X63651Y-39755D01*
X63508Y-39838D02*
X63532Y-39826D01*
X63544Y-39814D01*
X63556Y-39790D01*
X63556Y-39778D01*
X63544Y-39755D01*
X63532Y-39743D01*
X63508Y-39731D01*
X63461Y-39731D01*
X63437Y-39743D01*
X63425Y-39755D01*
X63413Y-39778D01*
X63413Y-39790D01*
X63425Y-39814D01*
X63437Y-39826D01*
X63461Y-39838D01*
X63508Y-39838D01*
X63532Y-39850D01*
X63544Y-39862D01*
X63556Y-39885D01*
X63556Y-39933D01*
X63544Y-39957D01*
X63532Y-39969D01*
X63508Y-39981D01*
X63461Y-39981D01*
X63437Y-39969D01*
X63425Y-39957D01*
X63413Y-39933D01*
X63413Y-39885D01*
X63425Y-39862D01*
X63437Y-39850D01*
X63461Y-39838D01*
X75757Y-38879D02*
X75769Y-38867D01*
X75781Y-38831D01*
X75781Y-38807D01*
X75769Y-38772D01*
X75745Y-38748D01*
X75721Y-38736D01*
X75674Y-38724D01*
X75638Y-38724D01*
X75590Y-38736D01*
X75566Y-38748D01*
X75543Y-38772D01*
X75531Y-38807D01*
X75531Y-38831D01*
X75543Y-38867D01*
X75555Y-38879D01*
X75781Y-39117D02*
X75781Y-38974D01*
X75781Y-39045D02*
X75531Y-39045D01*
X75566Y-39022D01*
X75590Y-38998D01*
X75602Y-38974D01*
X75531Y-39272D02*
X75531Y-39295D01*
X75543Y-39319D01*
X75555Y-39331D01*
X75578Y-39343D01*
X75626Y-39355D01*
X75685Y-39355D01*
X75733Y-39343D01*
X75757Y-39331D01*
X75769Y-39319D01*
X75781Y-39295D01*
X75781Y-39272D01*
X75769Y-39248D01*
X75757Y-39236D01*
X75733Y-39224D01*
X75685Y-39212D01*
X75626Y-39212D01*
X75578Y-39224D01*
X75555Y-39236D01*
X75543Y-39248D01*
X75531Y-39272D01*
X73447Y-37478D02*
X73459Y-37466D01*
X73471Y-37430D01*
X73471Y-37406D01*
X73459Y-37371D01*
X73435Y-37347D01*
X73411Y-37335D01*
X73364Y-37323D01*
X73328Y-37323D01*
X73280Y-37335D01*
X73256Y-37347D01*
X73233Y-37371D01*
X73221Y-37406D01*
X73221Y-37430D01*
X73233Y-37466D01*
X73245Y-37478D01*
X73471Y-37597D02*
X73471Y-37645D01*
X73459Y-37668D01*
X73447Y-37680D01*
X73411Y-37704D01*
X73364Y-37716D01*
X73268Y-37716D01*
X73245Y-37704D01*
X73233Y-37692D01*
X73221Y-37668D01*
X73221Y-37621D01*
X73233Y-37597D01*
X73245Y-37585D01*
X73268Y-37573D01*
X73328Y-37573D01*
X73352Y-37585D01*
X73364Y-37597D01*
X73375Y-37621D01*
X73375Y-37668D01*
X73364Y-37692D01*
X73352Y-37704D01*
X73328Y-37716D01*
X82590Y-37567D02*
X82602Y-37579D01*
X82638Y-37591D01*
X82662Y-37591D01*
X82697Y-37579D01*
X82721Y-37555D01*
X82733Y-37531D01*
X82745Y-37484D01*
X82745Y-37448D01*
X82733Y-37400D01*
X82721Y-37376D01*
X82697Y-37353D01*
X82662Y-37341D01*
X82638Y-37341D01*
X82602Y-37353D01*
X82590Y-37365D01*
X82352Y-37591D02*
X82495Y-37591D01*
X82424Y-37591D02*
X82424Y-37341D01*
X82447Y-37376D01*
X82471Y-37400D01*
X82495Y-37412D01*
X82114Y-37591D02*
X82257Y-37591D01*
X82185Y-37591D02*
X82185Y-37341D01*
X82209Y-37376D01*
X82233Y-37400D01*
X82257Y-37412D01*
X77620Y-39791D02*
X77704Y-39672D01*
X77763Y-39791D02*
X77763Y-39541D01*
X77668Y-39541D01*
X77644Y-39553D01*
X77632Y-39565D01*
X77620Y-39588D01*
X77620Y-39624D01*
X77632Y-39648D01*
X77644Y-39660D01*
X77668Y-39672D01*
X77763Y-39672D01*
X77406Y-39624D02*
X77406Y-39791D01*
X77465Y-39529D02*
X77525Y-39707D01*
X77370Y-39707D01*
X77156Y-39541D02*
X77275Y-39541D01*
X77287Y-39660D01*
X77275Y-39648D01*
X77251Y-39636D01*
X77192Y-39636D01*
X77168Y-39648D01*
X77156Y-39660D01*
X77144Y-39684D01*
X77144Y-39743D01*
X77156Y-39767D01*
X77168Y-39779D01*
X77192Y-39791D01*
X77251Y-39791D01*
X77275Y-39779D01*
X77287Y-39767D01*
X76050Y-41801D02*
X76134Y-41682D01*
X76193Y-41801D02*
X76193Y-41551D01*
X76098Y-41551D01*
X76074Y-41563D01*
X76062Y-41575D01*
X76050Y-41598D01*
X76050Y-41634D01*
X76062Y-41658D01*
X76074Y-41670D01*
X76098Y-41682D01*
X76193Y-41682D01*
X75812Y-41801D02*
X75955Y-41801D01*
X75884Y-41801D02*
X75884Y-41551D01*
X75907Y-41586D01*
X75931Y-41610D01*
X75955Y-41622D01*
X75729Y-41551D02*
X75574Y-41551D01*
X75657Y-41646D01*
X75622Y-41646D01*
X75598Y-41658D01*
X75586Y-41670D01*
X75574Y-41694D01*
X75574Y-41753D01*
X75586Y-41777D01*
X75598Y-41789D01*
X75622Y-41801D01*
X75693Y-41801D01*
X75717Y-41789D01*
X75729Y-41777D01*
X77650Y-37721D02*
X77734Y-37602D01*
X77793Y-37721D02*
X77793Y-37471D01*
X77698Y-37471D01*
X77674Y-37483D01*
X77662Y-37495D01*
X77650Y-37518D01*
X77650Y-37554D01*
X77662Y-37578D01*
X77674Y-37590D01*
X77698Y-37602D01*
X77793Y-37602D01*
X77412Y-37721D02*
X77555Y-37721D01*
X77484Y-37721D02*
X77484Y-37471D01*
X77507Y-37506D01*
X77531Y-37530D01*
X77555Y-37542D01*
X77317Y-37495D02*
X77305Y-37483D01*
X77281Y-37471D01*
X77222Y-37471D01*
X77198Y-37483D01*
X77186Y-37495D01*
X77174Y-37518D01*
X77174Y-37542D01*
X77186Y-37578D01*
X77329Y-37721D01*
X77174Y-37721D01*
X70000Y-40851D02*
X70084Y-40732D01*
X70143Y-40851D02*
X70143Y-40601D01*
X70048Y-40601D01*
X70024Y-40613D01*
X70012Y-40625D01*
X70000Y-40648D01*
X70000Y-40684D01*
X70012Y-40708D01*
X70024Y-40720D01*
X70048Y-40732D01*
X70143Y-40732D01*
X69762Y-40851D02*
X69905Y-40851D01*
X69834Y-40851D02*
X69834Y-40601D01*
X69857Y-40636D01*
X69881Y-40660D01*
X69905Y-40672D01*
X69524Y-40851D02*
X69667Y-40851D01*
X69595Y-40851D02*
X69595Y-40601D01*
X69619Y-40636D01*
X69643Y-40660D01*
X69667Y-40672D01*
X66021Y-36867D02*
X66033Y-36879D01*
X66069Y-36891D01*
X66093Y-36891D01*
X66128Y-36879D01*
X66152Y-36855D01*
X66164Y-36831D01*
X66176Y-36784D01*
X66176Y-36748D01*
X66164Y-36700D01*
X66152Y-36676D01*
X66128Y-36653D01*
X66093Y-36641D01*
X66069Y-36641D01*
X66033Y-36653D01*
X66021Y-36665D01*
X65783Y-36891D02*
X65926Y-36891D01*
X65855Y-36891D02*
X65855Y-36641D01*
X65878Y-36676D01*
X65902Y-36700D01*
X65926Y-36712D01*
X50030Y-47351D02*
X50114Y-47232D01*
X50173Y-47351D02*
X50173Y-47101D01*
X50078Y-47101D01*
X50054Y-47113D01*
X50042Y-47125D01*
X50030Y-47148D01*
X50030Y-47184D01*
X50042Y-47208D01*
X50054Y-47220D01*
X50078Y-47232D01*
X50173Y-47232D01*
X49816Y-47184D02*
X49816Y-47351D01*
X49875Y-47089D02*
X49935Y-47267D01*
X49780Y-47267D01*
X49709Y-47101D02*
X49554Y-47101D01*
X49637Y-47196D01*
X49602Y-47196D01*
X49578Y-47208D01*
X49566Y-47220D01*
X49554Y-47244D01*
X49554Y-47303D01*
X49566Y-47327D01*
X49578Y-47339D01*
X49602Y-47351D01*
X49673Y-47351D01*
X49697Y-47339D01*
X49709Y-47327D01*
G54D13*
X71578Y-36550D02*
X71607Y-36535D01*
X71635Y-36507D01*
X71678Y-36464D01*
X71707Y-36450D01*
X71735Y-36450D01*
X71721Y-36521D02*
X71750Y-36507D01*
X71778Y-36478D01*
X71792Y-36421D01*
X71792Y-36321D01*
X71778Y-36264D01*
X71750Y-36235D01*
X71721Y-36221D01*
X71664Y-36221D01*
X71635Y-36235D01*
X71607Y-36264D01*
X71592Y-36321D01*
X71592Y-36421D01*
X71607Y-36478D01*
X71635Y-36507D01*
X71664Y-36521D01*
X71721Y-36521D01*
X71478Y-36250D02*
X71464Y-36235D01*
X71435Y-36221D01*
X71364Y-36221D01*
X71335Y-36235D01*
X71321Y-36250D01*
X71307Y-36278D01*
X71307Y-36307D01*
X71321Y-36350D01*
X71492Y-36521D01*
X71307Y-36521D01*
G54D14*
G54D12*
X82045Y-44881D02*
X81874Y-44881D01*
X81959Y-45281D02*
X81959Y-44881D01*
X81774Y-45281D02*
X81774Y-44881D01*
X81774Y-45072D02*
X81602Y-45072D01*
X81602Y-45281D02*
X81602Y-44881D01*
X81317Y-44881D02*
X81459Y-44881D01*
X81474Y-45072D01*
X81459Y-45053D01*
X81431Y-45034D01*
X81359Y-45034D01*
X81331Y-45053D01*
X81317Y-45072D01*
X81302Y-45110D01*
X81302Y-45205D01*
X81317Y-45243D01*
X81331Y-45262D01*
X81359Y-45281D01*
X81431Y-45281D01*
X81459Y-45262D01*
X81474Y-45243D01*
X74950Y-43487D02*
X74962Y-43499D01*
X74998Y-43511D01*
X75022Y-43511D01*
X75057Y-43499D01*
X75081Y-43475D01*
X75093Y-43451D01*
X75105Y-43404D01*
X75105Y-43368D01*
X75093Y-43320D01*
X75081Y-43296D01*
X75057Y-43273D01*
X75022Y-43261D01*
X74998Y-43261D01*
X74962Y-43273D01*
X74950Y-43285D01*
X74712Y-43511D02*
X74855Y-43511D01*
X74784Y-43511D02*
X74784Y-43261D01*
X74807Y-43296D01*
X74831Y-43320D01*
X74855Y-43332D01*
X74629Y-43261D02*
X74474Y-43261D01*
X74557Y-43356D01*
X74522Y-43356D01*
X74498Y-43368D01*
X74486Y-43380D01*
X74474Y-43404D01*
X74474Y-43463D01*
X74486Y-43487D01*
X74498Y-43499D01*
X74522Y-43511D01*
X74593Y-43511D01*
X74617Y-43499D01*
X74629Y-43487D01*
X63417Y-42949D02*
X63429Y-42937D01*
X63441Y-42901D01*
X63441Y-42877D01*
X63429Y-42842D01*
X63405Y-42818D01*
X63381Y-42806D01*
X63334Y-42794D01*
X63298Y-42794D01*
X63250Y-42806D01*
X63226Y-42818D01*
X63203Y-42842D01*
X63191Y-42877D01*
X63191Y-42901D01*
X63203Y-42937D01*
X63215Y-42949D01*
X63441Y-43187D02*
X63441Y-43044D01*
X63441Y-43115D02*
X63191Y-43115D01*
X63226Y-43092D01*
X63250Y-43068D01*
X63262Y-43044D01*
X63215Y-43282D02*
X63203Y-43294D01*
X63191Y-43318D01*
X63191Y-43377D01*
X63203Y-43401D01*
X63215Y-43413D01*
X63238Y-43425D01*
X63262Y-43425D01*
X63298Y-43413D01*
X63441Y-43270D01*
X63441Y-43425D01*
X24961Y-31314D02*
X24961Y-31485D01*
X25361Y-31400D02*
X24961Y-31400D01*
X25361Y-31585D02*
X24961Y-31585D01*
X25152Y-31585D02*
X25152Y-31757D01*
X25361Y-31757D02*
X24961Y-31757D01*
X25361Y-32057D02*
X25361Y-31885D01*
X25361Y-31971D02*
X24961Y-31971D01*
X25019Y-31942D01*
X25057Y-31914D01*
X25076Y-31885D01*
X32655Y-47791D02*
X32484Y-47791D01*
X32569Y-48191D02*
X32569Y-47791D01*
X32384Y-48191D02*
X32384Y-47791D01*
X32384Y-47982D02*
X32212Y-47982D01*
X32212Y-48191D02*
X32212Y-47791D01*
X32084Y-47830D02*
X32069Y-47810D01*
X32041Y-47791D01*
X31969Y-47791D01*
X31941Y-47810D01*
X31927Y-47830D01*
X31912Y-47868D01*
X31912Y-47906D01*
X31927Y-47963D01*
X32098Y-48191D01*
X31912Y-48191D01*
X30495Y-51101D02*
X30324Y-51101D01*
X30409Y-51501D02*
X30409Y-51101D01*
X30224Y-51501D02*
X30224Y-51101D01*
X30224Y-51292D02*
X30052Y-51292D01*
X30052Y-51501D02*
X30052Y-51101D01*
X29938Y-51101D02*
X29752Y-51101D01*
X29852Y-51254D01*
X29809Y-51254D01*
X29781Y-51273D01*
X29767Y-51292D01*
X29752Y-51330D01*
X29752Y-51425D01*
X29767Y-51463D01*
X29781Y-51482D01*
X29809Y-51501D01*
X29895Y-51501D01*
X29924Y-51482D01*
X29938Y-51463D01*
X30915Y-41401D02*
X30744Y-41401D01*
X30829Y-41801D02*
X30829Y-41401D01*
X30644Y-41801D02*
X30644Y-41401D01*
X30644Y-41592D02*
X30472Y-41592D01*
X30472Y-41801D02*
X30472Y-41401D01*
X30201Y-41535D02*
X30201Y-41801D01*
X30272Y-41382D02*
X30344Y-41668D01*
X30158Y-41668D01*
X33931Y-42840D02*
X33931Y-42697D01*
X33631Y-42697D01*
X33931Y-43097D02*
X33931Y-42925D01*
X33931Y-43011D02*
X33631Y-43011D01*
X33674Y-42982D01*
X33702Y-42954D01*
X33717Y-42925D01*
X70787Y-35509D02*
X70799Y-35497D01*
X70811Y-35461D01*
X70811Y-35437D01*
X70799Y-35402D01*
X70775Y-35378D01*
X70751Y-35366D01*
X70704Y-35354D01*
X70668Y-35354D01*
X70620Y-35366D01*
X70596Y-35378D01*
X70573Y-35402D01*
X70561Y-35437D01*
X70561Y-35461D01*
X70573Y-35497D01*
X70585Y-35509D01*
X70811Y-35747D02*
X70811Y-35604D01*
X70811Y-35675D02*
X70561Y-35675D01*
X70596Y-35652D01*
X70620Y-35628D01*
X70632Y-35604D01*
X70561Y-35830D02*
X70561Y-35997D01*
X70811Y-35890D01*
X69397Y-36459D02*
X69409Y-36447D01*
X69421Y-36411D01*
X69421Y-36387D01*
X69409Y-36352D01*
X69385Y-36328D01*
X69361Y-36316D01*
X69314Y-36304D01*
X69278Y-36304D01*
X69230Y-36316D01*
X69206Y-36328D01*
X69183Y-36352D01*
X69171Y-36387D01*
X69171Y-36411D01*
X69183Y-36447D01*
X69195Y-36459D01*
X69195Y-36554D02*
X69183Y-36566D01*
X69171Y-36590D01*
X69171Y-36649D01*
X69183Y-36673D01*
X69195Y-36685D01*
X69218Y-36697D01*
X69242Y-36697D01*
X69278Y-36685D01*
X69421Y-36542D01*
X69421Y-36697D01*
X69195Y-36792D02*
X69183Y-36804D01*
X69171Y-36828D01*
X69171Y-36887D01*
X69183Y-36911D01*
X69195Y-36923D01*
X69218Y-36935D01*
X69242Y-36935D01*
X69278Y-36923D01*
X69421Y-36780D01*
X69421Y-36935D01*
X62317Y-36429D02*
X62329Y-36417D01*
X62341Y-36381D01*
X62341Y-36357D01*
X62329Y-36322D01*
X62305Y-36298D01*
X62281Y-36286D01*
X62234Y-36274D01*
X62198Y-36274D01*
X62150Y-36286D01*
X62126Y-36298D01*
X62103Y-36322D01*
X62091Y-36357D01*
X62091Y-36381D01*
X62103Y-36417D01*
X62115Y-36429D01*
X62115Y-36524D02*
X62103Y-36536D01*
X62091Y-36560D01*
X62091Y-36619D01*
X62103Y-36643D01*
X62115Y-36655D01*
X62138Y-36667D01*
X62162Y-36667D01*
X62198Y-36655D01*
X62341Y-36512D01*
X62341Y-36667D01*
X62091Y-36750D02*
X62091Y-36905D01*
X62186Y-36822D01*
X62186Y-36857D01*
X62198Y-36881D01*
X62210Y-36893D01*
X62234Y-36905D01*
X62293Y-36905D01*
X62317Y-36893D01*
X62329Y-36881D01*
X62341Y-36857D01*
X62341Y-36786D01*
X62329Y-36762D01*
X62317Y-36750D01*
X60677Y-35199D02*
X60689Y-35187D01*
X60701Y-35151D01*
X60701Y-35127D01*
X60689Y-35092D01*
X60665Y-35068D01*
X60641Y-35056D01*
X60594Y-35044D01*
X60558Y-35044D01*
X60510Y-35056D01*
X60486Y-35068D01*
X60463Y-35092D01*
X60451Y-35127D01*
X60451Y-35151D01*
X60463Y-35187D01*
X60475Y-35199D01*
X60701Y-35437D02*
X60701Y-35294D01*
X60701Y-35365D02*
X60451Y-35365D01*
X60486Y-35342D01*
X60510Y-35318D01*
X60522Y-35294D01*
X60451Y-35651D02*
X60451Y-35604D01*
X60463Y-35580D01*
X60475Y-35568D01*
X60510Y-35544D01*
X60558Y-35532D01*
X60653Y-35532D01*
X60677Y-35544D01*
X60689Y-35556D01*
X60701Y-35580D01*
X60701Y-35627D01*
X60689Y-35651D01*
X60677Y-35663D01*
X60653Y-35675D01*
X60594Y-35675D01*
X60570Y-35663D01*
X60558Y-35651D01*
X60546Y-35627D01*
X60546Y-35580D01*
X60558Y-35556D01*
X60570Y-35544D01*
X60594Y-35532D01*
X81980Y-33647D02*
X81992Y-33659D01*
X82028Y-33671D01*
X82052Y-33671D01*
X82087Y-33659D01*
X82111Y-33635D01*
X82123Y-33611D01*
X82135Y-33564D01*
X82135Y-33528D01*
X82123Y-33480D01*
X82111Y-33456D01*
X82087Y-33433D01*
X82052Y-33421D01*
X82028Y-33421D01*
X81992Y-33433D01*
X81980Y-33445D01*
X81742Y-33671D02*
X81885Y-33671D01*
X81814Y-33671D02*
X81814Y-33421D01*
X81837Y-33456D01*
X81861Y-33480D01*
X81885Y-33492D01*
X81516Y-33421D02*
X81635Y-33421D01*
X81647Y-33540D01*
X81635Y-33528D01*
X81611Y-33516D01*
X81552Y-33516D01*
X81528Y-33528D01*
X81516Y-33540D01*
X81504Y-33564D01*
X81504Y-33623D01*
X81516Y-33647D01*
X81528Y-33659D01*
X81552Y-33671D01*
X81611Y-33671D01*
X81635Y-33659D01*
X81647Y-33647D01*
X72367Y-34839D02*
X72379Y-34827D01*
X72391Y-34791D01*
X72391Y-34767D01*
X72379Y-34732D01*
X72355Y-34708D01*
X72331Y-34696D01*
X72284Y-34684D01*
X72248Y-34684D01*
X72200Y-34696D01*
X72176Y-34708D01*
X72153Y-34732D01*
X72141Y-34767D01*
X72141Y-34791D01*
X72153Y-34827D01*
X72165Y-34839D01*
X72391Y-35077D02*
X72391Y-34934D01*
X72391Y-35005D02*
X72141Y-35005D01*
X72176Y-34982D01*
X72200Y-34958D01*
X72212Y-34934D01*
X72224Y-35291D02*
X72391Y-35291D01*
X72129Y-35232D02*
X72307Y-35172D01*
X72307Y-35327D01*
X78910Y-33137D02*
X78922Y-33149D01*
X78958Y-33161D01*
X78982Y-33161D01*
X79017Y-33149D01*
X79041Y-33125D01*
X79053Y-33101D01*
X79065Y-33054D01*
X79065Y-33018D01*
X79053Y-32970D01*
X79041Y-32946D01*
X79017Y-32923D01*
X78982Y-32911D01*
X78958Y-32911D01*
X78922Y-32923D01*
X78910Y-32935D01*
X78815Y-32935D02*
X78803Y-32923D01*
X78779Y-32911D01*
X78720Y-32911D01*
X78696Y-32923D01*
X78684Y-32935D01*
X78672Y-32958D01*
X78672Y-32982D01*
X78684Y-33018D01*
X78827Y-33161D01*
X78672Y-33161D01*
X78434Y-33161D02*
X78577Y-33161D01*
X78505Y-33161D02*
X78505Y-32911D01*
X78529Y-32946D01*
X78553Y-32970D01*
X78577Y-32982D01*
X77050Y-33167D02*
X77062Y-33179D01*
X77098Y-33191D01*
X77122Y-33191D01*
X77157Y-33179D01*
X77181Y-33155D01*
X77193Y-33131D01*
X77205Y-33084D01*
X77205Y-33048D01*
X77193Y-33000D01*
X77181Y-32976D01*
X77157Y-32953D01*
X77122Y-32941D01*
X77098Y-32941D01*
X77062Y-32953D01*
X77050Y-32965D01*
X76955Y-32965D02*
X76943Y-32953D01*
X76919Y-32941D01*
X76860Y-32941D01*
X76836Y-32953D01*
X76824Y-32965D01*
X76812Y-32988D01*
X76812Y-33012D01*
X76824Y-33048D01*
X76967Y-33191D01*
X76812Y-33191D01*
X76657Y-32941D02*
X76634Y-32941D01*
X76610Y-32953D01*
X76598Y-32965D01*
X76586Y-32988D01*
X76574Y-33036D01*
X76574Y-33095D01*
X76586Y-33143D01*
X76598Y-33167D01*
X76610Y-33179D01*
X76634Y-33191D01*
X76657Y-33191D01*
X76681Y-33179D01*
X76693Y-33167D01*
X76705Y-33143D01*
X76717Y-33095D01*
X76717Y-33036D01*
X76705Y-32988D01*
X76693Y-32965D01*
X76681Y-32953D01*
X76657Y-32941D01*
X67907Y-35359D02*
X67919Y-35347D01*
X67931Y-35311D01*
X67931Y-35287D01*
X67919Y-35252D01*
X67895Y-35228D01*
X67871Y-35216D01*
X67824Y-35204D01*
X67788Y-35204D01*
X67740Y-35216D01*
X67716Y-35228D01*
X67693Y-35252D01*
X67681Y-35287D01*
X67681Y-35311D01*
X67693Y-35347D01*
X67705Y-35359D01*
X67931Y-35597D02*
X67931Y-35454D01*
X67931Y-35525D02*
X67681Y-35525D01*
X67716Y-35502D01*
X67740Y-35478D01*
X67752Y-35454D01*
X67931Y-35716D02*
X67931Y-35764D01*
X67919Y-35787D01*
X67907Y-35799D01*
X67871Y-35823D01*
X67824Y-35835D01*
X67728Y-35835D01*
X67705Y-35823D01*
X67693Y-35811D01*
X67681Y-35787D01*
X67681Y-35740D01*
X67693Y-35716D01*
X67705Y-35704D01*
X67728Y-35692D01*
X67788Y-35692D01*
X67812Y-35704D01*
X67824Y-35716D01*
X67835Y-35740D01*
X67835Y-35787D01*
X67824Y-35811D01*
X67812Y-35823D01*
X67788Y-35835D01*
X63707Y-35179D02*
X63719Y-35167D01*
X63731Y-35131D01*
X63731Y-35107D01*
X63719Y-35072D01*
X63695Y-35048D01*
X63671Y-35036D01*
X63624Y-35024D01*
X63588Y-35024D01*
X63540Y-35036D01*
X63516Y-35048D01*
X63493Y-35072D01*
X63481Y-35107D01*
X63481Y-35131D01*
X63493Y-35167D01*
X63505Y-35179D01*
X63731Y-35417D02*
X63731Y-35274D01*
X63731Y-35345D02*
X63481Y-35345D01*
X63516Y-35322D01*
X63540Y-35298D01*
X63552Y-35274D01*
X63588Y-35560D02*
X63576Y-35536D01*
X63564Y-35524D01*
X63540Y-35512D01*
X63528Y-35512D01*
X63505Y-35524D01*
X63493Y-35536D01*
X63481Y-35560D01*
X63481Y-35607D01*
X63493Y-35631D01*
X63505Y-35643D01*
X63528Y-35655D01*
X63540Y-35655D01*
X63564Y-35643D01*
X63576Y-35631D01*
X63588Y-35607D01*
X63588Y-35560D01*
X63600Y-35536D01*
X63612Y-35524D01*
X63635Y-35512D01*
X63683Y-35512D01*
X63707Y-35524D01*
X63719Y-35536D01*
X63731Y-35560D01*
X63731Y-35607D01*
X63719Y-35631D01*
X63707Y-35643D01*
X63683Y-35655D01*
X63635Y-35655D01*
X63612Y-35643D01*
X63600Y-35631D01*
X63588Y-35607D01*
X74640Y-36557D02*
X74652Y-36569D01*
X74688Y-36581D01*
X74712Y-36581D01*
X74747Y-36569D01*
X74771Y-36545D01*
X74783Y-36521D01*
X74795Y-36474D01*
X74795Y-36438D01*
X74783Y-36390D01*
X74771Y-36366D01*
X74747Y-36343D01*
X74712Y-36331D01*
X74688Y-36331D01*
X74652Y-36343D01*
X74640Y-36355D01*
X74545Y-36355D02*
X74533Y-36343D01*
X74509Y-36331D01*
X74450Y-36331D01*
X74426Y-36343D01*
X74414Y-36355D01*
X74402Y-36378D01*
X74402Y-36402D01*
X74414Y-36438D01*
X74557Y-36581D01*
X74402Y-36581D01*
X74188Y-36414D02*
X74188Y-36581D01*
X74247Y-36319D02*
X74307Y-36497D01*
X74152Y-36497D01*
X80350Y-33221D02*
X80434Y-33102D01*
X80493Y-33221D02*
X80493Y-32971D01*
X80398Y-32971D01*
X80374Y-32983D01*
X80362Y-32995D01*
X80350Y-33018D01*
X80350Y-33054D01*
X80362Y-33078D01*
X80374Y-33090D01*
X80398Y-33102D01*
X80493Y-33102D01*
X80124Y-32971D02*
X80243Y-32971D01*
X80255Y-33090D01*
X80243Y-33078D01*
X80219Y-33066D01*
X80160Y-33066D01*
X80136Y-33078D01*
X80124Y-33090D01*
X80112Y-33114D01*
X80112Y-33173D01*
X80124Y-33197D01*
X80136Y-33209D01*
X80160Y-33221D01*
X80219Y-33221D01*
X80243Y-33209D01*
X80255Y-33197D01*
X80029Y-32971D02*
X79874Y-32971D01*
X79957Y-33066D01*
X79922Y-33066D01*
X79898Y-33078D01*
X79886Y-33090D01*
X79874Y-33114D01*
X79874Y-33173D01*
X79886Y-33197D01*
X79898Y-33209D01*
X79922Y-33221D01*
X79993Y-33221D01*
X80017Y-33209D01*
X80029Y-33197D01*
X77070Y-35181D02*
X77154Y-35062D01*
X77213Y-35181D02*
X77213Y-34931D01*
X77118Y-34931D01*
X77094Y-34943D01*
X77082Y-34955D01*
X77070Y-34978D01*
X77070Y-35014D01*
X77082Y-35038D01*
X77094Y-35050D01*
X77118Y-35062D01*
X77213Y-35062D01*
X76844Y-34931D02*
X76963Y-34931D01*
X76975Y-35050D01*
X76963Y-35038D01*
X76939Y-35026D01*
X76880Y-35026D01*
X76856Y-35038D01*
X76844Y-35050D01*
X76832Y-35074D01*
X76832Y-35133D01*
X76844Y-35157D01*
X76856Y-35169D01*
X76880Y-35181D01*
X76939Y-35181D01*
X76963Y-35169D01*
X76975Y-35157D01*
X76606Y-34931D02*
X76725Y-34931D01*
X76737Y-35050D01*
X76725Y-35038D01*
X76701Y-35026D01*
X76642Y-35026D01*
X76618Y-35038D01*
X76606Y-35050D01*
X76594Y-35074D01*
X76594Y-35133D01*
X76606Y-35157D01*
X76618Y-35169D01*
X76642Y-35181D01*
X76701Y-35181D01*
X76725Y-35169D01*
X76737Y-35157D01*
X41140Y-33761D02*
X41224Y-33642D01*
X41283Y-33761D02*
X41283Y-33511D01*
X41188Y-33511D01*
X41164Y-33523D01*
X41152Y-33535D01*
X41140Y-33558D01*
X41140Y-33594D01*
X41152Y-33618D01*
X41164Y-33630D01*
X41188Y-33642D01*
X41283Y-33642D01*
X41045Y-33535D02*
X41033Y-33523D01*
X41009Y-33511D01*
X40950Y-33511D01*
X40926Y-33523D01*
X40914Y-33535D01*
X40902Y-33558D01*
X40902Y-33582D01*
X40914Y-33618D01*
X41057Y-33761D01*
X40902Y-33761D01*
X40676Y-33511D02*
X40795Y-33511D01*
X40807Y-33630D01*
X40795Y-33618D01*
X40771Y-33606D01*
X40712Y-33606D01*
X40688Y-33618D01*
X40676Y-33630D01*
X40664Y-33654D01*
X40664Y-33713D01*
X40676Y-33737D01*
X40688Y-33749D01*
X40712Y-33761D01*
X40771Y-33761D01*
X40795Y-33749D01*
X40807Y-33737D01*
X39360Y-33661D02*
X39444Y-33542D01*
X39503Y-33661D02*
X39503Y-33411D01*
X39408Y-33411D01*
X39384Y-33423D01*
X39372Y-33435D01*
X39360Y-33458D01*
X39360Y-33494D01*
X39372Y-33518D01*
X39384Y-33530D01*
X39408Y-33542D01*
X39503Y-33542D01*
X39265Y-33435D02*
X39253Y-33423D01*
X39229Y-33411D01*
X39170Y-33411D01*
X39146Y-33423D01*
X39134Y-33435D01*
X39122Y-33458D01*
X39122Y-33482D01*
X39134Y-33518D01*
X39277Y-33661D01*
X39122Y-33661D01*
X38908Y-33494D02*
X38908Y-33661D01*
X38967Y-33399D02*
X39027Y-33577D01*
X38872Y-33577D01*
X37890Y-32191D02*
X37974Y-32072D01*
X38033Y-32191D02*
X38033Y-31941D01*
X37938Y-31941D01*
X37914Y-31953D01*
X37902Y-31965D01*
X37890Y-31988D01*
X37890Y-32024D01*
X37902Y-32048D01*
X37914Y-32060D01*
X37938Y-32072D01*
X38033Y-32072D01*
X37795Y-31965D02*
X37783Y-31953D01*
X37759Y-31941D01*
X37700Y-31941D01*
X37676Y-31953D01*
X37664Y-31965D01*
X37652Y-31988D01*
X37652Y-32012D01*
X37664Y-32048D01*
X37807Y-32191D01*
X37652Y-32191D01*
X37569Y-31941D02*
X37414Y-31941D01*
X37497Y-32036D01*
X37462Y-32036D01*
X37438Y-32048D01*
X37426Y-32060D01*
X37414Y-32084D01*
X37414Y-32143D01*
X37426Y-32167D01*
X37438Y-32179D01*
X37462Y-32191D01*
X37533Y-32191D01*
X37557Y-32179D01*
X37569Y-32167D01*
X41020Y-31601D02*
X41104Y-31482D01*
X41163Y-31601D02*
X41163Y-31351D01*
X41068Y-31351D01*
X41044Y-31363D01*
X41032Y-31375D01*
X41020Y-31398D01*
X41020Y-31434D01*
X41032Y-31458D01*
X41044Y-31470D01*
X41068Y-31482D01*
X41163Y-31482D01*
X40925Y-31375D02*
X40913Y-31363D01*
X40889Y-31351D01*
X40830Y-31351D01*
X40806Y-31363D01*
X40794Y-31375D01*
X40782Y-31398D01*
X40782Y-31422D01*
X40794Y-31458D01*
X40937Y-31601D01*
X40782Y-31601D01*
X40687Y-31375D02*
X40675Y-31363D01*
X40651Y-31351D01*
X40592Y-31351D01*
X40568Y-31363D01*
X40556Y-31375D01*
X40544Y-31398D01*
X40544Y-31422D01*
X40556Y-31458D01*
X40699Y-31601D01*
X40544Y-31601D01*
G54D13*
X75984Y-36981D02*
X75984Y-36681D01*
X75912Y-36681D01*
X75870Y-36695D01*
X75841Y-36724D01*
X75827Y-36752D01*
X75812Y-36810D01*
X75812Y-36852D01*
X75827Y-36910D01*
X75841Y-36938D01*
X75870Y-36967D01*
X75912Y-36981D01*
X75984Y-36981D01*
X75527Y-36981D02*
X75698Y-36981D01*
X75612Y-36981D02*
X75612Y-36681D01*
X75641Y-36724D01*
X75670Y-36752D01*
X75698Y-36767D01*
X75341Y-36681D02*
X75312Y-36681D01*
X75284Y-36695D01*
X75270Y-36710D01*
X75255Y-36738D01*
X75241Y-36795D01*
X75241Y-36867D01*
X75255Y-36924D01*
X75270Y-36952D01*
X75284Y-36967D01*
X75312Y-36981D01*
X75341Y-36981D01*
X75370Y-36967D01*
X75384Y-36952D01*
X75398Y-36924D01*
X75412Y-36867D01*
X75412Y-36795D01*
X75398Y-36738D01*
X75384Y-36710D01*
X75370Y-36695D01*
X75341Y-36681D01*
X67871Y-32478D02*
X67571Y-32478D01*
X67571Y-32550D01*
X67585Y-32592D01*
X67614Y-32621D01*
X67642Y-32635D01*
X67700Y-32650D01*
X67742Y-32650D01*
X67800Y-32635D01*
X67828Y-32621D01*
X67857Y-32592D01*
X67871Y-32550D01*
X67871Y-32478D01*
X67700Y-32821D02*
X67685Y-32792D01*
X67671Y-32778D01*
X67642Y-32764D01*
X67628Y-32764D01*
X67600Y-32778D01*
X67585Y-32792D01*
X67571Y-32821D01*
X67571Y-32878D01*
X67585Y-32907D01*
X67600Y-32921D01*
X67628Y-32935D01*
X67642Y-32935D01*
X67671Y-32921D01*
X67685Y-32907D01*
X67700Y-32878D01*
X67700Y-32821D01*
X67714Y-32792D01*
X67728Y-32778D01*
X67757Y-32764D01*
X67814Y-32764D01*
X67842Y-32778D01*
X67857Y-32792D01*
X67871Y-32821D01*
X67871Y-32878D01*
X67857Y-32907D01*
X67842Y-32921D01*
X67814Y-32935D01*
X67757Y-32935D01*
X67728Y-32921D01*
X67714Y-32907D01*
X67700Y-32878D01*
X70721Y-31771D02*
X70721Y-31471D01*
X70650Y-31471D01*
X70607Y-31485D01*
X70578Y-31514D01*
X70564Y-31542D01*
X70550Y-31600D01*
X70550Y-31642D01*
X70564Y-31700D01*
X70578Y-31728D01*
X70607Y-31757D01*
X70650Y-31771D01*
X70721Y-31771D01*
X70292Y-31471D02*
X70350Y-31471D01*
X70378Y-31485D01*
X70392Y-31500D01*
X70421Y-31542D01*
X70435Y-31600D01*
X70435Y-31714D01*
X70421Y-31742D01*
X70407Y-31757D01*
X70378Y-31771D01*
X70321Y-31771D01*
X70292Y-31757D01*
X70278Y-31742D01*
X70264Y-31714D01*
X70264Y-31642D01*
X70278Y-31614D01*
X70292Y-31600D01*
X70321Y-31585D01*
X70378Y-31585D01*
X70407Y-31600D01*
X70421Y-31614D01*
X70435Y-31642D01*
X74461Y-33811D02*
X74461Y-33511D01*
X74390Y-33511D01*
X74347Y-33525D01*
X74318Y-33554D01*
X74304Y-33582D01*
X74290Y-33640D01*
X74290Y-33682D01*
X74304Y-33740D01*
X74318Y-33768D01*
X74347Y-33797D01*
X74390Y-33811D01*
X74461Y-33811D01*
X74147Y-33811D02*
X74090Y-33811D01*
X74061Y-33797D01*
X74047Y-33782D01*
X74018Y-33740D01*
X74004Y-33682D01*
X74004Y-33568D01*
X74018Y-33540D01*
X74032Y-33525D01*
X74061Y-33511D01*
X74118Y-33511D01*
X74147Y-33525D01*
X74161Y-33540D01*
X74175Y-33568D01*
X74175Y-33640D01*
X74161Y-33668D01*
X74147Y-33682D01*
X74118Y-33697D01*
X74061Y-33697D01*
X74032Y-33682D01*
X74018Y-33668D01*
X74004Y-33640D01*
X80164Y-36751D02*
X80164Y-36451D01*
X80092Y-36451D01*
X80050Y-36465D01*
X80021Y-36494D01*
X80007Y-36522D01*
X79992Y-36580D01*
X79992Y-36622D01*
X80007Y-36680D01*
X80021Y-36708D01*
X80050Y-36737D01*
X80092Y-36751D01*
X80164Y-36751D01*
X79707Y-36751D02*
X79878Y-36751D01*
X79792Y-36751D02*
X79792Y-36451D01*
X79821Y-36494D01*
X79850Y-36522D01*
X79878Y-36537D01*
X79592Y-36480D02*
X79578Y-36465D01*
X79550Y-36451D01*
X79478Y-36451D01*
X79450Y-36465D01*
X79435Y-36480D01*
X79421Y-36508D01*
X79421Y-36537D01*
X79435Y-36580D01*
X79607Y-36751D01*
X79421Y-36751D01*
X81591Y-36721D02*
X81591Y-36421D01*
X81520Y-36421D01*
X81477Y-36435D01*
X81448Y-36464D01*
X81434Y-36492D01*
X81420Y-36550D01*
X81420Y-36592D01*
X81434Y-36650D01*
X81448Y-36678D01*
X81477Y-36707D01*
X81520Y-36721D01*
X81591Y-36721D01*
X81320Y-36421D02*
X81120Y-36421D01*
X81248Y-36721D01*
X61771Y-32478D02*
X61471Y-32478D01*
X61471Y-32550D01*
X61485Y-32592D01*
X61514Y-32621D01*
X61542Y-32635D01*
X61600Y-32650D01*
X61642Y-32650D01*
X61700Y-32635D01*
X61728Y-32621D01*
X61757Y-32592D01*
X61771Y-32550D01*
X61771Y-32478D01*
X61471Y-32750D02*
X61471Y-32935D01*
X61585Y-32835D01*
X61585Y-32878D01*
X61600Y-32907D01*
X61614Y-32921D01*
X61642Y-32935D01*
X61714Y-32935D01*
X61742Y-32921D01*
X61757Y-32907D01*
X61771Y-32878D01*
X61771Y-32792D01*
X61757Y-32764D01*
X61742Y-32750D01*
X64261Y-32375D02*
X63961Y-32375D01*
X63961Y-32447D01*
X63975Y-32490D01*
X64004Y-32518D01*
X64032Y-32532D01*
X64090Y-32547D01*
X64132Y-32547D01*
X64190Y-32532D01*
X64218Y-32518D01*
X64247Y-32490D01*
X64261Y-32447D01*
X64261Y-32375D01*
X64261Y-32832D02*
X64261Y-32661D01*
X64261Y-32747D02*
X63961Y-32747D01*
X64004Y-32718D01*
X64032Y-32690D01*
X64047Y-32661D01*
X64261Y-33118D02*
X64261Y-32947D01*
X64261Y-33032D02*
X63961Y-33032D01*
X64004Y-33004D01*
X64032Y-32975D01*
X64047Y-32947D01*
G54D12*
X60177Y-47338D02*
X60189Y-47326D01*
X60201Y-47290D01*
X60201Y-47266D01*
X60189Y-47231D01*
X60165Y-47207D01*
X60141Y-47195D01*
X60094Y-47183D01*
X60058Y-47183D01*
X60010Y-47195D01*
X59986Y-47207D01*
X59963Y-47231D01*
X59951Y-47266D01*
X59951Y-47290D01*
X59963Y-47326D01*
X59975Y-47338D01*
X59951Y-47564D02*
X59951Y-47445D01*
X60070Y-47433D01*
X60058Y-47445D01*
X60046Y-47469D01*
X60046Y-47528D01*
X60058Y-47552D01*
X60070Y-47564D01*
X60094Y-47576D01*
X60153Y-47576D01*
X60177Y-47564D01*
X60189Y-47552D01*
X60201Y-47528D01*
X60201Y-47469D01*
X60189Y-47445D01*
X60177Y-47433D01*
X83501Y-47627D02*
X83513Y-47639D01*
X83549Y-47651D01*
X83573Y-47651D01*
X83608Y-47639D01*
X83632Y-47615D01*
X83644Y-47591D01*
X83656Y-47544D01*
X83656Y-47508D01*
X83644Y-47460D01*
X83632Y-47436D01*
X83608Y-47413D01*
X83573Y-47401D01*
X83549Y-47401D01*
X83513Y-47413D01*
X83501Y-47425D01*
X83287Y-47401D02*
X83335Y-47401D01*
X83358Y-47413D01*
X83370Y-47425D01*
X83394Y-47460D01*
X83406Y-47508D01*
X83406Y-47603D01*
X83394Y-47627D01*
X83382Y-47639D01*
X83358Y-47651D01*
X83311Y-47651D01*
X83287Y-47639D01*
X83275Y-47627D01*
X83263Y-47603D01*
X83263Y-47544D01*
X83275Y-47520D01*
X83287Y-47508D01*
X83311Y-47496D01*
X83358Y-47496D01*
X83382Y-47508D01*
X83394Y-47520D01*
X83406Y-47544D01*
X65671Y-46509D02*
X65552Y-46425D01*
X65671Y-46366D02*
X65421Y-46366D01*
X65421Y-46461D01*
X65433Y-46485D01*
X65445Y-46497D01*
X65468Y-46509D01*
X65504Y-46509D01*
X65528Y-46497D01*
X65540Y-46485D01*
X65552Y-46461D01*
X65552Y-46366D01*
X65671Y-46747D02*
X65671Y-46604D01*
X65671Y-46675D02*
X65421Y-46675D01*
X65456Y-46652D01*
X65480Y-46628D01*
X65492Y-46604D01*
X65421Y-46830D02*
X65421Y-46997D01*
X65671Y-46890D01*
X65051Y-40031D02*
X65170Y-40031D01*
X65170Y-39781D01*
X64849Y-39781D02*
X64968Y-39781D01*
X64980Y-39900D01*
X64968Y-39888D01*
X64944Y-39876D01*
X64885Y-39876D01*
X64861Y-39888D01*
X64849Y-39900D01*
X64837Y-39924D01*
X64837Y-39983D01*
X64849Y-40007D01*
X64861Y-40019D01*
X64885Y-40031D01*
X64944Y-40031D01*
X64968Y-40019D01*
X64980Y-40007D01*
X53006Y-36609D02*
X52887Y-36525D01*
X53006Y-36466D02*
X52756Y-36466D01*
X52756Y-36561D01*
X52768Y-36585D01*
X52780Y-36597D01*
X52803Y-36609D01*
X52839Y-36609D01*
X52863Y-36597D01*
X52875Y-36585D01*
X52887Y-36561D01*
X52887Y-36466D01*
X52839Y-36823D02*
X53006Y-36823D01*
X52744Y-36764D02*
X52922Y-36704D01*
X52922Y-36859D01*
X52756Y-37061D02*
X52756Y-37014D01*
X52768Y-36990D01*
X52780Y-36978D01*
X52815Y-36954D01*
X52863Y-36942D01*
X52958Y-36942D01*
X52982Y-36954D01*
X52994Y-36966D01*
X53006Y-36990D01*
X53006Y-37037D01*
X52994Y-37061D01*
X52982Y-37073D01*
X52958Y-37085D01*
X52899Y-37085D01*
X52875Y-37073D01*
X52863Y-37061D01*
X52851Y-37037D01*
X52851Y-36990D01*
X52863Y-36966D01*
X52875Y-36954D01*
X52899Y-36942D01*
X52031Y-36959D02*
X51912Y-36875D01*
X52031Y-36816D02*
X51781Y-36816D01*
X51781Y-36911D01*
X51793Y-36935D01*
X51805Y-36947D01*
X51828Y-36959D01*
X51864Y-36959D01*
X51888Y-36947D01*
X51900Y-36935D01*
X51912Y-36911D01*
X51912Y-36816D01*
X51864Y-37173D02*
X52031Y-37173D01*
X51769Y-37114D02*
X51947Y-37054D01*
X51947Y-37209D01*
X52031Y-37435D02*
X52031Y-37292D01*
X52031Y-37364D02*
X51781Y-37364D01*
X51816Y-37340D01*
X51840Y-37316D01*
X51852Y-37292D01*
X49331Y-37859D02*
X49212Y-37775D01*
X49331Y-37716D02*
X49081Y-37716D01*
X49081Y-37811D01*
X49093Y-37835D01*
X49105Y-37847D01*
X49128Y-37859D01*
X49164Y-37859D01*
X49188Y-37847D01*
X49200Y-37835D01*
X49212Y-37811D01*
X49212Y-37716D01*
X49081Y-37942D02*
X49081Y-38097D01*
X49176Y-38014D01*
X49176Y-38049D01*
X49188Y-38073D01*
X49200Y-38085D01*
X49224Y-38097D01*
X49283Y-38097D01*
X49307Y-38085D01*
X49319Y-38073D01*
X49331Y-38049D01*
X49331Y-37978D01*
X49319Y-37954D01*
X49307Y-37942D01*
X49331Y-38216D02*
X49331Y-38264D01*
X49319Y-38287D01*
X49307Y-38299D01*
X49271Y-38323D01*
X49224Y-38335D01*
X49128Y-38335D01*
X49105Y-38323D01*
X49093Y-38311D01*
X49081Y-38287D01*
X49081Y-38240D01*
X49093Y-38216D01*
X49105Y-38204D01*
X49128Y-38192D01*
X49188Y-38192D01*
X49212Y-38204D01*
X49224Y-38216D01*
X49235Y-38240D01*
X49235Y-38287D01*
X49224Y-38311D01*
X49212Y-38323D01*
X49188Y-38335D01*
X48381Y-37309D02*
X48262Y-37225D01*
X48381Y-37166D02*
X48131Y-37166D01*
X48131Y-37261D01*
X48143Y-37285D01*
X48155Y-37297D01*
X48178Y-37309D01*
X48214Y-37309D01*
X48238Y-37297D01*
X48250Y-37285D01*
X48262Y-37261D01*
X48262Y-37166D01*
X48131Y-37392D02*
X48131Y-37547D01*
X48226Y-37464D01*
X48226Y-37499D01*
X48238Y-37523D01*
X48250Y-37535D01*
X48274Y-37547D01*
X48333Y-37547D01*
X48357Y-37535D01*
X48369Y-37523D01*
X48381Y-37499D01*
X48381Y-37428D01*
X48369Y-37404D01*
X48357Y-37392D01*
X48238Y-37690D02*
X48226Y-37666D01*
X48214Y-37654D01*
X48190Y-37642D01*
X48178Y-37642D01*
X48155Y-37654D01*
X48143Y-37666D01*
X48131Y-37690D01*
X48131Y-37737D01*
X48143Y-37761D01*
X48155Y-37773D01*
X48178Y-37785D01*
X48190Y-37785D01*
X48214Y-37773D01*
X48226Y-37761D01*
X48238Y-37737D01*
X48238Y-37690D01*
X48250Y-37666D01*
X48262Y-37654D01*
X48285Y-37642D01*
X48333Y-37642D01*
X48357Y-37654D01*
X48369Y-37666D01*
X48381Y-37690D01*
X48381Y-37737D01*
X48369Y-37761D01*
X48357Y-37773D01*
X48333Y-37785D01*
X48285Y-37785D01*
X48262Y-37773D01*
X48250Y-37761D01*
X48238Y-37737D01*
X46331Y-37109D02*
X46212Y-37025D01*
X46331Y-36966D02*
X46081Y-36966D01*
X46081Y-37061D01*
X46093Y-37085D01*
X46105Y-37097D01*
X46128Y-37109D01*
X46164Y-37109D01*
X46188Y-37097D01*
X46200Y-37085D01*
X46212Y-37061D01*
X46212Y-36966D01*
X46081Y-37192D02*
X46081Y-37347D01*
X46176Y-37264D01*
X46176Y-37299D01*
X46188Y-37323D01*
X46200Y-37335D01*
X46224Y-37347D01*
X46283Y-37347D01*
X46307Y-37335D01*
X46319Y-37323D01*
X46331Y-37299D01*
X46331Y-37228D01*
X46319Y-37204D01*
X46307Y-37192D01*
X46081Y-37561D02*
X46081Y-37514D01*
X46093Y-37490D01*
X46105Y-37478D01*
X46140Y-37454D01*
X46188Y-37442D01*
X46283Y-37442D01*
X46307Y-37454D01*
X46319Y-37466D01*
X46331Y-37490D01*
X46331Y-37537D01*
X46319Y-37561D01*
X46307Y-37573D01*
X46283Y-37585D01*
X46224Y-37585D01*
X46200Y-37573D01*
X46188Y-37561D01*
X46176Y-37537D01*
X46176Y-37490D01*
X46188Y-37466D01*
X46200Y-37454D01*
X46224Y-37442D01*
X45406Y-37734D02*
X45287Y-37650D01*
X45406Y-37591D02*
X45156Y-37591D01*
X45156Y-37686D01*
X45168Y-37710D01*
X45180Y-37722D01*
X45203Y-37734D01*
X45239Y-37734D01*
X45263Y-37722D01*
X45275Y-37710D01*
X45287Y-37686D01*
X45287Y-37591D01*
X45156Y-37817D02*
X45156Y-37972D01*
X45251Y-37889D01*
X45251Y-37924D01*
X45263Y-37948D01*
X45275Y-37960D01*
X45299Y-37972D01*
X45358Y-37972D01*
X45382Y-37960D01*
X45394Y-37948D01*
X45406Y-37924D01*
X45406Y-37853D01*
X45394Y-37829D01*
X45382Y-37817D01*
X45156Y-38198D02*
X45156Y-38079D01*
X45275Y-38067D01*
X45263Y-38079D01*
X45251Y-38103D01*
X45251Y-38162D01*
X45263Y-38186D01*
X45275Y-38198D01*
X45299Y-38210D01*
X45358Y-38210D01*
X45382Y-38198D01*
X45394Y-38186D01*
X45406Y-38162D01*
X45406Y-38103D01*
X45394Y-38079D01*
X45382Y-38067D01*
X82412Y-30782D02*
X82427Y-30797D01*
X82470Y-30811D01*
X82498Y-30811D01*
X82541Y-30797D01*
X82570Y-30768D01*
X82584Y-30740D01*
X82598Y-30682D01*
X82598Y-30640D01*
X82584Y-30582D01*
X82570Y-30554D01*
X82541Y-30525D01*
X82498Y-30511D01*
X82470Y-30511D01*
X82427Y-30525D01*
X82412Y-30540D01*
X82298Y-30540D02*
X82284Y-30525D01*
X82255Y-30511D01*
X82184Y-30511D01*
X82155Y-30525D01*
X82141Y-30540D01*
X82127Y-30568D01*
X82127Y-30597D01*
X82141Y-30640D01*
X82312Y-30811D01*
X82127Y-30811D01*
X81984Y-30811D02*
X81927Y-30811D01*
X81898Y-30797D01*
X81884Y-30782D01*
X81855Y-30740D01*
X81841Y-30682D01*
X81841Y-30568D01*
X81855Y-30540D01*
X81870Y-30525D01*
X81898Y-30511D01*
X81955Y-30511D01*
X81984Y-30525D01*
X81998Y-30540D01*
X82012Y-30568D01*
X82012Y-30640D01*
X81998Y-30668D01*
X81984Y-30682D01*
X81955Y-30697D01*
X81898Y-30697D01*
X81870Y-30682D01*
X81855Y-30668D01*
X81841Y-30640D01*
X82072Y-32862D02*
X82087Y-32877D01*
X82130Y-32891D01*
X82158Y-32891D01*
X82201Y-32877D01*
X82230Y-32848D01*
X82244Y-32820D01*
X82258Y-32762D01*
X82258Y-32720D01*
X82244Y-32662D01*
X82230Y-32634D01*
X82201Y-32605D01*
X82158Y-32591D01*
X82130Y-32591D01*
X82087Y-32605D01*
X82072Y-32620D01*
X81958Y-32620D02*
X81944Y-32605D01*
X81915Y-32591D01*
X81844Y-32591D01*
X81815Y-32605D01*
X81801Y-32620D01*
X81787Y-32648D01*
X81787Y-32677D01*
X81801Y-32720D01*
X81972Y-32891D01*
X81787Y-32891D01*
X81615Y-32720D02*
X81644Y-32705D01*
X81658Y-32691D01*
X81672Y-32662D01*
X81672Y-32648D01*
X81658Y-32620D01*
X81644Y-32605D01*
X81615Y-32591D01*
X81558Y-32591D01*
X81530Y-32605D01*
X81515Y-32620D01*
X81501Y-32648D01*
X81501Y-32662D01*
X81515Y-32691D01*
X81530Y-32705D01*
X81558Y-32720D01*
X81615Y-32720D01*
X81644Y-32734D01*
X81658Y-32748D01*
X81672Y-32777D01*
X81672Y-32834D01*
X81658Y-32862D01*
X81644Y-32877D01*
X81615Y-32891D01*
X81558Y-32891D01*
X81530Y-32877D01*
X81515Y-32862D01*
X81501Y-32834D01*
X81501Y-32777D01*
X81515Y-32748D01*
X81530Y-32734D01*
X81558Y-32720D01*
X82822Y-35412D02*
X82837Y-35427D01*
X82880Y-35441D01*
X82908Y-35441D01*
X82951Y-35427D01*
X82980Y-35398D01*
X82994Y-35370D01*
X83008Y-35312D01*
X83008Y-35270D01*
X82994Y-35212D01*
X82980Y-35184D01*
X82951Y-35155D01*
X82908Y-35141D01*
X82880Y-35141D01*
X82837Y-35155D01*
X82822Y-35170D01*
X82708Y-35170D02*
X82694Y-35155D01*
X82665Y-35141D01*
X82594Y-35141D01*
X82565Y-35155D01*
X82551Y-35170D01*
X82537Y-35198D01*
X82537Y-35227D01*
X82551Y-35270D01*
X82722Y-35441D01*
X82537Y-35441D01*
X82437Y-35141D02*
X82237Y-35141D01*
X82365Y-35441D01*
X82982Y-36107D02*
X82997Y-36092D01*
X83011Y-36050D01*
X83011Y-36021D01*
X82997Y-35978D01*
X82968Y-35950D01*
X82940Y-35935D01*
X82882Y-35921D01*
X82840Y-35921D01*
X82782Y-35935D01*
X82754Y-35950D01*
X82725Y-35978D01*
X82711Y-36021D01*
X82711Y-36050D01*
X82725Y-36092D01*
X82740Y-36107D01*
X82740Y-36221D02*
X82725Y-36235D01*
X82711Y-36264D01*
X82711Y-36335D01*
X82725Y-36364D01*
X82740Y-36378D01*
X82768Y-36392D01*
X82797Y-36392D01*
X82840Y-36378D01*
X83011Y-36207D01*
X83011Y-36392D01*
X82711Y-36650D02*
X82711Y-36592D01*
X82725Y-36564D01*
X82740Y-36550D01*
X82782Y-36521D01*
X82840Y-36507D01*
X82954Y-36507D01*
X82982Y-36521D01*
X82997Y-36535D01*
X83011Y-36564D01*
X83011Y-36621D01*
X82997Y-36650D01*
X82982Y-36664D01*
X82954Y-36678D01*
X82882Y-36678D01*
X82854Y-36664D01*
X82840Y-36650D01*
X82825Y-36621D01*
X82825Y-36564D01*
X82840Y-36535D01*
X82854Y-36521D01*
X82882Y-36507D01*
X65360Y-41117D02*
X65372Y-41129D01*
X65408Y-41141D01*
X65432Y-41141D01*
X65467Y-41129D01*
X65491Y-41105D01*
X65503Y-41081D01*
X65515Y-41034D01*
X65515Y-40998D01*
X65503Y-40950D01*
X65491Y-40926D01*
X65467Y-40903D01*
X65432Y-40891D01*
X65408Y-40891D01*
X65372Y-40903D01*
X65360Y-40915D01*
X65277Y-40891D02*
X65122Y-40891D01*
X65205Y-40986D01*
X65170Y-40986D01*
X65146Y-40998D01*
X65134Y-41010D01*
X65122Y-41034D01*
X65122Y-41093D01*
X65134Y-41117D01*
X65146Y-41129D01*
X65170Y-41141D01*
X65241Y-41141D01*
X65265Y-41129D01*
X65277Y-41117D01*
X64967Y-40891D02*
X64944Y-40891D01*
X64920Y-40903D01*
X64908Y-40915D01*
X64896Y-40938D01*
X64884Y-40986D01*
X64884Y-41045D01*
X64896Y-41093D01*
X64908Y-41117D01*
X64920Y-41129D01*
X64944Y-41141D01*
X64967Y-41141D01*
X64991Y-41129D01*
X65003Y-41117D01*
X65015Y-41093D01*
X65027Y-41045D01*
X65027Y-40986D01*
X65015Y-40938D01*
X65003Y-40915D01*
X64991Y-40903D01*
X64967Y-40891D01*
X64145Y-32021D02*
X64229Y-31902D01*
X64288Y-32021D02*
X64288Y-31771D01*
X64193Y-31771D01*
X64169Y-31783D01*
X64157Y-31795D01*
X64145Y-31818D01*
X64145Y-31854D01*
X64157Y-31878D01*
X64169Y-31890D01*
X64193Y-31902D01*
X64288Y-31902D01*
X64050Y-31795D02*
X64038Y-31783D01*
X64014Y-31771D01*
X63955Y-31771D01*
X63931Y-31783D01*
X63919Y-31795D01*
X63907Y-31818D01*
X63907Y-31842D01*
X63919Y-31878D01*
X64062Y-32021D01*
X63907Y-32021D01*
X63693Y-31771D02*
X63740Y-31771D01*
X63764Y-31783D01*
X63776Y-31795D01*
X63800Y-31830D01*
X63812Y-31878D01*
X63812Y-31973D01*
X63800Y-31997D01*
X63788Y-32009D01*
X63764Y-32021D01*
X63717Y-32021D01*
X63693Y-32009D01*
X63681Y-31997D01*
X63669Y-31973D01*
X63669Y-31914D01*
X63681Y-31890D01*
X63693Y-31878D01*
X63717Y-31866D01*
X63764Y-31866D01*
X63788Y-31878D01*
X63800Y-31890D01*
X63812Y-31914D01*
X67535Y-31971D02*
X67619Y-31852D01*
X67678Y-31971D02*
X67678Y-31721D01*
X67583Y-31721D01*
X67559Y-31733D01*
X67547Y-31745D01*
X67535Y-31768D01*
X67535Y-31804D01*
X67547Y-31828D01*
X67559Y-31840D01*
X67583Y-31852D01*
X67678Y-31852D01*
X67309Y-31721D02*
X67428Y-31721D01*
X67440Y-31840D01*
X67428Y-31828D01*
X67404Y-31816D01*
X67345Y-31816D01*
X67321Y-31828D01*
X67309Y-31840D01*
X67297Y-31864D01*
X67297Y-31923D01*
X67309Y-31947D01*
X67321Y-31959D01*
X67345Y-31971D01*
X67404Y-31971D01*
X67428Y-31959D01*
X67440Y-31947D01*
X67214Y-31721D02*
X67047Y-31721D01*
X67154Y-31971D01*
M02*
