M48
INCH,TZ
T10C0.013
T11C0.024
T12C0.031
T13C0.040
T14C0.043
T15C0.047
T16C0.050
T17C0.051
T18C0.059
T19C0.062
T20C0.063
T21C0.071
T22C0.118
T23C0.125
%
T10
X028950Y-31400
X032000Y-31900
X038025Y-32550
X039975Y-31750
X040000Y-32650
X044850Y-39850
X046200Y-39975
X048650Y-48300
X048775Y-39025
X052550Y-38225
X054500Y-38150
X055450Y-38650
X056875Y-45150
X058000Y-37950
X058950Y-30675
X060525Y-42725
X060525Y-43450
X060800Y-41150
X061600Y-38400
X061900Y-42600
X062550Y-39900
X063100Y-40700
X063700Y-46300
X063750Y-38500
X064100Y-40600
X064425Y-42900
X064450Y-53200
X064800Y-38550
X064825Y-43200
X064840Y-41900
X064900Y-36300
X065125Y-42600
X065250Y-38650
X065850Y-41800
X065900Y-38100
X066400Y-36850
X067925Y-40025
X070700Y-36700
X070800Y-41100
X071100Y-37450
X071450Y-38450
X071600Y-39400
X072200Y-38750
X074450Y-38750
X074940Y-38200
X075000Y-39500
X075850Y-40400
X076400Y-37500
X076900Y-37300
X081500Y-38000
X082050Y-40000
X083300Y-38000
T11
X028100Y-53200
X029400Y-32850
X031525Y-51050
X031875Y-36225
X031950Y-39600
X033175Y-42625
X033225Y-47050
X033850Y-32850
X033900Y-34725
X035950Y-36000
X036800Y-47100
X047275Y-48925
X050400Y-50500
X057290Y-32310
X058100Y-32700
X060100Y-33585
X060600Y-46500
X060700Y-48500
X061500Y-46700
X063300Y-48400
X064100Y-46700
X064100Y-54300
X065635Y-31265
X067700Y-41050
X069650Y-53550
X069900Y-49625
X069900Y-54700
X071600Y-50800
X071700Y-51600
X072050Y-37750
X073500Y-36150
X073850Y-43900
X073945Y-37055
X073950Y-44650
X076350Y-38000
X077150Y-36550
X077850Y-34200
X078600Y-36550
X083800Y-46700
T12
X036838Y-31190
X037626Y-31190
X038413Y-31190
T13
X035200Y-41700
X035200Y-42700
X035300Y-47500
X035300Y-48500
X035970Y-43890
X035970Y-45620
X036970Y-43890
X036970Y-45620
X041790Y-35280
X042790Y-35280
X043390Y-54280
X043790Y-35280
X044390Y-54280
X044790Y-35280
X045390Y-54280
X045790Y-35280
X046390Y-54280
X046790Y-35280
X047390Y-54280
X047790Y-35280
X048390Y-54280
X048790Y-35280
X049390Y-54280
X050390Y-35280
X050390Y-54280
X051390Y-35280
X052390Y-35280
X052390Y-54280
X053390Y-35280
X053390Y-54280
X054390Y-35280
X054390Y-54280
X055390Y-35280
X055390Y-54280
X056390Y-35280
X056390Y-54280
X057390Y-35280
X057390Y-54280
X061160Y-34010
X062160Y-34010
X063160Y-34010
X068265Y-33865
X069265Y-33865
X070265Y-33865
X073450Y-32400
X074000Y-34850
X074450Y-32400
X075000Y-34850
X075450Y-32400
X076000Y-34850
X078350Y-32450
X078650Y-37650
X078650Y-38650
X078650Y-39650
X078915Y-34835
X079350Y-32450
X079650Y-37650
X079650Y-38650
X079650Y-39650
X079915Y-34835
X080350Y-32450
X080915Y-34835
T14
X043966Y-31700
X044950Y-31700
X045934Y-31700
X050616Y-31750
X051600Y-31750
X052584Y-31750
T15
X084800Y-31293
X084800Y-32670
X084800Y-34048
X084800Y-35426
X084800Y-36804
X084800Y-38182
X084800Y-39560
X084800Y-40938
X084800Y-42316
X084800Y-43694
X084800Y-45072
X084800Y-46450
T16
X075360Y-51660
X076160Y-49300
X076160Y-54020
X080960Y-49300
X080960Y-54020
T17
X084700Y-49413
X084700Y-51381
X084700Y-53350
T18
X062190Y-31355
X069145Y-31240
X036012Y-31190
X039240Y-31190
T19
X059650Y-37200
X065700Y-33550
X066500Y-40600
X067800Y-37100
X068800Y-51650
X072300Y-49600
X076850Y-32600
X080900Y-39400
T20
X043021Y-32684
X046879Y-32684
X049671Y-32734
X053529Y-32734
T21
X025974Y-33700
X025974Y-35354
X025974Y-37007
X025974Y-38661
X025974Y-40314
X025974Y-41968
X025974Y-43621
X025974Y-45275
X025974Y-46928
X025974Y-48582
X025974Y-50235
X025974Y-51889
X028139Y-33700
X028139Y-35354
X028139Y-37007
X028139Y-38661
X028139Y-40314
X028139Y-41968
X028139Y-43621
X028139Y-45275
X028139Y-46928
X028139Y-48582
X028139Y-50235
X028139Y-51889
T22
X023100Y-33700
X023100Y-51889
X023100Y-54100
X023200Y-31400
X072850Y-52400
X081900Y-31550
T23
X037890Y-54280
X038390Y-35280
X058390Y-41280
X058390Y-52280
M30

