G04 (created by PCBNEW (2013-03-19 BZR 4004)-stable) date 2/16/2014 5:39:05 PM*
%MOIN*%
G04 Gerber Fmt 3.4, Leading zero omitted, Abs format*
%FSLAX34Y34*%
G01*
G70*
G90*
G04 APERTURE LIST*
%ADD10C,0.006*%
%ADD11C,0.0001*%
%ADD12R,0.0669291X0.0984252*%
%ADD13R,0.035X0.055*%
%ADD14R,0.0511811X0.0590551*%
%ADD15R,0.016X0.05*%
%ADD16R,0.045X0.02*%
%ADD17R,0.06X0.06*%
%ADD18C,0.06*%
%ADD19R,0.055X0.035*%
%ADD20R,0.0787402X0.0787402*%
%ADD21C,0.0787402*%
%ADD22R,0.0984252X0.0669291*%
%ADD23R,0.07X0.11*%
%ADD24R,0.08X0.06*%
%ADD25R,0.0394X0.0276*%
%ADD26R,0.0531496X0.0255906*%
%ADD27R,0.145669X0.0472441*%
%ADD28C,0.075*%
%ADD29C,0.16*%
%ADD30R,0.1X0.2*%
%ADD31R,0.0314X0.0314*%
%ADD32C,0.0984252*%
%ADD33C,0.07*%
%ADD34R,0.07X0.07*%
%ADD35O,0.0866142X0.110236*%
%ADD36C,0.0629921*%
%ADD37C,0.0551181*%
%ADD38O,0.06X0.1*%
%ADD39O,0.125X0.125*%
%ADD40C,0.11811*%
%ADD41C,0.1*%
%ADD42R,0.065X0.12*%
%ADD43R,0.24X0.24*%
%ADD44C,0.046*%
%ADD45C,0.02*%
%ADD46C,0.024*%
%ADD47C,0.036*%
%ADD48C,0.048*%
%ADD49C,0.01*%
%ADD50C,0.15*%
G04 APERTURE END LIST*
G54D10*
G54D11*
G36*
X63686Y-51477D02*
X63479Y-51522D01*
X63365Y-51549D01*
X63297Y-51577D01*
X63255Y-51622D01*
X63218Y-51697D01*
X63208Y-51721D01*
X63145Y-51876D01*
X63263Y-52040D01*
X63381Y-52205D01*
X63220Y-52364D01*
X63058Y-52523D01*
X62916Y-52420D01*
X62790Y-52343D01*
X62695Y-52318D01*
X62637Y-52345D01*
X62634Y-52350D01*
X62609Y-52376D01*
X62582Y-52370D01*
X62548Y-52324D01*
X62503Y-52231D01*
X62440Y-52086D01*
X62417Y-52030D01*
X62273Y-51677D01*
X62377Y-51595D01*
X62477Y-51478D01*
X62526Y-51335D01*
X62523Y-51184D01*
X62470Y-51041D01*
X62380Y-50935D01*
X62255Y-50869D01*
X62108Y-50846D01*
X61965Y-50870D01*
X61871Y-50919D01*
X61754Y-51048D01*
X61696Y-51194D01*
X61697Y-51346D01*
X61757Y-51492D01*
X61868Y-51611D01*
X61954Y-51679D01*
X61814Y-52023D01*
X61757Y-52161D01*
X61710Y-52275D01*
X61678Y-52351D01*
X61666Y-52376D01*
X61634Y-52371D01*
X61573Y-52346D01*
X61499Y-52325D01*
X61431Y-52345D01*
X61393Y-52367D01*
X61281Y-52440D01*
X61208Y-52480D01*
X61157Y-52486D01*
X61109Y-52458D01*
X61046Y-52396D01*
X61010Y-52358D01*
X60856Y-52200D01*
X60968Y-52037D01*
X61079Y-51874D01*
X61019Y-51720D01*
X60982Y-51636D01*
X60944Y-51585D01*
X60884Y-51554D01*
X60783Y-51528D01*
X60753Y-51522D01*
X60547Y-51477D01*
X60557Y-51256D01*
X60567Y-51036D01*
X60700Y-51010D01*
X60805Y-50989D01*
X60892Y-50970D01*
X60904Y-50967D01*
X60969Y-50919D01*
X61028Y-50808D01*
X61032Y-50800D01*
X61089Y-50650D01*
X60965Y-50481D01*
X60841Y-50312D01*
X60986Y-50164D01*
X61066Y-50087D01*
X61129Y-50033D01*
X61158Y-50016D01*
X61199Y-50034D01*
X61276Y-50079D01*
X61355Y-50130D01*
X61524Y-50244D01*
X61662Y-50186D01*
X61736Y-50151D01*
X61782Y-50113D01*
X61811Y-50052D01*
X61837Y-49950D01*
X61847Y-49904D01*
X61894Y-49680D01*
X62112Y-49690D01*
X62330Y-49700D01*
X62382Y-49914D01*
X62413Y-50030D01*
X62443Y-50101D01*
X62487Y-50144D01*
X62557Y-50180D01*
X62571Y-50186D01*
X62709Y-50244D01*
X62869Y-50130D01*
X62961Y-50069D01*
X63034Y-50027D01*
X63066Y-50016D01*
X63107Y-50039D01*
X63177Y-50096D01*
X63243Y-50159D01*
X63383Y-50302D01*
X63263Y-50479D01*
X63144Y-50657D01*
X63200Y-50803D01*
X63231Y-50878D01*
X63264Y-50926D01*
X63316Y-50958D01*
X63402Y-50983D01*
X63534Y-51010D01*
X63667Y-51036D01*
X63677Y-51256D01*
X63686Y-51477D01*
X63686Y-51477D01*
X63686Y-51477D01*
G37*
G54D12*
X70670Y-54290D03*
X70670Y-52640D03*
G54D13*
X72325Y-50800D03*
X73075Y-50800D03*
X70775Y-50800D03*
X70025Y-50800D03*
X68325Y-49600D03*
X69075Y-49600D03*
G54D14*
X65200Y-53250D03*
X65200Y-54250D03*
X68750Y-54250D03*
X68750Y-53250D03*
G54D15*
X65300Y-37900D03*
X65050Y-37900D03*
X64790Y-37900D03*
X64530Y-37900D03*
X64280Y-37900D03*
X64020Y-37900D03*
X63760Y-37900D03*
X63510Y-37900D03*
X63250Y-37900D03*
X63000Y-37900D03*
X63000Y-40000D03*
X63250Y-40000D03*
X63510Y-40000D03*
X63760Y-40000D03*
X64020Y-40000D03*
X64280Y-40000D03*
X64530Y-40000D03*
X64790Y-40000D03*
X65050Y-40000D03*
X65300Y-40000D03*
G54D16*
X73150Y-37000D03*
X73150Y-37500D03*
X73150Y-38000D03*
X73150Y-38500D03*
X73150Y-39000D03*
X73150Y-39500D03*
X73150Y-40000D03*
X75650Y-40000D03*
X75650Y-39500D03*
X75650Y-38500D03*
X75650Y-38000D03*
X75650Y-37500D03*
X75650Y-37000D03*
X75650Y-39000D03*
G54D17*
X78650Y-37650D03*
G54D18*
X79650Y-37650D03*
X78650Y-38650D03*
X79650Y-38650D03*
X78650Y-39650D03*
X79650Y-39650D03*
G54D19*
X62150Y-38075D03*
X62150Y-38825D03*
G54D13*
X65075Y-36850D03*
X64325Y-36850D03*
G54D20*
X84700Y-53350D03*
G54D21*
X84700Y-51381D03*
X84700Y-49412D03*
G54D20*
X84800Y-46450D03*
G54D21*
X84800Y-45072D03*
X84800Y-43694D03*
X84800Y-42316D03*
X84800Y-40938D03*
X84800Y-39560D03*
X84800Y-38182D03*
X84800Y-36804D03*
X84800Y-35426D03*
X84800Y-34048D03*
X84800Y-32670D03*
X84800Y-31292D03*
G54D16*
X63750Y-42400D03*
X63750Y-42900D03*
X63750Y-43400D03*
X63750Y-43900D03*
X61250Y-43900D03*
X61250Y-43400D03*
X61250Y-42900D03*
X61250Y-42400D03*
G54D22*
X81250Y-40950D03*
X82900Y-40950D03*
G54D13*
X68075Y-39450D03*
X68825Y-39450D03*
G54D23*
X30350Y-34875D03*
X31750Y-34875D03*
X31800Y-33350D03*
X30400Y-33350D03*
G54D24*
X32925Y-34925D03*
X32925Y-36225D03*
X32800Y-31525D03*
X32800Y-32825D03*
X33100Y-41300D03*
X33100Y-40000D03*
G54D13*
X31200Y-31300D03*
X30450Y-31300D03*
X55000Y-32875D03*
X55750Y-32875D03*
X54925Y-31000D03*
X55675Y-31000D03*
G54D25*
X62200Y-47075D03*
X62200Y-46700D03*
X62200Y-46325D03*
X63200Y-46325D03*
X63200Y-46700D03*
X63200Y-47075D03*
G54D26*
X67800Y-47400D03*
X67800Y-48344D03*
G54D27*
X66100Y-47500D03*
X66100Y-46397D03*
G54D28*
X75360Y-51660D03*
X76160Y-49300D03*
X80960Y-49300D03*
X80960Y-54020D03*
X76160Y-54020D03*
G54D29*
X35300Y-44750D03*
G54D17*
X35300Y-47500D03*
G54D18*
X35300Y-48500D03*
G54D30*
X35300Y-48000D03*
G54D10*
G36*
X36822Y-45846D02*
X37246Y-45422D01*
X37670Y-45846D01*
X37246Y-46270D01*
X36822Y-45846D01*
X36822Y-45846D01*
G37*
G54D18*
X37953Y-46553D03*
G54D10*
G36*
X36539Y-45846D02*
X37246Y-45139D01*
X38660Y-46553D01*
X37953Y-47260D01*
X36539Y-45846D01*
X36539Y-45846D01*
G37*
G54D17*
X35200Y-42700D03*
G54D18*
X35200Y-41700D03*
G54D30*
X35200Y-42200D03*
G54D10*
G36*
X36846Y-44177D02*
X36422Y-43753D01*
X36846Y-43329D01*
X37270Y-43753D01*
X36846Y-44177D01*
X36846Y-44177D01*
G37*
G54D18*
X37553Y-43046D03*
G54D10*
G36*
X36846Y-44460D02*
X36139Y-43753D01*
X37553Y-42339D01*
X38260Y-43046D01*
X36846Y-44460D01*
X36846Y-44460D01*
G37*
G54D19*
X61125Y-37075D03*
X61125Y-37825D03*
G54D10*
G36*
X54750Y-37400D02*
X54200Y-37400D01*
X54400Y-36750D01*
X54550Y-36750D01*
X54750Y-37400D01*
X54750Y-37400D01*
G37*
G36*
X54750Y-36000D02*
X54550Y-36650D01*
X54400Y-36650D01*
X54200Y-36000D01*
X54750Y-36000D01*
X54750Y-36000D01*
G37*
G36*
X55675Y-37700D02*
X55125Y-37700D01*
X55325Y-37050D01*
X55475Y-37050D01*
X55675Y-37700D01*
X55675Y-37700D01*
G37*
G36*
X55675Y-36300D02*
X55475Y-36950D01*
X55325Y-36950D01*
X55125Y-36300D01*
X55675Y-36300D01*
X55675Y-36300D01*
G37*
G36*
X53700Y-37700D02*
X53150Y-37700D01*
X53350Y-37050D01*
X53500Y-37050D01*
X53700Y-37700D01*
X53700Y-37700D01*
G37*
G36*
X53700Y-36300D02*
X53500Y-36950D01*
X53350Y-36950D01*
X53150Y-36300D01*
X53700Y-36300D01*
X53700Y-36300D01*
G37*
G36*
X47075Y-38350D02*
X46525Y-38350D01*
X46725Y-37700D01*
X46875Y-37700D01*
X47075Y-38350D01*
X47075Y-38350D01*
G37*
G36*
X47075Y-36950D02*
X46875Y-37600D01*
X46725Y-37600D01*
X46525Y-36950D01*
X47075Y-36950D01*
X47075Y-36950D01*
G37*
G36*
X54575Y-52720D02*
X54025Y-52720D01*
X54225Y-52070D01*
X54375Y-52070D01*
X54575Y-52720D01*
X54575Y-52720D01*
G37*
G36*
X54575Y-51320D02*
X54375Y-51970D01*
X54225Y-51970D01*
X54025Y-51320D01*
X54575Y-51320D01*
X54575Y-51320D01*
G37*
G36*
X55550Y-52225D02*
X55000Y-52225D01*
X55200Y-51575D01*
X55350Y-51575D01*
X55550Y-52225D01*
X55550Y-52225D01*
G37*
G36*
X55550Y-50825D02*
X55350Y-51475D01*
X55200Y-51475D01*
X55000Y-50825D01*
X55550Y-50825D01*
X55550Y-50825D01*
G37*
G36*
X53550Y-52250D02*
X53000Y-52250D01*
X53200Y-51600D01*
X53350Y-51600D01*
X53550Y-52250D01*
X53550Y-52250D01*
G37*
G36*
X53550Y-50850D02*
X53350Y-51500D01*
X53200Y-51500D01*
X53000Y-50850D01*
X53550Y-50850D01*
X53550Y-50850D01*
G37*
G36*
X52475Y-52620D02*
X51925Y-52620D01*
X52125Y-51970D01*
X52275Y-51970D01*
X52475Y-52620D01*
X52475Y-52620D01*
G37*
G36*
X52475Y-51220D02*
X52275Y-51870D01*
X52125Y-51870D01*
X51925Y-51220D01*
X52475Y-51220D01*
X52475Y-51220D01*
G37*
G36*
X44075Y-37925D02*
X43525Y-37925D01*
X43725Y-37275D01*
X43875Y-37275D01*
X44075Y-37925D01*
X44075Y-37925D01*
G37*
G36*
X44075Y-36525D02*
X43875Y-37175D01*
X43725Y-37175D01*
X43525Y-36525D01*
X44075Y-36525D01*
X44075Y-36525D01*
G37*
G36*
X48525Y-49925D02*
X47975Y-49925D01*
X48175Y-49275D01*
X48325Y-49275D01*
X48525Y-49925D01*
X48525Y-49925D01*
G37*
G36*
X48525Y-48525D02*
X48325Y-49175D01*
X48175Y-49175D01*
X47975Y-48525D01*
X48525Y-48525D01*
X48525Y-48525D01*
G37*
G36*
X50675Y-52570D02*
X50125Y-52570D01*
X50325Y-51920D01*
X50475Y-51920D01*
X50675Y-52570D01*
X50675Y-52570D01*
G37*
G36*
X50675Y-51170D02*
X50475Y-51820D01*
X50325Y-51820D01*
X50125Y-51170D01*
X50675Y-51170D01*
X50675Y-51170D01*
G37*
G36*
X57625Y-37700D02*
X57075Y-37700D01*
X57275Y-37050D01*
X57425Y-37050D01*
X57625Y-37700D01*
X57625Y-37700D01*
G37*
G36*
X57625Y-36300D02*
X57425Y-36950D01*
X57275Y-36950D01*
X57075Y-36300D01*
X57625Y-36300D01*
X57625Y-36300D01*
G37*
G36*
X50700Y-37425D02*
X50150Y-37425D01*
X50350Y-36775D01*
X50500Y-36775D01*
X50700Y-37425D01*
X50700Y-37425D01*
G37*
G36*
X50700Y-36025D02*
X50500Y-36675D01*
X50350Y-36675D01*
X50150Y-36025D01*
X50700Y-36025D01*
X50700Y-36025D01*
G37*
G36*
X49675Y-49900D02*
X49125Y-49900D01*
X49325Y-49250D01*
X49475Y-49250D01*
X49675Y-49900D01*
X49675Y-49900D01*
G37*
G36*
X49675Y-48500D02*
X49475Y-49150D01*
X49325Y-49150D01*
X49125Y-48500D01*
X49675Y-48500D01*
X49675Y-48500D01*
G37*
G54D19*
X82680Y-35665D03*
X82680Y-36415D03*
G54D13*
X62525Y-37100D03*
X63275Y-37100D03*
G54D31*
X65900Y-51345D03*
X65900Y-50755D03*
G54D32*
X69145Y-31240D03*
X62190Y-31355D03*
G54D33*
X62160Y-34010D03*
X63160Y-34010D03*
G54D34*
X61160Y-34010D03*
G54D33*
X79915Y-34835D03*
X80915Y-34835D03*
G54D34*
X78915Y-34835D03*
G54D33*
X75000Y-34850D03*
X76000Y-34850D03*
G54D34*
X74000Y-34850D03*
G54D33*
X69265Y-33865D03*
X70265Y-33865D03*
G54D34*
X68265Y-33865D03*
G54D35*
X46879Y-32566D03*
X43020Y-32566D03*
G54D36*
X44950Y-31700D03*
X45934Y-31700D03*
X43965Y-31700D03*
G54D35*
X53529Y-32616D03*
X49670Y-32616D03*
G54D36*
X51600Y-31750D03*
X52584Y-31750D03*
X50615Y-31750D03*
G54D37*
X38413Y-31190D03*
X37625Y-31190D03*
X36838Y-31190D03*
G54D38*
X48790Y-35280D03*
X47790Y-35280D03*
X46790Y-35280D03*
X45790Y-35280D03*
X44790Y-35280D03*
X43790Y-35280D03*
X42790Y-35280D03*
X41790Y-35280D03*
X46390Y-54280D03*
X45390Y-54280D03*
X44390Y-54280D03*
X43390Y-54280D03*
X47390Y-54280D03*
X48390Y-54280D03*
X49390Y-54280D03*
X50390Y-54280D03*
X52390Y-54280D03*
X53390Y-54280D03*
X54390Y-54280D03*
X55390Y-54280D03*
X56390Y-54280D03*
X57390Y-54280D03*
X57390Y-35280D03*
X56390Y-35280D03*
X55390Y-35280D03*
X54390Y-35280D03*
X53390Y-35280D03*
X52390Y-35280D03*
X51390Y-35280D03*
X50390Y-35280D03*
G54D39*
X58390Y-52280D03*
X58390Y-41280D03*
X38390Y-35280D03*
X37890Y-54280D03*
G54D40*
X25974Y-51888D03*
X25974Y-50235D03*
X25974Y-48581D03*
X25974Y-46928D03*
X25974Y-45274D03*
X25974Y-43621D03*
X25974Y-41967D03*
X25974Y-40314D03*
X25974Y-38660D03*
X25974Y-37007D03*
X25974Y-35353D03*
X25974Y-33700D03*
X28139Y-51888D03*
X28139Y-50235D03*
X28139Y-48581D03*
X28139Y-46928D03*
X28139Y-45274D03*
X28139Y-43621D03*
X28139Y-41967D03*
X28139Y-40314D03*
X28139Y-38660D03*
X28139Y-37007D03*
X28139Y-35353D03*
X28139Y-33700D03*
G54D41*
X67800Y-37100D03*
X76850Y-32600D03*
X65700Y-33550D03*
X72300Y-49600D03*
X68800Y-51650D03*
X59650Y-37200D03*
X80900Y-39400D03*
X66500Y-40600D03*
G54D42*
X79350Y-40800D03*
G54D43*
X78450Y-43300D03*
G54D42*
X77550Y-40800D03*
X71650Y-40850D03*
G54D43*
X70750Y-43350D03*
G54D42*
X69850Y-40850D03*
G54D24*
X68650Y-42350D03*
X68650Y-41050D03*
G54D13*
X82775Y-39400D03*
X82025Y-39400D03*
X82775Y-38600D03*
X82025Y-38600D03*
G54D19*
X76500Y-40825D03*
X76500Y-40075D03*
G54D13*
X73325Y-41050D03*
X74075Y-41050D03*
G54D19*
X72600Y-40625D03*
X72600Y-41375D03*
G54D17*
X75450Y-32400D03*
G54D18*
X74450Y-32400D03*
X73450Y-32400D03*
G54D17*
X78350Y-32450D03*
G54D18*
X79350Y-32450D03*
X80350Y-32450D03*
G54D44*
X73950Y-44650D03*
X28100Y-53200D03*
X50400Y-50500D03*
X71600Y-50800D03*
X31525Y-51050D03*
X33900Y-34725D03*
X58100Y-32700D03*
G54D45*
X28950Y-31400D03*
G54D44*
X35950Y-36000D03*
X33225Y-47050D03*
X60600Y-46500D03*
X36800Y-47100D03*
G54D45*
X61900Y-42600D03*
X64800Y-38550D03*
X81500Y-38000D03*
G54D44*
X33175Y-42625D03*
X29400Y-32850D03*
X60100Y-33585D03*
X33850Y-32850D03*
G54D45*
X65850Y-41800D03*
X58000Y-37950D03*
X70700Y-36700D03*
X56875Y-45150D03*
X46200Y-39975D03*
X44850Y-39850D03*
X64450Y-53200D03*
X60525Y-43450D03*
X60800Y-41150D03*
X39975Y-31750D03*
X40000Y-32650D03*
X48775Y-39025D03*
X65125Y-42600D03*
X54500Y-38150D03*
X64840Y-41900D03*
X55450Y-38650D03*
X64825Y-43200D03*
X52550Y-38225D03*
X60525Y-42725D03*
G54D44*
X61500Y-46700D03*
X63300Y-48400D03*
G54D45*
X63700Y-46300D03*
X58950Y-30675D03*
G54D44*
X57290Y-32310D03*
G54D45*
X65900Y-38100D03*
X64900Y-36300D03*
X63700Y-38500D03*
X74940Y-38200D03*
G54D44*
X73500Y-36150D03*
G54D45*
X61600Y-38400D03*
X67925Y-40025D03*
G54D44*
X72050Y-37750D03*
X77150Y-36550D03*
X77850Y-34200D03*
G54D45*
X75850Y-40400D03*
X83300Y-38000D03*
X64425Y-42900D03*
G54D44*
X73850Y-43900D03*
G54D45*
X62550Y-39900D03*
G54D44*
X67700Y-41050D03*
X73945Y-37055D03*
X78600Y-36550D03*
X76350Y-38000D03*
X31875Y-36225D03*
G54D45*
X32000Y-31900D03*
G54D44*
X47275Y-48925D03*
G54D45*
X48650Y-48300D03*
G54D44*
X31950Y-39600D03*
X83800Y-46700D03*
X64100Y-46700D03*
X60700Y-48500D03*
X65635Y-31265D03*
G54D45*
X38025Y-32550D03*
G54D44*
X69900Y-49625D03*
G54D45*
X71450Y-38450D03*
X72200Y-38750D03*
X82050Y-40000D03*
X63810Y-40620D03*
X64190Y-40550D03*
X71100Y-37450D03*
X70800Y-41100D03*
X71600Y-39400D03*
X74450Y-38750D03*
X75000Y-39500D03*
X76400Y-37500D03*
X76900Y-37300D03*
X66400Y-36850D03*
X65250Y-38650D03*
G54D44*
X64100Y-54300D03*
X69650Y-53550D03*
X71700Y-51600D03*
X69900Y-54700D03*
G54D46*
X50400Y-50500D02*
X50400Y-51495D01*
X70775Y-50800D02*
X71600Y-50800D01*
X71600Y-50800D02*
X72325Y-50800D01*
G54D47*
X30350Y-34875D02*
X30350Y-49875D01*
X30350Y-49875D02*
X31525Y-51050D01*
G54D48*
X31750Y-34875D02*
X32875Y-34875D01*
X32875Y-34875D02*
X32925Y-34925D01*
G54D47*
X32925Y-34925D02*
X33700Y-34925D01*
X33700Y-34925D02*
X33900Y-34725D01*
G54D49*
X29700Y-31300D02*
X29050Y-31300D01*
X29050Y-31300D02*
X28950Y-31400D01*
X30450Y-31300D02*
X29700Y-31300D01*
X29700Y-31300D02*
X29675Y-31300D01*
G54D46*
X64200Y-47600D02*
X66000Y-47600D01*
X64200Y-47600D02*
X62300Y-47600D01*
X62300Y-47600D02*
X62200Y-47500D01*
X62200Y-47075D02*
X62200Y-47500D01*
X66000Y-47600D02*
X66100Y-47500D01*
X62200Y-47075D02*
X61825Y-47075D01*
X60600Y-47200D02*
X60600Y-46500D01*
X60800Y-47400D02*
X60600Y-47200D01*
X61500Y-47400D02*
X60800Y-47400D01*
X61825Y-47075D02*
X61500Y-47400D01*
G54D49*
X61250Y-42400D02*
X61700Y-42400D01*
X61700Y-42400D02*
X61900Y-42600D01*
X64790Y-38540D02*
X64790Y-37900D01*
X64800Y-38550D02*
X64790Y-38540D01*
G54D46*
X33100Y-41300D02*
X33100Y-42550D01*
X33100Y-42550D02*
X33175Y-42625D01*
G54D47*
X29950Y-33350D02*
X30400Y-33350D01*
X29400Y-32850D02*
X29950Y-33350D01*
G54D46*
X62160Y-34010D02*
X62160Y-33980D01*
X60665Y-33020D02*
X60100Y-33585D01*
X61200Y-33020D02*
X60665Y-33020D01*
X62160Y-33980D02*
X61200Y-33020D01*
G54D49*
X32800Y-32825D02*
X32800Y-33125D01*
X32575Y-33350D02*
X31800Y-33350D01*
X32800Y-33125D02*
X32575Y-33350D01*
G54D47*
X32800Y-32825D02*
X33825Y-32825D01*
X33825Y-32825D02*
X33850Y-32850D01*
G54D46*
X62155Y-33764D02*
X62155Y-34003D01*
X77550Y-40800D02*
X77550Y-41600D01*
X72900Y-41800D02*
X72600Y-42100D01*
X77350Y-41800D02*
X72900Y-41800D01*
X77550Y-41600D02*
X77350Y-41800D01*
X72600Y-41375D02*
X72600Y-42100D01*
X72600Y-42100D02*
X72600Y-42250D01*
X72600Y-42250D02*
X72550Y-42300D01*
G54D49*
X54300Y-51645D02*
X54300Y-46375D01*
X65350Y-44525D02*
X66475Y-44525D01*
X66475Y-44525D02*
X68650Y-42350D01*
X65525Y-44525D02*
X65550Y-44500D01*
X56150Y-44525D02*
X65350Y-44525D01*
X65350Y-44525D02*
X65525Y-44525D01*
X54300Y-46375D02*
X56150Y-44525D01*
X66800Y-41800D02*
X65850Y-41800D01*
X66800Y-41800D02*
X71425Y-41800D01*
X71425Y-41800D02*
X71650Y-41575D01*
X71650Y-40850D02*
X71650Y-41575D01*
X57350Y-37375D02*
X57350Y-37600D01*
X57700Y-37950D02*
X58000Y-37950D01*
X57350Y-37600D02*
X57700Y-37950D01*
X70575Y-36725D02*
X70675Y-36725D01*
X70675Y-36725D02*
X70700Y-36700D01*
X46800Y-38025D02*
X46800Y-38825D01*
X70200Y-36725D02*
X70575Y-36725D01*
X70575Y-36725D02*
X70600Y-36725D01*
X68975Y-35500D02*
X70200Y-36725D01*
X60650Y-35500D02*
X68975Y-35500D01*
X59550Y-34400D02*
X60650Y-35500D01*
X50200Y-34400D02*
X59550Y-34400D01*
X49500Y-35100D02*
X50200Y-34400D01*
X49500Y-37225D02*
X49500Y-35100D01*
X47550Y-39175D02*
X49500Y-37225D01*
X47150Y-39175D02*
X47550Y-39175D01*
X46800Y-38825D02*
X47150Y-39175D01*
X62100Y-45675D02*
X57400Y-45675D01*
X62100Y-45675D02*
X62200Y-45775D01*
X62200Y-46325D02*
X62200Y-45775D01*
X56875Y-45150D02*
X57400Y-45675D01*
X65050Y-40000D02*
X65050Y-40850D01*
X59075Y-39975D02*
X59050Y-39975D01*
X60600Y-41500D02*
X59075Y-39975D01*
X64400Y-41500D02*
X60600Y-41500D01*
X65050Y-40850D02*
X64400Y-41500D01*
X59050Y-39975D02*
X46200Y-39975D01*
X59775Y-41250D02*
X59700Y-41250D01*
X45350Y-40350D02*
X44850Y-39850D01*
X58800Y-40350D02*
X45350Y-40350D01*
X59700Y-41250D02*
X58800Y-40350D01*
X59775Y-41250D02*
X59775Y-43475D01*
X60200Y-43900D02*
X61250Y-43900D01*
X59775Y-43475D02*
X60200Y-43900D01*
X65300Y-40625D02*
X65300Y-41000D01*
X60325Y-41800D02*
X59775Y-41250D01*
X64500Y-41800D02*
X60325Y-41800D01*
X65300Y-41000D02*
X64500Y-41800D01*
X65300Y-40650D02*
X65300Y-40625D01*
X65300Y-40625D02*
X65300Y-40000D01*
X59775Y-41250D02*
X59875Y-41350D01*
X64500Y-53250D02*
X65200Y-53250D01*
X64450Y-53200D02*
X64500Y-53250D01*
X60800Y-41150D02*
X59175Y-39525D01*
X59175Y-39525D02*
X59200Y-39525D01*
X64790Y-40460D02*
X64790Y-40585D01*
X64790Y-40000D02*
X64790Y-40460D01*
X60575Y-43400D02*
X61250Y-43400D01*
X60525Y-43450D02*
X60575Y-43400D01*
X64225Y-41150D02*
X60800Y-41150D01*
X64790Y-40585D02*
X64225Y-41150D01*
X44800Y-39525D02*
X44375Y-39525D01*
X44375Y-39525D02*
X43800Y-38950D01*
X43800Y-38950D02*
X43800Y-37600D01*
X59200Y-39525D02*
X44800Y-39525D01*
X52200Y-51545D02*
X52200Y-49075D01*
X39725Y-32000D02*
X39975Y-31750D01*
X39725Y-32900D02*
X39725Y-32000D01*
X40700Y-33875D02*
X39725Y-32900D01*
X40700Y-37575D02*
X40700Y-33875D01*
X52200Y-49075D02*
X40700Y-37575D01*
X53350Y-49775D02*
X53350Y-51100D01*
X51925Y-48350D02*
X53350Y-49775D01*
X53350Y-51100D02*
X53275Y-51175D01*
X51925Y-48350D02*
X51925Y-48350D01*
X40975Y-37400D02*
X51925Y-48350D01*
X40975Y-33625D02*
X40975Y-37400D01*
X40000Y-32650D02*
X40975Y-33625D01*
X49650Y-39275D02*
X49025Y-39275D01*
X49025Y-39275D02*
X48775Y-39025D01*
X64530Y-40319D02*
X64530Y-40520D01*
X64530Y-40000D02*
X64530Y-40319D01*
X60950Y-40900D02*
X59325Y-39275D01*
X64150Y-40900D02*
X60950Y-40900D01*
X64530Y-40520D02*
X64150Y-40900D01*
X59325Y-39275D02*
X49650Y-39275D01*
X49650Y-39275D02*
X49625Y-39275D01*
X53375Y-38225D02*
X53375Y-37425D01*
X63760Y-40340D02*
X63500Y-40600D01*
X63500Y-40600D02*
X61100Y-40600D01*
X61100Y-40600D02*
X59475Y-38975D01*
X59475Y-38975D02*
X53600Y-38975D01*
X53600Y-38975D02*
X53375Y-38750D01*
X53375Y-38750D02*
X53375Y-38225D01*
X63760Y-40000D02*
X63760Y-40340D01*
X53375Y-37425D02*
X53425Y-37375D01*
X63750Y-43900D02*
X64550Y-43900D01*
X65125Y-43325D02*
X65125Y-42600D01*
X64550Y-43900D02*
X65125Y-43325D01*
X54475Y-38125D02*
X54475Y-37075D01*
X54500Y-38150D02*
X54475Y-38125D01*
X65500Y-41250D02*
X65490Y-41250D01*
X65300Y-38275D02*
X65725Y-38700D01*
X65725Y-38700D02*
X65725Y-41025D01*
X65725Y-41025D02*
X65500Y-41250D01*
X65300Y-37900D02*
X65300Y-38275D01*
X65490Y-41250D02*
X64840Y-41900D01*
X55375Y-38000D02*
X55375Y-37400D01*
X55450Y-38650D02*
X55375Y-38575D01*
X55375Y-38575D02*
X55375Y-38000D01*
X55400Y-37375D02*
X55375Y-37400D01*
X64400Y-43400D02*
X64625Y-43400D01*
X63750Y-43400D02*
X64400Y-43400D01*
X64625Y-43400D02*
X64825Y-43200D01*
X50425Y-37100D02*
X50425Y-37475D01*
X52250Y-37925D02*
X52550Y-38225D01*
X50875Y-37925D02*
X52250Y-37925D01*
X50425Y-37475D02*
X50875Y-37925D01*
X61250Y-42900D02*
X60700Y-42900D01*
X60700Y-42900D02*
X60525Y-42725D01*
G54D47*
X82900Y-40950D02*
X84788Y-40950D01*
X84788Y-40950D02*
X84800Y-40938D01*
G54D46*
X81250Y-40950D02*
X81250Y-42400D01*
G54D47*
X84800Y-42316D02*
X83216Y-42316D01*
X83216Y-42316D02*
X83200Y-42300D01*
G54D46*
X84800Y-43694D02*
X84865Y-43694D01*
X83435Y-36415D02*
X82680Y-36415D01*
X84460Y-37440D02*
X83435Y-36415D01*
X85020Y-37440D02*
X84460Y-37440D01*
X85560Y-37980D02*
X85020Y-37440D01*
X85560Y-43000D02*
X85560Y-37980D01*
X84865Y-43694D02*
X85560Y-43000D01*
G54D49*
X55275Y-51150D02*
X55275Y-49675D01*
X85650Y-44544D02*
X84800Y-43694D01*
X85650Y-47300D02*
X85650Y-44544D01*
X85325Y-47625D02*
X85650Y-47300D01*
X75800Y-47625D02*
X85325Y-47625D01*
X74525Y-48900D02*
X75800Y-47625D01*
X56050Y-48900D02*
X74525Y-48900D01*
X55275Y-49675D02*
X56050Y-48900D01*
G54D46*
X81350Y-47340D02*
X83909Y-47340D01*
X83909Y-47340D02*
X84800Y-46450D01*
X72255Y-48344D02*
X72755Y-48344D01*
X67800Y-48344D02*
X72255Y-48344D01*
X73759Y-47340D02*
X81350Y-47340D01*
X81350Y-47340D02*
X81384Y-47340D01*
X72755Y-48344D02*
X73759Y-47340D01*
X67800Y-48344D02*
X63355Y-48344D01*
X61500Y-46700D02*
X62200Y-46700D01*
X63355Y-48344D02*
X63300Y-48400D01*
G54D49*
X63700Y-46300D02*
X63675Y-46325D01*
X63200Y-46325D02*
X63675Y-46325D01*
G54D46*
X69265Y-33863D02*
X69265Y-33434D01*
X69265Y-33434D02*
X72000Y-30700D01*
X69265Y-33365D02*
X69265Y-33863D01*
X68200Y-32100D02*
X69265Y-33365D01*
X59500Y-32100D02*
X68200Y-32100D01*
X72000Y-30700D02*
X79900Y-30700D01*
X58200Y-31000D02*
X59500Y-32100D01*
X79900Y-30700D02*
X79900Y-30700D01*
X58075Y-31000D02*
X58200Y-31000D01*
G54D49*
X58625Y-31000D02*
X58075Y-31000D01*
X58950Y-30675D02*
X58625Y-31000D01*
G54D46*
X84207Y-30700D02*
X84800Y-31292D01*
X79900Y-30700D02*
X84207Y-30700D01*
X55675Y-31000D02*
X58075Y-31000D01*
X81620Y-32670D02*
X84800Y-32670D01*
X72379Y-32675D02*
X72379Y-31820D01*
X63160Y-34010D02*
X63990Y-34840D01*
X70215Y-34840D02*
X63990Y-34840D01*
X72379Y-32675D02*
X70215Y-34840D01*
X73850Y-31200D02*
X80150Y-31200D01*
X80150Y-31200D02*
X81620Y-32670D01*
X73000Y-31200D02*
X73850Y-31200D01*
X72379Y-31820D02*
X73000Y-31200D01*
X55750Y-32875D02*
X56725Y-32875D01*
X56725Y-32875D02*
X57290Y-32310D01*
G54D50*
X84700Y-49412D02*
X81072Y-49412D01*
X81072Y-49412D02*
X80960Y-49300D01*
X84700Y-53350D02*
X81630Y-53350D01*
X81630Y-53350D02*
X80960Y-54020D01*
G54D49*
X69300Y-36350D02*
X67450Y-36350D01*
X69950Y-37000D02*
X69450Y-36500D01*
X69450Y-36500D02*
X69300Y-36350D01*
X73150Y-37000D02*
X69950Y-37000D01*
X65900Y-37900D02*
X65900Y-38100D01*
X67450Y-36350D02*
X65900Y-37900D01*
X64530Y-37900D02*
X64530Y-37520D01*
X65650Y-37400D02*
X65900Y-37650D01*
X64650Y-37400D02*
X65650Y-37400D01*
X64530Y-37520D02*
X64650Y-37400D01*
X66500Y-40600D02*
X66500Y-38700D01*
X66500Y-38700D02*
X65900Y-38100D01*
X65900Y-38100D02*
X65900Y-37650D01*
X64325Y-36850D02*
X64325Y-36575D01*
X64600Y-36300D02*
X64900Y-36300D01*
X64325Y-36575D02*
X64600Y-36300D01*
X64280Y-37900D02*
X64280Y-36895D01*
X64280Y-36895D02*
X64325Y-36850D01*
G54D46*
X82025Y-38600D02*
X82025Y-39400D01*
X82025Y-39400D02*
X80900Y-39400D01*
G54D49*
X63700Y-38500D02*
X63760Y-38440D01*
X63760Y-37900D02*
X63760Y-38440D01*
X62150Y-38825D02*
X63825Y-38825D01*
X64020Y-38630D02*
X64020Y-37900D01*
X63825Y-38825D02*
X64020Y-38630D01*
X74950Y-37800D02*
X74950Y-37200D01*
X83200Y-36950D02*
X83850Y-37600D01*
X77900Y-36950D02*
X83200Y-36950D01*
X84432Y-38182D02*
X83850Y-37600D01*
X84800Y-38182D02*
X84432Y-38182D01*
X77900Y-36950D02*
X76850Y-36950D01*
X76850Y-36950D02*
X76650Y-36750D01*
X76650Y-36750D02*
X75250Y-36750D01*
X75250Y-36750D02*
X74950Y-37050D01*
X74950Y-37050D02*
X74950Y-37200D01*
X75150Y-38000D02*
X75650Y-38000D01*
X75150Y-38000D02*
X74950Y-37800D01*
X75180Y-39000D02*
X75650Y-39000D01*
X74940Y-38760D02*
X75180Y-39000D01*
X74940Y-38200D02*
X74940Y-38760D01*
X62650Y-40000D02*
X63000Y-40000D01*
X62150Y-38075D02*
X61925Y-38075D01*
X61925Y-38075D02*
X61600Y-38400D01*
X63510Y-37900D02*
X63510Y-38390D01*
X62525Y-38450D02*
X62150Y-38075D01*
X63450Y-38450D02*
X62525Y-38450D01*
X63510Y-38390D02*
X63450Y-38450D01*
X82775Y-38600D02*
X83050Y-38600D01*
X83300Y-38350D02*
X83300Y-38000D01*
X83050Y-38600D02*
X83300Y-38350D01*
X64425Y-42900D02*
X63750Y-42900D01*
X62550Y-39900D02*
X62650Y-40000D01*
G54D47*
X68650Y-41050D02*
X67700Y-41050D01*
X69850Y-40850D02*
X68850Y-40850D01*
X68850Y-40850D02*
X68650Y-41050D01*
G54D46*
X74010Y-37120D02*
X74465Y-37120D01*
X73945Y-37055D02*
X74010Y-37120D01*
X73150Y-38500D02*
X74030Y-38500D01*
X75000Y-35940D02*
X75000Y-34850D01*
X74465Y-37120D02*
X74465Y-36475D01*
X74465Y-36475D02*
X75000Y-35940D01*
X74465Y-38065D02*
X74465Y-37120D01*
X74030Y-38500D02*
X74465Y-38065D01*
X76150Y-38500D02*
X75650Y-38500D01*
X76350Y-38300D02*
X76150Y-38500D01*
X76350Y-38000D02*
X76350Y-38300D01*
G54D47*
X32925Y-36225D02*
X31875Y-36225D01*
G54D49*
X32800Y-31525D02*
X32375Y-31525D01*
X32375Y-31525D02*
X32000Y-31900D01*
X36838Y-31190D02*
X36838Y-31811D01*
X33825Y-31525D02*
X32800Y-31525D01*
X34225Y-31925D02*
X33825Y-31525D01*
X36725Y-31925D02*
X34225Y-31925D01*
X36838Y-31811D02*
X36725Y-31925D01*
G54D48*
X49400Y-48825D02*
X48275Y-48825D01*
X48275Y-48825D02*
X48250Y-48850D01*
X47350Y-48850D02*
X48250Y-48850D01*
X47275Y-48925D02*
X47350Y-48850D01*
G54D46*
X33100Y-40000D02*
X32300Y-40000D01*
X31950Y-39650D02*
X31950Y-39600D01*
X32300Y-40000D02*
X31950Y-39650D01*
X64100Y-46700D02*
X63200Y-46700D01*
G54D47*
X82680Y-35665D02*
X84561Y-35665D01*
X84561Y-35665D02*
X84800Y-35426D01*
G54D46*
X69075Y-49600D02*
X69100Y-49625D01*
X69100Y-49625D02*
X69900Y-49625D01*
G54D49*
X38413Y-31190D02*
X38413Y-31088D01*
X31200Y-31025D02*
X31200Y-31300D01*
X31550Y-30675D02*
X31200Y-31025D01*
X38000Y-30675D02*
X31550Y-30675D01*
X38413Y-31088D02*
X38000Y-30675D01*
X30125Y-32175D02*
X29400Y-32175D01*
X28946Y-46928D02*
X28139Y-46928D01*
X29375Y-46500D02*
X28946Y-46928D01*
X29375Y-33675D02*
X29375Y-46500D01*
X28750Y-33050D02*
X29375Y-33675D01*
X28750Y-32825D02*
X28750Y-33050D01*
X29400Y-32175D02*
X28750Y-32825D01*
X37625Y-31190D02*
X37625Y-31524D01*
X30100Y-32175D02*
X30125Y-32175D01*
X30125Y-32175D02*
X30175Y-32175D01*
X36975Y-32175D02*
X30100Y-32175D01*
X37625Y-31524D02*
X36975Y-32175D01*
G54D47*
X25974Y-50235D02*
X24955Y-50235D01*
X24600Y-35074D02*
X25974Y-33700D01*
X24600Y-49880D02*
X24600Y-35074D01*
X24955Y-50235D02*
X24600Y-49880D01*
G54D46*
X67800Y-47400D02*
X67800Y-47100D01*
X66302Y-46600D02*
X66100Y-46397D01*
X67300Y-46600D02*
X66302Y-46600D01*
X67800Y-47100D02*
X67300Y-46600D01*
X63200Y-47075D02*
X63675Y-47075D01*
X65202Y-46397D02*
X66100Y-46397D01*
X64400Y-47200D02*
X65202Y-46397D01*
X63800Y-47200D02*
X64400Y-47200D01*
X63675Y-47075D02*
X63800Y-47200D01*
G54D49*
X76500Y-40075D02*
X76500Y-39850D01*
X78950Y-40800D02*
X79350Y-40800D01*
X77750Y-39600D02*
X78950Y-40800D01*
X76750Y-39600D02*
X77750Y-39600D01*
X76500Y-39850D02*
X76750Y-39600D01*
X72600Y-40625D02*
X72900Y-40625D01*
X72900Y-40625D02*
X73325Y-41050D01*
X73150Y-39500D02*
X72800Y-39500D01*
X72600Y-39700D02*
X72600Y-40625D01*
X72800Y-39500D02*
X72600Y-39700D01*
X74075Y-41050D02*
X76275Y-41050D01*
X76275Y-41050D02*
X76500Y-40825D01*
X73150Y-40000D02*
X73800Y-40000D01*
X74075Y-40275D02*
X74075Y-41050D01*
X73800Y-40000D02*
X74075Y-40275D01*
X68075Y-39450D02*
X68000Y-39450D01*
X66700Y-41500D02*
X65635Y-41500D01*
X67250Y-40950D02*
X66700Y-41500D01*
X67250Y-40200D02*
X67250Y-40950D01*
X68000Y-39450D02*
X67250Y-40200D01*
X63750Y-42400D02*
X64735Y-42400D01*
X64735Y-42400D02*
X65635Y-41500D01*
X67900Y-37050D02*
X68150Y-37050D01*
X68825Y-37725D02*
X68825Y-39450D01*
X68150Y-37050D02*
X68825Y-37725D01*
X68825Y-39450D02*
X70450Y-39450D01*
X70450Y-39450D02*
X71450Y-38450D01*
X72450Y-39000D02*
X73150Y-39000D01*
X72200Y-38750D02*
X72450Y-39000D01*
G54D46*
X66902Y-32500D02*
X68265Y-33863D01*
X59000Y-32500D02*
X66902Y-32500D01*
X58100Y-31600D02*
X59000Y-32500D01*
X55100Y-31600D02*
X58100Y-31600D01*
X54925Y-31425D02*
X55100Y-31600D01*
X54925Y-31000D02*
X54925Y-31425D01*
X54925Y-31000D02*
X53334Y-31000D01*
X53334Y-31000D02*
X52584Y-31750D01*
X61160Y-34010D02*
X55430Y-34010D01*
X55000Y-33580D02*
X55000Y-32875D01*
X55430Y-34010D02*
X55000Y-33580D01*
X55000Y-32875D02*
X54725Y-32875D01*
X54725Y-32875D02*
X54000Y-33600D01*
X54000Y-33600D02*
X49000Y-33600D01*
X49000Y-33600D02*
X48000Y-32600D01*
X48000Y-32600D02*
X48000Y-32100D01*
X48000Y-32100D02*
X47600Y-31700D01*
X47600Y-31700D02*
X45934Y-31700D01*
G54D47*
X48250Y-49600D02*
X48250Y-54140D01*
X48250Y-54140D02*
X48390Y-54280D01*
G54D49*
X57350Y-36625D02*
X57350Y-35320D01*
X57350Y-35320D02*
X57390Y-35280D01*
G54D46*
X50400Y-52245D02*
X50400Y-54270D01*
X50400Y-54270D02*
X50390Y-54280D01*
G54D47*
X49400Y-49575D02*
X49400Y-54270D01*
X49400Y-54270D02*
X49390Y-54280D01*
G54D49*
X53425Y-36625D02*
X53425Y-35315D01*
X53425Y-35315D02*
X53390Y-35280D01*
X53375Y-35295D02*
X53390Y-35280D01*
X54475Y-36325D02*
X54475Y-35365D01*
X54475Y-35365D02*
X54390Y-35280D01*
X55400Y-36625D02*
X55400Y-35290D01*
X55400Y-35290D02*
X55390Y-35280D01*
X50425Y-36350D02*
X50425Y-35315D01*
X50425Y-35315D02*
X50390Y-35280D01*
X54300Y-52395D02*
X54300Y-54190D01*
X54300Y-54190D02*
X54390Y-54280D01*
X55275Y-51900D02*
X55275Y-54165D01*
X55275Y-54165D02*
X55390Y-54280D01*
X53350Y-52350D02*
X53350Y-52000D01*
X53350Y-52000D02*
X53275Y-51925D01*
X53350Y-52345D02*
X53350Y-52350D01*
X53350Y-52350D02*
X53350Y-54240D01*
X53350Y-54240D02*
X53390Y-54280D01*
X52200Y-52295D02*
X52200Y-54090D01*
X52200Y-54090D02*
X52390Y-54280D01*
X46800Y-37275D02*
X46800Y-35290D01*
X46800Y-35290D02*
X46790Y-35280D01*
X43800Y-36850D02*
X43800Y-35290D01*
X43800Y-35290D02*
X43790Y-35280D01*
X82775Y-39400D02*
X82775Y-39775D01*
X82550Y-40000D02*
X82050Y-40000D01*
X82775Y-39775D02*
X82550Y-40000D01*
X64020Y-40000D02*
X64020Y-40400D01*
X63810Y-40610D02*
X63810Y-40620D01*
X64020Y-40400D02*
X63810Y-40610D01*
X64280Y-40000D02*
X64280Y-40460D01*
X64280Y-40460D02*
X64190Y-40550D01*
X63250Y-37900D02*
X63250Y-37125D01*
X63250Y-37125D02*
X63275Y-37100D01*
X63000Y-37900D02*
X63000Y-37550D01*
X62550Y-37100D02*
X62525Y-37100D01*
X63000Y-37550D02*
X62550Y-37100D01*
X60500Y-39525D02*
X60500Y-37250D01*
X63250Y-39400D02*
X63200Y-39450D01*
X63200Y-39450D02*
X62625Y-39450D01*
X62625Y-39450D02*
X61800Y-40275D01*
X61800Y-40275D02*
X61250Y-40275D01*
X61250Y-40275D02*
X60500Y-39525D01*
X63250Y-40000D02*
X63250Y-39400D01*
X60675Y-37075D02*
X61125Y-37075D01*
X60500Y-37250D02*
X60675Y-37075D01*
X72550Y-37500D02*
X72350Y-37300D01*
X73150Y-37500D02*
X72550Y-37500D01*
X71250Y-37300D02*
X71100Y-37450D01*
X72350Y-37300D02*
X71250Y-37300D01*
X71600Y-39600D02*
X71600Y-39400D01*
X71400Y-39800D02*
X71600Y-39600D01*
X71050Y-39800D02*
X71400Y-39800D01*
X70800Y-40050D02*
X71050Y-39800D01*
X70800Y-41100D02*
X70800Y-40050D01*
X73150Y-38000D02*
X72350Y-38000D01*
X71600Y-38750D02*
X71600Y-39400D01*
X72350Y-38000D02*
X71600Y-38750D01*
X74950Y-40000D02*
X75650Y-40000D01*
X74650Y-39700D02*
X74950Y-40000D01*
X74650Y-38950D02*
X74650Y-39700D01*
X74450Y-38750D02*
X74650Y-38950D01*
X75650Y-39500D02*
X75900Y-39500D01*
X78550Y-38550D02*
X78650Y-38650D01*
X76850Y-38550D02*
X78550Y-38550D01*
X75900Y-39500D02*
X76850Y-38550D01*
X75650Y-39500D02*
X75000Y-39500D01*
X78650Y-38650D02*
X78650Y-39650D01*
X78650Y-37650D02*
X78650Y-38650D01*
X75650Y-37500D02*
X76400Y-37500D01*
X76600Y-37000D02*
X76900Y-37300D01*
X75650Y-37000D02*
X76600Y-37000D01*
X60775Y-39350D02*
X60775Y-38550D01*
X61125Y-38200D02*
X61125Y-37825D01*
X60775Y-38550D02*
X61125Y-38200D01*
X62775Y-39175D02*
X62550Y-39175D01*
X62550Y-39175D02*
X61850Y-39875D01*
X61850Y-39875D02*
X61300Y-39875D01*
X61300Y-39875D02*
X60775Y-39350D01*
X60775Y-39350D02*
X60800Y-39375D01*
X63510Y-40000D02*
X63510Y-39335D01*
X63350Y-39175D02*
X62775Y-39175D01*
X63510Y-39335D02*
X63350Y-39175D01*
X65075Y-36850D02*
X66400Y-36850D01*
X65050Y-37900D02*
X65050Y-38450D01*
X65050Y-38450D02*
X65250Y-38650D01*
G54D46*
X65900Y-50755D02*
X65900Y-50450D01*
X66750Y-49600D02*
X68325Y-49600D01*
X65900Y-50450D02*
X66750Y-49600D01*
X65200Y-54250D02*
X64150Y-54250D01*
X64150Y-54250D02*
X64100Y-54300D01*
X70390Y-54290D02*
X70670Y-54290D01*
X69650Y-53550D02*
X70390Y-54290D01*
X70670Y-54290D02*
X74110Y-54290D01*
X74380Y-54020D02*
X76160Y-54020D01*
X74110Y-54290D02*
X74380Y-54020D01*
X70670Y-52640D02*
X70670Y-52630D01*
X70670Y-52630D02*
X71700Y-51600D01*
X73075Y-50800D02*
X73075Y-49825D01*
X73600Y-49300D02*
X76160Y-49300D01*
X73075Y-49825D02*
X73600Y-49300D01*
X68750Y-54250D02*
X67850Y-54250D01*
X66450Y-51895D02*
X65900Y-51345D01*
X66450Y-52850D02*
X66450Y-51895D01*
X67850Y-54250D02*
X66450Y-52850D01*
X68750Y-54250D02*
X69450Y-54250D01*
X69450Y-54250D02*
X69900Y-54700D01*
G54D49*
X68750Y-53250D02*
X69000Y-53250D01*
X70025Y-52225D02*
X70025Y-50800D01*
X69000Y-53250D02*
X70025Y-52225D01*
G54D10*
G36*
X83400Y-46149D02*
X74650Y-46100D01*
X74650Y-42170D01*
X77350Y-42170D01*
X77450Y-42150D01*
X83400Y-42150D01*
X83400Y-45950D01*
X83400Y-46149D01*
X83400Y-46149D01*
G37*
G54D49*
X83400Y-46149D02*
X74650Y-46100D01*
X74650Y-42170D01*
X77350Y-42170D01*
X77450Y-42150D01*
X83400Y-42150D01*
X83400Y-45950D01*
X83400Y-46149D01*
G54D10*
G36*
X73200Y-46150D02*
X68250Y-46150D01*
X68250Y-45350D01*
X65400Y-45350D01*
X65400Y-42050D01*
X65850Y-42050D01*
X65899Y-42050D01*
X65899Y-42050D01*
X73200Y-42050D01*
X73200Y-46150D01*
X73200Y-46150D01*
G37*
G54D49*
X73200Y-46150D02*
X68250Y-46150D01*
X68250Y-45350D01*
X65400Y-45350D01*
X65400Y-42050D01*
X65850Y-42050D01*
X65899Y-42050D01*
X65899Y-42050D01*
X73200Y-42050D01*
X73200Y-46150D01*
M02*
