M48
INCH,TZ
T1C0.013
T2C0.024
T3C0.031
T4C0.040
T5C0.043
T6C0.047
T7C0.050
T8C0.051
T9C0.059
T10C0.063
T11C0.071
T12C0.120
%
G90
G05
T1
X28950Y-31400
X32000Y-31900
X38025Y-32550
X39975Y-31750
X40000Y-32650
X44850Y-39850
X46200Y-39975
X48650Y-48300
X48775Y-39025
X52550Y-38225
X54500Y-38150
X55450Y-38650
X56875Y-45150
X58000Y-37950
X58950Y-30675
X60525Y-42725
X60525Y-43450
X60800Y-41150
X61600Y-39500
X61900Y-42600
X62000Y-38100
X62550Y-39900
X63700Y-38500
X63700Y-46300
X63810Y-40620
X64190Y-40550
X64300Y-38600
X64425Y-42900
X64450Y-53200
X64800Y-38550
X64825Y-43200
X64840Y-41900
X65125Y-42600
X65250Y-38650
X65900Y-38100
X66750Y-41750
X67925Y-40025
X70050Y-38350
X70800Y-41100
X71450Y-38450
X71600Y-39400
X72050Y-36325
X72200Y-38750
X74450Y-38750
X74940Y-38200
X75000Y-39500
X76400Y-37500
X76900Y-37300
X81500Y-38000
X83300Y-38000
T2
X28100Y-53200
X29400Y-32850
X31525Y-51050
X31875Y-36225
X31950Y-39600
X33175Y-42625
X33225Y-47050
X33850Y-32850
X33900Y-34725
X35950Y-36000
X36800Y-47100
X37750Y-37100
X47275Y-48925
X50400Y-50500
X58100Y-32700
X60600Y-46500
X60700Y-48500
X61500Y-46700
X63300Y-48400
X64100Y-46700
X64100Y-54300
X65635Y-31265
X65700Y-35800
X67700Y-41050
X69900Y-49625
X69900Y-54700
X71600Y-50800
X73300Y-36000
X73850Y-43900
X73900Y-38350
X73950Y-44650
X75000Y-34843
X76350Y-38000
X76350Y-40200
X77450Y-34750
X78300Y-36450
X81200Y-33700
X83800Y-46700
T3
X36838Y-31190
X37626Y-31190
X38413Y-31190
T4
X35200Y-41700
X35200Y-42700
X35300Y-47500
X35300Y-48500
X36846Y-43754
X37246Y-45846
X37554Y-43046
X37954Y-46554
X41790Y-35280
X42790Y-35280
X43390Y-54280
X43790Y-35280
X44390Y-54280
X44790Y-35280
X45390Y-54280
X45790Y-35280
X46390Y-54280
X46790Y-35280
X47390Y-54280
X47790Y-35280
X48390Y-54280
X48790Y-35280
X49390Y-54280
X50390Y-35280
X50390Y-54280
X51390Y-35280
X52390Y-35280
X52390Y-54280
X53390Y-35280
X53390Y-54280
X54390Y-35280
X54390Y-54280
X55390Y-35280
X55390Y-54280
X56390Y-35280
X56390Y-54280
X57390Y-35280
X57390Y-54280
X61156Y-34003
X62156Y-34003
X63156Y-34003
X68266Y-33863
X69266Y-33863
X70266Y-33863
X74000Y-34843
X75000Y-34843
X76000Y-34843
X78650Y-37650
X78650Y-38650
X78650Y-39650
X78921Y-34843
X79650Y-37650
X79650Y-38650
X79650Y-39650
X79921Y-34843
X80921Y-34843
T5
X43966Y-31700
X44950Y-31700
X45934Y-31700
X50616Y-31750
X51600Y-31750
X52584Y-31750
T6
X84800Y-31293
X84800Y-32670
X84800Y-34048
X84800Y-35426
X84800Y-36804
X84800Y-38182
X84800Y-39560
X84800Y-40938
X84800Y-42316
X84800Y-43694
X84800Y-45072
X84800Y-46450
T7
X75360Y-51660
X76160Y-49300
X76160Y-54020
X80960Y-49300
X80960Y-54020
T8
X84700Y-49413
X84700Y-51381
X84700Y-53350
T9
X62190Y-31355
X69145Y-31240
T11
X25974Y-33700
X25974Y-35354
X25974Y-37007
X25974Y-38661
X25974Y-40314
X25974Y-41968
X25974Y-43621
X25974Y-45275
X25974Y-46928
X25974Y-48582
X25974Y-50235
X25974Y-51889
X28139Y-33700
X28139Y-35354
X28139Y-37007
X28139Y-38661
X28139Y-40314
X28139Y-41968
X28139Y-43621
X28139Y-45275
X28139Y-46928
X28139Y-48582
X28139Y-50235
X28139Y-51889
T12
X35300Y-44750
T10
X43021Y-32684G85X43021Y-32448
G05
X46879Y-32684G85X46879Y-32448
G05
X49671Y-32734G85X49671Y-32498
G05
X53529Y-32734G85X53529Y-32498
G05
T0
M30
