G04 (created by PCBNEW (2013-03-19 BZR 4004)-stable) date 11/24/2013 3:24:33 PM*
%MOIN*%
G04 Gerber Fmt 3.4, Leading zero omitted, Abs format*
%FSLAX34Y34*%
G01*
G70*
G90*
G04 APERTURE LIST*
%ADD10C,0.006*%
%ADD11C,0.005*%
%ADD12C,0.0075*%
%ADD13C,0.008*%
G04 APERTURE END LIST*
G54D10*
G54D11*
X73650Y-53400D02*
X73650Y-54600D01*
X73650Y-54600D02*
X73950Y-54600D01*
X73950Y-54600D02*
X73950Y-53400D01*
X73950Y-53400D02*
X73650Y-53400D01*
X62100Y-53900D02*
G75*
G03X62100Y-53900I-50J0D01*
G74*
G01*
X62500Y-53900D02*
X62100Y-53900D01*
X62100Y-53900D02*
X62100Y-54500D01*
X62100Y-54500D02*
X62500Y-54500D01*
X62900Y-54500D02*
X63300Y-54500D01*
X63300Y-54500D02*
X63300Y-53900D01*
X63300Y-53900D02*
X62900Y-53900D01*
X71625Y-49925D02*
G75*
G03X71625Y-49925I-50J0D01*
G74*
G01*
X71125Y-49925D02*
X71525Y-49925D01*
X71525Y-49925D02*
X71525Y-49325D01*
X71525Y-49325D02*
X71125Y-49325D01*
X70725Y-49325D02*
X70325Y-49325D01*
X70325Y-49325D02*
X70325Y-49925D01*
X70325Y-49925D02*
X70725Y-49925D01*
X70400Y-54000D02*
G75*
G03X70400Y-54000I-50J0D01*
G74*
G01*
X70800Y-54000D02*
X70400Y-54000D01*
X70400Y-54000D02*
X70400Y-54600D01*
X70400Y-54600D02*
X70800Y-54600D01*
X71200Y-54600D02*
X71600Y-54600D01*
X71600Y-54600D02*
X71600Y-54000D01*
X71600Y-54000D02*
X71200Y-54000D01*
G54D10*
X82050Y-39000D02*
X82850Y-39000D01*
X82850Y-39000D02*
X82850Y-39500D01*
X82850Y-39500D02*
X82050Y-39500D01*
X82050Y-39500D02*
X82050Y-39000D01*
G54D11*
X71100Y-37850D02*
X71100Y-38750D01*
X71100Y-38750D02*
X70450Y-38750D01*
X69750Y-37850D02*
X69100Y-37850D01*
X69100Y-37850D02*
X69100Y-38750D01*
X69100Y-38750D02*
X69750Y-38750D01*
X70450Y-37850D02*
X71100Y-37850D01*
X66250Y-38800D02*
X66250Y-37900D01*
X66250Y-37900D02*
X66900Y-37900D01*
X67600Y-38800D02*
X68250Y-38800D01*
X68250Y-38800D02*
X68250Y-37900D01*
X68250Y-37900D02*
X67600Y-37900D01*
X66900Y-38800D02*
X66250Y-38800D01*
X69050Y-39900D02*
X69050Y-39000D01*
X69050Y-39000D02*
X69700Y-39000D01*
X70400Y-39900D02*
X71050Y-39900D01*
X71050Y-39900D02*
X71050Y-39000D01*
X71050Y-39000D02*
X70400Y-39000D01*
X69700Y-39900D02*
X69050Y-39900D01*
X73000Y-41400D02*
X73000Y-40500D01*
X73000Y-40500D02*
X73650Y-40500D01*
X74350Y-41400D02*
X75000Y-41400D01*
X75000Y-41400D02*
X75000Y-40500D01*
X75000Y-40500D02*
X74350Y-40500D01*
X73650Y-41400D02*
X73000Y-41400D01*
X78100Y-40550D02*
G75*
G03X78100Y-40550I-50J0D01*
G74*
G01*
X77600Y-40550D02*
X78000Y-40550D01*
X78000Y-40550D02*
X78000Y-39950D01*
X78000Y-39950D02*
X77600Y-39950D01*
X77200Y-39950D02*
X76800Y-39950D01*
X76800Y-39950D02*
X76800Y-40550D01*
X76800Y-40550D02*
X77200Y-40550D01*
X67200Y-39650D02*
G75*
G03X67200Y-39650I-50J0D01*
G74*
G01*
X66700Y-39650D02*
X67100Y-39650D01*
X67100Y-39650D02*
X67100Y-39050D01*
X67100Y-39050D02*
X66700Y-39050D01*
X66300Y-39050D02*
X65900Y-39050D01*
X65900Y-39050D02*
X65900Y-39650D01*
X65900Y-39650D02*
X66300Y-39650D01*
X64300Y-39650D02*
G75*
G03X64300Y-39650I-50J0D01*
G74*
G01*
X63800Y-39650D02*
X64200Y-39650D01*
X64200Y-39650D02*
X64200Y-39050D01*
X64200Y-39050D02*
X63800Y-39050D01*
X63400Y-39050D02*
X63000Y-39050D01*
X63000Y-39050D02*
X63000Y-39650D01*
X63000Y-39650D02*
X63400Y-39650D01*
X76100Y-39600D02*
G75*
G03X76100Y-39600I-50J0D01*
G74*
G01*
X76050Y-39150D02*
X76050Y-39550D01*
X76050Y-39550D02*
X76650Y-39550D01*
X76650Y-39550D02*
X76650Y-39150D01*
X76650Y-38750D02*
X76650Y-38350D01*
X76650Y-38350D02*
X76050Y-38350D01*
X76050Y-38350D02*
X76050Y-38750D01*
X74300Y-36800D02*
G75*
G03X74300Y-36800I-50J0D01*
G74*
G01*
X74250Y-37250D02*
X74250Y-36850D01*
X74250Y-36850D02*
X73650Y-36850D01*
X73650Y-36850D02*
X73650Y-37250D01*
X73650Y-37650D02*
X73650Y-38050D01*
X73650Y-38050D02*
X74250Y-38050D01*
X74250Y-38050D02*
X74250Y-37650D01*
X81850Y-37700D02*
G75*
G03X81850Y-37700I-50J0D01*
G74*
G01*
X82250Y-37700D02*
X81850Y-37700D01*
X81850Y-37700D02*
X81850Y-38300D01*
X81850Y-38300D02*
X82250Y-38300D01*
X82650Y-38300D02*
X83050Y-38300D01*
X83050Y-38300D02*
X83050Y-37700D01*
X83050Y-37700D02*
X82650Y-37700D01*
X78200Y-39450D02*
G75*
G03X78200Y-39450I-50J0D01*
G74*
G01*
X77700Y-39450D02*
X78100Y-39450D01*
X78100Y-39450D02*
X78100Y-38850D01*
X78100Y-38850D02*
X77700Y-38850D01*
X77300Y-38850D02*
X76900Y-38850D01*
X76900Y-38850D02*
X76900Y-39450D01*
X76900Y-39450D02*
X77300Y-39450D01*
X76550Y-41400D02*
G75*
G03X76550Y-41400I-50J0D01*
G74*
G01*
X76050Y-41400D02*
X76450Y-41400D01*
X76450Y-41400D02*
X76450Y-40800D01*
X76450Y-40800D02*
X76050Y-40800D01*
X75650Y-40800D02*
X75250Y-40800D01*
X75250Y-40800D02*
X75250Y-41400D01*
X75250Y-41400D02*
X75650Y-41400D01*
X78150Y-38450D02*
G75*
G03X78150Y-38450I-50J0D01*
G74*
G01*
X77650Y-38450D02*
X78050Y-38450D01*
X78050Y-38450D02*
X78050Y-37850D01*
X78050Y-37850D02*
X77650Y-37850D01*
X77250Y-37850D02*
X76850Y-37850D01*
X76850Y-37850D02*
X76850Y-38450D01*
X76850Y-38450D02*
X77250Y-38450D01*
X69250Y-41000D02*
G75*
G03X69250Y-41000I-50J0D01*
G74*
G01*
X69650Y-41000D02*
X69250Y-41000D01*
X69250Y-41000D02*
X69250Y-41600D01*
X69250Y-41600D02*
X69650Y-41600D01*
X70050Y-41600D02*
X70450Y-41600D01*
X70450Y-41600D02*
X70450Y-41000D01*
X70450Y-41000D02*
X70050Y-41000D01*
X66650Y-37650D02*
G75*
G03X66650Y-37650I-50J0D01*
G74*
G01*
X66150Y-37650D02*
X66550Y-37650D01*
X66550Y-37650D02*
X66550Y-37050D01*
X66550Y-37050D02*
X66150Y-37050D01*
X65750Y-37050D02*
X65350Y-37050D01*
X65350Y-37050D02*
X65350Y-37650D01*
X65350Y-37650D02*
X65750Y-37650D01*
X50475Y-48150D02*
G75*
G03X50475Y-48150I-50J0D01*
G74*
G01*
X49975Y-48150D02*
X50375Y-48150D01*
X50375Y-48150D02*
X50375Y-47550D01*
X50375Y-47550D02*
X49975Y-47550D01*
X49575Y-47550D02*
X49175Y-47550D01*
X49175Y-47550D02*
X49175Y-48150D01*
X49175Y-48150D02*
X49575Y-48150D01*
X72150Y-37100D02*
X70950Y-37100D01*
X70950Y-37100D02*
X70950Y-37400D01*
X70950Y-37400D02*
X72150Y-37400D01*
X72150Y-37400D02*
X72150Y-37100D01*
X82320Y-45550D02*
G75*
G03X82320Y-45550I-70J0D01*
G74*
G01*
X82300Y-43650D02*
X82300Y-43000D01*
X82300Y-43000D02*
X83900Y-43000D01*
X83900Y-43000D02*
X83900Y-43650D01*
X83900Y-44850D02*
X83900Y-45500D01*
X83900Y-45500D02*
X82300Y-45500D01*
X82300Y-45500D02*
X82300Y-44850D01*
X74600Y-44900D02*
G75*
G03X74600Y-44900I-50J0D01*
G74*
G01*
X74550Y-44450D02*
X74550Y-44850D01*
X74550Y-44850D02*
X75150Y-44850D01*
X75150Y-44850D02*
X75150Y-44450D01*
X75150Y-44050D02*
X75150Y-43650D01*
X75150Y-43650D02*
X74550Y-43650D01*
X74550Y-43650D02*
X74550Y-44050D01*
X62425Y-43675D02*
G75*
G03X62425Y-43675I-50J0D01*
G74*
G01*
X62375Y-43225D02*
X62375Y-43625D01*
X62375Y-43625D02*
X62975Y-43625D01*
X62975Y-43625D02*
X62975Y-43225D01*
X62975Y-42825D02*
X62975Y-42425D01*
X62975Y-42425D02*
X62375Y-42425D01*
X62375Y-42425D02*
X62375Y-42825D01*
X25720Y-31000D02*
G75*
G03X25720Y-31000I-70J0D01*
G74*
G01*
X27550Y-31050D02*
X28200Y-31050D01*
X28200Y-31050D02*
X28200Y-32650D01*
X28200Y-32650D02*
X27550Y-32650D01*
X26350Y-32650D02*
X25700Y-32650D01*
X25700Y-32650D02*
X25700Y-31050D01*
X25700Y-31050D02*
X26350Y-31050D01*
X32870Y-50150D02*
G75*
G03X32870Y-50150I-70J0D01*
G74*
G01*
X32850Y-48250D02*
X32850Y-47600D01*
X32850Y-47600D02*
X34450Y-47600D01*
X34450Y-47600D02*
X34450Y-48250D01*
X34450Y-49450D02*
X34450Y-50100D01*
X34450Y-50100D02*
X32850Y-50100D01*
X32850Y-50100D02*
X32850Y-49450D01*
X29570Y-51750D02*
G75*
G03X29570Y-51750I-70J0D01*
G74*
G01*
X31400Y-51800D02*
X32050Y-51800D01*
X32050Y-51800D02*
X32050Y-53400D01*
X32050Y-53400D02*
X31400Y-53400D01*
X30200Y-53400D02*
X29550Y-53400D01*
X29550Y-53400D02*
X29550Y-51800D01*
X29550Y-51800D02*
X30200Y-51800D01*
X29770Y-44625D02*
G75*
G03X29770Y-44625I-70J0D01*
G74*
G01*
X29750Y-42725D02*
X29750Y-42075D01*
X29750Y-42075D02*
X31350Y-42075D01*
X31350Y-42075D02*
X31350Y-42725D01*
X31350Y-43925D02*
X31350Y-44575D01*
X31350Y-44575D02*
X29750Y-44575D01*
X29750Y-44575D02*
X29750Y-43925D01*
X32520Y-45550D02*
G75*
G03X32520Y-45550I-70J0D01*
G74*
G01*
X32500Y-44050D02*
X32500Y-43300D01*
X32500Y-43300D02*
X33700Y-43300D01*
X33700Y-43300D02*
X33700Y-44050D01*
X33700Y-44700D02*
X33700Y-45500D01*
X33700Y-45500D02*
X32500Y-45500D01*
X32500Y-45500D02*
X32500Y-44700D01*
X70450Y-34950D02*
G75*
G03X70450Y-34950I-50J0D01*
G74*
G01*
X70400Y-35400D02*
X70400Y-35000D01*
X70400Y-35000D02*
X69800Y-35000D01*
X69800Y-35000D02*
X69800Y-35400D01*
X69800Y-35800D02*
X69800Y-36200D01*
X69800Y-36200D02*
X70400Y-36200D01*
X70400Y-36200D02*
X70400Y-35800D01*
X69650Y-34950D02*
G75*
G03X69650Y-34950I-50J0D01*
G74*
G01*
X69600Y-35400D02*
X69600Y-35000D01*
X69600Y-35000D02*
X69000Y-35000D01*
X69000Y-35000D02*
X69000Y-35400D01*
X69000Y-35800D02*
X69000Y-36200D01*
X69000Y-36200D02*
X69600Y-36200D01*
X69600Y-36200D02*
X69600Y-35800D01*
X62450Y-34750D02*
G75*
G03X62450Y-34750I-50J0D01*
G74*
G01*
X62400Y-35200D02*
X62400Y-34800D01*
X62400Y-34800D02*
X61800Y-34800D01*
X61800Y-34800D02*
X61800Y-35200D01*
X61800Y-35600D02*
X61800Y-36000D01*
X61800Y-36000D02*
X62400Y-36000D01*
X62400Y-36000D02*
X62400Y-35600D01*
X61650Y-34750D02*
G75*
G03X61650Y-34750I-50J0D01*
G74*
G01*
X61600Y-35200D02*
X61600Y-34800D01*
X61600Y-34800D02*
X61000Y-34800D01*
X61000Y-34800D02*
X61000Y-35200D01*
X61000Y-35600D02*
X61000Y-36000D01*
X61000Y-36000D02*
X61600Y-36000D01*
X61600Y-36000D02*
X61600Y-35600D01*
X82250Y-33750D02*
G75*
G03X82250Y-33750I-50J0D01*
G74*
G01*
X82200Y-34200D02*
X82200Y-33800D01*
X82200Y-33800D02*
X81600Y-33800D01*
X81600Y-33800D02*
X81600Y-34200D01*
X81600Y-34600D02*
X81600Y-35000D01*
X81600Y-35000D02*
X82200Y-35000D01*
X82200Y-35000D02*
X82200Y-34600D01*
X73250Y-34350D02*
G75*
G03X73250Y-34350I-50J0D01*
G74*
G01*
X73200Y-34800D02*
X73200Y-34400D01*
X73200Y-34400D02*
X72600Y-34400D01*
X72600Y-34400D02*
X72600Y-34800D01*
X72600Y-35200D02*
X72600Y-35600D01*
X72600Y-35600D02*
X73200Y-35600D01*
X73200Y-35600D02*
X73200Y-35200D01*
X78100Y-33400D02*
G75*
G03X78100Y-33400I-50J0D01*
G74*
G01*
X78500Y-33400D02*
X78100Y-33400D01*
X78100Y-33400D02*
X78100Y-34000D01*
X78100Y-34000D02*
X78500Y-34000D01*
X78900Y-34000D02*
X79300Y-34000D01*
X79300Y-34000D02*
X79300Y-33400D01*
X79300Y-33400D02*
X78900Y-33400D01*
X76250Y-33400D02*
G75*
G03X76250Y-33400I-50J0D01*
G74*
G01*
X76650Y-33400D02*
X76250Y-33400D01*
X76250Y-33400D02*
X76250Y-34000D01*
X76250Y-34000D02*
X76650Y-34000D01*
X77050Y-34000D02*
X77450Y-34000D01*
X77450Y-34000D02*
X77450Y-33400D01*
X77450Y-33400D02*
X77050Y-33400D01*
X68850Y-34950D02*
G75*
G03X68850Y-34950I-50J0D01*
G74*
G01*
X68800Y-35400D02*
X68800Y-35000D01*
X68800Y-35000D02*
X68200Y-35000D01*
X68200Y-35000D02*
X68200Y-35400D01*
X68200Y-35800D02*
X68200Y-36200D01*
X68200Y-36200D02*
X68800Y-36200D01*
X68800Y-36200D02*
X68800Y-35800D01*
X63250Y-34750D02*
G75*
G03X63250Y-34750I-50J0D01*
G74*
G01*
X63200Y-35200D02*
X63200Y-34800D01*
X63200Y-34800D02*
X62600Y-34800D01*
X62600Y-34800D02*
X62600Y-35200D01*
X62600Y-35600D02*
X62600Y-36000D01*
X62600Y-36000D02*
X63200Y-36000D01*
X63200Y-36000D02*
X63200Y-35600D01*
X75200Y-36200D02*
G75*
G03X75200Y-36200I-50J0D01*
G74*
G01*
X74700Y-36200D02*
X75100Y-36200D01*
X75100Y-36200D02*
X75100Y-35600D01*
X75100Y-35600D02*
X74700Y-35600D01*
X74300Y-35600D02*
X73900Y-35600D01*
X73900Y-35600D02*
X73900Y-36200D01*
X73900Y-36200D02*
X74300Y-36200D01*
X79600Y-33400D02*
G75*
G03X79600Y-33400I-50J0D01*
G74*
G01*
X80000Y-33400D02*
X79600Y-33400D01*
X79600Y-33400D02*
X79600Y-34000D01*
X79600Y-34000D02*
X80000Y-34000D01*
X80400Y-34000D02*
X80800Y-34000D01*
X80800Y-34000D02*
X80800Y-33400D01*
X80800Y-33400D02*
X80400Y-33400D01*
X77800Y-35250D02*
G75*
G03X77800Y-35250I-50J0D01*
G74*
G01*
X77750Y-35700D02*
X77750Y-35300D01*
X77750Y-35300D02*
X77150Y-35300D01*
X77150Y-35300D02*
X77150Y-35700D01*
X77150Y-36100D02*
X77150Y-36500D01*
X77150Y-36500D02*
X77750Y-36500D01*
X77750Y-36500D02*
X77750Y-36100D01*
X41650Y-33275D02*
G75*
G03X41650Y-33275I-50J0D01*
G74*
G01*
X41150Y-33275D02*
X41550Y-33275D01*
X41550Y-33275D02*
X41550Y-32675D01*
X41550Y-32675D02*
X41150Y-32675D01*
X40750Y-32675D02*
X40350Y-32675D01*
X40350Y-32675D02*
X40350Y-33275D01*
X40350Y-33275D02*
X40750Y-33275D01*
X39750Y-33275D02*
G75*
G03X39750Y-33275I-50J0D01*
G74*
G01*
X39250Y-33275D02*
X39650Y-33275D01*
X39650Y-33275D02*
X39650Y-32675D01*
X39650Y-32675D02*
X39250Y-32675D01*
X38850Y-32675D02*
X38450Y-32675D01*
X38450Y-32675D02*
X38450Y-33275D01*
X38450Y-33275D02*
X38850Y-33275D01*
X38450Y-31900D02*
G75*
G03X38450Y-31900I-50J0D01*
G74*
G01*
X38850Y-31900D02*
X38450Y-31900D01*
X38450Y-31900D02*
X38450Y-32500D01*
X38450Y-32500D02*
X38850Y-32500D01*
X39250Y-32500D02*
X39650Y-32500D01*
X39650Y-32500D02*
X39650Y-31900D01*
X39650Y-31900D02*
X39250Y-31900D01*
X40325Y-31875D02*
G75*
G03X40325Y-31875I-50J0D01*
G74*
G01*
X40725Y-31875D02*
X40325Y-31875D01*
X40325Y-31875D02*
X40325Y-32475D01*
X40325Y-32475D02*
X40725Y-32475D01*
X41125Y-32475D02*
X41525Y-32475D01*
X41525Y-32475D02*
X41525Y-31875D01*
X41525Y-31875D02*
X41125Y-31875D01*
X76250Y-36800D02*
X76250Y-35600D01*
X76250Y-35600D02*
X75950Y-35600D01*
X75950Y-35600D02*
X75950Y-36800D01*
X75950Y-36800D02*
X76250Y-36800D01*
X68550Y-32100D02*
X68550Y-33300D01*
X68550Y-33300D02*
X68850Y-33300D01*
X68850Y-33300D02*
X68850Y-32100D01*
X68850Y-32100D02*
X68550Y-32100D01*
X71100Y-32450D02*
X69900Y-32450D01*
X69900Y-32450D02*
X69900Y-32750D01*
X69900Y-32750D02*
X71100Y-32750D01*
X71100Y-32750D02*
X71100Y-32450D01*
X73350Y-34200D02*
X73350Y-33000D01*
X73350Y-33000D02*
X73050Y-33000D01*
X73050Y-33000D02*
X73050Y-34200D01*
X73050Y-34200D02*
X73350Y-34200D01*
X79700Y-36000D02*
X78500Y-36000D01*
X78500Y-36000D02*
X78500Y-36300D01*
X78500Y-36300D02*
X79700Y-36300D01*
X79700Y-36300D02*
X79700Y-36000D01*
X81350Y-36000D02*
X80150Y-36000D01*
X80150Y-36000D02*
X80150Y-36300D01*
X80150Y-36300D02*
X81350Y-36300D01*
X81350Y-36300D02*
X81350Y-36000D01*
X60850Y-33300D02*
X60850Y-32100D01*
X60850Y-32100D02*
X60550Y-32100D01*
X60550Y-32100D02*
X60550Y-33300D01*
X60550Y-33300D02*
X60850Y-33300D01*
X62850Y-32100D02*
X62850Y-33300D01*
X62850Y-33300D02*
X63150Y-33300D01*
X63150Y-33300D02*
X63150Y-32100D01*
X63150Y-32100D02*
X62850Y-32100D01*
X61050Y-46850D02*
G75*
G03X61050Y-46850I-50J0D01*
G74*
G01*
X61000Y-47300D02*
X61000Y-46900D01*
X61000Y-46900D02*
X60400Y-46900D01*
X60400Y-46900D02*
X60400Y-47300D01*
X60400Y-47700D02*
X60400Y-48100D01*
X60400Y-48100D02*
X61000Y-48100D01*
X61000Y-48100D02*
X61000Y-47700D01*
X85150Y-47750D02*
G75*
G03X85150Y-47750I-50J0D01*
G74*
G01*
X84650Y-47750D02*
X85050Y-47750D01*
X85050Y-47750D02*
X85050Y-47150D01*
X85050Y-47150D02*
X84650Y-47150D01*
X84250Y-47150D02*
X83850Y-47150D01*
X83850Y-47150D02*
X83850Y-47750D01*
X83850Y-47750D02*
X84250Y-47750D01*
X65250Y-46050D02*
G75*
G03X65250Y-46050I-50J0D01*
G74*
G01*
X65200Y-46500D02*
X65200Y-46100D01*
X65200Y-46100D02*
X64600Y-46100D01*
X64600Y-46100D02*
X64600Y-46500D01*
X64600Y-46900D02*
X64600Y-47300D01*
X64600Y-47300D02*
X65200Y-47300D01*
X65200Y-47300D02*
X65200Y-46900D01*
X65750Y-39650D02*
G75*
G03X65750Y-39650I-50J0D01*
G74*
G01*
X65250Y-39650D02*
X65650Y-39650D01*
X65650Y-39650D02*
X65650Y-39050D01*
X65650Y-39050D02*
X65250Y-39050D01*
X64850Y-39050D02*
X64450Y-39050D01*
X64450Y-39050D02*
X64450Y-39650D01*
X64450Y-39650D02*
X64850Y-39650D01*
X52175Y-37400D02*
G75*
G03X52175Y-37400I-50J0D01*
G74*
G01*
X52125Y-36950D02*
X52125Y-37350D01*
X52125Y-37350D02*
X52725Y-37350D01*
X52725Y-37350D02*
X52725Y-36950D01*
X52725Y-36550D02*
X52725Y-36150D01*
X52725Y-36150D02*
X52125Y-36150D01*
X52125Y-36150D02*
X52125Y-36550D01*
X51200Y-37750D02*
G75*
G03X51200Y-37750I-50J0D01*
G74*
G01*
X51150Y-37300D02*
X51150Y-37700D01*
X51150Y-37700D02*
X51750Y-37700D01*
X51750Y-37700D02*
X51750Y-37300D01*
X51750Y-36900D02*
X51750Y-36500D01*
X51750Y-36500D02*
X51150Y-36500D01*
X51150Y-36500D02*
X51150Y-36900D01*
X48500Y-38650D02*
G75*
G03X48500Y-38650I-50J0D01*
G74*
G01*
X48450Y-38200D02*
X48450Y-38600D01*
X48450Y-38600D02*
X49050Y-38600D01*
X49050Y-38600D02*
X49050Y-38200D01*
X49050Y-37800D02*
X49050Y-37400D01*
X49050Y-37400D02*
X48450Y-37400D01*
X48450Y-37400D02*
X48450Y-37800D01*
X47550Y-38100D02*
G75*
G03X47550Y-38100I-50J0D01*
G74*
G01*
X47500Y-37650D02*
X47500Y-38050D01*
X47500Y-38050D02*
X48100Y-38050D01*
X48100Y-38050D02*
X48100Y-37650D01*
X48100Y-37250D02*
X48100Y-36850D01*
X48100Y-36850D02*
X47500Y-36850D01*
X47500Y-36850D02*
X47500Y-37250D01*
X45500Y-37900D02*
G75*
G03X45500Y-37900I-50J0D01*
G74*
G01*
X45450Y-37450D02*
X45450Y-37850D01*
X45450Y-37850D02*
X46050Y-37850D01*
X46050Y-37850D02*
X46050Y-37450D01*
X46050Y-37050D02*
X46050Y-36650D01*
X46050Y-36650D02*
X45450Y-36650D01*
X45450Y-36650D02*
X45450Y-37050D01*
X44575Y-38525D02*
G75*
G03X44575Y-38525I-50J0D01*
G74*
G01*
X44525Y-38075D02*
X44525Y-38475D01*
X44525Y-38475D02*
X45125Y-38475D01*
X45125Y-38475D02*
X45125Y-38075D01*
X45125Y-37675D02*
X45125Y-37275D01*
X45125Y-37275D02*
X44525Y-37275D01*
X44525Y-37275D02*
X44525Y-37675D01*
X84030Y-30470D02*
G75*
G03X84030Y-30470I-70J0D01*
G74*
G01*
X82810Y-31120D02*
X82810Y-30520D01*
X82810Y-30520D02*
X83910Y-30520D01*
X83910Y-30520D02*
X83910Y-31120D01*
X83910Y-31720D02*
X83910Y-32320D01*
X83910Y-32320D02*
X82810Y-32320D01*
X82810Y-32320D02*
X82810Y-31720D01*
X84320Y-33580D02*
G75*
G03X84320Y-33580I-70J0D01*
G74*
G01*
X83600Y-32430D02*
X84200Y-32430D01*
X84200Y-32430D02*
X84200Y-33530D01*
X84200Y-33530D02*
X83600Y-33530D01*
X83000Y-33530D02*
X82400Y-33530D01*
X82400Y-33530D02*
X82400Y-32430D01*
X82400Y-32430D02*
X83000Y-32430D01*
X84280Y-34980D02*
G75*
G03X84280Y-34980I-70J0D01*
G74*
G01*
X83560Y-33830D02*
X84160Y-33830D01*
X84160Y-33830D02*
X84160Y-34930D01*
X84160Y-34930D02*
X83560Y-34930D01*
X82960Y-34930D02*
X82360Y-34930D01*
X82360Y-34930D02*
X82360Y-33830D01*
X82360Y-33830D02*
X82960Y-33830D01*
X83090Y-37230D02*
G75*
G03X83090Y-37230I-70J0D01*
G74*
G01*
X84170Y-36580D02*
X84170Y-37180D01*
X84170Y-37180D02*
X83070Y-37180D01*
X83070Y-37180D02*
X83070Y-36580D01*
X83070Y-35980D02*
X83070Y-35380D01*
X83070Y-35380D02*
X84170Y-35380D01*
X84170Y-35380D02*
X84170Y-35980D01*
X64830Y-41420D02*
G75*
G03X64830Y-41420I-50J0D01*
G74*
G01*
X64330Y-41420D02*
X64730Y-41420D01*
X64730Y-41420D02*
X64730Y-40820D01*
X64730Y-40820D02*
X64330Y-40820D01*
X63930Y-40820D02*
X63530Y-40820D01*
X63530Y-40820D02*
X63530Y-41420D01*
X63530Y-41420D02*
X63930Y-41420D01*
G54D12*
X73000Y-53971D02*
X72985Y-53942D01*
X72957Y-53914D01*
X72914Y-53871D01*
X72900Y-53842D01*
X72900Y-53814D01*
X72971Y-53828D02*
X72957Y-53800D01*
X72928Y-53771D01*
X72871Y-53757D01*
X72771Y-53757D01*
X72714Y-53771D01*
X72685Y-53800D01*
X72671Y-53828D01*
X72671Y-53885D01*
X72685Y-53914D01*
X72714Y-53942D01*
X72771Y-53957D01*
X72871Y-53957D01*
X72928Y-53942D01*
X72957Y-53914D01*
X72971Y-53885D01*
X72971Y-53828D01*
X72971Y-54242D02*
X72971Y-54071D01*
X72971Y-54157D02*
X72671Y-54157D01*
X72714Y-54128D01*
X72742Y-54100D01*
X72757Y-54071D01*
G54D13*
G54D11*
X62741Y-54301D02*
X62825Y-54182D01*
X62884Y-54301D02*
X62884Y-54051D01*
X62789Y-54051D01*
X62765Y-54063D01*
X62753Y-54075D01*
X62741Y-54098D01*
X62741Y-54134D01*
X62753Y-54158D01*
X62765Y-54170D01*
X62789Y-54182D01*
X62884Y-54182D01*
X62503Y-54301D02*
X62646Y-54301D01*
X62575Y-54301D02*
X62575Y-54051D01*
X62598Y-54086D01*
X62622Y-54110D01*
X62646Y-54122D01*
X70966Y-49726D02*
X71050Y-49607D01*
X71109Y-49726D02*
X71109Y-49476D01*
X71014Y-49476D01*
X70990Y-49488D01*
X70978Y-49500D01*
X70966Y-49523D01*
X70966Y-49559D01*
X70978Y-49583D01*
X70990Y-49595D01*
X71014Y-49607D01*
X71109Y-49607D01*
X70752Y-49476D02*
X70800Y-49476D01*
X70823Y-49488D01*
X70835Y-49500D01*
X70859Y-49535D01*
X70871Y-49583D01*
X70871Y-49678D01*
X70859Y-49702D01*
X70847Y-49714D01*
X70823Y-49726D01*
X70776Y-49726D01*
X70752Y-49714D01*
X70740Y-49702D01*
X70728Y-49678D01*
X70728Y-49619D01*
X70740Y-49595D01*
X70752Y-49583D01*
X70776Y-49571D01*
X70823Y-49571D01*
X70847Y-49583D01*
X70859Y-49595D01*
X70871Y-49619D01*
X71041Y-54401D02*
X71125Y-54282D01*
X71184Y-54401D02*
X71184Y-54151D01*
X71089Y-54151D01*
X71065Y-54163D01*
X71053Y-54175D01*
X71041Y-54198D01*
X71041Y-54234D01*
X71053Y-54258D01*
X71065Y-54270D01*
X71089Y-54282D01*
X71184Y-54282D01*
X70827Y-54234D02*
X70827Y-54401D01*
X70886Y-54139D02*
X70946Y-54317D01*
X70791Y-54317D01*
X82640Y-39071D02*
X82640Y-39314D01*
X82628Y-39342D01*
X82616Y-39357D01*
X82592Y-39371D01*
X82545Y-39371D01*
X82521Y-39357D01*
X82509Y-39342D01*
X82497Y-39314D01*
X82497Y-39071D01*
X82402Y-39071D02*
X82247Y-39071D01*
X82330Y-39185D01*
X82295Y-39185D01*
X82271Y-39200D01*
X82259Y-39214D01*
X82247Y-39242D01*
X82247Y-39314D01*
X82259Y-39342D01*
X82271Y-39357D01*
X82295Y-39371D01*
X82366Y-39371D01*
X82390Y-39357D01*
X82402Y-39342D01*
X70150Y-38421D02*
X70250Y-38278D01*
X70321Y-38421D02*
X70321Y-38121D01*
X70207Y-38121D01*
X70178Y-38135D01*
X70164Y-38150D01*
X70150Y-38178D01*
X70150Y-38221D01*
X70164Y-38250D01*
X70178Y-38264D01*
X70207Y-38278D01*
X70321Y-38278D01*
X70007Y-38421D02*
X69950Y-38421D01*
X69921Y-38407D01*
X69907Y-38392D01*
X69878Y-38350D01*
X69864Y-38292D01*
X69864Y-38178D01*
X69878Y-38150D01*
X69892Y-38135D01*
X69921Y-38121D01*
X69978Y-38121D01*
X70007Y-38135D01*
X70021Y-38150D01*
X70035Y-38178D01*
X70035Y-38250D01*
X70021Y-38278D01*
X70007Y-38292D01*
X69978Y-38307D01*
X69921Y-38307D01*
X69892Y-38292D01*
X69878Y-38278D01*
X69864Y-38250D01*
X67300Y-38471D02*
X67400Y-38328D01*
X67471Y-38471D02*
X67471Y-38171D01*
X67357Y-38171D01*
X67328Y-38185D01*
X67314Y-38200D01*
X67300Y-38228D01*
X67300Y-38271D01*
X67314Y-38300D01*
X67328Y-38314D01*
X67357Y-38328D01*
X67471Y-38328D01*
X67128Y-38300D02*
X67157Y-38285D01*
X67171Y-38271D01*
X67185Y-38242D01*
X67185Y-38228D01*
X67171Y-38200D01*
X67157Y-38185D01*
X67128Y-38171D01*
X67071Y-38171D01*
X67042Y-38185D01*
X67028Y-38200D01*
X67014Y-38228D01*
X67014Y-38242D01*
X67028Y-38271D01*
X67042Y-38285D01*
X67071Y-38300D01*
X67128Y-38300D01*
X67157Y-38314D01*
X67171Y-38328D01*
X67185Y-38357D01*
X67185Y-38414D01*
X67171Y-38442D01*
X67157Y-38457D01*
X67128Y-38471D01*
X67071Y-38471D01*
X67042Y-38457D01*
X67028Y-38442D01*
X67014Y-38414D01*
X67014Y-38357D01*
X67028Y-38328D01*
X67042Y-38314D01*
X67071Y-38300D01*
X70100Y-39571D02*
X70200Y-39428D01*
X70271Y-39571D02*
X70271Y-39271D01*
X70157Y-39271D01*
X70128Y-39285D01*
X70114Y-39300D01*
X70100Y-39328D01*
X70100Y-39371D01*
X70114Y-39400D01*
X70128Y-39414D01*
X70157Y-39428D01*
X70271Y-39428D01*
X70000Y-39271D02*
X69800Y-39271D01*
X69928Y-39571D01*
X74192Y-41071D02*
X74292Y-40928D01*
X74364Y-41071D02*
X74364Y-40771D01*
X74250Y-40771D01*
X74221Y-40785D01*
X74207Y-40800D01*
X74192Y-40828D01*
X74192Y-40871D01*
X74207Y-40900D01*
X74221Y-40914D01*
X74250Y-40928D01*
X74364Y-40928D01*
X73907Y-41071D02*
X74078Y-41071D01*
X73992Y-41071D02*
X73992Y-40771D01*
X74021Y-40814D01*
X74050Y-40842D01*
X74078Y-40857D01*
X73721Y-40771D02*
X73692Y-40771D01*
X73664Y-40785D01*
X73650Y-40800D01*
X73635Y-40828D01*
X73621Y-40885D01*
X73621Y-40957D01*
X73635Y-41014D01*
X73650Y-41042D01*
X73664Y-41057D01*
X73692Y-41071D01*
X73721Y-41071D01*
X73750Y-41057D01*
X73764Y-41042D01*
X73778Y-41014D01*
X73792Y-40957D01*
X73792Y-40885D01*
X73778Y-40828D01*
X73764Y-40800D01*
X73750Y-40785D01*
X73721Y-40771D01*
X77560Y-40351D02*
X77644Y-40232D01*
X77703Y-40351D02*
X77703Y-40101D01*
X77608Y-40101D01*
X77584Y-40113D01*
X77572Y-40125D01*
X77560Y-40148D01*
X77560Y-40184D01*
X77572Y-40208D01*
X77584Y-40220D01*
X77608Y-40232D01*
X77703Y-40232D01*
X77346Y-40184D02*
X77346Y-40351D01*
X77405Y-40089D02*
X77465Y-40267D01*
X77310Y-40267D01*
X77108Y-40184D02*
X77108Y-40351D01*
X77167Y-40089D02*
X77227Y-40267D01*
X77072Y-40267D01*
X66541Y-39427D02*
X66553Y-39439D01*
X66589Y-39451D01*
X66613Y-39451D01*
X66648Y-39439D01*
X66672Y-39415D01*
X66684Y-39391D01*
X66696Y-39344D01*
X66696Y-39308D01*
X66684Y-39260D01*
X66672Y-39236D01*
X66648Y-39213D01*
X66613Y-39201D01*
X66589Y-39201D01*
X66553Y-39213D01*
X66541Y-39225D01*
X66458Y-39201D02*
X66291Y-39201D01*
X66398Y-39451D01*
X63641Y-39427D02*
X63653Y-39439D01*
X63689Y-39451D01*
X63713Y-39451D01*
X63748Y-39439D01*
X63772Y-39415D01*
X63784Y-39391D01*
X63796Y-39344D01*
X63796Y-39308D01*
X63784Y-39260D01*
X63772Y-39236D01*
X63748Y-39213D01*
X63713Y-39201D01*
X63689Y-39201D01*
X63653Y-39213D01*
X63641Y-39225D01*
X63498Y-39308D02*
X63522Y-39296D01*
X63534Y-39284D01*
X63546Y-39260D01*
X63546Y-39248D01*
X63534Y-39225D01*
X63522Y-39213D01*
X63498Y-39201D01*
X63451Y-39201D01*
X63427Y-39213D01*
X63415Y-39225D01*
X63403Y-39248D01*
X63403Y-39260D01*
X63415Y-39284D01*
X63427Y-39296D01*
X63451Y-39308D01*
X63498Y-39308D01*
X63522Y-39320D01*
X63534Y-39332D01*
X63546Y-39355D01*
X63546Y-39403D01*
X63534Y-39427D01*
X63522Y-39439D01*
X63498Y-39451D01*
X63451Y-39451D01*
X63427Y-39439D01*
X63415Y-39427D01*
X63403Y-39403D01*
X63403Y-39355D01*
X63415Y-39332D01*
X63427Y-39320D01*
X63451Y-39308D01*
X76427Y-38789D02*
X76439Y-38777D01*
X76451Y-38741D01*
X76451Y-38717D01*
X76439Y-38682D01*
X76415Y-38658D01*
X76391Y-38646D01*
X76344Y-38634D01*
X76308Y-38634D01*
X76260Y-38646D01*
X76236Y-38658D01*
X76213Y-38682D01*
X76201Y-38717D01*
X76201Y-38741D01*
X76213Y-38777D01*
X76225Y-38789D01*
X76451Y-39027D02*
X76451Y-38884D01*
X76451Y-38955D02*
X76201Y-38955D01*
X76236Y-38932D01*
X76260Y-38908D01*
X76272Y-38884D01*
X76201Y-39182D02*
X76201Y-39205D01*
X76213Y-39229D01*
X76225Y-39241D01*
X76248Y-39253D01*
X76296Y-39265D01*
X76355Y-39265D01*
X76403Y-39253D01*
X76427Y-39241D01*
X76439Y-39229D01*
X76451Y-39205D01*
X76451Y-39182D01*
X76439Y-39158D01*
X76427Y-39146D01*
X76403Y-39134D01*
X76355Y-39122D01*
X76296Y-39122D01*
X76248Y-39134D01*
X76225Y-39146D01*
X76213Y-39158D01*
X76201Y-39182D01*
X74027Y-37408D02*
X74039Y-37396D01*
X74051Y-37360D01*
X74051Y-37336D01*
X74039Y-37301D01*
X74015Y-37277D01*
X73991Y-37265D01*
X73944Y-37253D01*
X73908Y-37253D01*
X73860Y-37265D01*
X73836Y-37277D01*
X73813Y-37301D01*
X73801Y-37336D01*
X73801Y-37360D01*
X73813Y-37396D01*
X73825Y-37408D01*
X74051Y-37527D02*
X74051Y-37575D01*
X74039Y-37598D01*
X74027Y-37610D01*
X73991Y-37634D01*
X73944Y-37646D01*
X73848Y-37646D01*
X73825Y-37634D01*
X73813Y-37622D01*
X73801Y-37598D01*
X73801Y-37551D01*
X73813Y-37527D01*
X73825Y-37515D01*
X73848Y-37503D01*
X73908Y-37503D01*
X73932Y-37515D01*
X73944Y-37527D01*
X73955Y-37551D01*
X73955Y-37598D01*
X73944Y-37622D01*
X73932Y-37634D01*
X73908Y-37646D01*
X82610Y-38077D02*
X82622Y-38089D01*
X82658Y-38101D01*
X82682Y-38101D01*
X82717Y-38089D01*
X82741Y-38065D01*
X82753Y-38041D01*
X82765Y-37994D01*
X82765Y-37958D01*
X82753Y-37910D01*
X82741Y-37886D01*
X82717Y-37863D01*
X82682Y-37851D01*
X82658Y-37851D01*
X82622Y-37863D01*
X82610Y-37875D01*
X82372Y-38101D02*
X82515Y-38101D01*
X82444Y-38101D02*
X82444Y-37851D01*
X82467Y-37886D01*
X82491Y-37910D01*
X82515Y-37922D01*
X82134Y-38101D02*
X82277Y-38101D01*
X82205Y-38101D02*
X82205Y-37851D01*
X82229Y-37886D01*
X82253Y-37910D01*
X82277Y-37922D01*
X77660Y-39251D02*
X77744Y-39132D01*
X77803Y-39251D02*
X77803Y-39001D01*
X77708Y-39001D01*
X77684Y-39013D01*
X77672Y-39025D01*
X77660Y-39048D01*
X77660Y-39084D01*
X77672Y-39108D01*
X77684Y-39120D01*
X77708Y-39132D01*
X77803Y-39132D01*
X77446Y-39084D02*
X77446Y-39251D01*
X77505Y-38989D02*
X77565Y-39167D01*
X77410Y-39167D01*
X77196Y-39001D02*
X77315Y-39001D01*
X77327Y-39120D01*
X77315Y-39108D01*
X77291Y-39096D01*
X77232Y-39096D01*
X77208Y-39108D01*
X77196Y-39120D01*
X77184Y-39144D01*
X77184Y-39203D01*
X77196Y-39227D01*
X77208Y-39239D01*
X77232Y-39251D01*
X77291Y-39251D01*
X77315Y-39239D01*
X77327Y-39227D01*
X76010Y-41201D02*
X76094Y-41082D01*
X76153Y-41201D02*
X76153Y-40951D01*
X76058Y-40951D01*
X76034Y-40963D01*
X76022Y-40975D01*
X76010Y-40998D01*
X76010Y-41034D01*
X76022Y-41058D01*
X76034Y-41070D01*
X76058Y-41082D01*
X76153Y-41082D01*
X75772Y-41201D02*
X75915Y-41201D01*
X75844Y-41201D02*
X75844Y-40951D01*
X75867Y-40986D01*
X75891Y-41010D01*
X75915Y-41022D01*
X75689Y-40951D02*
X75534Y-40951D01*
X75617Y-41046D01*
X75582Y-41046D01*
X75558Y-41058D01*
X75546Y-41070D01*
X75534Y-41094D01*
X75534Y-41153D01*
X75546Y-41177D01*
X75558Y-41189D01*
X75582Y-41201D01*
X75653Y-41201D01*
X75677Y-41189D01*
X75689Y-41177D01*
X77610Y-38251D02*
X77694Y-38132D01*
X77753Y-38251D02*
X77753Y-38001D01*
X77658Y-38001D01*
X77634Y-38013D01*
X77622Y-38025D01*
X77610Y-38048D01*
X77610Y-38084D01*
X77622Y-38108D01*
X77634Y-38120D01*
X77658Y-38132D01*
X77753Y-38132D01*
X77372Y-38251D02*
X77515Y-38251D01*
X77444Y-38251D02*
X77444Y-38001D01*
X77467Y-38036D01*
X77491Y-38060D01*
X77515Y-38072D01*
X77277Y-38025D02*
X77265Y-38013D01*
X77241Y-38001D01*
X77182Y-38001D01*
X77158Y-38013D01*
X77146Y-38025D01*
X77134Y-38048D01*
X77134Y-38072D01*
X77146Y-38108D01*
X77289Y-38251D01*
X77134Y-38251D01*
X70010Y-41401D02*
X70094Y-41282D01*
X70153Y-41401D02*
X70153Y-41151D01*
X70058Y-41151D01*
X70034Y-41163D01*
X70022Y-41175D01*
X70010Y-41198D01*
X70010Y-41234D01*
X70022Y-41258D01*
X70034Y-41270D01*
X70058Y-41282D01*
X70153Y-41282D01*
X69772Y-41401D02*
X69915Y-41401D01*
X69844Y-41401D02*
X69844Y-41151D01*
X69867Y-41186D01*
X69891Y-41210D01*
X69915Y-41222D01*
X69534Y-41401D02*
X69677Y-41401D01*
X69605Y-41401D02*
X69605Y-41151D01*
X69629Y-41186D01*
X69653Y-41210D01*
X69677Y-41222D01*
X65991Y-37427D02*
X66003Y-37439D01*
X66039Y-37451D01*
X66063Y-37451D01*
X66098Y-37439D01*
X66122Y-37415D01*
X66134Y-37391D01*
X66146Y-37344D01*
X66146Y-37308D01*
X66134Y-37260D01*
X66122Y-37236D01*
X66098Y-37213D01*
X66063Y-37201D01*
X66039Y-37201D01*
X66003Y-37213D01*
X65991Y-37225D01*
X65753Y-37451D02*
X65896Y-37451D01*
X65825Y-37451D02*
X65825Y-37201D01*
X65848Y-37236D01*
X65872Y-37260D01*
X65896Y-37272D01*
X49935Y-47951D02*
X50019Y-47832D01*
X50078Y-47951D02*
X50078Y-47701D01*
X49983Y-47701D01*
X49959Y-47713D01*
X49947Y-47725D01*
X49935Y-47748D01*
X49935Y-47784D01*
X49947Y-47808D01*
X49959Y-47820D01*
X49983Y-47832D01*
X50078Y-47832D01*
X49721Y-47784D02*
X49721Y-47951D01*
X49780Y-47689D02*
X49840Y-47867D01*
X49685Y-47867D01*
X49614Y-47701D02*
X49459Y-47701D01*
X49542Y-47796D01*
X49507Y-47796D01*
X49483Y-47808D01*
X49471Y-47820D01*
X49459Y-47844D01*
X49459Y-47903D01*
X49471Y-47927D01*
X49483Y-47939D01*
X49507Y-47951D01*
X49578Y-47951D01*
X49602Y-47939D01*
X49614Y-47927D01*
G54D12*
X71578Y-36550D02*
X71607Y-36535D01*
X71635Y-36507D01*
X71678Y-36464D01*
X71707Y-36450D01*
X71735Y-36450D01*
X71721Y-36521D02*
X71750Y-36507D01*
X71778Y-36478D01*
X71792Y-36421D01*
X71792Y-36321D01*
X71778Y-36264D01*
X71750Y-36235D01*
X71721Y-36221D01*
X71664Y-36221D01*
X71635Y-36235D01*
X71607Y-36264D01*
X71592Y-36321D01*
X71592Y-36421D01*
X71607Y-36478D01*
X71635Y-36507D01*
X71664Y-36521D01*
X71721Y-36521D01*
X71478Y-36250D02*
X71464Y-36235D01*
X71435Y-36221D01*
X71364Y-36221D01*
X71335Y-36235D01*
X71321Y-36250D01*
X71307Y-36278D01*
X71307Y-36307D01*
X71321Y-36350D01*
X71492Y-36521D01*
X71307Y-36521D01*
G54D13*
G54D12*
X72985Y-37371D02*
X72985Y-37071D01*
X72914Y-37071D01*
X72871Y-37085D01*
X72842Y-37114D01*
X72828Y-37142D01*
X72814Y-37200D01*
X72814Y-37242D01*
X72828Y-37300D01*
X72842Y-37328D01*
X72871Y-37357D01*
X72914Y-37371D01*
X72985Y-37371D01*
X72685Y-37371D02*
X72685Y-37071D01*
X72585Y-37285D01*
X72485Y-37071D01*
X72485Y-37371D01*
X72342Y-37371D02*
X72342Y-37071D01*
X72171Y-37371D01*
X72171Y-37071D01*
X71899Y-37071D02*
X71957Y-37071D01*
X71985Y-37085D01*
X71999Y-37100D01*
X72028Y-37142D01*
X72042Y-37200D01*
X72042Y-37314D01*
X72028Y-37342D01*
X72014Y-37357D01*
X71985Y-37371D01*
X71928Y-37371D01*
X71899Y-37357D01*
X71885Y-37342D01*
X71871Y-37314D01*
X71871Y-37242D01*
X71885Y-37214D01*
X71899Y-37200D01*
X71928Y-37185D01*
X71985Y-37185D01*
X72014Y-37200D01*
X72028Y-37214D01*
X72042Y-37242D01*
X71599Y-37071D02*
X71742Y-37071D01*
X71757Y-37214D01*
X71742Y-37200D01*
X71714Y-37185D01*
X71642Y-37185D01*
X71614Y-37200D01*
X71599Y-37214D01*
X71585Y-37242D01*
X71585Y-37314D01*
X71599Y-37342D01*
X71614Y-37357D01*
X71642Y-37371D01*
X71714Y-37371D01*
X71742Y-37357D01*
X71757Y-37342D01*
X71457Y-37371D02*
X71457Y-37071D01*
X71385Y-37071D01*
X71342Y-37085D01*
X71314Y-37114D01*
X71300Y-37142D01*
X71285Y-37200D01*
X71285Y-37242D01*
X71300Y-37300D01*
X71314Y-37328D01*
X71342Y-37357D01*
X71385Y-37371D01*
X71457Y-37371D01*
X71114Y-37200D02*
X71142Y-37185D01*
X71157Y-37171D01*
X71171Y-37142D01*
X71171Y-37128D01*
X71157Y-37100D01*
X71142Y-37085D01*
X71114Y-37071D01*
X71057Y-37071D01*
X71028Y-37085D01*
X71014Y-37100D01*
X71000Y-37128D01*
X71000Y-37142D01*
X71014Y-37171D01*
X71028Y-37185D01*
X71057Y-37200D01*
X71114Y-37200D01*
X71142Y-37214D01*
X71157Y-37228D01*
X71171Y-37257D01*
X71171Y-37314D01*
X71157Y-37342D01*
X71142Y-37357D01*
X71114Y-37371D01*
X71057Y-37371D01*
X71028Y-37357D01*
X71014Y-37342D01*
X71000Y-37314D01*
X71000Y-37257D01*
X71014Y-37228D01*
X71028Y-37214D01*
X71057Y-37200D01*
X70728Y-37371D02*
X70871Y-37371D01*
X70871Y-37071D01*
X70628Y-37257D02*
X70400Y-37257D01*
X70285Y-37071D02*
X70085Y-37071D01*
X70214Y-37371D01*
G54D13*
G54D11*
X83485Y-44305D02*
X83314Y-44305D01*
X83399Y-44705D02*
X83399Y-44305D01*
X83214Y-44705D02*
X83214Y-44305D01*
X83214Y-44496D02*
X83042Y-44496D01*
X83042Y-44705D02*
X83042Y-44305D01*
X82757Y-44305D02*
X82899Y-44305D01*
X82914Y-44496D01*
X82899Y-44477D01*
X82871Y-44458D01*
X82799Y-44458D01*
X82771Y-44477D01*
X82757Y-44496D01*
X82742Y-44534D01*
X82742Y-44629D01*
X82757Y-44667D01*
X82771Y-44686D01*
X82799Y-44705D01*
X82871Y-44705D01*
X82899Y-44686D01*
X82914Y-44667D01*
X74927Y-44089D02*
X74939Y-44077D01*
X74951Y-44041D01*
X74951Y-44017D01*
X74939Y-43982D01*
X74915Y-43958D01*
X74891Y-43946D01*
X74844Y-43934D01*
X74808Y-43934D01*
X74760Y-43946D01*
X74736Y-43958D01*
X74713Y-43982D01*
X74701Y-44017D01*
X74701Y-44041D01*
X74713Y-44077D01*
X74725Y-44089D01*
X74951Y-44327D02*
X74951Y-44184D01*
X74951Y-44255D02*
X74701Y-44255D01*
X74736Y-44232D01*
X74760Y-44208D01*
X74772Y-44184D01*
X74701Y-44410D02*
X74701Y-44565D01*
X74796Y-44482D01*
X74796Y-44517D01*
X74808Y-44541D01*
X74820Y-44553D01*
X74844Y-44565D01*
X74903Y-44565D01*
X74927Y-44553D01*
X74939Y-44541D01*
X74951Y-44517D01*
X74951Y-44446D01*
X74939Y-44422D01*
X74927Y-44410D01*
X62752Y-42864D02*
X62764Y-42852D01*
X62776Y-42816D01*
X62776Y-42792D01*
X62764Y-42757D01*
X62740Y-42733D01*
X62716Y-42721D01*
X62669Y-42709D01*
X62633Y-42709D01*
X62585Y-42721D01*
X62561Y-42733D01*
X62538Y-42757D01*
X62526Y-42792D01*
X62526Y-42816D01*
X62538Y-42852D01*
X62550Y-42864D01*
X62776Y-43102D02*
X62776Y-42959D01*
X62776Y-43030D02*
X62526Y-43030D01*
X62561Y-43007D01*
X62585Y-42983D01*
X62597Y-42959D01*
X62550Y-43197D02*
X62538Y-43209D01*
X62526Y-43233D01*
X62526Y-43292D01*
X62538Y-43316D01*
X62550Y-43328D01*
X62573Y-43340D01*
X62597Y-43340D01*
X62633Y-43328D01*
X62776Y-43185D01*
X62776Y-43340D01*
X26417Y-31464D02*
X26417Y-31635D01*
X26817Y-31550D02*
X26417Y-31550D01*
X26817Y-31735D02*
X26417Y-31735D01*
X26608Y-31735D02*
X26608Y-31907D01*
X26817Y-31907D02*
X26417Y-31907D01*
X26817Y-32207D02*
X26817Y-32035D01*
X26817Y-32121D02*
X26417Y-32121D01*
X26475Y-32092D01*
X26513Y-32064D01*
X26532Y-32035D01*
X27411Y-29950D02*
X27011Y-29950D01*
X27297Y-30050D01*
X27011Y-30150D01*
X27411Y-30150D01*
X27411Y-30292D02*
X27011Y-30292D01*
X27411Y-30435D02*
X27011Y-30435D01*
X27411Y-30607D01*
X27011Y-30607D01*
X27411Y-30750D02*
X27011Y-30750D01*
X27392Y-30878D02*
X27411Y-30921D01*
X27411Y-30992D01*
X27392Y-31021D01*
X27373Y-31035D01*
X27335Y-31050D01*
X27297Y-31050D01*
X27259Y-31035D01*
X27240Y-31021D01*
X27221Y-30992D01*
X27202Y-30935D01*
X27183Y-30907D01*
X27164Y-30892D01*
X27126Y-30878D01*
X27088Y-30878D01*
X27050Y-30892D01*
X27030Y-30907D01*
X27011Y-30935D01*
X27011Y-31007D01*
X27030Y-31050D01*
X27411Y-31178D02*
X27011Y-31178D01*
X27297Y-31278D01*
X27011Y-31378D01*
X27411Y-31378D01*
X27411Y-31521D02*
X27011Y-31521D01*
X27011Y-31592D01*
X27030Y-31635D01*
X27069Y-31664D01*
X27107Y-31678D01*
X27183Y-31692D01*
X27240Y-31692D01*
X27316Y-31678D01*
X27354Y-31664D01*
X27392Y-31635D01*
X27411Y-31592D01*
X27411Y-31521D01*
X27373Y-31992D02*
X27392Y-31978D01*
X27411Y-31935D01*
X27411Y-31907D01*
X27392Y-31864D01*
X27354Y-31835D01*
X27316Y-31821D01*
X27240Y-31807D01*
X27183Y-31807D01*
X27107Y-31821D01*
X27069Y-31835D01*
X27030Y-31864D01*
X27011Y-31907D01*
X27011Y-31935D01*
X27030Y-31978D01*
X27050Y-31992D01*
X27011Y-32178D02*
X27011Y-32207D01*
X27030Y-32235D01*
X27050Y-32250D01*
X27088Y-32264D01*
X27164Y-32278D01*
X27259Y-32278D01*
X27335Y-32264D01*
X27373Y-32250D01*
X27392Y-32235D01*
X27411Y-32207D01*
X27411Y-32178D01*
X27392Y-32150D01*
X27373Y-32135D01*
X27335Y-32121D01*
X27259Y-32107D01*
X27164Y-32107D01*
X27088Y-32121D01*
X27050Y-32135D01*
X27030Y-32150D01*
X27011Y-32178D01*
X27011Y-32550D02*
X27011Y-32407D01*
X27202Y-32392D01*
X27183Y-32407D01*
X27164Y-32435D01*
X27164Y-32507D01*
X27183Y-32535D01*
X27202Y-32550D01*
X27240Y-32564D01*
X27335Y-32564D01*
X27373Y-32550D01*
X27392Y-32535D01*
X27411Y-32507D01*
X27411Y-32435D01*
X27392Y-32407D01*
X27373Y-32392D01*
X27011Y-32749D02*
X27011Y-32778D01*
X27030Y-32807D01*
X27050Y-32821D01*
X27088Y-32835D01*
X27164Y-32849D01*
X27259Y-32849D01*
X27335Y-32835D01*
X27373Y-32821D01*
X27392Y-32807D01*
X27411Y-32778D01*
X27411Y-32749D01*
X27392Y-32721D01*
X27373Y-32707D01*
X27335Y-32692D01*
X27259Y-32678D01*
X27164Y-32678D01*
X27088Y-32692D01*
X27050Y-32707D01*
X27030Y-32721D01*
X27011Y-32749D01*
X27202Y-33078D02*
X27202Y-32978D01*
X27411Y-32978D02*
X27011Y-32978D01*
X27011Y-33121D01*
X27259Y-33235D02*
X27259Y-33464D01*
X27050Y-33592D02*
X27030Y-33607D01*
X27011Y-33635D01*
X27011Y-33707D01*
X27030Y-33735D01*
X27050Y-33750D01*
X27088Y-33764D01*
X27126Y-33764D01*
X27183Y-33750D01*
X27411Y-33578D01*
X27411Y-33764D01*
X34035Y-48905D02*
X33864Y-48905D01*
X33949Y-49305D02*
X33949Y-48905D01*
X33764Y-49305D02*
X33764Y-48905D01*
X33764Y-49096D02*
X33592Y-49096D01*
X33592Y-49305D02*
X33592Y-48905D01*
X33464Y-48944D02*
X33449Y-48924D01*
X33421Y-48905D01*
X33349Y-48905D01*
X33321Y-48924D01*
X33307Y-48944D01*
X33292Y-48982D01*
X33292Y-49020D01*
X33307Y-49077D01*
X33478Y-49305D01*
X33292Y-49305D01*
X35549Y-48711D02*
X35549Y-48311D01*
X35449Y-48597D01*
X35349Y-48311D01*
X35349Y-48711D01*
X35207Y-48711D02*
X35207Y-48311D01*
X35064Y-48711D02*
X35064Y-48311D01*
X34892Y-48711D01*
X34892Y-48311D01*
X34749Y-48711D02*
X34749Y-48311D01*
X34621Y-48692D02*
X34578Y-48711D01*
X34507Y-48711D01*
X34478Y-48692D01*
X34464Y-48673D01*
X34450Y-48635D01*
X34450Y-48597D01*
X34464Y-48559D01*
X34478Y-48540D01*
X34507Y-48521D01*
X34564Y-48502D01*
X34592Y-48483D01*
X34607Y-48464D01*
X34621Y-48426D01*
X34621Y-48388D01*
X34607Y-48350D01*
X34592Y-48330D01*
X34564Y-48311D01*
X34492Y-48311D01*
X34450Y-48330D01*
X34321Y-48711D02*
X34321Y-48311D01*
X34221Y-48597D01*
X34121Y-48311D01*
X34121Y-48711D01*
X33978Y-48711D02*
X33978Y-48311D01*
X33907Y-48311D01*
X33864Y-48330D01*
X33835Y-48369D01*
X33821Y-48407D01*
X33807Y-48483D01*
X33807Y-48540D01*
X33821Y-48616D01*
X33835Y-48654D01*
X33864Y-48692D01*
X33907Y-48711D01*
X33978Y-48711D01*
X33507Y-48673D02*
X33521Y-48692D01*
X33564Y-48711D01*
X33592Y-48711D01*
X33635Y-48692D01*
X33664Y-48654D01*
X33678Y-48616D01*
X33692Y-48540D01*
X33692Y-48483D01*
X33678Y-48407D01*
X33664Y-48369D01*
X33635Y-48330D01*
X33592Y-48311D01*
X33564Y-48311D01*
X33521Y-48330D01*
X33507Y-48350D01*
X33321Y-48311D02*
X33292Y-48311D01*
X33264Y-48330D01*
X33250Y-48350D01*
X33235Y-48388D01*
X33221Y-48464D01*
X33221Y-48559D01*
X33235Y-48635D01*
X33250Y-48673D01*
X33264Y-48692D01*
X33292Y-48711D01*
X33321Y-48711D01*
X33350Y-48692D01*
X33364Y-48673D01*
X33378Y-48635D01*
X33392Y-48559D01*
X33392Y-48464D01*
X33378Y-48388D01*
X33364Y-48350D01*
X33350Y-48330D01*
X33321Y-48311D01*
X32950Y-48311D02*
X33092Y-48311D01*
X33107Y-48502D01*
X33092Y-48483D01*
X33064Y-48464D01*
X32992Y-48464D01*
X32964Y-48483D01*
X32950Y-48502D01*
X32935Y-48540D01*
X32935Y-48635D01*
X32950Y-48673D01*
X32964Y-48692D01*
X32992Y-48711D01*
X33064Y-48711D01*
X33092Y-48692D01*
X33107Y-48673D01*
X32750Y-48311D02*
X32721Y-48311D01*
X32692Y-48330D01*
X32678Y-48350D01*
X32664Y-48388D01*
X32650Y-48464D01*
X32650Y-48559D01*
X32664Y-48635D01*
X32678Y-48673D01*
X32692Y-48692D01*
X32721Y-48711D01*
X32750Y-48711D01*
X32778Y-48692D01*
X32792Y-48673D01*
X32807Y-48635D01*
X32821Y-48559D01*
X32821Y-48464D01*
X32807Y-48388D01*
X32792Y-48350D01*
X32778Y-48330D01*
X32750Y-48311D01*
X32421Y-48502D02*
X32521Y-48502D01*
X32521Y-48711D02*
X32521Y-48311D01*
X32378Y-48311D01*
X32264Y-48559D02*
X32035Y-48559D01*
X31907Y-48350D02*
X31892Y-48330D01*
X31864Y-48311D01*
X31792Y-48311D01*
X31764Y-48330D01*
X31750Y-48350D01*
X31735Y-48388D01*
X31735Y-48426D01*
X31750Y-48483D01*
X31921Y-48711D01*
X31735Y-48711D01*
X30267Y-52214D02*
X30267Y-52385D01*
X30667Y-52300D02*
X30267Y-52300D01*
X30667Y-52485D02*
X30267Y-52485D01*
X30458Y-52485D02*
X30458Y-52657D01*
X30667Y-52657D02*
X30267Y-52657D01*
X30267Y-52771D02*
X30267Y-52957D01*
X30420Y-52857D01*
X30420Y-52900D01*
X30439Y-52928D01*
X30458Y-52942D01*
X30496Y-52957D01*
X30591Y-52957D01*
X30629Y-52942D01*
X30648Y-52928D01*
X30667Y-52900D01*
X30667Y-52814D01*
X30648Y-52785D01*
X30629Y-52771D01*
X31261Y-50700D02*
X30861Y-50700D01*
X31147Y-50800D01*
X30861Y-50900D01*
X31261Y-50900D01*
X31261Y-51042D02*
X30861Y-51042D01*
X31261Y-51185D02*
X30861Y-51185D01*
X31261Y-51357D01*
X30861Y-51357D01*
X31261Y-51500D02*
X30861Y-51500D01*
X31242Y-51628D02*
X31261Y-51671D01*
X31261Y-51742D01*
X31242Y-51771D01*
X31223Y-51785D01*
X31185Y-51800D01*
X31147Y-51800D01*
X31109Y-51785D01*
X31090Y-51771D01*
X31071Y-51742D01*
X31052Y-51685D01*
X31033Y-51657D01*
X31014Y-51642D01*
X30976Y-51628D01*
X30938Y-51628D01*
X30900Y-51642D01*
X30880Y-51657D01*
X30861Y-51685D01*
X30861Y-51757D01*
X30880Y-51800D01*
X31261Y-51928D02*
X30861Y-51928D01*
X31147Y-52028D01*
X30861Y-52128D01*
X31261Y-52128D01*
X31261Y-52271D02*
X30861Y-52271D01*
X30861Y-52342D01*
X30880Y-52385D01*
X30919Y-52414D01*
X30957Y-52428D01*
X31033Y-52442D01*
X31090Y-52442D01*
X31166Y-52428D01*
X31204Y-52414D01*
X31242Y-52385D01*
X31261Y-52342D01*
X31261Y-52271D01*
X31223Y-52742D02*
X31242Y-52728D01*
X31261Y-52685D01*
X31261Y-52657D01*
X31242Y-52614D01*
X31204Y-52585D01*
X31166Y-52571D01*
X31090Y-52557D01*
X31033Y-52557D01*
X30957Y-52571D01*
X30919Y-52585D01*
X30880Y-52614D01*
X30861Y-52657D01*
X30861Y-52685D01*
X30880Y-52728D01*
X30900Y-52742D01*
X30861Y-52928D02*
X30861Y-52957D01*
X30880Y-52985D01*
X30900Y-53000D01*
X30938Y-53014D01*
X31014Y-53028D01*
X31109Y-53028D01*
X31185Y-53014D01*
X31223Y-53000D01*
X31242Y-52985D01*
X31261Y-52957D01*
X31261Y-52928D01*
X31242Y-52900D01*
X31223Y-52885D01*
X31185Y-52871D01*
X31109Y-52857D01*
X31014Y-52857D01*
X30938Y-52871D01*
X30900Y-52885D01*
X30880Y-52900D01*
X30861Y-52928D01*
X30861Y-53300D02*
X30861Y-53157D01*
X31052Y-53142D01*
X31033Y-53157D01*
X31014Y-53185D01*
X31014Y-53257D01*
X31033Y-53285D01*
X31052Y-53300D01*
X31090Y-53314D01*
X31185Y-53314D01*
X31223Y-53300D01*
X31242Y-53285D01*
X31261Y-53257D01*
X31261Y-53185D01*
X31242Y-53157D01*
X31223Y-53142D01*
X30861Y-53499D02*
X30861Y-53528D01*
X30880Y-53557D01*
X30900Y-53571D01*
X30938Y-53585D01*
X31014Y-53599D01*
X31109Y-53599D01*
X31185Y-53585D01*
X31223Y-53571D01*
X31242Y-53557D01*
X31261Y-53528D01*
X31261Y-53499D01*
X31242Y-53471D01*
X31223Y-53457D01*
X31185Y-53442D01*
X31109Y-53428D01*
X31014Y-53428D01*
X30938Y-53442D01*
X30900Y-53457D01*
X30880Y-53471D01*
X30861Y-53499D01*
X31052Y-53828D02*
X31052Y-53728D01*
X31261Y-53728D02*
X30861Y-53728D01*
X30861Y-53871D01*
X31109Y-53985D02*
X31109Y-54214D01*
X30900Y-54342D02*
X30880Y-54357D01*
X30861Y-54385D01*
X30861Y-54457D01*
X30880Y-54485D01*
X30900Y-54500D01*
X30938Y-54514D01*
X30976Y-54514D01*
X31033Y-54500D01*
X31261Y-54328D01*
X31261Y-54514D01*
X30935Y-43380D02*
X30764Y-43380D01*
X30849Y-43780D02*
X30849Y-43380D01*
X30664Y-43780D02*
X30664Y-43380D01*
X30664Y-43571D02*
X30492Y-43571D01*
X30492Y-43780D02*
X30492Y-43380D01*
X30221Y-43514D02*
X30221Y-43780D01*
X30292Y-43361D02*
X30364Y-43647D01*
X30178Y-43647D01*
X32449Y-43186D02*
X32449Y-42786D01*
X32349Y-43072D01*
X32249Y-42786D01*
X32249Y-43186D01*
X32107Y-43186D02*
X32107Y-42786D01*
X31964Y-43186D02*
X31964Y-42786D01*
X31792Y-43186D01*
X31792Y-42786D01*
X31649Y-43186D02*
X31649Y-42786D01*
X31521Y-43167D02*
X31478Y-43186D01*
X31407Y-43186D01*
X31378Y-43167D01*
X31364Y-43148D01*
X31350Y-43110D01*
X31350Y-43072D01*
X31364Y-43034D01*
X31378Y-43015D01*
X31407Y-42996D01*
X31464Y-42977D01*
X31492Y-42958D01*
X31507Y-42939D01*
X31521Y-42901D01*
X31521Y-42863D01*
X31507Y-42825D01*
X31492Y-42805D01*
X31464Y-42786D01*
X31392Y-42786D01*
X31350Y-42805D01*
X31221Y-43186D02*
X31221Y-42786D01*
X31121Y-43072D01*
X31021Y-42786D01*
X31021Y-43186D01*
X30878Y-43186D02*
X30878Y-42786D01*
X30807Y-42786D01*
X30764Y-42805D01*
X30735Y-42844D01*
X30721Y-42882D01*
X30707Y-42958D01*
X30707Y-43015D01*
X30721Y-43091D01*
X30735Y-43129D01*
X30764Y-43167D01*
X30807Y-43186D01*
X30878Y-43186D01*
X30407Y-43148D02*
X30421Y-43167D01*
X30464Y-43186D01*
X30492Y-43186D01*
X30535Y-43167D01*
X30564Y-43129D01*
X30578Y-43091D01*
X30592Y-43015D01*
X30592Y-42958D01*
X30578Y-42882D01*
X30564Y-42844D01*
X30535Y-42805D01*
X30492Y-42786D01*
X30464Y-42786D01*
X30421Y-42805D01*
X30407Y-42825D01*
X30221Y-42786D02*
X30192Y-42786D01*
X30164Y-42805D01*
X30150Y-42825D01*
X30135Y-42863D01*
X30121Y-42939D01*
X30121Y-43034D01*
X30135Y-43110D01*
X30150Y-43148D01*
X30164Y-43167D01*
X30192Y-43186D01*
X30221Y-43186D01*
X30250Y-43167D01*
X30264Y-43148D01*
X30278Y-43110D01*
X30292Y-43034D01*
X30292Y-42939D01*
X30278Y-42863D01*
X30264Y-42825D01*
X30250Y-42805D01*
X30221Y-42786D01*
X29850Y-42786D02*
X29992Y-42786D01*
X30007Y-42977D01*
X29992Y-42958D01*
X29964Y-42939D01*
X29892Y-42939D01*
X29864Y-42958D01*
X29850Y-42977D01*
X29835Y-43015D01*
X29835Y-43110D01*
X29850Y-43148D01*
X29864Y-43167D01*
X29892Y-43186D01*
X29964Y-43186D01*
X29992Y-43167D01*
X30007Y-43148D01*
X29650Y-42786D02*
X29621Y-42786D01*
X29592Y-42805D01*
X29578Y-42825D01*
X29564Y-42863D01*
X29550Y-42939D01*
X29550Y-43034D01*
X29564Y-43110D01*
X29578Y-43148D01*
X29592Y-43167D01*
X29621Y-43186D01*
X29650Y-43186D01*
X29678Y-43167D01*
X29692Y-43148D01*
X29707Y-43110D01*
X29721Y-43034D01*
X29721Y-42939D01*
X29707Y-42863D01*
X29692Y-42825D01*
X29678Y-42805D01*
X29650Y-42786D01*
X29321Y-42977D02*
X29421Y-42977D01*
X29421Y-43186D02*
X29421Y-42786D01*
X29278Y-42786D01*
X29164Y-43034D02*
X28935Y-43034D01*
X28807Y-42825D02*
X28792Y-42805D01*
X28764Y-42786D01*
X28692Y-42786D01*
X28664Y-42805D01*
X28650Y-42825D01*
X28635Y-42863D01*
X28635Y-42901D01*
X28650Y-42958D01*
X28821Y-43186D01*
X28635Y-43186D01*
X33521Y-44350D02*
X33521Y-44207D01*
X33221Y-44207D01*
X33521Y-44607D02*
X33521Y-44435D01*
X33521Y-44521D02*
X33221Y-44521D01*
X33264Y-44492D01*
X33292Y-44464D01*
X33307Y-44435D01*
X34621Y-44508D02*
X34635Y-44525D01*
X34678Y-44541D01*
X34707Y-44541D01*
X34749Y-44525D01*
X34778Y-44491D01*
X34792Y-44458D01*
X34807Y-44391D01*
X34807Y-44341D01*
X34792Y-44275D01*
X34778Y-44241D01*
X34749Y-44208D01*
X34707Y-44191D01*
X34678Y-44191D01*
X34635Y-44208D01*
X34621Y-44225D01*
X34492Y-44541D02*
X34492Y-44191D01*
X34392Y-44441D01*
X34292Y-44191D01*
X34292Y-44541D01*
X34178Y-44191D02*
X33992Y-44191D01*
X34092Y-44325D01*
X34049Y-44325D01*
X34021Y-44341D01*
X34007Y-44358D01*
X33992Y-44391D01*
X33992Y-44475D01*
X34007Y-44508D01*
X34021Y-44525D01*
X34049Y-44541D01*
X34135Y-44541D01*
X34164Y-44525D01*
X34178Y-44508D01*
X33878Y-44225D02*
X33864Y-44208D01*
X33835Y-44191D01*
X33764Y-44191D01*
X33735Y-44208D01*
X33721Y-44225D01*
X33707Y-44258D01*
X33707Y-44291D01*
X33721Y-44341D01*
X33892Y-44541D01*
X33707Y-44541D01*
X33592Y-44225D02*
X33578Y-44208D01*
X33549Y-44191D01*
X33478Y-44191D01*
X33449Y-44208D01*
X33435Y-44225D01*
X33421Y-44258D01*
X33421Y-44291D01*
X33435Y-44341D01*
X33607Y-44541D01*
X33421Y-44541D01*
X33149Y-44191D02*
X33292Y-44191D01*
X33307Y-44358D01*
X33292Y-44341D01*
X33264Y-44325D01*
X33192Y-44325D01*
X33164Y-44341D01*
X33149Y-44358D01*
X33135Y-44391D01*
X33135Y-44475D01*
X33149Y-44508D01*
X33164Y-44525D01*
X33192Y-44541D01*
X33264Y-44541D01*
X33292Y-44525D01*
X33307Y-44508D01*
X33021Y-44225D02*
X33007Y-44208D01*
X32978Y-44191D01*
X32907Y-44191D01*
X32878Y-44208D01*
X32864Y-44225D01*
X32850Y-44258D01*
X32850Y-44291D01*
X32864Y-44341D01*
X33035Y-44541D01*
X32850Y-44541D01*
X32735Y-44225D02*
X32721Y-44208D01*
X32692Y-44191D01*
X32621Y-44191D01*
X32592Y-44208D01*
X32578Y-44225D01*
X32564Y-44258D01*
X32564Y-44291D01*
X32578Y-44341D01*
X32750Y-44541D01*
X32564Y-44541D01*
X32435Y-44408D02*
X32207Y-44408D01*
X32078Y-44225D02*
X32064Y-44208D01*
X32035Y-44191D01*
X31964Y-44191D01*
X31935Y-44208D01*
X31921Y-44225D01*
X31907Y-44258D01*
X31907Y-44291D01*
X31921Y-44341D01*
X32092Y-44541D01*
X31907Y-44541D01*
X31792Y-44225D02*
X31778Y-44208D01*
X31750Y-44191D01*
X31678Y-44191D01*
X31650Y-44208D01*
X31635Y-44225D01*
X31621Y-44258D01*
X31621Y-44291D01*
X31635Y-44341D01*
X31807Y-44541D01*
X31621Y-44541D01*
X31435Y-44191D02*
X31407Y-44191D01*
X31378Y-44208D01*
X31364Y-44225D01*
X31350Y-44258D01*
X31335Y-44325D01*
X31335Y-44408D01*
X31350Y-44475D01*
X31364Y-44508D01*
X31378Y-44525D01*
X31407Y-44541D01*
X31435Y-44541D01*
X31464Y-44525D01*
X31478Y-44508D01*
X31492Y-44475D01*
X31507Y-44408D01*
X31507Y-44325D01*
X31492Y-44258D01*
X31478Y-44225D01*
X31464Y-44208D01*
X31435Y-44191D01*
X31207Y-44541D02*
X31207Y-44191D01*
X31035Y-44541D02*
X31164Y-44341D01*
X31035Y-44191D02*
X31207Y-44391D01*
X30764Y-44541D02*
X30907Y-44541D01*
X30907Y-44191D01*
X70177Y-35439D02*
X70189Y-35427D01*
X70201Y-35391D01*
X70201Y-35367D01*
X70189Y-35332D01*
X70165Y-35308D01*
X70141Y-35296D01*
X70094Y-35284D01*
X70058Y-35284D01*
X70010Y-35296D01*
X69986Y-35308D01*
X69963Y-35332D01*
X69951Y-35367D01*
X69951Y-35391D01*
X69963Y-35427D01*
X69975Y-35439D01*
X70201Y-35677D02*
X70201Y-35534D01*
X70201Y-35605D02*
X69951Y-35605D01*
X69986Y-35582D01*
X70010Y-35558D01*
X70022Y-35534D01*
X69951Y-35760D02*
X69951Y-35927D01*
X70201Y-35820D01*
X69377Y-35439D02*
X69389Y-35427D01*
X69401Y-35391D01*
X69401Y-35367D01*
X69389Y-35332D01*
X69365Y-35308D01*
X69341Y-35296D01*
X69294Y-35284D01*
X69258Y-35284D01*
X69210Y-35296D01*
X69186Y-35308D01*
X69163Y-35332D01*
X69151Y-35367D01*
X69151Y-35391D01*
X69163Y-35427D01*
X69175Y-35439D01*
X69175Y-35534D02*
X69163Y-35546D01*
X69151Y-35570D01*
X69151Y-35629D01*
X69163Y-35653D01*
X69175Y-35665D01*
X69198Y-35677D01*
X69222Y-35677D01*
X69258Y-35665D01*
X69401Y-35522D01*
X69401Y-35677D01*
X69175Y-35772D02*
X69163Y-35784D01*
X69151Y-35808D01*
X69151Y-35867D01*
X69163Y-35891D01*
X69175Y-35903D01*
X69198Y-35915D01*
X69222Y-35915D01*
X69258Y-35903D01*
X69401Y-35760D01*
X69401Y-35915D01*
X62177Y-35239D02*
X62189Y-35227D01*
X62201Y-35191D01*
X62201Y-35167D01*
X62189Y-35132D01*
X62165Y-35108D01*
X62141Y-35096D01*
X62094Y-35084D01*
X62058Y-35084D01*
X62010Y-35096D01*
X61986Y-35108D01*
X61963Y-35132D01*
X61951Y-35167D01*
X61951Y-35191D01*
X61963Y-35227D01*
X61975Y-35239D01*
X61975Y-35334D02*
X61963Y-35346D01*
X61951Y-35370D01*
X61951Y-35429D01*
X61963Y-35453D01*
X61975Y-35465D01*
X61998Y-35477D01*
X62022Y-35477D01*
X62058Y-35465D01*
X62201Y-35322D01*
X62201Y-35477D01*
X61951Y-35560D02*
X61951Y-35715D01*
X62046Y-35632D01*
X62046Y-35667D01*
X62058Y-35691D01*
X62070Y-35703D01*
X62094Y-35715D01*
X62153Y-35715D01*
X62177Y-35703D01*
X62189Y-35691D01*
X62201Y-35667D01*
X62201Y-35596D01*
X62189Y-35572D01*
X62177Y-35560D01*
X61377Y-35239D02*
X61389Y-35227D01*
X61401Y-35191D01*
X61401Y-35167D01*
X61389Y-35132D01*
X61365Y-35108D01*
X61341Y-35096D01*
X61294Y-35084D01*
X61258Y-35084D01*
X61210Y-35096D01*
X61186Y-35108D01*
X61163Y-35132D01*
X61151Y-35167D01*
X61151Y-35191D01*
X61163Y-35227D01*
X61175Y-35239D01*
X61401Y-35477D02*
X61401Y-35334D01*
X61401Y-35405D02*
X61151Y-35405D01*
X61186Y-35382D01*
X61210Y-35358D01*
X61222Y-35334D01*
X61151Y-35691D02*
X61151Y-35644D01*
X61163Y-35620D01*
X61175Y-35608D01*
X61210Y-35584D01*
X61258Y-35572D01*
X61353Y-35572D01*
X61377Y-35584D01*
X61389Y-35596D01*
X61401Y-35620D01*
X61401Y-35667D01*
X61389Y-35691D01*
X61377Y-35703D01*
X61353Y-35715D01*
X61294Y-35715D01*
X61270Y-35703D01*
X61258Y-35691D01*
X61246Y-35667D01*
X61246Y-35620D01*
X61258Y-35596D01*
X61270Y-35584D01*
X61294Y-35572D01*
X81977Y-34239D02*
X81989Y-34227D01*
X82001Y-34191D01*
X82001Y-34167D01*
X81989Y-34132D01*
X81965Y-34108D01*
X81941Y-34096D01*
X81894Y-34084D01*
X81858Y-34084D01*
X81810Y-34096D01*
X81786Y-34108D01*
X81763Y-34132D01*
X81751Y-34167D01*
X81751Y-34191D01*
X81763Y-34227D01*
X81775Y-34239D01*
X82001Y-34477D02*
X82001Y-34334D01*
X82001Y-34405D02*
X81751Y-34405D01*
X81786Y-34382D01*
X81810Y-34358D01*
X81822Y-34334D01*
X81751Y-34703D02*
X81751Y-34584D01*
X81870Y-34572D01*
X81858Y-34584D01*
X81846Y-34608D01*
X81846Y-34667D01*
X81858Y-34691D01*
X81870Y-34703D01*
X81894Y-34715D01*
X81953Y-34715D01*
X81977Y-34703D01*
X81989Y-34691D01*
X82001Y-34667D01*
X82001Y-34608D01*
X81989Y-34584D01*
X81977Y-34572D01*
X72977Y-34839D02*
X72989Y-34827D01*
X73001Y-34791D01*
X73001Y-34767D01*
X72989Y-34732D01*
X72965Y-34708D01*
X72941Y-34696D01*
X72894Y-34684D01*
X72858Y-34684D01*
X72810Y-34696D01*
X72786Y-34708D01*
X72763Y-34732D01*
X72751Y-34767D01*
X72751Y-34791D01*
X72763Y-34827D01*
X72775Y-34839D01*
X73001Y-35077D02*
X73001Y-34934D01*
X73001Y-35005D02*
X72751Y-35005D01*
X72786Y-34982D01*
X72810Y-34958D01*
X72822Y-34934D01*
X72834Y-35291D02*
X73001Y-35291D01*
X72739Y-35232D02*
X72917Y-35172D01*
X72917Y-35327D01*
X78860Y-33777D02*
X78872Y-33789D01*
X78908Y-33801D01*
X78932Y-33801D01*
X78967Y-33789D01*
X78991Y-33765D01*
X79003Y-33741D01*
X79015Y-33694D01*
X79015Y-33658D01*
X79003Y-33610D01*
X78991Y-33586D01*
X78967Y-33563D01*
X78932Y-33551D01*
X78908Y-33551D01*
X78872Y-33563D01*
X78860Y-33575D01*
X78765Y-33575D02*
X78753Y-33563D01*
X78729Y-33551D01*
X78670Y-33551D01*
X78646Y-33563D01*
X78634Y-33575D01*
X78622Y-33598D01*
X78622Y-33622D01*
X78634Y-33658D01*
X78777Y-33801D01*
X78622Y-33801D01*
X78384Y-33801D02*
X78527Y-33801D01*
X78455Y-33801D02*
X78455Y-33551D01*
X78479Y-33586D01*
X78503Y-33610D01*
X78527Y-33622D01*
X77010Y-33777D02*
X77022Y-33789D01*
X77058Y-33801D01*
X77082Y-33801D01*
X77117Y-33789D01*
X77141Y-33765D01*
X77153Y-33741D01*
X77165Y-33694D01*
X77165Y-33658D01*
X77153Y-33610D01*
X77141Y-33586D01*
X77117Y-33563D01*
X77082Y-33551D01*
X77058Y-33551D01*
X77022Y-33563D01*
X77010Y-33575D01*
X76915Y-33575D02*
X76903Y-33563D01*
X76879Y-33551D01*
X76820Y-33551D01*
X76796Y-33563D01*
X76784Y-33575D01*
X76772Y-33598D01*
X76772Y-33622D01*
X76784Y-33658D01*
X76927Y-33801D01*
X76772Y-33801D01*
X76617Y-33551D02*
X76594Y-33551D01*
X76570Y-33563D01*
X76558Y-33575D01*
X76546Y-33598D01*
X76534Y-33646D01*
X76534Y-33705D01*
X76546Y-33753D01*
X76558Y-33777D01*
X76570Y-33789D01*
X76594Y-33801D01*
X76617Y-33801D01*
X76641Y-33789D01*
X76653Y-33777D01*
X76665Y-33753D01*
X76677Y-33705D01*
X76677Y-33646D01*
X76665Y-33598D01*
X76653Y-33575D01*
X76641Y-33563D01*
X76617Y-33551D01*
X68577Y-35439D02*
X68589Y-35427D01*
X68601Y-35391D01*
X68601Y-35367D01*
X68589Y-35332D01*
X68565Y-35308D01*
X68541Y-35296D01*
X68494Y-35284D01*
X68458Y-35284D01*
X68410Y-35296D01*
X68386Y-35308D01*
X68363Y-35332D01*
X68351Y-35367D01*
X68351Y-35391D01*
X68363Y-35427D01*
X68375Y-35439D01*
X68601Y-35677D02*
X68601Y-35534D01*
X68601Y-35605D02*
X68351Y-35605D01*
X68386Y-35582D01*
X68410Y-35558D01*
X68422Y-35534D01*
X68601Y-35796D02*
X68601Y-35844D01*
X68589Y-35867D01*
X68577Y-35879D01*
X68541Y-35903D01*
X68494Y-35915D01*
X68398Y-35915D01*
X68375Y-35903D01*
X68363Y-35891D01*
X68351Y-35867D01*
X68351Y-35820D01*
X68363Y-35796D01*
X68375Y-35784D01*
X68398Y-35772D01*
X68458Y-35772D01*
X68482Y-35784D01*
X68494Y-35796D01*
X68505Y-35820D01*
X68505Y-35867D01*
X68494Y-35891D01*
X68482Y-35903D01*
X68458Y-35915D01*
X62977Y-35239D02*
X62989Y-35227D01*
X63001Y-35191D01*
X63001Y-35167D01*
X62989Y-35132D01*
X62965Y-35108D01*
X62941Y-35096D01*
X62894Y-35084D01*
X62858Y-35084D01*
X62810Y-35096D01*
X62786Y-35108D01*
X62763Y-35132D01*
X62751Y-35167D01*
X62751Y-35191D01*
X62763Y-35227D01*
X62775Y-35239D01*
X63001Y-35477D02*
X63001Y-35334D01*
X63001Y-35405D02*
X62751Y-35405D01*
X62786Y-35382D01*
X62810Y-35358D01*
X62822Y-35334D01*
X62858Y-35620D02*
X62846Y-35596D01*
X62834Y-35584D01*
X62810Y-35572D01*
X62798Y-35572D01*
X62775Y-35584D01*
X62763Y-35596D01*
X62751Y-35620D01*
X62751Y-35667D01*
X62763Y-35691D01*
X62775Y-35703D01*
X62798Y-35715D01*
X62810Y-35715D01*
X62834Y-35703D01*
X62846Y-35691D01*
X62858Y-35667D01*
X62858Y-35620D01*
X62870Y-35596D01*
X62882Y-35584D01*
X62905Y-35572D01*
X62953Y-35572D01*
X62977Y-35584D01*
X62989Y-35596D01*
X63001Y-35620D01*
X63001Y-35667D01*
X62989Y-35691D01*
X62977Y-35703D01*
X62953Y-35715D01*
X62905Y-35715D01*
X62882Y-35703D01*
X62870Y-35691D01*
X62858Y-35667D01*
X74660Y-35977D02*
X74672Y-35989D01*
X74708Y-36001D01*
X74732Y-36001D01*
X74767Y-35989D01*
X74791Y-35965D01*
X74803Y-35941D01*
X74815Y-35894D01*
X74815Y-35858D01*
X74803Y-35810D01*
X74791Y-35786D01*
X74767Y-35763D01*
X74732Y-35751D01*
X74708Y-35751D01*
X74672Y-35763D01*
X74660Y-35775D01*
X74565Y-35775D02*
X74553Y-35763D01*
X74529Y-35751D01*
X74470Y-35751D01*
X74446Y-35763D01*
X74434Y-35775D01*
X74422Y-35798D01*
X74422Y-35822D01*
X74434Y-35858D01*
X74577Y-36001D01*
X74422Y-36001D01*
X74208Y-35834D02*
X74208Y-36001D01*
X74267Y-35739D02*
X74327Y-35917D01*
X74172Y-35917D01*
X80360Y-33801D02*
X80444Y-33682D01*
X80503Y-33801D02*
X80503Y-33551D01*
X80408Y-33551D01*
X80384Y-33563D01*
X80372Y-33575D01*
X80360Y-33598D01*
X80360Y-33634D01*
X80372Y-33658D01*
X80384Y-33670D01*
X80408Y-33682D01*
X80503Y-33682D01*
X80134Y-33551D02*
X80253Y-33551D01*
X80265Y-33670D01*
X80253Y-33658D01*
X80229Y-33646D01*
X80170Y-33646D01*
X80146Y-33658D01*
X80134Y-33670D01*
X80122Y-33694D01*
X80122Y-33753D01*
X80134Y-33777D01*
X80146Y-33789D01*
X80170Y-33801D01*
X80229Y-33801D01*
X80253Y-33789D01*
X80265Y-33777D01*
X80039Y-33551D02*
X79884Y-33551D01*
X79967Y-33646D01*
X79932Y-33646D01*
X79908Y-33658D01*
X79896Y-33670D01*
X79884Y-33694D01*
X79884Y-33753D01*
X79896Y-33777D01*
X79908Y-33789D01*
X79932Y-33801D01*
X80003Y-33801D01*
X80027Y-33789D01*
X80039Y-33777D01*
X77551Y-35739D02*
X77432Y-35655D01*
X77551Y-35596D02*
X77301Y-35596D01*
X77301Y-35691D01*
X77313Y-35715D01*
X77325Y-35727D01*
X77348Y-35739D01*
X77384Y-35739D01*
X77408Y-35727D01*
X77420Y-35715D01*
X77432Y-35691D01*
X77432Y-35596D01*
X77301Y-35965D02*
X77301Y-35846D01*
X77420Y-35834D01*
X77408Y-35846D01*
X77396Y-35870D01*
X77396Y-35929D01*
X77408Y-35953D01*
X77420Y-35965D01*
X77444Y-35977D01*
X77503Y-35977D01*
X77527Y-35965D01*
X77539Y-35953D01*
X77551Y-35929D01*
X77551Y-35870D01*
X77539Y-35846D01*
X77527Y-35834D01*
X77301Y-36203D02*
X77301Y-36084D01*
X77420Y-36072D01*
X77408Y-36084D01*
X77396Y-36108D01*
X77396Y-36167D01*
X77408Y-36191D01*
X77420Y-36203D01*
X77444Y-36215D01*
X77503Y-36215D01*
X77527Y-36203D01*
X77539Y-36191D01*
X77551Y-36167D01*
X77551Y-36108D01*
X77539Y-36084D01*
X77527Y-36072D01*
X41110Y-33076D02*
X41194Y-32957D01*
X41253Y-33076D02*
X41253Y-32826D01*
X41158Y-32826D01*
X41134Y-32838D01*
X41122Y-32850D01*
X41110Y-32873D01*
X41110Y-32909D01*
X41122Y-32933D01*
X41134Y-32945D01*
X41158Y-32957D01*
X41253Y-32957D01*
X41015Y-32850D02*
X41003Y-32838D01*
X40979Y-32826D01*
X40920Y-32826D01*
X40896Y-32838D01*
X40884Y-32850D01*
X40872Y-32873D01*
X40872Y-32897D01*
X40884Y-32933D01*
X41027Y-33076D01*
X40872Y-33076D01*
X40646Y-32826D02*
X40765Y-32826D01*
X40777Y-32945D01*
X40765Y-32933D01*
X40741Y-32921D01*
X40682Y-32921D01*
X40658Y-32933D01*
X40646Y-32945D01*
X40634Y-32969D01*
X40634Y-33028D01*
X40646Y-33052D01*
X40658Y-33064D01*
X40682Y-33076D01*
X40741Y-33076D01*
X40765Y-33064D01*
X40777Y-33052D01*
X39210Y-33076D02*
X39294Y-32957D01*
X39353Y-33076D02*
X39353Y-32826D01*
X39258Y-32826D01*
X39234Y-32838D01*
X39222Y-32850D01*
X39210Y-32873D01*
X39210Y-32909D01*
X39222Y-32933D01*
X39234Y-32945D01*
X39258Y-32957D01*
X39353Y-32957D01*
X39115Y-32850D02*
X39103Y-32838D01*
X39079Y-32826D01*
X39020Y-32826D01*
X38996Y-32838D01*
X38984Y-32850D01*
X38972Y-32873D01*
X38972Y-32897D01*
X38984Y-32933D01*
X39127Y-33076D01*
X38972Y-33076D01*
X38758Y-32909D02*
X38758Y-33076D01*
X38817Y-32814D02*
X38877Y-32992D01*
X38722Y-32992D01*
X39210Y-32301D02*
X39294Y-32182D01*
X39353Y-32301D02*
X39353Y-32051D01*
X39258Y-32051D01*
X39234Y-32063D01*
X39222Y-32075D01*
X39210Y-32098D01*
X39210Y-32134D01*
X39222Y-32158D01*
X39234Y-32170D01*
X39258Y-32182D01*
X39353Y-32182D01*
X39115Y-32075D02*
X39103Y-32063D01*
X39079Y-32051D01*
X39020Y-32051D01*
X38996Y-32063D01*
X38984Y-32075D01*
X38972Y-32098D01*
X38972Y-32122D01*
X38984Y-32158D01*
X39127Y-32301D01*
X38972Y-32301D01*
X38889Y-32051D02*
X38734Y-32051D01*
X38817Y-32146D01*
X38782Y-32146D01*
X38758Y-32158D01*
X38746Y-32170D01*
X38734Y-32194D01*
X38734Y-32253D01*
X38746Y-32277D01*
X38758Y-32289D01*
X38782Y-32301D01*
X38853Y-32301D01*
X38877Y-32289D01*
X38889Y-32277D01*
X41085Y-32276D02*
X41169Y-32157D01*
X41228Y-32276D02*
X41228Y-32026D01*
X41133Y-32026D01*
X41109Y-32038D01*
X41097Y-32050D01*
X41085Y-32073D01*
X41085Y-32109D01*
X41097Y-32133D01*
X41109Y-32145D01*
X41133Y-32157D01*
X41228Y-32157D01*
X40990Y-32050D02*
X40978Y-32038D01*
X40954Y-32026D01*
X40895Y-32026D01*
X40871Y-32038D01*
X40859Y-32050D01*
X40847Y-32073D01*
X40847Y-32097D01*
X40859Y-32133D01*
X41002Y-32276D01*
X40847Y-32276D01*
X40752Y-32050D02*
X40740Y-32038D01*
X40716Y-32026D01*
X40657Y-32026D01*
X40633Y-32038D01*
X40621Y-32050D01*
X40609Y-32073D01*
X40609Y-32097D01*
X40621Y-32133D01*
X40764Y-32276D01*
X40609Y-32276D01*
G54D12*
X77171Y-35835D02*
X76871Y-35835D01*
X76871Y-35907D01*
X76885Y-35950D01*
X76914Y-35978D01*
X76942Y-35992D01*
X77000Y-36007D01*
X77042Y-36007D01*
X77100Y-35992D01*
X77128Y-35978D01*
X77157Y-35950D01*
X77171Y-35907D01*
X77171Y-35835D01*
X77171Y-36292D02*
X77171Y-36121D01*
X77171Y-36207D02*
X76871Y-36207D01*
X76914Y-36178D01*
X76942Y-36150D01*
X76957Y-36121D01*
X76871Y-36478D02*
X76871Y-36507D01*
X76885Y-36535D01*
X76900Y-36550D01*
X76928Y-36564D01*
X76985Y-36578D01*
X77057Y-36578D01*
X77114Y-36564D01*
X77142Y-36550D01*
X77157Y-36535D01*
X77171Y-36507D01*
X77171Y-36478D01*
X77157Y-36450D01*
X77142Y-36435D01*
X77114Y-36421D01*
X77057Y-36407D01*
X76985Y-36407D01*
X76928Y-36421D01*
X76900Y-36435D01*
X76885Y-36450D01*
X76871Y-36478D01*
X67871Y-32478D02*
X67571Y-32478D01*
X67571Y-32550D01*
X67585Y-32592D01*
X67614Y-32621D01*
X67642Y-32635D01*
X67700Y-32650D01*
X67742Y-32650D01*
X67800Y-32635D01*
X67828Y-32621D01*
X67857Y-32592D01*
X67871Y-32550D01*
X67871Y-32478D01*
X67700Y-32821D02*
X67685Y-32792D01*
X67671Y-32778D01*
X67642Y-32764D01*
X67628Y-32764D01*
X67600Y-32778D01*
X67585Y-32792D01*
X67571Y-32821D01*
X67571Y-32878D01*
X67585Y-32907D01*
X67600Y-32921D01*
X67628Y-32935D01*
X67642Y-32935D01*
X67671Y-32921D01*
X67685Y-32907D01*
X67700Y-32878D01*
X67700Y-32821D01*
X67714Y-32792D01*
X67728Y-32778D01*
X67757Y-32764D01*
X67814Y-32764D01*
X67842Y-32778D01*
X67857Y-32792D01*
X67871Y-32821D01*
X67871Y-32878D01*
X67857Y-32907D01*
X67842Y-32921D01*
X67814Y-32935D01*
X67757Y-32935D01*
X67728Y-32921D01*
X67714Y-32907D01*
X67700Y-32878D01*
X70721Y-31771D02*
X70721Y-31471D01*
X70650Y-31471D01*
X70607Y-31485D01*
X70578Y-31514D01*
X70564Y-31542D01*
X70550Y-31600D01*
X70550Y-31642D01*
X70564Y-31700D01*
X70578Y-31728D01*
X70607Y-31757D01*
X70650Y-31771D01*
X70721Y-31771D01*
X70292Y-31471D02*
X70350Y-31471D01*
X70378Y-31485D01*
X70392Y-31500D01*
X70421Y-31542D01*
X70435Y-31600D01*
X70435Y-31714D01*
X70421Y-31742D01*
X70407Y-31757D01*
X70378Y-31771D01*
X70321Y-31771D01*
X70292Y-31757D01*
X70278Y-31742D01*
X70264Y-31714D01*
X70264Y-31642D01*
X70278Y-31614D01*
X70292Y-31600D01*
X70321Y-31585D01*
X70378Y-31585D01*
X70407Y-31600D01*
X70421Y-31614D01*
X70435Y-31642D01*
X74271Y-33378D02*
X73971Y-33378D01*
X73971Y-33450D01*
X73985Y-33492D01*
X74014Y-33521D01*
X74042Y-33535D01*
X74100Y-33550D01*
X74142Y-33550D01*
X74200Y-33535D01*
X74228Y-33521D01*
X74257Y-33492D01*
X74271Y-33450D01*
X74271Y-33378D01*
X74271Y-33692D02*
X74271Y-33750D01*
X74257Y-33778D01*
X74242Y-33792D01*
X74200Y-33821D01*
X74142Y-33835D01*
X74028Y-33835D01*
X74000Y-33821D01*
X73985Y-33807D01*
X73971Y-33778D01*
X73971Y-33721D01*
X73985Y-33692D01*
X74000Y-33678D01*
X74028Y-33664D01*
X74100Y-33664D01*
X74128Y-33678D01*
X74142Y-33692D01*
X74157Y-33721D01*
X74157Y-33778D01*
X74142Y-33807D01*
X74128Y-33821D01*
X74100Y-33835D01*
X79464Y-35321D02*
X79464Y-35021D01*
X79392Y-35021D01*
X79350Y-35035D01*
X79321Y-35064D01*
X79307Y-35092D01*
X79292Y-35150D01*
X79292Y-35192D01*
X79307Y-35250D01*
X79321Y-35278D01*
X79350Y-35307D01*
X79392Y-35321D01*
X79464Y-35321D01*
X79007Y-35321D02*
X79178Y-35321D01*
X79092Y-35321D02*
X79092Y-35021D01*
X79121Y-35064D01*
X79150Y-35092D01*
X79178Y-35107D01*
X78892Y-35050D02*
X78878Y-35035D01*
X78850Y-35021D01*
X78778Y-35021D01*
X78750Y-35035D01*
X78735Y-35050D01*
X78721Y-35078D01*
X78721Y-35107D01*
X78735Y-35150D01*
X78907Y-35321D01*
X78721Y-35321D01*
X80971Y-35321D02*
X80971Y-35021D01*
X80900Y-35021D01*
X80857Y-35035D01*
X80828Y-35064D01*
X80814Y-35092D01*
X80800Y-35150D01*
X80800Y-35192D01*
X80814Y-35250D01*
X80828Y-35278D01*
X80857Y-35307D01*
X80900Y-35321D01*
X80971Y-35321D01*
X80700Y-35021D02*
X80500Y-35021D01*
X80628Y-35321D01*
X61771Y-32478D02*
X61471Y-32478D01*
X61471Y-32550D01*
X61485Y-32592D01*
X61514Y-32621D01*
X61542Y-32635D01*
X61600Y-32650D01*
X61642Y-32650D01*
X61700Y-32635D01*
X61728Y-32621D01*
X61757Y-32592D01*
X61771Y-32550D01*
X61771Y-32478D01*
X61471Y-32750D02*
X61471Y-32935D01*
X61585Y-32835D01*
X61585Y-32878D01*
X61600Y-32907D01*
X61614Y-32921D01*
X61642Y-32935D01*
X61714Y-32935D01*
X61742Y-32921D01*
X61757Y-32907D01*
X61771Y-32878D01*
X61771Y-32792D01*
X61757Y-32764D01*
X61742Y-32750D01*
X62171Y-32335D02*
X61871Y-32335D01*
X61871Y-32407D01*
X61885Y-32450D01*
X61914Y-32478D01*
X61942Y-32492D01*
X62000Y-32507D01*
X62042Y-32507D01*
X62100Y-32492D01*
X62128Y-32478D01*
X62157Y-32450D01*
X62171Y-32407D01*
X62171Y-32335D01*
X62171Y-32792D02*
X62171Y-32621D01*
X62171Y-32707D02*
X61871Y-32707D01*
X61914Y-32678D01*
X61942Y-32650D01*
X61957Y-32621D01*
X62171Y-33078D02*
X62171Y-32907D01*
X62171Y-32992D02*
X61871Y-32992D01*
X61914Y-32964D01*
X61942Y-32935D01*
X61957Y-32907D01*
G54D11*
X60777Y-47458D02*
X60789Y-47446D01*
X60801Y-47410D01*
X60801Y-47386D01*
X60789Y-47351D01*
X60765Y-47327D01*
X60741Y-47315D01*
X60694Y-47303D01*
X60658Y-47303D01*
X60610Y-47315D01*
X60586Y-47327D01*
X60563Y-47351D01*
X60551Y-47386D01*
X60551Y-47410D01*
X60563Y-47446D01*
X60575Y-47458D01*
X60551Y-47684D02*
X60551Y-47565D01*
X60670Y-47553D01*
X60658Y-47565D01*
X60646Y-47589D01*
X60646Y-47648D01*
X60658Y-47672D01*
X60670Y-47684D01*
X60694Y-47696D01*
X60753Y-47696D01*
X60777Y-47684D01*
X60789Y-47672D01*
X60801Y-47648D01*
X60801Y-47589D01*
X60789Y-47565D01*
X60777Y-47553D01*
X84491Y-47527D02*
X84503Y-47539D01*
X84539Y-47551D01*
X84563Y-47551D01*
X84598Y-47539D01*
X84622Y-47515D01*
X84634Y-47491D01*
X84646Y-47444D01*
X84646Y-47408D01*
X84634Y-47360D01*
X84622Y-47336D01*
X84598Y-47313D01*
X84563Y-47301D01*
X84539Y-47301D01*
X84503Y-47313D01*
X84491Y-47325D01*
X84277Y-47301D02*
X84325Y-47301D01*
X84348Y-47313D01*
X84360Y-47325D01*
X84384Y-47360D01*
X84396Y-47408D01*
X84396Y-47503D01*
X84384Y-47527D01*
X84372Y-47539D01*
X84348Y-47551D01*
X84301Y-47551D01*
X84277Y-47539D01*
X84265Y-47527D01*
X84253Y-47503D01*
X84253Y-47444D01*
X84265Y-47420D01*
X84277Y-47408D01*
X84301Y-47396D01*
X84348Y-47396D01*
X84372Y-47408D01*
X84384Y-47420D01*
X84396Y-47444D01*
X65001Y-46539D02*
X64882Y-46455D01*
X65001Y-46396D02*
X64751Y-46396D01*
X64751Y-46491D01*
X64763Y-46515D01*
X64775Y-46527D01*
X64798Y-46539D01*
X64834Y-46539D01*
X64858Y-46527D01*
X64870Y-46515D01*
X64882Y-46491D01*
X64882Y-46396D01*
X65001Y-46777D02*
X65001Y-46634D01*
X65001Y-46705D02*
X64751Y-46705D01*
X64786Y-46682D01*
X64810Y-46658D01*
X64822Y-46634D01*
X64751Y-46860D02*
X64751Y-47027D01*
X65001Y-46920D01*
X65091Y-39451D02*
X65210Y-39451D01*
X65210Y-39201D01*
X64889Y-39201D02*
X65008Y-39201D01*
X65020Y-39320D01*
X65008Y-39308D01*
X64984Y-39296D01*
X64925Y-39296D01*
X64901Y-39308D01*
X64889Y-39320D01*
X64877Y-39344D01*
X64877Y-39403D01*
X64889Y-39427D01*
X64901Y-39439D01*
X64925Y-39451D01*
X64984Y-39451D01*
X65008Y-39439D01*
X65020Y-39427D01*
X53006Y-36609D02*
X52887Y-36525D01*
X53006Y-36466D02*
X52756Y-36466D01*
X52756Y-36561D01*
X52768Y-36585D01*
X52780Y-36597D01*
X52803Y-36609D01*
X52839Y-36609D01*
X52863Y-36597D01*
X52875Y-36585D01*
X52887Y-36561D01*
X52887Y-36466D01*
X52839Y-36823D02*
X53006Y-36823D01*
X52744Y-36764D02*
X52922Y-36704D01*
X52922Y-36859D01*
X52756Y-37061D02*
X52756Y-37014D01*
X52768Y-36990D01*
X52780Y-36978D01*
X52815Y-36954D01*
X52863Y-36942D01*
X52958Y-36942D01*
X52982Y-36954D01*
X52994Y-36966D01*
X53006Y-36990D01*
X53006Y-37037D01*
X52994Y-37061D01*
X52982Y-37073D01*
X52958Y-37085D01*
X52899Y-37085D01*
X52875Y-37073D01*
X52863Y-37061D01*
X52851Y-37037D01*
X52851Y-36990D01*
X52863Y-36966D01*
X52875Y-36954D01*
X52899Y-36942D01*
X52031Y-36959D02*
X51912Y-36875D01*
X52031Y-36816D02*
X51781Y-36816D01*
X51781Y-36911D01*
X51793Y-36935D01*
X51805Y-36947D01*
X51828Y-36959D01*
X51864Y-36959D01*
X51888Y-36947D01*
X51900Y-36935D01*
X51912Y-36911D01*
X51912Y-36816D01*
X51864Y-37173D02*
X52031Y-37173D01*
X51769Y-37114D02*
X51947Y-37054D01*
X51947Y-37209D01*
X52031Y-37435D02*
X52031Y-37292D01*
X52031Y-37364D02*
X51781Y-37364D01*
X51816Y-37340D01*
X51840Y-37316D01*
X51852Y-37292D01*
X49331Y-37859D02*
X49212Y-37775D01*
X49331Y-37716D02*
X49081Y-37716D01*
X49081Y-37811D01*
X49093Y-37835D01*
X49105Y-37847D01*
X49128Y-37859D01*
X49164Y-37859D01*
X49188Y-37847D01*
X49200Y-37835D01*
X49212Y-37811D01*
X49212Y-37716D01*
X49081Y-37942D02*
X49081Y-38097D01*
X49176Y-38014D01*
X49176Y-38049D01*
X49188Y-38073D01*
X49200Y-38085D01*
X49224Y-38097D01*
X49283Y-38097D01*
X49307Y-38085D01*
X49319Y-38073D01*
X49331Y-38049D01*
X49331Y-37978D01*
X49319Y-37954D01*
X49307Y-37942D01*
X49331Y-38216D02*
X49331Y-38264D01*
X49319Y-38287D01*
X49307Y-38299D01*
X49271Y-38323D01*
X49224Y-38335D01*
X49128Y-38335D01*
X49105Y-38323D01*
X49093Y-38311D01*
X49081Y-38287D01*
X49081Y-38240D01*
X49093Y-38216D01*
X49105Y-38204D01*
X49128Y-38192D01*
X49188Y-38192D01*
X49212Y-38204D01*
X49224Y-38216D01*
X49235Y-38240D01*
X49235Y-38287D01*
X49224Y-38311D01*
X49212Y-38323D01*
X49188Y-38335D01*
X48381Y-37309D02*
X48262Y-37225D01*
X48381Y-37166D02*
X48131Y-37166D01*
X48131Y-37261D01*
X48143Y-37285D01*
X48155Y-37297D01*
X48178Y-37309D01*
X48214Y-37309D01*
X48238Y-37297D01*
X48250Y-37285D01*
X48262Y-37261D01*
X48262Y-37166D01*
X48131Y-37392D02*
X48131Y-37547D01*
X48226Y-37464D01*
X48226Y-37499D01*
X48238Y-37523D01*
X48250Y-37535D01*
X48274Y-37547D01*
X48333Y-37547D01*
X48357Y-37535D01*
X48369Y-37523D01*
X48381Y-37499D01*
X48381Y-37428D01*
X48369Y-37404D01*
X48357Y-37392D01*
X48238Y-37690D02*
X48226Y-37666D01*
X48214Y-37654D01*
X48190Y-37642D01*
X48178Y-37642D01*
X48155Y-37654D01*
X48143Y-37666D01*
X48131Y-37690D01*
X48131Y-37737D01*
X48143Y-37761D01*
X48155Y-37773D01*
X48178Y-37785D01*
X48190Y-37785D01*
X48214Y-37773D01*
X48226Y-37761D01*
X48238Y-37737D01*
X48238Y-37690D01*
X48250Y-37666D01*
X48262Y-37654D01*
X48285Y-37642D01*
X48333Y-37642D01*
X48357Y-37654D01*
X48369Y-37666D01*
X48381Y-37690D01*
X48381Y-37737D01*
X48369Y-37761D01*
X48357Y-37773D01*
X48333Y-37785D01*
X48285Y-37785D01*
X48262Y-37773D01*
X48250Y-37761D01*
X48238Y-37737D01*
X46331Y-37109D02*
X46212Y-37025D01*
X46331Y-36966D02*
X46081Y-36966D01*
X46081Y-37061D01*
X46093Y-37085D01*
X46105Y-37097D01*
X46128Y-37109D01*
X46164Y-37109D01*
X46188Y-37097D01*
X46200Y-37085D01*
X46212Y-37061D01*
X46212Y-36966D01*
X46081Y-37192D02*
X46081Y-37347D01*
X46176Y-37264D01*
X46176Y-37299D01*
X46188Y-37323D01*
X46200Y-37335D01*
X46224Y-37347D01*
X46283Y-37347D01*
X46307Y-37335D01*
X46319Y-37323D01*
X46331Y-37299D01*
X46331Y-37228D01*
X46319Y-37204D01*
X46307Y-37192D01*
X46081Y-37561D02*
X46081Y-37514D01*
X46093Y-37490D01*
X46105Y-37478D01*
X46140Y-37454D01*
X46188Y-37442D01*
X46283Y-37442D01*
X46307Y-37454D01*
X46319Y-37466D01*
X46331Y-37490D01*
X46331Y-37537D01*
X46319Y-37561D01*
X46307Y-37573D01*
X46283Y-37585D01*
X46224Y-37585D01*
X46200Y-37573D01*
X46188Y-37561D01*
X46176Y-37537D01*
X46176Y-37490D01*
X46188Y-37466D01*
X46200Y-37454D01*
X46224Y-37442D01*
X45406Y-37734D02*
X45287Y-37650D01*
X45406Y-37591D02*
X45156Y-37591D01*
X45156Y-37686D01*
X45168Y-37710D01*
X45180Y-37722D01*
X45203Y-37734D01*
X45239Y-37734D01*
X45263Y-37722D01*
X45275Y-37710D01*
X45287Y-37686D01*
X45287Y-37591D01*
X45156Y-37817D02*
X45156Y-37972D01*
X45251Y-37889D01*
X45251Y-37924D01*
X45263Y-37948D01*
X45275Y-37960D01*
X45299Y-37972D01*
X45358Y-37972D01*
X45382Y-37960D01*
X45394Y-37948D01*
X45406Y-37924D01*
X45406Y-37853D01*
X45394Y-37829D01*
X45382Y-37817D01*
X45156Y-38198D02*
X45156Y-38079D01*
X45275Y-38067D01*
X45263Y-38079D01*
X45251Y-38103D01*
X45251Y-38162D01*
X45263Y-38186D01*
X45275Y-38198D01*
X45299Y-38210D01*
X45358Y-38210D01*
X45382Y-38198D01*
X45394Y-38186D01*
X45406Y-38162D01*
X45406Y-38103D01*
X45394Y-38079D01*
X45382Y-38067D01*
X83252Y-31227D02*
X83267Y-31212D01*
X83281Y-31170D01*
X83281Y-31141D01*
X83267Y-31098D01*
X83238Y-31070D01*
X83210Y-31055D01*
X83152Y-31041D01*
X83110Y-31041D01*
X83052Y-31055D01*
X83024Y-31070D01*
X82995Y-31098D01*
X82981Y-31141D01*
X82981Y-31170D01*
X82995Y-31212D01*
X83010Y-31227D01*
X83010Y-31341D02*
X82995Y-31355D01*
X82981Y-31384D01*
X82981Y-31455D01*
X82995Y-31484D01*
X83010Y-31498D01*
X83038Y-31512D01*
X83067Y-31512D01*
X83110Y-31498D01*
X83281Y-31327D01*
X83281Y-31512D01*
X83281Y-31655D02*
X83281Y-31712D01*
X83267Y-31741D01*
X83252Y-31755D01*
X83210Y-31784D01*
X83152Y-31798D01*
X83038Y-31798D01*
X83010Y-31784D01*
X82995Y-31770D01*
X82981Y-31741D01*
X82981Y-31684D01*
X82995Y-31655D01*
X83010Y-31641D01*
X83038Y-31627D01*
X83110Y-31627D01*
X83138Y-31641D01*
X83152Y-31655D01*
X83167Y-31684D01*
X83167Y-31741D01*
X83152Y-31770D01*
X83138Y-31784D01*
X83110Y-31798D01*
X83652Y-31512D02*
X83667Y-31498D01*
X83681Y-31455D01*
X83681Y-31427D01*
X83667Y-31384D01*
X83638Y-31355D01*
X83610Y-31341D01*
X83552Y-31327D01*
X83510Y-31327D01*
X83452Y-31341D01*
X83424Y-31355D01*
X83395Y-31384D01*
X83381Y-31427D01*
X83381Y-31455D01*
X83395Y-31498D01*
X83410Y-31512D01*
X83492Y-32872D02*
X83507Y-32887D01*
X83550Y-32901D01*
X83578Y-32901D01*
X83621Y-32887D01*
X83650Y-32858D01*
X83664Y-32830D01*
X83678Y-32772D01*
X83678Y-32730D01*
X83664Y-32672D01*
X83650Y-32644D01*
X83621Y-32615D01*
X83578Y-32601D01*
X83550Y-32601D01*
X83507Y-32615D01*
X83492Y-32630D01*
X83378Y-32630D02*
X83364Y-32615D01*
X83335Y-32601D01*
X83264Y-32601D01*
X83235Y-32615D01*
X83221Y-32630D01*
X83207Y-32658D01*
X83207Y-32687D01*
X83221Y-32730D01*
X83392Y-32901D01*
X83207Y-32901D01*
X83035Y-32730D02*
X83064Y-32715D01*
X83078Y-32701D01*
X83092Y-32672D01*
X83092Y-32658D01*
X83078Y-32630D01*
X83064Y-32615D01*
X83035Y-32601D01*
X82978Y-32601D01*
X82950Y-32615D01*
X82935Y-32630D01*
X82921Y-32658D01*
X82921Y-32672D01*
X82935Y-32701D01*
X82950Y-32715D01*
X82978Y-32730D01*
X83035Y-32730D01*
X83064Y-32744D01*
X83078Y-32758D01*
X83092Y-32787D01*
X83092Y-32844D01*
X83078Y-32872D01*
X83064Y-32887D01*
X83035Y-32901D01*
X82978Y-32901D01*
X82950Y-32887D01*
X82935Y-32872D01*
X82921Y-32844D01*
X82921Y-32787D01*
X82935Y-32758D01*
X82950Y-32744D01*
X82978Y-32730D01*
X83207Y-33272D02*
X83221Y-33287D01*
X83264Y-33301D01*
X83292Y-33301D01*
X83335Y-33287D01*
X83364Y-33258D01*
X83378Y-33230D01*
X83392Y-33172D01*
X83392Y-33130D01*
X83378Y-33072D01*
X83364Y-33044D01*
X83335Y-33015D01*
X83292Y-33001D01*
X83264Y-33001D01*
X83221Y-33015D01*
X83207Y-33030D01*
X83452Y-34272D02*
X83467Y-34287D01*
X83510Y-34301D01*
X83538Y-34301D01*
X83581Y-34287D01*
X83610Y-34258D01*
X83624Y-34230D01*
X83638Y-34172D01*
X83638Y-34130D01*
X83624Y-34072D01*
X83610Y-34044D01*
X83581Y-34015D01*
X83538Y-34001D01*
X83510Y-34001D01*
X83467Y-34015D01*
X83452Y-34030D01*
X83338Y-34030D02*
X83324Y-34015D01*
X83295Y-34001D01*
X83224Y-34001D01*
X83195Y-34015D01*
X83181Y-34030D01*
X83167Y-34058D01*
X83167Y-34087D01*
X83181Y-34130D01*
X83352Y-34301D01*
X83167Y-34301D01*
X83067Y-34001D02*
X82867Y-34001D01*
X82995Y-34301D01*
X83167Y-34672D02*
X83181Y-34687D01*
X83224Y-34701D01*
X83252Y-34701D01*
X83295Y-34687D01*
X83324Y-34658D01*
X83338Y-34630D01*
X83352Y-34572D01*
X83352Y-34530D01*
X83338Y-34472D01*
X83324Y-34444D01*
X83295Y-34415D01*
X83252Y-34401D01*
X83224Y-34401D01*
X83181Y-34415D01*
X83167Y-34430D01*
X83912Y-36087D02*
X83927Y-36072D01*
X83941Y-36030D01*
X83941Y-36001D01*
X83927Y-35958D01*
X83898Y-35930D01*
X83870Y-35915D01*
X83812Y-35901D01*
X83770Y-35901D01*
X83712Y-35915D01*
X83684Y-35930D01*
X83655Y-35958D01*
X83641Y-36001D01*
X83641Y-36030D01*
X83655Y-36072D01*
X83670Y-36087D01*
X83670Y-36201D02*
X83655Y-36215D01*
X83641Y-36244D01*
X83641Y-36315D01*
X83655Y-36344D01*
X83670Y-36358D01*
X83698Y-36372D01*
X83727Y-36372D01*
X83770Y-36358D01*
X83941Y-36187D01*
X83941Y-36372D01*
X83641Y-36630D02*
X83641Y-36572D01*
X83655Y-36544D01*
X83670Y-36530D01*
X83712Y-36501D01*
X83770Y-36487D01*
X83884Y-36487D01*
X83912Y-36501D01*
X83927Y-36515D01*
X83941Y-36544D01*
X83941Y-36601D01*
X83927Y-36630D01*
X83912Y-36644D01*
X83884Y-36658D01*
X83812Y-36658D01*
X83784Y-36644D01*
X83770Y-36630D01*
X83755Y-36601D01*
X83755Y-36544D01*
X83770Y-36515D01*
X83784Y-36501D01*
X83812Y-36487D01*
X83512Y-36372D02*
X83527Y-36358D01*
X83541Y-36315D01*
X83541Y-36287D01*
X83527Y-36244D01*
X83498Y-36215D01*
X83470Y-36201D01*
X83412Y-36187D01*
X83370Y-36187D01*
X83312Y-36201D01*
X83284Y-36215D01*
X83255Y-36244D01*
X83241Y-36287D01*
X83241Y-36315D01*
X83255Y-36358D01*
X83270Y-36372D01*
X64290Y-41197D02*
X64302Y-41209D01*
X64338Y-41221D01*
X64362Y-41221D01*
X64397Y-41209D01*
X64421Y-41185D01*
X64433Y-41161D01*
X64445Y-41114D01*
X64445Y-41078D01*
X64433Y-41030D01*
X64421Y-41006D01*
X64397Y-40983D01*
X64362Y-40971D01*
X64338Y-40971D01*
X64302Y-40983D01*
X64290Y-40995D01*
X64207Y-40971D02*
X64052Y-40971D01*
X64135Y-41066D01*
X64100Y-41066D01*
X64076Y-41078D01*
X64064Y-41090D01*
X64052Y-41114D01*
X64052Y-41173D01*
X64064Y-41197D01*
X64076Y-41209D01*
X64100Y-41221D01*
X64171Y-41221D01*
X64195Y-41209D01*
X64207Y-41197D01*
X63897Y-40971D02*
X63874Y-40971D01*
X63850Y-40983D01*
X63838Y-40995D01*
X63826Y-41018D01*
X63814Y-41066D01*
X63814Y-41125D01*
X63826Y-41173D01*
X63838Y-41197D01*
X63850Y-41209D01*
X63874Y-41221D01*
X63897Y-41221D01*
X63921Y-41209D01*
X63933Y-41197D01*
X63945Y-41173D01*
X63957Y-41125D01*
X63957Y-41066D01*
X63945Y-41018D01*
X63933Y-40995D01*
X63921Y-40983D01*
X63897Y-40971D01*
M02*
