G04 (created by PCBNEW (2013-03-19 BZR 4004)-stable) date 2/16/2014 5:39:05 PM*
%MOIN*%
G04 Gerber Fmt 3.4, Leading zero omitted, Abs format*
%FSLAX34Y34*%
G01*
G70*
G90*
G04 APERTURE LIST*
%ADD10C,0.006*%
%ADD11R,0.06X0.06*%
%ADD12C,0.06*%
%ADD13R,0.0787402X0.0787402*%
%ADD14C,0.0787402*%
%ADD15C,0.075*%
%ADD16C,0.16*%
%ADD17C,0.0984252*%
%ADD18C,0.07*%
%ADD19R,0.07X0.07*%
%ADD20O,0.0866142X0.110236*%
%ADD21C,0.0629921*%
%ADD22C,0.0551181*%
%ADD23O,0.06X0.1*%
%ADD24O,0.125X0.125*%
%ADD25C,0.11811*%
%ADD26C,0.1*%
%ADD27C,0.046*%
%ADD28C,0.02*%
%ADD29C,0.036*%
%ADD30C,0.048*%
%ADD31C,0.024*%
%ADD32C,0.01*%
G04 APERTURE END LIST*
G54D10*
G54D11*
X78650Y-37650D03*
G54D12*
X79650Y-37650D03*
X78650Y-38650D03*
X79650Y-38650D03*
X78650Y-39650D03*
X79650Y-39650D03*
G54D13*
X84700Y-53350D03*
G54D14*
X84700Y-51381D03*
X84700Y-49412D03*
G54D13*
X84800Y-46450D03*
G54D14*
X84800Y-45072D03*
X84800Y-43694D03*
X84800Y-42316D03*
X84800Y-40938D03*
X84800Y-39560D03*
X84800Y-38182D03*
X84800Y-36804D03*
X84800Y-35426D03*
X84800Y-34048D03*
X84800Y-32670D03*
X84800Y-31292D03*
G54D15*
X75360Y-51660D03*
X76160Y-49300D03*
X80960Y-49300D03*
X80960Y-54020D03*
X76160Y-54020D03*
G54D16*
X35300Y-44750D03*
G54D11*
X35300Y-47500D03*
G54D12*
X35300Y-48500D03*
G54D10*
G36*
X36822Y-45846D02*
X37246Y-45422D01*
X37670Y-45846D01*
X37246Y-46270D01*
X36822Y-45846D01*
X36822Y-45846D01*
G37*
G54D12*
X37953Y-46553D03*
G54D11*
X35200Y-42700D03*
G54D12*
X35200Y-41700D03*
G54D10*
G36*
X36846Y-44177D02*
X36422Y-43753D01*
X36846Y-43329D01*
X37270Y-43753D01*
X36846Y-44177D01*
X36846Y-44177D01*
G37*
G54D12*
X37553Y-43046D03*
G54D17*
X69145Y-31240D03*
X62190Y-31355D03*
G54D18*
X62160Y-34010D03*
X63160Y-34010D03*
G54D19*
X61160Y-34010D03*
G54D18*
X79915Y-34835D03*
X80915Y-34835D03*
G54D19*
X78915Y-34835D03*
G54D18*
X75000Y-34850D03*
X76000Y-34850D03*
G54D19*
X74000Y-34850D03*
G54D18*
X69265Y-33865D03*
X70265Y-33865D03*
G54D19*
X68265Y-33865D03*
G54D20*
X46879Y-32566D03*
X43020Y-32566D03*
G54D21*
X44950Y-31700D03*
X45934Y-31700D03*
X43965Y-31700D03*
G54D20*
X53529Y-32616D03*
X49670Y-32616D03*
G54D21*
X51600Y-31750D03*
X52584Y-31750D03*
X50615Y-31750D03*
G54D22*
X38413Y-31190D03*
X37625Y-31190D03*
X36838Y-31190D03*
G54D23*
X48790Y-35280D03*
X47790Y-35280D03*
X46790Y-35280D03*
X45790Y-35280D03*
X44790Y-35280D03*
X43790Y-35280D03*
X42790Y-35280D03*
X41790Y-35280D03*
X46390Y-54280D03*
X45390Y-54280D03*
X44390Y-54280D03*
X43390Y-54280D03*
X47390Y-54280D03*
X48390Y-54280D03*
X49390Y-54280D03*
X50390Y-54280D03*
X52390Y-54280D03*
X53390Y-54280D03*
X54390Y-54280D03*
X55390Y-54280D03*
X56390Y-54280D03*
X57390Y-54280D03*
X57390Y-35280D03*
X56390Y-35280D03*
X55390Y-35280D03*
X54390Y-35280D03*
X53390Y-35280D03*
X52390Y-35280D03*
X51390Y-35280D03*
X50390Y-35280D03*
G54D24*
X58390Y-52280D03*
X58390Y-41280D03*
X38390Y-35280D03*
X37890Y-54280D03*
G54D25*
X25974Y-51888D03*
X25974Y-50235D03*
X25974Y-48581D03*
X25974Y-46928D03*
X25974Y-45274D03*
X25974Y-43621D03*
X25974Y-41967D03*
X25974Y-40314D03*
X25974Y-38660D03*
X25974Y-37007D03*
X25974Y-35353D03*
X25974Y-33700D03*
X28139Y-51888D03*
X28139Y-50235D03*
X28139Y-48581D03*
X28139Y-46928D03*
X28139Y-45274D03*
X28139Y-43621D03*
X28139Y-41967D03*
X28139Y-40314D03*
X28139Y-38660D03*
X28139Y-37007D03*
X28139Y-35353D03*
X28139Y-33700D03*
G54D26*
X67800Y-37100D03*
X76850Y-32600D03*
X65700Y-33550D03*
X72300Y-49600D03*
X68800Y-51650D03*
X59650Y-37200D03*
X80900Y-39400D03*
X66500Y-40600D03*
G54D11*
X75450Y-32400D03*
G54D12*
X74450Y-32400D03*
X73450Y-32400D03*
G54D11*
X78350Y-32450D03*
G54D12*
X79350Y-32450D03*
X80350Y-32450D03*
G54D27*
X73950Y-44650D03*
X28100Y-53200D03*
X50400Y-50500D03*
X71600Y-50800D03*
X31525Y-51050D03*
X33900Y-34725D03*
X58100Y-32700D03*
G54D28*
X28950Y-31400D03*
G54D27*
X35950Y-36000D03*
X33225Y-47050D03*
X60600Y-46500D03*
X36800Y-47100D03*
G54D28*
X61900Y-42600D03*
X64800Y-38550D03*
X81500Y-38000D03*
G54D27*
X33175Y-42625D03*
X29400Y-32850D03*
X60100Y-33585D03*
X33850Y-32850D03*
G54D28*
X65850Y-41800D03*
X58000Y-37950D03*
X70700Y-36700D03*
X56875Y-45150D03*
X46200Y-39975D03*
X44850Y-39850D03*
X64450Y-53200D03*
X60525Y-43450D03*
X60800Y-41150D03*
X39975Y-31750D03*
X40000Y-32650D03*
X48775Y-39025D03*
X65125Y-42600D03*
X54500Y-38150D03*
X64840Y-41900D03*
X55450Y-38650D03*
X64825Y-43200D03*
X52550Y-38225D03*
X60525Y-42725D03*
G54D27*
X61500Y-46700D03*
X63300Y-48400D03*
G54D28*
X63700Y-46300D03*
X58950Y-30675D03*
G54D27*
X57290Y-32310D03*
G54D28*
X65900Y-38100D03*
X64900Y-36300D03*
X63700Y-38500D03*
X74940Y-38200D03*
G54D27*
X73500Y-36150D03*
G54D28*
X61600Y-38400D03*
X67925Y-40025D03*
G54D27*
X72050Y-37750D03*
X77150Y-36550D03*
X77850Y-34200D03*
G54D28*
X75850Y-40400D03*
X83300Y-38000D03*
X64425Y-42900D03*
G54D27*
X73850Y-43900D03*
G54D28*
X62550Y-39900D03*
G54D27*
X67700Y-41050D03*
X73945Y-37055D03*
X78600Y-36550D03*
X76350Y-38000D03*
X31875Y-36225D03*
G54D28*
X32000Y-31900D03*
G54D27*
X47275Y-48925D03*
G54D28*
X48650Y-48300D03*
G54D27*
X31950Y-39600D03*
X83800Y-46700D03*
X64100Y-46700D03*
X60700Y-48500D03*
X65635Y-31265D03*
G54D28*
X38025Y-32550D03*
G54D27*
X69900Y-49625D03*
G54D28*
X71450Y-38450D03*
X72200Y-38750D03*
X82050Y-40000D03*
X63810Y-40620D03*
X64190Y-40550D03*
X71100Y-37450D03*
X70800Y-41100D03*
X71600Y-39400D03*
X74450Y-38750D03*
X75000Y-39500D03*
X76400Y-37500D03*
X76900Y-37300D03*
X66400Y-36850D03*
X65250Y-38650D03*
G54D27*
X64100Y-54300D03*
X69650Y-53550D03*
X71700Y-51600D03*
X69900Y-54700D03*
G54D29*
X28100Y-53200D02*
X28850Y-53200D01*
X29500Y-52550D02*
X28850Y-53200D01*
X29500Y-48700D02*
X29500Y-52550D01*
X31800Y-46400D02*
X29500Y-48700D01*
X35400Y-46400D02*
X31800Y-46400D01*
X37050Y-44750D02*
X35400Y-46400D01*
X73850Y-44750D02*
X37050Y-44750D01*
X73950Y-44650D02*
X73850Y-44750D01*
X25974Y-37007D02*
X25092Y-37007D01*
X25092Y-37007D02*
X24600Y-37500D01*
X24600Y-37500D02*
X24600Y-52400D01*
X24600Y-52400D02*
X25400Y-53200D01*
X25400Y-53200D02*
X28100Y-53200D01*
G54D30*
X50900Y-50500D02*
X50400Y-50500D01*
X31525Y-51050D02*
X34550Y-51050D01*
X34550Y-51050D02*
X34600Y-51000D01*
G54D29*
X74450Y-32000D02*
X74450Y-32400D01*
X70265Y-33865D02*
X70535Y-33865D01*
X74150Y-31700D02*
X74450Y-32000D01*
X74450Y-32000D02*
X74400Y-31950D01*
X72700Y-31700D02*
X74150Y-31700D01*
X70535Y-33865D02*
X72700Y-31700D01*
X59800Y-34200D02*
X60450Y-34850D01*
X70265Y-34584D02*
X70265Y-33863D01*
X70000Y-34850D02*
X70265Y-34584D01*
X60450Y-34850D02*
X70000Y-34850D01*
X33900Y-34725D02*
X33800Y-34825D01*
X34425Y-34200D02*
X59800Y-34200D01*
X33800Y-34825D02*
X34425Y-34200D01*
X71575Y-31225D02*
X72000Y-30800D01*
X83451Y-32651D02*
X83250Y-32450D01*
X83250Y-32450D02*
X81400Y-32450D01*
X83451Y-32670D02*
X83465Y-32684D01*
X83465Y-32684D02*
X84800Y-34048D01*
X83451Y-32670D02*
X83451Y-32651D01*
X80900Y-31950D02*
X81400Y-32450D01*
X80900Y-31950D02*
X80900Y-31950D01*
X79750Y-30800D02*
X80900Y-31950D01*
X72000Y-30800D02*
X79750Y-30800D01*
X71600Y-31200D02*
X71575Y-31225D01*
X71575Y-31225D02*
X70700Y-32100D01*
X70700Y-32100D02*
X58700Y-32100D01*
X58700Y-32100D02*
X58400Y-32400D01*
X58100Y-32700D02*
X58400Y-32400D01*
X70250Y-35600D02*
X72600Y-35600D01*
X72600Y-35600D02*
X72700Y-35500D01*
X82754Y-36804D02*
X84800Y-36804D01*
X81450Y-35500D02*
X82754Y-36804D01*
X72700Y-35500D02*
X81450Y-35500D01*
X72600Y-35600D02*
X72700Y-35500D01*
X70300Y-35600D02*
X70250Y-35600D01*
X70250Y-35600D02*
X58200Y-35600D01*
X58200Y-35600D02*
X57350Y-36450D01*
X57350Y-36450D02*
X36400Y-36450D01*
X36400Y-36450D02*
X35950Y-36000D01*
G54D30*
X33175Y-42625D02*
X33175Y-41725D01*
X34075Y-40825D02*
X37175Y-40825D01*
X33175Y-41725D02*
X34075Y-40825D01*
G54D29*
X71950Y-31600D02*
X72300Y-31250D01*
X62160Y-34010D02*
X62160Y-33940D01*
X70850Y-32700D02*
X71950Y-31600D01*
X63400Y-32700D02*
X70850Y-32700D01*
X62160Y-33940D02*
X63400Y-32700D01*
X79350Y-31750D02*
X79350Y-32450D01*
X78850Y-31250D02*
X79350Y-31750D01*
X72300Y-31250D02*
X78850Y-31250D01*
X62160Y-34010D02*
X62160Y-33960D01*
X59180Y-33570D02*
X59180Y-33600D01*
X59150Y-33600D02*
X59180Y-33570D01*
X59090Y-33600D02*
X59150Y-33600D01*
X59690Y-33000D02*
X59090Y-33600D01*
X61200Y-33000D02*
X59690Y-33000D01*
X62160Y-33960D02*
X61200Y-33000D01*
X34600Y-33600D02*
X59180Y-33600D01*
X33850Y-32850D02*
X34600Y-33600D01*
G54D31*
X76700Y-38000D02*
X78150Y-36550D01*
X78150Y-36550D02*
X78600Y-36550D01*
X76350Y-38000D02*
X76700Y-38000D01*
X78350Y-32450D02*
X78350Y-32600D01*
X79915Y-33765D02*
X79915Y-34835D01*
X79550Y-33400D02*
X79915Y-33765D01*
X79150Y-33400D02*
X79550Y-33400D01*
X78350Y-32600D02*
X79150Y-33400D01*
G54D10*
G36*
X85750Y-47050D02*
X85340Y-47050D01*
X85405Y-46985D01*
X85443Y-46893D01*
X85443Y-46794D01*
X85443Y-46006D01*
X85405Y-45914D01*
X85335Y-45844D01*
X85243Y-45806D01*
X85144Y-45806D01*
X84356Y-45806D01*
X84264Y-45844D01*
X84194Y-45914D01*
X84156Y-46006D01*
X84156Y-46105D01*
X84156Y-46377D01*
X84072Y-46293D01*
X83895Y-46220D01*
X83704Y-46219D01*
X83528Y-46292D01*
X83393Y-46427D01*
X83320Y-46604D01*
X83319Y-46795D01*
X83392Y-46971D01*
X83471Y-47050D01*
X70450Y-47050D01*
X70450Y-48550D01*
X64580Y-48550D01*
X64580Y-46604D01*
X64507Y-46428D01*
X64372Y-46293D01*
X64195Y-46220D01*
X64045Y-46219D01*
X63996Y-46102D01*
X63898Y-46003D01*
X63769Y-45950D01*
X63630Y-45949D01*
X63502Y-46003D01*
X63403Y-46101D01*
X63350Y-46230D01*
X63349Y-46369D01*
X63403Y-46498D01*
X63501Y-46596D01*
X63620Y-46645D01*
X63619Y-46795D01*
X63692Y-46971D01*
X63827Y-47106D01*
X64004Y-47179D01*
X64195Y-47180D01*
X64371Y-47107D01*
X64506Y-46972D01*
X64579Y-46795D01*
X64580Y-46604D01*
X64580Y-48550D01*
X63757Y-48550D01*
X63779Y-48495D01*
X63780Y-48304D01*
X63707Y-48128D01*
X63572Y-47993D01*
X63395Y-47920D01*
X63204Y-47919D01*
X63028Y-47992D01*
X62893Y-48127D01*
X62820Y-48304D01*
X62819Y-48495D01*
X62842Y-48550D01*
X61980Y-48550D01*
X61980Y-46604D01*
X61907Y-46428D01*
X61772Y-46293D01*
X61595Y-46220D01*
X61404Y-46219D01*
X61228Y-46292D01*
X61093Y-46427D01*
X61020Y-46604D01*
X61019Y-46795D01*
X61092Y-46971D01*
X61227Y-47106D01*
X61404Y-47179D01*
X61595Y-47180D01*
X61771Y-47107D01*
X61906Y-46972D01*
X61979Y-46795D01*
X61980Y-46604D01*
X61980Y-48550D01*
X61179Y-48550D01*
X61180Y-48404D01*
X61107Y-48228D01*
X60972Y-48093D01*
X60795Y-48020D01*
X60604Y-48019D01*
X60428Y-48092D01*
X60293Y-48227D01*
X60220Y-48404D01*
X60219Y-48550D01*
X48894Y-48550D01*
X48946Y-48498D01*
X48999Y-48369D01*
X49000Y-48230D01*
X48946Y-48102D01*
X48848Y-48003D01*
X48719Y-47950D01*
X48580Y-47949D01*
X48452Y-48003D01*
X48353Y-48101D01*
X48300Y-48230D01*
X48299Y-48369D01*
X48353Y-48498D01*
X48405Y-48550D01*
X47578Y-48550D01*
X47547Y-48518D01*
X47370Y-48445D01*
X47179Y-48444D01*
X47003Y-48517D01*
X46971Y-48550D01*
X35849Y-48550D01*
X35850Y-48391D01*
X35766Y-48188D01*
X35750Y-48172D01*
X35750Y-48003D01*
X35811Y-47941D01*
X35849Y-47849D01*
X35850Y-47750D01*
X35850Y-47150D01*
X35812Y-47058D01*
X35750Y-46996D01*
X35750Y-46658D01*
X36572Y-45835D01*
X36572Y-45895D01*
X36610Y-45987D01*
X36680Y-46058D01*
X37104Y-46482D01*
X37196Y-46520D01*
X37295Y-46520D01*
X37387Y-46482D01*
X37403Y-46467D01*
X37403Y-46662D01*
X37487Y-46864D01*
X37641Y-47019D01*
X37843Y-47103D01*
X38062Y-47103D01*
X38264Y-47020D01*
X38419Y-46865D01*
X38503Y-46663D01*
X38503Y-46444D01*
X38420Y-46242D01*
X38265Y-46087D01*
X38063Y-46003D01*
X37867Y-46003D01*
X37882Y-45988D01*
X37920Y-45896D01*
X37920Y-45796D01*
X37882Y-45705D01*
X37812Y-45634D01*
X37388Y-45210D01*
X37315Y-45180D01*
X56524Y-45180D01*
X56524Y-45219D01*
X56578Y-45348D01*
X56676Y-45446D01*
X56805Y-45499D01*
X56944Y-45500D01*
X57073Y-45446D01*
X57171Y-45348D01*
X57224Y-45219D01*
X57224Y-45180D01*
X73850Y-45180D01*
X74014Y-45147D01*
X74040Y-45130D01*
X74045Y-45130D01*
X74221Y-45057D01*
X74328Y-44950D01*
X84156Y-44950D01*
X84156Y-45199D01*
X84253Y-45436D01*
X84434Y-45617D01*
X84671Y-45715D01*
X84927Y-45715D01*
X85164Y-45618D01*
X85345Y-45437D01*
X85443Y-45200D01*
X85443Y-44950D01*
X85750Y-44950D01*
X85750Y-47050D01*
X85750Y-47050D01*
G37*
G54D32*
X85750Y-47050D02*
X85340Y-47050D01*
X85405Y-46985D01*
X85443Y-46893D01*
X85443Y-46794D01*
X85443Y-46006D01*
X85405Y-45914D01*
X85335Y-45844D01*
X85243Y-45806D01*
X85144Y-45806D01*
X84356Y-45806D01*
X84264Y-45844D01*
X84194Y-45914D01*
X84156Y-46006D01*
X84156Y-46105D01*
X84156Y-46377D01*
X84072Y-46293D01*
X83895Y-46220D01*
X83704Y-46219D01*
X83528Y-46292D01*
X83393Y-46427D01*
X83320Y-46604D01*
X83319Y-46795D01*
X83392Y-46971D01*
X83471Y-47050D01*
X70450Y-47050D01*
X70450Y-48550D01*
X64580Y-48550D01*
X64580Y-46604D01*
X64507Y-46428D01*
X64372Y-46293D01*
X64195Y-46220D01*
X64045Y-46219D01*
X63996Y-46102D01*
X63898Y-46003D01*
X63769Y-45950D01*
X63630Y-45949D01*
X63502Y-46003D01*
X63403Y-46101D01*
X63350Y-46230D01*
X63349Y-46369D01*
X63403Y-46498D01*
X63501Y-46596D01*
X63620Y-46645D01*
X63619Y-46795D01*
X63692Y-46971D01*
X63827Y-47106D01*
X64004Y-47179D01*
X64195Y-47180D01*
X64371Y-47107D01*
X64506Y-46972D01*
X64579Y-46795D01*
X64580Y-46604D01*
X64580Y-48550D01*
X63757Y-48550D01*
X63779Y-48495D01*
X63780Y-48304D01*
X63707Y-48128D01*
X63572Y-47993D01*
X63395Y-47920D01*
X63204Y-47919D01*
X63028Y-47992D01*
X62893Y-48127D01*
X62820Y-48304D01*
X62819Y-48495D01*
X62842Y-48550D01*
X61980Y-48550D01*
X61980Y-46604D01*
X61907Y-46428D01*
X61772Y-46293D01*
X61595Y-46220D01*
X61404Y-46219D01*
X61228Y-46292D01*
X61093Y-46427D01*
X61020Y-46604D01*
X61019Y-46795D01*
X61092Y-46971D01*
X61227Y-47106D01*
X61404Y-47179D01*
X61595Y-47180D01*
X61771Y-47107D01*
X61906Y-46972D01*
X61979Y-46795D01*
X61980Y-46604D01*
X61980Y-48550D01*
X61179Y-48550D01*
X61180Y-48404D01*
X61107Y-48228D01*
X60972Y-48093D01*
X60795Y-48020D01*
X60604Y-48019D01*
X60428Y-48092D01*
X60293Y-48227D01*
X60220Y-48404D01*
X60219Y-48550D01*
X48894Y-48550D01*
X48946Y-48498D01*
X48999Y-48369D01*
X49000Y-48230D01*
X48946Y-48102D01*
X48848Y-48003D01*
X48719Y-47950D01*
X48580Y-47949D01*
X48452Y-48003D01*
X48353Y-48101D01*
X48300Y-48230D01*
X48299Y-48369D01*
X48353Y-48498D01*
X48405Y-48550D01*
X47578Y-48550D01*
X47547Y-48518D01*
X47370Y-48445D01*
X47179Y-48444D01*
X47003Y-48517D01*
X46971Y-48550D01*
X35849Y-48550D01*
X35850Y-48391D01*
X35766Y-48188D01*
X35750Y-48172D01*
X35750Y-48003D01*
X35811Y-47941D01*
X35849Y-47849D01*
X35850Y-47750D01*
X35850Y-47150D01*
X35812Y-47058D01*
X35750Y-46996D01*
X35750Y-46658D01*
X36572Y-45835D01*
X36572Y-45895D01*
X36610Y-45987D01*
X36680Y-46058D01*
X37104Y-46482D01*
X37196Y-46520D01*
X37295Y-46520D01*
X37387Y-46482D01*
X37403Y-46467D01*
X37403Y-46662D01*
X37487Y-46864D01*
X37641Y-47019D01*
X37843Y-47103D01*
X38062Y-47103D01*
X38264Y-47020D01*
X38419Y-46865D01*
X38503Y-46663D01*
X38503Y-46444D01*
X38420Y-46242D01*
X38265Y-46087D01*
X38063Y-46003D01*
X37867Y-46003D01*
X37882Y-45988D01*
X37920Y-45896D01*
X37920Y-45796D01*
X37882Y-45705D01*
X37812Y-45634D01*
X37388Y-45210D01*
X37315Y-45180D01*
X56524Y-45180D01*
X56524Y-45219D01*
X56578Y-45348D01*
X56676Y-45446D01*
X56805Y-45499D01*
X56944Y-45500D01*
X57073Y-45446D01*
X57171Y-45348D01*
X57224Y-45219D01*
X57224Y-45180D01*
X73850Y-45180D01*
X74014Y-45147D01*
X74040Y-45130D01*
X74045Y-45130D01*
X74221Y-45057D01*
X74328Y-44950D01*
X84156Y-44950D01*
X84156Y-45199D01*
X84253Y-45436D01*
X84434Y-45617D01*
X84671Y-45715D01*
X84927Y-45715D01*
X85164Y-45618D01*
X85345Y-45437D01*
X85443Y-45200D01*
X85443Y-44950D01*
X85750Y-44950D01*
X85750Y-47050D01*
G54D10*
G36*
X77650Y-55020D02*
X76785Y-55020D01*
X76785Y-53896D01*
X76690Y-53666D01*
X76514Y-53490D01*
X76284Y-53395D01*
X76036Y-53394D01*
X75806Y-53489D01*
X75630Y-53665D01*
X75535Y-53895D01*
X75534Y-54143D01*
X75629Y-54373D01*
X75805Y-54549D01*
X76035Y-54644D01*
X76283Y-54645D01*
X76513Y-54550D01*
X76689Y-54374D01*
X76784Y-54144D01*
X76785Y-53896D01*
X76785Y-55020D01*
X73690Y-55020D01*
X73690Y-52233D01*
X73563Y-51924D01*
X73326Y-51687D01*
X73053Y-51574D01*
X73053Y-49729D01*
X73045Y-49431D01*
X72946Y-49191D01*
X72830Y-49140D01*
X72370Y-49600D01*
X72830Y-50059D01*
X72946Y-50008D01*
X73053Y-49729D01*
X73053Y-51574D01*
X73017Y-51559D01*
X72759Y-51559D01*
X72759Y-50130D01*
X72300Y-49670D01*
X72229Y-49741D01*
X72229Y-49600D01*
X71769Y-49140D01*
X71653Y-49191D01*
X71546Y-49470D01*
X71554Y-49768D01*
X71653Y-50008D01*
X71769Y-50059D01*
X72229Y-49600D01*
X72229Y-49741D01*
X71840Y-50130D01*
X71891Y-50246D01*
X72170Y-50353D01*
X72468Y-50345D01*
X72708Y-50246D01*
X72759Y-50130D01*
X72759Y-51559D01*
X72683Y-51559D01*
X72374Y-51687D01*
X72180Y-51881D01*
X72180Y-51504D01*
X72107Y-51328D01*
X71972Y-51193D01*
X71795Y-51120D01*
X71604Y-51119D01*
X71428Y-51192D01*
X71293Y-51327D01*
X71220Y-51504D01*
X71219Y-51695D01*
X71292Y-51871D01*
X71427Y-52006D01*
X71604Y-52079D01*
X71795Y-52080D01*
X71971Y-52007D01*
X72106Y-51872D01*
X72179Y-51695D01*
X72180Y-51504D01*
X72180Y-51881D01*
X72137Y-51923D01*
X72009Y-52232D01*
X72009Y-52566D01*
X72137Y-52875D01*
X72373Y-53112D01*
X72682Y-53240D01*
X73016Y-53240D01*
X73325Y-53113D01*
X73562Y-52876D01*
X73690Y-52567D01*
X73690Y-52233D01*
X73690Y-55020D01*
X70258Y-55020D01*
X70306Y-54972D01*
X70379Y-54795D01*
X70380Y-54604D01*
X70380Y-49529D01*
X70307Y-49353D01*
X70172Y-49218D01*
X69995Y-49145D01*
X69804Y-49144D01*
X69628Y-49217D01*
X69493Y-49352D01*
X69420Y-49529D01*
X69419Y-49720D01*
X69492Y-49896D01*
X69627Y-50031D01*
X69804Y-50104D01*
X69995Y-50105D01*
X70171Y-50032D01*
X70306Y-49897D01*
X70379Y-49720D01*
X70380Y-49529D01*
X70380Y-54604D01*
X70307Y-54428D01*
X70172Y-54293D01*
X70130Y-54275D01*
X70130Y-53454D01*
X70057Y-53278D01*
X69922Y-53143D01*
X69745Y-53070D01*
X69554Y-53069D01*
X69550Y-53071D01*
X69550Y-51501D01*
X69436Y-51225D01*
X69225Y-51014D01*
X68949Y-50900D01*
X68651Y-50899D01*
X68375Y-51013D01*
X68164Y-51224D01*
X68050Y-51500D01*
X68049Y-51798D01*
X68163Y-52074D01*
X68374Y-52285D01*
X68650Y-52399D01*
X68948Y-52400D01*
X69224Y-52286D01*
X69435Y-52075D01*
X69549Y-51799D01*
X69550Y-51501D01*
X69550Y-53071D01*
X69378Y-53142D01*
X69243Y-53277D01*
X69170Y-53454D01*
X69169Y-53645D01*
X69242Y-53821D01*
X69377Y-53956D01*
X69554Y-54029D01*
X69745Y-54030D01*
X69921Y-53957D01*
X70056Y-53822D01*
X70129Y-53645D01*
X70130Y-53454D01*
X70130Y-54275D01*
X69995Y-54220D01*
X69804Y-54219D01*
X69628Y-54292D01*
X69493Y-54427D01*
X69420Y-54604D01*
X69419Y-54795D01*
X69492Y-54971D01*
X69541Y-55020D01*
X64800Y-55020D01*
X64800Y-53130D01*
X64746Y-53002D01*
X64648Y-52903D01*
X64519Y-52850D01*
X64380Y-52849D01*
X64252Y-52903D01*
X64153Y-53001D01*
X64100Y-53130D01*
X64099Y-53269D01*
X64153Y-53398D01*
X64251Y-53496D01*
X64380Y-53549D01*
X64519Y-53550D01*
X64648Y-53496D01*
X64746Y-53398D01*
X64799Y-53269D01*
X64800Y-53130D01*
X64800Y-55020D01*
X64580Y-55020D01*
X64580Y-54204D01*
X64507Y-54028D01*
X64372Y-53893D01*
X64195Y-53820D01*
X64004Y-53819D01*
X63828Y-53892D01*
X63693Y-54027D01*
X63620Y-54204D01*
X63619Y-54395D01*
X63692Y-54571D01*
X63827Y-54706D01*
X64004Y-54779D01*
X64195Y-54780D01*
X64371Y-54707D01*
X64506Y-54572D01*
X64579Y-54395D01*
X64580Y-54204D01*
X64580Y-55020D01*
X59282Y-55020D01*
X59282Y-52280D01*
X59215Y-51945D01*
X59025Y-51661D01*
X58741Y-51471D01*
X58407Y-51405D01*
X58372Y-51405D01*
X58038Y-51471D01*
X57754Y-51661D01*
X57564Y-51945D01*
X57497Y-52280D01*
X57564Y-52614D01*
X57754Y-52898D01*
X58038Y-53088D01*
X58372Y-53155D01*
X58407Y-53155D01*
X58741Y-53088D01*
X59025Y-52898D01*
X59215Y-52614D01*
X59282Y-52280D01*
X59282Y-55020D01*
X57511Y-55020D01*
X57600Y-55002D01*
X57778Y-54883D01*
X57898Y-54705D01*
X57940Y-54494D01*
X57940Y-54065D01*
X57898Y-53854D01*
X57778Y-53676D01*
X57600Y-53557D01*
X57390Y-53515D01*
X57179Y-53557D01*
X57001Y-53676D01*
X56890Y-53842D01*
X56778Y-53676D01*
X56600Y-53557D01*
X56390Y-53515D01*
X56179Y-53557D01*
X56001Y-53676D01*
X55890Y-53842D01*
X55778Y-53676D01*
X55600Y-53557D01*
X55390Y-53515D01*
X55179Y-53557D01*
X55001Y-53676D01*
X54890Y-53842D01*
X54778Y-53676D01*
X54600Y-53557D01*
X54390Y-53515D01*
X54179Y-53557D01*
X54001Y-53676D01*
X53890Y-53842D01*
X53778Y-53676D01*
X53600Y-53557D01*
X53390Y-53515D01*
X53179Y-53557D01*
X53001Y-53676D01*
X52890Y-53842D01*
X52778Y-53676D01*
X52600Y-53557D01*
X52390Y-53515D01*
X52179Y-53557D01*
X52001Y-53676D01*
X51881Y-53854D01*
X51840Y-54065D01*
X51840Y-54494D01*
X51881Y-54705D01*
X52001Y-54883D01*
X52179Y-55002D01*
X52268Y-55020D01*
X50511Y-55020D01*
X50600Y-55002D01*
X50778Y-54883D01*
X50898Y-54705D01*
X50940Y-54494D01*
X50940Y-54065D01*
X50898Y-53854D01*
X50778Y-53676D01*
X50600Y-53557D01*
X50390Y-53515D01*
X50179Y-53557D01*
X50001Y-53676D01*
X49890Y-53842D01*
X49778Y-53676D01*
X49600Y-53557D01*
X49390Y-53515D01*
X49179Y-53557D01*
X49001Y-53676D01*
X48890Y-53842D01*
X48778Y-53676D01*
X48600Y-53557D01*
X48390Y-53515D01*
X48179Y-53557D01*
X48001Y-53676D01*
X47890Y-53842D01*
X47778Y-53676D01*
X47600Y-53557D01*
X47390Y-53515D01*
X47179Y-53557D01*
X47001Y-53676D01*
X46890Y-53842D01*
X46778Y-53676D01*
X46600Y-53557D01*
X46390Y-53515D01*
X46179Y-53557D01*
X46001Y-53676D01*
X45890Y-53842D01*
X45778Y-53676D01*
X45600Y-53557D01*
X45390Y-53515D01*
X45179Y-53557D01*
X45001Y-53676D01*
X44890Y-53842D01*
X44778Y-53676D01*
X44600Y-53557D01*
X44390Y-53515D01*
X44179Y-53557D01*
X44001Y-53676D01*
X43890Y-53842D01*
X43778Y-53676D01*
X43600Y-53557D01*
X43390Y-53515D01*
X43179Y-53557D01*
X43001Y-53676D01*
X42881Y-53854D01*
X42840Y-54065D01*
X42840Y-54494D01*
X42881Y-54705D01*
X43001Y-54883D01*
X43179Y-55002D01*
X43268Y-55020D01*
X38343Y-55020D01*
X38525Y-54898D01*
X38715Y-54614D01*
X38782Y-54280D01*
X38715Y-53945D01*
X38525Y-53661D01*
X38241Y-53471D01*
X37907Y-53405D01*
X37872Y-53405D01*
X37538Y-53471D01*
X37254Y-53661D01*
X37064Y-53945D01*
X36997Y-54280D01*
X37064Y-54614D01*
X37254Y-54898D01*
X37436Y-55020D01*
X34150Y-55020D01*
X34150Y-49050D01*
X35300Y-49050D01*
X35408Y-49050D01*
X35409Y-49050D01*
X46807Y-49050D01*
X46867Y-49196D01*
X47002Y-49331D01*
X47179Y-49404D01*
X47370Y-49405D01*
X47546Y-49332D01*
X47681Y-49197D01*
X47742Y-49050D01*
X71848Y-49050D01*
X71840Y-49069D01*
X72300Y-49529D01*
X72759Y-49069D01*
X72751Y-49050D01*
X75587Y-49050D01*
X75535Y-49175D01*
X75534Y-49423D01*
X75629Y-49653D01*
X75805Y-49829D01*
X76035Y-49924D01*
X76283Y-49925D01*
X76513Y-49830D01*
X76689Y-49654D01*
X76784Y-49424D01*
X76785Y-49176D01*
X76732Y-49050D01*
X77550Y-49050D01*
X77550Y-50550D01*
X73950Y-50550D01*
X73950Y-53150D01*
X77650Y-53150D01*
X77650Y-55020D01*
X77650Y-55020D01*
G37*
G54D32*
X77650Y-55020D02*
X76785Y-55020D01*
X76785Y-53896D01*
X76690Y-53666D01*
X76514Y-53490D01*
X76284Y-53395D01*
X76036Y-53394D01*
X75806Y-53489D01*
X75630Y-53665D01*
X75535Y-53895D01*
X75534Y-54143D01*
X75629Y-54373D01*
X75805Y-54549D01*
X76035Y-54644D01*
X76283Y-54645D01*
X76513Y-54550D01*
X76689Y-54374D01*
X76784Y-54144D01*
X76785Y-53896D01*
X76785Y-55020D01*
X73690Y-55020D01*
X73690Y-52233D01*
X73563Y-51924D01*
X73326Y-51687D01*
X73053Y-51574D01*
X73053Y-49729D01*
X73045Y-49431D01*
X72946Y-49191D01*
X72830Y-49140D01*
X72370Y-49600D01*
X72830Y-50059D01*
X72946Y-50008D01*
X73053Y-49729D01*
X73053Y-51574D01*
X73017Y-51559D01*
X72759Y-51559D01*
X72759Y-50130D01*
X72300Y-49670D01*
X72229Y-49741D01*
X72229Y-49600D01*
X71769Y-49140D01*
X71653Y-49191D01*
X71546Y-49470D01*
X71554Y-49768D01*
X71653Y-50008D01*
X71769Y-50059D01*
X72229Y-49600D01*
X72229Y-49741D01*
X71840Y-50130D01*
X71891Y-50246D01*
X72170Y-50353D01*
X72468Y-50345D01*
X72708Y-50246D01*
X72759Y-50130D01*
X72759Y-51559D01*
X72683Y-51559D01*
X72374Y-51687D01*
X72180Y-51881D01*
X72180Y-51504D01*
X72107Y-51328D01*
X71972Y-51193D01*
X71795Y-51120D01*
X71604Y-51119D01*
X71428Y-51192D01*
X71293Y-51327D01*
X71220Y-51504D01*
X71219Y-51695D01*
X71292Y-51871D01*
X71427Y-52006D01*
X71604Y-52079D01*
X71795Y-52080D01*
X71971Y-52007D01*
X72106Y-51872D01*
X72179Y-51695D01*
X72180Y-51504D01*
X72180Y-51881D01*
X72137Y-51923D01*
X72009Y-52232D01*
X72009Y-52566D01*
X72137Y-52875D01*
X72373Y-53112D01*
X72682Y-53240D01*
X73016Y-53240D01*
X73325Y-53113D01*
X73562Y-52876D01*
X73690Y-52567D01*
X73690Y-52233D01*
X73690Y-55020D01*
X70258Y-55020D01*
X70306Y-54972D01*
X70379Y-54795D01*
X70380Y-54604D01*
X70380Y-49529D01*
X70307Y-49353D01*
X70172Y-49218D01*
X69995Y-49145D01*
X69804Y-49144D01*
X69628Y-49217D01*
X69493Y-49352D01*
X69420Y-49529D01*
X69419Y-49720D01*
X69492Y-49896D01*
X69627Y-50031D01*
X69804Y-50104D01*
X69995Y-50105D01*
X70171Y-50032D01*
X70306Y-49897D01*
X70379Y-49720D01*
X70380Y-49529D01*
X70380Y-54604D01*
X70307Y-54428D01*
X70172Y-54293D01*
X70130Y-54275D01*
X70130Y-53454D01*
X70057Y-53278D01*
X69922Y-53143D01*
X69745Y-53070D01*
X69554Y-53069D01*
X69550Y-53071D01*
X69550Y-51501D01*
X69436Y-51225D01*
X69225Y-51014D01*
X68949Y-50900D01*
X68651Y-50899D01*
X68375Y-51013D01*
X68164Y-51224D01*
X68050Y-51500D01*
X68049Y-51798D01*
X68163Y-52074D01*
X68374Y-52285D01*
X68650Y-52399D01*
X68948Y-52400D01*
X69224Y-52286D01*
X69435Y-52075D01*
X69549Y-51799D01*
X69550Y-51501D01*
X69550Y-53071D01*
X69378Y-53142D01*
X69243Y-53277D01*
X69170Y-53454D01*
X69169Y-53645D01*
X69242Y-53821D01*
X69377Y-53956D01*
X69554Y-54029D01*
X69745Y-54030D01*
X69921Y-53957D01*
X70056Y-53822D01*
X70129Y-53645D01*
X70130Y-53454D01*
X70130Y-54275D01*
X69995Y-54220D01*
X69804Y-54219D01*
X69628Y-54292D01*
X69493Y-54427D01*
X69420Y-54604D01*
X69419Y-54795D01*
X69492Y-54971D01*
X69541Y-55020D01*
X64800Y-55020D01*
X64800Y-53130D01*
X64746Y-53002D01*
X64648Y-52903D01*
X64519Y-52850D01*
X64380Y-52849D01*
X64252Y-52903D01*
X64153Y-53001D01*
X64100Y-53130D01*
X64099Y-53269D01*
X64153Y-53398D01*
X64251Y-53496D01*
X64380Y-53549D01*
X64519Y-53550D01*
X64648Y-53496D01*
X64746Y-53398D01*
X64799Y-53269D01*
X64800Y-53130D01*
X64800Y-55020D01*
X64580Y-55020D01*
X64580Y-54204D01*
X64507Y-54028D01*
X64372Y-53893D01*
X64195Y-53820D01*
X64004Y-53819D01*
X63828Y-53892D01*
X63693Y-54027D01*
X63620Y-54204D01*
X63619Y-54395D01*
X63692Y-54571D01*
X63827Y-54706D01*
X64004Y-54779D01*
X64195Y-54780D01*
X64371Y-54707D01*
X64506Y-54572D01*
X64579Y-54395D01*
X64580Y-54204D01*
X64580Y-55020D01*
X59282Y-55020D01*
X59282Y-52280D01*
X59215Y-51945D01*
X59025Y-51661D01*
X58741Y-51471D01*
X58407Y-51405D01*
X58372Y-51405D01*
X58038Y-51471D01*
X57754Y-51661D01*
X57564Y-51945D01*
X57497Y-52280D01*
X57564Y-52614D01*
X57754Y-52898D01*
X58038Y-53088D01*
X58372Y-53155D01*
X58407Y-53155D01*
X58741Y-53088D01*
X59025Y-52898D01*
X59215Y-52614D01*
X59282Y-52280D01*
X59282Y-55020D01*
X57511Y-55020D01*
X57600Y-55002D01*
X57778Y-54883D01*
X57898Y-54705D01*
X57940Y-54494D01*
X57940Y-54065D01*
X57898Y-53854D01*
X57778Y-53676D01*
X57600Y-53557D01*
X57390Y-53515D01*
X57179Y-53557D01*
X57001Y-53676D01*
X56890Y-53842D01*
X56778Y-53676D01*
X56600Y-53557D01*
X56390Y-53515D01*
X56179Y-53557D01*
X56001Y-53676D01*
X55890Y-53842D01*
X55778Y-53676D01*
X55600Y-53557D01*
X55390Y-53515D01*
X55179Y-53557D01*
X55001Y-53676D01*
X54890Y-53842D01*
X54778Y-53676D01*
X54600Y-53557D01*
X54390Y-53515D01*
X54179Y-53557D01*
X54001Y-53676D01*
X53890Y-53842D01*
X53778Y-53676D01*
X53600Y-53557D01*
X53390Y-53515D01*
X53179Y-53557D01*
X53001Y-53676D01*
X52890Y-53842D01*
X52778Y-53676D01*
X52600Y-53557D01*
X52390Y-53515D01*
X52179Y-53557D01*
X52001Y-53676D01*
X51881Y-53854D01*
X51840Y-54065D01*
X51840Y-54494D01*
X51881Y-54705D01*
X52001Y-54883D01*
X52179Y-55002D01*
X52268Y-55020D01*
X50511Y-55020D01*
X50600Y-55002D01*
X50778Y-54883D01*
X50898Y-54705D01*
X50940Y-54494D01*
X50940Y-54065D01*
X50898Y-53854D01*
X50778Y-53676D01*
X50600Y-53557D01*
X50390Y-53515D01*
X50179Y-53557D01*
X50001Y-53676D01*
X49890Y-53842D01*
X49778Y-53676D01*
X49600Y-53557D01*
X49390Y-53515D01*
X49179Y-53557D01*
X49001Y-53676D01*
X48890Y-53842D01*
X48778Y-53676D01*
X48600Y-53557D01*
X48390Y-53515D01*
X48179Y-53557D01*
X48001Y-53676D01*
X47890Y-53842D01*
X47778Y-53676D01*
X47600Y-53557D01*
X47390Y-53515D01*
X47179Y-53557D01*
X47001Y-53676D01*
X46890Y-53842D01*
X46778Y-53676D01*
X46600Y-53557D01*
X46390Y-53515D01*
X46179Y-53557D01*
X46001Y-53676D01*
X45890Y-53842D01*
X45778Y-53676D01*
X45600Y-53557D01*
X45390Y-53515D01*
X45179Y-53557D01*
X45001Y-53676D01*
X44890Y-53842D01*
X44778Y-53676D01*
X44600Y-53557D01*
X44390Y-53515D01*
X44179Y-53557D01*
X44001Y-53676D01*
X43890Y-53842D01*
X43778Y-53676D01*
X43600Y-53557D01*
X43390Y-53515D01*
X43179Y-53557D01*
X43001Y-53676D01*
X42881Y-53854D01*
X42840Y-54065D01*
X42840Y-54494D01*
X42881Y-54705D01*
X43001Y-54883D01*
X43179Y-55002D01*
X43268Y-55020D01*
X38343Y-55020D01*
X38525Y-54898D01*
X38715Y-54614D01*
X38782Y-54280D01*
X38715Y-53945D01*
X38525Y-53661D01*
X38241Y-53471D01*
X37907Y-53405D01*
X37872Y-53405D01*
X37538Y-53471D01*
X37254Y-53661D01*
X37064Y-53945D01*
X36997Y-54280D01*
X37064Y-54614D01*
X37254Y-54898D01*
X37436Y-55020D01*
X34150Y-55020D01*
X34150Y-49050D01*
X35300Y-49050D01*
X35408Y-49050D01*
X35409Y-49050D01*
X46807Y-49050D01*
X46867Y-49196D01*
X47002Y-49331D01*
X47179Y-49404D01*
X47370Y-49405D01*
X47546Y-49332D01*
X47681Y-49197D01*
X47742Y-49050D01*
X71848Y-49050D01*
X71840Y-49069D01*
X72300Y-49529D01*
X72759Y-49069D01*
X72751Y-49050D01*
X75587Y-49050D01*
X75535Y-49175D01*
X75534Y-49423D01*
X75629Y-49653D01*
X75805Y-49829D01*
X76035Y-49924D01*
X76283Y-49925D01*
X76513Y-49830D01*
X76689Y-49654D01*
X76784Y-49424D01*
X76785Y-49176D01*
X76732Y-49050D01*
X77550Y-49050D01*
X77550Y-50550D01*
X73950Y-50550D01*
X73950Y-53150D01*
X77650Y-53150D01*
X77650Y-55020D01*
G54D10*
G36*
X85750Y-44550D02*
X85443Y-44550D01*
X85443Y-43566D01*
X85443Y-42188D01*
X85443Y-40810D01*
X85443Y-39432D01*
X85346Y-39196D01*
X85165Y-39014D01*
X84928Y-38916D01*
X84672Y-38916D01*
X84435Y-39014D01*
X84254Y-39195D01*
X84156Y-39431D01*
X84156Y-39687D01*
X84253Y-39924D01*
X84434Y-40105D01*
X84671Y-40203D01*
X84927Y-40204D01*
X85164Y-40106D01*
X85345Y-39925D01*
X85443Y-39688D01*
X85443Y-39432D01*
X85443Y-40810D01*
X85346Y-40574D01*
X85165Y-40392D01*
X84928Y-40294D01*
X84672Y-40294D01*
X84435Y-40392D01*
X84254Y-40573D01*
X84156Y-40809D01*
X84156Y-41065D01*
X84253Y-41302D01*
X84434Y-41483D01*
X84671Y-41581D01*
X84927Y-41582D01*
X85164Y-41484D01*
X85345Y-41303D01*
X85443Y-41066D01*
X85443Y-40810D01*
X85443Y-42188D01*
X85346Y-41951D01*
X85165Y-41770D01*
X84928Y-41672D01*
X84672Y-41672D01*
X84435Y-41770D01*
X84254Y-41951D01*
X84156Y-42187D01*
X84156Y-42443D01*
X84253Y-42680D01*
X84434Y-42861D01*
X84671Y-42959D01*
X84927Y-42959D01*
X85164Y-42862D01*
X85345Y-42681D01*
X85443Y-42444D01*
X85443Y-42188D01*
X85443Y-43566D01*
X85346Y-43329D01*
X85165Y-43148D01*
X84928Y-43050D01*
X84672Y-43050D01*
X84435Y-43148D01*
X84254Y-43328D01*
X84156Y-43565D01*
X84156Y-43821D01*
X84253Y-44058D01*
X84434Y-44239D01*
X84671Y-44337D01*
X84927Y-44337D01*
X85164Y-44240D01*
X85345Y-44059D01*
X85443Y-43822D01*
X85443Y-43566D01*
X85443Y-44550D01*
X85188Y-44550D01*
X85165Y-44526D01*
X84928Y-44428D01*
X84672Y-44428D01*
X84435Y-44526D01*
X84411Y-44550D01*
X82400Y-44550D01*
X82400Y-39930D01*
X82346Y-39802D01*
X82248Y-39703D01*
X82119Y-39650D01*
X81980Y-39649D01*
X81852Y-39703D01*
X81753Y-39801D01*
X81700Y-39930D01*
X81699Y-40069D01*
X81753Y-40198D01*
X81851Y-40296D01*
X81980Y-40349D01*
X82119Y-40350D01*
X82248Y-40296D01*
X82346Y-40198D01*
X82399Y-40069D01*
X82400Y-39930D01*
X82400Y-44550D01*
X76200Y-44550D01*
X76200Y-40330D01*
X76146Y-40202D01*
X76048Y-40103D01*
X75919Y-40050D01*
X75780Y-40049D01*
X75652Y-40103D01*
X75553Y-40201D01*
X75500Y-40330D01*
X75499Y-40469D01*
X75553Y-40598D01*
X75651Y-40696D01*
X75780Y-40749D01*
X75919Y-40750D01*
X76048Y-40696D01*
X76146Y-40598D01*
X76199Y-40469D01*
X76200Y-40330D01*
X76200Y-44550D01*
X75350Y-44550D01*
X75350Y-39430D01*
X75296Y-39302D01*
X75290Y-39295D01*
X75290Y-38130D01*
X75236Y-38002D01*
X75138Y-37903D01*
X75009Y-37850D01*
X74870Y-37849D01*
X74742Y-37903D01*
X74643Y-38001D01*
X74590Y-38130D01*
X74589Y-38269D01*
X74643Y-38398D01*
X74741Y-38496D01*
X74870Y-38549D01*
X75009Y-38550D01*
X75138Y-38496D01*
X75236Y-38398D01*
X75289Y-38269D01*
X75290Y-38130D01*
X75290Y-39295D01*
X75198Y-39203D01*
X75069Y-39150D01*
X74930Y-39149D01*
X74802Y-39203D01*
X74800Y-39205D01*
X74800Y-38680D01*
X74746Y-38552D01*
X74648Y-38453D01*
X74519Y-38400D01*
X74380Y-38399D01*
X74252Y-38453D01*
X74153Y-38551D01*
X74100Y-38680D01*
X74099Y-38819D01*
X74153Y-38948D01*
X74251Y-39046D01*
X74380Y-39099D01*
X74519Y-39100D01*
X74648Y-39046D01*
X74746Y-38948D01*
X74799Y-38819D01*
X74800Y-38680D01*
X74800Y-39205D01*
X74703Y-39301D01*
X74650Y-39430D01*
X74649Y-39569D01*
X74703Y-39698D01*
X74801Y-39796D01*
X74930Y-39849D01*
X75069Y-39850D01*
X75198Y-39796D01*
X75296Y-39698D01*
X75349Y-39569D01*
X75350Y-39430D01*
X75350Y-44550D01*
X74428Y-44550D01*
X74357Y-44378D01*
X74222Y-44243D01*
X74196Y-44232D01*
X74256Y-44172D01*
X74329Y-43995D01*
X74330Y-43804D01*
X74257Y-43628D01*
X74122Y-43493D01*
X73945Y-43420D01*
X73754Y-43419D01*
X73578Y-43492D01*
X73443Y-43627D01*
X73370Y-43804D01*
X73369Y-43995D01*
X73442Y-44171D01*
X73577Y-44306D01*
X73603Y-44317D01*
X73601Y-44320D01*
X72550Y-44320D01*
X72550Y-38680D01*
X72496Y-38552D01*
X72398Y-38453D01*
X72269Y-38400D01*
X72130Y-38399D01*
X72002Y-38453D01*
X71903Y-38551D01*
X71850Y-38680D01*
X71849Y-38819D01*
X71903Y-38948D01*
X72001Y-39046D01*
X72130Y-39099D01*
X72269Y-39100D01*
X72398Y-39046D01*
X72496Y-38948D01*
X72549Y-38819D01*
X72550Y-38680D01*
X72550Y-44320D01*
X71950Y-44320D01*
X71950Y-39330D01*
X71896Y-39202D01*
X71800Y-39105D01*
X71800Y-38380D01*
X71746Y-38252D01*
X71648Y-38153D01*
X71519Y-38100D01*
X71380Y-38099D01*
X71252Y-38153D01*
X71153Y-38251D01*
X71100Y-38380D01*
X71099Y-38519D01*
X71153Y-38648D01*
X71251Y-38746D01*
X71380Y-38799D01*
X71519Y-38800D01*
X71648Y-38746D01*
X71746Y-38648D01*
X71799Y-38519D01*
X71800Y-38380D01*
X71800Y-39105D01*
X71798Y-39103D01*
X71669Y-39050D01*
X71530Y-39049D01*
X71402Y-39103D01*
X71303Y-39201D01*
X71250Y-39330D01*
X71249Y-39469D01*
X71303Y-39598D01*
X71401Y-39696D01*
X71530Y-39749D01*
X71669Y-39750D01*
X71798Y-39696D01*
X71896Y-39598D01*
X71949Y-39469D01*
X71950Y-39330D01*
X71950Y-44320D01*
X71150Y-44320D01*
X71150Y-41030D01*
X71096Y-40902D01*
X70998Y-40803D01*
X70869Y-40750D01*
X70730Y-40749D01*
X70602Y-40803D01*
X70503Y-40901D01*
X70450Y-41030D01*
X70449Y-41169D01*
X70503Y-41298D01*
X70601Y-41396D01*
X70730Y-41449D01*
X70869Y-41450D01*
X70998Y-41396D01*
X71096Y-41298D01*
X71149Y-41169D01*
X71150Y-41030D01*
X71150Y-44320D01*
X68275Y-44320D01*
X68275Y-39955D01*
X68221Y-39827D01*
X68123Y-39728D01*
X67994Y-39675D01*
X67855Y-39674D01*
X67727Y-39728D01*
X67628Y-39826D01*
X67575Y-39955D01*
X67574Y-40094D01*
X67628Y-40223D01*
X67726Y-40321D01*
X67855Y-40374D01*
X67994Y-40375D01*
X68123Y-40321D01*
X68221Y-40223D01*
X68274Y-40094D01*
X68275Y-39955D01*
X68275Y-44320D01*
X68180Y-44320D01*
X68180Y-40954D01*
X68107Y-40778D01*
X67972Y-40643D01*
X67795Y-40570D01*
X67604Y-40569D01*
X67428Y-40642D01*
X67293Y-40777D01*
X67250Y-40881D01*
X67250Y-40451D01*
X67136Y-40175D01*
X66925Y-39964D01*
X66649Y-39850D01*
X66351Y-39849D01*
X66250Y-39891D01*
X66250Y-38030D01*
X66196Y-37902D01*
X66098Y-37803D01*
X65969Y-37750D01*
X65830Y-37749D01*
X65702Y-37803D01*
X65603Y-37901D01*
X65550Y-38030D01*
X65549Y-38169D01*
X65603Y-38298D01*
X65701Y-38396D01*
X65830Y-38449D01*
X65969Y-38450D01*
X66098Y-38396D01*
X66196Y-38298D01*
X66249Y-38169D01*
X66250Y-38030D01*
X66250Y-39891D01*
X66075Y-39963D01*
X65864Y-40174D01*
X65750Y-40450D01*
X65749Y-40748D01*
X65863Y-41024D01*
X66074Y-41235D01*
X66350Y-41349D01*
X66648Y-41350D01*
X66924Y-41236D01*
X67135Y-41025D01*
X67249Y-40749D01*
X67250Y-40451D01*
X67250Y-40881D01*
X67220Y-40954D01*
X67219Y-41145D01*
X67292Y-41321D01*
X67427Y-41456D01*
X67604Y-41529D01*
X67795Y-41530D01*
X67971Y-41457D01*
X68106Y-41322D01*
X68179Y-41145D01*
X68180Y-40954D01*
X68180Y-44320D01*
X66200Y-44320D01*
X66200Y-41730D01*
X66146Y-41602D01*
X66048Y-41503D01*
X65919Y-41450D01*
X65780Y-41449D01*
X65652Y-41503D01*
X65600Y-41554D01*
X65600Y-38580D01*
X65546Y-38452D01*
X65448Y-38353D01*
X65319Y-38300D01*
X65180Y-38299D01*
X65052Y-38353D01*
X64953Y-38451D01*
X64900Y-38580D01*
X64899Y-38719D01*
X64953Y-38848D01*
X65051Y-38946D01*
X65180Y-38999D01*
X65319Y-39000D01*
X65448Y-38946D01*
X65546Y-38848D01*
X65599Y-38719D01*
X65600Y-38580D01*
X65600Y-41554D01*
X65553Y-41601D01*
X65500Y-41730D01*
X65499Y-41869D01*
X65553Y-41998D01*
X65651Y-42096D01*
X65780Y-42149D01*
X65919Y-42150D01*
X66048Y-42096D01*
X66146Y-41998D01*
X66199Y-41869D01*
X66200Y-41730D01*
X66200Y-44320D01*
X65475Y-44320D01*
X65475Y-42530D01*
X65421Y-42402D01*
X65323Y-42303D01*
X65194Y-42250D01*
X65190Y-42250D01*
X65190Y-41830D01*
X65136Y-41702D01*
X65038Y-41603D01*
X64909Y-41550D01*
X64770Y-41549D01*
X64642Y-41603D01*
X64543Y-41701D01*
X64540Y-41709D01*
X64540Y-40480D01*
X64486Y-40352D01*
X64388Y-40253D01*
X64259Y-40200D01*
X64120Y-40199D01*
X64050Y-40229D01*
X64050Y-38430D01*
X63996Y-38302D01*
X63898Y-38203D01*
X63769Y-38150D01*
X63630Y-38149D01*
X63502Y-38203D01*
X63403Y-38301D01*
X63350Y-38430D01*
X63349Y-38569D01*
X63403Y-38698D01*
X63501Y-38796D01*
X63630Y-38849D01*
X63769Y-38850D01*
X63898Y-38796D01*
X63996Y-38698D01*
X64049Y-38569D01*
X64050Y-38430D01*
X64050Y-40229D01*
X63992Y-40253D01*
X63947Y-40297D01*
X63879Y-40270D01*
X63740Y-40269D01*
X63612Y-40323D01*
X63513Y-40421D01*
X63460Y-40550D01*
X63459Y-40689D01*
X63513Y-40818D01*
X63611Y-40916D01*
X63740Y-40969D01*
X63879Y-40970D01*
X64008Y-40916D01*
X64052Y-40872D01*
X64120Y-40899D01*
X64259Y-40900D01*
X64388Y-40846D01*
X64486Y-40748D01*
X64539Y-40619D01*
X64540Y-40480D01*
X64540Y-41709D01*
X64490Y-41830D01*
X64489Y-41969D01*
X64543Y-42098D01*
X64641Y-42196D01*
X64770Y-42249D01*
X64909Y-42250D01*
X65038Y-42196D01*
X65136Y-42098D01*
X65189Y-41969D01*
X65190Y-41830D01*
X65190Y-42250D01*
X65055Y-42249D01*
X64927Y-42303D01*
X64828Y-42401D01*
X64775Y-42530D01*
X64774Y-42669D01*
X64828Y-42798D01*
X64880Y-42850D01*
X64775Y-42849D01*
X64775Y-42830D01*
X64721Y-42702D01*
X64623Y-42603D01*
X64494Y-42550D01*
X64355Y-42549D01*
X64227Y-42603D01*
X64128Y-42701D01*
X64075Y-42830D01*
X64074Y-42969D01*
X64128Y-43098D01*
X64226Y-43196D01*
X64355Y-43249D01*
X64474Y-43250D01*
X64474Y-43269D01*
X64528Y-43398D01*
X64626Y-43496D01*
X64755Y-43549D01*
X64894Y-43550D01*
X65023Y-43496D01*
X65121Y-43398D01*
X65174Y-43269D01*
X65175Y-43130D01*
X65121Y-43002D01*
X65069Y-42949D01*
X65194Y-42950D01*
X65323Y-42896D01*
X65421Y-42798D01*
X65474Y-42669D01*
X65475Y-42530D01*
X65475Y-44320D01*
X62900Y-44320D01*
X62900Y-39830D01*
X62846Y-39702D01*
X62748Y-39603D01*
X62619Y-39550D01*
X62480Y-39549D01*
X62352Y-39603D01*
X62253Y-39701D01*
X62200Y-39830D01*
X62199Y-39969D01*
X62253Y-40098D01*
X62351Y-40196D01*
X62480Y-40249D01*
X62619Y-40250D01*
X62748Y-40196D01*
X62846Y-40098D01*
X62899Y-39969D01*
X62900Y-39830D01*
X62900Y-44320D01*
X61950Y-44320D01*
X61950Y-38330D01*
X61896Y-38202D01*
X61798Y-38103D01*
X61669Y-38050D01*
X61530Y-38049D01*
X61402Y-38103D01*
X61303Y-38201D01*
X61250Y-38330D01*
X61249Y-38469D01*
X61303Y-38598D01*
X61401Y-38696D01*
X61530Y-38749D01*
X61669Y-38750D01*
X61798Y-38696D01*
X61896Y-38598D01*
X61949Y-38469D01*
X61950Y-38330D01*
X61950Y-44320D01*
X61150Y-44320D01*
X61150Y-41080D01*
X61096Y-40952D01*
X60998Y-40853D01*
X60869Y-40800D01*
X60730Y-40799D01*
X60602Y-40853D01*
X60503Y-40951D01*
X60450Y-41080D01*
X60449Y-41219D01*
X60503Y-41348D01*
X60601Y-41446D01*
X60730Y-41499D01*
X60869Y-41500D01*
X60998Y-41446D01*
X61096Y-41348D01*
X61149Y-41219D01*
X61150Y-41080D01*
X61150Y-44320D01*
X60875Y-44320D01*
X60875Y-43380D01*
X60875Y-42655D01*
X60821Y-42527D01*
X60723Y-42428D01*
X60594Y-42375D01*
X60455Y-42374D01*
X60327Y-42428D01*
X60228Y-42526D01*
X60175Y-42655D01*
X60174Y-42794D01*
X60228Y-42923D01*
X60326Y-43021D01*
X60455Y-43074D01*
X60594Y-43075D01*
X60723Y-43021D01*
X60821Y-42923D01*
X60874Y-42794D01*
X60875Y-42655D01*
X60875Y-43380D01*
X60821Y-43252D01*
X60723Y-43153D01*
X60594Y-43100D01*
X60455Y-43099D01*
X60327Y-43153D01*
X60228Y-43251D01*
X60175Y-43380D01*
X60174Y-43519D01*
X60228Y-43648D01*
X60326Y-43746D01*
X60455Y-43799D01*
X60594Y-43800D01*
X60723Y-43746D01*
X60821Y-43648D01*
X60874Y-43519D01*
X60875Y-43380D01*
X60875Y-44320D01*
X59282Y-44320D01*
X59282Y-41280D01*
X59215Y-40945D01*
X59025Y-40661D01*
X58741Y-40471D01*
X58407Y-40405D01*
X58372Y-40405D01*
X58038Y-40471D01*
X57754Y-40661D01*
X57564Y-40945D01*
X57497Y-41280D01*
X57564Y-41614D01*
X57754Y-41898D01*
X58038Y-42088D01*
X58372Y-42155D01*
X58407Y-42155D01*
X58741Y-42088D01*
X59025Y-41898D01*
X59215Y-41614D01*
X59282Y-41280D01*
X59282Y-44320D01*
X55800Y-44320D01*
X55800Y-38580D01*
X55746Y-38452D01*
X55648Y-38353D01*
X55519Y-38300D01*
X55380Y-38299D01*
X55252Y-38353D01*
X55153Y-38451D01*
X55100Y-38580D01*
X55099Y-38719D01*
X55153Y-38848D01*
X55251Y-38946D01*
X55380Y-38999D01*
X55519Y-39000D01*
X55648Y-38946D01*
X55746Y-38848D01*
X55799Y-38719D01*
X55800Y-38580D01*
X55800Y-44320D01*
X54850Y-44320D01*
X54850Y-38080D01*
X54796Y-37952D01*
X54698Y-37853D01*
X54569Y-37800D01*
X54430Y-37799D01*
X54302Y-37853D01*
X54203Y-37951D01*
X54150Y-38080D01*
X54149Y-38219D01*
X54203Y-38348D01*
X54301Y-38446D01*
X54430Y-38499D01*
X54569Y-38500D01*
X54698Y-38446D01*
X54796Y-38348D01*
X54849Y-38219D01*
X54850Y-38080D01*
X54850Y-44320D01*
X52900Y-44320D01*
X52900Y-38155D01*
X52846Y-38027D01*
X52748Y-37928D01*
X52619Y-37875D01*
X52480Y-37874D01*
X52352Y-37928D01*
X52253Y-38026D01*
X52200Y-38155D01*
X52199Y-38294D01*
X52253Y-38423D01*
X52351Y-38521D01*
X52480Y-38574D01*
X52619Y-38575D01*
X52748Y-38521D01*
X52846Y-38423D01*
X52899Y-38294D01*
X52900Y-38155D01*
X52900Y-44320D01*
X49125Y-44320D01*
X49125Y-38955D01*
X49071Y-38827D01*
X48973Y-38728D01*
X48844Y-38675D01*
X48705Y-38674D01*
X48577Y-38728D01*
X48478Y-38826D01*
X48425Y-38955D01*
X48424Y-39094D01*
X48478Y-39223D01*
X48576Y-39321D01*
X48705Y-39374D01*
X48844Y-39375D01*
X48973Y-39321D01*
X49071Y-39223D01*
X49124Y-39094D01*
X49125Y-38955D01*
X49125Y-44320D01*
X46550Y-44320D01*
X46550Y-39905D01*
X46496Y-39777D01*
X46398Y-39678D01*
X46269Y-39625D01*
X46130Y-39624D01*
X46002Y-39678D01*
X45903Y-39776D01*
X45850Y-39905D01*
X45849Y-40044D01*
X45903Y-40173D01*
X46001Y-40271D01*
X46130Y-40324D01*
X46269Y-40325D01*
X46398Y-40271D01*
X46496Y-40173D01*
X46549Y-40044D01*
X46550Y-39905D01*
X46550Y-44320D01*
X45200Y-44320D01*
X45200Y-39780D01*
X45146Y-39652D01*
X45048Y-39553D01*
X44919Y-39500D01*
X44780Y-39499D01*
X44652Y-39553D01*
X44553Y-39651D01*
X44500Y-39780D01*
X44499Y-39919D01*
X44553Y-40048D01*
X44651Y-40146D01*
X44780Y-40199D01*
X44919Y-40200D01*
X45048Y-40146D01*
X45146Y-40048D01*
X45199Y-39919D01*
X45200Y-39780D01*
X45200Y-44320D01*
X37057Y-44320D01*
X37058Y-44319D01*
X37482Y-43895D01*
X37520Y-43803D01*
X37520Y-43704D01*
X37482Y-43612D01*
X37467Y-43596D01*
X37662Y-43596D01*
X37864Y-43512D01*
X38019Y-43358D01*
X38103Y-43156D01*
X38103Y-42937D01*
X38020Y-42735D01*
X37865Y-42580D01*
X37663Y-42496D01*
X37444Y-42496D01*
X37242Y-42579D01*
X37087Y-42734D01*
X37003Y-42936D01*
X37003Y-43132D01*
X36988Y-43117D01*
X36896Y-43079D01*
X36796Y-43079D01*
X36705Y-43117D01*
X36650Y-43172D01*
X36650Y-37650D01*
X57809Y-37650D01*
X57802Y-37653D01*
X57703Y-37751D01*
X57650Y-37880D01*
X57649Y-38019D01*
X57703Y-38148D01*
X57801Y-38246D01*
X57930Y-38299D01*
X58069Y-38300D01*
X58198Y-38246D01*
X58296Y-38148D01*
X58349Y-38019D01*
X58350Y-37880D01*
X58296Y-37752D01*
X58198Y-37653D01*
X58190Y-37650D01*
X59097Y-37650D01*
X59119Y-37659D01*
X59129Y-37650D01*
X59270Y-37650D01*
X59190Y-37730D01*
X59241Y-37846D01*
X59520Y-37953D01*
X59818Y-37945D01*
X60058Y-37846D01*
X60109Y-37730D01*
X60029Y-37650D01*
X60170Y-37650D01*
X60180Y-37659D01*
X60202Y-37650D01*
X67289Y-37650D01*
X67374Y-37735D01*
X67650Y-37849D01*
X67948Y-37850D01*
X68224Y-37736D01*
X68310Y-37650D01*
X70805Y-37650D01*
X70901Y-37746D01*
X71030Y-37799D01*
X71169Y-37800D01*
X71298Y-37746D01*
X71395Y-37650D01*
X71571Y-37650D01*
X71570Y-37654D01*
X71569Y-37845D01*
X71642Y-38021D01*
X71777Y-38156D01*
X71954Y-38229D01*
X72145Y-38230D01*
X72321Y-38157D01*
X72456Y-38022D01*
X72529Y-37845D01*
X72530Y-37654D01*
X72528Y-37650D01*
X76021Y-37650D01*
X75943Y-37727D01*
X75870Y-37904D01*
X75869Y-38095D01*
X75942Y-38271D01*
X76077Y-38406D01*
X76254Y-38479D01*
X76445Y-38480D01*
X76621Y-38407D01*
X76658Y-38370D01*
X76700Y-38370D01*
X76841Y-38341D01*
X76961Y-38261D01*
X77573Y-37650D01*
X78099Y-37650D01*
X78099Y-37999D01*
X78137Y-38091D01*
X78208Y-38161D01*
X78300Y-38199D01*
X78322Y-38199D01*
X78184Y-38338D01*
X78100Y-38540D01*
X78099Y-38758D01*
X78183Y-38961D01*
X78338Y-39115D01*
X78419Y-39149D01*
X78338Y-39183D01*
X78184Y-39338D01*
X78100Y-39540D01*
X78099Y-39758D01*
X78183Y-39961D01*
X78338Y-40115D01*
X78540Y-40199D01*
X78758Y-40200D01*
X78961Y-40116D01*
X79115Y-39961D01*
X79149Y-39880D01*
X79183Y-39961D01*
X79338Y-40115D01*
X79540Y-40199D01*
X79758Y-40200D01*
X79961Y-40116D01*
X80115Y-39961D01*
X80199Y-39759D01*
X80199Y-39669D01*
X80263Y-39824D01*
X80474Y-40035D01*
X80750Y-40149D01*
X81048Y-40150D01*
X81324Y-40036D01*
X81535Y-39825D01*
X81649Y-39549D01*
X81650Y-39251D01*
X81536Y-38975D01*
X81325Y-38764D01*
X81049Y-38650D01*
X80751Y-38649D01*
X80475Y-38763D01*
X80264Y-38974D01*
X80150Y-39250D01*
X80149Y-39419D01*
X80116Y-39338D01*
X79961Y-39184D01*
X79880Y-39150D01*
X79961Y-39116D01*
X80115Y-38961D01*
X80199Y-38759D01*
X80200Y-38541D01*
X80116Y-38338D01*
X79961Y-38184D01*
X79880Y-38150D01*
X79961Y-38116D01*
X80115Y-37961D01*
X80199Y-37759D01*
X80199Y-37650D01*
X83230Y-37650D01*
X83102Y-37703D01*
X83003Y-37801D01*
X82950Y-37930D01*
X82949Y-38069D01*
X83003Y-38198D01*
X83101Y-38296D01*
X83230Y-38349D01*
X83369Y-38350D01*
X83498Y-38296D01*
X83596Y-38198D01*
X83649Y-38069D01*
X83650Y-37930D01*
X83596Y-37802D01*
X83498Y-37703D01*
X83369Y-37650D01*
X83300Y-37650D01*
X84422Y-37650D01*
X84254Y-37817D01*
X84156Y-38053D01*
X84156Y-38309D01*
X84253Y-38546D01*
X84434Y-38727D01*
X84671Y-38825D01*
X84927Y-38826D01*
X85164Y-38728D01*
X85345Y-38547D01*
X85443Y-38310D01*
X85443Y-38054D01*
X85346Y-37818D01*
X85178Y-37650D01*
X85750Y-37650D01*
X85750Y-44550D01*
X85750Y-44550D01*
G37*
G54D32*
X85750Y-44550D02*
X85443Y-44550D01*
X85443Y-43566D01*
X85443Y-42188D01*
X85443Y-40810D01*
X85443Y-39432D01*
X85346Y-39196D01*
X85165Y-39014D01*
X84928Y-38916D01*
X84672Y-38916D01*
X84435Y-39014D01*
X84254Y-39195D01*
X84156Y-39431D01*
X84156Y-39687D01*
X84253Y-39924D01*
X84434Y-40105D01*
X84671Y-40203D01*
X84927Y-40204D01*
X85164Y-40106D01*
X85345Y-39925D01*
X85443Y-39688D01*
X85443Y-39432D01*
X85443Y-40810D01*
X85346Y-40574D01*
X85165Y-40392D01*
X84928Y-40294D01*
X84672Y-40294D01*
X84435Y-40392D01*
X84254Y-40573D01*
X84156Y-40809D01*
X84156Y-41065D01*
X84253Y-41302D01*
X84434Y-41483D01*
X84671Y-41581D01*
X84927Y-41582D01*
X85164Y-41484D01*
X85345Y-41303D01*
X85443Y-41066D01*
X85443Y-40810D01*
X85443Y-42188D01*
X85346Y-41951D01*
X85165Y-41770D01*
X84928Y-41672D01*
X84672Y-41672D01*
X84435Y-41770D01*
X84254Y-41951D01*
X84156Y-42187D01*
X84156Y-42443D01*
X84253Y-42680D01*
X84434Y-42861D01*
X84671Y-42959D01*
X84927Y-42959D01*
X85164Y-42862D01*
X85345Y-42681D01*
X85443Y-42444D01*
X85443Y-42188D01*
X85443Y-43566D01*
X85346Y-43329D01*
X85165Y-43148D01*
X84928Y-43050D01*
X84672Y-43050D01*
X84435Y-43148D01*
X84254Y-43328D01*
X84156Y-43565D01*
X84156Y-43821D01*
X84253Y-44058D01*
X84434Y-44239D01*
X84671Y-44337D01*
X84927Y-44337D01*
X85164Y-44240D01*
X85345Y-44059D01*
X85443Y-43822D01*
X85443Y-43566D01*
X85443Y-44550D01*
X85188Y-44550D01*
X85165Y-44526D01*
X84928Y-44428D01*
X84672Y-44428D01*
X84435Y-44526D01*
X84411Y-44550D01*
X82400Y-44550D01*
X82400Y-39930D01*
X82346Y-39802D01*
X82248Y-39703D01*
X82119Y-39650D01*
X81980Y-39649D01*
X81852Y-39703D01*
X81753Y-39801D01*
X81700Y-39930D01*
X81699Y-40069D01*
X81753Y-40198D01*
X81851Y-40296D01*
X81980Y-40349D01*
X82119Y-40350D01*
X82248Y-40296D01*
X82346Y-40198D01*
X82399Y-40069D01*
X82400Y-39930D01*
X82400Y-44550D01*
X76200Y-44550D01*
X76200Y-40330D01*
X76146Y-40202D01*
X76048Y-40103D01*
X75919Y-40050D01*
X75780Y-40049D01*
X75652Y-40103D01*
X75553Y-40201D01*
X75500Y-40330D01*
X75499Y-40469D01*
X75553Y-40598D01*
X75651Y-40696D01*
X75780Y-40749D01*
X75919Y-40750D01*
X76048Y-40696D01*
X76146Y-40598D01*
X76199Y-40469D01*
X76200Y-40330D01*
X76200Y-44550D01*
X75350Y-44550D01*
X75350Y-39430D01*
X75296Y-39302D01*
X75290Y-39295D01*
X75290Y-38130D01*
X75236Y-38002D01*
X75138Y-37903D01*
X75009Y-37850D01*
X74870Y-37849D01*
X74742Y-37903D01*
X74643Y-38001D01*
X74590Y-38130D01*
X74589Y-38269D01*
X74643Y-38398D01*
X74741Y-38496D01*
X74870Y-38549D01*
X75009Y-38550D01*
X75138Y-38496D01*
X75236Y-38398D01*
X75289Y-38269D01*
X75290Y-38130D01*
X75290Y-39295D01*
X75198Y-39203D01*
X75069Y-39150D01*
X74930Y-39149D01*
X74802Y-39203D01*
X74800Y-39205D01*
X74800Y-38680D01*
X74746Y-38552D01*
X74648Y-38453D01*
X74519Y-38400D01*
X74380Y-38399D01*
X74252Y-38453D01*
X74153Y-38551D01*
X74100Y-38680D01*
X74099Y-38819D01*
X74153Y-38948D01*
X74251Y-39046D01*
X74380Y-39099D01*
X74519Y-39100D01*
X74648Y-39046D01*
X74746Y-38948D01*
X74799Y-38819D01*
X74800Y-38680D01*
X74800Y-39205D01*
X74703Y-39301D01*
X74650Y-39430D01*
X74649Y-39569D01*
X74703Y-39698D01*
X74801Y-39796D01*
X74930Y-39849D01*
X75069Y-39850D01*
X75198Y-39796D01*
X75296Y-39698D01*
X75349Y-39569D01*
X75350Y-39430D01*
X75350Y-44550D01*
X74428Y-44550D01*
X74357Y-44378D01*
X74222Y-44243D01*
X74196Y-44232D01*
X74256Y-44172D01*
X74329Y-43995D01*
X74330Y-43804D01*
X74257Y-43628D01*
X74122Y-43493D01*
X73945Y-43420D01*
X73754Y-43419D01*
X73578Y-43492D01*
X73443Y-43627D01*
X73370Y-43804D01*
X73369Y-43995D01*
X73442Y-44171D01*
X73577Y-44306D01*
X73603Y-44317D01*
X73601Y-44320D01*
X72550Y-44320D01*
X72550Y-38680D01*
X72496Y-38552D01*
X72398Y-38453D01*
X72269Y-38400D01*
X72130Y-38399D01*
X72002Y-38453D01*
X71903Y-38551D01*
X71850Y-38680D01*
X71849Y-38819D01*
X71903Y-38948D01*
X72001Y-39046D01*
X72130Y-39099D01*
X72269Y-39100D01*
X72398Y-39046D01*
X72496Y-38948D01*
X72549Y-38819D01*
X72550Y-38680D01*
X72550Y-44320D01*
X71950Y-44320D01*
X71950Y-39330D01*
X71896Y-39202D01*
X71800Y-39105D01*
X71800Y-38380D01*
X71746Y-38252D01*
X71648Y-38153D01*
X71519Y-38100D01*
X71380Y-38099D01*
X71252Y-38153D01*
X71153Y-38251D01*
X71100Y-38380D01*
X71099Y-38519D01*
X71153Y-38648D01*
X71251Y-38746D01*
X71380Y-38799D01*
X71519Y-38800D01*
X71648Y-38746D01*
X71746Y-38648D01*
X71799Y-38519D01*
X71800Y-38380D01*
X71800Y-39105D01*
X71798Y-39103D01*
X71669Y-39050D01*
X71530Y-39049D01*
X71402Y-39103D01*
X71303Y-39201D01*
X71250Y-39330D01*
X71249Y-39469D01*
X71303Y-39598D01*
X71401Y-39696D01*
X71530Y-39749D01*
X71669Y-39750D01*
X71798Y-39696D01*
X71896Y-39598D01*
X71949Y-39469D01*
X71950Y-39330D01*
X71950Y-44320D01*
X71150Y-44320D01*
X71150Y-41030D01*
X71096Y-40902D01*
X70998Y-40803D01*
X70869Y-40750D01*
X70730Y-40749D01*
X70602Y-40803D01*
X70503Y-40901D01*
X70450Y-41030D01*
X70449Y-41169D01*
X70503Y-41298D01*
X70601Y-41396D01*
X70730Y-41449D01*
X70869Y-41450D01*
X70998Y-41396D01*
X71096Y-41298D01*
X71149Y-41169D01*
X71150Y-41030D01*
X71150Y-44320D01*
X68275Y-44320D01*
X68275Y-39955D01*
X68221Y-39827D01*
X68123Y-39728D01*
X67994Y-39675D01*
X67855Y-39674D01*
X67727Y-39728D01*
X67628Y-39826D01*
X67575Y-39955D01*
X67574Y-40094D01*
X67628Y-40223D01*
X67726Y-40321D01*
X67855Y-40374D01*
X67994Y-40375D01*
X68123Y-40321D01*
X68221Y-40223D01*
X68274Y-40094D01*
X68275Y-39955D01*
X68275Y-44320D01*
X68180Y-44320D01*
X68180Y-40954D01*
X68107Y-40778D01*
X67972Y-40643D01*
X67795Y-40570D01*
X67604Y-40569D01*
X67428Y-40642D01*
X67293Y-40777D01*
X67250Y-40881D01*
X67250Y-40451D01*
X67136Y-40175D01*
X66925Y-39964D01*
X66649Y-39850D01*
X66351Y-39849D01*
X66250Y-39891D01*
X66250Y-38030D01*
X66196Y-37902D01*
X66098Y-37803D01*
X65969Y-37750D01*
X65830Y-37749D01*
X65702Y-37803D01*
X65603Y-37901D01*
X65550Y-38030D01*
X65549Y-38169D01*
X65603Y-38298D01*
X65701Y-38396D01*
X65830Y-38449D01*
X65969Y-38450D01*
X66098Y-38396D01*
X66196Y-38298D01*
X66249Y-38169D01*
X66250Y-38030D01*
X66250Y-39891D01*
X66075Y-39963D01*
X65864Y-40174D01*
X65750Y-40450D01*
X65749Y-40748D01*
X65863Y-41024D01*
X66074Y-41235D01*
X66350Y-41349D01*
X66648Y-41350D01*
X66924Y-41236D01*
X67135Y-41025D01*
X67249Y-40749D01*
X67250Y-40451D01*
X67250Y-40881D01*
X67220Y-40954D01*
X67219Y-41145D01*
X67292Y-41321D01*
X67427Y-41456D01*
X67604Y-41529D01*
X67795Y-41530D01*
X67971Y-41457D01*
X68106Y-41322D01*
X68179Y-41145D01*
X68180Y-40954D01*
X68180Y-44320D01*
X66200Y-44320D01*
X66200Y-41730D01*
X66146Y-41602D01*
X66048Y-41503D01*
X65919Y-41450D01*
X65780Y-41449D01*
X65652Y-41503D01*
X65600Y-41554D01*
X65600Y-38580D01*
X65546Y-38452D01*
X65448Y-38353D01*
X65319Y-38300D01*
X65180Y-38299D01*
X65052Y-38353D01*
X64953Y-38451D01*
X64900Y-38580D01*
X64899Y-38719D01*
X64953Y-38848D01*
X65051Y-38946D01*
X65180Y-38999D01*
X65319Y-39000D01*
X65448Y-38946D01*
X65546Y-38848D01*
X65599Y-38719D01*
X65600Y-38580D01*
X65600Y-41554D01*
X65553Y-41601D01*
X65500Y-41730D01*
X65499Y-41869D01*
X65553Y-41998D01*
X65651Y-42096D01*
X65780Y-42149D01*
X65919Y-42150D01*
X66048Y-42096D01*
X66146Y-41998D01*
X66199Y-41869D01*
X66200Y-41730D01*
X66200Y-44320D01*
X65475Y-44320D01*
X65475Y-42530D01*
X65421Y-42402D01*
X65323Y-42303D01*
X65194Y-42250D01*
X65190Y-42250D01*
X65190Y-41830D01*
X65136Y-41702D01*
X65038Y-41603D01*
X64909Y-41550D01*
X64770Y-41549D01*
X64642Y-41603D01*
X64543Y-41701D01*
X64540Y-41709D01*
X64540Y-40480D01*
X64486Y-40352D01*
X64388Y-40253D01*
X64259Y-40200D01*
X64120Y-40199D01*
X64050Y-40229D01*
X64050Y-38430D01*
X63996Y-38302D01*
X63898Y-38203D01*
X63769Y-38150D01*
X63630Y-38149D01*
X63502Y-38203D01*
X63403Y-38301D01*
X63350Y-38430D01*
X63349Y-38569D01*
X63403Y-38698D01*
X63501Y-38796D01*
X63630Y-38849D01*
X63769Y-38850D01*
X63898Y-38796D01*
X63996Y-38698D01*
X64049Y-38569D01*
X64050Y-38430D01*
X64050Y-40229D01*
X63992Y-40253D01*
X63947Y-40297D01*
X63879Y-40270D01*
X63740Y-40269D01*
X63612Y-40323D01*
X63513Y-40421D01*
X63460Y-40550D01*
X63459Y-40689D01*
X63513Y-40818D01*
X63611Y-40916D01*
X63740Y-40969D01*
X63879Y-40970D01*
X64008Y-40916D01*
X64052Y-40872D01*
X64120Y-40899D01*
X64259Y-40900D01*
X64388Y-40846D01*
X64486Y-40748D01*
X64539Y-40619D01*
X64540Y-40480D01*
X64540Y-41709D01*
X64490Y-41830D01*
X64489Y-41969D01*
X64543Y-42098D01*
X64641Y-42196D01*
X64770Y-42249D01*
X64909Y-42250D01*
X65038Y-42196D01*
X65136Y-42098D01*
X65189Y-41969D01*
X65190Y-41830D01*
X65190Y-42250D01*
X65055Y-42249D01*
X64927Y-42303D01*
X64828Y-42401D01*
X64775Y-42530D01*
X64774Y-42669D01*
X64828Y-42798D01*
X64880Y-42850D01*
X64775Y-42849D01*
X64775Y-42830D01*
X64721Y-42702D01*
X64623Y-42603D01*
X64494Y-42550D01*
X64355Y-42549D01*
X64227Y-42603D01*
X64128Y-42701D01*
X64075Y-42830D01*
X64074Y-42969D01*
X64128Y-43098D01*
X64226Y-43196D01*
X64355Y-43249D01*
X64474Y-43250D01*
X64474Y-43269D01*
X64528Y-43398D01*
X64626Y-43496D01*
X64755Y-43549D01*
X64894Y-43550D01*
X65023Y-43496D01*
X65121Y-43398D01*
X65174Y-43269D01*
X65175Y-43130D01*
X65121Y-43002D01*
X65069Y-42949D01*
X65194Y-42950D01*
X65323Y-42896D01*
X65421Y-42798D01*
X65474Y-42669D01*
X65475Y-42530D01*
X65475Y-44320D01*
X62900Y-44320D01*
X62900Y-39830D01*
X62846Y-39702D01*
X62748Y-39603D01*
X62619Y-39550D01*
X62480Y-39549D01*
X62352Y-39603D01*
X62253Y-39701D01*
X62200Y-39830D01*
X62199Y-39969D01*
X62253Y-40098D01*
X62351Y-40196D01*
X62480Y-40249D01*
X62619Y-40250D01*
X62748Y-40196D01*
X62846Y-40098D01*
X62899Y-39969D01*
X62900Y-39830D01*
X62900Y-44320D01*
X61950Y-44320D01*
X61950Y-38330D01*
X61896Y-38202D01*
X61798Y-38103D01*
X61669Y-38050D01*
X61530Y-38049D01*
X61402Y-38103D01*
X61303Y-38201D01*
X61250Y-38330D01*
X61249Y-38469D01*
X61303Y-38598D01*
X61401Y-38696D01*
X61530Y-38749D01*
X61669Y-38750D01*
X61798Y-38696D01*
X61896Y-38598D01*
X61949Y-38469D01*
X61950Y-38330D01*
X61950Y-44320D01*
X61150Y-44320D01*
X61150Y-41080D01*
X61096Y-40952D01*
X60998Y-40853D01*
X60869Y-40800D01*
X60730Y-40799D01*
X60602Y-40853D01*
X60503Y-40951D01*
X60450Y-41080D01*
X60449Y-41219D01*
X60503Y-41348D01*
X60601Y-41446D01*
X60730Y-41499D01*
X60869Y-41500D01*
X60998Y-41446D01*
X61096Y-41348D01*
X61149Y-41219D01*
X61150Y-41080D01*
X61150Y-44320D01*
X60875Y-44320D01*
X60875Y-43380D01*
X60875Y-42655D01*
X60821Y-42527D01*
X60723Y-42428D01*
X60594Y-42375D01*
X60455Y-42374D01*
X60327Y-42428D01*
X60228Y-42526D01*
X60175Y-42655D01*
X60174Y-42794D01*
X60228Y-42923D01*
X60326Y-43021D01*
X60455Y-43074D01*
X60594Y-43075D01*
X60723Y-43021D01*
X60821Y-42923D01*
X60874Y-42794D01*
X60875Y-42655D01*
X60875Y-43380D01*
X60821Y-43252D01*
X60723Y-43153D01*
X60594Y-43100D01*
X60455Y-43099D01*
X60327Y-43153D01*
X60228Y-43251D01*
X60175Y-43380D01*
X60174Y-43519D01*
X60228Y-43648D01*
X60326Y-43746D01*
X60455Y-43799D01*
X60594Y-43800D01*
X60723Y-43746D01*
X60821Y-43648D01*
X60874Y-43519D01*
X60875Y-43380D01*
X60875Y-44320D01*
X59282Y-44320D01*
X59282Y-41280D01*
X59215Y-40945D01*
X59025Y-40661D01*
X58741Y-40471D01*
X58407Y-40405D01*
X58372Y-40405D01*
X58038Y-40471D01*
X57754Y-40661D01*
X57564Y-40945D01*
X57497Y-41280D01*
X57564Y-41614D01*
X57754Y-41898D01*
X58038Y-42088D01*
X58372Y-42155D01*
X58407Y-42155D01*
X58741Y-42088D01*
X59025Y-41898D01*
X59215Y-41614D01*
X59282Y-41280D01*
X59282Y-44320D01*
X55800Y-44320D01*
X55800Y-38580D01*
X55746Y-38452D01*
X55648Y-38353D01*
X55519Y-38300D01*
X55380Y-38299D01*
X55252Y-38353D01*
X55153Y-38451D01*
X55100Y-38580D01*
X55099Y-38719D01*
X55153Y-38848D01*
X55251Y-38946D01*
X55380Y-38999D01*
X55519Y-39000D01*
X55648Y-38946D01*
X55746Y-38848D01*
X55799Y-38719D01*
X55800Y-38580D01*
X55800Y-44320D01*
X54850Y-44320D01*
X54850Y-38080D01*
X54796Y-37952D01*
X54698Y-37853D01*
X54569Y-37800D01*
X54430Y-37799D01*
X54302Y-37853D01*
X54203Y-37951D01*
X54150Y-38080D01*
X54149Y-38219D01*
X54203Y-38348D01*
X54301Y-38446D01*
X54430Y-38499D01*
X54569Y-38500D01*
X54698Y-38446D01*
X54796Y-38348D01*
X54849Y-38219D01*
X54850Y-38080D01*
X54850Y-44320D01*
X52900Y-44320D01*
X52900Y-38155D01*
X52846Y-38027D01*
X52748Y-37928D01*
X52619Y-37875D01*
X52480Y-37874D01*
X52352Y-37928D01*
X52253Y-38026D01*
X52200Y-38155D01*
X52199Y-38294D01*
X52253Y-38423D01*
X52351Y-38521D01*
X52480Y-38574D01*
X52619Y-38575D01*
X52748Y-38521D01*
X52846Y-38423D01*
X52899Y-38294D01*
X52900Y-38155D01*
X52900Y-44320D01*
X49125Y-44320D01*
X49125Y-38955D01*
X49071Y-38827D01*
X48973Y-38728D01*
X48844Y-38675D01*
X48705Y-38674D01*
X48577Y-38728D01*
X48478Y-38826D01*
X48425Y-38955D01*
X48424Y-39094D01*
X48478Y-39223D01*
X48576Y-39321D01*
X48705Y-39374D01*
X48844Y-39375D01*
X48973Y-39321D01*
X49071Y-39223D01*
X49124Y-39094D01*
X49125Y-38955D01*
X49125Y-44320D01*
X46550Y-44320D01*
X46550Y-39905D01*
X46496Y-39777D01*
X46398Y-39678D01*
X46269Y-39625D01*
X46130Y-39624D01*
X46002Y-39678D01*
X45903Y-39776D01*
X45850Y-39905D01*
X45849Y-40044D01*
X45903Y-40173D01*
X46001Y-40271D01*
X46130Y-40324D01*
X46269Y-40325D01*
X46398Y-40271D01*
X46496Y-40173D01*
X46549Y-40044D01*
X46550Y-39905D01*
X46550Y-44320D01*
X45200Y-44320D01*
X45200Y-39780D01*
X45146Y-39652D01*
X45048Y-39553D01*
X44919Y-39500D01*
X44780Y-39499D01*
X44652Y-39553D01*
X44553Y-39651D01*
X44500Y-39780D01*
X44499Y-39919D01*
X44553Y-40048D01*
X44651Y-40146D01*
X44780Y-40199D01*
X44919Y-40200D01*
X45048Y-40146D01*
X45146Y-40048D01*
X45199Y-39919D01*
X45200Y-39780D01*
X45200Y-44320D01*
X37057Y-44320D01*
X37058Y-44319D01*
X37482Y-43895D01*
X37520Y-43803D01*
X37520Y-43704D01*
X37482Y-43612D01*
X37467Y-43596D01*
X37662Y-43596D01*
X37864Y-43512D01*
X38019Y-43358D01*
X38103Y-43156D01*
X38103Y-42937D01*
X38020Y-42735D01*
X37865Y-42580D01*
X37663Y-42496D01*
X37444Y-42496D01*
X37242Y-42579D01*
X37087Y-42734D01*
X37003Y-42936D01*
X37003Y-43132D01*
X36988Y-43117D01*
X36896Y-43079D01*
X36796Y-43079D01*
X36705Y-43117D01*
X36650Y-43172D01*
X36650Y-37650D01*
X57809Y-37650D01*
X57802Y-37653D01*
X57703Y-37751D01*
X57650Y-37880D01*
X57649Y-38019D01*
X57703Y-38148D01*
X57801Y-38246D01*
X57930Y-38299D01*
X58069Y-38300D01*
X58198Y-38246D01*
X58296Y-38148D01*
X58349Y-38019D01*
X58350Y-37880D01*
X58296Y-37752D01*
X58198Y-37653D01*
X58190Y-37650D01*
X59097Y-37650D01*
X59119Y-37659D01*
X59129Y-37650D01*
X59270Y-37650D01*
X59190Y-37730D01*
X59241Y-37846D01*
X59520Y-37953D01*
X59818Y-37945D01*
X60058Y-37846D01*
X60109Y-37730D01*
X60029Y-37650D01*
X60170Y-37650D01*
X60180Y-37659D01*
X60202Y-37650D01*
X67289Y-37650D01*
X67374Y-37735D01*
X67650Y-37849D01*
X67948Y-37850D01*
X68224Y-37736D01*
X68310Y-37650D01*
X70805Y-37650D01*
X70901Y-37746D01*
X71030Y-37799D01*
X71169Y-37800D01*
X71298Y-37746D01*
X71395Y-37650D01*
X71571Y-37650D01*
X71570Y-37654D01*
X71569Y-37845D01*
X71642Y-38021D01*
X71777Y-38156D01*
X71954Y-38229D01*
X72145Y-38230D01*
X72321Y-38157D01*
X72456Y-38022D01*
X72529Y-37845D01*
X72530Y-37654D01*
X72528Y-37650D01*
X76021Y-37650D01*
X75943Y-37727D01*
X75870Y-37904D01*
X75869Y-38095D01*
X75942Y-38271D01*
X76077Y-38406D01*
X76254Y-38479D01*
X76445Y-38480D01*
X76621Y-38407D01*
X76658Y-38370D01*
X76700Y-38370D01*
X76841Y-38341D01*
X76961Y-38261D01*
X77573Y-37650D01*
X78099Y-37650D01*
X78099Y-37999D01*
X78137Y-38091D01*
X78208Y-38161D01*
X78300Y-38199D01*
X78322Y-38199D01*
X78184Y-38338D01*
X78100Y-38540D01*
X78099Y-38758D01*
X78183Y-38961D01*
X78338Y-39115D01*
X78419Y-39149D01*
X78338Y-39183D01*
X78184Y-39338D01*
X78100Y-39540D01*
X78099Y-39758D01*
X78183Y-39961D01*
X78338Y-40115D01*
X78540Y-40199D01*
X78758Y-40200D01*
X78961Y-40116D01*
X79115Y-39961D01*
X79149Y-39880D01*
X79183Y-39961D01*
X79338Y-40115D01*
X79540Y-40199D01*
X79758Y-40200D01*
X79961Y-40116D01*
X80115Y-39961D01*
X80199Y-39759D01*
X80199Y-39669D01*
X80263Y-39824D01*
X80474Y-40035D01*
X80750Y-40149D01*
X81048Y-40150D01*
X81324Y-40036D01*
X81535Y-39825D01*
X81649Y-39549D01*
X81650Y-39251D01*
X81536Y-38975D01*
X81325Y-38764D01*
X81049Y-38650D01*
X80751Y-38649D01*
X80475Y-38763D01*
X80264Y-38974D01*
X80150Y-39250D01*
X80149Y-39419D01*
X80116Y-39338D01*
X79961Y-39184D01*
X79880Y-39150D01*
X79961Y-39116D01*
X80115Y-38961D01*
X80199Y-38759D01*
X80200Y-38541D01*
X80116Y-38338D01*
X79961Y-38184D01*
X79880Y-38150D01*
X79961Y-38116D01*
X80115Y-37961D01*
X80199Y-37759D01*
X80199Y-37650D01*
X83230Y-37650D01*
X83102Y-37703D01*
X83003Y-37801D01*
X82950Y-37930D01*
X82949Y-38069D01*
X83003Y-38198D01*
X83101Y-38296D01*
X83230Y-38349D01*
X83369Y-38350D01*
X83498Y-38296D01*
X83596Y-38198D01*
X83649Y-38069D01*
X83650Y-37930D01*
X83596Y-37802D01*
X83498Y-37703D01*
X83369Y-37650D01*
X83300Y-37650D01*
X84422Y-37650D01*
X84254Y-37817D01*
X84156Y-38053D01*
X84156Y-38309D01*
X84253Y-38546D01*
X84434Y-38727D01*
X84671Y-38825D01*
X84927Y-38826D01*
X85164Y-38728D01*
X85345Y-38547D01*
X85443Y-38310D01*
X85443Y-38054D01*
X85346Y-37818D01*
X85178Y-37650D01*
X85750Y-37650D01*
X85750Y-44550D01*
M02*
