G04 (created by PCBNEW (2013-03-19 BZR 4004)-stable) date 11/24/2013 9:32:50 PM*
%MOIN*%
G04 Gerber Fmt 3.4, Leading zero omitted, Abs format*
%FSLAX34Y34*%
G01*
G70*
G90*
G04 APERTURE LIST*
%ADD10C,0.006*%
%ADD11R,0.036X0.036*%
%ADD12R,0.035X0.055*%
%ADD13R,0.012X0.02*%
%ADD14R,0.06X0.08*%
%ADD15R,0.055X0.035*%
%ADD16R,0.06X0.06*%
%ADD17C,0.06*%
%ADD18R,0.0787402X0.0787402*%
%ADD19C,0.0787402*%
%ADD20C,0.11811*%
%ADD21R,0.15X0.055*%
%ADD22R,0.055X0.15*%
%ADD23R,0.11X0.07*%
%ADD24C,0.0590551*%
%ADD25C,0.0551181*%
%ADD26O,0.0866142X0.110236*%
%ADD27C,0.0629921*%
%ADD28C,0.075*%
%ADD29C,0.07*%
%ADD30R,0.07X0.07*%
%ADD31C,0.0984252*%
%ADD32C,0.16*%
%ADD33R,0.1X0.2*%
%ADD34O,0.06X0.1*%
%ADD35O,0.125X0.125*%
%ADD36R,0.1X0.05*%
%ADD37R,0.05X0.1*%
G04 APERTURE END LIST*
G54D10*
G54D11*
X73400Y-53650D03*
X73400Y-54350D03*
X74200Y-54000D03*
G54D12*
X62325Y-54200D03*
X63075Y-54200D03*
X71300Y-49625D03*
X70550Y-49625D03*
X70625Y-54300D03*
X71375Y-54300D03*
G54D13*
X82700Y-39650D03*
X82200Y-39650D03*
X82700Y-38850D03*
X82450Y-39650D03*
X82200Y-38850D03*
G54D14*
X70750Y-38300D03*
X69450Y-38300D03*
X66600Y-38350D03*
X67900Y-38350D03*
X69400Y-39450D03*
X70700Y-39450D03*
X73350Y-40950D03*
X74650Y-40950D03*
G54D12*
X77775Y-40250D03*
X77025Y-40250D03*
X66875Y-39350D03*
X66125Y-39350D03*
X63975Y-39350D03*
X63225Y-39350D03*
G54D15*
X76350Y-39325D03*
X76350Y-38575D03*
X73950Y-37075D03*
X73950Y-37825D03*
G54D12*
X82075Y-38000D03*
X82825Y-38000D03*
X77875Y-39150D03*
X77125Y-39150D03*
X76225Y-41100D03*
X75475Y-41100D03*
X77825Y-38150D03*
X77075Y-38150D03*
X69475Y-41300D03*
X70225Y-41300D03*
X66325Y-37350D03*
X65575Y-37350D03*
G54D16*
X78650Y-37650D03*
G54D17*
X79650Y-37650D03*
X78650Y-38650D03*
X79650Y-38650D03*
X78650Y-39650D03*
X79650Y-39650D03*
G54D18*
X84700Y-53350D03*
G54D19*
X84700Y-51381D03*
X84700Y-49412D03*
G54D18*
X84800Y-46450D03*
G54D19*
X84800Y-45072D03*
X84800Y-43694D03*
X84800Y-42316D03*
X84800Y-40938D03*
X84800Y-39560D03*
X84800Y-38182D03*
X84800Y-36804D03*
X84800Y-35426D03*
X84800Y-34048D03*
X84800Y-32670D03*
X84800Y-31292D03*
G54D20*
X23100Y-33700D03*
X23100Y-51888D03*
X25974Y-51888D03*
X25974Y-50235D03*
X25974Y-48581D03*
X25974Y-46928D03*
X25974Y-45274D03*
X25974Y-43621D03*
X25974Y-41967D03*
X25974Y-40314D03*
X25974Y-38660D03*
X25974Y-37007D03*
X25974Y-35353D03*
X25974Y-33700D03*
X28139Y-51888D03*
X28139Y-50235D03*
X28139Y-48581D03*
X28139Y-46928D03*
X28139Y-45274D03*
X28139Y-43621D03*
X28139Y-41967D03*
X28139Y-40314D03*
X28139Y-38660D03*
X28139Y-37007D03*
X28139Y-35353D03*
X28139Y-33700D03*
G54D12*
X50150Y-47850D03*
X49400Y-47850D03*
G54D11*
X71900Y-36850D03*
X71200Y-36850D03*
X71550Y-37650D03*
G54D21*
X83100Y-45150D03*
X83100Y-43350D03*
G54D15*
X74850Y-44625D03*
X74850Y-43875D03*
X62675Y-43400D03*
X62675Y-42650D03*
G54D22*
X26050Y-31850D03*
X27850Y-31850D03*
G54D21*
X33650Y-49750D03*
X33650Y-47950D03*
G54D22*
X29900Y-52600D03*
X31700Y-52600D03*
G54D21*
X30550Y-44225D03*
X30550Y-42425D03*
G54D23*
X33100Y-45100D03*
X33100Y-43700D03*
G54D24*
X39240Y-31190D03*
X36011Y-31190D03*
G54D25*
X38413Y-31190D03*
X37625Y-31190D03*
X36838Y-31190D03*
G54D15*
X70100Y-35225D03*
X70100Y-35975D03*
X69300Y-35225D03*
X69300Y-35975D03*
X62100Y-35025D03*
X62100Y-35775D03*
X61300Y-35025D03*
X61300Y-35775D03*
X81900Y-34025D03*
X81900Y-34775D03*
X72900Y-34625D03*
X72900Y-35375D03*
G54D12*
X78325Y-33700D03*
X79075Y-33700D03*
X76475Y-33700D03*
X77225Y-33700D03*
G54D15*
X68500Y-35225D03*
X68500Y-35975D03*
X62900Y-35025D03*
X62900Y-35775D03*
G54D12*
X74875Y-35900D03*
X74125Y-35900D03*
X79825Y-33700D03*
X80575Y-33700D03*
G54D15*
X77450Y-35525D03*
X77450Y-36275D03*
G54D12*
X41325Y-32975D03*
X40575Y-32975D03*
X39425Y-32975D03*
X38675Y-32975D03*
X38675Y-32200D03*
X39425Y-32200D03*
X40550Y-32175D03*
X41300Y-32175D03*
G54D26*
X53529Y-32616D03*
X49670Y-32616D03*
G54D27*
X51600Y-31750D03*
X52584Y-31750D03*
X50615Y-31750D03*
G54D26*
X46879Y-32566D03*
X43020Y-32566D03*
G54D27*
X44950Y-31700D03*
X45934Y-31700D03*
X43965Y-31700D03*
G54D11*
X76500Y-36550D03*
X76500Y-35850D03*
X75700Y-36200D03*
X68300Y-32350D03*
X68300Y-33050D03*
X69100Y-32700D03*
X70850Y-32200D03*
X70150Y-32200D03*
X70500Y-33000D03*
X73600Y-33950D03*
X73600Y-33250D03*
X72800Y-33600D03*
X79450Y-35750D03*
X78750Y-35750D03*
X79100Y-36550D03*
X81100Y-35750D03*
X80400Y-35750D03*
X80750Y-36550D03*
X61100Y-33050D03*
X61100Y-32350D03*
X60300Y-32700D03*
X62600Y-32350D03*
X62600Y-33050D03*
X63400Y-32700D03*
G54D15*
X60700Y-47125D03*
X60700Y-47875D03*
G54D12*
X84825Y-47450D03*
X84075Y-47450D03*
G54D15*
X64900Y-46325D03*
X64900Y-47075D03*
G54D28*
X75360Y-51660D03*
X76160Y-49300D03*
X80960Y-49300D03*
X80960Y-54020D03*
X76160Y-54020D03*
G54D29*
X68265Y-33863D03*
X69265Y-33863D03*
G54D30*
X70265Y-33863D03*
G54D29*
X76000Y-34842D03*
X75000Y-34842D03*
G54D30*
X74000Y-34842D03*
G54D29*
X80921Y-34842D03*
X79921Y-34842D03*
G54D30*
X78921Y-34842D03*
G54D29*
X61155Y-34003D03*
X62155Y-34003D03*
G54D30*
X63155Y-34003D03*
G54D20*
X23200Y-31400D03*
X23100Y-54100D03*
X81900Y-31550D03*
G54D31*
X62195Y-31343D03*
X69155Y-31233D03*
G54D32*
X35300Y-44750D03*
G54D16*
X35300Y-47500D03*
G54D17*
X35300Y-48500D03*
G54D33*
X35300Y-48000D03*
G54D10*
G36*
X36822Y-45846D02*
X37246Y-45422D01*
X37670Y-45846D01*
X37246Y-46270D01*
X36822Y-45846D01*
X36822Y-45846D01*
G37*
G54D17*
X37953Y-46553D03*
G54D10*
G36*
X36539Y-45846D02*
X37246Y-45139D01*
X38660Y-46553D01*
X37953Y-47260D01*
X36539Y-45846D01*
X36539Y-45846D01*
G37*
G54D16*
X35200Y-42700D03*
G54D17*
X35200Y-41700D03*
G54D33*
X35200Y-42200D03*
G54D10*
G36*
X36846Y-44177D02*
X36422Y-43753D01*
X36846Y-43329D01*
X37270Y-43753D01*
X36846Y-44177D01*
X36846Y-44177D01*
G37*
G54D17*
X37553Y-43046D03*
G54D10*
G36*
X36846Y-44460D02*
X36139Y-43753D01*
X37553Y-42339D01*
X38260Y-43046D01*
X36846Y-44460D01*
X36846Y-44460D01*
G37*
G54D12*
X65425Y-39350D03*
X64675Y-39350D03*
G54D34*
X48790Y-35280D03*
X47790Y-35280D03*
X46790Y-35280D03*
X45790Y-35280D03*
X44790Y-35280D03*
X43790Y-35280D03*
X42790Y-35280D03*
X41790Y-35280D03*
X46390Y-54280D03*
X45390Y-54280D03*
X44390Y-54280D03*
X43390Y-54280D03*
X47390Y-54280D03*
X48390Y-54280D03*
X49390Y-54280D03*
X50390Y-54280D03*
X52390Y-54280D03*
X53390Y-54280D03*
X54390Y-54280D03*
X55390Y-54280D03*
X56390Y-54280D03*
X57390Y-54280D03*
X57390Y-35280D03*
X56390Y-35280D03*
X55390Y-35280D03*
X54390Y-35280D03*
X53390Y-35280D03*
X52390Y-35280D03*
X51390Y-35280D03*
X50390Y-35280D03*
G54D35*
X58390Y-52280D03*
X58390Y-41280D03*
X38390Y-35280D03*
X37890Y-54280D03*
G54D10*
G36*
X52730Y-37480D02*
X52120Y-37480D01*
X52320Y-36770D01*
X52530Y-36770D01*
X52730Y-37480D01*
X52730Y-37480D01*
G37*
G36*
X52320Y-36730D02*
X52120Y-36020D01*
X52730Y-36020D01*
X52530Y-36730D01*
X52320Y-36730D01*
X52320Y-36730D01*
G37*
G36*
X51755Y-37830D02*
X51145Y-37830D01*
X51345Y-37120D01*
X51555Y-37120D01*
X51755Y-37830D01*
X51755Y-37830D01*
G37*
G36*
X51345Y-37080D02*
X51145Y-36370D01*
X51755Y-36370D01*
X51555Y-37080D01*
X51345Y-37080D01*
X51345Y-37080D01*
G37*
G36*
X49055Y-38730D02*
X48445Y-38730D01*
X48645Y-38020D01*
X48855Y-38020D01*
X49055Y-38730D01*
X49055Y-38730D01*
G37*
G36*
X48645Y-37980D02*
X48445Y-37270D01*
X49055Y-37270D01*
X48855Y-37980D01*
X48645Y-37980D01*
X48645Y-37980D01*
G37*
G36*
X48105Y-38180D02*
X47495Y-38180D01*
X47695Y-37470D01*
X47905Y-37470D01*
X48105Y-38180D01*
X48105Y-38180D01*
G37*
G36*
X47695Y-37430D02*
X47495Y-36720D01*
X48105Y-36720D01*
X47905Y-37430D01*
X47695Y-37430D01*
X47695Y-37430D01*
G37*
G36*
X46055Y-37980D02*
X45445Y-37980D01*
X45645Y-37270D01*
X45855Y-37270D01*
X46055Y-37980D01*
X46055Y-37980D01*
G37*
G36*
X45645Y-37230D02*
X45445Y-36520D01*
X46055Y-36520D01*
X45855Y-37230D01*
X45645Y-37230D01*
X45645Y-37230D01*
G37*
G36*
X45130Y-38605D02*
X44520Y-38605D01*
X44720Y-37895D01*
X44930Y-37895D01*
X45130Y-38605D01*
X45130Y-38605D01*
G37*
G36*
X44720Y-37855D02*
X44520Y-37145D01*
X45130Y-37145D01*
X44930Y-37855D01*
X44720Y-37855D01*
X44720Y-37855D01*
G37*
G54D36*
X83360Y-30820D03*
X83360Y-32020D03*
G54D37*
X83900Y-32980D03*
X82700Y-32980D03*
X83860Y-34380D03*
X82660Y-34380D03*
G54D36*
X83620Y-36880D03*
X83620Y-35680D03*
G54D12*
X64505Y-41120D03*
X63755Y-41120D03*
M02*
