G04 (created by PCBNEW (2013-03-19 BZR 4004)-stable) date 3/4/2014 12:45:59 PM*
%MOIN*%
G04 Gerber Fmt 3.4, Leading zero omitted, Abs format*
%FSLAX34Y34*%
G01*
G70*
G90*
G04 APERTURE LIST*
%ADD10C,0.006*%
%ADD11R,0.06X0.06*%
%ADD12C,0.06*%
%ADD13R,0.0787402X0.0787402*%
%ADD14C,0.0787402*%
%ADD15C,0.075*%
%ADD16C,0.0984252*%
%ADD17C,0.07*%
%ADD18R,0.07X0.07*%
%ADD19O,0.0866142X0.110236*%
%ADD20C,0.0629921*%
%ADD21C,0.0551181*%
%ADD22O,0.06X0.1*%
%ADD23O,0.125X0.125*%
%ADD24C,0.11811*%
%ADD25C,0.1*%
%ADD26R,0.1X0.1*%
%ADD27C,0.046*%
%ADD28C,0.027*%
%ADD29C,0.036*%
%ADD30C,0.048*%
%ADD31C,0.01*%
G04 APERTURE END LIST*
G54D10*
G54D11*
X78650Y-37650D03*
G54D12*
X79650Y-37650D03*
X78650Y-38650D03*
X79650Y-38650D03*
X78650Y-39650D03*
X79650Y-39650D03*
G54D13*
X84700Y-53350D03*
G54D14*
X84700Y-51381D03*
X84700Y-49412D03*
G54D13*
X84800Y-46450D03*
G54D14*
X84800Y-45072D03*
X84800Y-43694D03*
X84800Y-42316D03*
X84800Y-40938D03*
X84800Y-39560D03*
X84800Y-38182D03*
X84800Y-36804D03*
X84800Y-35426D03*
X84800Y-34048D03*
X84800Y-32670D03*
X84800Y-31292D03*
G54D15*
X75360Y-51660D03*
X76160Y-49300D03*
X80960Y-49300D03*
X80960Y-54020D03*
X76160Y-54020D03*
G54D16*
X69145Y-31240D03*
X62190Y-31355D03*
G54D17*
X62160Y-34010D03*
X63160Y-34010D03*
G54D18*
X61160Y-34010D03*
G54D17*
X79915Y-34835D03*
X80915Y-34835D03*
G54D18*
X78915Y-34835D03*
G54D17*
X75000Y-34850D03*
X76000Y-34850D03*
G54D18*
X74000Y-34850D03*
G54D17*
X69265Y-33865D03*
X70265Y-33865D03*
G54D18*
X68265Y-33865D03*
G54D19*
X46879Y-32566D03*
X43020Y-32566D03*
G54D20*
X44950Y-31700D03*
X45934Y-31700D03*
X43965Y-31700D03*
G54D19*
X53529Y-32616D03*
X49670Y-32616D03*
G54D20*
X51600Y-31750D03*
X52584Y-31750D03*
X50615Y-31750D03*
G54D21*
X38413Y-31190D03*
X37625Y-31190D03*
X36838Y-31190D03*
G54D22*
X48790Y-35280D03*
X47790Y-35280D03*
X46790Y-35280D03*
X45790Y-35280D03*
X44790Y-35280D03*
X43790Y-35280D03*
X42790Y-35280D03*
X41790Y-35280D03*
X46390Y-54280D03*
X45390Y-54280D03*
X44390Y-54280D03*
X43390Y-54280D03*
X47390Y-54280D03*
X48390Y-54280D03*
X49390Y-54280D03*
X50390Y-54280D03*
X52390Y-54280D03*
X53390Y-54280D03*
X54390Y-54280D03*
X55390Y-54280D03*
X56390Y-54280D03*
X57390Y-54280D03*
X57390Y-35280D03*
X56390Y-35280D03*
X55390Y-35280D03*
X54390Y-35280D03*
X53390Y-35280D03*
X52390Y-35280D03*
X51390Y-35280D03*
X50390Y-35280D03*
G54D23*
X58390Y-52280D03*
X58390Y-41280D03*
X38390Y-35280D03*
X37890Y-54280D03*
G54D24*
X25974Y-51888D03*
X25974Y-50235D03*
X25974Y-48581D03*
X25974Y-46928D03*
X25974Y-45274D03*
X25974Y-43621D03*
X25974Y-41967D03*
X25974Y-40314D03*
X25974Y-38660D03*
X25974Y-37007D03*
X25974Y-35353D03*
X25974Y-33700D03*
X28139Y-51888D03*
X28139Y-50235D03*
X28139Y-48581D03*
X28139Y-46928D03*
X28139Y-45274D03*
X28139Y-43621D03*
X28139Y-41967D03*
X28139Y-40314D03*
X28139Y-38660D03*
X28139Y-37007D03*
X28139Y-35353D03*
X28139Y-33700D03*
G54D25*
X67800Y-37100D03*
X76850Y-32600D03*
X65700Y-33550D03*
X72300Y-49600D03*
X68800Y-51650D03*
X59650Y-37200D03*
X80900Y-39400D03*
X66500Y-40600D03*
G54D11*
X75450Y-32400D03*
G54D12*
X74450Y-32400D03*
X73450Y-32400D03*
G54D11*
X78350Y-32450D03*
G54D12*
X79350Y-32450D03*
X80350Y-32450D03*
G54D26*
X35970Y-43890D03*
X36970Y-43890D03*
X35200Y-42700D03*
X35200Y-41700D03*
X35970Y-45620D03*
X36970Y-45620D03*
X35300Y-47500D03*
X35300Y-48500D03*
G54D27*
X73950Y-44650D03*
X28100Y-53200D03*
X50400Y-50500D03*
X71600Y-50800D03*
X31525Y-51050D03*
X33900Y-34725D03*
X58100Y-32700D03*
G54D28*
X28950Y-31400D03*
G54D27*
X35950Y-36000D03*
X33225Y-47050D03*
X60600Y-46500D03*
X36800Y-47100D03*
G54D28*
X61900Y-42600D03*
X64800Y-38550D03*
X81500Y-38000D03*
G54D27*
X33175Y-42625D03*
X29400Y-32850D03*
X60100Y-33585D03*
X33850Y-32850D03*
G54D28*
X65850Y-41800D03*
X58000Y-37950D03*
X70700Y-36700D03*
X56875Y-45150D03*
X46200Y-39975D03*
X44850Y-39850D03*
X64450Y-53200D03*
X60525Y-43450D03*
X60800Y-41150D03*
X39975Y-31750D03*
X40000Y-32650D03*
X48775Y-39025D03*
X65125Y-42600D03*
X54500Y-38150D03*
X64840Y-41900D03*
X55450Y-38650D03*
X64825Y-43200D03*
X52550Y-38225D03*
X60525Y-42725D03*
G54D27*
X61500Y-46700D03*
X63300Y-48400D03*
G54D28*
X63700Y-46300D03*
X58950Y-30675D03*
G54D27*
X57290Y-32310D03*
G54D28*
X65900Y-38100D03*
X64900Y-36300D03*
X63750Y-38500D03*
X74940Y-38200D03*
G54D27*
X73500Y-36150D03*
G54D28*
X61600Y-38400D03*
X67925Y-40025D03*
G54D27*
X72050Y-37750D03*
X77150Y-36550D03*
X77850Y-34200D03*
G54D28*
X75850Y-40400D03*
X83300Y-38000D03*
X64425Y-42900D03*
G54D27*
X73850Y-43900D03*
G54D28*
X62550Y-39900D03*
G54D27*
X67700Y-41050D03*
X73945Y-37055D03*
X78600Y-36550D03*
X76350Y-38000D03*
X31875Y-36225D03*
G54D28*
X32000Y-31900D03*
G54D27*
X47275Y-48925D03*
G54D28*
X48650Y-48300D03*
G54D27*
X31950Y-39600D03*
X83800Y-46700D03*
X64100Y-46700D03*
X60700Y-48500D03*
X65635Y-31265D03*
G54D28*
X38025Y-32550D03*
G54D27*
X69900Y-49625D03*
G54D28*
X71450Y-38450D03*
X72200Y-38750D03*
X82050Y-40000D03*
X63100Y-40700D03*
X64100Y-40600D03*
X71100Y-37450D03*
X70800Y-41100D03*
X71600Y-39400D03*
X74450Y-38750D03*
X75000Y-39500D03*
X76400Y-37500D03*
X76900Y-37300D03*
X66400Y-36850D03*
X65250Y-38650D03*
G54D27*
X64100Y-54300D03*
X69650Y-53550D03*
X71700Y-51600D03*
X69900Y-54700D03*
G54D29*
X76850Y-32600D02*
X76850Y-33600D01*
G54D30*
X47300Y-48925D02*
X36775Y-48925D01*
X36775Y-48925D02*
X36450Y-48600D01*
X36450Y-48600D02*
X36450Y-47850D01*
X36450Y-47850D02*
X36100Y-47500D01*
X36100Y-47500D02*
X35300Y-47500D01*
G54D31*
X47275Y-48925D02*
X47300Y-48925D01*
X47300Y-48925D02*
X48350Y-48925D01*
X48350Y-48925D02*
X48675Y-48600D01*
X48650Y-48300D02*
X48675Y-48325D01*
X48675Y-48325D02*
X48675Y-48600D01*
G54D10*
G36*
X85849Y-30579D02*
X85825Y-37175D01*
X85447Y-37178D01*
X85447Y-35530D01*
X85443Y-35417D01*
X85443Y-33920D01*
X85443Y-32542D01*
X85443Y-31165D01*
X85346Y-30928D01*
X85165Y-30747D01*
X84928Y-30648D01*
X84672Y-30648D01*
X84435Y-30746D01*
X84254Y-30927D01*
X84156Y-31163D01*
X84156Y-31419D01*
X84253Y-31656D01*
X84434Y-31837D01*
X84671Y-31936D01*
X84927Y-31936D01*
X85164Y-31838D01*
X85345Y-31657D01*
X85443Y-31421D01*
X85443Y-31165D01*
X85443Y-32542D01*
X85346Y-32306D01*
X85165Y-32125D01*
X84928Y-32026D01*
X84672Y-32026D01*
X84435Y-32124D01*
X84254Y-32305D01*
X84156Y-32541D01*
X84156Y-32797D01*
X84253Y-33034D01*
X84434Y-33215D01*
X84671Y-33314D01*
X84927Y-33314D01*
X85164Y-33216D01*
X85345Y-33035D01*
X85443Y-32799D01*
X85443Y-32542D01*
X85443Y-33920D01*
X85346Y-33684D01*
X85165Y-33503D01*
X84928Y-33404D01*
X84672Y-33404D01*
X84435Y-33502D01*
X84254Y-33683D01*
X84156Y-33919D01*
X84156Y-34175D01*
X84253Y-34412D01*
X84434Y-34593D01*
X84671Y-34692D01*
X84927Y-34692D01*
X85164Y-34594D01*
X85345Y-34413D01*
X85443Y-34177D01*
X85443Y-33920D01*
X85443Y-35417D01*
X85438Y-35274D01*
X85358Y-35082D01*
X85253Y-35043D01*
X85183Y-35114D01*
X85183Y-34972D01*
X85144Y-34867D01*
X84904Y-34778D01*
X84648Y-34787D01*
X84455Y-34867D01*
X84416Y-34972D01*
X84800Y-35355D01*
X85183Y-34972D01*
X85183Y-35114D01*
X84870Y-35426D01*
X85253Y-35809D01*
X85358Y-35770D01*
X85447Y-35530D01*
X85447Y-37178D01*
X85335Y-37179D01*
X85345Y-37169D01*
X85443Y-36932D01*
X85443Y-36676D01*
X85346Y-36440D01*
X85183Y-36276D01*
X85183Y-35880D01*
X84800Y-35497D01*
X84729Y-35567D01*
X84729Y-35426D01*
X84346Y-35043D01*
X84241Y-35082D01*
X84152Y-35322D01*
X84161Y-35578D01*
X84241Y-35770D01*
X84346Y-35809D01*
X84729Y-35426D01*
X84729Y-35567D01*
X84416Y-35880D01*
X84455Y-35985D01*
X84695Y-36074D01*
X84951Y-36064D01*
X85144Y-35985D01*
X85183Y-35880D01*
X85183Y-36276D01*
X85165Y-36258D01*
X84928Y-36160D01*
X84672Y-36160D01*
X84435Y-36258D01*
X84254Y-36439D01*
X84156Y-36675D01*
X84156Y-36931D01*
X84253Y-37168D01*
X84274Y-37188D01*
X83000Y-37199D01*
X83025Y-32974D01*
X82740Y-32977D01*
X82740Y-31383D01*
X82613Y-31074D01*
X82376Y-30837D01*
X82067Y-30709D01*
X81733Y-30709D01*
X81424Y-30837D01*
X81187Y-31073D01*
X81059Y-31382D01*
X81059Y-31716D01*
X81187Y-32025D01*
X81423Y-32262D01*
X81732Y-32390D01*
X82066Y-32390D01*
X82375Y-32263D01*
X82612Y-32026D01*
X82740Y-31717D01*
X82740Y-31383D01*
X82740Y-32977D01*
X80463Y-32998D01*
X80661Y-32916D01*
X80815Y-32761D01*
X80899Y-32559D01*
X80900Y-32341D01*
X80816Y-32138D01*
X80661Y-31984D01*
X80459Y-31900D01*
X80241Y-31899D01*
X80038Y-31983D01*
X79884Y-32138D01*
X79850Y-32219D01*
X79816Y-32138D01*
X79661Y-31984D01*
X79459Y-31900D01*
X79241Y-31899D01*
X79038Y-31983D01*
X78900Y-32122D01*
X78900Y-32100D01*
X78862Y-32008D01*
X78791Y-31938D01*
X78699Y-31900D01*
X78600Y-31899D01*
X78000Y-31899D01*
X77908Y-31937D01*
X77838Y-32008D01*
X77800Y-32100D01*
X77799Y-32199D01*
X77799Y-32799D01*
X77837Y-32891D01*
X77908Y-32961D01*
X78000Y-32999D01*
X78099Y-33000D01*
X78699Y-33000D01*
X78791Y-32962D01*
X78861Y-32891D01*
X78899Y-32799D01*
X78899Y-32777D01*
X79038Y-32915D01*
X79240Y-32999D01*
X79458Y-33000D01*
X79661Y-32916D01*
X79815Y-32761D01*
X79849Y-32680D01*
X79883Y-32761D01*
X80038Y-32915D01*
X80240Y-32999D01*
X80281Y-32999D01*
X77485Y-33025D01*
X77485Y-33025D01*
X77599Y-32749D01*
X77600Y-32451D01*
X77486Y-32175D01*
X77275Y-31964D01*
X76999Y-31850D01*
X76701Y-31849D01*
X76425Y-31963D01*
X76214Y-32174D01*
X76100Y-32450D01*
X76099Y-32748D01*
X76213Y-33024D01*
X76226Y-33037D01*
X76000Y-33039D01*
X76000Y-32650D01*
X76000Y-32050D01*
X75962Y-31958D01*
X75891Y-31888D01*
X75799Y-31850D01*
X75700Y-31849D01*
X75100Y-31849D01*
X75008Y-31887D01*
X74938Y-31958D01*
X74900Y-32050D01*
X74900Y-32072D01*
X74761Y-31934D01*
X74559Y-31850D01*
X74341Y-31849D01*
X74138Y-31933D01*
X73984Y-32088D01*
X73950Y-32169D01*
X73916Y-32088D01*
X73761Y-31934D01*
X73559Y-31850D01*
X73341Y-31849D01*
X73138Y-31933D01*
X72984Y-32088D01*
X72900Y-32290D01*
X72899Y-32508D01*
X72983Y-32711D01*
X73138Y-32865D01*
X73340Y-32949D01*
X73558Y-32950D01*
X73761Y-32866D01*
X73915Y-32711D01*
X73949Y-32630D01*
X73983Y-32711D01*
X74138Y-32865D01*
X74340Y-32949D01*
X74558Y-32950D01*
X74761Y-32866D01*
X74899Y-32727D01*
X74899Y-32749D01*
X74937Y-32841D01*
X75008Y-32911D01*
X75100Y-32949D01*
X75199Y-32950D01*
X75799Y-32950D01*
X75891Y-32912D01*
X75961Y-32841D01*
X75999Y-32749D01*
X76000Y-32650D01*
X76000Y-33039D01*
X72125Y-33075D01*
X72100Y-36150D01*
X70865Y-36151D01*
X70865Y-33746D01*
X70773Y-33525D01*
X70605Y-33356D01*
X70384Y-33265D01*
X70146Y-33264D01*
X69925Y-33356D01*
X69764Y-33516D01*
X69605Y-33356D01*
X69384Y-33265D01*
X69146Y-33264D01*
X68925Y-33356D01*
X68850Y-33430D01*
X68827Y-33373D01*
X68756Y-33303D01*
X68664Y-33265D01*
X68565Y-33264D01*
X67865Y-33264D01*
X67773Y-33302D01*
X67703Y-33373D01*
X67665Y-33465D01*
X67664Y-33564D01*
X67664Y-34264D01*
X67702Y-34356D01*
X67773Y-34426D01*
X67865Y-34464D01*
X67964Y-34465D01*
X68664Y-34465D01*
X68756Y-34427D01*
X68826Y-34356D01*
X68850Y-34299D01*
X68924Y-34373D01*
X69145Y-34464D01*
X69383Y-34465D01*
X69604Y-34373D01*
X69765Y-34213D01*
X69924Y-34373D01*
X70145Y-34464D01*
X70383Y-34465D01*
X70604Y-34373D01*
X70773Y-34205D01*
X70864Y-33984D01*
X70865Y-33746D01*
X70865Y-36151D01*
X66453Y-36157D01*
X66453Y-33679D01*
X66445Y-33381D01*
X66346Y-33141D01*
X66230Y-33090D01*
X66159Y-33160D01*
X66159Y-33019D01*
X66108Y-32903D01*
X65829Y-32796D01*
X65531Y-32804D01*
X65291Y-32903D01*
X65240Y-33019D01*
X65700Y-33479D01*
X66159Y-33019D01*
X66159Y-33160D01*
X65770Y-33550D01*
X66230Y-34009D01*
X66346Y-33958D01*
X66453Y-33679D01*
X66453Y-36157D01*
X66159Y-36158D01*
X66159Y-34080D01*
X65700Y-33620D01*
X65629Y-33691D01*
X65629Y-33550D01*
X65169Y-33090D01*
X65053Y-33141D01*
X64946Y-33420D01*
X64954Y-33718D01*
X65053Y-33958D01*
X65169Y-34009D01*
X65629Y-33550D01*
X65629Y-33691D01*
X65240Y-34080D01*
X65291Y-34196D01*
X65570Y-34303D01*
X65868Y-34295D01*
X66108Y-34196D01*
X66159Y-34080D01*
X66159Y-36158D01*
X65258Y-36159D01*
X65226Y-36082D01*
X65118Y-35973D01*
X64976Y-35915D01*
X64823Y-35914D01*
X64682Y-35973D01*
X64573Y-36081D01*
X64541Y-36160D01*
X63760Y-36161D01*
X63760Y-33891D01*
X63668Y-33670D01*
X63500Y-33501D01*
X63279Y-33410D01*
X63041Y-33409D01*
X62932Y-33454D01*
X62932Y-31208D01*
X62819Y-30935D01*
X62610Y-30726D01*
X62338Y-30613D01*
X62043Y-30612D01*
X61770Y-30725D01*
X61561Y-30934D01*
X61448Y-31206D01*
X61447Y-31501D01*
X61560Y-31774D01*
X61769Y-31983D01*
X62041Y-32096D01*
X62336Y-32097D01*
X62609Y-31984D01*
X62818Y-31775D01*
X62931Y-31503D01*
X62932Y-31208D01*
X62932Y-33454D01*
X62820Y-33501D01*
X62659Y-33661D01*
X62500Y-33501D01*
X62279Y-33410D01*
X62041Y-33409D01*
X61820Y-33501D01*
X61745Y-33575D01*
X61722Y-33518D01*
X61651Y-33448D01*
X61559Y-33410D01*
X61460Y-33409D01*
X60760Y-33409D01*
X60668Y-33447D01*
X60598Y-33518D01*
X60580Y-33561D01*
X60580Y-33489D01*
X60507Y-33313D01*
X60372Y-33178D01*
X60195Y-33105D01*
X60004Y-33104D01*
X59828Y-33177D01*
X59693Y-33312D01*
X59620Y-33489D01*
X59619Y-33680D01*
X59692Y-33856D01*
X59827Y-33991D01*
X60004Y-34064D01*
X60195Y-34065D01*
X60371Y-33992D01*
X60506Y-33857D01*
X60559Y-33728D01*
X60559Y-34409D01*
X60597Y-34501D01*
X60668Y-34571D01*
X60760Y-34609D01*
X60859Y-34610D01*
X61559Y-34610D01*
X61651Y-34572D01*
X61721Y-34501D01*
X61745Y-34444D01*
X61819Y-34518D01*
X62040Y-34609D01*
X62278Y-34610D01*
X62499Y-34518D01*
X62660Y-34358D01*
X62819Y-34518D01*
X63040Y-34609D01*
X63278Y-34610D01*
X63499Y-34518D01*
X63668Y-34350D01*
X63759Y-34129D01*
X63760Y-33891D01*
X63760Y-36161D01*
X58580Y-36168D01*
X58580Y-32604D01*
X58507Y-32428D01*
X58372Y-32293D01*
X58195Y-32220D01*
X58004Y-32219D01*
X57828Y-32292D01*
X57769Y-32351D01*
X57770Y-32214D01*
X57697Y-32038D01*
X57562Y-31903D01*
X57385Y-31830D01*
X57194Y-31829D01*
X57018Y-31902D01*
X56883Y-32037D01*
X56810Y-32214D01*
X56809Y-32405D01*
X56882Y-32581D01*
X57017Y-32716D01*
X57194Y-32789D01*
X57385Y-32790D01*
X57561Y-32717D01*
X57620Y-32658D01*
X57619Y-32795D01*
X57692Y-32971D01*
X57827Y-33106D01*
X58004Y-33179D01*
X58195Y-33180D01*
X58371Y-33107D01*
X58506Y-32972D01*
X58579Y-32795D01*
X58580Y-32604D01*
X58580Y-36168D01*
X57940Y-36169D01*
X57940Y-35494D01*
X57940Y-35065D01*
X57898Y-34854D01*
X57778Y-34676D01*
X57600Y-34557D01*
X57390Y-34515D01*
X57179Y-34557D01*
X57001Y-34676D01*
X56890Y-34842D01*
X56778Y-34676D01*
X56600Y-34557D01*
X56390Y-34515D01*
X56179Y-34557D01*
X56001Y-34676D01*
X55890Y-34842D01*
X55778Y-34676D01*
X55600Y-34557D01*
X55390Y-34515D01*
X55179Y-34557D01*
X55001Y-34676D01*
X54890Y-34842D01*
X54778Y-34676D01*
X54600Y-34557D01*
X54390Y-34515D01*
X54212Y-34550D01*
X54212Y-32749D01*
X54212Y-32482D01*
X54160Y-32220D01*
X54012Y-31999D01*
X53790Y-31851D01*
X53529Y-31799D01*
X53267Y-31851D01*
X53110Y-31956D01*
X53149Y-31862D01*
X53149Y-31638D01*
X53063Y-31430D01*
X52904Y-31271D01*
X52697Y-31185D01*
X52472Y-31184D01*
X52264Y-31270D01*
X52105Y-31429D01*
X52094Y-31455D01*
X52093Y-31453D01*
X51996Y-31423D01*
X51926Y-31494D01*
X51926Y-31353D01*
X51896Y-31256D01*
X51685Y-31180D01*
X51460Y-31191D01*
X51303Y-31256D01*
X51273Y-31353D01*
X51600Y-31679D01*
X51926Y-31353D01*
X51926Y-31494D01*
X51670Y-31750D01*
X51996Y-32076D01*
X52093Y-32046D01*
X52094Y-32044D01*
X52105Y-32069D01*
X52263Y-32228D01*
X52471Y-32314D01*
X52696Y-32315D01*
X52895Y-32232D01*
X52846Y-32482D01*
X52846Y-32749D01*
X52898Y-33011D01*
X53046Y-33232D01*
X53267Y-33381D01*
X53529Y-33433D01*
X53790Y-33381D01*
X54012Y-33232D01*
X54160Y-33011D01*
X54212Y-32749D01*
X54212Y-34550D01*
X54179Y-34557D01*
X54001Y-34676D01*
X53890Y-34842D01*
X53778Y-34676D01*
X53600Y-34557D01*
X53390Y-34515D01*
X53179Y-34557D01*
X53001Y-34676D01*
X52890Y-34842D01*
X52778Y-34676D01*
X52600Y-34557D01*
X52390Y-34515D01*
X52179Y-34557D01*
X52001Y-34676D01*
X51926Y-34788D01*
X51926Y-32146D01*
X51600Y-31820D01*
X51529Y-31891D01*
X51529Y-31750D01*
X51203Y-31423D01*
X51106Y-31453D01*
X51105Y-31455D01*
X51094Y-31430D01*
X50936Y-31271D01*
X50728Y-31185D01*
X50503Y-31184D01*
X50296Y-31270D01*
X50137Y-31429D01*
X50050Y-31637D01*
X50050Y-31861D01*
X50089Y-31956D01*
X49932Y-31851D01*
X49670Y-31799D01*
X49409Y-31851D01*
X49187Y-31999D01*
X49039Y-32220D01*
X48987Y-32482D01*
X48987Y-32749D01*
X49039Y-33011D01*
X49187Y-33232D01*
X49409Y-33381D01*
X49670Y-33433D01*
X49932Y-33381D01*
X50153Y-33232D01*
X50301Y-33011D01*
X50353Y-32749D01*
X50353Y-32482D01*
X50304Y-32232D01*
X50502Y-32314D01*
X50727Y-32315D01*
X50935Y-32229D01*
X51094Y-32070D01*
X51105Y-32044D01*
X51106Y-32046D01*
X51203Y-32076D01*
X51529Y-31750D01*
X51529Y-31891D01*
X51273Y-32146D01*
X51303Y-32243D01*
X51514Y-32319D01*
X51739Y-32308D01*
X51896Y-32243D01*
X51926Y-32146D01*
X51926Y-34788D01*
X51890Y-34842D01*
X51778Y-34676D01*
X51600Y-34557D01*
X51390Y-34515D01*
X51179Y-34557D01*
X51001Y-34676D01*
X50890Y-34842D01*
X50778Y-34676D01*
X50600Y-34557D01*
X50390Y-34515D01*
X50179Y-34557D01*
X50001Y-34676D01*
X49881Y-34854D01*
X49840Y-35065D01*
X49840Y-35494D01*
X49881Y-35705D01*
X50001Y-35883D01*
X50179Y-36002D01*
X50390Y-36044D01*
X50600Y-36002D01*
X50778Y-35883D01*
X50890Y-35717D01*
X51001Y-35883D01*
X51179Y-36002D01*
X51390Y-36044D01*
X51600Y-36002D01*
X51778Y-35883D01*
X51890Y-35717D01*
X52001Y-35883D01*
X52179Y-36002D01*
X52390Y-36044D01*
X52600Y-36002D01*
X52778Y-35883D01*
X52890Y-35717D01*
X53001Y-35883D01*
X53179Y-36002D01*
X53390Y-36044D01*
X53600Y-36002D01*
X53778Y-35883D01*
X53890Y-35717D01*
X54001Y-35883D01*
X54179Y-36002D01*
X54390Y-36044D01*
X54600Y-36002D01*
X54778Y-35883D01*
X54890Y-35717D01*
X55001Y-35883D01*
X55179Y-36002D01*
X55390Y-36044D01*
X55600Y-36002D01*
X55778Y-35883D01*
X55890Y-35717D01*
X56001Y-35883D01*
X56179Y-36002D01*
X56390Y-36044D01*
X56600Y-36002D01*
X56778Y-35883D01*
X56890Y-35717D01*
X57001Y-35883D01*
X57179Y-36002D01*
X57390Y-36044D01*
X57600Y-36002D01*
X57778Y-35883D01*
X57898Y-35705D01*
X57940Y-35494D01*
X57940Y-36169D01*
X49340Y-36180D01*
X49340Y-35494D01*
X49340Y-35065D01*
X49298Y-34854D01*
X49178Y-34676D01*
X49000Y-34557D01*
X48790Y-34515D01*
X48579Y-34557D01*
X48401Y-34676D01*
X48290Y-34842D01*
X48178Y-34676D01*
X48000Y-34557D01*
X47790Y-34515D01*
X47579Y-34557D01*
X47562Y-34568D01*
X47562Y-32699D01*
X47562Y-32432D01*
X47510Y-32170D01*
X47362Y-31949D01*
X47140Y-31801D01*
X46879Y-31749D01*
X46617Y-31801D01*
X46460Y-31906D01*
X46499Y-31812D01*
X46499Y-31588D01*
X46413Y-31380D01*
X46254Y-31221D01*
X46047Y-31135D01*
X45822Y-31134D01*
X45614Y-31220D01*
X45455Y-31379D01*
X45444Y-31405D01*
X45443Y-31403D01*
X45346Y-31373D01*
X45276Y-31444D01*
X45276Y-31303D01*
X45246Y-31206D01*
X45035Y-31130D01*
X44810Y-31141D01*
X44653Y-31206D01*
X44623Y-31303D01*
X44950Y-31629D01*
X45276Y-31303D01*
X45276Y-31444D01*
X45020Y-31700D01*
X45346Y-32026D01*
X45443Y-31996D01*
X45444Y-31994D01*
X45455Y-32019D01*
X45613Y-32178D01*
X45821Y-32264D01*
X46046Y-32265D01*
X46245Y-32182D01*
X46196Y-32432D01*
X46196Y-32699D01*
X46248Y-32961D01*
X46396Y-33182D01*
X46617Y-33331D01*
X46879Y-33383D01*
X47140Y-33331D01*
X47362Y-33182D01*
X47510Y-32961D01*
X47562Y-32699D01*
X47562Y-34568D01*
X47401Y-34676D01*
X47290Y-34842D01*
X47178Y-34676D01*
X47000Y-34557D01*
X46790Y-34515D01*
X46579Y-34557D01*
X46401Y-34676D01*
X46290Y-34842D01*
X46178Y-34676D01*
X46000Y-34557D01*
X45790Y-34515D01*
X45579Y-34557D01*
X45401Y-34676D01*
X45290Y-34842D01*
X45276Y-34821D01*
X45276Y-32096D01*
X44950Y-31770D01*
X44879Y-31841D01*
X44879Y-31700D01*
X44553Y-31373D01*
X44456Y-31403D01*
X44455Y-31405D01*
X44444Y-31380D01*
X44286Y-31221D01*
X44078Y-31135D01*
X43853Y-31134D01*
X43646Y-31220D01*
X43487Y-31379D01*
X43400Y-31587D01*
X43400Y-31811D01*
X43439Y-31906D01*
X43282Y-31801D01*
X43020Y-31749D01*
X42759Y-31801D01*
X42537Y-31949D01*
X42389Y-32170D01*
X42337Y-32432D01*
X42337Y-32699D01*
X42389Y-32961D01*
X42537Y-33182D01*
X42759Y-33331D01*
X43020Y-33383D01*
X43282Y-33331D01*
X43503Y-33182D01*
X43651Y-32961D01*
X43703Y-32699D01*
X43703Y-32432D01*
X43654Y-32182D01*
X43852Y-32264D01*
X44077Y-32265D01*
X44285Y-32179D01*
X44444Y-32020D01*
X44455Y-31994D01*
X44456Y-31996D01*
X44553Y-32026D01*
X44879Y-31700D01*
X44879Y-31841D01*
X44623Y-32096D01*
X44653Y-32193D01*
X44864Y-32269D01*
X45089Y-32258D01*
X45246Y-32193D01*
X45276Y-32096D01*
X45276Y-34821D01*
X45178Y-34676D01*
X45000Y-34557D01*
X44790Y-34515D01*
X44579Y-34557D01*
X44401Y-34676D01*
X44290Y-34842D01*
X44178Y-34676D01*
X44000Y-34557D01*
X43790Y-34515D01*
X43579Y-34557D01*
X43401Y-34676D01*
X43290Y-34842D01*
X43178Y-34676D01*
X43000Y-34557D01*
X42790Y-34515D01*
X42579Y-34557D01*
X42401Y-34676D01*
X42290Y-34842D01*
X42178Y-34676D01*
X42000Y-34557D01*
X41790Y-34515D01*
X41579Y-34557D01*
X41401Y-34676D01*
X41281Y-34854D01*
X41240Y-35065D01*
X41240Y-35494D01*
X41281Y-35705D01*
X41401Y-35883D01*
X41579Y-36002D01*
X41790Y-36044D01*
X42000Y-36002D01*
X42178Y-35883D01*
X42290Y-35717D01*
X42401Y-35883D01*
X42579Y-36002D01*
X42790Y-36044D01*
X43000Y-36002D01*
X43178Y-35883D01*
X43290Y-35717D01*
X43401Y-35883D01*
X43579Y-36002D01*
X43790Y-36044D01*
X44000Y-36002D01*
X44178Y-35883D01*
X44290Y-35717D01*
X44401Y-35883D01*
X44579Y-36002D01*
X44790Y-36044D01*
X45000Y-36002D01*
X45178Y-35883D01*
X45290Y-35717D01*
X45401Y-35883D01*
X45579Y-36002D01*
X45790Y-36044D01*
X46000Y-36002D01*
X46178Y-35883D01*
X46290Y-35717D01*
X46401Y-35883D01*
X46579Y-36002D01*
X46790Y-36044D01*
X47000Y-36002D01*
X47178Y-35883D01*
X47290Y-35717D01*
X47401Y-35883D01*
X47579Y-36002D01*
X47790Y-36044D01*
X48000Y-36002D01*
X48178Y-35883D01*
X48290Y-35717D01*
X48401Y-35883D01*
X48579Y-36002D01*
X48790Y-36044D01*
X49000Y-36002D01*
X49178Y-35883D01*
X49298Y-35705D01*
X49340Y-35494D01*
X49340Y-36180D01*
X40385Y-36192D01*
X40385Y-32573D01*
X40360Y-32513D01*
X40360Y-31673D01*
X40301Y-31532D01*
X40193Y-31423D01*
X40051Y-31365D01*
X39898Y-31364D01*
X39757Y-31423D01*
X39716Y-31463D01*
X39785Y-31298D01*
X39785Y-31082D01*
X39702Y-30881D01*
X39549Y-30728D01*
X39348Y-30644D01*
X39132Y-30644D01*
X38931Y-30727D01*
X38812Y-30846D01*
X38711Y-30744D01*
X38518Y-30664D01*
X38309Y-30664D01*
X38115Y-30744D01*
X38019Y-30840D01*
X37923Y-30744D01*
X37730Y-30664D01*
X37521Y-30664D01*
X37328Y-30744D01*
X37232Y-30840D01*
X37136Y-30744D01*
X36943Y-30664D01*
X36734Y-30664D01*
X36541Y-30744D01*
X36438Y-30846D01*
X36320Y-30728D01*
X36120Y-30644D01*
X35903Y-30644D01*
X35703Y-30727D01*
X35549Y-30880D01*
X35466Y-31081D01*
X35466Y-31297D01*
X35549Y-31498D01*
X35702Y-31651D01*
X35902Y-31735D01*
X36119Y-31735D01*
X36320Y-31652D01*
X36439Y-31533D01*
X36540Y-31635D01*
X36733Y-31715D01*
X36942Y-31715D01*
X37135Y-31635D01*
X37232Y-31539D01*
X37327Y-31635D01*
X37520Y-31715D01*
X37729Y-31715D01*
X37923Y-31635D01*
X38019Y-31539D01*
X38115Y-31635D01*
X38308Y-31715D01*
X38517Y-31715D01*
X38710Y-31635D01*
X38812Y-31533D01*
X38930Y-31651D01*
X39131Y-31735D01*
X39347Y-31735D01*
X39548Y-31652D01*
X39634Y-31567D01*
X39590Y-31673D01*
X39589Y-31826D01*
X39648Y-31967D01*
X39756Y-32076D01*
X39898Y-32134D01*
X40051Y-32135D01*
X40192Y-32076D01*
X40301Y-31968D01*
X40359Y-31826D01*
X40360Y-31673D01*
X40360Y-32513D01*
X40326Y-32432D01*
X40218Y-32323D01*
X40076Y-32265D01*
X39923Y-32264D01*
X39782Y-32323D01*
X39673Y-32431D01*
X39615Y-32573D01*
X39614Y-32726D01*
X39673Y-32867D01*
X39781Y-32976D01*
X39923Y-33034D01*
X40076Y-33035D01*
X40217Y-32976D01*
X40326Y-32868D01*
X40384Y-32726D01*
X40385Y-32573D01*
X40385Y-36192D01*
X39282Y-36194D01*
X39282Y-35280D01*
X39215Y-34945D01*
X39025Y-34661D01*
X38741Y-34471D01*
X38407Y-34405D01*
X38372Y-34405D01*
X38038Y-34471D01*
X37754Y-34661D01*
X37564Y-34945D01*
X37497Y-35280D01*
X37564Y-35614D01*
X37754Y-35898D01*
X38038Y-36088D01*
X38372Y-36155D01*
X38407Y-36155D01*
X38741Y-36088D01*
X39025Y-35898D01*
X39215Y-35614D01*
X39282Y-35280D01*
X39282Y-36194D01*
X36387Y-36198D01*
X36429Y-36095D01*
X36430Y-35904D01*
X36357Y-35728D01*
X36222Y-35593D01*
X36045Y-35520D01*
X35854Y-35519D01*
X35678Y-35592D01*
X35543Y-35727D01*
X35470Y-35904D01*
X35469Y-36095D01*
X35542Y-36271D01*
X35677Y-36406D01*
X35854Y-36479D01*
X36045Y-36480D01*
X36221Y-36407D01*
X36349Y-36279D01*
X36250Y-42000D01*
X35853Y-42000D01*
X35841Y-41988D01*
X35749Y-41950D01*
X35650Y-41949D01*
X34650Y-41949D01*
X34558Y-41987D01*
X34546Y-42000D01*
X34071Y-42000D01*
X34058Y-35178D01*
X34171Y-35132D01*
X34306Y-34997D01*
X34379Y-34820D01*
X34380Y-34629D01*
X34307Y-34453D01*
X34172Y-34318D01*
X34056Y-34270D01*
X34054Y-33284D01*
X34121Y-33257D01*
X34256Y-33122D01*
X34329Y-32945D01*
X34330Y-32754D01*
X34257Y-32578D01*
X34122Y-32443D01*
X34053Y-32414D01*
X34050Y-30650D01*
X34100Y-30650D01*
X34100Y-30579D01*
X58572Y-30579D01*
X58565Y-30598D01*
X58564Y-30751D01*
X58623Y-30892D01*
X58731Y-31001D01*
X58873Y-31059D01*
X59026Y-31060D01*
X59167Y-31001D01*
X59276Y-30893D01*
X59334Y-30751D01*
X59335Y-30598D01*
X59327Y-30579D01*
X68800Y-30579D01*
X68725Y-30610D01*
X68516Y-30819D01*
X68403Y-31091D01*
X68402Y-31386D01*
X68515Y-31659D01*
X68724Y-31868D01*
X68996Y-31981D01*
X69291Y-31982D01*
X69564Y-31869D01*
X69773Y-31660D01*
X69886Y-31388D01*
X69887Y-31093D01*
X69774Y-30820D01*
X69565Y-30611D01*
X69489Y-30579D01*
X85849Y-30579D01*
X85849Y-30579D01*
G37*
G54D31*
X85849Y-30579D02*
X85825Y-37175D01*
X85447Y-37178D01*
X85447Y-35530D01*
X85443Y-35417D01*
X85443Y-33920D01*
X85443Y-32542D01*
X85443Y-31165D01*
X85346Y-30928D01*
X85165Y-30747D01*
X84928Y-30648D01*
X84672Y-30648D01*
X84435Y-30746D01*
X84254Y-30927D01*
X84156Y-31163D01*
X84156Y-31419D01*
X84253Y-31656D01*
X84434Y-31837D01*
X84671Y-31936D01*
X84927Y-31936D01*
X85164Y-31838D01*
X85345Y-31657D01*
X85443Y-31421D01*
X85443Y-31165D01*
X85443Y-32542D01*
X85346Y-32306D01*
X85165Y-32125D01*
X84928Y-32026D01*
X84672Y-32026D01*
X84435Y-32124D01*
X84254Y-32305D01*
X84156Y-32541D01*
X84156Y-32797D01*
X84253Y-33034D01*
X84434Y-33215D01*
X84671Y-33314D01*
X84927Y-33314D01*
X85164Y-33216D01*
X85345Y-33035D01*
X85443Y-32799D01*
X85443Y-32542D01*
X85443Y-33920D01*
X85346Y-33684D01*
X85165Y-33503D01*
X84928Y-33404D01*
X84672Y-33404D01*
X84435Y-33502D01*
X84254Y-33683D01*
X84156Y-33919D01*
X84156Y-34175D01*
X84253Y-34412D01*
X84434Y-34593D01*
X84671Y-34692D01*
X84927Y-34692D01*
X85164Y-34594D01*
X85345Y-34413D01*
X85443Y-34177D01*
X85443Y-33920D01*
X85443Y-35417D01*
X85438Y-35274D01*
X85358Y-35082D01*
X85253Y-35043D01*
X85183Y-35114D01*
X85183Y-34972D01*
X85144Y-34867D01*
X84904Y-34778D01*
X84648Y-34787D01*
X84455Y-34867D01*
X84416Y-34972D01*
X84800Y-35355D01*
X85183Y-34972D01*
X85183Y-35114D01*
X84870Y-35426D01*
X85253Y-35809D01*
X85358Y-35770D01*
X85447Y-35530D01*
X85447Y-37178D01*
X85335Y-37179D01*
X85345Y-37169D01*
X85443Y-36932D01*
X85443Y-36676D01*
X85346Y-36440D01*
X85183Y-36276D01*
X85183Y-35880D01*
X84800Y-35497D01*
X84729Y-35567D01*
X84729Y-35426D01*
X84346Y-35043D01*
X84241Y-35082D01*
X84152Y-35322D01*
X84161Y-35578D01*
X84241Y-35770D01*
X84346Y-35809D01*
X84729Y-35426D01*
X84729Y-35567D01*
X84416Y-35880D01*
X84455Y-35985D01*
X84695Y-36074D01*
X84951Y-36064D01*
X85144Y-35985D01*
X85183Y-35880D01*
X85183Y-36276D01*
X85165Y-36258D01*
X84928Y-36160D01*
X84672Y-36160D01*
X84435Y-36258D01*
X84254Y-36439D01*
X84156Y-36675D01*
X84156Y-36931D01*
X84253Y-37168D01*
X84274Y-37188D01*
X83000Y-37199D01*
X83025Y-32974D01*
X82740Y-32977D01*
X82740Y-31383D01*
X82613Y-31074D01*
X82376Y-30837D01*
X82067Y-30709D01*
X81733Y-30709D01*
X81424Y-30837D01*
X81187Y-31073D01*
X81059Y-31382D01*
X81059Y-31716D01*
X81187Y-32025D01*
X81423Y-32262D01*
X81732Y-32390D01*
X82066Y-32390D01*
X82375Y-32263D01*
X82612Y-32026D01*
X82740Y-31717D01*
X82740Y-31383D01*
X82740Y-32977D01*
X80463Y-32998D01*
X80661Y-32916D01*
X80815Y-32761D01*
X80899Y-32559D01*
X80900Y-32341D01*
X80816Y-32138D01*
X80661Y-31984D01*
X80459Y-31900D01*
X80241Y-31899D01*
X80038Y-31983D01*
X79884Y-32138D01*
X79850Y-32219D01*
X79816Y-32138D01*
X79661Y-31984D01*
X79459Y-31900D01*
X79241Y-31899D01*
X79038Y-31983D01*
X78900Y-32122D01*
X78900Y-32100D01*
X78862Y-32008D01*
X78791Y-31938D01*
X78699Y-31900D01*
X78600Y-31899D01*
X78000Y-31899D01*
X77908Y-31937D01*
X77838Y-32008D01*
X77800Y-32100D01*
X77799Y-32199D01*
X77799Y-32799D01*
X77837Y-32891D01*
X77908Y-32961D01*
X78000Y-32999D01*
X78099Y-33000D01*
X78699Y-33000D01*
X78791Y-32962D01*
X78861Y-32891D01*
X78899Y-32799D01*
X78899Y-32777D01*
X79038Y-32915D01*
X79240Y-32999D01*
X79458Y-33000D01*
X79661Y-32916D01*
X79815Y-32761D01*
X79849Y-32680D01*
X79883Y-32761D01*
X80038Y-32915D01*
X80240Y-32999D01*
X80281Y-32999D01*
X77485Y-33025D01*
X77485Y-33025D01*
X77599Y-32749D01*
X77600Y-32451D01*
X77486Y-32175D01*
X77275Y-31964D01*
X76999Y-31850D01*
X76701Y-31849D01*
X76425Y-31963D01*
X76214Y-32174D01*
X76100Y-32450D01*
X76099Y-32748D01*
X76213Y-33024D01*
X76226Y-33037D01*
X76000Y-33039D01*
X76000Y-32650D01*
X76000Y-32050D01*
X75962Y-31958D01*
X75891Y-31888D01*
X75799Y-31850D01*
X75700Y-31849D01*
X75100Y-31849D01*
X75008Y-31887D01*
X74938Y-31958D01*
X74900Y-32050D01*
X74900Y-32072D01*
X74761Y-31934D01*
X74559Y-31850D01*
X74341Y-31849D01*
X74138Y-31933D01*
X73984Y-32088D01*
X73950Y-32169D01*
X73916Y-32088D01*
X73761Y-31934D01*
X73559Y-31850D01*
X73341Y-31849D01*
X73138Y-31933D01*
X72984Y-32088D01*
X72900Y-32290D01*
X72899Y-32508D01*
X72983Y-32711D01*
X73138Y-32865D01*
X73340Y-32949D01*
X73558Y-32950D01*
X73761Y-32866D01*
X73915Y-32711D01*
X73949Y-32630D01*
X73983Y-32711D01*
X74138Y-32865D01*
X74340Y-32949D01*
X74558Y-32950D01*
X74761Y-32866D01*
X74899Y-32727D01*
X74899Y-32749D01*
X74937Y-32841D01*
X75008Y-32911D01*
X75100Y-32949D01*
X75199Y-32950D01*
X75799Y-32950D01*
X75891Y-32912D01*
X75961Y-32841D01*
X75999Y-32749D01*
X76000Y-32650D01*
X76000Y-33039D01*
X72125Y-33075D01*
X72100Y-36150D01*
X70865Y-36151D01*
X70865Y-33746D01*
X70773Y-33525D01*
X70605Y-33356D01*
X70384Y-33265D01*
X70146Y-33264D01*
X69925Y-33356D01*
X69764Y-33516D01*
X69605Y-33356D01*
X69384Y-33265D01*
X69146Y-33264D01*
X68925Y-33356D01*
X68850Y-33430D01*
X68827Y-33373D01*
X68756Y-33303D01*
X68664Y-33265D01*
X68565Y-33264D01*
X67865Y-33264D01*
X67773Y-33302D01*
X67703Y-33373D01*
X67665Y-33465D01*
X67664Y-33564D01*
X67664Y-34264D01*
X67702Y-34356D01*
X67773Y-34426D01*
X67865Y-34464D01*
X67964Y-34465D01*
X68664Y-34465D01*
X68756Y-34427D01*
X68826Y-34356D01*
X68850Y-34299D01*
X68924Y-34373D01*
X69145Y-34464D01*
X69383Y-34465D01*
X69604Y-34373D01*
X69765Y-34213D01*
X69924Y-34373D01*
X70145Y-34464D01*
X70383Y-34465D01*
X70604Y-34373D01*
X70773Y-34205D01*
X70864Y-33984D01*
X70865Y-33746D01*
X70865Y-36151D01*
X66453Y-36157D01*
X66453Y-33679D01*
X66445Y-33381D01*
X66346Y-33141D01*
X66230Y-33090D01*
X66159Y-33160D01*
X66159Y-33019D01*
X66108Y-32903D01*
X65829Y-32796D01*
X65531Y-32804D01*
X65291Y-32903D01*
X65240Y-33019D01*
X65700Y-33479D01*
X66159Y-33019D01*
X66159Y-33160D01*
X65770Y-33550D01*
X66230Y-34009D01*
X66346Y-33958D01*
X66453Y-33679D01*
X66453Y-36157D01*
X66159Y-36158D01*
X66159Y-34080D01*
X65700Y-33620D01*
X65629Y-33691D01*
X65629Y-33550D01*
X65169Y-33090D01*
X65053Y-33141D01*
X64946Y-33420D01*
X64954Y-33718D01*
X65053Y-33958D01*
X65169Y-34009D01*
X65629Y-33550D01*
X65629Y-33691D01*
X65240Y-34080D01*
X65291Y-34196D01*
X65570Y-34303D01*
X65868Y-34295D01*
X66108Y-34196D01*
X66159Y-34080D01*
X66159Y-36158D01*
X65258Y-36159D01*
X65226Y-36082D01*
X65118Y-35973D01*
X64976Y-35915D01*
X64823Y-35914D01*
X64682Y-35973D01*
X64573Y-36081D01*
X64541Y-36160D01*
X63760Y-36161D01*
X63760Y-33891D01*
X63668Y-33670D01*
X63500Y-33501D01*
X63279Y-33410D01*
X63041Y-33409D01*
X62932Y-33454D01*
X62932Y-31208D01*
X62819Y-30935D01*
X62610Y-30726D01*
X62338Y-30613D01*
X62043Y-30612D01*
X61770Y-30725D01*
X61561Y-30934D01*
X61448Y-31206D01*
X61447Y-31501D01*
X61560Y-31774D01*
X61769Y-31983D01*
X62041Y-32096D01*
X62336Y-32097D01*
X62609Y-31984D01*
X62818Y-31775D01*
X62931Y-31503D01*
X62932Y-31208D01*
X62932Y-33454D01*
X62820Y-33501D01*
X62659Y-33661D01*
X62500Y-33501D01*
X62279Y-33410D01*
X62041Y-33409D01*
X61820Y-33501D01*
X61745Y-33575D01*
X61722Y-33518D01*
X61651Y-33448D01*
X61559Y-33410D01*
X61460Y-33409D01*
X60760Y-33409D01*
X60668Y-33447D01*
X60598Y-33518D01*
X60580Y-33561D01*
X60580Y-33489D01*
X60507Y-33313D01*
X60372Y-33178D01*
X60195Y-33105D01*
X60004Y-33104D01*
X59828Y-33177D01*
X59693Y-33312D01*
X59620Y-33489D01*
X59619Y-33680D01*
X59692Y-33856D01*
X59827Y-33991D01*
X60004Y-34064D01*
X60195Y-34065D01*
X60371Y-33992D01*
X60506Y-33857D01*
X60559Y-33728D01*
X60559Y-34409D01*
X60597Y-34501D01*
X60668Y-34571D01*
X60760Y-34609D01*
X60859Y-34610D01*
X61559Y-34610D01*
X61651Y-34572D01*
X61721Y-34501D01*
X61745Y-34444D01*
X61819Y-34518D01*
X62040Y-34609D01*
X62278Y-34610D01*
X62499Y-34518D01*
X62660Y-34358D01*
X62819Y-34518D01*
X63040Y-34609D01*
X63278Y-34610D01*
X63499Y-34518D01*
X63668Y-34350D01*
X63759Y-34129D01*
X63760Y-33891D01*
X63760Y-36161D01*
X58580Y-36168D01*
X58580Y-32604D01*
X58507Y-32428D01*
X58372Y-32293D01*
X58195Y-32220D01*
X58004Y-32219D01*
X57828Y-32292D01*
X57769Y-32351D01*
X57770Y-32214D01*
X57697Y-32038D01*
X57562Y-31903D01*
X57385Y-31830D01*
X57194Y-31829D01*
X57018Y-31902D01*
X56883Y-32037D01*
X56810Y-32214D01*
X56809Y-32405D01*
X56882Y-32581D01*
X57017Y-32716D01*
X57194Y-32789D01*
X57385Y-32790D01*
X57561Y-32717D01*
X57620Y-32658D01*
X57619Y-32795D01*
X57692Y-32971D01*
X57827Y-33106D01*
X58004Y-33179D01*
X58195Y-33180D01*
X58371Y-33107D01*
X58506Y-32972D01*
X58579Y-32795D01*
X58580Y-32604D01*
X58580Y-36168D01*
X57940Y-36169D01*
X57940Y-35494D01*
X57940Y-35065D01*
X57898Y-34854D01*
X57778Y-34676D01*
X57600Y-34557D01*
X57390Y-34515D01*
X57179Y-34557D01*
X57001Y-34676D01*
X56890Y-34842D01*
X56778Y-34676D01*
X56600Y-34557D01*
X56390Y-34515D01*
X56179Y-34557D01*
X56001Y-34676D01*
X55890Y-34842D01*
X55778Y-34676D01*
X55600Y-34557D01*
X55390Y-34515D01*
X55179Y-34557D01*
X55001Y-34676D01*
X54890Y-34842D01*
X54778Y-34676D01*
X54600Y-34557D01*
X54390Y-34515D01*
X54212Y-34550D01*
X54212Y-32749D01*
X54212Y-32482D01*
X54160Y-32220D01*
X54012Y-31999D01*
X53790Y-31851D01*
X53529Y-31799D01*
X53267Y-31851D01*
X53110Y-31956D01*
X53149Y-31862D01*
X53149Y-31638D01*
X53063Y-31430D01*
X52904Y-31271D01*
X52697Y-31185D01*
X52472Y-31184D01*
X52264Y-31270D01*
X52105Y-31429D01*
X52094Y-31455D01*
X52093Y-31453D01*
X51996Y-31423D01*
X51926Y-31494D01*
X51926Y-31353D01*
X51896Y-31256D01*
X51685Y-31180D01*
X51460Y-31191D01*
X51303Y-31256D01*
X51273Y-31353D01*
X51600Y-31679D01*
X51926Y-31353D01*
X51926Y-31494D01*
X51670Y-31750D01*
X51996Y-32076D01*
X52093Y-32046D01*
X52094Y-32044D01*
X52105Y-32069D01*
X52263Y-32228D01*
X52471Y-32314D01*
X52696Y-32315D01*
X52895Y-32232D01*
X52846Y-32482D01*
X52846Y-32749D01*
X52898Y-33011D01*
X53046Y-33232D01*
X53267Y-33381D01*
X53529Y-33433D01*
X53790Y-33381D01*
X54012Y-33232D01*
X54160Y-33011D01*
X54212Y-32749D01*
X54212Y-34550D01*
X54179Y-34557D01*
X54001Y-34676D01*
X53890Y-34842D01*
X53778Y-34676D01*
X53600Y-34557D01*
X53390Y-34515D01*
X53179Y-34557D01*
X53001Y-34676D01*
X52890Y-34842D01*
X52778Y-34676D01*
X52600Y-34557D01*
X52390Y-34515D01*
X52179Y-34557D01*
X52001Y-34676D01*
X51926Y-34788D01*
X51926Y-32146D01*
X51600Y-31820D01*
X51529Y-31891D01*
X51529Y-31750D01*
X51203Y-31423D01*
X51106Y-31453D01*
X51105Y-31455D01*
X51094Y-31430D01*
X50936Y-31271D01*
X50728Y-31185D01*
X50503Y-31184D01*
X50296Y-31270D01*
X50137Y-31429D01*
X50050Y-31637D01*
X50050Y-31861D01*
X50089Y-31956D01*
X49932Y-31851D01*
X49670Y-31799D01*
X49409Y-31851D01*
X49187Y-31999D01*
X49039Y-32220D01*
X48987Y-32482D01*
X48987Y-32749D01*
X49039Y-33011D01*
X49187Y-33232D01*
X49409Y-33381D01*
X49670Y-33433D01*
X49932Y-33381D01*
X50153Y-33232D01*
X50301Y-33011D01*
X50353Y-32749D01*
X50353Y-32482D01*
X50304Y-32232D01*
X50502Y-32314D01*
X50727Y-32315D01*
X50935Y-32229D01*
X51094Y-32070D01*
X51105Y-32044D01*
X51106Y-32046D01*
X51203Y-32076D01*
X51529Y-31750D01*
X51529Y-31891D01*
X51273Y-32146D01*
X51303Y-32243D01*
X51514Y-32319D01*
X51739Y-32308D01*
X51896Y-32243D01*
X51926Y-32146D01*
X51926Y-34788D01*
X51890Y-34842D01*
X51778Y-34676D01*
X51600Y-34557D01*
X51390Y-34515D01*
X51179Y-34557D01*
X51001Y-34676D01*
X50890Y-34842D01*
X50778Y-34676D01*
X50600Y-34557D01*
X50390Y-34515D01*
X50179Y-34557D01*
X50001Y-34676D01*
X49881Y-34854D01*
X49840Y-35065D01*
X49840Y-35494D01*
X49881Y-35705D01*
X50001Y-35883D01*
X50179Y-36002D01*
X50390Y-36044D01*
X50600Y-36002D01*
X50778Y-35883D01*
X50890Y-35717D01*
X51001Y-35883D01*
X51179Y-36002D01*
X51390Y-36044D01*
X51600Y-36002D01*
X51778Y-35883D01*
X51890Y-35717D01*
X52001Y-35883D01*
X52179Y-36002D01*
X52390Y-36044D01*
X52600Y-36002D01*
X52778Y-35883D01*
X52890Y-35717D01*
X53001Y-35883D01*
X53179Y-36002D01*
X53390Y-36044D01*
X53600Y-36002D01*
X53778Y-35883D01*
X53890Y-35717D01*
X54001Y-35883D01*
X54179Y-36002D01*
X54390Y-36044D01*
X54600Y-36002D01*
X54778Y-35883D01*
X54890Y-35717D01*
X55001Y-35883D01*
X55179Y-36002D01*
X55390Y-36044D01*
X55600Y-36002D01*
X55778Y-35883D01*
X55890Y-35717D01*
X56001Y-35883D01*
X56179Y-36002D01*
X56390Y-36044D01*
X56600Y-36002D01*
X56778Y-35883D01*
X56890Y-35717D01*
X57001Y-35883D01*
X57179Y-36002D01*
X57390Y-36044D01*
X57600Y-36002D01*
X57778Y-35883D01*
X57898Y-35705D01*
X57940Y-35494D01*
X57940Y-36169D01*
X49340Y-36180D01*
X49340Y-35494D01*
X49340Y-35065D01*
X49298Y-34854D01*
X49178Y-34676D01*
X49000Y-34557D01*
X48790Y-34515D01*
X48579Y-34557D01*
X48401Y-34676D01*
X48290Y-34842D01*
X48178Y-34676D01*
X48000Y-34557D01*
X47790Y-34515D01*
X47579Y-34557D01*
X47562Y-34568D01*
X47562Y-32699D01*
X47562Y-32432D01*
X47510Y-32170D01*
X47362Y-31949D01*
X47140Y-31801D01*
X46879Y-31749D01*
X46617Y-31801D01*
X46460Y-31906D01*
X46499Y-31812D01*
X46499Y-31588D01*
X46413Y-31380D01*
X46254Y-31221D01*
X46047Y-31135D01*
X45822Y-31134D01*
X45614Y-31220D01*
X45455Y-31379D01*
X45444Y-31405D01*
X45443Y-31403D01*
X45346Y-31373D01*
X45276Y-31444D01*
X45276Y-31303D01*
X45246Y-31206D01*
X45035Y-31130D01*
X44810Y-31141D01*
X44653Y-31206D01*
X44623Y-31303D01*
X44950Y-31629D01*
X45276Y-31303D01*
X45276Y-31444D01*
X45020Y-31700D01*
X45346Y-32026D01*
X45443Y-31996D01*
X45444Y-31994D01*
X45455Y-32019D01*
X45613Y-32178D01*
X45821Y-32264D01*
X46046Y-32265D01*
X46245Y-32182D01*
X46196Y-32432D01*
X46196Y-32699D01*
X46248Y-32961D01*
X46396Y-33182D01*
X46617Y-33331D01*
X46879Y-33383D01*
X47140Y-33331D01*
X47362Y-33182D01*
X47510Y-32961D01*
X47562Y-32699D01*
X47562Y-34568D01*
X47401Y-34676D01*
X47290Y-34842D01*
X47178Y-34676D01*
X47000Y-34557D01*
X46790Y-34515D01*
X46579Y-34557D01*
X46401Y-34676D01*
X46290Y-34842D01*
X46178Y-34676D01*
X46000Y-34557D01*
X45790Y-34515D01*
X45579Y-34557D01*
X45401Y-34676D01*
X45290Y-34842D01*
X45276Y-34821D01*
X45276Y-32096D01*
X44950Y-31770D01*
X44879Y-31841D01*
X44879Y-31700D01*
X44553Y-31373D01*
X44456Y-31403D01*
X44455Y-31405D01*
X44444Y-31380D01*
X44286Y-31221D01*
X44078Y-31135D01*
X43853Y-31134D01*
X43646Y-31220D01*
X43487Y-31379D01*
X43400Y-31587D01*
X43400Y-31811D01*
X43439Y-31906D01*
X43282Y-31801D01*
X43020Y-31749D01*
X42759Y-31801D01*
X42537Y-31949D01*
X42389Y-32170D01*
X42337Y-32432D01*
X42337Y-32699D01*
X42389Y-32961D01*
X42537Y-33182D01*
X42759Y-33331D01*
X43020Y-33383D01*
X43282Y-33331D01*
X43503Y-33182D01*
X43651Y-32961D01*
X43703Y-32699D01*
X43703Y-32432D01*
X43654Y-32182D01*
X43852Y-32264D01*
X44077Y-32265D01*
X44285Y-32179D01*
X44444Y-32020D01*
X44455Y-31994D01*
X44456Y-31996D01*
X44553Y-32026D01*
X44879Y-31700D01*
X44879Y-31841D01*
X44623Y-32096D01*
X44653Y-32193D01*
X44864Y-32269D01*
X45089Y-32258D01*
X45246Y-32193D01*
X45276Y-32096D01*
X45276Y-34821D01*
X45178Y-34676D01*
X45000Y-34557D01*
X44790Y-34515D01*
X44579Y-34557D01*
X44401Y-34676D01*
X44290Y-34842D01*
X44178Y-34676D01*
X44000Y-34557D01*
X43790Y-34515D01*
X43579Y-34557D01*
X43401Y-34676D01*
X43290Y-34842D01*
X43178Y-34676D01*
X43000Y-34557D01*
X42790Y-34515D01*
X42579Y-34557D01*
X42401Y-34676D01*
X42290Y-34842D01*
X42178Y-34676D01*
X42000Y-34557D01*
X41790Y-34515D01*
X41579Y-34557D01*
X41401Y-34676D01*
X41281Y-34854D01*
X41240Y-35065D01*
X41240Y-35494D01*
X41281Y-35705D01*
X41401Y-35883D01*
X41579Y-36002D01*
X41790Y-36044D01*
X42000Y-36002D01*
X42178Y-35883D01*
X42290Y-35717D01*
X42401Y-35883D01*
X42579Y-36002D01*
X42790Y-36044D01*
X43000Y-36002D01*
X43178Y-35883D01*
X43290Y-35717D01*
X43401Y-35883D01*
X43579Y-36002D01*
X43790Y-36044D01*
X44000Y-36002D01*
X44178Y-35883D01*
X44290Y-35717D01*
X44401Y-35883D01*
X44579Y-36002D01*
X44790Y-36044D01*
X45000Y-36002D01*
X45178Y-35883D01*
X45290Y-35717D01*
X45401Y-35883D01*
X45579Y-36002D01*
X45790Y-36044D01*
X46000Y-36002D01*
X46178Y-35883D01*
X46290Y-35717D01*
X46401Y-35883D01*
X46579Y-36002D01*
X46790Y-36044D01*
X47000Y-36002D01*
X47178Y-35883D01*
X47290Y-35717D01*
X47401Y-35883D01*
X47579Y-36002D01*
X47790Y-36044D01*
X48000Y-36002D01*
X48178Y-35883D01*
X48290Y-35717D01*
X48401Y-35883D01*
X48579Y-36002D01*
X48790Y-36044D01*
X49000Y-36002D01*
X49178Y-35883D01*
X49298Y-35705D01*
X49340Y-35494D01*
X49340Y-36180D01*
X40385Y-36192D01*
X40385Y-32573D01*
X40360Y-32513D01*
X40360Y-31673D01*
X40301Y-31532D01*
X40193Y-31423D01*
X40051Y-31365D01*
X39898Y-31364D01*
X39757Y-31423D01*
X39716Y-31463D01*
X39785Y-31298D01*
X39785Y-31082D01*
X39702Y-30881D01*
X39549Y-30728D01*
X39348Y-30644D01*
X39132Y-30644D01*
X38931Y-30727D01*
X38812Y-30846D01*
X38711Y-30744D01*
X38518Y-30664D01*
X38309Y-30664D01*
X38115Y-30744D01*
X38019Y-30840D01*
X37923Y-30744D01*
X37730Y-30664D01*
X37521Y-30664D01*
X37328Y-30744D01*
X37232Y-30840D01*
X37136Y-30744D01*
X36943Y-30664D01*
X36734Y-30664D01*
X36541Y-30744D01*
X36438Y-30846D01*
X36320Y-30728D01*
X36120Y-30644D01*
X35903Y-30644D01*
X35703Y-30727D01*
X35549Y-30880D01*
X35466Y-31081D01*
X35466Y-31297D01*
X35549Y-31498D01*
X35702Y-31651D01*
X35902Y-31735D01*
X36119Y-31735D01*
X36320Y-31652D01*
X36439Y-31533D01*
X36540Y-31635D01*
X36733Y-31715D01*
X36942Y-31715D01*
X37135Y-31635D01*
X37232Y-31539D01*
X37327Y-31635D01*
X37520Y-31715D01*
X37729Y-31715D01*
X37923Y-31635D01*
X38019Y-31539D01*
X38115Y-31635D01*
X38308Y-31715D01*
X38517Y-31715D01*
X38710Y-31635D01*
X38812Y-31533D01*
X38930Y-31651D01*
X39131Y-31735D01*
X39347Y-31735D01*
X39548Y-31652D01*
X39634Y-31567D01*
X39590Y-31673D01*
X39589Y-31826D01*
X39648Y-31967D01*
X39756Y-32076D01*
X39898Y-32134D01*
X40051Y-32135D01*
X40192Y-32076D01*
X40301Y-31968D01*
X40359Y-31826D01*
X40360Y-31673D01*
X40360Y-32513D01*
X40326Y-32432D01*
X40218Y-32323D01*
X40076Y-32265D01*
X39923Y-32264D01*
X39782Y-32323D01*
X39673Y-32431D01*
X39615Y-32573D01*
X39614Y-32726D01*
X39673Y-32867D01*
X39781Y-32976D01*
X39923Y-33034D01*
X40076Y-33035D01*
X40217Y-32976D01*
X40326Y-32868D01*
X40384Y-32726D01*
X40385Y-32573D01*
X40385Y-36192D01*
X39282Y-36194D01*
X39282Y-35280D01*
X39215Y-34945D01*
X39025Y-34661D01*
X38741Y-34471D01*
X38407Y-34405D01*
X38372Y-34405D01*
X38038Y-34471D01*
X37754Y-34661D01*
X37564Y-34945D01*
X37497Y-35280D01*
X37564Y-35614D01*
X37754Y-35898D01*
X38038Y-36088D01*
X38372Y-36155D01*
X38407Y-36155D01*
X38741Y-36088D01*
X39025Y-35898D01*
X39215Y-35614D01*
X39282Y-35280D01*
X39282Y-36194D01*
X36387Y-36198D01*
X36429Y-36095D01*
X36430Y-35904D01*
X36357Y-35728D01*
X36222Y-35593D01*
X36045Y-35520D01*
X35854Y-35519D01*
X35678Y-35592D01*
X35543Y-35727D01*
X35470Y-35904D01*
X35469Y-36095D01*
X35542Y-36271D01*
X35677Y-36406D01*
X35854Y-36479D01*
X36045Y-36480D01*
X36221Y-36407D01*
X36349Y-36279D01*
X36250Y-42000D01*
X35853Y-42000D01*
X35841Y-41988D01*
X35749Y-41950D01*
X35650Y-41949D01*
X34650Y-41949D01*
X34558Y-41987D01*
X34546Y-42000D01*
X34071Y-42000D01*
X34058Y-35178D01*
X34171Y-35132D01*
X34306Y-34997D01*
X34379Y-34820D01*
X34380Y-34629D01*
X34307Y-34453D01*
X34172Y-34318D01*
X34056Y-34270D01*
X34054Y-33284D01*
X34121Y-33257D01*
X34256Y-33122D01*
X34329Y-32945D01*
X34330Y-32754D01*
X34257Y-32578D01*
X34122Y-32443D01*
X34053Y-32414D01*
X34050Y-30650D01*
X34100Y-30650D01*
X34100Y-30579D01*
X58572Y-30579D01*
X58565Y-30598D01*
X58564Y-30751D01*
X58623Y-30892D01*
X58731Y-31001D01*
X58873Y-31059D01*
X59026Y-31060D01*
X59167Y-31001D01*
X59276Y-30893D01*
X59334Y-30751D01*
X59335Y-30598D01*
X59327Y-30579D01*
X68800Y-30579D01*
X68725Y-30610D01*
X68516Y-30819D01*
X68403Y-31091D01*
X68402Y-31386D01*
X68515Y-31659D01*
X68724Y-31868D01*
X68996Y-31981D01*
X69291Y-31982D01*
X69564Y-31869D01*
X69773Y-31660D01*
X69886Y-31388D01*
X69887Y-31093D01*
X69774Y-30820D01*
X69565Y-30611D01*
X69489Y-30579D01*
X85849Y-30579D01*
G54D10*
G36*
X36299Y-47850D02*
X36003Y-47850D01*
X35941Y-47788D01*
X35849Y-47750D01*
X35750Y-47749D01*
X34750Y-47749D01*
X34658Y-47787D01*
X34596Y-47850D01*
X33705Y-47850D01*
X33705Y-46954D01*
X33655Y-46833D01*
X33655Y-42529D01*
X33582Y-42353D01*
X33447Y-42218D01*
X33270Y-42145D01*
X33079Y-42144D01*
X32903Y-42217D01*
X32768Y-42352D01*
X32695Y-42529D01*
X32694Y-42720D01*
X32767Y-42896D01*
X32902Y-43031D01*
X33079Y-43104D01*
X33270Y-43105D01*
X33446Y-43032D01*
X33581Y-42897D01*
X33654Y-42720D01*
X33655Y-42529D01*
X33655Y-46833D01*
X33632Y-46778D01*
X33497Y-46643D01*
X33320Y-46570D01*
X33129Y-46569D01*
X32953Y-46642D01*
X32818Y-46777D01*
X32745Y-46954D01*
X32744Y-47145D01*
X32817Y-47321D01*
X32952Y-47456D01*
X33129Y-47529D01*
X33320Y-47530D01*
X33496Y-47457D01*
X33631Y-47322D01*
X33704Y-47145D01*
X33705Y-46954D01*
X33705Y-47850D01*
X33627Y-47850D01*
X33649Y-55020D01*
X32005Y-55020D01*
X32005Y-50954D01*
X31932Y-50778D01*
X31797Y-50643D01*
X31620Y-50570D01*
X31429Y-50569D01*
X31253Y-50642D01*
X31118Y-50777D01*
X31045Y-50954D01*
X31044Y-51145D01*
X31117Y-51321D01*
X31252Y-51456D01*
X31429Y-51529D01*
X31620Y-51530D01*
X31796Y-51457D01*
X31931Y-51322D01*
X32004Y-51145D01*
X32005Y-50954D01*
X32005Y-55020D01*
X29880Y-55020D01*
X29880Y-32754D01*
X29807Y-32578D01*
X29672Y-32443D01*
X29495Y-32370D01*
X29335Y-32369D01*
X29335Y-31323D01*
X29276Y-31182D01*
X29168Y-31073D01*
X29026Y-31015D01*
X28873Y-31014D01*
X28732Y-31073D01*
X28623Y-31181D01*
X28565Y-31323D01*
X28564Y-31476D01*
X28623Y-31617D01*
X28731Y-31726D01*
X28873Y-31784D01*
X29026Y-31785D01*
X29167Y-31726D01*
X29276Y-31618D01*
X29334Y-31476D01*
X29335Y-31323D01*
X29335Y-32369D01*
X29304Y-32369D01*
X29128Y-32442D01*
X28993Y-32577D01*
X28920Y-32754D01*
X28919Y-32945D01*
X28992Y-33121D01*
X29127Y-33256D01*
X29304Y-33329D01*
X29495Y-33330D01*
X29671Y-33257D01*
X29806Y-33122D01*
X29879Y-32945D01*
X29880Y-32754D01*
X29880Y-55020D01*
X28980Y-55020D01*
X28980Y-51722D01*
X28852Y-51413D01*
X28616Y-51176D01*
X28339Y-51062D01*
X28614Y-50948D01*
X28851Y-50712D01*
X28979Y-50403D01*
X28980Y-50068D01*
X28852Y-49759D01*
X28616Y-49523D01*
X28339Y-49408D01*
X28614Y-49294D01*
X28851Y-49058D01*
X28979Y-48749D01*
X28980Y-48415D01*
X28852Y-48106D01*
X28616Y-47869D01*
X28339Y-47754D01*
X28614Y-47641D01*
X28851Y-47405D01*
X28979Y-47096D01*
X28980Y-46761D01*
X28852Y-46452D01*
X28616Y-46216D01*
X28339Y-46101D01*
X28614Y-45987D01*
X28851Y-45751D01*
X28979Y-45442D01*
X28980Y-45108D01*
X28852Y-44799D01*
X28616Y-44562D01*
X28339Y-44447D01*
X28614Y-44334D01*
X28851Y-44098D01*
X28979Y-43789D01*
X28980Y-43454D01*
X28852Y-43145D01*
X28616Y-42909D01*
X28339Y-42794D01*
X28614Y-42680D01*
X28851Y-42444D01*
X28979Y-42135D01*
X28980Y-41801D01*
X28852Y-41492D01*
X28616Y-41255D01*
X28339Y-41140D01*
X28614Y-41027D01*
X28851Y-40790D01*
X28979Y-40482D01*
X28980Y-40147D01*
X28852Y-39838D01*
X28616Y-39602D01*
X28339Y-39487D01*
X28614Y-39373D01*
X28851Y-39137D01*
X28979Y-38828D01*
X28980Y-38494D01*
X28852Y-38185D01*
X28616Y-37948D01*
X28339Y-37833D01*
X28614Y-37720D01*
X28851Y-37483D01*
X28979Y-37175D01*
X28980Y-36840D01*
X28852Y-36531D01*
X28616Y-36294D01*
X28339Y-36180D01*
X28614Y-36066D01*
X28851Y-35830D01*
X28979Y-35521D01*
X28980Y-35187D01*
X28852Y-34878D01*
X28616Y-34641D01*
X28339Y-34526D01*
X28614Y-34413D01*
X28851Y-34176D01*
X28979Y-33867D01*
X28980Y-33533D01*
X28852Y-33224D01*
X28616Y-32987D01*
X28307Y-32859D01*
X27972Y-32859D01*
X27663Y-32987D01*
X27427Y-33223D01*
X27298Y-33532D01*
X27298Y-33866D01*
X27426Y-34175D01*
X27662Y-34412D01*
X27938Y-34526D01*
X27663Y-34640D01*
X27427Y-34876D01*
X27298Y-35185D01*
X27298Y-35520D01*
X27426Y-35829D01*
X27662Y-36065D01*
X27938Y-36180D01*
X27663Y-36294D01*
X27427Y-36530D01*
X27298Y-36839D01*
X27298Y-37173D01*
X27426Y-37482D01*
X27662Y-37719D01*
X27938Y-37833D01*
X27663Y-37947D01*
X27427Y-38183D01*
X27298Y-38492D01*
X27298Y-38827D01*
X27426Y-39136D01*
X27662Y-39372D01*
X27938Y-39487D01*
X27663Y-39601D01*
X27427Y-39837D01*
X27298Y-40146D01*
X27298Y-40480D01*
X27426Y-40789D01*
X27662Y-41026D01*
X27938Y-41141D01*
X27663Y-41254D01*
X27427Y-41490D01*
X27298Y-41799D01*
X27298Y-42134D01*
X27426Y-42443D01*
X27662Y-42679D01*
X27938Y-42794D01*
X27663Y-42908D01*
X27427Y-43144D01*
X27298Y-43453D01*
X27298Y-43787D01*
X27426Y-44096D01*
X27662Y-44333D01*
X27938Y-44448D01*
X27663Y-44561D01*
X27427Y-44798D01*
X27298Y-45106D01*
X27298Y-45441D01*
X27426Y-45750D01*
X27662Y-45986D01*
X27938Y-46101D01*
X27663Y-46215D01*
X27427Y-46451D01*
X27298Y-46760D01*
X27298Y-47094D01*
X27426Y-47403D01*
X27662Y-47640D01*
X27938Y-47755D01*
X27663Y-47868D01*
X27427Y-48105D01*
X27298Y-48413D01*
X27298Y-48748D01*
X27426Y-49057D01*
X27662Y-49294D01*
X27938Y-49408D01*
X27663Y-49522D01*
X27427Y-49758D01*
X27298Y-50067D01*
X27298Y-50401D01*
X27426Y-50710D01*
X27662Y-50947D01*
X27938Y-51062D01*
X27663Y-51175D01*
X27427Y-51412D01*
X27298Y-51721D01*
X27298Y-52055D01*
X27426Y-52364D01*
X27662Y-52601D01*
X27971Y-52729D01*
X27982Y-52729D01*
X27828Y-52792D01*
X27693Y-52927D01*
X27620Y-53104D01*
X27619Y-53295D01*
X27692Y-53471D01*
X27827Y-53606D01*
X28004Y-53679D01*
X28195Y-53680D01*
X28371Y-53607D01*
X28506Y-53472D01*
X28579Y-53295D01*
X28580Y-53104D01*
X28507Y-52928D01*
X28372Y-52793D01*
X28218Y-52729D01*
X28305Y-52729D01*
X28614Y-52601D01*
X28851Y-52365D01*
X28979Y-52056D01*
X28980Y-51722D01*
X28980Y-55020D01*
X26817Y-55020D01*
X26817Y-48732D01*
X26817Y-45425D01*
X26814Y-45274D01*
X26814Y-43454D01*
X26687Y-43145D01*
X26450Y-42909D01*
X26174Y-42794D01*
X26449Y-42680D01*
X26686Y-42444D01*
X26814Y-42135D01*
X26814Y-41801D01*
X26687Y-41492D01*
X26450Y-41255D01*
X26174Y-41140D01*
X26449Y-41027D01*
X26686Y-40790D01*
X26814Y-40482D01*
X26814Y-40147D01*
X26687Y-39838D01*
X26450Y-39602D01*
X26174Y-39487D01*
X26449Y-39373D01*
X26686Y-39137D01*
X26814Y-38828D01*
X26814Y-38494D01*
X26687Y-38185D01*
X26450Y-37948D01*
X26174Y-37833D01*
X26449Y-37720D01*
X26686Y-37483D01*
X26814Y-37175D01*
X26814Y-36840D01*
X26687Y-36531D01*
X26450Y-36294D01*
X26174Y-36180D01*
X26449Y-36066D01*
X26686Y-35830D01*
X26814Y-35521D01*
X26814Y-35187D01*
X26687Y-34878D01*
X26450Y-34641D01*
X26174Y-34526D01*
X26449Y-34413D01*
X26686Y-34176D01*
X26814Y-33867D01*
X26814Y-33533D01*
X26687Y-33224D01*
X26450Y-32987D01*
X26141Y-32859D01*
X25807Y-32859D01*
X25498Y-32987D01*
X25261Y-33223D01*
X25133Y-33532D01*
X25133Y-33866D01*
X25261Y-34175D01*
X25497Y-34412D01*
X25773Y-34526D01*
X25498Y-34640D01*
X25261Y-34876D01*
X25133Y-35185D01*
X25133Y-35520D01*
X25261Y-35829D01*
X25497Y-36065D01*
X25773Y-36180D01*
X25498Y-36294D01*
X25261Y-36530D01*
X25133Y-36839D01*
X25133Y-37173D01*
X25261Y-37482D01*
X25497Y-37719D01*
X25773Y-37833D01*
X25498Y-37947D01*
X25261Y-38183D01*
X25133Y-38492D01*
X25133Y-38827D01*
X25261Y-39136D01*
X25497Y-39372D01*
X25773Y-39487D01*
X25498Y-39601D01*
X25261Y-39837D01*
X25133Y-40146D01*
X25133Y-40480D01*
X25261Y-40789D01*
X25497Y-41026D01*
X25773Y-41141D01*
X25498Y-41254D01*
X25261Y-41490D01*
X25133Y-41799D01*
X25133Y-42134D01*
X25261Y-42443D01*
X25497Y-42679D01*
X25773Y-42794D01*
X25498Y-42908D01*
X25261Y-43144D01*
X25133Y-43453D01*
X25133Y-43787D01*
X25261Y-44096D01*
X25497Y-44333D01*
X25769Y-44446D01*
X25511Y-44553D01*
X25448Y-44678D01*
X25974Y-45204D01*
X26499Y-44678D01*
X26436Y-44553D01*
X26171Y-44449D01*
X26449Y-44334D01*
X26686Y-44098D01*
X26814Y-43789D01*
X26814Y-43454D01*
X26814Y-45274D01*
X26811Y-45091D01*
X26695Y-44812D01*
X26570Y-44749D01*
X26044Y-45274D01*
X26570Y-45800D01*
X26695Y-45737D01*
X26817Y-45425D01*
X26817Y-48732D01*
X26814Y-48581D01*
X26814Y-46761D01*
X26687Y-46452D01*
X26450Y-46216D01*
X26178Y-46103D01*
X26436Y-45996D01*
X26499Y-45870D01*
X25974Y-45345D01*
X25903Y-45416D01*
X25903Y-45274D01*
X25377Y-44749D01*
X25252Y-44812D01*
X25130Y-45123D01*
X25136Y-45458D01*
X25252Y-45737D01*
X25377Y-45800D01*
X25903Y-45274D01*
X25903Y-45416D01*
X25448Y-45870D01*
X25511Y-45996D01*
X25776Y-46100D01*
X25498Y-46215D01*
X25261Y-46451D01*
X25133Y-46760D01*
X25133Y-47094D01*
X25261Y-47403D01*
X25497Y-47640D01*
X25769Y-47753D01*
X25511Y-47860D01*
X25448Y-47985D01*
X25974Y-48511D01*
X26499Y-47985D01*
X26436Y-47860D01*
X26171Y-47756D01*
X26449Y-47641D01*
X26686Y-47405D01*
X26814Y-47096D01*
X26814Y-46761D01*
X26814Y-48581D01*
X26811Y-48398D01*
X26695Y-48119D01*
X26570Y-48056D01*
X26044Y-48581D01*
X26570Y-49107D01*
X26695Y-49044D01*
X26817Y-48732D01*
X26817Y-55020D01*
X26814Y-55020D01*
X26814Y-51722D01*
X26687Y-51413D01*
X26450Y-51176D01*
X26174Y-51062D01*
X26449Y-50948D01*
X26686Y-50712D01*
X26814Y-50403D01*
X26814Y-50068D01*
X26687Y-49759D01*
X26450Y-49523D01*
X26178Y-49410D01*
X26436Y-49303D01*
X26499Y-49177D01*
X25974Y-48652D01*
X25903Y-48723D01*
X25903Y-48581D01*
X25377Y-48056D01*
X25252Y-48119D01*
X25130Y-48430D01*
X25136Y-48765D01*
X25252Y-49044D01*
X25377Y-49107D01*
X25903Y-48581D01*
X25903Y-48723D01*
X25448Y-49177D01*
X25511Y-49303D01*
X25776Y-49407D01*
X25498Y-49522D01*
X25261Y-49758D01*
X25133Y-50067D01*
X25133Y-50401D01*
X25261Y-50710D01*
X25497Y-50947D01*
X25773Y-51062D01*
X25498Y-51175D01*
X25261Y-51412D01*
X25133Y-51721D01*
X25133Y-52055D01*
X25261Y-52364D01*
X25497Y-52601D01*
X25806Y-52729D01*
X26140Y-52729D01*
X26449Y-52601D01*
X26686Y-52365D01*
X26814Y-52056D01*
X26814Y-51722D01*
X26814Y-55020D01*
X23940Y-55020D01*
X23940Y-53933D01*
X23940Y-51722D01*
X23940Y-33533D01*
X23813Y-33224D01*
X23576Y-32987D01*
X23267Y-32859D01*
X22933Y-32859D01*
X22624Y-32987D01*
X22387Y-33223D01*
X22259Y-33532D01*
X22259Y-33866D01*
X22387Y-34175D01*
X22623Y-34412D01*
X22932Y-34540D01*
X23266Y-34540D01*
X23575Y-34413D01*
X23812Y-34176D01*
X23940Y-33867D01*
X23940Y-33533D01*
X23940Y-51722D01*
X23813Y-51413D01*
X23576Y-51176D01*
X23267Y-51048D01*
X22933Y-51048D01*
X22624Y-51175D01*
X22387Y-51412D01*
X22259Y-51721D01*
X22259Y-52055D01*
X22387Y-52364D01*
X22623Y-52601D01*
X22932Y-52729D01*
X23266Y-52729D01*
X23575Y-52601D01*
X23812Y-52365D01*
X23940Y-52056D01*
X23940Y-51722D01*
X23940Y-53933D01*
X23813Y-53624D01*
X23576Y-53387D01*
X23267Y-53259D01*
X22933Y-53259D01*
X22624Y-53387D01*
X22387Y-53623D01*
X22259Y-53932D01*
X22259Y-54266D01*
X22387Y-54575D01*
X22623Y-54812D01*
X22932Y-54940D01*
X23266Y-54940D01*
X23575Y-54813D01*
X23812Y-54576D01*
X23940Y-54267D01*
X23940Y-53933D01*
X23940Y-55020D01*
X21529Y-55020D01*
X21529Y-30625D01*
X22874Y-30625D01*
X22724Y-30687D01*
X22487Y-30923D01*
X22359Y-31232D01*
X22359Y-31566D01*
X22487Y-31875D01*
X22723Y-32112D01*
X23032Y-32240D01*
X23366Y-32240D01*
X23675Y-32113D01*
X23912Y-31876D01*
X24040Y-31567D01*
X24040Y-31233D01*
X23913Y-30924D01*
X23676Y-30687D01*
X23525Y-30625D01*
X33575Y-30625D01*
X33580Y-32441D01*
X33578Y-32442D01*
X33443Y-32577D01*
X33370Y-32754D01*
X33369Y-32945D01*
X33442Y-33121D01*
X33577Y-33256D01*
X33583Y-33258D01*
X33586Y-34359D01*
X33493Y-34452D01*
X33420Y-34629D01*
X33419Y-34820D01*
X33492Y-34996D01*
X33588Y-35092D01*
X33611Y-42350D01*
X34050Y-42350D01*
X34487Y-42340D01*
X34487Y-42341D01*
X34558Y-42411D01*
X34650Y-42449D01*
X34749Y-42450D01*
X35749Y-42450D01*
X35841Y-42412D01*
X35911Y-42341D01*
X35925Y-42308D01*
X36250Y-42301D01*
X36258Y-43247D01*
X36258Y-43248D01*
X36220Y-43340D01*
X36219Y-43439D01*
X36219Y-44439D01*
X36257Y-44531D01*
X36270Y-44543D01*
X36274Y-44962D01*
X36258Y-44978D01*
X36220Y-45070D01*
X36219Y-45169D01*
X36219Y-46169D01*
X36257Y-46261D01*
X36285Y-46289D01*
X36299Y-47850D01*
X36299Y-47850D01*
G37*
G54D31*
X36299Y-47850D02*
X36003Y-47850D01*
X35941Y-47788D01*
X35849Y-47750D01*
X35750Y-47749D01*
X34750Y-47749D01*
X34658Y-47787D01*
X34596Y-47850D01*
X33705Y-47850D01*
X33705Y-46954D01*
X33655Y-46833D01*
X33655Y-42529D01*
X33582Y-42353D01*
X33447Y-42218D01*
X33270Y-42145D01*
X33079Y-42144D01*
X32903Y-42217D01*
X32768Y-42352D01*
X32695Y-42529D01*
X32694Y-42720D01*
X32767Y-42896D01*
X32902Y-43031D01*
X33079Y-43104D01*
X33270Y-43105D01*
X33446Y-43032D01*
X33581Y-42897D01*
X33654Y-42720D01*
X33655Y-42529D01*
X33655Y-46833D01*
X33632Y-46778D01*
X33497Y-46643D01*
X33320Y-46570D01*
X33129Y-46569D01*
X32953Y-46642D01*
X32818Y-46777D01*
X32745Y-46954D01*
X32744Y-47145D01*
X32817Y-47321D01*
X32952Y-47456D01*
X33129Y-47529D01*
X33320Y-47530D01*
X33496Y-47457D01*
X33631Y-47322D01*
X33704Y-47145D01*
X33705Y-46954D01*
X33705Y-47850D01*
X33627Y-47850D01*
X33649Y-55020D01*
X32005Y-55020D01*
X32005Y-50954D01*
X31932Y-50778D01*
X31797Y-50643D01*
X31620Y-50570D01*
X31429Y-50569D01*
X31253Y-50642D01*
X31118Y-50777D01*
X31045Y-50954D01*
X31044Y-51145D01*
X31117Y-51321D01*
X31252Y-51456D01*
X31429Y-51529D01*
X31620Y-51530D01*
X31796Y-51457D01*
X31931Y-51322D01*
X32004Y-51145D01*
X32005Y-50954D01*
X32005Y-55020D01*
X29880Y-55020D01*
X29880Y-32754D01*
X29807Y-32578D01*
X29672Y-32443D01*
X29495Y-32370D01*
X29335Y-32369D01*
X29335Y-31323D01*
X29276Y-31182D01*
X29168Y-31073D01*
X29026Y-31015D01*
X28873Y-31014D01*
X28732Y-31073D01*
X28623Y-31181D01*
X28565Y-31323D01*
X28564Y-31476D01*
X28623Y-31617D01*
X28731Y-31726D01*
X28873Y-31784D01*
X29026Y-31785D01*
X29167Y-31726D01*
X29276Y-31618D01*
X29334Y-31476D01*
X29335Y-31323D01*
X29335Y-32369D01*
X29304Y-32369D01*
X29128Y-32442D01*
X28993Y-32577D01*
X28920Y-32754D01*
X28919Y-32945D01*
X28992Y-33121D01*
X29127Y-33256D01*
X29304Y-33329D01*
X29495Y-33330D01*
X29671Y-33257D01*
X29806Y-33122D01*
X29879Y-32945D01*
X29880Y-32754D01*
X29880Y-55020D01*
X28980Y-55020D01*
X28980Y-51722D01*
X28852Y-51413D01*
X28616Y-51176D01*
X28339Y-51062D01*
X28614Y-50948D01*
X28851Y-50712D01*
X28979Y-50403D01*
X28980Y-50068D01*
X28852Y-49759D01*
X28616Y-49523D01*
X28339Y-49408D01*
X28614Y-49294D01*
X28851Y-49058D01*
X28979Y-48749D01*
X28980Y-48415D01*
X28852Y-48106D01*
X28616Y-47869D01*
X28339Y-47754D01*
X28614Y-47641D01*
X28851Y-47405D01*
X28979Y-47096D01*
X28980Y-46761D01*
X28852Y-46452D01*
X28616Y-46216D01*
X28339Y-46101D01*
X28614Y-45987D01*
X28851Y-45751D01*
X28979Y-45442D01*
X28980Y-45108D01*
X28852Y-44799D01*
X28616Y-44562D01*
X28339Y-44447D01*
X28614Y-44334D01*
X28851Y-44098D01*
X28979Y-43789D01*
X28980Y-43454D01*
X28852Y-43145D01*
X28616Y-42909D01*
X28339Y-42794D01*
X28614Y-42680D01*
X28851Y-42444D01*
X28979Y-42135D01*
X28980Y-41801D01*
X28852Y-41492D01*
X28616Y-41255D01*
X28339Y-41140D01*
X28614Y-41027D01*
X28851Y-40790D01*
X28979Y-40482D01*
X28980Y-40147D01*
X28852Y-39838D01*
X28616Y-39602D01*
X28339Y-39487D01*
X28614Y-39373D01*
X28851Y-39137D01*
X28979Y-38828D01*
X28980Y-38494D01*
X28852Y-38185D01*
X28616Y-37948D01*
X28339Y-37833D01*
X28614Y-37720D01*
X28851Y-37483D01*
X28979Y-37175D01*
X28980Y-36840D01*
X28852Y-36531D01*
X28616Y-36294D01*
X28339Y-36180D01*
X28614Y-36066D01*
X28851Y-35830D01*
X28979Y-35521D01*
X28980Y-35187D01*
X28852Y-34878D01*
X28616Y-34641D01*
X28339Y-34526D01*
X28614Y-34413D01*
X28851Y-34176D01*
X28979Y-33867D01*
X28980Y-33533D01*
X28852Y-33224D01*
X28616Y-32987D01*
X28307Y-32859D01*
X27972Y-32859D01*
X27663Y-32987D01*
X27427Y-33223D01*
X27298Y-33532D01*
X27298Y-33866D01*
X27426Y-34175D01*
X27662Y-34412D01*
X27938Y-34526D01*
X27663Y-34640D01*
X27427Y-34876D01*
X27298Y-35185D01*
X27298Y-35520D01*
X27426Y-35829D01*
X27662Y-36065D01*
X27938Y-36180D01*
X27663Y-36294D01*
X27427Y-36530D01*
X27298Y-36839D01*
X27298Y-37173D01*
X27426Y-37482D01*
X27662Y-37719D01*
X27938Y-37833D01*
X27663Y-37947D01*
X27427Y-38183D01*
X27298Y-38492D01*
X27298Y-38827D01*
X27426Y-39136D01*
X27662Y-39372D01*
X27938Y-39487D01*
X27663Y-39601D01*
X27427Y-39837D01*
X27298Y-40146D01*
X27298Y-40480D01*
X27426Y-40789D01*
X27662Y-41026D01*
X27938Y-41141D01*
X27663Y-41254D01*
X27427Y-41490D01*
X27298Y-41799D01*
X27298Y-42134D01*
X27426Y-42443D01*
X27662Y-42679D01*
X27938Y-42794D01*
X27663Y-42908D01*
X27427Y-43144D01*
X27298Y-43453D01*
X27298Y-43787D01*
X27426Y-44096D01*
X27662Y-44333D01*
X27938Y-44448D01*
X27663Y-44561D01*
X27427Y-44798D01*
X27298Y-45106D01*
X27298Y-45441D01*
X27426Y-45750D01*
X27662Y-45986D01*
X27938Y-46101D01*
X27663Y-46215D01*
X27427Y-46451D01*
X27298Y-46760D01*
X27298Y-47094D01*
X27426Y-47403D01*
X27662Y-47640D01*
X27938Y-47755D01*
X27663Y-47868D01*
X27427Y-48105D01*
X27298Y-48413D01*
X27298Y-48748D01*
X27426Y-49057D01*
X27662Y-49294D01*
X27938Y-49408D01*
X27663Y-49522D01*
X27427Y-49758D01*
X27298Y-50067D01*
X27298Y-50401D01*
X27426Y-50710D01*
X27662Y-50947D01*
X27938Y-51062D01*
X27663Y-51175D01*
X27427Y-51412D01*
X27298Y-51721D01*
X27298Y-52055D01*
X27426Y-52364D01*
X27662Y-52601D01*
X27971Y-52729D01*
X27982Y-52729D01*
X27828Y-52792D01*
X27693Y-52927D01*
X27620Y-53104D01*
X27619Y-53295D01*
X27692Y-53471D01*
X27827Y-53606D01*
X28004Y-53679D01*
X28195Y-53680D01*
X28371Y-53607D01*
X28506Y-53472D01*
X28579Y-53295D01*
X28580Y-53104D01*
X28507Y-52928D01*
X28372Y-52793D01*
X28218Y-52729D01*
X28305Y-52729D01*
X28614Y-52601D01*
X28851Y-52365D01*
X28979Y-52056D01*
X28980Y-51722D01*
X28980Y-55020D01*
X26817Y-55020D01*
X26817Y-48732D01*
X26817Y-45425D01*
X26814Y-45274D01*
X26814Y-43454D01*
X26687Y-43145D01*
X26450Y-42909D01*
X26174Y-42794D01*
X26449Y-42680D01*
X26686Y-42444D01*
X26814Y-42135D01*
X26814Y-41801D01*
X26687Y-41492D01*
X26450Y-41255D01*
X26174Y-41140D01*
X26449Y-41027D01*
X26686Y-40790D01*
X26814Y-40482D01*
X26814Y-40147D01*
X26687Y-39838D01*
X26450Y-39602D01*
X26174Y-39487D01*
X26449Y-39373D01*
X26686Y-39137D01*
X26814Y-38828D01*
X26814Y-38494D01*
X26687Y-38185D01*
X26450Y-37948D01*
X26174Y-37833D01*
X26449Y-37720D01*
X26686Y-37483D01*
X26814Y-37175D01*
X26814Y-36840D01*
X26687Y-36531D01*
X26450Y-36294D01*
X26174Y-36180D01*
X26449Y-36066D01*
X26686Y-35830D01*
X26814Y-35521D01*
X26814Y-35187D01*
X26687Y-34878D01*
X26450Y-34641D01*
X26174Y-34526D01*
X26449Y-34413D01*
X26686Y-34176D01*
X26814Y-33867D01*
X26814Y-33533D01*
X26687Y-33224D01*
X26450Y-32987D01*
X26141Y-32859D01*
X25807Y-32859D01*
X25498Y-32987D01*
X25261Y-33223D01*
X25133Y-33532D01*
X25133Y-33866D01*
X25261Y-34175D01*
X25497Y-34412D01*
X25773Y-34526D01*
X25498Y-34640D01*
X25261Y-34876D01*
X25133Y-35185D01*
X25133Y-35520D01*
X25261Y-35829D01*
X25497Y-36065D01*
X25773Y-36180D01*
X25498Y-36294D01*
X25261Y-36530D01*
X25133Y-36839D01*
X25133Y-37173D01*
X25261Y-37482D01*
X25497Y-37719D01*
X25773Y-37833D01*
X25498Y-37947D01*
X25261Y-38183D01*
X25133Y-38492D01*
X25133Y-38827D01*
X25261Y-39136D01*
X25497Y-39372D01*
X25773Y-39487D01*
X25498Y-39601D01*
X25261Y-39837D01*
X25133Y-40146D01*
X25133Y-40480D01*
X25261Y-40789D01*
X25497Y-41026D01*
X25773Y-41141D01*
X25498Y-41254D01*
X25261Y-41490D01*
X25133Y-41799D01*
X25133Y-42134D01*
X25261Y-42443D01*
X25497Y-42679D01*
X25773Y-42794D01*
X25498Y-42908D01*
X25261Y-43144D01*
X25133Y-43453D01*
X25133Y-43787D01*
X25261Y-44096D01*
X25497Y-44333D01*
X25769Y-44446D01*
X25511Y-44553D01*
X25448Y-44678D01*
X25974Y-45204D01*
X26499Y-44678D01*
X26436Y-44553D01*
X26171Y-44449D01*
X26449Y-44334D01*
X26686Y-44098D01*
X26814Y-43789D01*
X26814Y-43454D01*
X26814Y-45274D01*
X26811Y-45091D01*
X26695Y-44812D01*
X26570Y-44749D01*
X26044Y-45274D01*
X26570Y-45800D01*
X26695Y-45737D01*
X26817Y-45425D01*
X26817Y-48732D01*
X26814Y-48581D01*
X26814Y-46761D01*
X26687Y-46452D01*
X26450Y-46216D01*
X26178Y-46103D01*
X26436Y-45996D01*
X26499Y-45870D01*
X25974Y-45345D01*
X25903Y-45416D01*
X25903Y-45274D01*
X25377Y-44749D01*
X25252Y-44812D01*
X25130Y-45123D01*
X25136Y-45458D01*
X25252Y-45737D01*
X25377Y-45800D01*
X25903Y-45274D01*
X25903Y-45416D01*
X25448Y-45870D01*
X25511Y-45996D01*
X25776Y-46100D01*
X25498Y-46215D01*
X25261Y-46451D01*
X25133Y-46760D01*
X25133Y-47094D01*
X25261Y-47403D01*
X25497Y-47640D01*
X25769Y-47753D01*
X25511Y-47860D01*
X25448Y-47985D01*
X25974Y-48511D01*
X26499Y-47985D01*
X26436Y-47860D01*
X26171Y-47756D01*
X26449Y-47641D01*
X26686Y-47405D01*
X26814Y-47096D01*
X26814Y-46761D01*
X26814Y-48581D01*
X26811Y-48398D01*
X26695Y-48119D01*
X26570Y-48056D01*
X26044Y-48581D01*
X26570Y-49107D01*
X26695Y-49044D01*
X26817Y-48732D01*
X26817Y-55020D01*
X26814Y-55020D01*
X26814Y-51722D01*
X26687Y-51413D01*
X26450Y-51176D01*
X26174Y-51062D01*
X26449Y-50948D01*
X26686Y-50712D01*
X26814Y-50403D01*
X26814Y-50068D01*
X26687Y-49759D01*
X26450Y-49523D01*
X26178Y-49410D01*
X26436Y-49303D01*
X26499Y-49177D01*
X25974Y-48652D01*
X25903Y-48723D01*
X25903Y-48581D01*
X25377Y-48056D01*
X25252Y-48119D01*
X25130Y-48430D01*
X25136Y-48765D01*
X25252Y-49044D01*
X25377Y-49107D01*
X25903Y-48581D01*
X25903Y-48723D01*
X25448Y-49177D01*
X25511Y-49303D01*
X25776Y-49407D01*
X25498Y-49522D01*
X25261Y-49758D01*
X25133Y-50067D01*
X25133Y-50401D01*
X25261Y-50710D01*
X25497Y-50947D01*
X25773Y-51062D01*
X25498Y-51175D01*
X25261Y-51412D01*
X25133Y-51721D01*
X25133Y-52055D01*
X25261Y-52364D01*
X25497Y-52601D01*
X25806Y-52729D01*
X26140Y-52729D01*
X26449Y-52601D01*
X26686Y-52365D01*
X26814Y-52056D01*
X26814Y-51722D01*
X26814Y-55020D01*
X23940Y-55020D01*
X23940Y-53933D01*
X23940Y-51722D01*
X23940Y-33533D01*
X23813Y-33224D01*
X23576Y-32987D01*
X23267Y-32859D01*
X22933Y-32859D01*
X22624Y-32987D01*
X22387Y-33223D01*
X22259Y-33532D01*
X22259Y-33866D01*
X22387Y-34175D01*
X22623Y-34412D01*
X22932Y-34540D01*
X23266Y-34540D01*
X23575Y-34413D01*
X23812Y-34176D01*
X23940Y-33867D01*
X23940Y-33533D01*
X23940Y-51722D01*
X23813Y-51413D01*
X23576Y-51176D01*
X23267Y-51048D01*
X22933Y-51048D01*
X22624Y-51175D01*
X22387Y-51412D01*
X22259Y-51721D01*
X22259Y-52055D01*
X22387Y-52364D01*
X22623Y-52601D01*
X22932Y-52729D01*
X23266Y-52729D01*
X23575Y-52601D01*
X23812Y-52365D01*
X23940Y-52056D01*
X23940Y-51722D01*
X23940Y-53933D01*
X23813Y-53624D01*
X23576Y-53387D01*
X23267Y-53259D01*
X22933Y-53259D01*
X22624Y-53387D01*
X22387Y-53623D01*
X22259Y-53932D01*
X22259Y-54266D01*
X22387Y-54575D01*
X22623Y-54812D01*
X22932Y-54940D01*
X23266Y-54940D01*
X23575Y-54813D01*
X23812Y-54576D01*
X23940Y-54267D01*
X23940Y-53933D01*
X23940Y-55020D01*
X21529Y-55020D01*
X21529Y-30625D01*
X22874Y-30625D01*
X22724Y-30687D01*
X22487Y-30923D01*
X22359Y-31232D01*
X22359Y-31566D01*
X22487Y-31875D01*
X22723Y-32112D01*
X23032Y-32240D01*
X23366Y-32240D01*
X23675Y-32113D01*
X23912Y-31876D01*
X24040Y-31567D01*
X24040Y-31233D01*
X23913Y-30924D01*
X23676Y-30687D01*
X23525Y-30625D01*
X33575Y-30625D01*
X33580Y-32441D01*
X33578Y-32442D01*
X33443Y-32577D01*
X33370Y-32754D01*
X33369Y-32945D01*
X33442Y-33121D01*
X33577Y-33256D01*
X33583Y-33258D01*
X33586Y-34359D01*
X33493Y-34452D01*
X33420Y-34629D01*
X33419Y-34820D01*
X33492Y-34996D01*
X33588Y-35092D01*
X33611Y-42350D01*
X34050Y-42350D01*
X34487Y-42340D01*
X34487Y-42341D01*
X34558Y-42411D01*
X34650Y-42449D01*
X34749Y-42450D01*
X35749Y-42450D01*
X35841Y-42412D01*
X35911Y-42341D01*
X35925Y-42308D01*
X36250Y-42301D01*
X36258Y-43247D01*
X36258Y-43248D01*
X36220Y-43340D01*
X36219Y-43439D01*
X36219Y-44439D01*
X36257Y-44531D01*
X36270Y-44543D01*
X36274Y-44962D01*
X36258Y-44978D01*
X36220Y-45070D01*
X36219Y-45169D01*
X36219Y-46169D01*
X36257Y-46261D01*
X36285Y-46289D01*
X36299Y-47850D01*
G54D10*
G36*
X77650Y-55020D02*
X76785Y-55020D01*
X76785Y-53896D01*
X76690Y-53666D01*
X76514Y-53490D01*
X76284Y-53395D01*
X76036Y-53394D01*
X75806Y-53489D01*
X75630Y-53665D01*
X75535Y-53895D01*
X75534Y-54143D01*
X75629Y-54373D01*
X75805Y-54549D01*
X76035Y-54644D01*
X76283Y-54645D01*
X76513Y-54550D01*
X76689Y-54374D01*
X76784Y-54144D01*
X76785Y-53896D01*
X76785Y-55020D01*
X73690Y-55020D01*
X73690Y-52233D01*
X73563Y-51924D01*
X73326Y-51687D01*
X73017Y-51559D01*
X72683Y-51559D01*
X72374Y-51687D01*
X72180Y-51881D01*
X72180Y-51504D01*
X72107Y-51328D01*
X71972Y-51193D01*
X71910Y-51167D01*
X72006Y-51072D01*
X72079Y-50895D01*
X72080Y-50704D01*
X72007Y-50528D01*
X71872Y-50393D01*
X71695Y-50320D01*
X71504Y-50319D01*
X71328Y-50392D01*
X71193Y-50527D01*
X71120Y-50704D01*
X71119Y-50895D01*
X71192Y-51071D01*
X71327Y-51206D01*
X71389Y-51232D01*
X71293Y-51327D01*
X71220Y-51504D01*
X71219Y-51695D01*
X71292Y-51871D01*
X71427Y-52006D01*
X71604Y-52079D01*
X71795Y-52080D01*
X71971Y-52007D01*
X72106Y-51872D01*
X72179Y-51695D01*
X72180Y-51504D01*
X72180Y-51881D01*
X72137Y-51923D01*
X72009Y-52232D01*
X72009Y-52566D01*
X72137Y-52875D01*
X72373Y-53112D01*
X72682Y-53240D01*
X73016Y-53240D01*
X73325Y-53113D01*
X73562Y-52876D01*
X73690Y-52567D01*
X73690Y-52233D01*
X73690Y-55020D01*
X70258Y-55020D01*
X70306Y-54972D01*
X70379Y-54795D01*
X70380Y-54604D01*
X70307Y-54428D01*
X70172Y-54293D01*
X70130Y-54275D01*
X70130Y-53454D01*
X70057Y-53278D01*
X69922Y-53143D01*
X69745Y-53070D01*
X69554Y-53069D01*
X69550Y-53071D01*
X69550Y-51501D01*
X69436Y-51225D01*
X69225Y-51014D01*
X68949Y-50900D01*
X68651Y-50899D01*
X68375Y-51013D01*
X68164Y-51224D01*
X68050Y-51500D01*
X68049Y-51798D01*
X68163Y-52074D01*
X68374Y-52285D01*
X68650Y-52399D01*
X68948Y-52400D01*
X69224Y-52286D01*
X69435Y-52075D01*
X69549Y-51799D01*
X69550Y-51501D01*
X69550Y-53071D01*
X69378Y-53142D01*
X69243Y-53277D01*
X69170Y-53454D01*
X69169Y-53645D01*
X69242Y-53821D01*
X69377Y-53956D01*
X69554Y-54029D01*
X69745Y-54030D01*
X69921Y-53957D01*
X70056Y-53822D01*
X70129Y-53645D01*
X70130Y-53454D01*
X70130Y-54275D01*
X69995Y-54220D01*
X69804Y-54219D01*
X69628Y-54292D01*
X69493Y-54427D01*
X69420Y-54604D01*
X69419Y-54795D01*
X69492Y-54971D01*
X69541Y-55020D01*
X64835Y-55020D01*
X64835Y-53123D01*
X64776Y-52982D01*
X64668Y-52873D01*
X64526Y-52815D01*
X64373Y-52814D01*
X64232Y-52873D01*
X64123Y-52981D01*
X64065Y-53123D01*
X64064Y-53276D01*
X64123Y-53417D01*
X64231Y-53526D01*
X64373Y-53584D01*
X64526Y-53585D01*
X64667Y-53526D01*
X64776Y-53418D01*
X64834Y-53276D01*
X64835Y-53123D01*
X64835Y-55020D01*
X64580Y-55020D01*
X64580Y-54204D01*
X64507Y-54028D01*
X64372Y-53893D01*
X64195Y-53820D01*
X64004Y-53819D01*
X63828Y-53892D01*
X63693Y-54027D01*
X63620Y-54204D01*
X63619Y-54395D01*
X63692Y-54571D01*
X63827Y-54706D01*
X64004Y-54779D01*
X64195Y-54780D01*
X64371Y-54707D01*
X64506Y-54572D01*
X64579Y-54395D01*
X64580Y-54204D01*
X64580Y-55020D01*
X59282Y-55020D01*
X59282Y-52280D01*
X59215Y-51945D01*
X59025Y-51661D01*
X58741Y-51471D01*
X58407Y-51405D01*
X58372Y-51405D01*
X58038Y-51471D01*
X57754Y-51661D01*
X57564Y-51945D01*
X57497Y-52280D01*
X57564Y-52614D01*
X57754Y-52898D01*
X58038Y-53088D01*
X58372Y-53155D01*
X58407Y-53155D01*
X58741Y-53088D01*
X59025Y-52898D01*
X59215Y-52614D01*
X59282Y-52280D01*
X59282Y-55020D01*
X57511Y-55020D01*
X57600Y-55002D01*
X57778Y-54883D01*
X57898Y-54705D01*
X57940Y-54494D01*
X57940Y-54065D01*
X57898Y-53854D01*
X57778Y-53676D01*
X57600Y-53557D01*
X57390Y-53515D01*
X57179Y-53557D01*
X57001Y-53676D01*
X56890Y-53842D01*
X56778Y-53676D01*
X56600Y-53557D01*
X56390Y-53515D01*
X56179Y-53557D01*
X56001Y-53676D01*
X55890Y-53842D01*
X55778Y-53676D01*
X55600Y-53557D01*
X55390Y-53515D01*
X55179Y-53557D01*
X55001Y-53676D01*
X54890Y-53842D01*
X54778Y-53676D01*
X54600Y-53557D01*
X54390Y-53515D01*
X54179Y-53557D01*
X54001Y-53676D01*
X53890Y-53842D01*
X53778Y-53676D01*
X53600Y-53557D01*
X53390Y-53515D01*
X53179Y-53557D01*
X53001Y-53676D01*
X52890Y-53842D01*
X52778Y-53676D01*
X52600Y-53557D01*
X52390Y-53515D01*
X52179Y-53557D01*
X52001Y-53676D01*
X51881Y-53854D01*
X51840Y-54065D01*
X51840Y-54494D01*
X51881Y-54705D01*
X52001Y-54883D01*
X52179Y-55002D01*
X52268Y-55020D01*
X50511Y-55020D01*
X50600Y-55002D01*
X50778Y-54883D01*
X50898Y-54705D01*
X50940Y-54494D01*
X50940Y-54065D01*
X50898Y-53854D01*
X50880Y-53827D01*
X50880Y-50404D01*
X50807Y-50228D01*
X50672Y-50093D01*
X50495Y-50020D01*
X50304Y-50019D01*
X50128Y-50092D01*
X49993Y-50227D01*
X49920Y-50404D01*
X49919Y-50595D01*
X49992Y-50771D01*
X50127Y-50906D01*
X50304Y-50979D01*
X50495Y-50980D01*
X50671Y-50907D01*
X50806Y-50772D01*
X50879Y-50595D01*
X50880Y-50404D01*
X50880Y-53827D01*
X50778Y-53676D01*
X50600Y-53557D01*
X50390Y-53515D01*
X50179Y-53557D01*
X50001Y-53676D01*
X49890Y-53842D01*
X49778Y-53676D01*
X49600Y-53557D01*
X49390Y-53515D01*
X49179Y-53557D01*
X49001Y-53676D01*
X48890Y-53842D01*
X48778Y-53676D01*
X48600Y-53557D01*
X48390Y-53515D01*
X48179Y-53557D01*
X48001Y-53676D01*
X47890Y-53842D01*
X47778Y-53676D01*
X47600Y-53557D01*
X47390Y-53515D01*
X47179Y-53557D01*
X47001Y-53676D01*
X46890Y-53842D01*
X46778Y-53676D01*
X46600Y-53557D01*
X46390Y-53515D01*
X46179Y-53557D01*
X46001Y-53676D01*
X45890Y-53842D01*
X45778Y-53676D01*
X45600Y-53557D01*
X45390Y-53515D01*
X45179Y-53557D01*
X45001Y-53676D01*
X44890Y-53842D01*
X44778Y-53676D01*
X44600Y-53557D01*
X44390Y-53515D01*
X44179Y-53557D01*
X44001Y-53676D01*
X43890Y-53842D01*
X43778Y-53676D01*
X43600Y-53557D01*
X43390Y-53515D01*
X43179Y-53557D01*
X43001Y-53676D01*
X42881Y-53854D01*
X42840Y-54065D01*
X42840Y-54494D01*
X42881Y-54705D01*
X43001Y-54883D01*
X43179Y-55002D01*
X43268Y-55020D01*
X38343Y-55020D01*
X38525Y-54898D01*
X38715Y-54614D01*
X38782Y-54280D01*
X38715Y-53945D01*
X38525Y-53661D01*
X38241Y-53471D01*
X37907Y-53405D01*
X37872Y-53405D01*
X37538Y-53471D01*
X37254Y-53661D01*
X37064Y-53945D01*
X36997Y-54280D01*
X37064Y-54614D01*
X37254Y-54898D01*
X37436Y-55020D01*
X34125Y-55020D01*
X34149Y-48150D01*
X34596Y-48150D01*
X34658Y-48211D01*
X34750Y-48249D01*
X34849Y-48250D01*
X35849Y-48250D01*
X35941Y-48212D01*
X35960Y-48193D01*
X35960Y-48600D01*
X35997Y-48787D01*
X36103Y-48946D01*
X36428Y-49271D01*
X36587Y-49377D01*
X36775Y-49415D01*
X47300Y-49415D01*
X47349Y-49405D01*
X47370Y-49405D01*
X47388Y-49397D01*
X47487Y-49377D01*
X47646Y-49271D01*
X47677Y-49225D01*
X48350Y-49225D01*
X48350Y-49224D01*
X48464Y-49202D01*
X48464Y-49202D01*
X48562Y-49137D01*
X48635Y-49063D01*
X71795Y-49043D01*
X71664Y-49174D01*
X71550Y-49450D01*
X71549Y-49748D01*
X71663Y-50024D01*
X71874Y-50235D01*
X72150Y-50349D01*
X72448Y-50350D01*
X72724Y-50236D01*
X72935Y-50025D01*
X73049Y-49749D01*
X73050Y-49451D01*
X72936Y-49175D01*
X72725Y-48964D01*
X72449Y-48850D01*
X72151Y-48849D01*
X72039Y-48896D01*
X72021Y-48020D01*
X77431Y-48099D01*
X77478Y-49980D01*
X76785Y-49980D01*
X76785Y-49176D01*
X76690Y-48946D01*
X76514Y-48770D01*
X76284Y-48675D01*
X76036Y-48674D01*
X75806Y-48769D01*
X75630Y-48945D01*
X75535Y-49175D01*
X75534Y-49423D01*
X75629Y-49653D01*
X75805Y-49829D01*
X76035Y-49924D01*
X76283Y-49925D01*
X76513Y-49830D01*
X76689Y-49654D01*
X76784Y-49424D01*
X76785Y-49176D01*
X76785Y-49980D01*
X73929Y-49980D01*
X73975Y-53200D01*
X77650Y-53200D01*
X77650Y-55020D01*
X77650Y-55020D01*
G37*
G54D31*
X77650Y-55020D02*
X76785Y-55020D01*
X76785Y-53896D01*
X76690Y-53666D01*
X76514Y-53490D01*
X76284Y-53395D01*
X76036Y-53394D01*
X75806Y-53489D01*
X75630Y-53665D01*
X75535Y-53895D01*
X75534Y-54143D01*
X75629Y-54373D01*
X75805Y-54549D01*
X76035Y-54644D01*
X76283Y-54645D01*
X76513Y-54550D01*
X76689Y-54374D01*
X76784Y-54144D01*
X76785Y-53896D01*
X76785Y-55020D01*
X73690Y-55020D01*
X73690Y-52233D01*
X73563Y-51924D01*
X73326Y-51687D01*
X73017Y-51559D01*
X72683Y-51559D01*
X72374Y-51687D01*
X72180Y-51881D01*
X72180Y-51504D01*
X72107Y-51328D01*
X71972Y-51193D01*
X71910Y-51167D01*
X72006Y-51072D01*
X72079Y-50895D01*
X72080Y-50704D01*
X72007Y-50528D01*
X71872Y-50393D01*
X71695Y-50320D01*
X71504Y-50319D01*
X71328Y-50392D01*
X71193Y-50527D01*
X71120Y-50704D01*
X71119Y-50895D01*
X71192Y-51071D01*
X71327Y-51206D01*
X71389Y-51232D01*
X71293Y-51327D01*
X71220Y-51504D01*
X71219Y-51695D01*
X71292Y-51871D01*
X71427Y-52006D01*
X71604Y-52079D01*
X71795Y-52080D01*
X71971Y-52007D01*
X72106Y-51872D01*
X72179Y-51695D01*
X72180Y-51504D01*
X72180Y-51881D01*
X72137Y-51923D01*
X72009Y-52232D01*
X72009Y-52566D01*
X72137Y-52875D01*
X72373Y-53112D01*
X72682Y-53240D01*
X73016Y-53240D01*
X73325Y-53113D01*
X73562Y-52876D01*
X73690Y-52567D01*
X73690Y-52233D01*
X73690Y-55020D01*
X70258Y-55020D01*
X70306Y-54972D01*
X70379Y-54795D01*
X70380Y-54604D01*
X70307Y-54428D01*
X70172Y-54293D01*
X70130Y-54275D01*
X70130Y-53454D01*
X70057Y-53278D01*
X69922Y-53143D01*
X69745Y-53070D01*
X69554Y-53069D01*
X69550Y-53071D01*
X69550Y-51501D01*
X69436Y-51225D01*
X69225Y-51014D01*
X68949Y-50900D01*
X68651Y-50899D01*
X68375Y-51013D01*
X68164Y-51224D01*
X68050Y-51500D01*
X68049Y-51798D01*
X68163Y-52074D01*
X68374Y-52285D01*
X68650Y-52399D01*
X68948Y-52400D01*
X69224Y-52286D01*
X69435Y-52075D01*
X69549Y-51799D01*
X69550Y-51501D01*
X69550Y-53071D01*
X69378Y-53142D01*
X69243Y-53277D01*
X69170Y-53454D01*
X69169Y-53645D01*
X69242Y-53821D01*
X69377Y-53956D01*
X69554Y-54029D01*
X69745Y-54030D01*
X69921Y-53957D01*
X70056Y-53822D01*
X70129Y-53645D01*
X70130Y-53454D01*
X70130Y-54275D01*
X69995Y-54220D01*
X69804Y-54219D01*
X69628Y-54292D01*
X69493Y-54427D01*
X69420Y-54604D01*
X69419Y-54795D01*
X69492Y-54971D01*
X69541Y-55020D01*
X64835Y-55020D01*
X64835Y-53123D01*
X64776Y-52982D01*
X64668Y-52873D01*
X64526Y-52815D01*
X64373Y-52814D01*
X64232Y-52873D01*
X64123Y-52981D01*
X64065Y-53123D01*
X64064Y-53276D01*
X64123Y-53417D01*
X64231Y-53526D01*
X64373Y-53584D01*
X64526Y-53585D01*
X64667Y-53526D01*
X64776Y-53418D01*
X64834Y-53276D01*
X64835Y-53123D01*
X64835Y-55020D01*
X64580Y-55020D01*
X64580Y-54204D01*
X64507Y-54028D01*
X64372Y-53893D01*
X64195Y-53820D01*
X64004Y-53819D01*
X63828Y-53892D01*
X63693Y-54027D01*
X63620Y-54204D01*
X63619Y-54395D01*
X63692Y-54571D01*
X63827Y-54706D01*
X64004Y-54779D01*
X64195Y-54780D01*
X64371Y-54707D01*
X64506Y-54572D01*
X64579Y-54395D01*
X64580Y-54204D01*
X64580Y-55020D01*
X59282Y-55020D01*
X59282Y-52280D01*
X59215Y-51945D01*
X59025Y-51661D01*
X58741Y-51471D01*
X58407Y-51405D01*
X58372Y-51405D01*
X58038Y-51471D01*
X57754Y-51661D01*
X57564Y-51945D01*
X57497Y-52280D01*
X57564Y-52614D01*
X57754Y-52898D01*
X58038Y-53088D01*
X58372Y-53155D01*
X58407Y-53155D01*
X58741Y-53088D01*
X59025Y-52898D01*
X59215Y-52614D01*
X59282Y-52280D01*
X59282Y-55020D01*
X57511Y-55020D01*
X57600Y-55002D01*
X57778Y-54883D01*
X57898Y-54705D01*
X57940Y-54494D01*
X57940Y-54065D01*
X57898Y-53854D01*
X57778Y-53676D01*
X57600Y-53557D01*
X57390Y-53515D01*
X57179Y-53557D01*
X57001Y-53676D01*
X56890Y-53842D01*
X56778Y-53676D01*
X56600Y-53557D01*
X56390Y-53515D01*
X56179Y-53557D01*
X56001Y-53676D01*
X55890Y-53842D01*
X55778Y-53676D01*
X55600Y-53557D01*
X55390Y-53515D01*
X55179Y-53557D01*
X55001Y-53676D01*
X54890Y-53842D01*
X54778Y-53676D01*
X54600Y-53557D01*
X54390Y-53515D01*
X54179Y-53557D01*
X54001Y-53676D01*
X53890Y-53842D01*
X53778Y-53676D01*
X53600Y-53557D01*
X53390Y-53515D01*
X53179Y-53557D01*
X53001Y-53676D01*
X52890Y-53842D01*
X52778Y-53676D01*
X52600Y-53557D01*
X52390Y-53515D01*
X52179Y-53557D01*
X52001Y-53676D01*
X51881Y-53854D01*
X51840Y-54065D01*
X51840Y-54494D01*
X51881Y-54705D01*
X52001Y-54883D01*
X52179Y-55002D01*
X52268Y-55020D01*
X50511Y-55020D01*
X50600Y-55002D01*
X50778Y-54883D01*
X50898Y-54705D01*
X50940Y-54494D01*
X50940Y-54065D01*
X50898Y-53854D01*
X50880Y-53827D01*
X50880Y-50404D01*
X50807Y-50228D01*
X50672Y-50093D01*
X50495Y-50020D01*
X50304Y-50019D01*
X50128Y-50092D01*
X49993Y-50227D01*
X49920Y-50404D01*
X49919Y-50595D01*
X49992Y-50771D01*
X50127Y-50906D01*
X50304Y-50979D01*
X50495Y-50980D01*
X50671Y-50907D01*
X50806Y-50772D01*
X50879Y-50595D01*
X50880Y-50404D01*
X50880Y-53827D01*
X50778Y-53676D01*
X50600Y-53557D01*
X50390Y-53515D01*
X50179Y-53557D01*
X50001Y-53676D01*
X49890Y-53842D01*
X49778Y-53676D01*
X49600Y-53557D01*
X49390Y-53515D01*
X49179Y-53557D01*
X49001Y-53676D01*
X48890Y-53842D01*
X48778Y-53676D01*
X48600Y-53557D01*
X48390Y-53515D01*
X48179Y-53557D01*
X48001Y-53676D01*
X47890Y-53842D01*
X47778Y-53676D01*
X47600Y-53557D01*
X47390Y-53515D01*
X47179Y-53557D01*
X47001Y-53676D01*
X46890Y-53842D01*
X46778Y-53676D01*
X46600Y-53557D01*
X46390Y-53515D01*
X46179Y-53557D01*
X46001Y-53676D01*
X45890Y-53842D01*
X45778Y-53676D01*
X45600Y-53557D01*
X45390Y-53515D01*
X45179Y-53557D01*
X45001Y-53676D01*
X44890Y-53842D01*
X44778Y-53676D01*
X44600Y-53557D01*
X44390Y-53515D01*
X44179Y-53557D01*
X44001Y-53676D01*
X43890Y-53842D01*
X43778Y-53676D01*
X43600Y-53557D01*
X43390Y-53515D01*
X43179Y-53557D01*
X43001Y-53676D01*
X42881Y-53854D01*
X42840Y-54065D01*
X42840Y-54494D01*
X42881Y-54705D01*
X43001Y-54883D01*
X43179Y-55002D01*
X43268Y-55020D01*
X38343Y-55020D01*
X38525Y-54898D01*
X38715Y-54614D01*
X38782Y-54280D01*
X38715Y-53945D01*
X38525Y-53661D01*
X38241Y-53471D01*
X37907Y-53405D01*
X37872Y-53405D01*
X37538Y-53471D01*
X37254Y-53661D01*
X37064Y-53945D01*
X36997Y-54280D01*
X37064Y-54614D01*
X37254Y-54898D01*
X37436Y-55020D01*
X34125Y-55020D01*
X34149Y-48150D01*
X34596Y-48150D01*
X34658Y-48211D01*
X34750Y-48249D01*
X34849Y-48250D01*
X35849Y-48250D01*
X35941Y-48212D01*
X35960Y-48193D01*
X35960Y-48600D01*
X35997Y-48787D01*
X36103Y-48946D01*
X36428Y-49271D01*
X36587Y-49377D01*
X36775Y-49415D01*
X47300Y-49415D01*
X47349Y-49405D01*
X47370Y-49405D01*
X47388Y-49397D01*
X47487Y-49377D01*
X47646Y-49271D01*
X47677Y-49225D01*
X48350Y-49225D01*
X48350Y-49224D01*
X48464Y-49202D01*
X48464Y-49202D01*
X48562Y-49137D01*
X48635Y-49063D01*
X71795Y-49043D01*
X71664Y-49174D01*
X71550Y-49450D01*
X71549Y-49748D01*
X71663Y-50024D01*
X71874Y-50235D01*
X72150Y-50349D01*
X72448Y-50350D01*
X72724Y-50236D01*
X72935Y-50025D01*
X73049Y-49749D01*
X73050Y-49451D01*
X72936Y-49175D01*
X72725Y-48964D01*
X72449Y-48850D01*
X72151Y-48849D01*
X72039Y-48896D01*
X72021Y-48020D01*
X77431Y-48099D01*
X77478Y-49980D01*
X76785Y-49980D01*
X76785Y-49176D01*
X76690Y-48946D01*
X76514Y-48770D01*
X76284Y-48675D01*
X76036Y-48674D01*
X75806Y-48769D01*
X75630Y-48945D01*
X75535Y-49175D01*
X75534Y-49423D01*
X75629Y-49653D01*
X75805Y-49829D01*
X76035Y-49924D01*
X76283Y-49925D01*
X76513Y-49830D01*
X76689Y-49654D01*
X76784Y-49424D01*
X76785Y-49176D01*
X76785Y-49980D01*
X73929Y-49980D01*
X73975Y-53200D01*
X77650Y-53200D01*
X77650Y-55020D01*
G54D10*
G36*
X85750Y-44550D02*
X85443Y-44550D01*
X85443Y-43566D01*
X85443Y-42188D01*
X85443Y-40810D01*
X85443Y-39432D01*
X85346Y-39196D01*
X85165Y-39014D01*
X84928Y-38916D01*
X84672Y-38916D01*
X84435Y-39014D01*
X84254Y-39195D01*
X84156Y-39431D01*
X84156Y-39687D01*
X84253Y-39924D01*
X84434Y-40105D01*
X84671Y-40203D01*
X84927Y-40204D01*
X85164Y-40106D01*
X85345Y-39925D01*
X85443Y-39688D01*
X85443Y-39432D01*
X85443Y-40810D01*
X85346Y-40574D01*
X85165Y-40392D01*
X84928Y-40294D01*
X84672Y-40294D01*
X84435Y-40392D01*
X84254Y-40573D01*
X84156Y-40809D01*
X84156Y-41065D01*
X84253Y-41302D01*
X84434Y-41483D01*
X84671Y-41581D01*
X84927Y-41582D01*
X85164Y-41484D01*
X85345Y-41303D01*
X85443Y-41066D01*
X85443Y-40810D01*
X85443Y-42188D01*
X85346Y-41951D01*
X85165Y-41770D01*
X84928Y-41672D01*
X84672Y-41672D01*
X84435Y-41770D01*
X84254Y-41951D01*
X84156Y-42187D01*
X84156Y-42443D01*
X84253Y-42680D01*
X84434Y-42861D01*
X84671Y-42959D01*
X84927Y-42959D01*
X85164Y-42862D01*
X85345Y-42681D01*
X85443Y-42444D01*
X85443Y-42188D01*
X85443Y-43566D01*
X85346Y-43329D01*
X85165Y-43148D01*
X84928Y-43050D01*
X84672Y-43050D01*
X84435Y-43148D01*
X84254Y-43328D01*
X84156Y-43565D01*
X84156Y-43821D01*
X84253Y-44058D01*
X84434Y-44239D01*
X84671Y-44337D01*
X84927Y-44337D01*
X85164Y-44240D01*
X85345Y-44059D01*
X85443Y-43822D01*
X85443Y-43566D01*
X85443Y-44550D01*
X85188Y-44550D01*
X85165Y-44526D01*
X84928Y-44428D01*
X84672Y-44428D01*
X84435Y-44526D01*
X84411Y-44550D01*
X82435Y-44550D01*
X82435Y-39923D01*
X82376Y-39782D01*
X82268Y-39673D01*
X82126Y-39615D01*
X81973Y-39614D01*
X81885Y-39651D01*
X81885Y-37923D01*
X81826Y-37782D01*
X81718Y-37673D01*
X81576Y-37615D01*
X81515Y-37615D01*
X81515Y-34716D01*
X81423Y-34495D01*
X81255Y-34326D01*
X81034Y-34235D01*
X80796Y-34234D01*
X80575Y-34326D01*
X80414Y-34486D01*
X80255Y-34326D01*
X80034Y-34235D01*
X79796Y-34234D01*
X79575Y-34326D01*
X79500Y-34400D01*
X79477Y-34343D01*
X79406Y-34273D01*
X79314Y-34235D01*
X79215Y-34234D01*
X78515Y-34234D01*
X78423Y-34272D01*
X78353Y-34343D01*
X78315Y-34435D01*
X78314Y-34534D01*
X78314Y-35234D01*
X78352Y-35326D01*
X78423Y-35396D01*
X78515Y-35434D01*
X78614Y-35435D01*
X79314Y-35435D01*
X79406Y-35397D01*
X79476Y-35326D01*
X79500Y-35269D01*
X79574Y-35343D01*
X79795Y-35434D01*
X80033Y-35435D01*
X80254Y-35343D01*
X80415Y-35183D01*
X80574Y-35343D01*
X80795Y-35434D01*
X81033Y-35435D01*
X81254Y-35343D01*
X81423Y-35175D01*
X81514Y-34954D01*
X81515Y-34716D01*
X81515Y-37615D01*
X81423Y-37614D01*
X81282Y-37673D01*
X81173Y-37781D01*
X81115Y-37923D01*
X81114Y-38076D01*
X81173Y-38217D01*
X81281Y-38326D01*
X81423Y-38384D01*
X81576Y-38385D01*
X81717Y-38326D01*
X81826Y-38218D01*
X81884Y-38076D01*
X81885Y-37923D01*
X81885Y-39651D01*
X81832Y-39673D01*
X81723Y-39781D01*
X81665Y-39923D01*
X81664Y-40076D01*
X81723Y-40217D01*
X81831Y-40326D01*
X81973Y-40384D01*
X82126Y-40385D01*
X82267Y-40326D01*
X82376Y-40218D01*
X82434Y-40076D01*
X82435Y-39923D01*
X82435Y-44550D01*
X81650Y-44550D01*
X81650Y-39251D01*
X81536Y-38975D01*
X81325Y-38764D01*
X81049Y-38650D01*
X80751Y-38649D01*
X80475Y-38763D01*
X80264Y-38974D01*
X80150Y-39250D01*
X80149Y-39419D01*
X80116Y-39338D01*
X79961Y-39184D01*
X79880Y-39150D01*
X79961Y-39116D01*
X80115Y-38961D01*
X80199Y-38759D01*
X80200Y-38541D01*
X80116Y-38338D01*
X79961Y-38184D01*
X79880Y-38150D01*
X79961Y-38116D01*
X80115Y-37961D01*
X80199Y-37759D01*
X80200Y-37541D01*
X80116Y-37338D01*
X79961Y-37184D01*
X79759Y-37100D01*
X79541Y-37099D01*
X79338Y-37183D01*
X79200Y-37322D01*
X79200Y-37300D01*
X79162Y-37208D01*
X79091Y-37138D01*
X79080Y-37133D01*
X79080Y-36454D01*
X79007Y-36278D01*
X78872Y-36143D01*
X78695Y-36070D01*
X78504Y-36069D01*
X78328Y-36142D01*
X78193Y-36277D01*
X78120Y-36454D01*
X78119Y-36645D01*
X78192Y-36821D01*
X78327Y-36956D01*
X78504Y-37029D01*
X78695Y-37030D01*
X78871Y-36957D01*
X79006Y-36822D01*
X79079Y-36645D01*
X79080Y-36454D01*
X79080Y-37133D01*
X78999Y-37100D01*
X78900Y-37099D01*
X78300Y-37099D01*
X78208Y-37137D01*
X78138Y-37208D01*
X78100Y-37300D01*
X78099Y-37399D01*
X78099Y-37999D01*
X78137Y-38091D01*
X78208Y-38161D01*
X78300Y-38199D01*
X78322Y-38199D01*
X78184Y-38338D01*
X78100Y-38540D01*
X78099Y-38758D01*
X78183Y-38961D01*
X78338Y-39115D01*
X78419Y-39149D01*
X78338Y-39183D01*
X78184Y-39338D01*
X78100Y-39540D01*
X78099Y-39758D01*
X78183Y-39961D01*
X78338Y-40115D01*
X78540Y-40199D01*
X78758Y-40200D01*
X78961Y-40116D01*
X79115Y-39961D01*
X79149Y-39880D01*
X79183Y-39961D01*
X79338Y-40115D01*
X79540Y-40199D01*
X79758Y-40200D01*
X79961Y-40116D01*
X80115Y-39961D01*
X80199Y-39759D01*
X80199Y-39669D01*
X80263Y-39824D01*
X80474Y-40035D01*
X80750Y-40149D01*
X81048Y-40150D01*
X81324Y-40036D01*
X81535Y-39825D01*
X81649Y-39549D01*
X81650Y-39251D01*
X81650Y-44550D01*
X77285Y-44550D01*
X77285Y-37223D01*
X77226Y-37082D01*
X77118Y-36973D01*
X76976Y-36915D01*
X76823Y-36914D01*
X76682Y-36973D01*
X76600Y-37055D01*
X76600Y-34731D01*
X76508Y-34510D01*
X76340Y-34341D01*
X76119Y-34250D01*
X75881Y-34249D01*
X75660Y-34341D01*
X75499Y-34501D01*
X75340Y-34341D01*
X75119Y-34250D01*
X74881Y-34249D01*
X74660Y-34341D01*
X74585Y-34415D01*
X74562Y-34358D01*
X74491Y-34288D01*
X74399Y-34250D01*
X74300Y-34249D01*
X73600Y-34249D01*
X73508Y-34287D01*
X73438Y-34358D01*
X73400Y-34450D01*
X73399Y-34549D01*
X73399Y-35249D01*
X73437Y-35341D01*
X73508Y-35411D01*
X73600Y-35449D01*
X73699Y-35450D01*
X74399Y-35450D01*
X74491Y-35412D01*
X74561Y-35341D01*
X74585Y-35284D01*
X74659Y-35358D01*
X74880Y-35449D01*
X75118Y-35450D01*
X75339Y-35358D01*
X75500Y-35198D01*
X75659Y-35358D01*
X75880Y-35449D01*
X76118Y-35450D01*
X76339Y-35358D01*
X76508Y-35190D01*
X76599Y-34969D01*
X76600Y-34731D01*
X76600Y-37055D01*
X76573Y-37081D01*
X76547Y-37144D01*
X76476Y-37115D01*
X76323Y-37114D01*
X76182Y-37173D01*
X76073Y-37281D01*
X76015Y-37423D01*
X76014Y-37576D01*
X76038Y-37632D01*
X75943Y-37727D01*
X75870Y-37904D01*
X75869Y-38095D01*
X75942Y-38271D01*
X76077Y-38406D01*
X76254Y-38479D01*
X76445Y-38480D01*
X76621Y-38407D01*
X76756Y-38272D01*
X76829Y-38095D01*
X76830Y-37904D01*
X76757Y-37728D01*
X76732Y-37703D01*
X76752Y-37655D01*
X76823Y-37684D01*
X76976Y-37685D01*
X77117Y-37626D01*
X77226Y-37518D01*
X77284Y-37376D01*
X77285Y-37223D01*
X77285Y-44550D01*
X75385Y-44550D01*
X75385Y-39423D01*
X75326Y-39282D01*
X75325Y-39280D01*
X75325Y-38123D01*
X75266Y-37982D01*
X75158Y-37873D01*
X75016Y-37815D01*
X74863Y-37814D01*
X74722Y-37873D01*
X74613Y-37981D01*
X74555Y-38123D01*
X74554Y-38276D01*
X74605Y-38397D01*
X74526Y-38365D01*
X74425Y-38364D01*
X74425Y-36959D01*
X74352Y-36783D01*
X74217Y-36648D01*
X74040Y-36575D01*
X73849Y-36574D01*
X73673Y-36647D01*
X73538Y-36782D01*
X73465Y-36959D01*
X73464Y-37150D01*
X73537Y-37326D01*
X73672Y-37461D01*
X73849Y-37534D01*
X74040Y-37535D01*
X74216Y-37462D01*
X74351Y-37327D01*
X74424Y-37150D01*
X74425Y-36959D01*
X74425Y-38364D01*
X74373Y-38364D01*
X74232Y-38423D01*
X74123Y-38531D01*
X74065Y-38673D01*
X74064Y-38826D01*
X74123Y-38967D01*
X74231Y-39076D01*
X74373Y-39134D01*
X74526Y-39135D01*
X74667Y-39076D01*
X74776Y-38968D01*
X74834Y-38826D01*
X74835Y-38673D01*
X74784Y-38552D01*
X74863Y-38584D01*
X75016Y-38585D01*
X75157Y-38526D01*
X75266Y-38418D01*
X75324Y-38276D01*
X75325Y-38123D01*
X75325Y-39280D01*
X75218Y-39173D01*
X75076Y-39115D01*
X74923Y-39114D01*
X74782Y-39173D01*
X74673Y-39281D01*
X74615Y-39423D01*
X74614Y-39576D01*
X74673Y-39717D01*
X74781Y-39826D01*
X74923Y-39884D01*
X75076Y-39885D01*
X75217Y-39826D01*
X75326Y-39718D01*
X75384Y-39576D01*
X75385Y-39423D01*
X75385Y-44550D01*
X74428Y-44550D01*
X74357Y-44378D01*
X74222Y-44243D01*
X74045Y-44170D01*
X73854Y-44169D01*
X73678Y-44242D01*
X73543Y-44377D01*
X73471Y-44550D01*
X72585Y-44550D01*
X72585Y-38673D01*
X72526Y-38532D01*
X72418Y-38423D01*
X72276Y-38365D01*
X72123Y-38364D01*
X71982Y-38423D01*
X71873Y-38531D01*
X71835Y-38624D01*
X71835Y-38373D01*
X71776Y-38232D01*
X71668Y-38123D01*
X71526Y-38065D01*
X71485Y-38065D01*
X71485Y-37373D01*
X71426Y-37232D01*
X71318Y-37123D01*
X71176Y-37065D01*
X71023Y-37064D01*
X70882Y-37123D01*
X70773Y-37231D01*
X70715Y-37373D01*
X70714Y-37526D01*
X70773Y-37667D01*
X70881Y-37776D01*
X71023Y-37834D01*
X71176Y-37835D01*
X71317Y-37776D01*
X71426Y-37668D01*
X71484Y-37526D01*
X71485Y-37373D01*
X71485Y-38065D01*
X71373Y-38064D01*
X71232Y-38123D01*
X71123Y-38231D01*
X71065Y-38373D01*
X71064Y-38526D01*
X71123Y-38667D01*
X71231Y-38776D01*
X71373Y-38834D01*
X71526Y-38835D01*
X71667Y-38776D01*
X71776Y-38668D01*
X71834Y-38526D01*
X71835Y-38373D01*
X71835Y-38624D01*
X71815Y-38673D01*
X71814Y-38826D01*
X71873Y-38967D01*
X71981Y-39076D01*
X72123Y-39134D01*
X72276Y-39135D01*
X72417Y-39076D01*
X72526Y-38968D01*
X72584Y-38826D01*
X72585Y-38673D01*
X72585Y-44550D01*
X71985Y-44550D01*
X71985Y-39323D01*
X71926Y-39182D01*
X71818Y-39073D01*
X71676Y-39015D01*
X71523Y-39014D01*
X71382Y-39073D01*
X71273Y-39181D01*
X71215Y-39323D01*
X71214Y-39476D01*
X71273Y-39617D01*
X71381Y-39726D01*
X71523Y-39784D01*
X71676Y-39785D01*
X71817Y-39726D01*
X71926Y-39618D01*
X71984Y-39476D01*
X71985Y-39323D01*
X71985Y-44550D01*
X71185Y-44550D01*
X71185Y-41023D01*
X71126Y-40882D01*
X71018Y-40773D01*
X70876Y-40715D01*
X70723Y-40714D01*
X70582Y-40773D01*
X70473Y-40881D01*
X70415Y-41023D01*
X70414Y-41176D01*
X70473Y-41317D01*
X70581Y-41426D01*
X70723Y-41484D01*
X70876Y-41485D01*
X71017Y-41426D01*
X71126Y-41318D01*
X71184Y-41176D01*
X71185Y-41023D01*
X71185Y-44550D01*
X67250Y-44550D01*
X67250Y-40451D01*
X67136Y-40175D01*
X66925Y-39964D01*
X66649Y-39850D01*
X66351Y-39849D01*
X66285Y-39877D01*
X66285Y-38023D01*
X66226Y-37882D01*
X66118Y-37773D01*
X65976Y-37715D01*
X65823Y-37714D01*
X65682Y-37773D01*
X65573Y-37881D01*
X65515Y-38023D01*
X65514Y-38176D01*
X65573Y-38317D01*
X65681Y-38426D01*
X65823Y-38484D01*
X65976Y-38485D01*
X66117Y-38426D01*
X66226Y-38318D01*
X66284Y-38176D01*
X66285Y-38023D01*
X66285Y-39877D01*
X66075Y-39963D01*
X65864Y-40174D01*
X65750Y-40450D01*
X65749Y-40748D01*
X65863Y-41024D01*
X66074Y-41235D01*
X66350Y-41349D01*
X66648Y-41350D01*
X66924Y-41236D01*
X67135Y-41025D01*
X67249Y-40749D01*
X67250Y-40451D01*
X67250Y-44550D01*
X66235Y-44550D01*
X66235Y-41723D01*
X66176Y-41582D01*
X66068Y-41473D01*
X65926Y-41415D01*
X65773Y-41414D01*
X65635Y-41472D01*
X65635Y-38573D01*
X65576Y-38432D01*
X65468Y-38323D01*
X65326Y-38265D01*
X65173Y-38264D01*
X65092Y-38298D01*
X65018Y-38223D01*
X64876Y-38165D01*
X64723Y-38164D01*
X64582Y-38223D01*
X64473Y-38331D01*
X64415Y-38473D01*
X64414Y-38626D01*
X64473Y-38767D01*
X64581Y-38876D01*
X64723Y-38934D01*
X64876Y-38935D01*
X64957Y-38901D01*
X65031Y-38976D01*
X65173Y-39034D01*
X65326Y-39035D01*
X65467Y-38976D01*
X65576Y-38868D01*
X65634Y-38726D01*
X65635Y-38573D01*
X65635Y-41472D01*
X65632Y-41473D01*
X65523Y-41581D01*
X65465Y-41723D01*
X65464Y-41876D01*
X65523Y-42017D01*
X65631Y-42126D01*
X65773Y-42184D01*
X65926Y-42185D01*
X66067Y-42126D01*
X66176Y-42018D01*
X66234Y-41876D01*
X66235Y-41723D01*
X66235Y-44550D01*
X65510Y-44550D01*
X65510Y-42523D01*
X65451Y-42382D01*
X65343Y-42273D01*
X65201Y-42215D01*
X65069Y-42214D01*
X65166Y-42118D01*
X65224Y-41976D01*
X65225Y-41823D01*
X65166Y-41682D01*
X65058Y-41573D01*
X64916Y-41515D01*
X64763Y-41514D01*
X64622Y-41573D01*
X64513Y-41681D01*
X64485Y-41750D01*
X64485Y-40523D01*
X64426Y-40382D01*
X64318Y-40273D01*
X64176Y-40215D01*
X64135Y-40215D01*
X64135Y-38423D01*
X64076Y-38282D01*
X63968Y-38173D01*
X63826Y-38115D01*
X63673Y-38114D01*
X63532Y-38173D01*
X63423Y-38281D01*
X63365Y-38423D01*
X63364Y-38576D01*
X63423Y-38717D01*
X63531Y-38826D01*
X63673Y-38884D01*
X63826Y-38885D01*
X63967Y-38826D01*
X64076Y-38718D01*
X64134Y-38576D01*
X64135Y-38423D01*
X64135Y-40215D01*
X64023Y-40214D01*
X63882Y-40273D01*
X63773Y-40381D01*
X63715Y-40523D01*
X63714Y-40676D01*
X63773Y-40817D01*
X63881Y-40926D01*
X64023Y-40984D01*
X64176Y-40985D01*
X64317Y-40926D01*
X64426Y-40818D01*
X64484Y-40676D01*
X64485Y-40523D01*
X64485Y-41750D01*
X64455Y-41823D01*
X64454Y-41976D01*
X64513Y-42117D01*
X64621Y-42226D01*
X64763Y-42284D01*
X64895Y-42285D01*
X64798Y-42381D01*
X64740Y-42523D01*
X64739Y-42676D01*
X64797Y-42814D01*
X64748Y-42814D01*
X64607Y-42873D01*
X64498Y-42981D01*
X64440Y-43123D01*
X64439Y-43276D01*
X64498Y-43417D01*
X64606Y-43526D01*
X64748Y-43584D01*
X64901Y-43585D01*
X65042Y-43526D01*
X65151Y-43418D01*
X65209Y-43276D01*
X65210Y-43123D01*
X65152Y-42985D01*
X65201Y-42985D01*
X65342Y-42926D01*
X65451Y-42818D01*
X65509Y-42676D01*
X65510Y-42523D01*
X65510Y-44550D01*
X63485Y-44550D01*
X63485Y-40623D01*
X63426Y-40482D01*
X63318Y-40373D01*
X63176Y-40315D01*
X63023Y-40314D01*
X62882Y-40373D01*
X62773Y-40481D01*
X62715Y-40623D01*
X62714Y-40776D01*
X62773Y-40917D01*
X62881Y-41026D01*
X63023Y-41084D01*
X63176Y-41085D01*
X63317Y-41026D01*
X63426Y-40918D01*
X63484Y-40776D01*
X63485Y-40623D01*
X63485Y-44550D01*
X62285Y-44550D01*
X62285Y-42523D01*
X62226Y-42382D01*
X62118Y-42273D01*
X61976Y-42215D01*
X61823Y-42214D01*
X61682Y-42273D01*
X61573Y-42381D01*
X61515Y-42523D01*
X61514Y-42676D01*
X61573Y-42817D01*
X61681Y-42926D01*
X61823Y-42984D01*
X61976Y-42985D01*
X62117Y-42926D01*
X62226Y-42818D01*
X62284Y-42676D01*
X62285Y-42523D01*
X62285Y-44550D01*
X61185Y-44550D01*
X61185Y-41073D01*
X61126Y-40932D01*
X61018Y-40823D01*
X60876Y-40765D01*
X60723Y-40764D01*
X60582Y-40823D01*
X60473Y-40931D01*
X60415Y-41073D01*
X60414Y-41226D01*
X60473Y-41367D01*
X60581Y-41476D01*
X60723Y-41534D01*
X60876Y-41535D01*
X61017Y-41476D01*
X61126Y-41368D01*
X61184Y-41226D01*
X61185Y-41073D01*
X61185Y-44550D01*
X60910Y-44550D01*
X60910Y-43373D01*
X60851Y-43232D01*
X60743Y-43123D01*
X60655Y-43087D01*
X60742Y-43051D01*
X60851Y-42943D01*
X60909Y-42801D01*
X60910Y-42648D01*
X60851Y-42507D01*
X60743Y-42398D01*
X60601Y-42340D01*
X60448Y-42339D01*
X60307Y-42398D01*
X60198Y-42506D01*
X60140Y-42648D01*
X60139Y-42801D01*
X60198Y-42942D01*
X60306Y-43051D01*
X60394Y-43087D01*
X60307Y-43123D01*
X60198Y-43231D01*
X60140Y-43373D01*
X60139Y-43526D01*
X60198Y-43667D01*
X60306Y-43776D01*
X60448Y-43834D01*
X60601Y-43835D01*
X60742Y-43776D01*
X60851Y-43668D01*
X60909Y-43526D01*
X60910Y-43373D01*
X60910Y-44550D01*
X59282Y-44550D01*
X59282Y-41280D01*
X59215Y-40945D01*
X59025Y-40661D01*
X58741Y-40471D01*
X58407Y-40405D01*
X58385Y-40405D01*
X58385Y-37873D01*
X58326Y-37732D01*
X58218Y-37623D01*
X58076Y-37565D01*
X57923Y-37564D01*
X57782Y-37623D01*
X57673Y-37731D01*
X57615Y-37873D01*
X57614Y-38026D01*
X57673Y-38167D01*
X57781Y-38276D01*
X57923Y-38334D01*
X58076Y-38335D01*
X58217Y-38276D01*
X58326Y-38168D01*
X58384Y-38026D01*
X58385Y-37873D01*
X58385Y-40405D01*
X58372Y-40405D01*
X58038Y-40471D01*
X57754Y-40661D01*
X57564Y-40945D01*
X57497Y-41280D01*
X57564Y-41614D01*
X57754Y-41898D01*
X58038Y-42088D01*
X58372Y-42155D01*
X58407Y-42155D01*
X58741Y-42088D01*
X59025Y-41898D01*
X59215Y-41614D01*
X59282Y-41280D01*
X59282Y-44550D01*
X55835Y-44550D01*
X55835Y-38573D01*
X55776Y-38432D01*
X55668Y-38323D01*
X55526Y-38265D01*
X55373Y-38264D01*
X55232Y-38323D01*
X55123Y-38431D01*
X55065Y-38573D01*
X55064Y-38726D01*
X55123Y-38867D01*
X55231Y-38976D01*
X55373Y-39034D01*
X55526Y-39035D01*
X55667Y-38976D01*
X55776Y-38868D01*
X55834Y-38726D01*
X55835Y-38573D01*
X55835Y-44550D01*
X54885Y-44550D01*
X54885Y-38073D01*
X54826Y-37932D01*
X54718Y-37823D01*
X54576Y-37765D01*
X54423Y-37764D01*
X54282Y-37823D01*
X54173Y-37931D01*
X54115Y-38073D01*
X54114Y-38226D01*
X54173Y-38367D01*
X54281Y-38476D01*
X54423Y-38534D01*
X54576Y-38535D01*
X54717Y-38476D01*
X54826Y-38368D01*
X54884Y-38226D01*
X54885Y-38073D01*
X54885Y-44550D01*
X52935Y-44550D01*
X52935Y-38148D01*
X52876Y-38007D01*
X52768Y-37898D01*
X52626Y-37840D01*
X52473Y-37839D01*
X52332Y-37898D01*
X52223Y-38006D01*
X52165Y-38148D01*
X52164Y-38301D01*
X52223Y-38442D01*
X52331Y-38551D01*
X52473Y-38609D01*
X52626Y-38610D01*
X52767Y-38551D01*
X52876Y-38443D01*
X52934Y-38301D01*
X52935Y-38148D01*
X52935Y-44550D01*
X49160Y-44550D01*
X49160Y-38948D01*
X49101Y-38807D01*
X48993Y-38698D01*
X48851Y-38640D01*
X48698Y-38639D01*
X48557Y-38698D01*
X48448Y-38806D01*
X48390Y-38948D01*
X48389Y-39101D01*
X48448Y-39242D01*
X48556Y-39351D01*
X48698Y-39409D01*
X48851Y-39410D01*
X48992Y-39351D01*
X49101Y-39243D01*
X49159Y-39101D01*
X49160Y-38948D01*
X49160Y-44550D01*
X46585Y-44550D01*
X46585Y-39898D01*
X46526Y-39757D01*
X46418Y-39648D01*
X46276Y-39590D01*
X46123Y-39589D01*
X45982Y-39648D01*
X45873Y-39756D01*
X45815Y-39898D01*
X45814Y-40051D01*
X45873Y-40192D01*
X45981Y-40301D01*
X46123Y-40359D01*
X46276Y-40360D01*
X46417Y-40301D01*
X46526Y-40193D01*
X46584Y-40051D01*
X46585Y-39898D01*
X46585Y-44550D01*
X45235Y-44550D01*
X45235Y-39773D01*
X45176Y-39632D01*
X45068Y-39523D01*
X44926Y-39465D01*
X44773Y-39464D01*
X44632Y-39523D01*
X44523Y-39631D01*
X44465Y-39773D01*
X44464Y-39926D01*
X44523Y-40067D01*
X44631Y-40176D01*
X44773Y-40234D01*
X44926Y-40235D01*
X45067Y-40176D01*
X45176Y-40068D01*
X45234Y-39926D01*
X45235Y-39773D01*
X45235Y-44550D01*
X36663Y-44550D01*
X36681Y-44531D01*
X36719Y-44439D01*
X36720Y-44340D01*
X36720Y-43340D01*
X36682Y-43248D01*
X36650Y-43216D01*
X36650Y-36650D01*
X38200Y-36650D01*
X59314Y-36527D01*
X59225Y-36563D01*
X59014Y-36774D01*
X58900Y-37050D01*
X58899Y-37348D01*
X59013Y-37624D01*
X59224Y-37835D01*
X59500Y-37949D01*
X59798Y-37950D01*
X60074Y-37836D01*
X60285Y-37625D01*
X60399Y-37349D01*
X60400Y-37051D01*
X60286Y-36775D01*
X60075Y-36564D01*
X59976Y-36523D01*
X64564Y-36496D01*
X64573Y-36517D01*
X64681Y-36626D01*
X64823Y-36684D01*
X64976Y-36685D01*
X65117Y-36626D01*
X65226Y-36518D01*
X65236Y-36492D01*
X66270Y-36486D01*
X66182Y-36523D01*
X66073Y-36631D01*
X66015Y-36773D01*
X66014Y-36926D01*
X66073Y-37067D01*
X66181Y-37176D01*
X66323Y-37234D01*
X66476Y-37235D01*
X66617Y-37176D01*
X66726Y-37068D01*
X66784Y-36926D01*
X66785Y-36773D01*
X66726Y-36632D01*
X66618Y-36523D01*
X66525Y-36485D01*
X67359Y-36480D01*
X67164Y-36674D01*
X67050Y-36950D01*
X67049Y-37248D01*
X67163Y-37524D01*
X67374Y-37735D01*
X67650Y-37849D01*
X67948Y-37850D01*
X68224Y-37736D01*
X68435Y-37525D01*
X68549Y-37249D01*
X68550Y-36951D01*
X68436Y-36675D01*
X68236Y-36475D01*
X70392Y-36462D01*
X70373Y-36481D01*
X70315Y-36623D01*
X70314Y-36776D01*
X70373Y-36917D01*
X70481Y-37026D01*
X70623Y-37084D01*
X70776Y-37085D01*
X70917Y-37026D01*
X71026Y-36918D01*
X71084Y-36776D01*
X71085Y-36623D01*
X71026Y-36482D01*
X71003Y-36459D01*
X72650Y-36449D01*
X72650Y-33450D01*
X82550Y-33450D01*
X82550Y-37650D01*
X84422Y-37650D01*
X84254Y-37817D01*
X84156Y-38053D01*
X84156Y-38309D01*
X84253Y-38546D01*
X84434Y-38727D01*
X84671Y-38825D01*
X84927Y-38826D01*
X85164Y-38728D01*
X85345Y-38547D01*
X85443Y-38310D01*
X85443Y-38054D01*
X85346Y-37818D01*
X85178Y-37650D01*
X85750Y-37650D01*
X85750Y-44550D01*
X85750Y-44550D01*
G37*
G54D31*
X85750Y-44550D02*
X85443Y-44550D01*
X85443Y-43566D01*
X85443Y-42188D01*
X85443Y-40810D01*
X85443Y-39432D01*
X85346Y-39196D01*
X85165Y-39014D01*
X84928Y-38916D01*
X84672Y-38916D01*
X84435Y-39014D01*
X84254Y-39195D01*
X84156Y-39431D01*
X84156Y-39687D01*
X84253Y-39924D01*
X84434Y-40105D01*
X84671Y-40203D01*
X84927Y-40204D01*
X85164Y-40106D01*
X85345Y-39925D01*
X85443Y-39688D01*
X85443Y-39432D01*
X85443Y-40810D01*
X85346Y-40574D01*
X85165Y-40392D01*
X84928Y-40294D01*
X84672Y-40294D01*
X84435Y-40392D01*
X84254Y-40573D01*
X84156Y-40809D01*
X84156Y-41065D01*
X84253Y-41302D01*
X84434Y-41483D01*
X84671Y-41581D01*
X84927Y-41582D01*
X85164Y-41484D01*
X85345Y-41303D01*
X85443Y-41066D01*
X85443Y-40810D01*
X85443Y-42188D01*
X85346Y-41951D01*
X85165Y-41770D01*
X84928Y-41672D01*
X84672Y-41672D01*
X84435Y-41770D01*
X84254Y-41951D01*
X84156Y-42187D01*
X84156Y-42443D01*
X84253Y-42680D01*
X84434Y-42861D01*
X84671Y-42959D01*
X84927Y-42959D01*
X85164Y-42862D01*
X85345Y-42681D01*
X85443Y-42444D01*
X85443Y-42188D01*
X85443Y-43566D01*
X85346Y-43329D01*
X85165Y-43148D01*
X84928Y-43050D01*
X84672Y-43050D01*
X84435Y-43148D01*
X84254Y-43328D01*
X84156Y-43565D01*
X84156Y-43821D01*
X84253Y-44058D01*
X84434Y-44239D01*
X84671Y-44337D01*
X84927Y-44337D01*
X85164Y-44240D01*
X85345Y-44059D01*
X85443Y-43822D01*
X85443Y-43566D01*
X85443Y-44550D01*
X85188Y-44550D01*
X85165Y-44526D01*
X84928Y-44428D01*
X84672Y-44428D01*
X84435Y-44526D01*
X84411Y-44550D01*
X82435Y-44550D01*
X82435Y-39923D01*
X82376Y-39782D01*
X82268Y-39673D01*
X82126Y-39615D01*
X81973Y-39614D01*
X81885Y-39651D01*
X81885Y-37923D01*
X81826Y-37782D01*
X81718Y-37673D01*
X81576Y-37615D01*
X81515Y-37615D01*
X81515Y-34716D01*
X81423Y-34495D01*
X81255Y-34326D01*
X81034Y-34235D01*
X80796Y-34234D01*
X80575Y-34326D01*
X80414Y-34486D01*
X80255Y-34326D01*
X80034Y-34235D01*
X79796Y-34234D01*
X79575Y-34326D01*
X79500Y-34400D01*
X79477Y-34343D01*
X79406Y-34273D01*
X79314Y-34235D01*
X79215Y-34234D01*
X78515Y-34234D01*
X78423Y-34272D01*
X78353Y-34343D01*
X78315Y-34435D01*
X78314Y-34534D01*
X78314Y-35234D01*
X78352Y-35326D01*
X78423Y-35396D01*
X78515Y-35434D01*
X78614Y-35435D01*
X79314Y-35435D01*
X79406Y-35397D01*
X79476Y-35326D01*
X79500Y-35269D01*
X79574Y-35343D01*
X79795Y-35434D01*
X80033Y-35435D01*
X80254Y-35343D01*
X80415Y-35183D01*
X80574Y-35343D01*
X80795Y-35434D01*
X81033Y-35435D01*
X81254Y-35343D01*
X81423Y-35175D01*
X81514Y-34954D01*
X81515Y-34716D01*
X81515Y-37615D01*
X81423Y-37614D01*
X81282Y-37673D01*
X81173Y-37781D01*
X81115Y-37923D01*
X81114Y-38076D01*
X81173Y-38217D01*
X81281Y-38326D01*
X81423Y-38384D01*
X81576Y-38385D01*
X81717Y-38326D01*
X81826Y-38218D01*
X81884Y-38076D01*
X81885Y-37923D01*
X81885Y-39651D01*
X81832Y-39673D01*
X81723Y-39781D01*
X81665Y-39923D01*
X81664Y-40076D01*
X81723Y-40217D01*
X81831Y-40326D01*
X81973Y-40384D01*
X82126Y-40385D01*
X82267Y-40326D01*
X82376Y-40218D01*
X82434Y-40076D01*
X82435Y-39923D01*
X82435Y-44550D01*
X81650Y-44550D01*
X81650Y-39251D01*
X81536Y-38975D01*
X81325Y-38764D01*
X81049Y-38650D01*
X80751Y-38649D01*
X80475Y-38763D01*
X80264Y-38974D01*
X80150Y-39250D01*
X80149Y-39419D01*
X80116Y-39338D01*
X79961Y-39184D01*
X79880Y-39150D01*
X79961Y-39116D01*
X80115Y-38961D01*
X80199Y-38759D01*
X80200Y-38541D01*
X80116Y-38338D01*
X79961Y-38184D01*
X79880Y-38150D01*
X79961Y-38116D01*
X80115Y-37961D01*
X80199Y-37759D01*
X80200Y-37541D01*
X80116Y-37338D01*
X79961Y-37184D01*
X79759Y-37100D01*
X79541Y-37099D01*
X79338Y-37183D01*
X79200Y-37322D01*
X79200Y-37300D01*
X79162Y-37208D01*
X79091Y-37138D01*
X79080Y-37133D01*
X79080Y-36454D01*
X79007Y-36278D01*
X78872Y-36143D01*
X78695Y-36070D01*
X78504Y-36069D01*
X78328Y-36142D01*
X78193Y-36277D01*
X78120Y-36454D01*
X78119Y-36645D01*
X78192Y-36821D01*
X78327Y-36956D01*
X78504Y-37029D01*
X78695Y-37030D01*
X78871Y-36957D01*
X79006Y-36822D01*
X79079Y-36645D01*
X79080Y-36454D01*
X79080Y-37133D01*
X78999Y-37100D01*
X78900Y-37099D01*
X78300Y-37099D01*
X78208Y-37137D01*
X78138Y-37208D01*
X78100Y-37300D01*
X78099Y-37399D01*
X78099Y-37999D01*
X78137Y-38091D01*
X78208Y-38161D01*
X78300Y-38199D01*
X78322Y-38199D01*
X78184Y-38338D01*
X78100Y-38540D01*
X78099Y-38758D01*
X78183Y-38961D01*
X78338Y-39115D01*
X78419Y-39149D01*
X78338Y-39183D01*
X78184Y-39338D01*
X78100Y-39540D01*
X78099Y-39758D01*
X78183Y-39961D01*
X78338Y-40115D01*
X78540Y-40199D01*
X78758Y-40200D01*
X78961Y-40116D01*
X79115Y-39961D01*
X79149Y-39880D01*
X79183Y-39961D01*
X79338Y-40115D01*
X79540Y-40199D01*
X79758Y-40200D01*
X79961Y-40116D01*
X80115Y-39961D01*
X80199Y-39759D01*
X80199Y-39669D01*
X80263Y-39824D01*
X80474Y-40035D01*
X80750Y-40149D01*
X81048Y-40150D01*
X81324Y-40036D01*
X81535Y-39825D01*
X81649Y-39549D01*
X81650Y-39251D01*
X81650Y-44550D01*
X77285Y-44550D01*
X77285Y-37223D01*
X77226Y-37082D01*
X77118Y-36973D01*
X76976Y-36915D01*
X76823Y-36914D01*
X76682Y-36973D01*
X76600Y-37055D01*
X76600Y-34731D01*
X76508Y-34510D01*
X76340Y-34341D01*
X76119Y-34250D01*
X75881Y-34249D01*
X75660Y-34341D01*
X75499Y-34501D01*
X75340Y-34341D01*
X75119Y-34250D01*
X74881Y-34249D01*
X74660Y-34341D01*
X74585Y-34415D01*
X74562Y-34358D01*
X74491Y-34288D01*
X74399Y-34250D01*
X74300Y-34249D01*
X73600Y-34249D01*
X73508Y-34287D01*
X73438Y-34358D01*
X73400Y-34450D01*
X73399Y-34549D01*
X73399Y-35249D01*
X73437Y-35341D01*
X73508Y-35411D01*
X73600Y-35449D01*
X73699Y-35450D01*
X74399Y-35450D01*
X74491Y-35412D01*
X74561Y-35341D01*
X74585Y-35284D01*
X74659Y-35358D01*
X74880Y-35449D01*
X75118Y-35450D01*
X75339Y-35358D01*
X75500Y-35198D01*
X75659Y-35358D01*
X75880Y-35449D01*
X76118Y-35450D01*
X76339Y-35358D01*
X76508Y-35190D01*
X76599Y-34969D01*
X76600Y-34731D01*
X76600Y-37055D01*
X76573Y-37081D01*
X76547Y-37144D01*
X76476Y-37115D01*
X76323Y-37114D01*
X76182Y-37173D01*
X76073Y-37281D01*
X76015Y-37423D01*
X76014Y-37576D01*
X76038Y-37632D01*
X75943Y-37727D01*
X75870Y-37904D01*
X75869Y-38095D01*
X75942Y-38271D01*
X76077Y-38406D01*
X76254Y-38479D01*
X76445Y-38480D01*
X76621Y-38407D01*
X76756Y-38272D01*
X76829Y-38095D01*
X76830Y-37904D01*
X76757Y-37728D01*
X76732Y-37703D01*
X76752Y-37655D01*
X76823Y-37684D01*
X76976Y-37685D01*
X77117Y-37626D01*
X77226Y-37518D01*
X77284Y-37376D01*
X77285Y-37223D01*
X77285Y-44550D01*
X75385Y-44550D01*
X75385Y-39423D01*
X75326Y-39282D01*
X75325Y-39280D01*
X75325Y-38123D01*
X75266Y-37982D01*
X75158Y-37873D01*
X75016Y-37815D01*
X74863Y-37814D01*
X74722Y-37873D01*
X74613Y-37981D01*
X74555Y-38123D01*
X74554Y-38276D01*
X74605Y-38397D01*
X74526Y-38365D01*
X74425Y-38364D01*
X74425Y-36959D01*
X74352Y-36783D01*
X74217Y-36648D01*
X74040Y-36575D01*
X73849Y-36574D01*
X73673Y-36647D01*
X73538Y-36782D01*
X73465Y-36959D01*
X73464Y-37150D01*
X73537Y-37326D01*
X73672Y-37461D01*
X73849Y-37534D01*
X74040Y-37535D01*
X74216Y-37462D01*
X74351Y-37327D01*
X74424Y-37150D01*
X74425Y-36959D01*
X74425Y-38364D01*
X74373Y-38364D01*
X74232Y-38423D01*
X74123Y-38531D01*
X74065Y-38673D01*
X74064Y-38826D01*
X74123Y-38967D01*
X74231Y-39076D01*
X74373Y-39134D01*
X74526Y-39135D01*
X74667Y-39076D01*
X74776Y-38968D01*
X74834Y-38826D01*
X74835Y-38673D01*
X74784Y-38552D01*
X74863Y-38584D01*
X75016Y-38585D01*
X75157Y-38526D01*
X75266Y-38418D01*
X75324Y-38276D01*
X75325Y-38123D01*
X75325Y-39280D01*
X75218Y-39173D01*
X75076Y-39115D01*
X74923Y-39114D01*
X74782Y-39173D01*
X74673Y-39281D01*
X74615Y-39423D01*
X74614Y-39576D01*
X74673Y-39717D01*
X74781Y-39826D01*
X74923Y-39884D01*
X75076Y-39885D01*
X75217Y-39826D01*
X75326Y-39718D01*
X75384Y-39576D01*
X75385Y-39423D01*
X75385Y-44550D01*
X74428Y-44550D01*
X74357Y-44378D01*
X74222Y-44243D01*
X74045Y-44170D01*
X73854Y-44169D01*
X73678Y-44242D01*
X73543Y-44377D01*
X73471Y-44550D01*
X72585Y-44550D01*
X72585Y-38673D01*
X72526Y-38532D01*
X72418Y-38423D01*
X72276Y-38365D01*
X72123Y-38364D01*
X71982Y-38423D01*
X71873Y-38531D01*
X71835Y-38624D01*
X71835Y-38373D01*
X71776Y-38232D01*
X71668Y-38123D01*
X71526Y-38065D01*
X71485Y-38065D01*
X71485Y-37373D01*
X71426Y-37232D01*
X71318Y-37123D01*
X71176Y-37065D01*
X71023Y-37064D01*
X70882Y-37123D01*
X70773Y-37231D01*
X70715Y-37373D01*
X70714Y-37526D01*
X70773Y-37667D01*
X70881Y-37776D01*
X71023Y-37834D01*
X71176Y-37835D01*
X71317Y-37776D01*
X71426Y-37668D01*
X71484Y-37526D01*
X71485Y-37373D01*
X71485Y-38065D01*
X71373Y-38064D01*
X71232Y-38123D01*
X71123Y-38231D01*
X71065Y-38373D01*
X71064Y-38526D01*
X71123Y-38667D01*
X71231Y-38776D01*
X71373Y-38834D01*
X71526Y-38835D01*
X71667Y-38776D01*
X71776Y-38668D01*
X71834Y-38526D01*
X71835Y-38373D01*
X71835Y-38624D01*
X71815Y-38673D01*
X71814Y-38826D01*
X71873Y-38967D01*
X71981Y-39076D01*
X72123Y-39134D01*
X72276Y-39135D01*
X72417Y-39076D01*
X72526Y-38968D01*
X72584Y-38826D01*
X72585Y-38673D01*
X72585Y-44550D01*
X71985Y-44550D01*
X71985Y-39323D01*
X71926Y-39182D01*
X71818Y-39073D01*
X71676Y-39015D01*
X71523Y-39014D01*
X71382Y-39073D01*
X71273Y-39181D01*
X71215Y-39323D01*
X71214Y-39476D01*
X71273Y-39617D01*
X71381Y-39726D01*
X71523Y-39784D01*
X71676Y-39785D01*
X71817Y-39726D01*
X71926Y-39618D01*
X71984Y-39476D01*
X71985Y-39323D01*
X71985Y-44550D01*
X71185Y-44550D01*
X71185Y-41023D01*
X71126Y-40882D01*
X71018Y-40773D01*
X70876Y-40715D01*
X70723Y-40714D01*
X70582Y-40773D01*
X70473Y-40881D01*
X70415Y-41023D01*
X70414Y-41176D01*
X70473Y-41317D01*
X70581Y-41426D01*
X70723Y-41484D01*
X70876Y-41485D01*
X71017Y-41426D01*
X71126Y-41318D01*
X71184Y-41176D01*
X71185Y-41023D01*
X71185Y-44550D01*
X67250Y-44550D01*
X67250Y-40451D01*
X67136Y-40175D01*
X66925Y-39964D01*
X66649Y-39850D01*
X66351Y-39849D01*
X66285Y-39877D01*
X66285Y-38023D01*
X66226Y-37882D01*
X66118Y-37773D01*
X65976Y-37715D01*
X65823Y-37714D01*
X65682Y-37773D01*
X65573Y-37881D01*
X65515Y-38023D01*
X65514Y-38176D01*
X65573Y-38317D01*
X65681Y-38426D01*
X65823Y-38484D01*
X65976Y-38485D01*
X66117Y-38426D01*
X66226Y-38318D01*
X66284Y-38176D01*
X66285Y-38023D01*
X66285Y-39877D01*
X66075Y-39963D01*
X65864Y-40174D01*
X65750Y-40450D01*
X65749Y-40748D01*
X65863Y-41024D01*
X66074Y-41235D01*
X66350Y-41349D01*
X66648Y-41350D01*
X66924Y-41236D01*
X67135Y-41025D01*
X67249Y-40749D01*
X67250Y-40451D01*
X67250Y-44550D01*
X66235Y-44550D01*
X66235Y-41723D01*
X66176Y-41582D01*
X66068Y-41473D01*
X65926Y-41415D01*
X65773Y-41414D01*
X65635Y-41472D01*
X65635Y-38573D01*
X65576Y-38432D01*
X65468Y-38323D01*
X65326Y-38265D01*
X65173Y-38264D01*
X65092Y-38298D01*
X65018Y-38223D01*
X64876Y-38165D01*
X64723Y-38164D01*
X64582Y-38223D01*
X64473Y-38331D01*
X64415Y-38473D01*
X64414Y-38626D01*
X64473Y-38767D01*
X64581Y-38876D01*
X64723Y-38934D01*
X64876Y-38935D01*
X64957Y-38901D01*
X65031Y-38976D01*
X65173Y-39034D01*
X65326Y-39035D01*
X65467Y-38976D01*
X65576Y-38868D01*
X65634Y-38726D01*
X65635Y-38573D01*
X65635Y-41472D01*
X65632Y-41473D01*
X65523Y-41581D01*
X65465Y-41723D01*
X65464Y-41876D01*
X65523Y-42017D01*
X65631Y-42126D01*
X65773Y-42184D01*
X65926Y-42185D01*
X66067Y-42126D01*
X66176Y-42018D01*
X66234Y-41876D01*
X66235Y-41723D01*
X66235Y-44550D01*
X65510Y-44550D01*
X65510Y-42523D01*
X65451Y-42382D01*
X65343Y-42273D01*
X65201Y-42215D01*
X65069Y-42214D01*
X65166Y-42118D01*
X65224Y-41976D01*
X65225Y-41823D01*
X65166Y-41682D01*
X65058Y-41573D01*
X64916Y-41515D01*
X64763Y-41514D01*
X64622Y-41573D01*
X64513Y-41681D01*
X64485Y-41750D01*
X64485Y-40523D01*
X64426Y-40382D01*
X64318Y-40273D01*
X64176Y-40215D01*
X64135Y-40215D01*
X64135Y-38423D01*
X64076Y-38282D01*
X63968Y-38173D01*
X63826Y-38115D01*
X63673Y-38114D01*
X63532Y-38173D01*
X63423Y-38281D01*
X63365Y-38423D01*
X63364Y-38576D01*
X63423Y-38717D01*
X63531Y-38826D01*
X63673Y-38884D01*
X63826Y-38885D01*
X63967Y-38826D01*
X64076Y-38718D01*
X64134Y-38576D01*
X64135Y-38423D01*
X64135Y-40215D01*
X64023Y-40214D01*
X63882Y-40273D01*
X63773Y-40381D01*
X63715Y-40523D01*
X63714Y-40676D01*
X63773Y-40817D01*
X63881Y-40926D01*
X64023Y-40984D01*
X64176Y-40985D01*
X64317Y-40926D01*
X64426Y-40818D01*
X64484Y-40676D01*
X64485Y-40523D01*
X64485Y-41750D01*
X64455Y-41823D01*
X64454Y-41976D01*
X64513Y-42117D01*
X64621Y-42226D01*
X64763Y-42284D01*
X64895Y-42285D01*
X64798Y-42381D01*
X64740Y-42523D01*
X64739Y-42676D01*
X64797Y-42814D01*
X64748Y-42814D01*
X64607Y-42873D01*
X64498Y-42981D01*
X64440Y-43123D01*
X64439Y-43276D01*
X64498Y-43417D01*
X64606Y-43526D01*
X64748Y-43584D01*
X64901Y-43585D01*
X65042Y-43526D01*
X65151Y-43418D01*
X65209Y-43276D01*
X65210Y-43123D01*
X65152Y-42985D01*
X65201Y-42985D01*
X65342Y-42926D01*
X65451Y-42818D01*
X65509Y-42676D01*
X65510Y-42523D01*
X65510Y-44550D01*
X63485Y-44550D01*
X63485Y-40623D01*
X63426Y-40482D01*
X63318Y-40373D01*
X63176Y-40315D01*
X63023Y-40314D01*
X62882Y-40373D01*
X62773Y-40481D01*
X62715Y-40623D01*
X62714Y-40776D01*
X62773Y-40917D01*
X62881Y-41026D01*
X63023Y-41084D01*
X63176Y-41085D01*
X63317Y-41026D01*
X63426Y-40918D01*
X63484Y-40776D01*
X63485Y-40623D01*
X63485Y-44550D01*
X62285Y-44550D01*
X62285Y-42523D01*
X62226Y-42382D01*
X62118Y-42273D01*
X61976Y-42215D01*
X61823Y-42214D01*
X61682Y-42273D01*
X61573Y-42381D01*
X61515Y-42523D01*
X61514Y-42676D01*
X61573Y-42817D01*
X61681Y-42926D01*
X61823Y-42984D01*
X61976Y-42985D01*
X62117Y-42926D01*
X62226Y-42818D01*
X62284Y-42676D01*
X62285Y-42523D01*
X62285Y-44550D01*
X61185Y-44550D01*
X61185Y-41073D01*
X61126Y-40932D01*
X61018Y-40823D01*
X60876Y-40765D01*
X60723Y-40764D01*
X60582Y-40823D01*
X60473Y-40931D01*
X60415Y-41073D01*
X60414Y-41226D01*
X60473Y-41367D01*
X60581Y-41476D01*
X60723Y-41534D01*
X60876Y-41535D01*
X61017Y-41476D01*
X61126Y-41368D01*
X61184Y-41226D01*
X61185Y-41073D01*
X61185Y-44550D01*
X60910Y-44550D01*
X60910Y-43373D01*
X60851Y-43232D01*
X60743Y-43123D01*
X60655Y-43087D01*
X60742Y-43051D01*
X60851Y-42943D01*
X60909Y-42801D01*
X60910Y-42648D01*
X60851Y-42507D01*
X60743Y-42398D01*
X60601Y-42340D01*
X60448Y-42339D01*
X60307Y-42398D01*
X60198Y-42506D01*
X60140Y-42648D01*
X60139Y-42801D01*
X60198Y-42942D01*
X60306Y-43051D01*
X60394Y-43087D01*
X60307Y-43123D01*
X60198Y-43231D01*
X60140Y-43373D01*
X60139Y-43526D01*
X60198Y-43667D01*
X60306Y-43776D01*
X60448Y-43834D01*
X60601Y-43835D01*
X60742Y-43776D01*
X60851Y-43668D01*
X60909Y-43526D01*
X60910Y-43373D01*
X60910Y-44550D01*
X59282Y-44550D01*
X59282Y-41280D01*
X59215Y-40945D01*
X59025Y-40661D01*
X58741Y-40471D01*
X58407Y-40405D01*
X58385Y-40405D01*
X58385Y-37873D01*
X58326Y-37732D01*
X58218Y-37623D01*
X58076Y-37565D01*
X57923Y-37564D01*
X57782Y-37623D01*
X57673Y-37731D01*
X57615Y-37873D01*
X57614Y-38026D01*
X57673Y-38167D01*
X57781Y-38276D01*
X57923Y-38334D01*
X58076Y-38335D01*
X58217Y-38276D01*
X58326Y-38168D01*
X58384Y-38026D01*
X58385Y-37873D01*
X58385Y-40405D01*
X58372Y-40405D01*
X58038Y-40471D01*
X57754Y-40661D01*
X57564Y-40945D01*
X57497Y-41280D01*
X57564Y-41614D01*
X57754Y-41898D01*
X58038Y-42088D01*
X58372Y-42155D01*
X58407Y-42155D01*
X58741Y-42088D01*
X59025Y-41898D01*
X59215Y-41614D01*
X59282Y-41280D01*
X59282Y-44550D01*
X55835Y-44550D01*
X55835Y-38573D01*
X55776Y-38432D01*
X55668Y-38323D01*
X55526Y-38265D01*
X55373Y-38264D01*
X55232Y-38323D01*
X55123Y-38431D01*
X55065Y-38573D01*
X55064Y-38726D01*
X55123Y-38867D01*
X55231Y-38976D01*
X55373Y-39034D01*
X55526Y-39035D01*
X55667Y-38976D01*
X55776Y-38868D01*
X55834Y-38726D01*
X55835Y-38573D01*
X55835Y-44550D01*
X54885Y-44550D01*
X54885Y-38073D01*
X54826Y-37932D01*
X54718Y-37823D01*
X54576Y-37765D01*
X54423Y-37764D01*
X54282Y-37823D01*
X54173Y-37931D01*
X54115Y-38073D01*
X54114Y-38226D01*
X54173Y-38367D01*
X54281Y-38476D01*
X54423Y-38534D01*
X54576Y-38535D01*
X54717Y-38476D01*
X54826Y-38368D01*
X54884Y-38226D01*
X54885Y-38073D01*
X54885Y-44550D01*
X52935Y-44550D01*
X52935Y-38148D01*
X52876Y-38007D01*
X52768Y-37898D01*
X52626Y-37840D01*
X52473Y-37839D01*
X52332Y-37898D01*
X52223Y-38006D01*
X52165Y-38148D01*
X52164Y-38301D01*
X52223Y-38442D01*
X52331Y-38551D01*
X52473Y-38609D01*
X52626Y-38610D01*
X52767Y-38551D01*
X52876Y-38443D01*
X52934Y-38301D01*
X52935Y-38148D01*
X52935Y-44550D01*
X49160Y-44550D01*
X49160Y-38948D01*
X49101Y-38807D01*
X48993Y-38698D01*
X48851Y-38640D01*
X48698Y-38639D01*
X48557Y-38698D01*
X48448Y-38806D01*
X48390Y-38948D01*
X48389Y-39101D01*
X48448Y-39242D01*
X48556Y-39351D01*
X48698Y-39409D01*
X48851Y-39410D01*
X48992Y-39351D01*
X49101Y-39243D01*
X49159Y-39101D01*
X49160Y-38948D01*
X49160Y-44550D01*
X46585Y-44550D01*
X46585Y-39898D01*
X46526Y-39757D01*
X46418Y-39648D01*
X46276Y-39590D01*
X46123Y-39589D01*
X45982Y-39648D01*
X45873Y-39756D01*
X45815Y-39898D01*
X45814Y-40051D01*
X45873Y-40192D01*
X45981Y-40301D01*
X46123Y-40359D01*
X46276Y-40360D01*
X46417Y-40301D01*
X46526Y-40193D01*
X46584Y-40051D01*
X46585Y-39898D01*
X46585Y-44550D01*
X45235Y-44550D01*
X45235Y-39773D01*
X45176Y-39632D01*
X45068Y-39523D01*
X44926Y-39465D01*
X44773Y-39464D01*
X44632Y-39523D01*
X44523Y-39631D01*
X44465Y-39773D01*
X44464Y-39926D01*
X44523Y-40067D01*
X44631Y-40176D01*
X44773Y-40234D01*
X44926Y-40235D01*
X45067Y-40176D01*
X45176Y-40068D01*
X45234Y-39926D01*
X45235Y-39773D01*
X45235Y-44550D01*
X36663Y-44550D01*
X36681Y-44531D01*
X36719Y-44439D01*
X36720Y-44340D01*
X36720Y-43340D01*
X36682Y-43248D01*
X36650Y-43216D01*
X36650Y-36650D01*
X38200Y-36650D01*
X59314Y-36527D01*
X59225Y-36563D01*
X59014Y-36774D01*
X58900Y-37050D01*
X58899Y-37348D01*
X59013Y-37624D01*
X59224Y-37835D01*
X59500Y-37949D01*
X59798Y-37950D01*
X60074Y-37836D01*
X60285Y-37625D01*
X60399Y-37349D01*
X60400Y-37051D01*
X60286Y-36775D01*
X60075Y-36564D01*
X59976Y-36523D01*
X64564Y-36496D01*
X64573Y-36517D01*
X64681Y-36626D01*
X64823Y-36684D01*
X64976Y-36685D01*
X65117Y-36626D01*
X65226Y-36518D01*
X65236Y-36492D01*
X66270Y-36486D01*
X66182Y-36523D01*
X66073Y-36631D01*
X66015Y-36773D01*
X66014Y-36926D01*
X66073Y-37067D01*
X66181Y-37176D01*
X66323Y-37234D01*
X66476Y-37235D01*
X66617Y-37176D01*
X66726Y-37068D01*
X66784Y-36926D01*
X66785Y-36773D01*
X66726Y-36632D01*
X66618Y-36523D01*
X66525Y-36485D01*
X67359Y-36480D01*
X67164Y-36674D01*
X67050Y-36950D01*
X67049Y-37248D01*
X67163Y-37524D01*
X67374Y-37735D01*
X67650Y-37849D01*
X67948Y-37850D01*
X68224Y-37736D01*
X68435Y-37525D01*
X68549Y-37249D01*
X68550Y-36951D01*
X68436Y-36675D01*
X68236Y-36475D01*
X70392Y-36462D01*
X70373Y-36481D01*
X70315Y-36623D01*
X70314Y-36776D01*
X70373Y-36917D01*
X70481Y-37026D01*
X70623Y-37084D01*
X70776Y-37085D01*
X70917Y-37026D01*
X71026Y-36918D01*
X71084Y-36776D01*
X71085Y-36623D01*
X71026Y-36482D01*
X71003Y-36459D01*
X72650Y-36449D01*
X72650Y-33450D01*
X82550Y-33450D01*
X82550Y-37650D01*
X84422Y-37650D01*
X84254Y-37817D01*
X84156Y-38053D01*
X84156Y-38309D01*
X84253Y-38546D01*
X84434Y-38727D01*
X84671Y-38825D01*
X84927Y-38826D01*
X85164Y-38728D01*
X85345Y-38547D01*
X85443Y-38310D01*
X85443Y-38054D01*
X85346Y-37818D01*
X85178Y-37650D01*
X85750Y-37650D01*
X85750Y-44550D01*
G54D10*
G36*
X85759Y-47430D02*
X85443Y-47433D01*
X85443Y-46794D01*
X85443Y-46006D01*
X85405Y-45914D01*
X85335Y-45844D01*
X85243Y-45806D01*
X85144Y-45806D01*
X84356Y-45806D01*
X84264Y-45844D01*
X84194Y-45914D01*
X84156Y-46006D01*
X84156Y-46105D01*
X84156Y-46893D01*
X84194Y-46985D01*
X84264Y-47055D01*
X84356Y-47093D01*
X84455Y-47093D01*
X85243Y-47093D01*
X85335Y-47055D01*
X85405Y-46985D01*
X85443Y-46893D01*
X85443Y-46794D01*
X85443Y-47433D01*
X70419Y-47580D01*
X70429Y-48560D01*
X64085Y-48595D01*
X64085Y-46223D01*
X64026Y-46082D01*
X63918Y-45973D01*
X63776Y-45915D01*
X63623Y-45914D01*
X63482Y-45973D01*
X63373Y-46081D01*
X63315Y-46223D01*
X63314Y-46376D01*
X63373Y-46517D01*
X63481Y-46626D01*
X63623Y-46684D01*
X63776Y-46685D01*
X63917Y-46626D01*
X64026Y-46518D01*
X64084Y-46376D01*
X64085Y-46223D01*
X64085Y-48595D01*
X63737Y-48597D01*
X63779Y-48495D01*
X63780Y-48304D01*
X63707Y-48128D01*
X63572Y-47993D01*
X63395Y-47920D01*
X63204Y-47919D01*
X63028Y-47992D01*
X62893Y-48127D01*
X62820Y-48304D01*
X62819Y-48495D01*
X62864Y-48602D01*
X61980Y-48607D01*
X61980Y-46604D01*
X61907Y-46428D01*
X61772Y-46293D01*
X61595Y-46220D01*
X61404Y-46219D01*
X61228Y-46292D01*
X61093Y-46427D01*
X61080Y-46459D01*
X61080Y-46404D01*
X61007Y-46228D01*
X60872Y-46093D01*
X60695Y-46020D01*
X60504Y-46019D01*
X60328Y-46092D01*
X60193Y-46227D01*
X60120Y-46404D01*
X60119Y-46595D01*
X60192Y-46771D01*
X60327Y-46906D01*
X60504Y-46979D01*
X60695Y-46980D01*
X60871Y-46907D01*
X61006Y-46772D01*
X61019Y-46740D01*
X61019Y-46795D01*
X61092Y-46971D01*
X61227Y-47106D01*
X61404Y-47179D01*
X61595Y-47180D01*
X61771Y-47107D01*
X61906Y-46972D01*
X61979Y-46795D01*
X61980Y-46604D01*
X61980Y-48607D01*
X48958Y-48680D01*
X48974Y-48600D01*
X48975Y-48600D01*
X48975Y-48519D01*
X48976Y-48518D01*
X49034Y-48376D01*
X49035Y-48223D01*
X48976Y-48082D01*
X48868Y-47973D01*
X48726Y-47915D01*
X48573Y-47914D01*
X48432Y-47973D01*
X48323Y-48081D01*
X48265Y-48223D01*
X48264Y-48376D01*
X48323Y-48517D01*
X48328Y-48522D01*
X48225Y-48625D01*
X47677Y-48625D01*
X47646Y-48578D01*
X47487Y-48472D01*
X47389Y-48452D01*
X47370Y-48445D01*
X47350Y-48445D01*
X47300Y-48435D01*
X36977Y-48435D01*
X36940Y-48397D01*
X36940Y-47850D01*
X36939Y-47849D01*
X36902Y-47662D01*
X36847Y-47580D01*
X36895Y-47580D01*
X37071Y-47507D01*
X37206Y-47372D01*
X37279Y-47195D01*
X37280Y-47004D01*
X37207Y-46828D01*
X37072Y-46693D01*
X36895Y-46620D01*
X36704Y-46619D01*
X36650Y-46642D01*
X36650Y-46293D01*
X36681Y-46261D01*
X36719Y-46169D01*
X36720Y-46070D01*
X36720Y-45070D01*
X36711Y-45049D01*
X56519Y-45001D01*
X56490Y-45073D01*
X56489Y-45226D01*
X56548Y-45367D01*
X56656Y-45476D01*
X56798Y-45534D01*
X56951Y-45535D01*
X57092Y-45476D01*
X57201Y-45368D01*
X57259Y-45226D01*
X57260Y-45073D01*
X57229Y-44999D01*
X73581Y-44959D01*
X73677Y-45056D01*
X73854Y-45129D01*
X74045Y-45130D01*
X74221Y-45057D01*
X74320Y-44957D01*
X84160Y-44933D01*
X84156Y-44943D01*
X84156Y-45199D01*
X84253Y-45436D01*
X84434Y-45617D01*
X84671Y-45715D01*
X84927Y-45715D01*
X85164Y-45618D01*
X85345Y-45437D01*
X85443Y-45200D01*
X85443Y-44944D01*
X85438Y-44930D01*
X85749Y-44930D01*
X85739Y-45509D01*
X85759Y-47430D01*
X85759Y-47430D01*
G37*
G54D31*
X85759Y-47430D02*
X85443Y-47433D01*
X85443Y-46794D01*
X85443Y-46006D01*
X85405Y-45914D01*
X85335Y-45844D01*
X85243Y-45806D01*
X85144Y-45806D01*
X84356Y-45806D01*
X84264Y-45844D01*
X84194Y-45914D01*
X84156Y-46006D01*
X84156Y-46105D01*
X84156Y-46893D01*
X84194Y-46985D01*
X84264Y-47055D01*
X84356Y-47093D01*
X84455Y-47093D01*
X85243Y-47093D01*
X85335Y-47055D01*
X85405Y-46985D01*
X85443Y-46893D01*
X85443Y-46794D01*
X85443Y-47433D01*
X70419Y-47580D01*
X70429Y-48560D01*
X64085Y-48595D01*
X64085Y-46223D01*
X64026Y-46082D01*
X63918Y-45973D01*
X63776Y-45915D01*
X63623Y-45914D01*
X63482Y-45973D01*
X63373Y-46081D01*
X63315Y-46223D01*
X63314Y-46376D01*
X63373Y-46517D01*
X63481Y-46626D01*
X63623Y-46684D01*
X63776Y-46685D01*
X63917Y-46626D01*
X64026Y-46518D01*
X64084Y-46376D01*
X64085Y-46223D01*
X64085Y-48595D01*
X63737Y-48597D01*
X63779Y-48495D01*
X63780Y-48304D01*
X63707Y-48128D01*
X63572Y-47993D01*
X63395Y-47920D01*
X63204Y-47919D01*
X63028Y-47992D01*
X62893Y-48127D01*
X62820Y-48304D01*
X62819Y-48495D01*
X62864Y-48602D01*
X61980Y-48607D01*
X61980Y-46604D01*
X61907Y-46428D01*
X61772Y-46293D01*
X61595Y-46220D01*
X61404Y-46219D01*
X61228Y-46292D01*
X61093Y-46427D01*
X61080Y-46459D01*
X61080Y-46404D01*
X61007Y-46228D01*
X60872Y-46093D01*
X60695Y-46020D01*
X60504Y-46019D01*
X60328Y-46092D01*
X60193Y-46227D01*
X60120Y-46404D01*
X60119Y-46595D01*
X60192Y-46771D01*
X60327Y-46906D01*
X60504Y-46979D01*
X60695Y-46980D01*
X60871Y-46907D01*
X61006Y-46772D01*
X61019Y-46740D01*
X61019Y-46795D01*
X61092Y-46971D01*
X61227Y-47106D01*
X61404Y-47179D01*
X61595Y-47180D01*
X61771Y-47107D01*
X61906Y-46972D01*
X61979Y-46795D01*
X61980Y-46604D01*
X61980Y-48607D01*
X48958Y-48680D01*
X48974Y-48600D01*
X48975Y-48600D01*
X48975Y-48519D01*
X48976Y-48518D01*
X49034Y-48376D01*
X49035Y-48223D01*
X48976Y-48082D01*
X48868Y-47973D01*
X48726Y-47915D01*
X48573Y-47914D01*
X48432Y-47973D01*
X48323Y-48081D01*
X48265Y-48223D01*
X48264Y-48376D01*
X48323Y-48517D01*
X48328Y-48522D01*
X48225Y-48625D01*
X47677Y-48625D01*
X47646Y-48578D01*
X47487Y-48472D01*
X47389Y-48452D01*
X47370Y-48445D01*
X47350Y-48445D01*
X47300Y-48435D01*
X36977Y-48435D01*
X36940Y-48397D01*
X36940Y-47850D01*
X36939Y-47849D01*
X36902Y-47662D01*
X36847Y-47580D01*
X36895Y-47580D01*
X37071Y-47507D01*
X37206Y-47372D01*
X37279Y-47195D01*
X37280Y-47004D01*
X37207Y-46828D01*
X37072Y-46693D01*
X36895Y-46620D01*
X36704Y-46619D01*
X36650Y-46642D01*
X36650Y-46293D01*
X36681Y-46261D01*
X36719Y-46169D01*
X36720Y-46070D01*
X36720Y-45070D01*
X36711Y-45049D01*
X56519Y-45001D01*
X56490Y-45073D01*
X56489Y-45226D01*
X56548Y-45367D01*
X56656Y-45476D01*
X56798Y-45534D01*
X56951Y-45535D01*
X57092Y-45476D01*
X57201Y-45368D01*
X57259Y-45226D01*
X57260Y-45073D01*
X57229Y-44999D01*
X73581Y-44959D01*
X73677Y-45056D01*
X73854Y-45129D01*
X74045Y-45130D01*
X74221Y-45057D01*
X74320Y-44957D01*
X84160Y-44933D01*
X84156Y-44943D01*
X84156Y-45199D01*
X84253Y-45436D01*
X84434Y-45617D01*
X84671Y-45715D01*
X84927Y-45715D01*
X85164Y-45618D01*
X85345Y-45437D01*
X85443Y-45200D01*
X85443Y-44944D01*
X85438Y-44930D01*
X85749Y-44930D01*
X85739Y-45509D01*
X85759Y-47430D01*
M02*
