G04 (created by PCBNEW (2013-03-19 BZR 4004)-stable) date 2/16/2014 5:39:05 PM*
%MOIN*%
G04 Gerber Fmt 3.4, Leading zero omitted, Abs format*
%FSLAX34Y34*%
G01*
G70*
G90*
G04 APERTURE LIST*
%ADD10C,0.006*%
%ADD11C,0.0001*%
%ADD12R,0.0669291X0.0984252*%
%ADD13R,0.035X0.055*%
%ADD14R,0.0511811X0.0590551*%
%ADD15R,0.016X0.05*%
%ADD16R,0.045X0.02*%
%ADD17R,0.06X0.06*%
%ADD18C,0.06*%
%ADD19R,0.055X0.035*%
%ADD20R,0.0787402X0.0787402*%
%ADD21C,0.0787402*%
%ADD22R,0.0984252X0.0669291*%
%ADD23R,0.07X0.11*%
%ADD24R,0.08X0.06*%
%ADD25R,0.0394X0.0276*%
%ADD26R,0.0531496X0.0255906*%
%ADD27R,0.145669X0.0472441*%
%ADD28C,0.075*%
%ADD29C,0.11811*%
%ADD30C,0.16*%
%ADD31R,0.1X0.2*%
%ADD32R,0.0314X0.0314*%
%ADD33C,0.0984252*%
%ADD34C,0.07*%
%ADD35R,0.07X0.07*%
%ADD36O,0.0866142X0.110236*%
%ADD37C,0.0629921*%
%ADD38C,0.0590551*%
%ADD39C,0.0551181*%
%ADD40O,0.06X0.1*%
%ADD41O,0.125X0.125*%
%ADD42C,0.1*%
%ADD43R,0.065X0.12*%
%ADD44R,0.24X0.24*%
%ADD45C,0.01*%
G04 APERTURE END LIST*
G54D10*
G54D11*
G36*
X63686Y-51477D02*
X63479Y-51522D01*
X63365Y-51549D01*
X63297Y-51577D01*
X63255Y-51622D01*
X63218Y-51697D01*
X63208Y-51721D01*
X63145Y-51876D01*
X63263Y-52040D01*
X63381Y-52205D01*
X63220Y-52364D01*
X63058Y-52523D01*
X62916Y-52420D01*
X62790Y-52343D01*
X62695Y-52318D01*
X62637Y-52345D01*
X62634Y-52350D01*
X62609Y-52376D01*
X62582Y-52370D01*
X62548Y-52324D01*
X62503Y-52231D01*
X62440Y-52086D01*
X62417Y-52030D01*
X62273Y-51677D01*
X62377Y-51595D01*
X62477Y-51478D01*
X62526Y-51335D01*
X62523Y-51184D01*
X62470Y-51041D01*
X62380Y-50935D01*
X62255Y-50869D01*
X62108Y-50846D01*
X61965Y-50870D01*
X61871Y-50919D01*
X61754Y-51048D01*
X61696Y-51194D01*
X61697Y-51346D01*
X61757Y-51492D01*
X61868Y-51611D01*
X61954Y-51679D01*
X61814Y-52023D01*
X61757Y-52161D01*
X61710Y-52275D01*
X61678Y-52351D01*
X61666Y-52376D01*
X61634Y-52371D01*
X61573Y-52346D01*
X61499Y-52325D01*
X61431Y-52345D01*
X61393Y-52367D01*
X61281Y-52440D01*
X61208Y-52480D01*
X61157Y-52486D01*
X61109Y-52458D01*
X61046Y-52396D01*
X61010Y-52358D01*
X60856Y-52200D01*
X60968Y-52037D01*
X61079Y-51874D01*
X61019Y-51720D01*
X60982Y-51636D01*
X60944Y-51585D01*
X60884Y-51554D01*
X60783Y-51528D01*
X60753Y-51522D01*
X60547Y-51477D01*
X60557Y-51256D01*
X60567Y-51036D01*
X60700Y-51010D01*
X60805Y-50989D01*
X60892Y-50970D01*
X60904Y-50967D01*
X60969Y-50919D01*
X61028Y-50808D01*
X61032Y-50800D01*
X61089Y-50650D01*
X60965Y-50481D01*
X60841Y-50312D01*
X60986Y-50164D01*
X61066Y-50087D01*
X61129Y-50033D01*
X61158Y-50016D01*
X61199Y-50034D01*
X61276Y-50079D01*
X61355Y-50130D01*
X61524Y-50244D01*
X61662Y-50186D01*
X61736Y-50151D01*
X61782Y-50113D01*
X61811Y-50052D01*
X61837Y-49950D01*
X61847Y-49904D01*
X61894Y-49680D01*
X62112Y-49690D01*
X62330Y-49700D01*
X62382Y-49914D01*
X62413Y-50030D01*
X62443Y-50101D01*
X62487Y-50144D01*
X62557Y-50180D01*
X62571Y-50186D01*
X62709Y-50244D01*
X62869Y-50130D01*
X62961Y-50069D01*
X63034Y-50027D01*
X63066Y-50016D01*
X63107Y-50039D01*
X63177Y-50096D01*
X63243Y-50159D01*
X63383Y-50302D01*
X63263Y-50479D01*
X63144Y-50657D01*
X63200Y-50803D01*
X63231Y-50878D01*
X63264Y-50926D01*
X63316Y-50958D01*
X63402Y-50983D01*
X63534Y-51010D01*
X63667Y-51036D01*
X63677Y-51256D01*
X63686Y-51477D01*
X63686Y-51477D01*
X63686Y-51477D01*
G37*
G54D12*
X70670Y-54290D03*
X70670Y-52640D03*
G54D13*
X72325Y-50800D03*
X73075Y-50800D03*
X70775Y-50800D03*
X70025Y-50800D03*
X68325Y-49600D03*
X69075Y-49600D03*
G54D14*
X65200Y-53250D03*
X65200Y-54250D03*
X68750Y-54250D03*
X68750Y-53250D03*
G54D15*
X65300Y-37900D03*
X65050Y-37900D03*
X64790Y-37900D03*
X64530Y-37900D03*
X64280Y-37900D03*
X64020Y-37900D03*
X63760Y-37900D03*
X63510Y-37900D03*
X63250Y-37900D03*
X63000Y-37900D03*
X63000Y-40000D03*
X63250Y-40000D03*
X63510Y-40000D03*
X63760Y-40000D03*
X64020Y-40000D03*
X64280Y-40000D03*
X64530Y-40000D03*
X64790Y-40000D03*
X65050Y-40000D03*
X65300Y-40000D03*
G54D16*
X73150Y-37000D03*
X73150Y-37500D03*
X73150Y-38000D03*
X73150Y-38500D03*
X73150Y-39000D03*
X73150Y-39500D03*
X73150Y-40000D03*
X75650Y-40000D03*
X75650Y-39500D03*
X75650Y-38500D03*
X75650Y-38000D03*
X75650Y-37500D03*
X75650Y-37000D03*
X75650Y-39000D03*
G54D17*
X78650Y-37650D03*
G54D18*
X79650Y-37650D03*
X78650Y-38650D03*
X79650Y-38650D03*
X78650Y-39650D03*
X79650Y-39650D03*
G54D19*
X62150Y-38075D03*
X62150Y-38825D03*
G54D13*
X65075Y-36850D03*
X64325Y-36850D03*
G54D20*
X84700Y-53350D03*
G54D21*
X84700Y-51381D03*
X84700Y-49412D03*
G54D20*
X84800Y-46450D03*
G54D21*
X84800Y-45072D03*
X84800Y-43694D03*
X84800Y-42316D03*
X84800Y-40938D03*
X84800Y-39560D03*
X84800Y-38182D03*
X84800Y-36804D03*
X84800Y-35426D03*
X84800Y-34048D03*
X84800Y-32670D03*
X84800Y-31292D03*
G54D16*
X63750Y-42400D03*
X63750Y-42900D03*
X63750Y-43400D03*
X63750Y-43900D03*
X61250Y-43900D03*
X61250Y-43400D03*
X61250Y-42900D03*
X61250Y-42400D03*
G54D22*
X81250Y-40950D03*
X82900Y-40950D03*
G54D13*
X68075Y-39450D03*
X68825Y-39450D03*
G54D23*
X30350Y-34875D03*
X31750Y-34875D03*
X31800Y-33350D03*
X30400Y-33350D03*
G54D24*
X32925Y-34925D03*
X32925Y-36225D03*
X32800Y-31525D03*
X32800Y-32825D03*
X33100Y-41300D03*
X33100Y-40000D03*
G54D13*
X31200Y-31300D03*
X30450Y-31300D03*
X55000Y-32875D03*
X55750Y-32875D03*
X54925Y-31000D03*
X55675Y-31000D03*
G54D25*
X62200Y-47075D03*
X62200Y-46700D03*
X62200Y-46325D03*
X63200Y-46325D03*
X63200Y-46700D03*
X63200Y-47075D03*
G54D26*
X67800Y-47400D03*
X67800Y-48344D03*
G54D27*
X66100Y-47500D03*
X66100Y-46397D03*
G54D28*
X75360Y-51660D03*
X76160Y-49300D03*
X80960Y-49300D03*
X80960Y-54020D03*
X76160Y-54020D03*
G54D29*
X23200Y-31400D03*
X23100Y-54100D03*
X81900Y-31550D03*
G54D30*
X35300Y-44750D03*
G54D17*
X35300Y-47500D03*
G54D18*
X35300Y-48500D03*
G54D31*
X35300Y-48000D03*
G54D10*
G36*
X36822Y-45846D02*
X37246Y-45422D01*
X37670Y-45846D01*
X37246Y-46270D01*
X36822Y-45846D01*
X36822Y-45846D01*
G37*
G54D18*
X37953Y-46553D03*
G54D10*
G36*
X36539Y-45846D02*
X37246Y-45139D01*
X38660Y-46553D01*
X37953Y-47260D01*
X36539Y-45846D01*
X36539Y-45846D01*
G37*
G54D17*
X35200Y-42700D03*
G54D18*
X35200Y-41700D03*
G54D31*
X35200Y-42200D03*
G54D10*
G36*
X36846Y-44177D02*
X36422Y-43753D01*
X36846Y-43329D01*
X37270Y-43753D01*
X36846Y-44177D01*
X36846Y-44177D01*
G37*
G54D18*
X37553Y-43046D03*
G54D10*
G36*
X36846Y-44460D02*
X36139Y-43753D01*
X37553Y-42339D01*
X38260Y-43046D01*
X36846Y-44460D01*
X36846Y-44460D01*
G37*
G54D19*
X61125Y-37075D03*
X61125Y-37825D03*
G54D10*
G36*
X54780Y-37430D02*
X54170Y-37430D01*
X54370Y-36720D01*
X54580Y-36720D01*
X54780Y-37430D01*
X54780Y-37430D01*
G37*
G36*
X54780Y-35970D02*
X54580Y-36680D01*
X54370Y-36680D01*
X54170Y-35970D01*
X54780Y-35970D01*
X54780Y-35970D01*
G37*
G36*
X55705Y-37730D02*
X55095Y-37730D01*
X55295Y-37020D01*
X55505Y-37020D01*
X55705Y-37730D01*
X55705Y-37730D01*
G37*
G36*
X55705Y-36270D02*
X55505Y-36980D01*
X55295Y-36980D01*
X55095Y-36270D01*
X55705Y-36270D01*
X55705Y-36270D01*
G37*
G36*
X53730Y-37730D02*
X53120Y-37730D01*
X53320Y-37020D01*
X53530Y-37020D01*
X53730Y-37730D01*
X53730Y-37730D01*
G37*
G36*
X53730Y-36270D02*
X53530Y-36980D01*
X53320Y-36980D01*
X53120Y-36270D01*
X53730Y-36270D01*
X53730Y-36270D01*
G37*
G36*
X47105Y-38380D02*
X46495Y-38380D01*
X46695Y-37670D01*
X46905Y-37670D01*
X47105Y-38380D01*
X47105Y-38380D01*
G37*
G36*
X47105Y-36920D02*
X46905Y-37630D01*
X46695Y-37630D01*
X46495Y-36920D01*
X47105Y-36920D01*
X47105Y-36920D01*
G37*
G36*
X54605Y-52750D02*
X53995Y-52750D01*
X54195Y-52040D01*
X54405Y-52040D01*
X54605Y-52750D01*
X54605Y-52750D01*
G37*
G36*
X54605Y-51290D02*
X54405Y-52000D01*
X54195Y-52000D01*
X53995Y-51290D01*
X54605Y-51290D01*
X54605Y-51290D01*
G37*
G36*
X55580Y-52255D02*
X54970Y-52255D01*
X55170Y-51545D01*
X55380Y-51545D01*
X55580Y-52255D01*
X55580Y-52255D01*
G37*
G36*
X55580Y-50795D02*
X55380Y-51505D01*
X55170Y-51505D01*
X54970Y-50795D01*
X55580Y-50795D01*
X55580Y-50795D01*
G37*
G36*
X53580Y-52280D02*
X52970Y-52280D01*
X53170Y-51570D01*
X53380Y-51570D01*
X53580Y-52280D01*
X53580Y-52280D01*
G37*
G36*
X53580Y-50820D02*
X53380Y-51530D01*
X53170Y-51530D01*
X52970Y-50820D01*
X53580Y-50820D01*
X53580Y-50820D01*
G37*
G36*
X52505Y-52650D02*
X51895Y-52650D01*
X52095Y-51940D01*
X52305Y-51940D01*
X52505Y-52650D01*
X52505Y-52650D01*
G37*
G36*
X52505Y-51190D02*
X52305Y-51900D01*
X52095Y-51900D01*
X51895Y-51190D01*
X52505Y-51190D01*
X52505Y-51190D01*
G37*
G36*
X44105Y-37955D02*
X43495Y-37955D01*
X43695Y-37245D01*
X43905Y-37245D01*
X44105Y-37955D01*
X44105Y-37955D01*
G37*
G36*
X44105Y-36495D02*
X43905Y-37205D01*
X43695Y-37205D01*
X43495Y-36495D01*
X44105Y-36495D01*
X44105Y-36495D01*
G37*
G36*
X48555Y-49955D02*
X47945Y-49955D01*
X48145Y-49245D01*
X48355Y-49245D01*
X48555Y-49955D01*
X48555Y-49955D01*
G37*
G36*
X48555Y-48495D02*
X48355Y-49205D01*
X48145Y-49205D01*
X47945Y-48495D01*
X48555Y-48495D01*
X48555Y-48495D01*
G37*
G36*
X50705Y-52600D02*
X50095Y-52600D01*
X50295Y-51890D01*
X50505Y-51890D01*
X50705Y-52600D01*
X50705Y-52600D01*
G37*
G36*
X50705Y-51140D02*
X50505Y-51850D01*
X50295Y-51850D01*
X50095Y-51140D01*
X50705Y-51140D01*
X50705Y-51140D01*
G37*
G36*
X57655Y-37730D02*
X57045Y-37730D01*
X57245Y-37020D01*
X57455Y-37020D01*
X57655Y-37730D01*
X57655Y-37730D01*
G37*
G36*
X57655Y-36270D02*
X57455Y-36980D01*
X57245Y-36980D01*
X57045Y-36270D01*
X57655Y-36270D01*
X57655Y-36270D01*
G37*
G36*
X50730Y-37455D02*
X50120Y-37455D01*
X50320Y-36745D01*
X50530Y-36745D01*
X50730Y-37455D01*
X50730Y-37455D01*
G37*
G36*
X50730Y-35995D02*
X50530Y-36705D01*
X50320Y-36705D01*
X50120Y-35995D01*
X50730Y-35995D01*
X50730Y-35995D01*
G37*
G36*
X49705Y-49930D02*
X49095Y-49930D01*
X49295Y-49220D01*
X49505Y-49220D01*
X49705Y-49930D01*
X49705Y-49930D01*
G37*
G36*
X49705Y-48470D02*
X49505Y-49180D01*
X49295Y-49180D01*
X49095Y-48470D01*
X49705Y-48470D01*
X49705Y-48470D01*
G37*
G54D19*
X82680Y-35665D03*
X82680Y-36415D03*
G54D13*
X62525Y-37100D03*
X63275Y-37100D03*
G54D32*
X65900Y-51345D03*
X65900Y-50755D03*
G54D33*
X69145Y-31240D03*
X62190Y-31355D03*
G54D34*
X62160Y-34010D03*
X63160Y-34010D03*
G54D35*
X61160Y-34010D03*
G54D34*
X79915Y-34835D03*
X80915Y-34835D03*
G54D35*
X78915Y-34835D03*
G54D34*
X75000Y-34850D03*
X76000Y-34850D03*
G54D35*
X74000Y-34850D03*
G54D34*
X69265Y-33865D03*
X70265Y-33865D03*
G54D35*
X68265Y-33865D03*
G54D36*
X46879Y-32566D03*
X43020Y-32566D03*
G54D37*
X44950Y-31700D03*
X45934Y-31700D03*
X43965Y-31700D03*
G54D36*
X53529Y-32616D03*
X49670Y-32616D03*
G54D37*
X51600Y-31750D03*
X52584Y-31750D03*
X50615Y-31750D03*
G54D38*
X39240Y-31190D03*
X36011Y-31190D03*
G54D39*
X38413Y-31190D03*
X37625Y-31190D03*
X36838Y-31190D03*
G54D40*
X48790Y-35280D03*
X47790Y-35280D03*
X46790Y-35280D03*
X45790Y-35280D03*
X44790Y-35280D03*
X43790Y-35280D03*
X42790Y-35280D03*
X41790Y-35280D03*
X46390Y-54280D03*
X45390Y-54280D03*
X44390Y-54280D03*
X43390Y-54280D03*
X47390Y-54280D03*
X48390Y-54280D03*
X49390Y-54280D03*
X50390Y-54280D03*
X52390Y-54280D03*
X53390Y-54280D03*
X54390Y-54280D03*
X55390Y-54280D03*
X56390Y-54280D03*
X57390Y-54280D03*
X57390Y-35280D03*
X56390Y-35280D03*
X55390Y-35280D03*
X54390Y-35280D03*
X53390Y-35280D03*
X52390Y-35280D03*
X51390Y-35280D03*
X50390Y-35280D03*
G54D41*
X58390Y-52280D03*
X58390Y-41280D03*
X38390Y-35280D03*
X37890Y-54280D03*
G54D29*
X23100Y-33700D03*
X23100Y-51888D03*
X25974Y-51888D03*
X25974Y-50235D03*
X25974Y-48581D03*
X25974Y-46928D03*
X25974Y-45274D03*
X25974Y-43621D03*
X25974Y-41967D03*
X25974Y-40314D03*
X25974Y-38660D03*
X25974Y-37007D03*
X25974Y-35353D03*
X25974Y-33700D03*
X28139Y-51888D03*
X28139Y-50235D03*
X28139Y-48581D03*
X28139Y-46928D03*
X28139Y-45274D03*
X28139Y-43621D03*
X28139Y-41967D03*
X28139Y-40314D03*
X28139Y-38660D03*
X28139Y-37007D03*
X28139Y-35353D03*
X28139Y-33700D03*
X72850Y-52400D03*
G54D42*
X67800Y-37100D03*
X76850Y-32600D03*
X65700Y-33550D03*
X72300Y-49600D03*
X68800Y-51650D03*
X59650Y-37200D03*
X80900Y-39400D03*
X66500Y-40600D03*
G54D43*
X79350Y-40800D03*
G54D44*
X78450Y-43300D03*
G54D43*
X77550Y-40800D03*
X71650Y-40850D03*
G54D44*
X70750Y-43350D03*
G54D43*
X69850Y-40850D03*
G54D24*
X68650Y-42350D03*
X68650Y-41050D03*
G54D13*
X82775Y-39400D03*
X82025Y-39400D03*
X82775Y-38600D03*
X82025Y-38600D03*
G54D19*
X76500Y-40825D03*
X76500Y-40075D03*
G54D13*
X73325Y-41050D03*
X74075Y-41050D03*
G54D19*
X72600Y-40625D03*
X72600Y-41375D03*
G54D17*
X75450Y-32400D03*
G54D18*
X74450Y-32400D03*
X73450Y-32400D03*
G54D17*
X78350Y-32450D03*
G54D18*
X79350Y-32450D03*
X80350Y-32450D03*
G54D10*
G36*
X83400Y-46149D02*
X74650Y-46100D01*
X74650Y-42150D01*
X83400Y-42150D01*
X83400Y-46149D01*
X83400Y-46149D01*
G37*
G54D45*
X83400Y-46149D02*
X74650Y-46100D01*
X74650Y-42150D01*
X83400Y-42150D01*
X83400Y-46149D01*
G54D10*
G36*
X73200Y-46150D02*
X68250Y-46150D01*
X68250Y-45350D01*
X65400Y-45350D01*
X65400Y-42050D01*
X73200Y-42050D01*
X73200Y-46150D01*
X73200Y-46150D01*
G37*
G54D45*
X73200Y-46150D02*
X68250Y-46150D01*
X68250Y-45350D01*
X65400Y-45350D01*
X65400Y-42050D01*
X73200Y-42050D01*
X73200Y-46150D01*
M02*
